<?xml version="1.0" standalone="no"?>
<!DOCTYPE svg PUBLIC "-//W3C//DTD SVG 1.1//EN" "http://www.w3.org/Graphics/SVG/1.1/DTD/svg11.dtd" >
<svg xmlns="http://www.w3.org/2000/svg" xmlns:xlink="http://www.w3.org/1999/xlink" version="1.1">
<metadata>
Created by FontForge 20170731 at Sun May 16 20:06:49 2021
 By Aleksey,,,
Copyright (c) 2011 by Mark Simonson. All rights reserved. |DCNT
</metadata>
<defs>
<font id="Bookmania-Bold" horiz-adv-x="1208" >
  <font-face 
    font-family="Bookmania"
    font-weight="700"
    font-stretch="normal"
    units-per-em="2048"
    panose-1="0 0 8 0 0 0 0 0 0 0"
    ascent="1602"
    descent="-446"
    x-height="944"
    cap-height="1434"
    bbox="-983 -1286 3860 2109"
    underline-thickness="102"
    underline-position="-307"
    unicode-range="U+000D-FB06"
  />
<missing-glyph horiz-adv-x="1662" 
d="M197 0v1434h1267v-1434h-1267zM741 717l-360 575v-1151zM831 860l271 432h-541zM922 717l360 -576v1151zM831 573l-270 -432h541z" />
    <glyph glyph-name="longs_h" unicode="&#x17f;h" horiz-adv-x="1869" 
d="M1200 0h-543v86q69 8 92 25.5t23 64.5v967h-6q-39 0 -67.5 18.5t-44.5 45t-29 53t-29 45t-37 18.5q-42 0 -67 -37t-25 -100v-1010q0 -44 26.5 -63.5t98.5 -26.5v-86h-553v86q69 8 92 25.5t23 64.5v637h-115v131h115v37q0 225 141 354q144 129 352 129q150 0 223 -73
l101 73h114v-590q151 101 310 101q323 0 323 -320v-479q0 -47 22.5 -64.5t90.5 -25.5v-86h-543v86q69 8 92 25.5t23 64.5v488q0 137 -133 137q-96 0 -185 -62v-563q0 -47 23 -64.5t92 -25.5v-86z" />
    <glyph glyph-name="longs_i" unicode="&#x17f;i" horiz-adv-x="1239" 
d="M39 813v131h115v37q0 102 35 185.5t92 138t132.5 91t152.5 52.5t157 16q158 0 250 -65t92 -148q0 -57 -40 -97t-97 -40q-53 0 -85 25t-69 88q-76 110 -147 110q-70 0 -115 -49.5t-45 -138.5v-973q0 -44 26.5 -63.5t98.5 -26.5v-86h-553v86q69 8 92 25.5t23 64.5v637h-115
zM1200 0h-543v86q69 8 92 25.5t23 64.5v486q0 61 -51 61h-64v80l314 172h114v-799q0 -47 23 -64.5t92 -25.5v-86z" />
    <glyph glyph-name="longs_l" unicode="&#x17f;l" horiz-adv-x="1239" 
d="M1200 0h-543v86q69 8 92 25.5t23 64.5v967h-6q-39 0 -67.5 18.5t-44.5 45t-29 53t-29 45t-37 18.5q-42 0 -67 -37t-25 -100v-1010q0 -44 26.5 -63.5t98.5 -26.5v-86h-553v86q69 8 92 25.5t23 64.5v637h-115v131h115v37q0 225 141 354q144 129 352 129q150 0 223 -73
l101 73h114v-1288q0 -47 23 -64.5t92 -25.5v-86z" />
    <glyph glyph-name="ff" unicode="ff" horiz-adv-x="1275" 
d="M1253 1464q107 0 174.5 -45t67.5 -119q0 -64 -41 -105.5t-106 -41.5q-39 0 -66.5 17t-42 41t-25.5 48t-25 41t-32 17q-32 0 -52 -31.5t-20 -85.5v-256h170v-131h-170v-637q0 -44 26.5 -63.5t98.5 -26.5v-86h-553v86q69 8 92 25.5t23 64.5v637h-305v-637q0 -44 26.5 -63.5
t98.5 -26.5v-86h-553v86q69 8 92 25.5t23 64.5v637h-115v131h115v43q0 225 137 350q139 127 344 127q107 0 173 -45t66 -119v-2q135 166 379 166zM467 944h305v43q0 99 31 184q-30 -18 -74 -18q-47 0 -78.5 25.5t-44 56.5t-29.5 56.5t-38 25.5q-72 0 -72 -117v-256z" />
    <glyph glyph-name="fi" unicode="fi" horiz-adv-x="1239" 
d="M1200 0h-543v86q69 8 92 25.5t23 64.5v576q0 61 -49 61h-256v-637q0 -44 26.5 -63.5t98.5 -26.5v-86h-553v86q69 8 92 25.5t23 64.5v637h-115v131h115v37q0 102 35 185.5t92 138t132.5 91t152.5 52.5t157 16q158 0 250 -65t92 -148q0 -57 -40 -97t-97 -40q-60 4 -89 28
t-65 85q-76 110 -147 110q-70 0 -115 -49.5t-45 -138.5v-205h618v-768q0 -47 23 -64.5t92 -25.5v-86z" />
    <glyph glyph-name="fl" unicode="fl" horiz-adv-x="1239" 
d="M1200 0h-543v86q69 8 92 25.5t23 64.5v637h-305v-637q0 -44 26.5 -63.5t98.5 -26.5v-86h-553v86q69 8 92 25.5t23 64.5v637h-115v131h115v37q0 225 141 354q144 129 352 129q150 0 223 -73l101 73h114v-1288q0 -47 23 -64.5t92 -25.5v-86zM467 1186v-242h305v199
q-46 0 -82 27t-51 63q-14 37 -35 63.5t-45 26.5q-42 0 -67 -37t-25 -100z" />
    <glyph glyph-name="ffi" unicode="ffi" horiz-adv-x="1857" 
d="M1706 944v-768q0 -47 22.5 -64.5t90.5 -25.5v-86h-543v86q69 8 92 25.5t23 64.5v576q0 61 -50 61h-256v-637q0 -44 26.5 -63.5t98.5 -26.5v-86h-553v86q69 8 92 25.5t23 64.5v637h-305v-637q0 -44 26.5 -63.5t98.5 -26.5v-86h-553v86q69 8 92 25.5t23 64.5v637h-115v131
h115v43q0 225 137 350q139 127 344 127q107 0 173 -45t66 -119q0 -18 -2 -24q79 93 203.5 140.5t265.5 47.5q158 0 250 -65t92 -148q0 -57 -39 -97t-96 -40q-52 0 -83.5 24t-71.5 89q-70 110 -148 110q-70 0 -115 -49.5t-45 -138.5v-205h621zM467 944h305v37q0 110 39 195
q-35 -23 -82.5 -23t-79.5 25q-18 16 -33.5 42t-24 46.5t-22 35.5t-30.5 15q-72 0 -72 -117v-256z" />
    <glyph glyph-name="ffl" unicode="ffl" horiz-adv-x="1857" 
d="M1706 1464v-1288q0 -47 22.5 -64.5t90.5 -25.5v-86h-543v86q69 8 92 25.5t23 64.5v637h-306v-637q0 -44 26.5 -63.5t98.5 -26.5v-86h-553v86q69 8 92 25.5t23 64.5v637h-305v-637q0 -44 26.5 -63.5t98.5 -26.5v-86h-553v86q69 8 92 25.5t23 64.5v637h-115v131h115v43
q0 225 137 350q139 127 344 127q107 0 173 -45t66 -119v-8q141 172 392 172q150 0 223 -73l100 73h117zM1085 944h306v199q-40 0 -69.5 18.5t-45.5 45t-29.5 53t-30 45t-38.5 18.5q-42 0 -67.5 -37.5t-25.5 -99.5v-242zM467 944h305v37q0 105 33 190q-30 -18 -76 -18
q-47 0 -78.5 25.5t-44 56.5t-29.5 56.5t-38 25.5q-72 0 -72 -117v-256z" />
    <glyph glyph-name="uniFB05" unicode="&#x17f;t" horiz-adv-x="1359" 
d="M1323 131v-125q-110 -35 -225 -35q-164 0 -240 68.5t-76 230.5v543h-112v80q237 65 237 242q0 91 -60 145.5t-159 54.5q-105 0 -163 -75t-58 -220v-864q0 -44 26.5 -63.5t98.5 -26.5v-86h-553v86q69 8 92 25.5t23 64.5v637h-115v131h115v43q0 223 145 350t381 127
q178 0 297 -88q121 -89 121 -262v-170h225v-131h-225v-563q0 -139 110 -139q65 0 115 20z" />
    <glyph glyph-name="f_b" unicode="fb" horiz-adv-x="1839" 
d="M772 -31v844h-305v-637q0 -44 26.5 -63.5t98.5 -26.5v-86h-553v86q69 8 92 25.5t23 64.5v637h-115v131h115v37q0 225 141 354q144 129 352 129q150 0 223 -73l101 73h114v-583q107 94 267 94q196 0 315 -137q121 -139 121 -365q0 -231 -129 -369q-126 -135 -348 -135
q-168 0 -273 97l-147 -97h-119zM467 1186v-242h305v199q-40 0 -69.5 18.5t-45.5 45t-29.5 53t-30 45t-38.5 18.5q-42 0 -67 -37t-25 -100zM1085 743v-544q60 -84 164 -84q112 0 163.5 86.5t51.5 271.5q0 184 -51.5 269t-163.5 85q-104 0 -164 -84z" />
    <glyph glyph-name="f_h" unicode="fh" horiz-adv-x="1869" 
d="M1200 0h-543v86q69 8 92 25.5t23 64.5v637h-305v-637q0 -44 26.5 -63.5t98.5 -26.5v-86h-553v86q69 8 92 25.5t23 64.5v637h-115v131h115v37q0 225 141 354q144 129 352 129q150 0 223 -73l101 73h114v-590q151 101 310 101q144 0 233 -74q90 -72 90 -268v-457
q0 -47 22.5 -64.5t90.5 -25.5v-86h-543v86q69 8 92 25.5t23 64.5v488q0 137 -133 137q-96 0 -185 -62v-563q0 -47 23 -64.5t92 -25.5v-86zM467 1186v-242h305v199q-40 0 -69.5 18.5t-45.5 45t-29.5 53t-30 45t-38.5 18.5q-42 0 -67 -37t-25 -100z" />
    <glyph glyph-name="f_j" unicode="fj" horiz-adv-x="1220" 
d="M354 -223q0 54 44.5 95.5t101.5 41.5q38 0 66.5 -18t44.5 -43.5t29 -51t27 -43.5t31 -18q35 0 54.5 31.5t19.5 85.5v895q0 61 -51 61h-254v-637q0 -44 26.5 -63.5t98.5 -26.5v-86h-553v86q69 8 92 25.5t23 64.5v637h-115v131h115v37q0 102 35 185.5t92 138t132.5 91
t152.5 52.5t157 16q158 0 250 -65t92 -148q0 -57 -40 -97t-97 -40q-50 0 -82 24.5t-72 88.5q-76 110 -147 110q-70 0 -115 -49.5t-45 -138.5v-205h618v-866q0 -234 -137 -359q-139 -127 -344 -127q-115 0 -182.5 48t-67.5 137z" />
    <glyph glyph-name="f_k" unicode="fk" horiz-adv-x="1839" 
d="M1200 0h-543v86q69 8 92 25.5t23 64.5v637h-305v-637q0 -44 26.5 -63.5t98.5 -26.5v-86h-553v86q69 8 92 25.5t23 64.5v637h-115v131h115v37q0 225 141 354q144 129 352 129q150 0 223 -73l101 73h114v-954l191 184q45 40 56.5 75.5t-17.5 59.5t-96 29v86h532v-86
q-77 -9 -123 -33q-43 -22 -123 -96l-86 -82l299 -436q46 -66 78 -91.5t76 -33.5v-86h-594v86q72 7 92 42.5t-18 82.5l-158 221l-109 -102v-154q0 -47 23 -64.5t92 -25.5v-86zM467 1186v-242h305v199q-46 0 -82 27t-51 63q-14 37 -35 63.5t-45 26.5q-42 0 -67 -37t-25 -100z
" />
    <glyph glyph-name="f_f_b" unicode="ffb" horiz-adv-x="2471" 
d="M1970 975q197 0 316 -137q120 -138 120 -365q0 -231 -129 -369q-126 -135 -348 -135q-167 0 -272 97l-148 -97h-118v844h-306v-637q0 -44 26.5 -63.5t98.5 -26.5v-86h-553v86q69 8 92 25.5t23 64.5v637h-305v-637q0 -44 26.5 -63.5t98.5 -26.5v-86h-553v86q69 8 92 25.5
t23 64.5v637h-115v131h115v43q0 225 137 350q139 127 344 127q107 0 173 -45t66 -119v-8q141 172 392 172q150 0 223 -73l100 73h117v-583q107 94 264 94zM1085 944h306v199q-40 0 -69.5 18.5t-45.5 45t-29.5 53t-30 45t-38.5 18.5q-42 0 -67.5 -37.5t-25.5 -99.5v-242z
M467 944h305v37q0 105 33 190q-30 -18 -76 -18q-47 0 -78.5 25.5t-44 56.5t-29.5 56.5t-38 25.5q-72 0 -72 -117v-256zM1868 115q112 0 163.5 86.5t51.5 271.5q0 184 -51.5 269t-163.5 85q-109 0 -162 -84v-544q57 -84 162 -84z" />
    <glyph glyph-name="f_f_j" unicode="ffj" horiz-adv-x="1853" 
d="M1085 1149v-205h621v-866q0 -232 -139 -359t-344 -127q-115 0 -182.5 48t-67.5 137q0 54 44 95.5t101 41.5q38 0 66.5 -18t45 -43.5t29.5 -51t27 -43.5t31 -18q74 0 74 117v895q0 61 -52 61h-254v-637q0 -44 26.5 -63.5t98.5 -26.5v-86h-553v86q69 8 92 25.5t23 64.5v637
h-305v-637q0 -44 26.5 -63.5t98.5 -26.5v-86h-553v86q69 8 92 25.5t23 64.5v637h-115v131h115v43q0 225 137 350q139 127 344 127q107 0 173 -45t66 -119q0 -18 -2 -24q79 93 203.5 140.5t265.5 47.5q158 0 250 -65t92 -148q0 -57 -39 -97t-96 -40q-61 6 -88 28t-67 85
q-70 110 -148 110q-70 0 -115 -49.5t-45 -138.5zM467 944h305v37q0 110 39 195q-35 -23 -82.5 -23t-79.5 25q-18 16 -33.5 42t-24 46.5t-22 35.5t-30.5 15q-72 0 -72 -117v-256z" />
    <glyph glyph-name="f_f_k" unicode="ffk" horiz-adv-x="2457" 
d="M2040 647l297 -436q47 -67 78.5 -92t76.5 -33v-86h-596v86q72 7 92 42.5t-18 82.5l-158 221l-106 -102v-154q0 -47 22.5 -64.5t90.5 -25.5v-86h-543v86q69 8 92 25.5t23 64.5v637h-306v-637q0 -44 26.5 -63.5t98.5 -26.5v-86h-553v86q69 8 92 25.5t23 64.5v637h-305v-637
q0 -44 26.5 -63.5t98.5 -26.5v-86h-553v86q69 8 92 25.5t23 64.5v637h-115v131h115v43q0 225 137 350q139 127 344 127q107 0 173 -45t66 -119v-8q141 172 392 172q150 0 223 -73l100 73h117v-954l188 184q70 60 57.5 108.5t-112.5 55.5v86h531v-86q-74 -9 -121 -33
q-43 -22 -123 -96zM1085 944h306v199q-40 0 -69.5 18.5t-45.5 45t-29.5 53t-30 45t-38.5 18.5q-42 0 -67.5 -37.5t-25.5 -99.5v-242zM467 944h305v37q0 105 33 190q-30 -18 -76 -18q-47 0 -78.5 25.5t-44 56.5t-29.5 56.5t-38 25.5q-72 0 -72 -117v-256z" />
    <glyph glyph-name="longs_b" unicode="&#x17f;b" horiz-adv-x="1839" 
d="M772 -31v1174h-6q-39 0 -67.5 18.5t-44.5 45t-29 53t-29 45t-37 18.5q-42 0 -67 -37t-25 -100v-1010q0 -44 26.5 -63.5t98.5 -26.5v-86h-553v86q69 8 92 25.5t23 64.5v637h-115v131h115v37q0 225 141 354q144 129 352 129q150 0 223 -73l101 73h114v-583q107 94 267 94
q196 0 315 -137q121 -139 121 -365q0 -231 -129 -369q-126 -135 -348 -135q-168 0 -273 97l-147 -97h-119zM1085 743v-544q60 -84 164 -84q112 0 163.5 86.5t51.5 271.5q0 184 -51.5 269t-163.5 85q-104 0 -164 -84z" />
    <glyph glyph-name="longs_k" unicode="&#x17f;k" horiz-adv-x="1839" 
d="M1200 0h-543v86q69 8 92 25.5t23 64.5v967h-6q-39 0 -67.5 18.5t-44.5 45t-29 53t-29 45t-37 18.5q-42 0 -67 -37t-25 -100v-1010q0 -44 26.5 -63.5t98.5 -26.5v-86h-553v86q69 8 92 25.5t23 64.5v637h-115v131h115v37q0 225 141 354q144 129 352 129q150 0 223 -73
l101 73h114v-954l191 184q45 40 56.5 75.5t-17.5 59.5t-96 29v86h532v-86q-77 -9 -123 -33q-43 -22 -123 -96l-84 -82l297 -436q46 -66 78 -91.5t76 -33.5v-86h-594v86q72 7 92 42.5t-18 82.5l-158 221l-109 -102v-154q0 -47 23 -64.5t92 -25.5v-86z" />
    <glyph glyph-name=".notdef" horiz-adv-x="1662" 
d="M197 0v1434h1267v-1434h-1267zM741 717l-360 575v-1151zM831 860l271 432h-541zM922 717l360 -576v1151zM831 573l-270 -432h541z" />
    <glyph glyph-name=".null" horiz-adv-x="0" 
 />
    <glyph glyph-name="nonmarkingreturn" horiz-adv-x="682" 
 />
    <glyph glyph-name="NULL" horiz-adv-x="0" 
 />
    <glyph glyph-name="NULL" horiz-adv-x="0" 
 />
    <glyph glyph-name="CR" unicode="&#xd;" horiz-adv-x="0" 
 />
    <glyph glyph-name="space" unicode=" " horiz-adv-x="483" 
 />
    <glyph glyph-name="exclam" unicode="!" horiz-adv-x="546" 
d="M334 477h-121q-9 210 -72 424q-63 220 -63 305q0 121 53 189.5t141 68.5t142.5 -68.5t54.5 -187.5q0 -87 -63 -307q-63 -214 -72 -424zM129 297q51 57 143 57q93 0 144 -57q56 -55 56 -133t-56 -135q-53 -56 -144 -56q-90 0 -143 56q-51 57 -51 135t51 133z" />
    <glyph glyph-name="quotedbl" unicode="&#x22;" horiz-adv-x="1015" 
d="M317 801h-88q-21 136 -73 284q-52 149 -52 207q0 77 47.5 124.5t120.5 47.5q72 0 120 -48t48 -122q0 -63 -51 -209q-50 -143 -72 -284zM788 801h-88q-21 136 -73 284q-52 149 -52 207q0 77 47.5 124.5t120.5 47.5t120.5 -48t47.5 -122q0 -63 -51 -209q-50 -143 -72 -284z
" />
    <glyph glyph-name="numbersign" unicode="#" horiz-adv-x="1161" 
d="M500 0l108 387h-246l-108 -387h-129l108 387h-217v123h254l117 414h-229v125h264l110 385h130l-111 -385h246l110 385h129l-110 -385h219v-125h-254l-119 -414h232v-123h-267l-108 -387h-129zM516 924l-117 -414h244l119 414h-246z" />
    <glyph glyph-name="dollar" unicode="$" 
d="M1145 397q0 -177 -125 -293q-127 -118 -336 -133v-198h-123v200q-151 12 -272 86l-29 -59h-98l-111 463l80 22q87 -182 198.5 -286t231.5 -105v506q-23 6 -37 16q-91 41 -116 54q-45 23 -105 61q-59 42 -94 86q-84 111 -84 256q0 153 119 266q120 114 323 123v94h125v-98
q121 -15 189 -80l24 56h101l98 -414l-74 -21q-80 172 -158 252.5t-180 87.5v-465l43 -18q19 -9 45.5 -20t44 -19t29.5 -14q39 -20 104 -64q64 -41 99 -84q38 -45 63 -113t25 -145zM446 1128q0 -111 121 -188v381q-121 -47 -121 -193zM684 539v-426q141 53 141 204
q0 133 -141 222z" />
    <glyph glyph-name="percent" unicode="%" horiz-adv-x="1824" 
d="M133 1339q94 113 260 113q167 0 258 -113q94 -113 94 -335q0 -223 -94 -336q-91 -113 -258 -113q-166 0 -260 113q-92 115 -92 336q0 220 92 335zM379 0l938 1434h129l-938 -1434h-129zM498 1004q0 202 -23 282q-21 76 -82 76q-63 0 -84 -76q-22 -80 -22 -282
q0 -205 22 -285q21 -76 84 -76q61 0 82 76q23 84 23 285zM1171 766q94 113 261 113t258 -113q94 -113 94 -336t-94 -336q-90 -112 -258 -112t-261 112q-92 115 -92 336t92 336zM1536 430q0 202 -23 283q-21 75 -81 75q-63 0 -84 -75q-23 -84 -23 -283q0 -201 23 -285
q21 -75 84 -75q60 0 81 75q23 84 23 285z" />
    <glyph glyph-name="ampersand" unicode="&#x26;" horiz-adv-x="1581" 
d="M1540 954v-96q-87 -2 -128 -38t-58 -134q-35 -206 -150 -367q45 -116 84.5 -160t108.5 -44q67 0 143 18v-104q-91 -60 -240 -60q-218 0 -337 125q-204 -125 -457 -125q-204 0 -326 107q-123 108 -123 278q0 83 25 153t76 128t117 105t159 96q-84 76 -121 144.5t-37 158.5
q0 128 105 227q104 98 281 98q163 0 253.5 -79t90.5 -209q0 -94 -51.5 -163t-161.5 -141q230 -149 356 -417q65 127 65 254q0 87 -37 117t-128 32v96h491zM518 1165q0 -64 34.5 -111.5t115.5 -103.5q196 108 196 226q0 74 -45.5 118.5t-126.5 44.5q-72 0 -123 -48.5
t-51 -125.5zM702 154q96 0 187 45q0 1 -1 2t-1 2q-186 381 -316 514q-125 -119 -125 -277q0 -138 68 -212t188 -74z" />
    <glyph glyph-name="quotesingle" unicode="'" horiz-adv-x="546" 
d="M317 801h-88q-21 136 -73 284q-52 149 -52 207q0 77 47.5 124.5t120.5 47.5q72 0 120 -48t48 -122q0 -63 -51 -209q-50 -143 -72 -284z" />
    <glyph glyph-name="parenleft" unicode="(" horiz-adv-x="677" 
d="M614 1505l50 -67q-157 -127 -258 -371t-101 -535q0 -289 101 -530q102 -243 258 -375l-50 -67q-245 142 -411 391q-162 241 -162 581q0 341 162 582q166 249 411 391z" />
    <glyph glyph-name="parenright" unicode=")" horiz-adv-x="677" 
d="M63 -440l-49 67q156 132 258 375q101 241 101 530q0 291 -101 535t-258 371l49 67q249 -142 414 -391q162 -241 162 -582q0 -340 -162 -581q-165 -249 -414 -391z" />
    <glyph glyph-name="asterisk" unicode="*" horiz-adv-x="753" 
d="M414 1157q39 33 84 84q53 60 69 70q42 22 77 12.5t56 -45.5q21 -32 10.5 -70.5t-46.5 -58.5q-29 -16 -99 -31q-72 -12 -112 -26q60 -19 114 -29q68 -12 95 -27q38 -23 48.5 -61t-10.5 -70q-21 -36 -56 -45.5t-77 12.5q-25 14 -73 68q-56 63 -80 84q5 -24 32 -111
q25 -67 25 -96q0 -44 -26 -71t-68 -27q-39 0 -66.5 27.5t-27.5 70.5q0 28 22 96q27 84 33 113q-24 -21 -80 -84q-52 -59 -72 -70q-42 -22 -77 -12.5t-56 45.5q-21 32 -10 70t49 61q27 15 92 27q56 10 115 29q-41 13 -113 26q-70 15 -94 29q-38 23 -49 61t10 70
q21 36 56.5 45.5t74.5 -12.5q29 -16 76 -72q56 -63 80 -84q-8 39 -35 113q-22 71 -22 98q0 43 27.5 70.5t66.5 27.5q41 0 67.5 -26.5t26.5 -69.5q0 -30 -25 -100q-26 -80 -32 -111z" />
    <glyph glyph-name="plus" unicode="+" horiz-adv-x="1161" 
d="M16 653v131h498v498h131v-498h500v-131h-500v-497h-131v497h-498z" />
    <glyph glyph-name="comma" unicode="," horiz-adv-x="546" 
d="M272 354q91 0 145 -59.5t54 -153.5q0 -104 -82 -241q-79 -138 -178 -232l-66 56q98 124 134 249q-91 0 -146 55t-55 136t53 135.5t141 54.5z" />
    <glyph glyph-name="hyphen" unicode="-" horiz-adv-x="575" 
d="M16 381v184h543v-184h-543z" />
    <glyph glyph-name="period" unicode="." horiz-adv-x="546" 
d="M129 297q51 57 143 57q93 0 144 -57q56 -55 56 -133t-56 -135q-53 -56 -144 -56q-90 0 -143 56q-51 57 -51 135t51 133z" />
    <glyph glyph-name="slash" unicode="/" horiz-adv-x="677" 
d="M0 -438l549 1933h129l-549 -1933h-129z" />
    <glyph glyph-name="zero" unicode="0" 
d="M205 1268q144 196 399 196q256 0 397 -196q144 -193 144 -551q0 -357 -144 -553q-142 -195 -397 -195q-254 0 -399 195q-142 198 -142 553q0 356 142 551zM786 717q0 348 -38 477q-38 139 -144 139q-104 0 -145 -139q-37 -136 -37 -477q0 -339 37 -475q41 -140 145 -140
q106 0 144 140q38 129 38 475z" />
    <glyph glyph-name="one" unicode="1" 
d="M1001 0h-794v86q131 9 178 33q45 26 45 110v893q0 62 -51 62h-170v80l422 200h147v-1235q0 -84 45 -110q47 -24 178 -33v-86z" />
    <glyph glyph-name="two" unicode="2" 
d="M258 977h-143q0 226 127.5 356.5t347.5 130.5q209 0 340 -116q133 -118 133 -299q0 -384 -610 -732h432q61 0 84 23q23 20 45 119h96l-61 -504h-97q0 45 -47 45h-774v195q292 230 432 423q142 195 142 431q0 129 -53.5 200.5t-155.5 71.5q-109 0 -173.5 -89t-64.5 -255z
" />
    <glyph glyph-name="three" unicode="3" 
d="M784 831q155 -25 249.5 -127t94.5 -247q0 -213 -159 -351q-155 -137 -439 -137q-168 0 -309 66q-135 64 -135 188q0 66 41 107t104 41t107 -38t63 -93q21 -56 59 -93.5t91 -37.5q219 0 219 303q0 142 -76.5 225.5t-214.5 83.5h-37v139h37q102 0 155.5 63.5t53.5 180.5
q0 99 -48 158t-132 59q-95 0 -157.5 -70.5t-69.5 -197.5h-144q17 196 133 303.5t316 107.5q213 0 337 -89t124 -232q0 -107 -68 -189t-195 -123z" />
    <glyph glyph-name="four" unicode="4" 
d="M950 0h-348v340h-543v104l617 990h274v-955h199v-139h-199v-340zM602 1051l-354 -572h354v572z" />
    <glyph glyph-name="five" unicode="5" 
d="M1124 487q0 -224 -157 -372q-158 -146 -432 -146q-171 0 -312 66q-139 65 -139 188q0 63 39.5 105.5t95.5 42.5q54 0 92.5 -27t61.5 -65.5t46.5 -77t63 -65.5t95.5 -27q119 0 190.5 71t71.5 189q0 120 -95 197t-251 77t-281 -76l-90 35l127 832h635q48 0 57 45h96
l-39 -361h-657l-33 -217q105 51 258 51q255 0 404 -131q153 -132 153 -334z" />
    <glyph glyph-name="six" unicode="6" 
d="M674 924q219 0 346 -142q125 -137 125 -323q0 -193 -152 -342q-151 -148 -389 -148q-252 0 -395 174q-146 178 -146 473q0 198 81 361t221 264q271 198 630 223v-125q-416 -39 -532 -456q103 41 211 41zM604 102q182 0 182 357q0 149 -55.5 235t-157.5 86q-72 0 -139 -37
q-12 -88 -12 -196q0 -230 41 -337.5t141 -107.5z" />
    <glyph glyph-name="seven" unicode="7" 
d="M668 0h-359q43 306 189 600q138 281 352 518h-514q-62 0 -86 -24t-45 -117h-96l55 502h96q0 -45 47 -45h787v-193q-370 -493 -426 -1241z" />
    <glyph glyph-name="eight" unicode="8" 
d="M866 809q145 -84 212 -179.5t67 -234.5q0 -194 -150 -310t-413 -116q-233 0 -377 111q-142 115 -142 274q0 127 63.5 212t186.5 149q-188 138 -188 364q0 162 135 273q133 112 369 112q215 0 334 -98q120 -99 120 -233q0 -210 -217 -324zM670 1331q-89 0 -141 -45.5
t-52 -128.5q0 -86 51 -141.5t170 -116.5q166 99 166 238q0 88 -51.5 141t-142.5 53zM563 100q111 0 171.5 56t60.5 151q0 105 -74 170q-75 69 -250 148q-170 -105 -170 -273q0 -112 71 -182t191 -70z" />
    <glyph glyph-name="nine" unicode="9" 
d="M604 1464q251 0 395 -176q146 -178 146 -471q0 -198 -80.5 -361.5t-220.5 -265.5q-273 -196 -631 -221v127q195 14 334 125.5t198 329.5q-103 -41 -210 -41q-220 0 -347 139q-125 140 -125 326q0 196 152 342q150 147 389 147zM635 653q72 0 139 37q12 88 12 197
q0 233 -41 339.5t-141 106.5q-182 0 -182 -358q0 -150 55.5 -236t157.5 -86z" />
    <glyph glyph-name="colon" unicode=":" horiz-adv-x="546" 
d="M129 913q52 58 143 58q92 0 144 -58q56 -55 56 -133t-56 -135q-52 -55 -144 -55q-91 0 -143 55q-51 57 -51 135t51 133zM129 297q51 57 143 57q93 0 144 -57q56 -55 56 -133t-56 -135q-53 -56 -144 -56q-90 0 -143 56q-51 57 -51 135t51 133z" />
    <glyph glyph-name="semicolon" unicode=";" horiz-adv-x="546" 
d="M129 913q52 58 143 58q92 0 144 -58q56 -55 56 -133t-56 -135q-52 -55 -144 -55q-91 0 -143 55q-51 57 -51 135t51 133zM272 354q91 0 145 -59.5t54 -153.5q0 -104 -82 -241q-79 -138 -178 -232l-66 56q98 124 134 249q-91 0 -146 55t-55 136t53 135.5t141 54.5z" />
    <glyph glyph-name="less" unicode="&#x3c;" horiz-adv-x="1161" 
d="M1102 330v-142l-1041 430v144l1041 430v-143l-869 -361z" />
    <glyph glyph-name="equal" unicode="=" horiz-adv-x="1161" 
d="M16 856v131h1129v-131h-1129zM16 451v131h1129v-131h-1129z" />
    <glyph glyph-name="greater" unicode="&#x3e;" horiz-adv-x="1161" 
d="M59 188v142l869 358l-869 361v143l1041 -430v-144z" />
    <glyph glyph-name="question" unicode="?" horiz-adv-x="991" 
d="M502 606l-10 -129h-125v408q329 0 329 215q0 94 -59.5 157.5t-161.5 63.5q-53 0 -91.5 -34.5t-59.5 -84.5q-20 -49 -58.5 -83t-91.5 -34q-56 0 -94.5 42.5t-38.5 105.5q0 113 102.5 172t270.5 59q248 0 391 -143q147 -141 147 -330q0 -181 -121.5 -282t-328.5 -103z
M430 354q88 0 142.5 -56t54.5 -134t-54.5 -134.5t-142.5 -56.5q-90 0 -143.5 55t-53.5 136t53.5 135.5t143.5 54.5z" />
    <glyph glyph-name="at" unicode="@" horiz-adv-x="1863" 
d="M1026 197q-125 -113 -297 -113q-181 0 -276 135q-96 137 -47 338q46 190 204 309t342 119q162 0 232 -98l209 98h102l-160 -633q-21 -108 54 -108q106 0 200 137t94 332q0 289 -188 436q-186 149 -473 149q-212 0 -404 -104q-192 -101 -313 -287q-121 -183 -121 -395
q0 -341 222 -545q221 -203 559 -203q162 0 307 53.5t311 166.5l62 -101q-351 -235 -682 -235q-384 0 -641 233q-259 232 -259 631q0 234 134 446q134 210 356 334q220 123 467 123q341 0 559 -188q219 -189 219 -514q0 -279 -162 -453q-159 -176 -391 -176q-77 0 -136.5 31
t-82.5 82zM1020 324l106 428q-21 86 -131 86q-103 0 -167.5 -72.5t-102.5 -230.5q-38 -161 -9.5 -231.5t128.5 -70.5q110 0 176 91z" />
    <glyph glyph-name="A" unicode="A" horiz-adv-x="1466" 
d="M860 1434l469 -1215q26 -68 60 -96.5t92 -36.5v-86h-652v86q95 8 119.5 33.5t-0.5 93.5l-71 184h-512l-72 -184q-26 -65 4.5 -92t130.5 -35v-86h-444v86q64 8 99.5 36.5t59.5 94.5l469 1217h248zM618 1059l-200 -522h403z" />
    <glyph glyph-name="B" unicode="B" horiz-adv-x="1484" 
d="M745 0h-704v86q101 9 131 33q31 25 31 110v975q0 86 -31 111q-27 24 -131 33v86h666q353 0 513 -82.5t160 -286.5q0 -242 -290 -309q331 -76 331 -350q0 -211 -168 -308.5t-508 -97.5zM727 1294h-100q-29 0 -45.5 -16t-16.5 -45v-408h144q144 0 213 55t69 185
q0 128 -63.5 178.5t-200.5 50.5zM750 686h-185v-485q0 -29 16.5 -45.5t45.5 -16.5h118q287 0 287 267q0 138 -73 209t-209 71z" />
    <glyph glyph-name="C" unicode="C" horiz-adv-x="1421" 
d="M1235 1434l100 -414l-84 -25q-75 156 -190.5 247t-247.5 91q-360 0 -360 -616q0 -615 360 -615q161 0 274 101q115 103 158 246l135 -46q-156 -434 -604 -434q-320 0 -516 205q-197 206 -197 543t197 543q195 204 516 204q193 0 332 -92l29 62h98z" />
    <glyph glyph-name="D" unicode="D" horiz-adv-x="1581" 
d="M721 0h-680v86q101 9 131 33q31 25 31 110v975q0 86 -31 111q-27 24 -131 33v86h684q384 0 588.5 -186.5t204.5 -530.5q0 -341 -206.5 -529t-590.5 -188zM725 1294h-98q-29 0 -45.5 -16t-16.5 -45v-1032q0 -29 16.5 -45.5t45.5 -16.5h94q205 0 306 138.5t101 439.5
q0 300 -100.5 438.5t-302.5 138.5z" />
    <glyph glyph-name="E" unicode="E" horiz-adv-x="1421" 
d="M627 139h108q179 0 336.5 86t271.5 234l74 -43l-200 -416h-1176v86q101 9 131 33q31 25 31 110v975q0 86 -31 111q-27 24 -131 33v86h1169l121 -371l-76 -33q-99 138 -226 201t-314 63h-88q-29 0 -45.5 -16t-16.5 -45v-416h242q98 0 133.5 41t40.5 135h94v-491h-94
q-5 94 -40.5 135t-133.5 41h-242v-477q0 -29 16.5 -45.5t45.5 -16.5z" />
    <glyph glyph-name="F" unicode="F" horiz-adv-x="1335" 
d="M565 1233v-416h242q98 0 133.5 41t40.5 135h94v-491h-94q-5 94 -40.5 135t-133.5 41h-242v-449q0 -85 31 -110q35 -24 141 -33v-86h-696v86q101 9 131 33q31 25 31 110v975q0 86 -31 111q-27 24 -131 33v86h1169l121 -371l-76 -33q-99 138 -226 201t-314 63h-88
q-29 0 -45.5 -16t-16.5 -45z" />
    <glyph glyph-name="G" unicode="G" horiz-adv-x="1533" 
d="M1255 0l-90 111q-151 -142 -383 -142q-326 0 -522 205q-197 206 -197 543t197 543q195 204 522 204q220 0 353 -92l26 62h101l98 -414l-84 -25q-75 160 -194.5 249t-258.5 89q-370 0 -370 -616q0 -615 340 -615q71 0 132 25.5t87 62.5v254q0 84 -31 109q-27 24 -131 33
v88h663v-88q-85 -9 -112 -33t-27 -109v-444h-119z" />
    <glyph glyph-name="H" unicode="H" horiz-adv-x="1662" 
d="M1622 0h-686v86q101 9 131 33q31 25 31 110v449h-533v-449q0 -85 31 -110q30 -24 131 -33v-86h-686v86q101 9 131 33q31 25 31 110v975q0 86 -31 111q-27 24 -131 33v86h686v-86q-103 -9 -133 -33q-29 -26 -29 -111v-387h533v387q0 86 -31 111q-27 24 -131 33v86h686v-86
q-103 -9 -133 -33q-29 -26 -29 -111v-975q0 -85 31 -110q30 -24 131 -33v-86z" />
    <glyph glyph-name="I" unicode="I" horiz-adv-x="768" 
d="M727 0h-686v86q101 9 131 33q31 25 31 110v975q0 86 -31 111q-27 24 -131 33v86h686v-86q-103 -9 -133 -33q-29 -26 -29 -111v-975q0 -85 31 -110q30 -24 131 -33v-86z" />
    <glyph glyph-name="J" unicode="J" horiz-adv-x="755" 
d="M565 1204v-1126q0 -275 -149 -406q-147 -135 -373 -135q-161 0 -246.5 60t-85.5 157q0 67 44 110.5t110 43.5q52 0 86.5 -20.5t51 -50t28.5 -59.5t28.5 -50.5t40.5 -20.5q55 0 79 67t24 216v1214q0 86 -31 111q-27 24 -131 33v86h686v-86q-103 -9 -133 -33
q-29 -26 -29 -111z" />
    <glyph glyph-name="K" unicode="K" horiz-adv-x="1566" 
d="M727 0h-686v86q101 9 131 33q31 25 31 110v975q0 86 -31 111q-27 24 -131 33v86h686v-86q-103 -9 -133 -33q-29 -26 -29 -111v-420l418 390q47 38 58.5 76t-20.5 65.5t-106 32.5v86h562v-86q-72 -9 -119 -33q-38 -20 -133 -105l-312 -286l500 -713q75 -110 172 -125v-86
h-686v86q89 8 106 35.5t-28 105.5l-324 453l-88 -80v-371q0 -85 31 -110q30 -24 131 -33v-86z" />
    <glyph glyph-name="L" unicode="L" horiz-adv-x="1306" 
d="M627 139h61q138 0 287 90q140 84 254 230l71 -43l-198 -416h-1061v86q101 9 131 33q31 25 31 110v975q0 86 -31 111q-27 24 -131 33v86h686v-86q-103 -9 -133 -33q-29 -26 -29 -111v-1003q0 -29 16.5 -45.5t45.5 -16.5z" />
    <glyph glyph-name="M" unicode="M" horiz-adv-x="1871" 
d="M1831 0h-686v86q101 9 131 33q31 25 31 110v910l-414 -1139h-119l-414 1133v-904q0 -85 31 -110q30 -24 131 -33v-86h-481v86q101 9 131 33q31 25 31 110v975q0 86 -31 111q-27 24 -131 33v86h598l303 -836l305 836h584v-86q-103 -9 -133 -33q-29 -26 -29 -111v-975
q0 -85 31 -110q30 -24 131 -33v-86z" />
    <glyph glyph-name="N" unicode="N" horiz-adv-x="1486" 
d="M524 0h-483v86q101 9 131 33q31 25 31 110v975q0 86 -31 111q-27 24 -131 33v86h555l545 -852v622q0 86 -31 111q-27 24 -131 33v86h479v-86q-104 -9 -131 -33q-29 -26 -29 -111v-1204h-219l-719 1128v-899q0 -85 31 -110q30 -24 133 -33v-86z" />
    <glyph glyph-name="O" unicode="O" horiz-adv-x="1617" 
d="M262 1262q199 202 547 202q349 0 545 -202q198 -201 198 -545t-198 -545q-197 -203 -545 -203q-347 0 -547 203q-199 202 -199 545t199 545zM635 147q68 -45 174 -45q104 0 172 45q126 78 166 322q16 115 16 248t-16 248q-40 246 -166 323q-68 45 -172 45
q-106 0 -174 -45q-123 -79 -166 -323q-16 -115 -16 -248t16 -248q43 -243 166 -322z" />
    <glyph glyph-name="P" unicode="P" horiz-adv-x="1454" 
d="M727 0h-686v86q101 9 131 33q31 25 31 110v975q0 88 -29 111q-27 24 -133 33v86h707q349 0 511 -86.5t162 -292.5q0 -214 -162 -301.5t-518 -87.5h-176v-437q0 -85 31 -110q30 -24 131 -33v-86zM748 1294h-121q-29 0 -45.5 -16t-16.5 -45v-428h176q146 0 218.5 59
t72.5 191q0 131 -68.5 185t-215.5 54z" />
    <glyph glyph-name="Q" unicode="Q" horiz-adv-x="1617" 
d="M1552 717q0 -291 -144 -483.5t-402 -243.5q0 -203 168 -203q85 0 131.5 53t46.5 146h141q0 -180 -115 -278.5t-311 -98.5q-210 0 -330 100.5t-121 278.5q-261 51 -407 244.5t-146 484.5q0 343 199 545t547 202q349 0 545 -202q198 -201 198 -545zM635 147q68 -45 174 -45
q104 0 172 45q126 78 166 322q16 115 16 248t-16 248q-40 246 -166 323q-68 45 -172 45q-106 0 -174 -45q-123 -79 -166 -323q-16 -115 -16 -248t16 -248q43 -243 166 -322z" />
    <glyph glyph-name="R" unicode="R" horiz-adv-x="1538" 
d="M1047 688l313 -477q42 -64 83 -91t109 -34v-86h-454l-426 666h-107v-437q0 -85 31 -110q30 -24 131 -33v-86h-686v86q101 9 131 33q31 25 31 110v975q0 88 -29 111q-27 24 -133 33v86h707q349 0 511 -86.5t162 -292.5q0 -309 -374 -367zM748 1294h-121q-29 0 -45.5 -16
t-16.5 -45v-428h176q146 0 218.5 59t72.5 191q0 131 -68.5 185t-215.5 54z" />
    <glyph glyph-name="S" unicode="S" horiz-adv-x="1374" 
d="M803 909q83 -24 145 -45q59 -17 131 -55q85 -43 121 -82q47 -47 78 -119t31 -157q0 -220 -174 -351q-171 -131 -433 -131q-237 0 -411 97l-31 -66h-98l-111 463l80 22q78 -165 225 -276q148 -109 328 -109q117 0 195.5 60.5t78.5 148.5q0 85 -67 148q-30 27 -84 49
q-59 29 -94 39q-41 15 -117 39q-54 16 -143 47q-55 19 -127 57q-76 40 -117 84q-45 47 -75 118.5t-30 153.5q0 196 154 308q150 112 377 112q232 0 383 -92l29 62h98l100 -414l-76 -21q-73 157 -204 245.5t-297 88.5q-105 0 -166.5 -50t-61.5 -132q0 -67 64 -127
q30 -23 82 -43q68 -28 217 -72z" />
    <glyph glyph-name="T" unicode="T" horiz-adv-x="1417" 
d="M1049 86v-86h-687v86q102 9 132 33t30 110v1004q0 61 -61 61q-215 0 -371 -264l-74 33l134 416h88q15 -45 67 -45h807q55 0 70 45h86l129 -416l-74 -33q-156 264 -377 264q-27 0 -44 -16t-17 -45v-1004q0 -85 31 -110q30 -24 131 -33z" />
    <glyph glyph-name="U" unicode="U" horiz-adv-x="1570" 
d="M553 1204v-774q0 -152 92 -232.5t240 -80.5q161 0 250.5 89.5t89.5 258.5v739q0 86 -31 111q-27 24 -131 33v86h481v-86q-103 -9 -133 -33q-29 -26 -29 -111v-739q0 -241 -150 -368.5t-419 -127.5q-301 0 -462 127.5t-161 368.5v739q0 87 -30 111q-27 24 -131 33v86h686
v-86q-103 -9 -133 -33q-29 -26 -29 -111z" />
    <glyph glyph-name="V" unicode="V" horiz-adv-x="1466" 
d="M854 0h-248l-469 1214q-26 69 -59.5 97.5t-93.5 36.5v86h653v-86q-95 -8 -119.5 -32.5t0.5 -92.5l330 -846l326 846q26 65 -4.5 91t-131.5 34v86h443v-86q-64 -8 -99 -36t-59 -95z" />
    <glyph glyph-name="W" unicode="W" horiz-adv-x="2009" 
d="M1589 1348v86h436v-86q-63 -8 -95 -37.5t-56 -106.5l-363 -1204h-233l-277 911l-274 -911h-233l-365 1204q-25 78 -54.5 107.5t-90.5 36.5v86h647v-86q-99 -8 -124.5 -36.5t-0.5 -107.5l211 -688l205 664l-9 24q-25 80 -52.5 108.5t-90.5 35.5v86h645v-86
q-97 -8 -123.5 -37.5t-1.5 -106.5l211 -688l211 688q25 79 -0.5 107.5t-122.5 36.5z" />
    <glyph glyph-name="X" unicode="X" horiz-adv-x="1425" 
d="M508 0h-514v86q92 9 137 35q43 25 98 108l303 459l-315 526q-49 84 -80 103q-32 22 -100 31v86h704v-86q-89 -7 -106.5 -48t31.5 -114l141 -232l154 236q53 85 37.5 117.5t-107.5 40.5v86h491v-86q-92 -9 -133 -35q-43 -29 -94 -109l-258 -401l344 -574
q49 -78 87.5 -106.5t101.5 -36.5v-86h-705v86q89 8 107 44t-31 114l-183 297l-192 -295q-48 -85 -29 -118.5t111 -41.5v-86z" />
    <glyph glyph-name="Y" unicode="Y" horiz-adv-x="1386" 
d="M514 229v346l-369 629q-52 87 -77 109q-26 26 -84 35v86h663v-86q-171 -15 -88 -162l246 -422l252 426q43 78 22 114t-112 44v86h434v-86q-58 -9 -84 -35q-23 -20 -76 -109l-364 -616v-359q0 -86 30 -110t131 -33v-86h-686v86q101 9 131 33q31 25 31 110z" />
    <glyph glyph-name="Z" unicode="Z" horiz-adv-x="1349" 
d="M49 86l764 1208h-145q-187 0 -303 -61q-117 -63 -218 -203l-73 33l119 371h1075v-86l-764 -1209h180q184 0 317.5 78.5t258.5 241.5l71 -43l-198 -416h-1084v86z" />
    <glyph glyph-name="bracketleft" unicode="[" horiz-adv-x="688" 
d="M125 -410v1885h520v-109h-276v-1667h276v-109h-520z" />
    <glyph glyph-name="backslash" unicode="\" horiz-adv-x="677" 
d="M129 1495l549 -1933h-129l-549 1933h129z" />
    <glyph glyph-name="bracketright" unicode="]" horiz-adv-x="688" 
d="M563 1475v-1885h-518v109h277v1667h-277v109h518z" />
    <glyph glyph-name="asciicircum" unicode="^" horiz-adv-x="1161" 
d="M946 717l-366 389l-365 -389h-131l430 717h133l432 -717h-133z" />
    <glyph glyph-name="underscore" unicode="_" horiz-adv-x="1161" 
d="M0 -250v127h1163v-127h-1163z" />
    <glyph glyph-name="grave" unicode="`" horiz-adv-x="493" 
d="M303 1350l170 -318h-121l-272 240q-60 54 -60 80q0 41 41 41h172q49 0 70 -43z" />
    <glyph glyph-name="a" unicode="a" horiz-adv-x="1120" 
d="M657 102q-170 -129 -329 -129q-124 0 -200.5 65t-76.5 169q0 155 189 260q64 33 127 51q145 46 284 68v96q0 100 -21.5 136t-86.5 36q-109 0 -152 -137q-41 -123 -160 -123q-55 0 -85.5 33t-30.5 94q0 111 129 182q132 72 331 72q182 0 287 -76t105 -231v-473
q0 -78 55 -78q34 0 59 14v-104q-82 -52 -211 -52q-183 0 -213 127zM651 221v246q-141 -27 -208.5 -72.5t-67.5 -122.5q0 -53 30.5 -81.5t81.5 -28.5q81 0 164 59z" />
    <glyph glyph-name="b" unicode="b" horiz-adv-x="1198" 
d="M18 1212v80l314 172h114v-583q107 94 267 94q194 0 313 -137q121 -139 121 -365q0 -232 -127 -368t-348 -136q-164 0 -275 97l-147 -97h-117v1180q0 63 -51 63h-64zM446 743v-544q57 -84 164 -84q112 0 162.5 86t50.5 272q0 184 -50.5 269t-162.5 85q-111 0 -164 -84z
" />
    <glyph glyph-name="c" unicode="c" horiz-adv-x="1026" 
d="M674 715q-12 71 -39.5 104t-81.5 33q-97 0 -137.5 -91t-40.5 -288q0 -367 254 -367q175 0 270 228l113 -64q-68 -152 -172.5 -226.5t-264.5 -74.5q-235 0 -380 142q-144 141 -144 362q0 219 139 361q141 141 363 141q173 0 289 -72q114 -71 114 -180q0 -64 -39 -101.5
t-98 -37.5q-58 0 -96.5 34.5t-48.5 96.5z" />
    <glyph glyph-name="d" unicode="d" horiz-adv-x="1218" 
d="M639 1212v80l311 172h117v-1288q0 -47 23 -64.5t92 -25.5v-86q-230 0 -430 -31v97q-97 -97 -265 -97q-196 0 -315 137q-121 139 -121 367q0 226 121 365q119 137 315 137q161 0 265 -96v272q0 61 -52 61h-61zM752 201v542q-56 86 -162 86q-112 0 -163.5 -86t-51.5 -270
t51.5 -270t163.5 -86q109 0 162 84z" />
    <glyph glyph-name="e" unicode="e" horiz-adv-x="1085" 
d="M1014 526h-637q-2 -12 -2 -53q0 -187 61 -277t193 -90q90 0 168.5 59.5t132.5 168.5l112 -64q-75 -151 -182.5 -226t-269.5 -75q-249 0 -395 140q-144 141 -144 364q0 219 139 361q141 141 367 141q218 0 337.5 -119t119.5 -330zM383 657h334q0 90 -42 142.5t-112 52.5
q-81 0 -123.5 -47t-56.5 -148z" />
    <glyph glyph-name="f" unicode="f" horiz-adv-x="657" 
d="M39 813v131h115v43q0 225 137 350q139 127 344 127q107 0 173 -45t66 -119q0 -64 -40 -105.5t-105 -41.5q-47 0 -78.5 25.5t-44 56.5t-29.5 56.5t-38 25.5q-72 0 -72 -117v-256h170v-131h-170v-637q0 -44 26.5 -63.5t98.5 -26.5v-86h-553v86q69 8 92 25.5t23 64.5v637
h-115z" />
    <glyph glyph-name="g" unicode="g" horiz-adv-x="1093" 
d="M901 922q-37 0 -70 -45q117 -95 117 -250t-118 -251.5t-314 -96.5q-49 0 -119 10t-71 10q-66 0 -66 -43q0 -34 82 -49q83 -12 305 -21q213 -7 309.5 -74.5t96.5 -203.5q0 -151 -148 -234q-143 -82 -375 -82q-91 0 -172 12.5t-152 38t-113 73t-42 110.5q0 101 107 147
q-105 59 -105 191q0 78 42.5 132t113.5 73q-127 95 -127 258q0 155 117 250q119 98 317 98q109 0 197 -31q121 154 278 154q62 0 100.5 -31t38.5 -86q0 -47 -31 -79t-75 -32q-28 0 -68.5 26t-54.5 26zM516 399q143 0 143 228q0 227 -143 227q-145 0 -145 -227
q0 -228 145 -228zM793 -176q0 44 -45 59q-47 16 -185 19q-148 6 -241 22q-68 -26 -71 -77q-4 -53 61 -92q80 -48 218 -42q122 0 192.5 33t70.5 78z" />
    <glyph glyph-name="h" unicode="h" horiz-adv-x="1251" 
d="M1212 0h-542v86q69 8 91.5 25.5t22.5 64.5v488q0 137 -133 137q-95 0 -184 -62v-563q0 -47 23 -64.5t92 -25.5v-86h-543v86q69 8 92 25.5t23 64.5v975q0 61 -52 61h-63v80l313 172h115v-590q151 101 307 101q324 0 324 -320v-479q0 -47 22.5 -64.5t91.5 -25.5v-86z" />
    <glyph glyph-name="i" unicode="i" horiz-adv-x="620" 
d="M317 1444q80 0 131.5 -51t51.5 -121q0 -69 -51.5 -118.5t-131.5 -49.5q-82 0 -132 49t-50 119q0 72 50 122t132 50zM582 0h-543v86q69 8 92 25.5t23 64.5v486q0 61 -52 61h-63v80l313 172h115v-799q0 -47 23 -64.5t92 -25.5v-86z" />
    <glyph glyph-name="j" unicode="j" horiz-adv-x="600" 
d="M317 1444q80 0 131.5 -51t51.5 -121q0 -69 -51.5 -118.5t-131.5 -49.5q-82 0 -132 49t-50 119q0 72 50 122t132 50zM-266 -223q0 54 44 95.5t101 41.5q39 0 68 -18t45.5 -43.5t29 -51t27 -43.5t31.5 -18q35 0 54.5 31.5t19.5 85.5v805q0 61 -52 61h-63v80l313 172h115
v-897q0 -232 -139 -359t-342 -127q-118 0 -185 48t-67 137z" />
    <glyph glyph-name="k" unicode="k" horiz-adv-x="1220" 
d="M582 0h-543v86q69 8 92 25.5t23 64.5v975q0 61 -52 61h-63v80l313 172h115v-954l188 184q46 40 57.5 75.5t-17 59.5t-95.5 29v86h533v-86q-77 -9 -123 -33q-43 -22 -123 -96l-86 -82l297 -436q49 -68 79.5 -92.5t75.5 -32.5v-86h-596v86q72 7 92 42.5t-16 82.5l-158 221
l-108 -102v-154q0 -47 23 -64.5t92 -25.5v-86z" />
    <glyph glyph-name="l" unicode="l" horiz-adv-x="620" 
d="M582 0h-543v86q69 8 92 25.5t23 64.5v975q0 61 -52 61h-63v80l313 172h115v-1288q0 -47 23 -64.5t92 -25.5v-86z" />
    <glyph glyph-name="m" unicode="m" horiz-adv-x="1880" 
d="M1212 0h-542v86q69 8 91.5 25.5t22.5 64.5v488q0 137 -133 137q-95 0 -184 -62v-563q0 -47 23 -64.5t92 -25.5v-86h-543v86q69 8 92 25.5t23 64.5v486q0 61 -52 61h-63v80l313 172h115v-101q151 101 307 101q204 0 281 -129q73 57 170 93t180 36q324 0 324 -320v-479
q0 -47 22.5 -64.5t91.5 -25.5v-86h-543v86q68 8 90.5 25.5t22.5 64.5v488q0 137 -131 137q-93 0 -190 -66q6 -38 6 -80v-479q0 -47 22.5 -64.5t91.5 -25.5v-86z" />
    <glyph glyph-name="n" unicode="n" horiz-adv-x="1251" 
d="M1212 0h-542v86q69 8 91.5 25.5t22.5 64.5v488q0 137 -133 137q-95 0 -184 -62v-563q0 -47 23 -64.5t92 -25.5v-86h-543v86q69 8 92 25.5t23 64.5v486q0 61 -52 61h-63v80l313 172h115v-101q151 101 307 101q324 0 324 -320v-479q0 -47 22.5 -64.5t91.5 -25.5v-86z" />
    <glyph glyph-name="o" unicode="o" horiz-adv-x="1167" 
d="M1116 473q0 -222 -145 -364q-146 -140 -387 -140t-387 140q-146 143 -146 364t146 361q144 141 387 141t387 -141q145 -139 145 -361zM422 186q49 -94 162 -94t159 94q50 95 50 287q0 187 -48 285q-46 94 -161 94q-116 0 -162 -94q-47 -96 -47 -285q0 -191 47 -287z" />
    <glyph glyph-name="p" unicode="p" 
d="M571 -377h-542v86q68 7 91 25t23 63v865q0 61 -51 61h-65v80l315 172h115v-94q107 94 266 94q194 0 313 -137q121 -139 121 -365q0 -232 -127 -368t-348 -136q-134 0 -225 64v-236q0 -45 23 -63t91 -25v-86zM457 743v-544q57 -84 164 -84q112 0 162.5 86t50.5 272
q0 184 -50.5 269t-162.5 85q-111 0 -164 -84z" />
    <glyph glyph-name="q" unicode="q" horiz-adv-x="1196" 
d="M1182 -377h-543v86q67 7 90 25.5t23 62.5v269q-97 -97 -265 -97q-196 0 -315 137q-121 139 -121 367q0 226 121 365q119 137 315 137q180 0 281 -113l182 113h117v-1178q0 -45 23 -63t92 -25v-86zM752 201v542q-56 86 -162 86q-112 0 -163.5 -86t-51.5 -270t51.5 -270
t163.5 -86q109 0 162 84z" />
    <glyph glyph-name="r" unicode="r" horiz-adv-x="913" 
d="M758 649q-31 0 -56.5 11t-42 26.5t-30 31.5t-28 27t-28.5 11q-63 0 -106 -58v-522q0 -47 23 -64.5t92 -25.5v-86h-543v86q69 8 92 25.5t23 64.5v486q0 61 -52 61h-63v80l313 172h115v-121q109 121 252 121q84 0 132 -44t48 -120q0 -72 -40 -117t-101 -45z" />
    <glyph glyph-name="s" unicode="s" horiz-adv-x="995" 
d="M584 627q78 -24 141 -49q52 -21 113 -58q118 -71 118 -213q0 -159 -120 -248q-122 -90 -304 -90q-85 0 -174.5 25.5t-142.5 62.5l-25 -57h-77l-74 336l70 18q76 -125 188 -194.5t225 -69.5q67 0 107.5 29t40.5 82q0 38 -35 65q-21 20 -49 34.5t-52 22t-90 27.5
q-117 36 -170 61l-30 15q-82 39 -124 97.5t-48 148.5q0 132 114 217q115 86 281 86q156 0 278 -84l25 53h76l61 -299l-76 -22q-62 110 -152.5 173.5t-178.5 63.5q-59 0 -91 -25t-32 -69q0 -33 31 -61q30 -26 66 -41.5t110 -36.5z" />
    <glyph glyph-name="t" unicode="t" horiz-adv-x="716" 
d="M680 131v-125q-110 -35 -225 -35q-160 0 -238 65.5t-78 213.5v563h-112v80q246 90 311 360h117v-309h225v-131h-225v-563q0 -139 110 -139q65 0 115 20z" />
    <glyph glyph-name="u" unicode="u" horiz-adv-x="1239" 
d="M657 723v80l314 172h114v-799q0 -47 23 -64.5t92 -25.5v-86q-228 0 -428 -31v99q-156 -99 -309 -99q-324 0 -324 320v373q0 61 -51 61h-61v80l313 172h115v-694q0 -138 133 -138q84 0 184 62v457q0 61 -53 61h-62z" />
    <glyph glyph-name="v" unicode="v" horiz-adv-x="1021" 
d="M604 0h-192l-291 715q-32 82 -55.5 109t-77.5 34v86h565v-86q-80 -8 -98 -34t8 -101l143 -356l144 354q25 75 6.5 102t-94.5 35v86h372v-86q-50 -7 -78.5 -37.5t-58.5 -105.5z" />
    <glyph glyph-name="w" unicode="w" horiz-adv-x="1603" 
d="M995 0l-198 530l-191 -530h-223l-268 715q-28 80 -51.5 108.5t-75.5 34.5v86h540v-86q-74 -8 -89.5 -35.5t12.5 -107.5l135 -365l139 377q-26 65 -50 94.5t-61 36.5v86h533v-86q-76 -8 -92.5 -34.5t8.5 -108.5l133 -361l135 361q23 80 3 107.5t-97 35.5v86h379v-86
q-51 -7 -80 -38t-55 -105l-264 -715h-222z" />
    <glyph glyph-name="x" unicode="x" horiz-adv-x="1095" 
d="M575 170l-114 164l-129 -164q-25 -31 -4.5 -55.5t75.5 -28.5v-86h-383v86q54 6 83.5 23.5t60.5 60.5l219 283l-213 321q-36 48 -49 58q-26 19 -82 26v86h565v-86q-111 -9 -61 -84l92 -135l106 135q28 31 9.5 54.5t-78.5 29.5v86h385v-86q-54 -6 -84.5 -23.5t-63.5 -60.5
l-196 -252l235 -352q31 -43 56 -60.5t71 -23.5v-86h-561v86q60 4 74 25t-13 59z" />
    <glyph glyph-name="y" unicode="y" horiz-adv-x="1021" 
d="M897 715l-360 -885q-99 -238 -318 -238q-93 0 -157 50t-64 127q0 60 38.5 98.5t98.5 38.5q55 0 105 -47q49 -49 82 -49q58 0 92 88l20 51l-313 766q-24 61 -33 76q-30 59 -100 67v86h565v-86q-81 -8 -97.5 -34.5t11.5 -108.5l137 -348l144 348q24 80 4 107.5t-97 35.5v86
h379v-86q-50 -7 -78 -37t-59 -106z" />
    <glyph glyph-name="z" unicode="z" horiz-adv-x="1019" 
d="M37 86l504 735h-84q-210 0 -318 -200l-78 28l76 295h805v-86l-504 -735h125q123 0 209.5 59.5t165.5 179.5l74 -36l-131 -326h-844v86z" />
    <glyph glyph-name="braceleft" unicode="{" horiz-adv-x="677" 
d="M631 -352v-86q-162 0 -287 98q-125 94 -125 287v340q0 202 -172 202v91q91 0 131.5 49.5t40.5 150.5v340q0 193 125 287q125 98 287 98v-86q-78 0 -123 -49.5t-45 -144.5v-330q0 -299 -254 -360q254 -64 254 -363v-330q0 -95 45 -144.5t123 -49.5z" />
    <glyph glyph-name="bar" unicode="|" horiz-adv-x="677" 
d="M276 -438v1933h125v-1933h-125z" />
    <glyph glyph-name="braceright" unicode="}" horiz-adv-x="677" 
d="M47 -438v86q78 0 123 49.5t45 144.5v330q0 299 254 363q-254 61 -254 360v330q0 95 -45 144.5t-123 49.5v86q162 0 287 -98q127 -95 127 -287v-340q0 -101 39.5 -150.5t130.5 -49.5v-91q-91 0 -130.5 -50t-39.5 -152v-340q0 -192 -127 -287q-125 -98 -287 -98z" />
    <glyph glyph-name="asciitilde" unicode="~" horiz-adv-x="1099" 
d="M911 883h115q0 -357 -305 -357q-116 0 -260 99q-106 65 -156 65q-56 0 -83 -31t-27 -106h-121q0 356 305 356q116 0 264 -98q112 -68 160 -68q56 0 82 31.5t26 108.5z" />
    <glyph glyph-name="uni00A0" unicode="&#xa0;" horiz-adv-x="483" 
 />
    <glyph glyph-name="exclamdown" unicode="&#xa1;" horiz-adv-x="546" 
d="M416 645q-52 -55 -142 -55t-145 55q-54 57 -54 135t54 133q55 58 145 58t142 -58q54 -55 54 -133t-54 -135zM213 467h121q9 -207 72 -426q63 -215 63 -303q0 -121 -53.5 -189.5t-141.5 -68.5t-142 68.5t-54 187.5q0 90 63 305q63 219 72 426z" />
    <glyph glyph-name="cent" unicode="&#xa2;" 
d="M926 608l110 -65q-127 -284 -401 -299v-305h-125v311q-198 27 -315 162t-117 333q0 203 119 340q121 139 313 160v250h125v-248q155 -12 251.5 -81.5t96.5 -168.5q0 -64 -39 -101.5t-98 -37.5q-110 0 -131 131q-15 96 -80 123v-731q197 0 291 227zM377 745
q0 -248 133 -331v698q-133 -59 -133 -367z" />
    <glyph glyph-name="sterling" unicode="&#xa3;" 
d="M1049 389h125q-37 -420 -340 -420q-146 0 -277 119q-94 -119 -250 -119q-111 0 -184.5 62t-73.5 166q0 96 72.5 156.5t179.5 60.5q68 0 145 -23q-28 102 -131 258h-270v123h193q-82 143 -82 287q0 188 139 297q141 108 369 108q209 0 325 -88q117 -86 117 -211
q0 -90 -55.5 -149.5t-135.5 -59.5q-66 0 -108.5 41t-42.5 99q0 107 98 131q31 6 31 22q0 35 -43 57.5t-107 22.5q-93 0 -145.5 -57t-52.5 -152q0 -129 57 -348h272v-123h-243q26 -116 26 -235q0 -50 -8 -113q121 -53 203 -53q173 0 197 141zM307 94q106 0 144 109
q-83 86 -150 86q-49 0 -80 -26.5t-31 -65.5q0 -47 32.5 -75t84.5 -28z" />
    <glyph glyph-name="currency" unicode="&#xa4;" 
d="M221 954l-176 176l145 146l177 -176q104 67 237 67q135 0 236 -67l178 176l147 -148l-178 -172q68 -106 68 -239q0 -132 -68 -238l176 -176l-145 -143l-176 174q-103 -68 -238 -68q-133 0 -239 68l-175 -174l-145 145l176 174q-67 94 -67 238q0 136 67 237zM604 440
q115 0 197 82t82 195q0 112 -84 196q-82 82 -195 82q-112 0 -194 -82t-82 -196q0 -115 82 -197q83 -80 194 -80z" />
    <glyph glyph-name="yen" unicode="&#xa5;" 
d="M49 602v123h334l-219 465q-42 95 -68 121q-25 28 -78 37v86h582v-86q-40 -7 -59 -19.5t-20.5 -37t8 -52.5t32.5 -78l152 -344l151 336q46 92 40.5 138t-85.5 57v86h373v-86q-55 -9 -82 -39q-24 -27 -66 -119l-219 -465h334v-123h-368v-149h368v-123h-368v-101
q0 -86 30 -110t131 -33v-86h-686v86q101 9 131 33q31 25 31 110v101h-379v123h379v149h-379z" />
    <glyph glyph-name="brokenbar" unicode="&#xa6;" horiz-adv-x="677" 
d="M276 627v868h125v-868h-125zM276 -438v868h125v-868h-125z" />
    <glyph glyph-name="section" unicode="&#xa7;" horiz-adv-x="1093" 
d="M453 -408q-107 0 -174.5 45t-67.5 119q0 64 41 106t106 42q39 0 66.5 -17t42 -41t26 -48t25 -41t31.5 -17q32 0 52 30.5t20 75.5q0 75 -44.5 136t-152.5 149l-100 86q-62 62 -95 100q-56 65 -88 127q-78 160 -78 342q0 237 132 443q68 108 184.5 171.5t261.5 63.5
q107 0 174.5 -43.5t67.5 -117.5q0 -66 -41 -108t-107 -42q-47 0 -78.5 25.5t-44 56.5t-29.5 56.5t-38 25.5q-32 0 -52 -31t-20 -76q0 -57 33 -110t72 -92q59 -55 112 -99q80 -71 129 -123q53 -56 103 -129q108 -152 108 -387q0 -238 -131 -442q-68 -108 -184.5 -172
t-261.5 -64zM791 -100q63 123 63 235q0 151 -86 271q-58 81 -78 104q-28 38 -98 111l-86 92q-40 45 -76 92q-50 66 -68 106q-59 120 -59 246q-63 -120 -63 -233q0 -94 41 -187q42 -91 90 -151q54 -63 145 -162q83 -89 135 -154q45 -53 94 -161q46 -101 46 -209z" />
    <glyph glyph-name="dieresis" unicode="&#xa8;" horiz-adv-x="763" 
d="M319 1255q0 -56 -41.5 -96.5t-107.5 -40.5t-108 40t-42 97q0 59 42 101.5t108 42.5t107.5 -42.5t41.5 -101.5zM594 1399q67 0 108 -42.5t41 -101.5q0 -57 -41.5 -97t-107.5 -40t-107 40t-41 97q0 59 41.5 101.5t106.5 42.5z" />
    <glyph glyph-name="copyright" unicode="&#xa9;" horiz-adv-x="1574" 
d="M260 1245q219 219 528 219q310 0 529 -219t219 -528q0 -310 -219 -529t-529 -219q-309 0 -528 219t-219 529q0 309 219 528zM788 57q272 0 465 193q195 195 195 467t-195 467q-194 194 -465 194q-275 0 -469 -194q-192 -192 -192 -467t192 -467q193 -193 469 -193z
M1083 1151l52 -254l-64 -16q-36 84 -100.5 139t-132.5 55q-96 0 -136 -87.5t-40 -266.5t40 -266.5t136 -87.5q88 0 148 59.5t87 153.5l98 -33q-103 -275 -364 -275q-201 0 -319.5 121t-118.5 328t118.5 327.5t319.5 120.5q106 0 186 -51l17 33h73z" />
    <glyph glyph-name="ordfeminine" unicode="&#xaa;" horiz-adv-x="907" 
d="M514 647q-132 -100 -262 -100q-93 0 -153 49t-60 123q0 65 42 117.5t118 85.5q72 33 139.5 52t171.5 40v78q0 66 -16 90t-60 24q-35 0 -55 -20t-41 -72q-34 -98 -152 -98q-46 0 -74 27t-28 77q0 88 111 137q112 50 280 50q148 0 236 -60t88 -178v-352q0 -45 41 -45
q26 0 39 8v-92q-68 -39 -181 -39q-163 0 -184 98zM510 748v167q-101 -20 -146 -48.5t-45 -80.5q0 -35 25 -56t62 -21q53 0 104 39z" />
    <glyph glyph-name="guillemotleft" unicode="&#xab;" horiz-adv-x="1044" 
d="M557 63l-61 -45l-379 373q-37 40 -37 84q0 49 37 86l379 375l61 -47l-178 -414zM965 63l-62 -45l-379 373q-37 40 -37 84q0 49 37 86l379 375l62 -47l-179 -414z" />
    <glyph glyph-name="logicalnot" unicode="&#xac;" horiz-adv-x="1161" 
d="M16 856v131h1129v-532h-131v401h-998z" />
    <glyph glyph-name="uni00AD" unicode="&#xad;" horiz-adv-x="575" 
d="M16 387v182h543v-182h-543z" />
    <glyph glyph-name="registered" unicode="&#xae;" horiz-adv-x="880" 
d="M842 1063q0 -164 -119 -283q-116 -116 -283 -116q-165 0 -284 116q-117 120 -117 283q0 166 117 283q118 118 284 118q168 0 283 -118q119 -116 119 -283zM764 1063q0 133 -96 229q-97 97 -228 97q-132 0 -229 -97q-94 -94 -94 -229t94 -229q95 -95 229 -95q133 0 228 95
q96 96 96 229zM567 1053l68 -107q19 -31 49 -37v-43h-164l-100 176h-14v-96q0 -20 6 -26t30 -11v-43h-229v43q24 5 31.5 11t7.5 26v246q0 17 -6.5 21.5t-32.5 9.5v45h264q174 0 174 -109q0 -79 -84 -106zM442 1206h-20q-16 0 -16 -16v-84h34q60 0 60 53q0 47 -58 47z" />
    <glyph glyph-name="overscore" unicode="&#xaf;" horiz-adv-x="630" 
d="M20 1161v146h590v-146h-590z" />
    <glyph glyph-name="degree" unicode="&#xb0;" horiz-adv-x="555" 
d="M516 1227q0 -96 -70 -166t-167 -70q-98 0 -168 70t-70 166q0 98 70 168q69 69 168 69q98 0 167 -69q70 -70 70 -168zM180 1130q41 -38 99 -38t96 38t38 96.5t-38 96.5q-38 41 -96 41t-99 -41q-38 -38 -38 -96.5t38 -96.5z" />
    <glyph glyph-name="plusminus" unicode="&#xb1;" horiz-adv-x="1161" 
d="M16 653v131h498v498h131v-498h500v-131h-500v-436h-131v436h-498zM16 0v127h1129v-127h-1129z" />
    <glyph glyph-name="uni00B2" unicode="&#xb2;" horiz-adv-x="786" 
d="M182 1145h-104q0 143 86 225t239 82q130 0 211.5 -69.5t81.5 -180.5q0 -243 -370 -418h247q39 0 55 13t29 59h74l-37 -309h-73q0 26 -35 26h-498v129q185 120 273 237.5t88 262.5q0 67 -33 106.5t-92 39.5q-142 0 -142 -203z" />
    <glyph glyph-name="uni00B3" unicode="&#xb3;" horiz-adv-x="786" 
d="M518 1077q99 -17 160 -78.5t61 -148.5q0 -131 -104 -213t-281 -82q-122 0 -213 39q-94 40 -94 117q0 44 28 73t70 29q45 0 75.5 -24.5t44.5 -53.5t41.5 -53.5t66.5 -24.5q116 0 116 166q0 82 -49 128t-141 46h-23v103h21q135 0 135 133q0 55 -28 85t-78 30
q-57 0 -95 -40.5t-45 -113.5h-102q10 124 89 191t216 67q136 0 213.5 -52t77.5 -140q0 -134 -162 -183z" />
    <glyph glyph-name="acute" unicode="&#xb4;" horiz-adv-x="493" 
d="M20 1032l170 318q21 43 70 43h172q41 0 41 -41q0 -27 -59 -80l-273 -240h-121z" />
    <glyph glyph-name="uni00B5" unicode="&#xb5;" horiz-adv-x="1206" 
d="M317 51q12 -27 64 -102q50 -71 71 -109t21 -73q0 -79 -48 -127t-122 -48t-123 49t-49 128v1175h313v-663q0 -67 36 -102.5t98 -35.5q89 0 184 62v739h315v-749q0 -78 56 -78q34 0 59 14v-104q-82 -52 -205 -52q-163 0 -209 113q-101 -119 -254 -119q-131 0 -207 82z" />
    <glyph glyph-name="paragraph" unicode="&#xb6;" horiz-adv-x="903" 
d="M571 1434h306v-86q-102 -9 -132 -33q-30 -21 -30 -105v-1089q0 -260 -125.5 -409.5t-351.5 -149.5q-148 0 -243 62.5t-95 156.5q0 63 45 107t108 44q52 0 93.5 -31.5t62.5 -74.5q57 -107 137 -107q97 0 161 106.5t64 295.5v246q-220 0 -376 153q-154 157 -154 379
q0 220 154 377q158 158 376 158z" />
    <glyph glyph-name="middot" unicode="&#xb7;" horiz-adv-x="546" 
d="M129 610q52 58 143 58q92 0 144 -58q56 -56 56 -133.5t-56 -134.5q-52 -55 -144 -55q-91 0 -143 55q-51 57 -51 134.5t51 133.5z" />
    <glyph glyph-name="cedilla" unicode="&#xb8;" horiz-adv-x="575" 
d="M555 -246q0 -88 -84 -150.5t-211 -62.5q-102 0 -171 42.5t-69 103.5q0 31 21 53t51 22q57 0 86 -63q35 -68 98 -68q48 0 77.5 25.5t29.5 67.5q0 26 -19.5 42.5t-48.5 16.5q-33 0 -63 -23l-64 29l93 211h129l-58 -127q27 10 49 10q68 0 111 -35t43 -94z" />
    <glyph glyph-name="uni00B9" unicode="&#xb9;" horiz-adv-x="786" 
d="M666 573h-545v66q99 3 125 16q26 12 26 56v524q0 35 -28 35h-123v61l305 121h90v-741q0 -42 26.5 -55t123.5 -17v-66z" />
    <glyph glyph-name="ordmasculine" unicode="&#xba;" horiz-adv-x="901" 
d="M137 1200q116 107 314 107t311 -107q117 -105 117 -274t-117 -277q-113 -104 -311 -104t-314 104q-114 108 -114 277t114 274zM315 926q0 -145 31 -210t105 -65q73 0 103 64.5t30 210.5q0 145 -29.5 207.5t-103.5 62.5t-105 -63.5t-31 -206.5z" />
    <glyph glyph-name="guillemotright" unicode="&#xbb;" horiz-adv-x="1048" 
d="M520 391l-379 -373l-61 45l178 412l-178 414l61 47l379 -375q37 -37 37 -86q0 -44 -37 -84zM928 391l-379 -373l-62 45l179 412l-179 414l62 47l379 -375q37 -37 37 -86q0 -44 -37 -84z" />
    <glyph glyph-name="onequarter" unicode="&#xbc;" horiz-adv-x="1824" 
d="M666 573h-545v66q99 3 125 16q26 12 26 56v524q0 35 -28 35h-123v61l305 121h90v-741q0 -42 26.5 -55t123.5 -17v-66zM379 0l938 1434h129l-938 -1434h-129zM1649 0h-244v193h-332v75l404 611h172v-584h141v-102h-141v-193zM1405 580l-188 -285h188v285z" />
    <glyph glyph-name="onehalf" unicode="&#xbd;" horiz-adv-x="1824" 
d="M666 573h-545v66q99 3 125 16q26 12 26 56v524q0 35 -28 35h-123v61l305 121h90v-741q0 -42 26.5 -55t123.5 -17v-66zM379 0l938 1434h129l-938 -1434h-129zM1221 571h-105q0 143 86.5 225.5t239.5 82.5q130 0 211.5 -69.5t81.5 -180.5q0 -243 -371 -418h248q39 0 55 13
t29 59h73l-36 -310h-74q0 27 -35 27h-498v129q185 120 273 237.5t88 262.5q0 67 -33 106t-92 39q-141 0 -141 -203z" />
    <glyph glyph-name="threequarters" unicode="&#xbe;" horiz-adv-x="1824" 
d="M518 1077q99 -17 160 -78.5t61 -148.5q0 -131 -104 -213t-281 -82q-122 0 -213 39q-94 40 -94 117q0 44 28 73t70 29q45 0 75.5 -24.5t44.5 -53.5t41.5 -53.5t66.5 -24.5q116 0 116 166q0 82 -49 128t-141 46h-23v103h21q135 0 135 133q0 55 -28 85t-78 30
q-57 0 -95 -40.5t-45 -113.5h-102q10 124 89 191t216 67q136 0 213.5 -52t77.5 -140q0 -134 -162 -183zM379 0l938 1434h129l-938 -1434h-129zM1649 0h-244v193h-332v75l404 611h172v-584h141v-102h-141v-193zM1405 580l-188 -285h188v285z" />
    <glyph glyph-name="questiondown" unicode="&#xbf;" horiz-adv-x="991" 
d="M561 590q-88 0 -142 56t-54 134t54 134.5t142 56.5q90 0 143.5 -55t53.5 -136t-53.5 -135.5t-143.5 -54.5zM489 338l11 129h125v-408q-330 0 -330 -215q0 -94 59.5 -157.5t161.5 -63.5q53 0 92 34.5t58 84.5q22 49 60.5 83t90.5 34q56 0 94.5 -42.5t38.5 -105.5
q0 -113 -102 -172t-270 -59q-248 0 -394 143q-145 142 -145 330q0 181 121.5 282t328.5 103z" />
    <glyph glyph-name="Agrave" unicode="&#xc0;" horiz-adv-x="1466" 
d="M692 1522l-272 239q-60 54 -60 80q0 41 41 41h172q49 0 70 -43l170 -317h-121zM860 1434l469 -1215q26 -68 60 -96.5t92 -36.5v-86h-652v86q95 8 119.5 33.5t-0.5 93.5l-71 184h-512l-72 -184q-26 -65 4.5 -92t130.5 -35v-86h-444v86q64 8 99.5 36.5t59.5 94.5l469 1217
h248zM618 1059l-200 -522h403z" />
    <glyph glyph-name="Aacute" unicode="&#xc1;" horiz-adv-x="1466" 
d="M1032 1761l-272 -239h-121l170 317q21 43 70 43h172q41 0 41 -41q0 -26 -60 -80zM860 1434l469 -1215q26 -68 60 -96.5t92 -36.5v-86h-652v86q95 8 119.5 33.5t-0.5 93.5l-71 184h-512l-72 -184q-26 -65 4.5 -92t130.5 -35v-86h-444v86q64 8 99.5 36.5t59.5 94.5
l469 1217h248zM618 1059l-200 -522h403z" />
    <glyph glyph-name="Acircumflex" unicode="&#xc2;" horiz-adv-x="1466" 
d="M938 1518l-211 184l-213 -184h-121l211 319q35 47 78 47h90q49 0 76 -47l211 -319h-121zM860 1434l469 -1215q26 -68 60 -96.5t92 -36.5v-86h-652v86q95 8 119.5 33.5t-0.5 93.5l-71 184h-512l-72 -184q-26 -65 4.5 -92t130.5 -35v-86h-444v86q64 8 99.5 36.5t59.5 94.5
l469 1217h248zM618 1059l-200 -522h403z" />
    <glyph glyph-name="Atilde" unicode="&#xc3;" horiz-adv-x="1466" 
d="M590 1702q-28 0 -50.5 -21.5t-29.5 -60.5h-98q6 128 58 189t132 61q62 0 156 -55q77 -41 108 -41q67 0 82 79h94q-6 -126 -59 -186.5t-133 -60.5q-66 0 -152 53q-70 43 -108 43zM860 1434l469 -1215q26 -68 60 -96.5t92 -36.5v-86h-652v86q95 8 119.5 33.5t-0.5 93.5
l-71 184h-512l-72 -184q-26 -65 4.5 -92t130.5 -35v-86h-444v86q64 8 99.5 36.5t59.5 94.5l469 1217h248zM618 1059l-200 -522h403z" />
    <glyph glyph-name="Adieresis" unicode="&#xc4;" horiz-adv-x="1466" 
d="M367 1745q0 59 41 101t108 42q66 0 108 -42t42 -101q0 -56 -42 -96.5t-108 -40.5t-107.5 40t-41.5 97zM793 1745q0 59 41 101t106 42q67 0 108.5 -42t41.5 -101q0 -57 -42 -97t-108 -40t-106.5 40t-40.5 97zM860 1434l469 -1215q26 -68 60 -96.5t92 -36.5v-86h-652v86
q95 8 119.5 33.5t-0.5 93.5l-71 184h-512l-72 -184q-26 -65 4.5 -92t130.5 -35v-86h-444v86q64 8 99.5 36.5t59.5 94.5l469 1217h248zM618 1059l-200 -522h403z" />
    <glyph glyph-name="Aring" unicode="&#xc5;" horiz-adv-x="1466" 
d="M727 1546q-86 0 -146.5 59t-60.5 144t60.5 145t146.5 60q85 0 145 -60t60 -145t-60 -144t-145 -59zM793 1815q-26 26 -65.5 26t-65.5 -26t-26 -65.5t26 -68.5q26 -26 65.5 -26t65.5 26q26 29 26 68.5t-26 65.5zM860 1434l469 -1215q26 -68 60 -96.5t92 -36.5v-86h-652v86
q95 8 119.5 33.5t-0.5 93.5l-71 184h-512l-72 -184q-26 -65 4.5 -92t130.5 -35v-86h-444v86q64 8 99.5 36.5t59.5 94.5l469 1217h248zM618 1059l-200 -522h403z" />
    <glyph glyph-name="AE" unicode="&#xc6;" horiz-adv-x="2232" 
d="M2154 459l72 -43l-198 -416h-1176v86q101 9 131 33q31 25 31 110v168h-533l-119 -170q-41 -60 -16.5 -96.5t109.5 -44.5v-86h-473v86q120 12 211 143l763 1088q-49 25 -155 31v86h1220l119 -371l-74 -33q-100 140 -226 202t-316 62h-86q-62 0 -62 -61v-416h242
q98 0 132.5 40t39.5 136h96v-491h-96q-5 96 -39.5 136t-132.5 40h-242v-477q0 -62 62 -62h106q179 0 337.5 86t272.5 234zM1014 1153l-432 -614h432v614z" />
    <glyph glyph-name="Ccedilla" unicode="&#xc7;" horiz-adv-x="1421" 
d="M1245 449l135 -46q-142 -398 -530 -432l-45 -98q27 10 49 10q68 0 111 -35t43 -94q0 -88 -84 -150.5t-211 -62.5q-102 0 -171 42.5t-69 103.5q0 31 21 53t51 22q52 0 86 -63q35 -68 98 -68q48 0 77.5 25.5t29.5 67.5q0 26 -19.5 42.5t-48.5 16.5q-33 0 -63 -23l-64 29
l80 182q-294 18 -477 219q-181 202 -181 527q0 337 197 543q195 204 516 204q193 0 332 -92l29 62h98l100 -414l-84 -25q-75 156 -190.5 247t-247.5 91q-360 0 -360 -616q0 -615 360 -615q161 0 274 101q115 103 158 246z" />
    <glyph glyph-name="Egrave" unicode="&#xc8;" horiz-adv-x="1421" 
d="M651 1839l170 -317h-121l-272 239q-59 53 -59 80q0 41 41 41h172q48 0 69 -43zM627 139h108q179 0 336.5 86t271.5 234l74 -43l-200 -416h-1176v86q101 9 131 33q31 25 31 110v975q0 86 -31 111q-27 24 -131 33v86h1169l121 -371l-76 -33q-99 138 -226 201t-314 63h-88
q-29 0 -45.5 -16t-16.5 -45v-416h242q98 0 133.5 41t40.5 135h94v-491h-94q-5 94 -40.5 135t-133.5 41h-242v-477q0 -29 16.5 -45.5t45.5 -16.5z" />
    <glyph glyph-name="Eacute" unicode="&#xc9;" horiz-adv-x="1421" 
d="M647 1522l170 317q21 43 70 43h172q41 0 41 -41q0 -26 -60 -80l-272 -239h-121zM627 139h108q179 0 336.5 86t271.5 234l74 -43l-200 -416h-1176v86q101 9 131 33q31 25 31 110v975q0 86 -31 111q-27 24 -131 33v86h1169l121 -371l-76 -33q-99 138 -226 201t-314 63h-88
q-29 0 -45.5 -16t-16.5 -45v-416h242q98 0 133.5 41t40.5 135h94v-491h-94q-5 94 -40.5 135t-133.5 41h-242v-477q0 -29 16.5 -45.5t45.5 -16.5z" />
    <glyph glyph-name="Ecircumflex" unicode="&#xca;" horiz-adv-x="1421" 
d="M401 1518l211 319q35 47 78 47h90q49 0 76 -47l211 -319h-121l-211 184l-213 -184h-121zM627 139h108q179 0 336.5 86t271.5 234l74 -43l-200 -416h-1176v86q101 9 131 33q31 25 31 110v975q0 86 -31 111q-27 24 -131 33v86h1169l121 -371l-76 -33q-99 138 -226 201
t-314 63h-88q-29 0 -45.5 -16t-16.5 -45v-416h242q98 0 133.5 41t40.5 135h94v-491h-94q-5 94 -40.5 135t-133.5 41h-242v-477q0 -29 16.5 -45.5t45.5 -16.5z" />
    <glyph glyph-name="Edieresis" unicode="&#xcb;" horiz-adv-x="1421" 
d="M524 1888q66 0 108 -42t42 -101q0 -56 -42 -96.5t-108 -40.5t-107.5 40t-41.5 97q0 59 41 101t108 42zM1098 1745q0 -57 -42 -97t-108 -40t-106.5 40t-40.5 97q0 59 41 101t106 42q66 0 108 -42t42 -101zM627 139h108q179 0 336.5 86t271.5 234l74 -43l-200 -416h-1176
v86q101 9 131 33q31 25 31 110v975q0 86 -31 111q-27 24 -131 33v86h1169l121 -371l-76 -33q-99 138 -226 201t-314 63h-88q-29 0 -45.5 -16t-16.5 -45v-416h242q98 0 133.5 41t40.5 135h94v-491h-94q-5 94 -40.5 135t-133.5 41h-242v-477q0 -29 16.5 -45.5t45.5 -16.5z" />
    <glyph glyph-name="Igrave" unicode="&#xcc;" horiz-adv-x="768" 
d="M301 1839l170 -317h-121l-272 239q-60 54 -60 80q0 41 41 41h172q49 0 70 -43zM727 0h-686v86q101 9 131 33q31 25 31 110v975q0 86 -31 111q-27 24 -131 33v86h686v-86q-103 -9 -133 -33q-29 -26 -29 -111v-975q0 -85 31 -110q30 -24 131 -33v-86z" />
    <glyph glyph-name="Iacute" unicode="&#xcd;" horiz-adv-x="768" 
d="M297 1522l170 317q21 43 70 43h172q41 0 41 -41q0 -26 -60 -80l-272 -239h-121zM727 0h-686v86q101 9 131 33q31 25 31 110v975q0 86 -31 111q-27 24 -131 33v86h686v-86q-103 -9 -133 -33q-29 -26 -29 -111v-975q0 -85 31 -110q30 -24 131 -33v-86z" />
    <glyph glyph-name="Icircumflex" unicode="&#xce;" horiz-adv-x="768" 
d="M51 1518l211 319q35 47 78 47h90q49 0 76 -47l211 -319h-121l-211 184l-213 -184h-121zM727 0h-686v86q101 9 131 33q31 25 31 110v975q0 86 -31 111q-27 24 -131 33v86h686v-86q-103 -9 -133 -33q-29 -26 -29 -111v-975q0 -85 31 -110q30 -24 131 -33v-86z" />
    <glyph glyph-name="Idieresis" unicode="&#xcf;" horiz-adv-x="768" 
d="M324 1745q0 -56 -42 -96.5t-108 -40.5t-107.5 40t-41.5 97q0 59 41.5 101t107.5 42t108 -42t42 -101zM598 1888q67 0 108.5 -42t41.5 -101q0 -57 -42 -97t-108 -40t-106.5 40t-40.5 97q0 59 41 101t106 42zM727 0h-686v86q101 9 131 33q31 25 31 110v975q0 86 -31 111
q-27 24 -131 33v86h686v-86q-103 -9 -133 -33q-29 -26 -29 -111v-975q0 -85 31 -110q30 -24 131 -33v-86z" />
    <glyph glyph-name="Eth" unicode="&#xd0;" horiz-adv-x="1581" 
d="M41 1434h684q384 0 588.5 -186.5t204.5 -530.5q0 -341 -206.5 -529t-590.5 -188h-680v86q101 9 131 33q31 25 31 110v449h-162v139h162v387q0 86 -31 111q-27 24 -131 33v86zM627 139h94q205 0 306 138.5t101 439.5q0 300 -100.5 438.5t-302.5 138.5h-98q-29 0 -45.5 -16
t-16.5 -45v-416h168v-139h-168v-477q0 -29 16.5 -45.5t45.5 -16.5z" />
    <glyph glyph-name="Ntilde" unicode="&#xd1;" horiz-adv-x="1486" 
d="M967 1853h94q-6 -126 -59.5 -186.5t-133.5 -60.5q-65 0 -151 53q-70 43 -109 43q-28 0 -50.5 -21.5t-29.5 -60.5h-98q6 127 58.5 188.5t132.5 61.5q61 0 155 -55q77 -41 109 -41q67 0 82 79zM524 0h-483v86q101 9 131 33q31 25 31 110v975q0 86 -31 111q-27 24 -131 33
v86h555l545 -852v622q0 86 -31 111q-27 24 -131 33v86h479v-86q-104 -9 -131 -33q-29 -26 -29 -111v-1204h-219l-719 1128v-899q0 -85 31 -110q30 -24 133 -33v-86z" />
    <glyph glyph-name="Ograve" unicode="&#xd2;" horiz-adv-x="1617" 
d="M725 1839l170 -317h-121l-272 239q-60 54 -60 80q0 41 41 41h172q49 0 70 -43zM262 1262q199 202 547 202q349 0 545 -202q198 -201 198 -545t-198 -545q-197 -203 -545 -203q-347 0 -547 203q-199 202 -199 545t199 545zM635 147q68 -45 174 -45q104 0 172 45
q126 78 166 322q16 115 16 248t-16 248q-40 246 -166 323q-68 45 -172 45q-106 0 -174 -45q-123 -79 -166 -323q-16 -115 -16 -248t16 -248q43 -243 166 -322z" />
    <glyph glyph-name="Oacute" unicode="&#xd3;" horiz-adv-x="1617" 
d="M721 1522l170 317q21 43 70 43h172q41 0 41 -41q0 -26 -60 -80l-272 -239h-121zM262 1262q199 202 547 202q349 0 545 -202q198 -201 198 -545t-198 -545q-197 -203 -545 -203q-347 0 -547 203q-199 202 -199 545t199 545zM635 147q68 -45 174 -45q104 0 172 45
q126 78 166 322q16 115 16 248t-16 248q-40 246 -166 323q-68 45 -172 45q-106 0 -174 -45q-123 -79 -166 -323q-16 -115 -16 -248t16 -248q43 -243 166 -322z" />
    <glyph glyph-name="Ocircumflex" unicode="&#xd4;" horiz-adv-x="1617" 
d="M475 1518l211 319q35 47 78 47h90q49 0 76 -47l211 -319h-121l-211 184l-213 -184h-121zM262 1262q199 202 547 202q349 0 545 -202q198 -201 198 -545t-198 -545q-197 -203 -545 -203q-347 0 -547 203q-199 202 -199 545t199 545zM635 147q68 -45 174 -45q104 0 172 45
q126 78 166 322q16 115 16 248t-16 248q-40 246 -166 323q-68 45 -172 45q-106 0 -174 -45q-123 -79 -166 -323q-16 -115 -16 -248t16 -248q43 -243 166 -322z" />
    <glyph glyph-name="Otilde" unicode="&#xd5;" horiz-adv-x="1617" 
d="M1030 1853h94q-6 -126 -59 -186.5t-133 -60.5q-66 0 -152 53q-70 43 -108 43q-28 0 -50.5 -21.5t-29.5 -60.5h-98q6 128 58 189t132 61q62 0 156 -55q77 -41 108 -41q67 0 82 79zM262 1262q199 202 547 202q349 0 545 -202q198 -201 198 -545t-198 -545
q-197 -203 -545 -203q-347 0 -547 203q-199 202 -199 545t199 545zM635 147q68 -45 174 -45q104 0 172 45q126 78 166 322q16 115 16 248t-16 248q-40 246 -166 323q-68 45 -172 45q-106 0 -174 -45q-123 -79 -166 -323q-16 -115 -16 -248t16 -248q43 -243 166 -322z" />
    <glyph glyph-name="Odieresis" unicode="&#xd6;" horiz-adv-x="1617" 
d="M598 1888q66 0 108 -42t42 -101q0 -56 -42 -96.5t-108 -40.5t-107.5 40t-41.5 97q0 59 41 101t108 42zM1171 1745q0 -57 -41.5 -97t-107.5 -40t-107 40t-41 97q0 59 41 101t107 42t107.5 -42t41.5 -101zM262 1262q199 202 547 202q349 0 545 -202q198 -201 198 -545
t-198 -545q-197 -203 -545 -203q-347 0 -547 203q-199 202 -199 545t199 545zM635 147q68 -45 174 -45q104 0 172 45q126 78 166 322q16 115 16 248t-16 248q-40 246 -166 323q-68 45 -172 45q-106 0 -174 -45q-123 -79 -166 -323q-16 -115 -16 -248t16 -248
q43 -243 166 -322z" />
    <glyph glyph-name="multiply" unicode="&#xd7;" horiz-adv-x="1161" 
d="M225 272l-92 93l354 354l-354 354l92 92l355 -354l356 354l92 -92l-356 -354l356 -357l-92 -92l-356 357z" />
    <glyph glyph-name="Oslash" unicode="&#xd8;" horiz-adv-x="1617" 
d="M1520 1434l-158 -181q190 -199 190 -536q0 -344 -198 -545q-197 -203 -545 -203q-275 0 -461 131l-88 -100h-164l158 180q-191 200 -191 537q0 343 199 545t547 202q271 0 459 -129l86 99h166zM453 717q0 -166 22 -285l623 711q-85 190 -289 190q-205 0 -283 -176
q-73 -165 -73 -440zM809 102q204 0 283 174q71 160 71 441q0 165 -22 284l-623 -708q86 -191 291 -191z" />
    <glyph glyph-name="Ugrave" unicode="&#xd9;" horiz-adv-x="1570" 
d="M725 1839l170 -317h-121l-272 239q-60 54 -60 80q0 41 41 41h172q49 0 70 -43zM553 1204v-774q0 -152 92 -232.5t240 -80.5q161 0 250.5 89.5t89.5 258.5v739q0 86 -31 111q-27 24 -131 33v86h481v-86q-103 -9 -133 -33q-29 -26 -29 -111v-739q0 -241 -150 -368.5
t-419 -127.5q-301 0 -462 127.5t-161 368.5v739q0 87 -30 111q-27 24 -131 33v86h686v-86q-103 -9 -133 -33q-29 -26 -29 -111z" />
    <glyph glyph-name="Uacute" unicode="&#xda;" horiz-adv-x="1570" 
d="M721 1522l170 317q21 43 70 43h172q41 0 41 -41q0 -26 -60 -80l-272 -239h-121zM553 1204v-774q0 -152 92 -232.5t240 -80.5q161 0 250.5 89.5t89.5 258.5v739q0 86 -31 111q-27 24 -131 33v86h481v-86q-103 -9 -133 -33q-29 -26 -29 -111v-739q0 -241 -150 -368.5
t-419 -127.5q-301 0 -462 127.5t-161 368.5v739q0 87 -30 111q-27 24 -131 33v86h686v-86q-103 -9 -133 -33q-29 -26 -29 -111z" />
    <glyph glyph-name="Ucircumflex" unicode="&#xdb;" horiz-adv-x="1570" 
d="M475 1518l211 319q35 47 78 47h90q49 0 76 -47l211 -319h-121l-211 184l-213 -184h-121zM553 1204v-774q0 -152 92 -232.5t240 -80.5q161 0 250.5 89.5t89.5 258.5v739q0 86 -31 111q-27 24 -131 33v86h481v-86q-103 -9 -133 -33q-29 -26 -29 -111v-739
q0 -241 -150 -368.5t-419 -127.5q-301 0 -462 127.5t-161 368.5v739q0 87 -30 111q-27 24 -131 33v86h686v-86q-103 -9 -133 -33q-29 -26 -29 -111z" />
    <glyph glyph-name="Udieresis" unicode="&#xdc;" horiz-adv-x="1570" 
d="M598 1888q66 0 108 -42t42 -101q0 -56 -42 -96.5t-108 -40.5t-107.5 40t-41.5 97q0 59 41 101t108 42zM1171 1745q0 -57 -41.5 -97t-107.5 -40t-107 40t-41 97q0 59 41 101t107 42t107.5 -42t41.5 -101zM553 1204v-774q0 -152 92 -232.5t240 -80.5q161 0 250.5 89.5
t89.5 258.5v739q0 86 -31 111q-27 24 -131 33v86h481v-86q-103 -9 -133 -33q-29 -26 -29 -111v-739q0 -241 -150 -368.5t-419 -127.5q-301 0 -462 127.5t-161 368.5v739q0 87 -30 111q-27 24 -131 33v86h686v-86q-103 -9 -133 -33q-29 -26 -29 -111z" />
    <glyph glyph-name="Yacute" unicode="&#xdd;" horiz-adv-x="1386" 
d="M608 1522l170 317q21 43 70 43h172q41 0 41 -41q0 -26 -60 -80l-272 -239h-121zM514 229v346l-369 629q-52 87 -77 109q-26 26 -84 35v86h663v-86q-171 -15 -88 -162l246 -422l252 426q43 78 22 114t-112 44v86h434v-86q-58 -9 -84 -35q-23 -20 -76 -109l-364 -616v-359
q0 -86 30 -110t131 -33v-86h-686v86q101 9 131 33q31 25 31 110z" />
    <glyph glyph-name="Thorn" unicode="&#xde;" horiz-adv-x="1454" 
d="M41 1434h686v-86q-103 -9 -133 -33q-29 -26 -29 -111v-76h183q349 0 511 -86t162 -292q0 -214 -163 -303t-517 -89h-176v-129q0 -85 31 -110q30 -24 131 -33v-86h-686v86q101 9 131 33q31 25 31 110v975q0 86 -31 111q-27 24 -131 33v86zM748 989h-183v-489h176
q150 0 220.5 58t70.5 192q0 131 -68.5 185t-215.5 54z" />
    <glyph glyph-name="germandbls" unicode="&#xdf;" horiz-adv-x="1368" 
d="M39 813v131h115v25q0 239 145 366q147 129 379 129q191 0 308.5 -83.5t117.5 -215.5q0 -85 -58.5 -149.5t-164.5 -95.5q436 -70 436 -471q0 -209 -127 -345q-126 -135 -322 -135q-140 0 -235 80q-92 83 -92 203q-8 78 53 116q55 34 115 11q70 -27 82 -111q3 -19 2 -39
q5 -76 22 -108.5t55 -32.5q123 0 123 356q0 203 -90.5 290t-271.5 87h-60v123q116 0 179 60.5t63 160.5q0 77 -42.5 126.5t-117.5 49.5q-186 0 -186 -211v-954q0 -42 20.5 -62t65.5 -28v-86h-514v86q69 8 92 25.5t23 64.5v637h-115z" />
    <glyph glyph-name="agrave" unicode="&#xe0;" horiz-adv-x="1120" 
d="M489 1350l170 -318h-120l-273 240q-59 53 -59 80q0 41 41 41h172q48 0 69 -43zM657 102q-170 -129 -329 -129q-124 0 -200.5 65t-76.5 169q0 155 189 260q64 33 127 51q145 46 284 68v96q0 100 -21.5 136t-86.5 36q-109 0 -152 -137q-41 -123 -160 -123q-55 0 -85.5 33
t-30.5 94q0 111 129 182q132 72 331 72q182 0 287 -76t105 -231v-473q0 -78 55 -78q34 0 59 14v-104q-82 -52 -211 -52q-183 0 -213 127zM651 221v246q-141 -27 -208.5 -72.5t-67.5 -122.5q0 -53 30.5 -81.5t81.5 -28.5q81 0 164 59z" />
    <glyph glyph-name="aacute" unicode="&#xe1;" horiz-adv-x="1120" 
d="M485 1032l170 318q21 43 70 43h172q41 0 41 -41q0 -27 -59 -80l-273 -240h-121zM657 102q-170 -129 -329 -129q-124 0 -200.5 65t-76.5 169q0 155 189 260q64 33 127 51q145 46 284 68v96q0 100 -21.5 136t-86.5 36q-109 0 -152 -137q-41 -123 -160 -123q-55 0 -85.5 33
t-30.5 94q0 111 129 182q132 72 331 72q182 0 287 -76t105 -231v-473q0 -78 55 -78q34 0 59 14v-104q-82 -52 -211 -52q-183 0 -213 127zM651 221v246q-141 -27 -208.5 -72.5t-67.5 -122.5q0 -53 30.5 -81.5t81.5 -28.5q81 0 164 59z" />
    <glyph glyph-name="acircumflex" unicode="&#xe2;" horiz-adv-x="1120" 
d="M240 1028l211 320q35 47 77 47h90q49 0 76 -47l211 -320h-121l-211 184l-213 -184h-120zM657 102q-170 -129 -329 -129q-124 0 -200.5 65t-76.5 169q0 155 189 260q64 33 127 51q145 46 284 68v96q0 100 -21.5 136t-86.5 36q-109 0 -152 -137q-41 -123 -160 -123
q-55 0 -85.5 33t-30.5 94q0 111 129 182q132 72 331 72q182 0 287 -76t105 -231v-473q0 -78 55 -78q34 0 59 14v-104q-82 -52 -211 -52q-183 0 -213 127zM651 221v246q-141 -27 -208.5 -72.5t-67.5 -122.5q0 -53 30.5 -81.5t81.5 -28.5q81 0 164 59z" />
    <glyph glyph-name="atilde" unicode="&#xe3;" horiz-adv-x="1120" 
d="M795 1364h94q-6 -126 -59.5 -187t-133.5 -61q-65 0 -151 53q-70 43 -109 43q-28 0 -50.5 -21.5t-29.5 -60.5h-98q6 127 58.5 188.5t132.5 61.5q61 0 155 -55q77 -41 109 -41q67 0 82 80zM657 102q-170 -129 -329 -129q-124 0 -200.5 65t-76.5 169q0 155 189 260
q64 33 127 51q145 46 284 68v96q0 100 -21.5 136t-86.5 36q-109 0 -152 -137q-41 -123 -160 -123q-55 0 -85.5 33t-30.5 94q0 111 129 182q132 72 331 72q182 0 287 -76t105 -231v-473q0 -78 55 -78q34 0 59 14v-104q-82 -52 -211 -52q-183 0 -213 127zM651 221v246
q-141 -27 -208.5 -72.5t-67.5 -122.5q0 -53 30.5 -81.5t81.5 -28.5q81 0 164 59z" />
    <glyph glyph-name="adieresis" unicode="&#xe4;" horiz-adv-x="1120" 
d="M512 1255q0 -56 -42 -96.5t-108 -40.5t-107.5 40t-41.5 97q0 59 41.5 101.5t107.5 42.5t108 -42.5t42 -101.5zM786 1399q67 0 108.5 -42.5t41.5 -101.5q0 -57 -42 -97t-108 -40t-106.5 40t-40.5 97q0 59 41 101.5t106 42.5zM657 102q-170 -129 -329 -129
q-124 0 -200.5 65t-76.5 169q0 155 189 260q64 33 127 51q145 46 284 68v96q0 100 -21.5 136t-86.5 36q-109 0 -152 -137q-41 -123 -160 -123q-55 0 -85.5 33t-30.5 94q0 111 129 182q132 72 331 72q182 0 287 -76t105 -231v-473q0 -78 55 -78q34 0 59 14v-104
q-82 -52 -211 -52q-183 0 -213 127zM651 221v246q-141 -27 -208.5 -72.5t-67.5 -122.5q0 -53 30.5 -81.5t81.5 -28.5q81 0 164 59z" />
    <glyph glyph-name="aring" unicode="&#xe5;" horiz-adv-x="1120" 
d="M573 1464q85 0 145 -59.5t60 -144.5t-60 -144t-145 -59q-86 0 -146 59t-60 144t60 144.5t146 59.5zM508 1192q26 -26 65.5 -26t65.5 26q26 29 26 68t-26 65t-65.5 26t-65.5 -26t-26 -65t26 -68zM657 102q-170 -129 -329 -129q-124 0 -200.5 65t-76.5 169q0 155 189 260
q64 33 127 51q145 46 284 68v96q0 100 -21.5 136t-86.5 36q-109 0 -152 -137q-41 -123 -160 -123q-55 0 -85.5 33t-30.5 94q0 111 129 182q132 72 331 72q182 0 287 -76t105 -231v-473q0 -78 55 -78q34 0 59 14v-104q-82 -52 -211 -52q-183 0 -213 127zM651 221v246
q-141 -27 -208.5 -72.5t-67.5 -122.5q0 -53 30.5 -81.5t81.5 -28.5q81 0 164 59z" />
    <glyph glyph-name="ae" unicode="&#xe6;" horiz-adv-x="1681" 
d="M850 852q120 123 303 123q218 0 337.5 -119t119.5 -330h-637q-2 -12 -2 -53q0 -187 61 -277t193 -90q90 0 168.5 59.5t132.5 168.5l112 -64q-147 -301 -452 -301q-290 0 -434 178q-216 -174 -424 -174q-124 0 -200.5 65t-76.5 169q0 155 189 260q64 33 127 51
q145 46 284 68v96q0 100 -21.5 136t-86.5 36q-112 0 -152 -137q-41 -123 -160 -123q-55 0 -85.5 33t-30.5 94q0 111 129 182q132 72 334 72q196 0 272 -123zM979 657h332q0 90 -41.5 142.5t-110.5 52.5q-81 0 -123.5 -47t-56.5 -148zM651 467q-141 -27 -208.5 -72.5
t-67.5 -122.5q0 -53 30.5 -81.5t81.5 -28.5q95 0 211 76q-47 96 -47 229z" />
    <glyph glyph-name="ccedilla" unicode="&#xe7;" horiz-adv-x="1026" 
d="M899 334l113 -64q-62 -138 -154.5 -212.5t-228.5 -86.5l-45 -98q27 10 49 10q68 0 110.5 -35t42.5 -94q0 -88 -83.5 -150.5t-210.5 -62.5q-102 0 -171 42.5t-69 103.5q0 31 21 53t51 22q52 0 86 -63q35 -68 98 -68q48 0 77 25.5t29 67.5q0 26 -19 42.5t-48 16.5
q-34 0 -64 -23l-63 29l80 184q-204 21 -328 160q-121 139 -121 340q0 219 139 361q141 141 363 141q173 0 289 -72q114 -71 114 -180q0 -64 -39 -101.5t-98 -37.5q-58 0 -96.5 34.5t-48.5 96.5q-12 71 -39.5 104t-81.5 33q-97 0 -137.5 -91t-40.5 -288q0 -367 254 -367
q175 0 270 228z" />
    <glyph glyph-name="egrave" unicode="&#xe8;" horiz-adv-x="1085" 
d="M473 1350l170 -318h-121l-272 240q-60 54 -60 80q0 41 41 41h172q49 0 70 -43zM1014 526h-637q-2 -12 -2 -53q0 -187 61 -277t193 -90q90 0 168.5 59.5t132.5 168.5l112 -64q-75 -151 -182.5 -226t-269.5 -75q-249 0 -395 140q-144 141 -144 364q0 219 139 361
q141 141 367 141q218 0 337.5 -119t119.5 -330zM383 657h334q0 90 -42 142.5t-112 52.5q-81 0 -123.5 -47t-56.5 -148z" />
    <glyph glyph-name="eacute" unicode="&#xe9;" horiz-adv-x="1085" 
d="M469 1032l170 318q21 43 70 43h172q41 0 41 -41q0 -26 -60 -80l-272 -240h-121zM1014 526h-637q-2 -12 -2 -53q0 -187 61 -277t193 -90q90 0 168.5 59.5t132.5 168.5l112 -64q-75 -151 -182.5 -226t-269.5 -75q-249 0 -395 140q-144 141 -144 364q0 219 139 361
q141 141 367 141q218 0 337.5 -119t119.5 -330zM383 657h334q0 90 -42 142.5t-112 52.5q-81 0 -123.5 -47t-56.5 -148z" />
    <glyph glyph-name="ecircumflex" unicode="&#xea;" horiz-adv-x="1085" 
d="M223 1028l211 320q35 47 78 47h90q49 0 76 -47l211 -320h-121l-211 184l-213 -184h-121zM1014 526h-637q-2 -12 -2 -53q0 -187 61 -277t193 -90q90 0 168.5 59.5t132.5 168.5l112 -64q-75 -151 -182.5 -226t-269.5 -75q-249 0 -395 140q-144 141 -144 364q0 219 139 361
q141 141 367 141q218 0 337.5 -119t119.5 -330zM383 657h334q0 90 -42 142.5t-112 52.5q-81 0 -123.5 -47t-56.5 -148z" />
    <glyph glyph-name="edieresis" unicode="&#xeb;" horiz-adv-x="1085" 
d="M346 1399q66 0 108 -42.5t42 -101.5q0 -56 -42 -96.5t-108 -40.5t-107.5 40t-41.5 97q0 59 41 101.5t108 42.5zM770 1399q67 0 108.5 -42.5t41.5 -101.5q0 -57 -42 -97t-108 -40t-106.5 40t-40.5 97q0 59 41 101.5t106 42.5zM1014 526h-637q-2 -12 -2 -53q0 -187 61 -277
t193 -90q90 0 168.5 59.5t132.5 168.5l112 -64q-75 -151 -182.5 -226t-269.5 -75q-249 0 -395 140q-144 141 -144 364q0 219 139 361q141 141 367 141q218 0 337.5 -119t119.5 -330zM383 657h334q0 90 -42 142.5t-112 52.5q-81 0 -123.5 -47t-56.5 -148z" />
    <glyph glyph-name="igrave" unicode="&#xec;" horiz-adv-x="620" 
d="M227 1350l170 -318h-121l-272 240q-59 53 -59 80q0 41 41 41h172q48 0 69 -43zM582 0h-543v86q69 8 92 25.5t23 64.5v486q0 61 -52 61h-63v80l313 172h115v-799q0 -47 23 -64.5t92 -25.5v-86z" />
    <glyph glyph-name="iacute" unicode="&#xed;" horiz-adv-x="620" 
d="M223 1032l170 318q21 43 70 43h172q41 0 41 -41q0 -26 -60 -80l-272 -240h-121zM582 0h-543v86q69 8 92 25.5t23 64.5v486q0 61 -52 61h-63v80l313 172h115v-799q0 -47 23 -64.5t92 -25.5v-86z" />
    <glyph glyph-name="icircumflex" unicode="&#xee;" horiz-adv-x="620" 
d="M-23 1028l211 320q35 47 78 47h90q49 0 76 -47l211 -320h-121l-211 184l-213 -184h-121zM582 0h-543v86q69 8 92 25.5t23 64.5v486q0 61 -52 61h-63v80l313 172h115v-799q0 -47 23 -64.5t92 -25.5v-86z" />
    <glyph glyph-name="idieresis" unicode="&#xef;" horiz-adv-x="620" 
d="M250 1255q0 -56 -42 -96.5t-108 -40.5t-107.5 40t-41.5 97q0 59 41.5 101.5t107.5 42.5t108 -42.5t42 -101.5zM524 1399q67 0 108.5 -42.5t41.5 -101.5q0 -57 -42 -97t-108 -40t-106.5 40t-40.5 97q0 59 41 101.5t106 42.5zM582 0h-543v86q69 8 92 25.5t23 64.5v486
q0 61 -52 61h-63v80l313 172h115v-799q0 -47 23 -64.5t92 -25.5v-86z" />
    <glyph glyph-name="eth" unicode="&#xf0;" horiz-adv-x="1163" 
d="M1081 1303l-178 -64q213 -301 213 -649q0 -285 -143 -453t-385 -168t-391 140q-146 143 -146 362q0 218 139 360q138 144 355 144q127 0 213 -57q-19 126 -58 249l-266 -94v131l225 80q-37 94 -94 180h129q74 -61 127 -123l260 93v-131zM588 92q110 0 156.5 98t46.5 310
q0 148 -15 280q-81 72 -190 72q-113 0 -161 -92t-48 -291q0 -194 49 -285.5t162 -91.5z" />
    <glyph glyph-name="ntilde" unicode="&#xf1;" horiz-adv-x="1251" 
d="M846 1364h94q-6 -126 -59 -187t-133 -61q-66 0 -152 53q-70 43 -109 43q-28 0 -50 -21.5t-29 -60.5h-99q6 127 58.5 188.5t132.5 61.5q61 0 155 -55q77 -41 109 -41q67 0 82 80zM1212 0h-542v86q69 8 91.5 25.5t22.5 64.5v488q0 137 -133 137q-95 0 -184 -62v-563
q0 -47 23 -64.5t92 -25.5v-86h-543v86q69 8 92 25.5t23 64.5v486q0 61 -52 61h-63v80l313 172h115v-101q151 101 307 101q324 0 324 -320v-479q0 -47 22.5 -64.5t91.5 -25.5v-86z" />
    <glyph glyph-name="ograve" unicode="&#xf2;" horiz-adv-x="1167" 
d="M500 1350l170 -318h-121l-273 240q-59 53 -59 80q0 41 41 41h172q49 0 70 -43zM1116 473q0 -222 -145 -364q-146 -140 -387 -140t-387 140q-146 143 -146 364t146 361q144 141 387 141t387 -141q145 -139 145 -361zM422 186q49 -94 162 -94t159 94q50 95 50 287
q0 187 -48 285q-46 94 -161 94q-116 0 -162 -94q-47 -96 -47 -285q0 -191 47 -287z" />
    <glyph glyph-name="oacute" unicode="&#xf3;" horiz-adv-x="1167" 
d="M496 1032l170 318q21 43 69 43h172q41 0 41 -41q0 -27 -59 -80l-273 -240h-120zM1116 473q0 -222 -145 -364q-146 -140 -387 -140t-387 140q-146 143 -146 364t146 361q144 141 387 141t387 -141q145 -139 145 -361zM422 186q49 -94 162 -94t159 94q50 95 50 287
q0 187 -48 285q-46 94 -161 94q-116 0 -162 -94q-47 -96 -47 -285q0 -191 47 -287z" />
    <glyph glyph-name="ocircumflex" unicode="&#xf4;" horiz-adv-x="1167" 
d="M250 1028l211 320q35 47 78 47h90q49 0 76 -47l210 -320h-120l-211 184l-213 -184h-121zM1116 473q0 -222 -145 -364q-146 -140 -387 -140t-387 140q-146 143 -146 364t146 361q144 141 387 141t387 -141q145 -139 145 -361zM422 186q49 -94 162 -94t159 94q50 95 50 287
q0 187 -48 285q-46 94 -161 94q-116 0 -162 -94q-47 -96 -47 -285q0 -191 47 -287z" />
    <glyph glyph-name="otilde" unicode="&#xf5;" horiz-adv-x="1167" 
d="M805 1364h94q-6 -126 -59 -187t-133 -61q-66 0 -152 53q-70 43 -109 43q-28 0 -50 -21.5t-29 -60.5h-99q6 127 58.5 188.5t132.5 61.5q61 0 155 -55q77 -41 109 -41q67 0 82 80zM1116 473q0 -222 -145 -364q-146 -140 -387 -140t-387 140q-146 143 -146 364t146 361
q144 141 387 141t387 -141q145 -139 145 -361zM422 186q49 -94 162 -94t159 94q50 95 50 287q0 187 -48 285q-46 94 -161 94q-116 0 -162 -94q-47 -96 -47 -285q0 -191 47 -287z" />
    <glyph glyph-name="odieresis" unicode="&#xf6;" horiz-adv-x="1167" 
d="M373 1399q66 0 107.5 -42.5t41.5 -101.5q0 -56 -41.5 -96.5t-107.5 -40.5t-108 40t-42 97q0 59 41.5 101.5t108.5 42.5zM946 1255q0 -57 -41.5 -97t-107.5 -40t-107 40t-41 97q0 59 41.5 101.5t106.5 42.5q66 0 107.5 -42.5t41.5 -101.5zM1116 473q0 -222 -145 -364
q-146 -140 -387 -140t-387 140q-146 143 -146 364t146 361q144 141 387 141t387 -141q145 -139 145 -361zM422 186q49 -94 162 -94t159 94q50 95 50 287q0 187 -48 285q-46 94 -161 94q-116 0 -162 -94q-47 -96 -47 -285q0 -191 47 -287z" />
    <glyph glyph-name="divide" unicode="&#xf7;" horiz-adv-x="1161" 
d="M436 1223q51 57 144 57q92 0 143 -57q55 -55 55 -133.5t-55 -135.5q-52 -55 -143 -55q-92 0 -144 55q-51 57 -51 135.5t51 133.5zM16 653v131h1129v-131h-1129zM436 483q52 58 144 58q91 0 143 -58q55 -55 55 -133t-55 -135q-52 -55 -143 -55q-92 0 -144 55
q-51 57 -51 135t51 133z" />
    <glyph glyph-name="oslash" unicode="&#xf8;" horiz-adv-x="1167" 
d="M1100 944l-115 -125q131 -137 131 -346q0 -222 -145 -364q-146 -140 -387 -140q-175 0 -308 80l-45 -49h-165l116 125q-131 137 -131 348q0 221 146 361q144 141 387 141q174 0 307 -80l45 49h164zM375 473q0 -73 6 -131l371 401q-50 109 -168 109q-113 0 -161 -92
t-48 -287zM584 92q110 0 159.5 93.5t49.5 287.5q0 59 -7 131l-370 -403q53 -109 168 -109z" />
    <glyph glyph-name="ugrave" unicode="&#xf9;" horiz-adv-x="1239" 
d="M528 1350l170 -318h-120l-273 240q-59 53 -59 80q0 41 41 41h172q48 0 69 -43zM657 723v80l314 172h114v-799q0 -47 23 -64.5t92 -25.5v-86q-228 0 -428 -31v99q-156 -99 -309 -99q-324 0 -324 320v373q0 61 -51 61h-61v80l313 172h115v-694q0 -138 133 -138q84 0 184 62
v457q0 61 -53 61h-62z" />
    <glyph glyph-name="uacute" unicode="&#xfa;" horiz-adv-x="1239" 
d="M524 1032l170 318q21 43 70 43h172q41 0 41 -41q0 -27 -59 -80l-273 -240h-121zM657 723v80l314 172h114v-799q0 -47 23 -64.5t92 -25.5v-86q-228 0 -428 -31v99q-156 -99 -309 -99q-324 0 -324 320v373q0 61 -51 61h-61v80l313 172h115v-694q0 -138 133 -138
q84 0 184 62v457q0 61 -53 61h-62z" />
    <glyph glyph-name="ucircumflex" unicode="&#xfb;" horiz-adv-x="1239" 
d="M279 1028l210 320q35 47 78 47h90q49 0 76 -47l211 -320h-121l-211 184l-213 -184h-120zM657 723v80l314 172h114v-799q0 -47 23 -64.5t92 -25.5v-86q-228 0 -428 -31v99q-156 -99 -309 -99q-324 0 -324 320v373q0 61 -51 61h-61v80l313 172h115v-694q0 -138 133 -138
q84 0 184 62v457q0 61 -53 61h-62z" />
    <glyph glyph-name="udieresis" unicode="&#xfc;" horiz-adv-x="1239" 
d="M401 1399q66 0 108 -42.5t42 -101.5q0 -56 -42 -96.5t-108 -40.5t-107.5 40t-41.5 97q0 59 41 101.5t108 42.5zM975 1255q0 -57 -42 -97t-108 -40t-106.5 40t-40.5 97q0 59 41 101.5t106 42.5q66 0 108 -42.5t42 -101.5zM657 723v80l314 172h114v-799q0 -47 23 -64.5
t92 -25.5v-86q-228 0 -428 -31v99q-156 -99 -309 -99q-324 0 -324 320v373q0 61 -51 61h-61v80l313 172h115v-694q0 -138 133 -138q84 0 184 62v457q0 61 -53 61h-62z" />
    <glyph glyph-name="yacute" unicode="&#xfd;" horiz-adv-x="1021" 
d="M428 1032l170 318q21 43 70 43h172q41 0 41 -41q0 -26 -60 -80l-272 -240h-121zM897 715l-360 -885q-99 -238 -318 -238q-93 0 -157 50t-64 127q0 60 38.5 98.5t98.5 38.5q55 0 105 -47q49 -49 82 -49q58 0 92 88l20 51l-313 766q-24 61 -33 76q-30 59 -100 67v86h565
v-86q-81 -8 -97.5 -34.5t11.5 -108.5l137 -348l144 348q24 80 4 107.5t-97 35.5v86h379v-86q-50 -7 -78 -37t-59 -106z" />
    <glyph glyph-name="thorn" unicode="&#xfe;" 
d="M571 -377h-542v86q68 7 91 25t23 63v1354q0 61 -51 61h-65v80l315 172h115v-583q107 94 266 94q194 0 313 -137q121 -139 121 -365q0 -232 -127 -368t-348 -136q-134 0 -225 64v-236q0 -45 23 -63t91 -25v-86zM457 743v-544q57 -84 164 -84q112 0 162.5 86t50.5 272
q0 184 -50.5 269t-162.5 85q-111 0 -164 -84z" />
    <glyph glyph-name="ydieresis" unicode="&#xff;" horiz-adv-x="1021" 
d="M455 1255q0 -56 -42 -96.5t-108 -40.5t-107.5 40t-41.5 97q0 59 41.5 101.5t107.5 42.5t108 -42.5t42 -101.5zM729 1399q67 0 108.5 -42.5t41.5 -101.5q0 -57 -42 -97t-108 -40t-106.5 40t-40.5 97q0 59 41 101.5t106 42.5zM897 715l-360 -885q-99 -238 -318 -238
q-93 0 -157 50t-64 127q0 60 38.5 98.5t98.5 38.5q55 0 105 -47q49 -49 82 -49q58 0 92 88l20 51l-313 766q-24 61 -33 76q-30 59 -100 67v86h565v-86q-81 -8 -97.5 -34.5t11.5 -108.5l137 -348l144 348q24 80 4 107.5t-97 35.5v86h379v-86q-50 -7 -78 -37t-59 -106z" />
    <glyph glyph-name="Amacron" unicode="&#x100;" horiz-adv-x="1466" 
d="M434 1796h590v-145h-590v145zM860 1434l469 -1215q26 -68 60 -96.5t92 -36.5v-86h-652v86q95 8 119.5 33.5t-0.5 93.5l-71 184h-512l-72 -184q-26 -65 4.5 -92t130.5 -35v-86h-444v86q64 8 99.5 36.5t59.5 94.5l469 1217h248zM618 1059l-200 -522h403z" />
    <glyph glyph-name="amacron" unicode="&#x101;" horiz-adv-x="1120" 
d="M281 1161v146h589v-146h-589zM657 102q-170 -129 -329 -129q-124 0 -200.5 65t-76.5 169q0 155 189 260q64 33 127 51q145 46 284 68v96q0 100 -21.5 136t-86.5 36q-109 0 -152 -137q-41 -123 -160 -123q-55 0 -85.5 33t-30.5 94q0 111 129 182q132 72 331 72
q182 0 287 -76t105 -231v-473q0 -78 55 -78q34 0 59 14v-104q-82 -52 -211 -52q-183 0 -213 127zM651 221v246q-141 -27 -208.5 -72.5t-67.5 -122.5q0 -53 30.5 -81.5t81.5 -28.5q81 0 164 59z" />
    <glyph glyph-name="Abreve" unicode="&#x102;" horiz-adv-x="1466" 
d="M412 1855h108q27 -88 207 -88q184 0 211 88h104q-18 -110 -101.5 -179.5t-213.5 -69.5t-213.5 69.5t-101.5 179.5zM860 1434l469 -1215q26 -68 60 -96.5t92 -36.5v-86h-652v86q95 8 119.5 33.5t-0.5 93.5l-71 184h-512l-72 -184q-26 -65 4.5 -92t130.5 -35v-86h-444v86
q64 8 99.5 36.5t59.5 94.5l469 1217h248zM618 1059l-200 -522h403z" />
    <glyph glyph-name="abreve" unicode="&#x103;" horiz-adv-x="1120" 
d="M784 1366h105q-18 -110 -102 -180t-214 -70q-129 0 -213 70t-102 180h109q27 -88 206 -88q184 0 211 88zM657 102q-170 -129 -329 -129q-124 0 -200.5 65t-76.5 169q0 155 189 260q64 33 127 51q145 46 284 68v96q0 100 -21.5 136t-86.5 36q-109 0 -152 -137
q-41 -123 -160 -123q-55 0 -85.5 33t-30.5 94q0 111 129 182q132 72 331 72q182 0 287 -76t105 -231v-473q0 -78 55 -78q34 0 59 14v-104q-82 -52 -211 -52q-183 0 -213 127zM651 221v246q-141 -27 -208.5 -72.5t-67.5 -122.5q0 -53 30.5 -81.5t81.5 -28.5q81 0 164 59z" />
    <glyph glyph-name="Aogonek" unicode="&#x104;" horiz-adv-x="1466" 
d="M1481 0h-205q-119 -79 -119 -197q0 -41 27.5 -69.5t66.5 -28.5q74 0 117 76l86 -45q-90 -158 -258 -158q-110 0 -174 51t-64 138q0 147 170 233h-299v86q95 8 119.5 33.5t-0.5 93.5l-71 184h-512l-72 -184q-26 -65 4.5 -92t130.5 -35v-86h-444v86q64 8 99.5 36.5
t59.5 94.5l469 1217h248l469 -1215q26 -68 60 -96.5t92 -36.5v-86zM618 1059l-200 -522h403z" />
    <glyph glyph-name="aogonek" unicode="&#x105;" horiz-adv-x="1120" 
d="M1016 -219l86 -45q-90 -158 -258 -158q-110 0 -174 51t-64 138q0 139 154 225q-82 27 -103 110q-170 -129 -329 -129q-124 0 -200.5 65t-76.5 169q0 155 189 260q64 33 127 51q145 46 284 68v96q0 100 -21.5 136t-86.5 36q-109 0 -152 -137q-41 -123 -160 -123
q-55 0 -85.5 33t-30.5 94q0 111 129 182q132 72 331 72q182 0 287 -76t105 -231v-473q0 -78 55 -78q34 0 59 14v-104q-76 -49 -190 -52q-86 -74 -86 -172q0 -41 27.5 -69.5t66.5 -28.5q74 0 117 76zM651 221v246q-141 -27 -208.5 -72.5t-67.5 -122.5q0 -53 30.5 -81.5
t81.5 -28.5q81 0 164 59z" />
    <glyph glyph-name="Cacute" unicode="&#x106;" horiz-adv-x="1421" 
d="M688 1522l170 317q21 43 70 43h172q41 0 41 -41q0 -26 -60 -80l-272 -239h-121zM1235 1434l100 -414l-84 -25q-75 156 -190.5 247t-247.5 91q-360 0 -360 -616q0 -615 360 -615q161 0 274 101q115 103 158 246l135 -46q-156 -434 -604 -434q-320 0 -516 205
q-197 206 -197 543t197 543q195 204 516 204q193 0 332 -92l29 62h98z" />
    <glyph glyph-name="cacute" unicode="&#x107;" horiz-adv-x="1026" 
d="M467 1032l170 318q21 43 70 43h172q41 0 41 -41q0 -26 -60 -80l-272 -240h-121zM674 715q-12 71 -39.5 104t-81.5 33q-97 0 -137.5 -91t-40.5 -288q0 -367 254 -367q175 0 270 228l113 -64q-68 -152 -172.5 -226.5t-264.5 -74.5q-235 0 -380 142q-144 141 -144 362
q0 219 139 361q141 141 363 141q173 0 289 -72q114 -71 114 -180q0 -64 -39 -101.5t-98 -37.5q-58 0 -96.5 34.5t-48.5 96.5z" />
    <glyph glyph-name="Ccircumflex" unicode="&#x108;" horiz-adv-x="1421" 
d="M442 1518l211 319q35 47 78 47h90q49 0 76 -47l211 -319h-121l-211 184l-213 -184h-121zM1235 1434l100 -414l-84 -25q-75 156 -190.5 247t-247.5 91q-360 0 -360 -616q0 -615 360 -615q161 0 274 101q115 103 158 246l135 -46q-156 -434 -604 -434q-320 0 -516 205
q-197 206 -197 543t197 543q195 204 516 204q193 0 332 -92l29 62h98z" />
    <glyph glyph-name="ccircumflex" unicode="&#x109;" horiz-adv-x="1026" 
d="M221 1028l211 320q35 47 78 47h90q49 0 76 -47l211 -320h-121l-211 184l-213 -184h-121zM674 715q-12 71 -39.5 104t-81.5 33q-97 0 -137.5 -91t-40.5 -288q0 -367 254 -367q175 0 270 228l113 -64q-68 -152 -172.5 -226.5t-264.5 -74.5q-235 0 -380 142
q-144 141 -144 362q0 219 139 361q141 141 363 141q173 0 289 -72q114 -71 114 -180q0 -64 -39 -101.5t-98 -37.5q-58 0 -96.5 34.5t-48.5 96.5z" />
    <glyph glyph-name="Cdotaccent" unicode="&#x10a;" horiz-adv-x="1421" 
d="M926 1745q0 -56 -42 -96.5t-108 -40.5t-107.5 40t-41.5 97q0 59 41.5 101t107.5 42t108 -42t42 -101zM1235 1434l100 -414l-84 -25q-75 156 -190.5 247t-247.5 91q-360 0 -360 -616q0 -615 360 -615q161 0 274 101q115 103 158 246l135 -46q-156 -434 -604 -434
q-320 0 -516 205q-197 206 -197 543t197 543q195 204 516 204q193 0 332 -92l29 62h98z" />
    <glyph glyph-name="cdotaccent" unicode="&#x10b;" horiz-adv-x="1026" 
d="M705 1255q0 -56 -42 -96.5t-108 -40.5t-107.5 40t-41.5 97q0 59 41.5 101.5t107.5 42.5t108 -42.5t42 -101.5zM674 715q-12 71 -39.5 104t-81.5 33q-97 0 -137.5 -91t-40.5 -288q0 -367 254 -367q175 0 270 228l113 -64q-68 -152 -172.5 -226.5t-264.5 -74.5
q-235 0 -380 142q-144 141 -144 362q0 219 139 361q141 141 363 141q173 0 289 -72q114 -71 114 -180q0 -64 -39 -101.5t-98 -37.5q-58 0 -96.5 34.5t-48.5 96.5z" />
    <glyph glyph-name="Ccaron" unicode="&#x10c;" horiz-adv-x="1421" 
d="M653 1565l-211 319h121l213 -184l211 184h121l-211 -319q-30 -47 -76 -47h-90q-43 0 -78 47zM1235 1434l100 -414l-84 -25q-75 156 -190.5 247t-247.5 91q-360 0 -360 -616q0 -615 360 -615q161 0 274 101q115 103 158 246l135 -46q-156 -434 -604 -434q-320 0 -516 205
q-197 206 -197 543t197 543q195 204 516 204q193 0 332 -92l29 62h98z" />
    <glyph glyph-name="ccaron" unicode="&#x10d;" horiz-adv-x="1026" 
d="M432 1075l-211 320h121l213 -185l211 185h121l-211 -320q-30 -47 -76 -47h-90q-43 0 -78 47zM674 715q-12 71 -39.5 104t-81.5 33q-97 0 -137.5 -91t-40.5 -288q0 -367 254 -367q175 0 270 228l113 -64q-68 -152 -172.5 -226.5t-264.5 -74.5q-235 0 -380 142
q-144 141 -144 362q0 219 139 361q141 141 363 141q173 0 289 -72q114 -71 114 -180q0 -64 -39 -101.5t-98 -37.5q-58 0 -96.5 34.5t-48.5 96.5z" />
    <glyph glyph-name="Dcaron" unicode="&#x10e;" horiz-adv-x="1581" 
d="M647 1565l-211 319h121l213 -184l211 184h121l-211 -319q-30 -47 -76 -47h-90q-43 0 -78 47zM721 0h-680v86q101 9 131 33q31 25 31 110v975q0 86 -31 111q-27 24 -131 33v86h684q384 0 588.5 -186.5t204.5 -530.5q0 -341 -206.5 -529t-590.5 -188zM725 1294h-98
q-29 0 -45.5 -16t-16.5 -45v-1032q0 -29 16.5 -45.5t45.5 -16.5h94q205 0 306 138.5t101 439.5q0 300 -100.5 438.5t-302.5 138.5z" />
    <glyph glyph-name="dcaron" unicode="&#x10f;" horiz-adv-x="1429" 
d="M1276 1481q66 0 104.5 -42.5t38.5 -111.5q0 -72 -59 -172q-60 -102 -127 -166l-47 39q72 92 94 180q-89 -4 -125 66t0 140t121 67zM639 1212v80l311 172h117v-1288q0 -47 23 -64.5t92 -25.5v-86q-230 0 -430 -31v97q-97 -97 -265 -97q-196 0 -315 137q-121 139 -121 367
q0 226 121 365q119 137 315 137q161 0 265 -96v272q0 61 -52 61h-61zM752 201v542q-56 86 -162 86q-112 0 -163.5 -86t-51.5 -270t51.5 -270t163.5 -86q109 0 162 84z" />
    <glyph glyph-name="Dcroat" unicode="&#x110;" horiz-adv-x="1581" 
d="M41 1434h684q384 0 588.5 -186.5t204.5 -530.5q0 -341 -206.5 -529t-590.5 -188h-680v86q101 9 131 33q31 25 31 110v449h-162v139h162v387q0 86 -31 111q-27 24 -131 33v86zM627 139h94q205 0 306 138.5t101 439.5q0 300 -100.5 438.5t-302.5 138.5h-98q-29 0 -45.5 -16
t-16.5 -45v-416h168v-139h-168v-477q0 -29 16.5 -45.5t45.5 -16.5z" />
    <glyph glyph-name="dslash" unicode="&#x111;" horiz-adv-x="1218" 
d="M1182 1124v-92h-115v-856q0 -47 23 -64.5t92 -25.5v-86q-230 0 -430 -31v97q-97 -97 -265 -97q-196 0 -315 137q-121 139 -121 367q0 226 121 365q119 137 315 137q161 0 265 -96v153h-265v92h265v27q0 61 -52 61h-61v80l311 172h117v-340h115zM752 201v542
q-56 86 -162 86q-112 0 -163.5 -86t-51.5 -270t51.5 -270t163.5 -86q109 0 162 84z" />
    <glyph glyph-name="Emacron" unicode="&#x112;" horiz-adv-x="1421" 
d="M442 1651v145h590v-145h-590zM627 139h108q179 0 336.5 86t271.5 234l74 -43l-200 -416h-1176v86q101 9 131 33q31 25 31 110v975q0 86 -31 111q-27 24 -131 33v86h1169l121 -371l-76 -33q-99 138 -226 201t-314 63h-88q-29 0 -45.5 -16t-16.5 -45v-416h242
q98 0 133.5 41t40.5 135h94v-491h-94q-5 94 -40.5 135t-133.5 41h-242v-477q0 -29 16.5 -45.5t45.5 -16.5z" />
    <glyph glyph-name="emacron" unicode="&#x113;" horiz-adv-x="1085" 
d="M264 1161v146h590v-146h-590zM1014 526h-637q-2 -12 -2 -53q0 -187 61 -277t193 -90q90 0 168.5 59.5t132.5 168.5l112 -64q-75 -151 -182.5 -226t-269.5 -75q-249 0 -395 140q-144 141 -144 364q0 219 139 361q141 141 367 141q218 0 337.5 -119t119.5 -330zM383 657
h334q0 90 -42 142.5t-112 52.5q-81 0 -123.5 -47t-56.5 -148z" />
    <glyph glyph-name="Ebreve" unicode="&#x114;" horiz-adv-x="1421" 
d="M946 1855h105q-18 -109 -102 -179t-214 -70t-213.5 69.5t-101.5 179.5h108q27 -88 207 -88q184 0 211 88zM627 139h108q179 0 336.5 86t271.5 234l74 -43l-200 -416h-1176v86q101 9 131 33q31 25 31 110v975q0 86 -31 111q-27 24 -131 33v86h1169l121 -371l-76 -33
q-99 138 -226 201t-314 63h-88q-29 0 -45.5 -16t-16.5 -45v-416h242q98 0 133.5 41t40.5 135h94v-491h-94q-5 94 -40.5 135t-133.5 41h-242v-477q0 -29 16.5 -45.5t45.5 -16.5z" />
    <glyph glyph-name="ebreve" unicode="&#x115;" horiz-adv-x="1085" 
d="M768 1366h104q-18 -110 -102 -180t-213 -70t-213 70t-102 180h108q27 -88 207 -88q184 0 211 88zM1014 526h-637q-2 -12 -2 -53q0 -187 61 -277t193 -90q90 0 168.5 59.5t132.5 168.5l112 -64q-75 -151 -182.5 -226t-269.5 -75q-249 0 -395 140q-144 141 -144 364
q0 219 139 361q141 141 367 141q218 0 337.5 -119t119.5 -330zM383 657h334q0 90 -42 142.5t-112 52.5q-81 0 -123.5 -47t-56.5 -148z" />
    <glyph glyph-name="Edotaccent" unicode="&#x116;" horiz-adv-x="1421" 
d="M885 1745q0 -56 -42 -96.5t-108 -40.5t-107.5 40t-41.5 97q0 59 41.5 101t107.5 42t108 -42t42 -101zM627 139h108q179 0 336.5 86t271.5 234l74 -43l-200 -416h-1176v86q101 9 131 33q31 25 31 110v975q0 86 -31 111q-27 24 -131 33v86h1169l121 -371l-76 -33
q-99 138 -226 201t-314 63h-88q-29 0 -45.5 -16t-16.5 -45v-416h242q98 0 133.5 41t40.5 135h94v-491h-94q-5 94 -40.5 135t-133.5 41h-242v-477q0 -29 16.5 -45.5t45.5 -16.5z" />
    <glyph glyph-name="edotaccent" unicode="&#x117;" horiz-adv-x="1085" 
d="M557 1399q66 0 108 -42.5t42 -101.5q0 -56 -42 -96.5t-108 -40.5t-107.5 40t-41.5 97q0 59 41 101.5t108 42.5zM1014 526h-637q-2 -12 -2 -53q0 -187 61 -277t193 -90q90 0 168.5 59.5t132.5 168.5l112 -64q-75 -151 -182.5 -226t-269.5 -75q-249 0 -395 140
q-144 141 -144 364q0 219 139 361q141 141 367 141q218 0 337.5 -119t119.5 -330zM383 657h334q0 90 -42 142.5t-112 52.5q-81 0 -123.5 -47t-56.5 -148z" />
    <glyph glyph-name="Eogonek" unicode="&#x118;" horiz-adv-x="1421" 
d="M1171 -295q74 0 117 76l86 -45q-90 -158 -258 -158q-110 0 -173.5 51t-63.5 138q0 147 170 233h-1008v86q101 9 131 33q31 25 31 110v975q0 86 -31 111q-27 24 -131 33v86h1169l121 -371l-76 -33q-99 138 -226 201t-314 63h-88q-29 0 -45.5 -16t-16.5 -45v-416h242
q98 0 133.5 41t40.5 135h94v-491h-94q-5 94 -40.5 135t-133.5 41h-242v-477q0 -29 16.5 -45.5t45.5 -16.5h108q179 0 336.5 86t271.5 234l74 -43l-200 -416h-21q-119 -79 -119 -197q0 -41 27.5 -69.5t66.5 -28.5z" />
    <glyph glyph-name="eogonek" unicode="&#x119;" horiz-adv-x="1085" 
d="M750 -295q73 0 116 76l86 -45q-90 -158 -258 -158q-110 0 -173.5 51t-63.5 138q0 121 118 202q-241 3 -385 144q-139 139 -139 360q0 219 139 361q141 141 367 141q218 0 337.5 -119t119.5 -330h-637q-2 -12 -2 -53q0 -187 61 -277t193 -90q90 0 168.5 59.5t132.5 168.5
l112 -64q-103 -207 -268 -270q-119 -79 -119 -197q0 -41 28 -69.5t67 -28.5zM563 852q-81 0 -123.5 -47t-56.5 -148h334q0 90 -42 142.5t-112 52.5z" />
    <glyph glyph-name="Ecaron" unicode="&#x11a;" horiz-adv-x="1421" 
d="M612 1565l-211 319h121l213 -184l211 184h121l-211 -319q-30 -47 -76 -47h-90q-43 0 -78 47zM627 139h108q179 0 336.5 86t271.5 234l74 -43l-200 -416h-1176v86q101 9 131 33q31 25 31 110v975q0 86 -31 111q-27 24 -131 33v86h1169l121 -371l-76 -33q-99 138 -226 201
t-314 63h-88q-29 0 -45.5 -16t-16.5 -45v-416h242q98 0 133.5 41t40.5 135h94v-491h-94q-5 94 -40.5 135t-133.5 41h-242v-477q0 -29 16.5 -45.5t45.5 -16.5z" />
    <glyph glyph-name="ecaron" unicode="&#x11b;" horiz-adv-x="1085" 
d="M434 1075l-211 320h121l213 -185l211 185h121l-211 -320q-30 -47 -76 -47h-90q-43 0 -78 47zM1014 526h-637q-2 -12 -2 -53q0 -187 61 -277t193 -90q90 0 168.5 59.5t132.5 168.5l112 -64q-75 -151 -182.5 -226t-269.5 -75q-249 0 -395 140q-144 141 -144 364
q0 219 139 361q141 141 367 141q218 0 337.5 -119t119.5 -330zM383 657h334q0 90 -42 142.5t-112 52.5q-81 0 -123.5 -47t-56.5 -148z" />
    <glyph glyph-name="Gcircumflex" unicode="&#x11c;" horiz-adv-x="1533" 
d="M449 1518l210 319q35 47 78 47h90q49 0 76 -47l211 -319h-121l-211 184l-213 -184h-120zM1255 0l-90 111q-151 -142 -383 -142q-326 0 -522 205q-197 206 -197 543t197 543q195 204 522 204q220 0 353 -92l26 62h101l98 -414l-84 -25q-75 160 -194.5 249t-258.5 89
q-370 0 -370 -616q0 -615 340 -615q71 0 132 25.5t87 62.5v254q0 84 -31 109q-27 24 -131 33v88h663v-88q-85 -9 -112 -33t-27 -109v-444h-119z" />
    <glyph glyph-name="gcircumflex" unicode="&#x11d;" horiz-adv-x="1093" 
d="M901 922q-37 0 -70 -45q117 -95 117 -250t-118 -251.5t-314 -96.5q-49 0 -119 10t-71 10q-66 0 -66 -43q0 -34 82 -49q83 -12 305 -21q213 -7 309.5 -74.5t96.5 -203.5q0 -151 -148 -234q-143 -82 -375 -82q-91 0 -172 12.5t-152 38t-113 73t-42 110.5q0 101 107 147
q-105 59 -105 191q0 78 42.5 132t113.5 73q-127 95 -127 258q0 155 117 250q119 98 317 98q109 0 197 -31q37 46 84 84h-70l-211 184l-213 -184h-121l211 320q35 47 78 47h90q49 0 76 -47l194 -295q74 45 160 45q62 0 100.5 -31t38.5 -86q0 -47 -31 -79t-75 -32
q-28 0 -68.5 26t-54.5 26zM516 399q143 0 143 228q0 227 -143 227q-145 0 -145 -227q0 -228 145 -228zM793 -176q0 44 -45 59q-47 16 -185 19q-148 6 -241 22q-68 -26 -71 -77q-4 -53 61 -92q80 -48 218 -42q122 0 192.5 33t70.5 78z" />
    <glyph glyph-name="Gbreve" unicode="&#x11e;" horiz-adv-x="1533" 
d="M993 1855h105q-18 -109 -102 -179t-214 -70t-213.5 69.5t-101.5 179.5h108q27 -88 207 -88q184 0 211 88zM1255 0l-90 111q-151 -142 -383 -142q-326 0 -522 205q-197 206 -197 543t197 543q195 204 522 204q220 0 353 -92l26 62h101l98 -414l-84 -25q-75 160 -194.5 249
t-258.5 89q-370 0 -370 -616q0 -615 340 -615q71 0 132 25.5t87 62.5v254q0 84 -31 109q-27 24 -131 33v88h663v-88q-85 -9 -112 -33t-27 -109v-444h-119z" />
    <glyph glyph-name="gbreve" unicode="&#x11f;" horiz-adv-x="1093" 
d="M201 1366h108q27 -88 207 -88q184 0 211 88h104q-18 -110 -102 -180t-213 -70t-213 70t-102 180zM901 922q-37 0 -70 -45q117 -95 117 -250t-118 -251.5t-314 -96.5q-49 0 -119 10t-71 10q-66 0 -66 -43q0 -34 82 -49q83 -12 305 -21q213 -7 309.5 -74.5t96.5 -203.5
q0 -151 -148 -234q-143 -82 -375 -82q-91 0 -172 12.5t-152 38t-113 73t-42 110.5q0 101 107 147q-105 59 -105 191q0 78 42.5 132t113.5 73q-127 95 -127 258q0 155 117 250q119 98 317 98q109 0 197 -31q121 154 278 154q62 0 100.5 -31t38.5 -86q0 -47 -31 -79t-75 -32
q-28 0 -68.5 26t-54.5 26zM516 399q143 0 143 228q0 227 -143 227q-145 0 -145 -227q0 -228 145 -228zM793 -176q0 44 -45 59q-47 16 -185 19q-148 6 -241 22q-68 -26 -71 -77q-4 -53 61 -92q80 -48 218 -42q122 0 192.5 33t70.5 78z" />
    <glyph glyph-name="Gdotaccent" unicode="&#x120;" horiz-adv-x="1533" 
d="M782 1888q66 0 108 -42t42 -101q0 -56 -42 -96.5t-108 -40.5t-107.5 40t-41.5 97q0 59 41 101t108 42zM1255 0l-90 111q-151 -142 -383 -142q-326 0 -522 205q-197 206 -197 543t197 543q195 204 522 204q220 0 353 -92l26 62h101l98 -414l-84 -25q-75 160 -194.5 249
t-258.5 89q-370 0 -370 -616q0 -615 340 -615q71 0 132 25.5t87 62.5v254q0 84 -31 109q-27 24 -131 33v88h663v-88q-85 -9 -112 -33t-27 -109v-444h-119z" />
    <glyph glyph-name="gdotaccent" unicode="&#x121;" horiz-adv-x="1093" 
d="M367 1255q0 59 41 101.5t108 42.5q66 0 108 -42.5t42 -101.5q0 -56 -42 -96.5t-108 -40.5t-107.5 40t-41.5 97zM901 922q-37 0 -70 -45q117 -95 117 -250t-118 -251.5t-314 -96.5q-49 0 -119 10t-71 10q-66 0 -66 -43q0 -34 82 -49q83 -12 305 -21q213 -7 309.5 -74.5
t96.5 -203.5q0 -151 -148 -234q-143 -82 -375 -82q-91 0 -172 12.5t-152 38t-113 73t-42 110.5q0 101 107 147q-105 59 -105 191q0 78 42.5 132t113.5 73q-127 95 -127 258q0 155 117 250q119 98 317 98q109 0 197 -31q121 154 278 154q62 0 100.5 -31t38.5 -86
q0 -47 -31 -79t-75 -32q-28 0 -68.5 26t-54.5 26zM516 399q143 0 143 228q0 227 -143 227q-145 0 -145 -227q0 -228 145 -228zM793 -176q0 44 -45 59q-47 16 -185 19q-148 6 -241 22q-68 -26 -71 -77q-4 -53 61 -92q80 -48 218 -42q122 0 192.5 33t70.5 78z" />
    <glyph glyph-name="Gcommaaccent" unicode="&#x122;" horiz-adv-x="1533" 
d="M1255 0l-90 111q-151 -142 -383 -142q-326 0 -522 205q-197 206 -197 543t197 543q195 204 522 204q220 0 353 -92l26 62h101l98 -414l-84 -25q-75 160 -194.5 249t-258.5 89q-370 0 -370 -616q0 -615 340 -615q71 0 132 25.5t87 62.5v254q0 84 -31 109q-27 24 -131 33
v88h663v-88q-85 -9 -112 -33t-27 -109v-444h-119zM786 -526l-51 41q30 55 49 108q-92 -4 -129.5 68.5t-0.5 145t126 67.5q66 0 106 -43.5t40 -112.5q0 -64 -41 -140t-99 -134z" />
    <glyph glyph-name="gcommaaccent" unicode="&#x123;" horiz-adv-x="1093" 
d="M514 1530l49 -41q-34 -65 -47 -109q89 4 127 -68.5t1 -144.5t-126 -67q-66 0 -105.5 43t-39.5 112q0 64 41.5 140.5t99.5 134.5zM901 922q-37 0 -70 -45q117 -95 117 -250t-118 -251.5t-314 -96.5q-49 0 -119 10t-71 10q-66 0 -66 -43q0 -34 82 -49q83 -12 305 -21
q213 -7 309.5 -74.5t96.5 -203.5q0 -151 -148 -234q-143 -82 -375 -82q-91 0 -172 12.5t-152 38t-113 73t-42 110.5q0 101 107 147q-105 59 -105 191q0 78 42.5 132t113.5 73q-127 95 -127 258q0 155 117 250q119 98 317 98q109 0 197 -31q121 154 278 154q62 0 100.5 -31
t38.5 -86q0 -47 -31 -79t-75 -32q-28 0 -68.5 26t-54.5 26zM516 399q143 0 143 228q0 227 -143 227q-145 0 -145 -227q0 -228 145 -228zM793 -176q0 44 -45 59q-47 16 -185 19q-148 6 -241 22q-68 -26 -71 -77q-4 -53 61 -92q80 -48 218 -42q122 0 192.5 33t70.5 78z" />
    <glyph glyph-name="Hcircumflex" unicode="&#x124;" horiz-adv-x="1662" 
d="M498 1518l211 319q35 47 77 47h91q48 0 75 -47l211 -319h-121l-211 184l-213 -184h-120zM1622 0h-686v86q101 9 131 33q31 25 31 110v449h-533v-449q0 -85 31 -110q30 -24 131 -33v-86h-686v86q101 9 131 33q31 25 31 110v975q0 86 -31 111q-27 24 -131 33v86h686v-86
q-103 -9 -133 -33q-29 -26 -29 -111v-387h533v387q0 86 -31 111q-27 24 -131 33v86h686v-86q-103 -9 -133 -33q-29 -26 -29 -111v-975q0 -85 31 -110q30 -24 131 -33v-86z" />
    <glyph glyph-name="hcircumflex" unicode="&#x125;" horiz-adv-x="1251" 
d="M291 1518l211 319q35 47 78 47h90q48 0 75 -47l211 -319h-120l-211 184l-213 -184h-121zM1212 0h-542v86q69 8 91.5 25.5t22.5 64.5v488q0 137 -133 137q-95 0 -184 -62v-563q0 -47 23 -64.5t92 -25.5v-86h-543v86q69 8 92 25.5t23 64.5v975q0 61 -52 61h-63v80l313 172
h115v-590q151 101 307 101q324 0 324 -320v-479q0 -47 22.5 -64.5t91.5 -25.5v-86z" />
    <glyph glyph-name="Hbar" unicode="&#x126;" horiz-adv-x="1650" 
d="M1616 1434v-86q-103 -9 -133 -33q-29 -26 -29 -111v-71h162v-142h-162v-762q0 -85 31 -110q30 -24 131 -33v-86h-686v86q101 9 131 33q31 25 31 110v449h-533v-449q0 -85 31 -110q30 -24 131 -33v-86h-686v86q101 9 131 33q31 25 31 110v762h-162v142h162v71
q0 86 -31 111q-27 24 -131 33v86h686v-86q-103 -9 -133 -33q-29 -26 -29 -111v-71h533v71q0 86 -31 111q-27 24 -131 33v86h686zM559 817h533v174h-533v-174z" />
    <glyph glyph-name="hbar" unicode="&#x127;" horiz-adv-x="1251" 
d="M1098 655v-479q0 -47 22.5 -64.5t91.5 -25.5v-86h-542v86q69 8 91.5 25.5t22.5 64.5v488q0 137 -133 137q-95 0 -184 -62v-563q0 -47 23 -64.5t92 -25.5v-86h-543v86q69 8 92 25.5t23 64.5v856h-115v92h115v27q0 61 -52 61h-63v80l313 172h115v-340h264v-92h-264v-158
q151 101 307 101q324 0 324 -320z" />
    <glyph glyph-name="Itilde" unicode="&#x128;" horiz-adv-x="768" 
d="M606 1853h94q-6 -126 -59 -186.5t-133 -60.5q-66 0 -152 53q-70 43 -108 43q-28 0 -50.5 -21.5t-29.5 -60.5h-98q6 128 58 189t132 61q62 0 156 -55q77 -41 108 -41q67 0 82 79zM727 0h-686v86q101 9 131 33q31 25 31 110v975q0 86 -31 111q-27 24 -131 33v86h686v-86
q-103 -9 -133 -33q-29 -26 -29 -111v-975q0 -85 31 -110q30 -24 131 -33v-86z" />
    <glyph glyph-name="itilde" unicode="&#x129;" horiz-adv-x="620" 
d="M532 1364h95q-6 -126 -59.5 -187t-133.5 -61q-65 0 -151 53q-70 43 -109 43q-28 0 -50.5 -21.5t-29.5 -60.5h-98q6 128 58 189t132 61q62 0 156 -55q77 -41 109 -41q66 0 81 80zM582 0h-543v86q69 8 92 25.5t23 64.5v486q0 61 -52 61h-63v80l313 172h115v-799
q0 -47 23 -64.5t92 -25.5v-86z" />
    <glyph glyph-name="Imacron" unicode="&#x12a;" horiz-adv-x="768" 
d="M92 1651v145h590v-145h-590zM727 0h-686v86q101 9 131 33q31 25 31 110v975q0 86 -31 111q-27 24 -131 33v86h686v-86q-103 -9 -133 -33q-29 -26 -29 -111v-975q0 -85 31 -110q30 -24 131 -33v-86z" />
    <glyph glyph-name="imacron" unicode="&#x12b;" horiz-adv-x="620" 
d="M18 1161v146h590v-146h-590zM582 0h-543v86q69 8 92 25.5t23 64.5v486q0 61 -52 61h-63v80l313 172h115v-799q0 -47 23 -64.5t92 -25.5v-86z" />
    <glyph glyph-name="Ibreve" unicode="&#x12c;" horiz-adv-x="768" 
d="M596 1855h104q-18 -110 -101.5 -179.5t-213.5 -69.5t-213.5 69.5t-101.5 179.5h108q27 -88 207 -88q184 0 211 88zM727 0h-686v86q101 9 131 33q31 25 31 110v975q0 86 -31 111q-27 24 -131 33v86h686v-86q-103 -9 -133 -33q-29 -26 -29 -111v-975q0 -85 31 -110
q30 -24 131 -33v-86z" />
    <glyph glyph-name="ibreve" unicode="&#x12d;" horiz-adv-x="620" 
d="M522 1366h105q-18 -110 -102 -180t-214 -70q-129 0 -213 70t-102 180h108q27 -88 207 -88q184 0 211 88zM582 0h-543v86q69 8 92 25.5t23 64.5v486q0 61 -52 61h-63v80l313 172h115v-799q0 -47 23 -64.5t92 -25.5v-86z" />
    <glyph glyph-name="Iogonek" unicode="&#x12e;" horiz-adv-x="768" 
d="M727 1434v-86q-103 -9 -133 -33q-29 -26 -29 -111v-975q0 -85 31 -110q30 -24 131 -33v-86h-225q-119 -79 -119 -197q0 -41 27.5 -69.5t66.5 -28.5q74 0 117 76l86 -45q-90 -158 -258 -158q-110 0 -174 51t-64 138q0 147 170 233h-313v86q101 9 131 33q31 25 31 110v975
q0 86 -31 111q-27 24 -131 33v86h686z" />
    <glyph glyph-name="iogonek" unicode="&#x12f;" horiz-adv-x="620" 
d="M317 1104q-82 0 -132 49t-50 119q0 72 50 122t132 50q80 0 131.5 -51t51.5 -121q0 -69 -51.5 -118.5t-131.5 -49.5zM582 0h-185q-118 -78 -118 -197q0 -41 27.5 -69.5t66.5 -28.5q73 0 116 76l86 -45q-90 -158 -258 -158q-110 0 -173.5 51t-63.5 138q0 147 170 233h-211
v86q69 8 92 25.5t23 64.5v486q0 61 -52 61h-63v80l313 172h115v-799q0 -47 23 -64.5t92 -25.5v-86z" />
    <glyph glyph-name="Idot" unicode="&#x130;" horiz-adv-x="768" 
d="M385 1888q66 0 108 -42t42 -101q0 -56 -42 -96.5t-108 -40.5t-107.5 40t-41.5 97q0 59 41 101t108 42zM727 0h-686v86q101 9 131 33q31 25 31 110v975q0 86 -31 111q-27 24 -131 33v86h686v-86q-103 -9 -133 -33q-29 -26 -29 -111v-975q0 -85 31 -110q30 -24 131 -33v-86
z" />
    <glyph glyph-name="dotlessi" unicode="&#x131;" horiz-adv-x="620" 
d="M582 0h-543v86q69 8 92 25.5t23 64.5v486q0 61 -52 61h-63v80l313 172h115v-799q0 -47 23 -64.5t92 -25.5v-86z" />
    <glyph glyph-name="IJ" unicode="&#x132;" horiz-adv-x="1523" 
d="M727 0h-686v86q101 9 131 33q31 25 31 110v975q0 86 -31 111q-27 24 -131 33v86h686v-86q-103 -9 -133 -33q-29 -26 -29 -111v-975q0 -85 31 -110q30 -24 131 -33v-86zM1333 1204v-1126q0 -275 -149 -406q-147 -135 -373 -135q-161 0 -246.5 60t-85.5 157q0 67 44 110.5
t110 43.5q52 0 86.5 -20.5t51 -50t28.5 -59.5t28.5 -50.5t40.5 -20.5q55 0 79 67t24 216v1214q0 86 -31 111q-27 24 -131 33v86h686v-86q-103 -9 -133 -33q-29 -26 -29 -111z" />
    <glyph glyph-name="ij" unicode="&#x133;" horiz-adv-x="1220" 
d="M317 1444q80 0 131.5 -51t51.5 -121q0 -69 -51.5 -118.5t-131.5 -49.5q-82 0 -132 49t-50 119q0 72 50 122t132 50zM938 1444q79 0 130.5 -51t51.5 -121q0 -69 -51 -118.5t-131 -49.5q-82 0 -132 49t-50 119q0 72 50 122t132 50zM582 0h-543v86q69 8 92 25.5t23 64.5v486
q0 61 -52 61h-63v80l313 172h115v-799q0 -47 23 -64.5t92 -25.5v-86zM354 -223q0 54 44.5 95.5t101.5 41.5q39 0 68 -18t45 -43.5t29 -51t27 -43.5t31 -18q35 0 54.5 31.5t19.5 85.5v805q0 61 -51 61h-64v80l314 172h114v-897q0 -232 -139 -359t-342 -127q-118 0 -185 48
t-67 137z" />
    <glyph glyph-name="Jcircumflex" unicode="&#x134;" horiz-adv-x="755" 
d="M51 1518l211 319q35 47 78 47h90q49 0 76 -47l211 -319h-121l-211 184l-213 -184h-121zM565 1204v-1126q0 -275 -149 -406q-147 -135 -373 -135q-161 0 -246.5 60t-85.5 157q0 67 44 110.5t110 43.5q52 0 86.5 -20.5t51 -50t28.5 -59.5t28.5 -50.5t40.5 -20.5q55 0 79 67
t24 216v1214q0 86 -31 111q-27 24 -131 33v86h686v-86q-103 -9 -133 -33q-29 -26 -29 -111z" />
    <glyph glyph-name="jcircumflex" unicode="&#x135;" horiz-adv-x="600" 
d="M-20 1028l210 320q35 47 78 47h90q49 0 76 -47l211 -320h-121l-211 184l-213 -184h-120zM-266 -223q0 54 44 95.5t101 41.5q39 0 68 -18t45.5 -43.5t29 -51t27 -43.5t31.5 -18q35 0 54.5 31.5t19.5 85.5v805q0 61 -52 61h-63v80l313 172h115v-897q0 -232 -139 -359
t-342 -127q-118 0 -185 48t-67 137z" />
    <glyph glyph-name="Kcommaaccent" unicode="&#x136;" horiz-adv-x="1566" 
d="M727 0h-686v86q101 9 131 33q31 25 31 110v975q0 86 -31 111q-27 24 -131 33v86h686v-86q-103 -9 -133 -33q-29 -26 -29 -111v-420l418 390q47 38 58.5 76t-20.5 65.5t-106 32.5v86h562v-86q-72 -9 -119 -33q-38 -20 -133 -105l-312 -286l500 -713q75 -110 172 -125v-86
h-686v86q89 8 106 35.5t-28 105.5l-324 453l-88 -80v-371q0 -85 31 -110q30 -24 131 -33v-86zM817 -526l-51 41q30 55 49 108q-92 -4 -129.5 68.5t-0.5 145t126 67.5q66 0 105.5 -43.5t39.5 -112.5q0 -64 -40.5 -140t-98.5 -134z" />
    <glyph glyph-name="kcommaaccent" unicode="&#x137;" horiz-adv-x="1220" 
d="M582 0h-543v86q69 8 92 25.5t23 64.5v975q0 61 -52 61h-63v80l313 172h115v-954l188 184q46 40 57.5 75.5t-17 59.5t-95.5 29v86h533v-86q-77 -9 -123 -33q-43 -22 -123 -96l-86 -82l297 -436q49 -68 79.5 -92.5t75.5 -32.5v-86h-596v86q72 7 92 42.5t-16 82.5l-158 221
l-108 -102v-154q0 -47 23 -64.5t92 -25.5v-86zM625 -526l-52 41q33 60 50 108q-92 -4 -130 68.5t-1 145t126 67.5q66 0 106 -43.5t40 -112.5q0 -64 -40.5 -140t-98.5 -134z" />
    <glyph glyph-name="kgreenlandic" unicode="&#x138;" horiz-adv-x="1220" 
d="M582 0h-543v86q69 8 92 25.5t23 64.5v486q0 61 -52 61h-63v80l313 172h115v-465l188 184q46 40 57.5 75.5t-17 59.5t-95.5 29v86h533v-86q-77 -9 -123 -33q-43 -22 -123 -96l-86 -82l297 -436q49 -68 79.5 -92.5t75.5 -32.5v-86h-596v86q72 7 92 42.5t-16 82.5l-158 221
l-108 -102v-154q0 -47 23 -64.5t92 -25.5v-86z" />
    <glyph glyph-name="Lacute" unicode="&#x139;" horiz-adv-x="1306" 
d="M303 1522l170 317q21 43 70 43h172q41 0 41 -41q0 -26 -60 -80l-272 -239h-121zM627 139h61q138 0 287 90q140 84 254 230l71 -43l-198 -416h-1061v86q101 9 131 33q31 25 31 110v975q0 86 -31 111q-27 24 -131 33v86h686v-86q-103 -9 -133 -33q-29 -26 -29 -111v-1003
q0 -29 16.5 -45.5t45.5 -16.5z" />
    <glyph glyph-name="lacute" unicode="&#x13a;" horiz-adv-x="620" 
d="M221 1522l170 317q21 43 70 43h172q41 0 41 -41q0 -26 -60 -80l-272 -239h-121zM582 0h-543v86q69 8 92 25.5t23 64.5v975q0 61 -52 61h-63v80l313 172h115v-1288q0 -47 23 -64.5t92 -25.5v-86z" />
    <glyph glyph-name="Lcommaaccent" unicode="&#x13b;" horiz-adv-x="1306" 
d="M627 139h61q138 0 287 90q140 84 254 230l71 -43l-198 -416h-1061v86q101 9 131 33q31 25 31 110v975q0 86 -31 111q-27 24 -131 33v86h686v-86q-103 -9 -133 -33q-29 -26 -29 -111v-1003q0 -29 16.5 -45.5t45.5 -16.5zM655 -526l-51 41q30 55 49 108q-92 -4 -129.5 68.5
t-0.5 145t126 67.5q66 0 106 -43.5t40 -112.5q0 -64 -41 -140t-99 -134z" />
    <glyph glyph-name="lcommaaccent" unicode="&#x13c;" horiz-adv-x="620" 
d="M582 0h-543v86q69 8 92 25.5t23 64.5v975q0 61 -52 61h-63v80l313 172h115v-1288q0 -47 23 -64.5t92 -25.5v-86zM313 -526l-51 41q30 55 49 108q-92 -4 -129.5 68.5t-0.5 145t126 67.5q66 0 106 -43.5t40 -112.5q0 -64 -41 -140t-99 -134z" />
    <glyph glyph-name="Lcaron" unicode="&#x13d;" horiz-adv-x="1306" 
d="M985 1456q91 0 145 -59.5t54 -153.5q0 -105 -82 -242q-78 -136 -178 -231l-66 55q96 121 133 250q-91 0 -145.5 55t-54.5 136t53 135.5t141 54.5zM627 139h61q138 0 287 90q140 84 254 230l71 -43l-198 -416h-1061v86q101 9 131 33q31 25 31 110v975q0 86 -31 111
q-27 24 -131 33v86h686v-86q-103 -9 -133 -33q-29 -26 -29 -111v-1003q0 -29 16.5 -45.5t45.5 -16.5z" />
    <glyph glyph-name="lcaron" unicode="&#x13e;" horiz-adv-x="813" 
d="M662 1481q66 0 104.5 -42.5t38.5 -111.5q0 -70 -60 -172t-127 -166l-47 39q73 94 95 180q-89 -4 -125 66t0 140t121 67zM582 0h-543v86q69 8 92 25.5t23 64.5v975q0 61 -52 61h-63v80l313 172h115v-1288q0 -47 23 -64.5t92 -25.5v-86z" />
    <glyph glyph-name="Ldot" unicode="&#x13f;" horiz-adv-x="1306" 
d="M627 139h61q138 0 287 90q140 84 254 230l71 -43l-198 -416h-1061v86q101 9 131 33q31 25 31 110v975q0 86 -31 111q-27 24 -131 33v86h686v-86q-103 -9 -133 -33q-29 -26 -29 -111v-1003q0 -29 16.5 -45.5t45.5 -16.5zM866 885q51 57 144 57q92 0 143 -57
q55 -55 55 -133.5t-55 -135.5q-52 -55 -143 -55q-92 0 -144 55q-51 57 -51 135.5t51 133.5z" />
    <glyph glyph-name="ldot" unicode="&#x140;" horiz-adv-x="905" 
d="M582 0h-543v86q69 8 92 25.5t23 64.5v975q0 61 -52 61h-63v80l313 172h115v-1288q0 -47 23 -64.5t92 -25.5v-86zM616 610q52 58 144 58q91 0 143 -58q55 -56 55 -133.5t-55 -134.5q-52 -55 -143 -55q-92 0 -144 55q-51 57 -51 134.5t51 133.5z" />
    <glyph glyph-name="Lslash" unicode="&#x141;" horiz-adv-x="1306" 
d="M1229 459l71 -43l-198 -416h-1061v86q101 9 131 33q31 25 31 110v314l-162 -94v143l162 94v518q0 86 -31 111q-27 24 -131 33v86h686v-86q-103 -9 -133 -33q-29 -26 -29 -111v-311l162 94v-143l-162 -94v-549q0 -29 16.5 -45.5t45.5 -16.5h61q138 0 287 90
q140 84 254 230z" />
    <glyph glyph-name="lslash" unicode="&#x142;" horiz-adv-x="620" 
d="M582 698v-141l-115 -65v-316q0 -47 23 -64.5t92 -25.5v-86h-543v86q69 8 92 25.5t23 64.5v135l-115 -65v141l115 66v698q0 61 -52 61h-63v80l313 172h115v-831z" />
    <glyph glyph-name="Nacute" unicode="&#x143;" horiz-adv-x="1486" 
d="M657 1522l170 317q21 43 70 43h172q41 0 41 -41q0 -27 -59 -80l-273 -239h-121zM524 0h-483v86q101 9 131 33q31 25 31 110v975q0 86 -31 111q-27 24 -131 33v86h555l545 -852v622q0 86 -31 111q-27 24 -131 33v86h479v-86q-104 -9 -131 -33q-29 -26 -29 -111v-1204h-219
l-719 1128v-899q0 -85 31 -110q30 -24 133 -33v-86z" />
    <glyph glyph-name="nacute" unicode="&#x144;" horiz-adv-x="1251" 
d="M537 1032l170 318q21 43 69 43h172q41 0 41 -41q0 -27 -59 -80l-273 -240h-120zM1212 0h-542v86q69 8 91.5 25.5t22.5 64.5v488q0 137 -133 137q-95 0 -184 -62v-563q0 -47 23 -64.5t92 -25.5v-86h-543v86q69 8 92 25.5t23 64.5v486q0 61 -52 61h-63v80l313 172h115v-101
q151 101 307 101q324 0 324 -320v-479q0 -47 22.5 -64.5t91.5 -25.5v-86z" />
    <glyph glyph-name="Ncommaaccent" unicode="&#x145;" horiz-adv-x="1486" 
d="M524 0h-483v86q101 9 131 33q31 25 31 110v975q0 86 -31 111q-27 24 -131 33v86h555l545 -852v622q0 86 -31 111q-27 24 -131 33v86h479v-86q-104 -9 -131 -33q-29 -26 -29 -111v-1204h-219l-719 1128v-899q0 -85 31 -110q30 -24 133 -33v-86zM750 -526l-52 41
q33 60 50 108q-92 -4 -130 68.5t-1 145t126 67.5q66 0 106 -43.5t40 -112.5q0 -64 -40.5 -140t-98.5 -134z" />
    <glyph glyph-name="ncommaaccent" unicode="&#x146;" horiz-adv-x="1251" 
d="M1212 0h-542v86q69 8 91.5 25.5t22.5 64.5v488q0 137 -133 137q-95 0 -184 -62v-563q0 -47 23 -64.5t92 -25.5v-86h-543v86q69 8 92 25.5t23 64.5v486q0 61 -52 61h-63v80l313 172h115v-101q151 101 307 101q324 0 324 -320v-479q0 -47 22.5 -64.5t91.5 -25.5v-86z
M629 -526l-51 41q30 55 49 108q-92 -4 -129.5 68.5t-0.5 145t126 67.5q66 0 105.5 -43.5t39.5 -112.5q0 -64 -40.5 -140t-98.5 -134z" />
    <glyph glyph-name="Ncaron" unicode="&#x147;" horiz-adv-x="1486" 
d="M623 1565l-211 319h120l213 -184l211 184h121l-211 -319q-30 -47 -75 -47h-91q-42 0 -77 47zM524 0h-483v86q101 9 131 33q31 25 31 110v975q0 86 -31 111q-27 24 -131 33v86h555l545 -852v622q0 86 -31 111q-27 24 -131 33v86h479v-86q-104 -9 -131 -33
q-29 -26 -29 -111v-1204h-219l-719 1128v-899q0 -85 31 -110q30 -24 133 -33v-86z" />
    <glyph glyph-name="ncaron" unicode="&#x148;" horiz-adv-x="1251" 
d="M502 1075l-211 320h121l213 -185l211 185h120l-211 -320q-30 -47 -75 -47h-90q-43 0 -78 47zM1212 0h-542v86q69 8 91.5 25.5t22.5 64.5v488q0 137 -133 137q-95 0 -184 -62v-563q0 -47 23 -64.5t92 -25.5v-86h-543v86q69 8 92 25.5t23 64.5v486q0 61 -52 61h-63v80
l313 172h115v-101q151 101 307 101q324 0 324 -320v-479q0 -47 22.5 -64.5t91.5 -25.5v-86z" />
    <glyph glyph-name="napostrophe" unicode="&#x149;" horiz-adv-x="1251" 
d="M1212 0h-542v86q69 8 91.5 25.5t22.5 64.5v488q0 137 -133 137q-95 0 -184 -62v-563q0 -47 23 -64.5t92 -25.5v-86h-543v86q69 8 92 25.5t23 64.5v486q0 61 -52 61h-63v80l313 172h115v-101q151 101 307 101q324 0 324 -320v-479q0 -47 22.5 -64.5t91.5 -25.5v-86z
M629 -526l-51 41q30 55 49 108q-92 -4 -129.5 68.5t-0.5 145t126 67.5q66 0 105.5 -43.5t39.5 -112.5q0 -64 -40.5 -140t-98.5 -134z" />
    <glyph glyph-name="Eng" unicode="&#x14a;" horiz-adv-x="1486" 
d="M979 1348v86h479v-86q-104 -9 -131 -33q-29 -26 -29 -111v-1202q0 -224 -80 -333t-266 -109q-143 0 -223 60.5t-80 156.5q0 67 44 110t110 43q59 0 98.5 -29.5t52.5 -70.5q33 -100 84 -100q90 0 99 178l-777 1220v-899q0 -85 31 -110q30 -24 133 -33v-86h-483v86
q101 9 131 33q31 25 31 110v975q0 86 -31 111q-27 24 -131 33v86h555l545 -852v622q0 86 -31 111q-27 24 -131 33z" />
    <glyph glyph-name="eng" unicode="&#x14b;" horiz-adv-x="1230" 
d="M367 -223q0 54 44 95.5t101 41.5q38 0 66.5 -18t45 -43.5t29.5 -51t27 -43.5t31 -18q35 0 54 31t19 86v807q0 137 -133 137q-95 0 -184 -62v-563q0 -47 23 -64.5t92 -25.5v-86h-543v86q69 8 92 25.5t23 64.5v486q0 61 -52 61h-63v80l313 172h115v-101q151 101 307 101
q324 0 324 -320v-577q0 -234 -137 -359q-139 -127 -345 -127q-115 0 -182 48t-67 137z" />
    <glyph glyph-name="Omacron" unicode="&#x14c;" horiz-adv-x="1617" 
d="M516 1651v145h590v-145h-590zM262 1262q199 202 547 202q349 0 545 -202q198 -201 198 -545t-198 -545q-197 -203 -545 -203q-347 0 -547 203q-199 202 -199 545t199 545zM635 147q68 -45 174 -45q104 0 172 45q126 78 166 322q16 115 16 248t-16 248q-40 246 -166 323
q-68 45 -172 45q-106 0 -174 -45q-123 -79 -166 -323q-16 -115 -16 -248t16 -248q43 -243 166 -322z" />
    <glyph glyph-name="omacron" unicode="&#x14d;" horiz-adv-x="1167" 
d="M291 1161v146h590v-146h-590zM1116 473q0 -222 -145 -364q-146 -140 -387 -140t-387 140q-146 143 -146 364t146 361q144 141 387 141t387 -141q145 -139 145 -361zM422 186q49 -94 162 -94t159 94q50 95 50 287q0 187 -48 285q-46 94 -161 94q-116 0 -162 -94
q-47 -96 -47 -285q0 -191 47 -287z" />
    <glyph glyph-name="Obreve" unicode="&#x14e;" horiz-adv-x="1617" 
d="M1020 1855h104q-18 -110 -101.5 -179.5t-213.5 -69.5t-213.5 69.5t-101.5 179.5h108q27 -88 207 -88q184 0 211 88zM262 1262q199 202 547 202q349 0 545 -202q198 -201 198 -545t-198 -545q-197 -203 -545 -203q-347 0 -547 203q-199 202 -199 545t199 545zM635 147
q68 -45 174 -45q104 0 172 45q126 78 166 322q16 115 16 248t-16 248q-40 246 -166 323q-68 45 -172 45q-106 0 -174 -45q-123 -79 -166 -323q-16 -115 -16 -248t16 -248q43 -243 166 -322z" />
    <glyph glyph-name="obreve" unicode="&#x14f;" horiz-adv-x="1167" 
d="M795 1366h104q-18 -110 -102 -180t-213 -70q-130 0 -214 70t-102 180h109q27 -88 207 -88q184 0 211 88zM1116 473q0 -222 -145 -364q-146 -140 -387 -140t-387 140q-146 143 -146 364t146 361q144 141 387 141t387 -141q145 -139 145 -361zM422 186q49 -94 162 -94
t159 94q50 95 50 287q0 187 -48 285q-46 94 -161 94q-116 0 -162 -94q-47 -96 -47 -285q0 -191 47 -287z" />
    <glyph glyph-name="Ohungarumlaut" unicode="&#x150;" horiz-adv-x="1617" 
d="M592 1522l78 305q12 55 69 55h140q21 0 35 -11.5t14 -29.5q0 -28 -43 -80l-185 -239h-108zM926 1522l86 307q7 30 22.5 41.5t48.5 11.5h129q21 0 35.5 -11.5t14.5 -29.5q0 -28 -43 -80l-185 -239h-108zM262 1262q199 202 547 202q349 0 545 -202q198 -201 198 -545
t-198 -545q-197 -203 -545 -203q-347 0 -547 203q-199 202 -199 545t199 545zM635 147q68 -45 174 -45q104 0 172 45q126 78 166 322q16 115 16 248t-16 248q-40 246 -166 323q-68 45 -172 45q-106 0 -174 -45q-123 -79 -166 -323q-16 -115 -16 -248t16 -248
q43 -243 166 -322z" />
    <glyph glyph-name="ohungarumlaut" unicode="&#x151;" horiz-adv-x="1167" 
d="M367 1032l77 305q12 56 70 56h139q21 0 35 -11.5t14 -29.5q0 -28 -43 -80l-184 -240h-108zM700 1032l86 307q7 30 23 42t49 12h129q21 0 35 -11.5t14 -29.5q0 -28 -43 -80l-184 -240h-109zM1116 473q0 -222 -145 -364q-146 -140 -387 -140t-387 140q-146 143 -146 364
t146 361q144 141 387 141t387 -141q145 -139 145 -361zM422 186q49 -94 162 -94t159 94q50 95 50 287q0 187 -48 285q-46 94 -161 94q-116 0 -162 -94q-47 -96 -47 -285q0 -191 47 -287z" />
    <glyph glyph-name="OE" unicode="&#x152;" horiz-adv-x="2330" 
d="M1536 139h109q179 0 336.5 86t271.5 234l74 -43l-199 -416h-1038q-146 -31 -269 -31q-356 0 -557 201q-201 204 -201 547q0 344 201 545q199 202 557 202q140 0 269 -30h1032l119 -371l-74 -33q-100 140 -226.5 202t-316.5 62h-88q-61 0 -61 -61v-416h241q98 0 133.5 41
t40.5 135h97v-491h-97q-5 94 -40.5 135t-133.5 41h-241v-477q0 -29 16 -45.5t45 -16.5zM821 102q177 0 249.5 101.5t72.5 308.5v436q0 194 -73 289.5t-249 95.5q-138 0 -225 -84q-81 -78 -112 -204t-31 -328q0 -306 85.5 -460.5t282.5 -154.5z" />
    <glyph glyph-name="oe" unicode="&#x153;" horiz-adv-x="1800" 
d="M1755 526h-639v-49q0 -191 60 -281t194 -90q88 0 167.5 60t133.5 168l113 -64q-147 -301 -453 -301q-253 0 -379 164q-129 -164 -368 -164q-236 0 -385 140q-148 139 -148 364q0 221 146 361q144 141 387 141q236 0 368 -164q123 164 344 164q217 0 338 -118t121 -331z
M422 186q49 -94 162 -94t159 94q50 95 50 287q0 187 -48 285q-46 94 -161 94q-116 0 -162 -94q-47 -96 -47 -285q0 -191 47 -287zM1124 657h332q0 90 -41.5 142.5t-111.5 52.5q-81 0 -123 -47t-56 -148z" />
    <glyph glyph-name="Racute" unicode="&#x154;" horiz-adv-x="1538" 
d="M709 1522l170 317q21 43 69 43h172q41 0 41 -41q0 -27 -59 -80l-273 -239h-120zM1047 688l313 -477q42 -64 83 -91t109 -34v-86h-454l-426 666h-107v-437q0 -85 31 -110q30 -24 131 -33v-86h-686v86q101 9 131 33q31 25 31 110v975q0 88 -29 111q-27 24 -133 33v86h707
q349 0 511 -86.5t162 -292.5q0 -309 -374 -367zM748 1294h-121q-29 0 -45.5 -16t-16.5 -45v-428h176q146 0 218.5 59t72.5 191q0 131 -68.5 185t-215.5 54z" />
    <glyph glyph-name="racute" unicode="&#x155;" horiz-adv-x="913" 
d="M381 1032l170 318q21 43 70 43h172q41 0 41 -41q0 -26 -60 -80l-272 -240h-121zM758 649q-31 0 -56.5 11t-42 26.5t-30 31.5t-28 27t-28.5 11q-63 0 -106 -58v-522q0 -47 23 -64.5t92 -25.5v-86h-543v86q69 8 92 25.5t23 64.5v486q0 61 -52 61h-63v80l313 172h115v-121
q109 121 252 121q84 0 132 -44t48 -120q0 -72 -40 -117t-101 -45z" />
    <glyph glyph-name="Rcommaaccent" unicode="&#x156;" horiz-adv-x="1538" 
d="M1047 688l313 -477q42 -64 83 -91t109 -34v-86h-454l-426 666h-107v-437q0 -85 31 -110q30 -24 131 -33v-86h-686v86q101 9 131 33q31 25 31 110v975q0 88 -29 111q-27 24 -133 33v86h707q349 0 511 -86.5t162 -292.5q0 -309 -374 -367zM748 1294h-121q-29 0 -45.5 -16
t-16.5 -45v-428h176q146 0 218.5 59t72.5 191q0 131 -68.5 185t-215.5 54zM801 -526l-51 41q30 55 49 108q-92 -4 -129.5 68.5t-0.5 145t126 67.5q66 0 105.5 -43.5t39.5 -112.5q0 -64 -40.5 -140t-98.5 -134z" />
    <glyph glyph-name="rcommaaccent" unicode="&#x157;" horiz-adv-x="913" 
d="M758 649q-31 0 -56.5 11t-42 26.5t-30 31.5t-28 27t-28.5 11q-63 0 -106 -58v-522q0 -47 23 -64.5t92 -25.5v-86h-543v86q69 8 92 25.5t23 64.5v486q0 61 -52 61h-63v80l313 172h115v-121q109 121 252 121q84 0 132 -44t48 -120q0 -72 -40 -117t-101 -45zM313 -526
l-51 41q30 55 49 108q-92 -4 -129.5 68.5t-0.5 145t126 67.5q66 0 106 -43.5t40 -112.5q0 -64 -41 -140t-99 -134z" />
    <glyph glyph-name="Rcaron" unicode="&#x158;" horiz-adv-x="1538" 
d="M674 1565l-211 319h121l213 -184l211 184h120l-210 -319q-30 -47 -76 -47h-90q-43 0 -78 47zM1047 688l313 -477q42 -64 83 -91t109 -34v-86h-454l-426 666h-107v-437q0 -85 31 -110q30 -24 131 -33v-86h-686v86q101 9 131 33q31 25 31 110v975q0 88 -29 111
q-27 24 -133 33v86h707q349 0 511 -86.5t162 -292.5q0 -309 -374 -367zM748 1294h-121q-29 0 -45.5 -16t-16.5 -45v-428h176q146 0 218.5 59t72.5 191q0 131 -68.5 185t-215.5 54z" />
    <glyph glyph-name="rcaron" unicode="&#x159;" horiz-adv-x="913" 
d="M346 1075l-211 320h121l213 -185l211 185h121l-211 -320q-30 -47 -76 -47h-90q-43 0 -78 47zM758 649q-31 0 -56.5 11t-42 26.5t-30 31.5t-28 27t-28.5 11q-63 0 -106 -58v-522q0 -47 23 -64.5t92 -25.5v-86h-543v86q69 8 92 25.5t23 64.5v486q0 61 -52 61h-63v80
l313 172h115v-121q109 121 252 121q84 0 132 -44t48 -120q0 -72 -40 -117t-101 -45z" />
    <glyph glyph-name="Sacute" unicode="&#x15a;" horiz-adv-x="1374" 
d="M602 1522l170 317q21 43 70 43h172q41 0 41 -41q0 -26 -60 -80l-272 -239h-121zM803 909q83 -24 145 -45q59 -17 131 -55q85 -43 121 -82q47 -47 78 -119t31 -157q0 -220 -174 -351q-171 -131 -433 -131q-237 0 -411 97l-31 -66h-98l-111 463l80 22q78 -165 225 -276
q148 -109 328 -109q117 0 195.5 60.5t78.5 148.5q0 85 -67 148q-30 27 -84 49q-59 29 -94 39q-41 15 -117 39q-54 16 -143 47q-55 19 -127 57q-76 40 -117 84q-45 47 -75 118.5t-30 153.5q0 196 154 308q150 112 377 112q232 0 383 -92l29 62h98l100 -414l-76 -21
q-73 157 -204 245.5t-297 88.5q-105 0 -166.5 -50t-61.5 -132q0 -67 64 -127q30 -23 82 -43q68 -28 217 -72z" />
    <glyph glyph-name="sacute" unicode="&#x15b;" horiz-adv-x="995" 
d="M410 1032l170 318q21 43 69 43h172q41 0 41 -41q0 -27 -59 -80l-273 -240h-120zM584 627q78 -24 141 -49q52 -21 113 -58q118 -71 118 -213q0 -159 -120 -248q-122 -90 -304 -90q-85 0 -174.5 25.5t-142.5 62.5l-25 -57h-77l-74 336l70 18q76 -125 188 -194.5t225 -69.5
q67 0 107.5 29t40.5 82q0 38 -35 65q-21 20 -49 34.5t-52 22t-90 27.5q-117 36 -170 61l-30 15q-82 39 -124 97.5t-48 148.5q0 132 114 217q115 86 281 86q156 0 278 -84l25 53h76l61 -299l-76 -22q-62 110 -152.5 173.5t-178.5 63.5q-59 0 -91 -25t-32 -69q0 -33 31 -61
q30 -26 66 -41.5t110 -36.5z" />
    <glyph glyph-name="Scircumflex" unicode="&#x15c;" horiz-adv-x="1374" 
d="M356 1518l211 319q35 47 78 47h90q49 0 76 -47l211 -319h-121l-211 184l-213 -184h-121zM803 909q83 -24 145 -45q59 -17 131 -55q85 -43 121 -82q47 -47 78 -119t31 -157q0 -220 -174 -351q-171 -131 -433 -131q-237 0 -411 97l-31 -66h-98l-111 463l80 22
q78 -165 225 -276q148 -109 328 -109q117 0 195.5 60.5t78.5 148.5q0 85 -67 148q-30 27 -84 49q-59 29 -94 39q-41 15 -117 39q-54 16 -143 47q-55 19 -127 57q-76 40 -117 84q-45 47 -75 118.5t-30 153.5q0 196 154 308q150 112 377 112q232 0 383 -92l29 62h98l100 -414
l-76 -21q-73 157 -204 245.5t-297 88.5q-105 0 -166.5 -50t-61.5 -132q0 -67 64 -127q30 -23 82 -43q68 -28 217 -72z" />
    <glyph glyph-name="scircumflex" unicode="&#x15d;" horiz-adv-x="995" 
d="M164 1028l211 320q35 47 78 47h90q48 0 75 -47l211 -320h-120l-211 184l-213 -184h-121zM584 627q78 -24 141 -49q52 -21 113 -58q118 -71 118 -213q0 -159 -120 -248q-122 -90 -304 -90q-85 0 -174.5 25.5t-142.5 62.5l-25 -57h-77l-74 336l70 18q76 -125 188 -194.5
t225 -69.5q67 0 107.5 29t40.5 82q0 38 -35 65q-21 20 -49 34.5t-52 22t-90 27.5q-117 36 -170 61l-30 15q-82 39 -124 97.5t-48 148.5q0 132 114 217q115 86 281 86q156 0 278 -84l25 53h76l61 -299l-76 -22q-62 110 -152.5 173.5t-178.5 63.5q-59 0 -91 -25t-32 -69
q0 -33 31 -61q30 -26 66 -41.5t110 -36.5z" />
    <glyph glyph-name="Scedilla" unicode="&#x15e;" horiz-adv-x="1374" 
d="M1309 451q0 -202 -156 -334q-156 -131 -389 -146l-45 -98q27 10 49 10q68 0 111 -35t43 -94q0 -88 -84 -150.5t-211 -62.5q-102 0 -171 42.5t-69 103.5q0 31 21 53t51 22q52 0 86 -63q35 -68 98 -68q48 0 77.5 25.5t29.5 67.5q0 26 -19.5 42.5t-48.5 16.5q-34 0 -64 -23
l-63 29l80 182q-199 12 -344 95l-31 -66h-98l-111 463l80 22q78 -165 225 -276q148 -109 328 -109q117 0 195.5 60.5t78.5 148.5q0 85 -67 148q-30 27 -84 49q-59 29 -94 39q-41 15 -117 39q-54 16 -143 47q-55 19 -127 57q-76 40 -117 84q-45 47 -75 118.5t-30 153.5
q0 196 154 308q150 112 377 112q232 0 383 -92l29 62h98l100 -414l-76 -21q-73 157 -204 245.5t-297 88.5q-105 0 -166.5 -50t-61.5 -132q0 -67 64 -127q30 -23 82 -43q68 -28 217 -72q83 -24 145 -45q59 -17 131 -55q85 -43 121 -82q47 -47 78 -119t31 -157z" />
    <glyph glyph-name="scedilla" unicode="&#x15f;" horiz-adv-x="995" 
d="M956 307q0 -146 -106 -235.5t-281 -100.5l-43 -98q27 10 49 10q68 0 111 -35t43 -94q0 -88 -84 -150.5t-211 -62.5q-102 0 -170.5 42.5t-68.5 103.5q0 31 20.5 53t50.5 22q52 0 86 -63q35 -68 99 -68q48 0 77 25.5t29 67.5q0 26 -19.5 42.5t-48.5 16.5q-33 0 -63 -23
l-64 29l82 186q-138 21 -229 82l-25 -57h-77l-74 336l70 18q76 -125 188 -194.5t225 -69.5q67 0 107.5 29t40.5 82q0 38 -35 65q-21 20 -49 34.5t-52 22t-90 27.5q-117 36 -170 61l-30 15q-82 39 -124 97.5t-48 148.5q0 132 114 217q115 86 281 86q156 0 278 -84l25 53h76
l61 -299l-76 -22q-62 110 -152.5 173.5t-178.5 63.5q-59 0 -91 -25t-32 -69q0 -33 31 -61q30 -26 66 -41.5t110 -36.5q78 -24 141 -49q52 -21 113 -58q118 -71 118 -213z" />
    <glyph glyph-name="Scaron" unicode="&#x160;" horiz-adv-x="1374" 
d="M567 1565l-211 319h121l213 -184l211 184h121l-211 -319q-30 -47 -76 -47h-90q-43 0 -78 47zM803 909q83 -24 145 -45q59 -17 131 -55q85 -43 121 -82q47 -47 78 -119t31 -157q0 -220 -174 -351q-171 -131 -433 -131q-237 0 -411 97l-31 -66h-98l-111 463l80 22
q78 -165 225 -276q148 -109 328 -109q117 0 195.5 60.5t78.5 148.5q0 85 -67 148q-30 27 -84 49q-59 29 -94 39q-41 15 -117 39q-54 16 -143 47q-55 19 -127 57q-76 40 -117 84q-45 47 -75 118.5t-30 153.5q0 196 154 308q150 112 377 112q232 0 383 -92l29 62h98l100 -414
l-76 -21q-73 157 -204 245.5t-297 88.5q-105 0 -166.5 -50t-61.5 -132q0 -67 64 -127q30 -23 82 -43q68 -28 217 -72z" />
    <glyph glyph-name="scaron" unicode="&#x161;" horiz-adv-x="995" 
d="M375 1075l-211 320h121l213 -185l211 185h120l-211 -320q-30 -47 -75 -47h-90q-43 0 -78 47zM584 627q78 -24 141 -49q52 -21 113 -58q118 -71 118 -213q0 -159 -120 -248q-122 -90 -304 -90q-85 0 -174.5 25.5t-142.5 62.5l-25 -57h-77l-74 336l70 18
q76 -125 188 -194.5t225 -69.5q67 0 107.5 29t40.5 82q0 38 -35 65q-21 20 -49 34.5t-52 22t-90 27.5q-117 36 -170 61l-30 15q-82 39 -124 97.5t-48 148.5q0 132 114 217q115 86 281 86q156 0 278 -84l25 53h76l61 -299l-76 -22q-62 110 -152.5 173.5t-178.5 63.5
q-59 0 -91 -25t-32 -69q0 -33 31 -61q30 -26 66 -41.5t110 -36.5z" />
    <glyph glyph-name="uni0162" unicode="&#x162;" horiz-adv-x="1417" 
d="M1049 86v-86h-687v86q102 9 132 33t30 110v1004q0 61 -61 61q-215 0 -371 -264l-74 33l134 416h88q15 -45 67 -45h807q55 0 70 45h86l129 -416l-74 -33q-156 264 -377 264q-27 0 -44 -16t-17 -45v-1004q0 -85 31 -110q30 -24 131 -33zM715 -526l-51 41q30 55 49 108
q-92 -4 -129.5 68.5t-0.5 145t126 67.5q66 0 105.5 -43.5t39.5 -112.5q0 -64 -40.5 -140t-98.5 -134z" />
    <glyph glyph-name="uni0163" unicode="&#x163;" horiz-adv-x="716" 
d="M680 131v-125q-110 -35 -225 -35q-160 0 -238 65.5t-78 213.5v563h-112v80q246 90 311 360h117v-309h225v-131h-225v-563q0 -139 110 -139q65 0 115 20zM305 -526l-51 41q30 55 49 108q-92 -4 -129.5 68.5t-0.5 145t126 67.5q66 0 105.5 -43.5t39.5 -112.5
q0 -64 -40.5 -140t-98.5 -134z" />
    <glyph glyph-name="Tcaron" unicode="&#x164;" horiz-adv-x="1417" 
d="M588 1565l-211 319h121l213 -184l211 184h120l-211 -319q-30 -47 -75 -47h-90q-43 0 -78 47zM1049 86v-86h-687v86q102 9 132 33t30 110v1004q0 61 -61 61q-215 0 -371 -264l-74 33l134 416h88q15 -45 67 -45h807q55 0 70 45h86l129 -416l-74 -33q-156 264 -377 264
q-27 0 -44 -16t-17 -45v-1004q0 -85 31 -110q30 -24 131 -33z" />
    <glyph glyph-name="tcaron" unicode="&#x165;" horiz-adv-x="778" 
d="M641 1481q66 0 104.5 -42.5t38.5 -111.5q0 -72 -59 -172q-60 -102 -127 -166l-47 39q72 92 94 180q-89 -4 -125 66t0 140t121 67zM680 131v-125q-110 -35 -225 -35q-160 0 -238 65.5t-78 213.5v563h-112v80q246 90 311 360h117v-309h225v-131h-225v-563q0 -139 110 -139
q65 0 115 20z" />
    <glyph glyph-name="Tbar" unicode="&#x166;" horiz-adv-x="1417" 
d="M1184 1479h86l129 -416l-74 -33q-156 264 -377 264q-27 0 -44 -16t-17 -45v-416h168v-139h-168v-449q0 -85 31 -110q30 -24 131 -33v-86h-687v86q102 9 132 33t30 110v449h-162v139h162v416q0 61 -61 61q-215 0 -371 -264l-74 33l134 416h88q15 -45 67 -45h807
q55 0 70 45z" />
    <glyph glyph-name="tbar" unicode="&#x167;" horiz-adv-x="716" 
d="M680 944v-131h-225v-274h129v-131h-129v-158q0 -139 110 -139q65 0 115 20v-125q-110 -35 -225 -35q-160 0 -238 65.5t-78 213.5v158h-98v131h98v274h-112v80q246 90 311 360h117v-309h225z" />
    <glyph glyph-name="Utilde" unicode="&#x168;" horiz-adv-x="1570" 
d="M1030 1853h94q-6 -126 -59 -186.5t-133 -60.5q-66 0 -152 53q-70 43 -108 43q-28 0 -50.5 -21.5t-29.5 -60.5h-98q6 128 58 189t132 61q62 0 156 -55q77 -41 108 -41q67 0 82 79zM553 1204v-774q0 -152 92 -232.5t240 -80.5q161 0 250.5 89.5t89.5 258.5v739
q0 86 -31 111q-27 24 -131 33v86h481v-86q-103 -9 -133 -33q-29 -26 -29 -111v-739q0 -241 -150 -368.5t-419 -127.5q-301 0 -462 127.5t-161 368.5v739q0 87 -30 111q-27 24 -131 33v86h686v-86q-103 -9 -133 -33q-29 -26 -29 -111z" />
    <glyph glyph-name="utilde" unicode="&#x169;" horiz-adv-x="1239" 
d="M834 1364h94q-6 -126 -59.5 -187t-133.5 -61q-65 0 -151 53q-70 43 -109 43q-28 0 -50.5 -21.5t-29.5 -60.5h-98q6 128 58 189t132 61q62 0 156 -55q77 -41 109 -41q67 0 82 80zM657 723v80l314 172h114v-799q0 -47 23 -64.5t92 -25.5v-86q-228 0 -428 -31v99
q-156 -99 -309 -99q-324 0 -324 320v373q0 61 -51 61h-61v80l313 172h115v-694q0 -138 133 -138q84 0 184 62v457q0 61 -53 61h-62z" />
    <glyph glyph-name="Umacron" unicode="&#x16a;" horiz-adv-x="1570" 
d="M516 1651v145h590v-145h-590zM553 1204v-774q0 -152 92 -232.5t240 -80.5q161 0 250.5 89.5t89.5 258.5v739q0 86 -31 111q-27 24 -131 33v86h481v-86q-103 -9 -133 -33q-29 -26 -29 -111v-739q0 -241 -150 -368.5t-419 -127.5q-301 0 -462 127.5t-161 368.5v739
q0 87 -30 111q-27 24 -131 33v86h686v-86q-103 -9 -133 -33q-29 -26 -29 -111z" />
    <glyph glyph-name="umacron" unicode="&#x16b;" horiz-adv-x="1239" 
d="M319 1161v146h590v-146h-590zM657 723v80l314 172h114v-799q0 -47 23 -64.5t92 -25.5v-86q-228 0 -428 -31v99q-156 -99 -309 -99q-324 0 -324 320v373q0 61 -51 61h-61v80l313 172h115v-694q0 -138 133 -138q84 0 184 62v457q0 61 -53 61h-62z" />
    <glyph glyph-name="Ubreve" unicode="&#x16c;" horiz-adv-x="1570" 
d="M1020 1855h104q-18 -110 -101.5 -179.5t-213.5 -69.5t-213.5 69.5t-101.5 179.5h108q27 -88 207 -88q184 0 211 88zM553 1204v-774q0 -152 92 -232.5t240 -80.5q161 0 250.5 89.5t89.5 258.5v739q0 86 -31 111q-27 24 -131 33v86h481v-86q-103 -9 -133 -33
q-29 -26 -29 -111v-739q0 -241 -150 -368.5t-419 -127.5q-301 0 -462 127.5t-161 368.5v739q0 87 -30 111q-27 24 -131 33v86h686v-86q-103 -9 -133 -33q-29 -26 -29 -111z" />
    <glyph glyph-name="ubreve" unicode="&#x16d;" horiz-adv-x="1239" 
d="M823 1366h105q-18 -110 -102 -180t-214 -70q-129 0 -213 70t-102 180h109q27 -88 206 -88q184 0 211 88zM657 723v80l314 172h114v-799q0 -47 23 -64.5t92 -25.5v-86q-228 0 -428 -31v99q-156 -99 -309 -99q-324 0 -324 320v373q0 61 -51 61h-61v80l313 172h115v-694
q0 -138 133 -138q84 0 184 62v457q0 61 -53 61h-62z" />
    <glyph glyph-name="Uring" unicode="&#x16e;" horiz-adv-x="1570" 
d="M809 1954q85 0 145 -60t60 -145t-60 -144t-145 -59q-86 0 -146.5 59t-60.5 144t60.5 145t146.5 60zM743 1681q26 -26 65.5 -26t65.5 26q26 29 26 68.5t-26 65.5t-65.5 26t-65.5 -26t-26 -65.5t26 -68.5zM553 1204v-774q0 -152 92 -232.5t240 -80.5q161 0 250.5 89.5
t89.5 258.5v739q0 86 -31 111q-27 24 -131 33v86h481v-86q-103 -9 -133 -33q-29 -26 -29 -111v-739q0 -241 -150 -368.5t-419 -127.5q-301 0 -462 127.5t-161 368.5v739q0 87 -30 111q-27 24 -131 33v86h686v-86q-103 -9 -133 -33q-29 -26 -29 -111z" />
    <glyph glyph-name="uring" unicode="&#x16f;" horiz-adv-x="1239" 
d="M612 1464q85 0 145 -59.5t60 -144.5t-60 -144t-145 -59q-86 0 -146 59t-60 144t60 144.5t146 59.5zM547 1192q26 -26 65.5 -26t65.5 26q26 29 26 68t-26 65t-65.5 26t-65.5 -26t-26 -65t26 -68zM657 723v80l314 172h114v-799q0 -47 23 -64.5t92 -25.5v-86
q-228 0 -428 -31v99q-156 -99 -309 -99q-324 0 -324 320v373q0 61 -51 61h-61v80l313 172h115v-694q0 -138 133 -138q84 0 184 62v457q0 61 -53 61h-62z" />
    <glyph glyph-name="Uhungarumlaut" unicode="&#x170;" horiz-adv-x="1570" 
d="M592 1522l78 305q12 55 69 55h140q21 0 35 -11.5t14 -29.5q0 -28 -43 -80l-185 -239h-108zM926 1522l86 307q7 30 22.5 41.5t48.5 11.5h129q21 0 35.5 -11.5t14.5 -29.5q0 -28 -43 -80l-185 -239h-108zM553 1204v-774q0 -152 92 -232.5t240 -80.5q161 0 250.5 89.5
t89.5 258.5v739q0 86 -31 111q-27 24 -131 33v86h481v-86q-103 -9 -133 -33q-29 -26 -29 -111v-739q0 -241 -150 -368.5t-419 -127.5q-301 0 -462 127.5t-161 368.5v739q0 87 -30 111q-27 24 -131 33v86h686v-86q-103 -9 -133 -33q-29 -26 -29 -111z" />
    <glyph glyph-name="uhungarumlaut" unicode="&#x171;" horiz-adv-x="1239" 
d="M395 1032l78 305q12 56 70 56h139q21 0 35 -11.5t14 -29.5q0 -28 -43 -80l-184 -240h-109zM729 1032l86 307q7 30 23 42t49 12h129q21 0 35 -11.5t14 -29.5q0 -28 -43 -80l-184 -240h-109zM657 723v80l314 172h114v-799q0 -47 23 -64.5t92 -25.5v-86q-228 0 -428 -31v99
q-156 -99 -309 -99q-324 0 -324 320v373q0 61 -51 61h-61v80l313 172h115v-694q0 -138 133 -138q84 0 184 62v457q0 61 -53 61h-62z" />
    <glyph glyph-name="Uogonek" unicode="&#x172;" horiz-adv-x="1570" 
d="M1063 1348v86h481v-86q-103 -9 -133 -33q-29 -26 -29 -111v-739q0 -366 -333 -465q-119 -79 -119 -197q0 -41 27.5 -69.5t66.5 -28.5q74 0 117 76l86 -45q-90 -158 -258 -158q-110 0 -174 51t-64 138q0 123 119 202h-37q-301 0 -462 127.5t-161 368.5v739q0 87 -30 111
q-27 24 -131 33v86h686v-86q-103 -9 -133 -33q-29 -26 -29 -111v-774q0 -152 92 -232.5t240 -80.5q161 0 250.5 89.5t89.5 258.5v739q0 86 -31 111q-27 24 -131 33z" />
    <glyph glyph-name="uogonek" unicode="&#x173;" horiz-adv-x="1239" 
d="M1122 -219l86 -45q-90 -158 -258 -158q-110 0 -173.5 51t-63.5 138q0 131 135 213q-40 -4 -76 -11v99q-156 -99 -309 -99q-324 0 -324 320v373q0 61 -51 61h-61v80l313 172h115v-694q0 -138 133 -138q84 0 184 62v457q0 61 -53 61h-62v80l314 172h114v-799
q0 -47 23 -64.5t92 -25.5v-86q-24 0 -176 -4q-113 -79 -113 -193q0 -41 28 -69.5t67 -28.5q73 0 116 76z" />
    <glyph glyph-name="Wcircumflex" unicode="&#x174;" horiz-adv-x="2009" 
d="M1212 1518l-211 184l-213 -184h-120l211 319q35 47 77 47h91q48 0 75 -47l211 -319h-121zM1589 1348v86h436v-86q-63 -8 -95 -37.5t-56 -106.5l-363 -1204h-233l-277 911l-274 -911h-233l-365 1204q-25 78 -54.5 107.5t-90.5 36.5v86h647v-86q-99 -8 -124.5 -36.5
t-0.5 -107.5l211 -688l205 664l-9 24q-25 80 -52.5 108.5t-90.5 35.5v86h645v-86q-97 -8 -123.5 -37.5t-1.5 -106.5l211 -688l211 688q25 79 -0.5 107.5t-122.5 36.5z" />
    <glyph glyph-name="wcircumflex" unicode="&#x175;" horiz-adv-x="1603" 
d="M463 1028l211 320q35 47 78 47h90q49 0 76 -47l210 -320h-120l-211 184l-213 -184h-121zM995 0l-198 530l-191 -530h-223l-268 715q-28 80 -51.5 108.5t-75.5 34.5v86h540v-86q-74 -8 -89.5 -35.5t12.5 -107.5l135 -365l139 377q-26 65 -50 94.5t-61 36.5v86h533v-86
q-76 -8 -92.5 -34.5t8.5 -108.5l133 -361l135 361q23 80 3 107.5t-97 35.5v86h379v-86q-51 -7 -80 -38t-55 -105l-264 -715h-222z" />
    <glyph glyph-name="Ycircumflex" unicode="&#x176;" horiz-adv-x="1386" 
d="M362 1518l211 319q35 47 78 47h90q49 0 76 -47l211 -319h-121l-211 184l-213 -184h-121zM514 229v346l-369 629q-52 87 -77 109q-26 26 -84 35v86h663v-86q-171 -15 -88 -162l246 -422l252 426q43 78 22 114t-112 44v86h434v-86q-58 -9 -84 -35q-23 -20 -76 -109
l-364 -616v-359q0 -86 30 -110t131 -33v-86h-686v86q101 9 131 33q31 25 31 110z" />
    <glyph glyph-name="ycircumflex" unicode="&#x177;" horiz-adv-x="1021" 
d="M182 1028l211 320q35 47 78 47h90q49 0 76 -47l211 -320h-121l-211 184l-213 -184h-121zM897 715l-360 -885q-99 -238 -318 -238q-93 0 -157 50t-64 127q0 60 38.5 98.5t98.5 38.5q55 0 105 -47q49 -49 82 -49q58 0 92 88l20 51l-313 766q-24 61 -33 76q-30 59 -100 67
v86h565v-86q-81 -8 -97.5 -34.5t11.5 -108.5l137 -348l144 348q24 80 4 107.5t-97 35.5v86h379v-86q-50 -7 -78 -37t-59 -106z" />
    <glyph glyph-name="Ydieresis" unicode="&#x178;" horiz-adv-x="1386" 
d="M635 1745q0 -56 -42 -96.5t-108 -40.5t-107.5 40t-41.5 97q0 59 41.5 101t107.5 42t108 -42t42 -101zM1059 1745q0 -57 -42 -97t-108 -40t-106.5 40t-40.5 97q0 59 41 101t106 42q66 0 108 -42t42 -101zM514 229v346l-369 629q-52 87 -77 109q-26 26 -84 35v86h663v-86
q-171 -15 -88 -162l246 -422l252 426q43 78 22 114t-112 44v86h434v-86q-58 -9 -84 -35q-23 -20 -76 -109l-364 -616v-359q0 -86 30 -110t131 -33v-86h-686v86q101 9 131 33q31 25 31 110z" />
    <glyph glyph-name="Zacute" unicode="&#x179;" horiz-adv-x="1349" 
d="M604 1522l170 317q21 43 70 43h172q41 0 41 -41q0 -26 -60 -80l-272 -239h-121zM49 86l764 1208h-145q-187 0 -303 -61q-117 -63 -218 -203l-73 33l119 371h1075v-86l-764 -1209h180q184 0 317.5 78.5t258.5 241.5l71 -43l-198 -416h-1084v86z" />
    <glyph glyph-name="zacute" unicode="&#x17a;" horiz-adv-x="1019" 
d="M432 1032l170 318q21 43 70 43h172q41 0 41 -41q0 -26 -60 -80l-272 -240h-121zM37 86l504 735h-84q-210 0 -318 -200l-78 28l76 295h805v-86l-504 -735h125q123 0 209.5 59.5t165.5 179.5l74 -36l-131 -326h-844v86z" />
    <glyph glyph-name="Zdotaccent" unicode="&#x17b;" horiz-adv-x="1349" 
d="M692 1888q66 0 108 -42t42 -101q0 -56 -42 -96.5t-108 -40.5t-107.5 40t-41.5 97q0 59 41 101t108 42zM49 86l764 1208h-145q-187 0 -303 -61q-117 -63 -218 -203l-73 33l119 371h1075v-86l-764 -1209h180q184 0 317.5 78.5t258.5 241.5l71 -43l-198 -416h-1084v86z" />
    <glyph glyph-name="zdotaccent" unicode="&#x17c;" horiz-adv-x="1019" 
d="M520 1399q66 0 108 -42.5t42 -101.5q0 -56 -42 -96.5t-108 -40.5t-107.5 40t-41.5 97q0 59 41 101.5t108 42.5zM37 86l504 735h-84q-210 0 -318 -200l-78 28l76 295h805v-86l-504 -735h125q123 0 209.5 59.5t165.5 179.5l74 -36l-131 -326h-844v86z" />
    <glyph glyph-name="Zcaron" unicode="&#x17d;" horiz-adv-x="1349" 
d="M569 1565l-211 319h121l213 -184l211 184h121l-211 -319q-30 -47 -76 -47h-90q-43 0 -78 47zM49 86l764 1208h-145q-187 0 -303 -61q-117 -63 -218 -203l-73 33l119 371h1075v-86l-764 -1209h180q184 0 317.5 78.5t258.5 241.5l71 -43l-198 -416h-1084v86z" />
    <glyph glyph-name="zcaron" unicode="&#x17e;" horiz-adv-x="1019" 
d="M397 1075l-211 320h121l213 -185l211 185h121l-211 -320q-30 -47 -76 -47h-90q-43 0 -78 47zM37 86l504 735h-84q-210 0 -318 -200l-78 28l76 295h805v-86l-504 -735h125q123 0 209.5 59.5t165.5 179.5l74 -36l-131 -326h-844v86z" />
    <glyph glyph-name="longs" unicode="&#x17f;" horiz-adv-x="657" 
d="M592 0h-553v86q69 8 92 25.5t23 64.5v637h-115v131h115v43q0 225 137 350q139 127 344 127q107 0 173 -45t66 -119q0 -64 -40 -105.5t-105 -41.5q-47 0 -78.5 25.5t-44 56.5t-29.5 56.5t-38 25.5q-72 0 -72 -117v-1024q0 -44 26.5 -63.5t98.5 -26.5v-86z" />
    <glyph glyph-name="florin" unicode="&#x192;" 
d="M63 684v125h312l47 178q58 223 209 350t352 127q107 0 173.5 -45t66.5 -119q0 -64 -40.5 -105.5t-105.5 -41.5q-38 0 -65.5 17t-41.5 41t-25 48t-24.5 41t-31.5 17q-32 0 -59 -31.5t-39 -85.5l-99 -391h326v-125h-359l-151 -606q-56 -230 -206 -358t-351 -128
q-118 0 -185 48t-67 137q0 54 44 95.5t101 41.5q39 0 67.5 -18t44 -43.5t27.5 -51t25.5 -43.5t30.5 -18q35 0 61.5 31.5t38.5 85.5l207 827h-283z" />
    <glyph glyph-name="AEacute" unicode="&#x1fc;" horiz-adv-x="2232" 
d="M1503 1761l-272 -239h-121l170 317q21 43 70 43h172q41 0 41 -41q0 -26 -60 -80zM2154 459l72 -43l-198 -416h-1176v86q101 9 131 33q31 25 31 110v168h-533l-119 -170q-41 -60 -16.5 -96.5t109.5 -44.5v-86h-473v86q120 12 211 143l763 1088q-49 25 -155 31v86h1220
l119 -371l-74 -33q-100 140 -226 202t-316 62h-86q-62 0 -62 -61v-416h242q98 0 132.5 40t39.5 136h96v-491h-96q-5 96 -39.5 136t-132.5 40h-242v-477q0 -62 62 -62h106q179 0 337.5 86t272.5 234zM1014 1153l-432 -614h432v614z" />
    <glyph glyph-name="aeacute" unicode="&#x1fd;" horiz-adv-x="1681" 
d="M729 1032l170 318q21 43 70 43h172q41 0 41 -41q0 -26 -60 -80l-272 -240h-121zM850 852q120 123 303 123q218 0 337.5 -119t119.5 -330h-637q-2 -12 -2 -53q0 -187 61 -277t193 -90q90 0 168.5 59.5t132.5 168.5l112 -64q-147 -301 -452 -301q-290 0 -434 178
q-216 -174 -424 -174q-124 0 -200.5 65t-76.5 169q0 155 189 260q64 33 127 51q145 46 284 68v96q0 100 -21.5 136t-86.5 36q-112 0 -152 -137q-41 -123 -160 -123q-55 0 -85.5 33t-30.5 94q0 111 129 182q132 72 334 72q196 0 272 -123zM979 657h332q0 90 -41.5 142.5
t-110.5 52.5q-81 0 -123.5 -47t-56.5 -148zM651 467q-141 -27 -208.5 -72.5t-67.5 -122.5q0 -53 30.5 -81.5t81.5 -28.5q95 0 211 76q-47 96 -47 229z" />
    <glyph glyph-name="Oslashacute" unicode="&#x1fe;" horiz-adv-x="1617" 
d="M1114 1761l-272 -239h-121l170 317q21 43 70 43h172q41 0 41 -41q0 -26 -60 -80zM1520 1434l-158 -181q190 -199 190 -536q0 -344 -198 -545q-197 -203 -545 -203q-275 0 -461 131l-88 -100h-164l158 180q-191 200 -191 537q0 343 199 545t547 202q271 0 459 -129l86 99
h166zM453 717q0 -166 22 -285l623 711q-85 190 -289 190q-205 0 -283 -176q-73 -165 -73 -440zM809 102q204 0 283 174q71 160 71 441q0 165 -22 284l-623 -708q86 -191 291 -191z" />
    <glyph glyph-name="oslashacute" unicode="&#x1ff;" horiz-adv-x="1167" 
d="M889 1272l-273 -240h-120l170 318q21 43 69 43h172q41 0 41 -41q0 -27 -59 -80zM1100 944l-115 -125q131 -137 131 -346q0 -222 -145 -364q-146 -140 -387 -140q-175 0 -308 80l-45 -49h-165l116 125q-131 137 -131 348q0 221 146 361q144 141 387 141q174 0 307 -80
l45 49h164zM375 473q0 -73 6 -131l371 401q-50 109 -168 109q-113 0 -161 -92t-48 -287zM584 92q110 0 159.5 93.5t49.5 287.5q0 59 -7 131l-370 -403q53 -109 168 -109z" />
    <glyph glyph-name="Scommaaccent" unicode="&#x218;" horiz-adv-x="1374" 
d="M803 909q83 -24 145 -45q59 -17 131 -55q85 -43 121 -82q47 -47 78 -119t31 -157q0 -220 -174 -351q-171 -131 -433 -131q-237 0 -411 97l-31 -66h-98l-111 463l80 22q78 -165 225 -276q148 -109 328 -109q117 0 195.5 60.5t78.5 148.5q0 85 -67 148q-30 27 -84 49
q-59 29 -94 39q-41 15 -117 39q-54 16 -143 47q-55 19 -127 57q-76 40 -117 84q-45 47 -75 118.5t-30 153.5q0 196 154 308q150 112 377 112q232 0 383 -92l29 62h98l100 -414l-76 -21q-73 157 -204 245.5t-297 88.5q-105 0 -166.5 -50t-61.5 -132q0 -67 64 -127
q30 -23 82 -43q68 -28 217 -72zM694 -526l-51 41q30 55 49 108q-92 -4 -129.5 68.5t-0.5 145t126 67.5q66 0 106 -43.5t40 -112.5q0 -64 -41 -140t-99 -134z" />
    <glyph glyph-name="scommaaccent" unicode="&#x219;" horiz-adv-x="995" 
d="M584 627q78 -24 141 -49q52 -21 113 -58q118 -71 118 -213q0 -159 -120 -248q-122 -90 -304 -90q-85 0 -174.5 25.5t-142.5 62.5l-25 -57h-77l-74 336l70 18q76 -125 188 -194.5t225 -69.5q67 0 107.5 29t40.5 82q0 38 -35 65q-21 20 -49 34.5t-52 22t-90 27.5
q-117 36 -170 61l-30 15q-82 39 -124 97.5t-48 148.5q0 132 114 217q115 86 281 86q156 0 278 -84l25 53h76l61 -299l-76 -22q-62 110 -152.5 173.5t-178.5 63.5q-59 0 -91 -25t-32 -69q0 -33 31 -61q30 -26 66 -41.5t110 -36.5zM502 -526l-51 41q30 55 49 108
q-92 -4 -129.5 68.5t-0.5 145t126 67.5q66 0 105.5 -43.5t39.5 -112.5q0 -64 -40.5 -140t-98.5 -134z" />
    <glyph glyph-name="uni021A" unicode="&#x21a;" horiz-adv-x="1417" 
d="M1049 86v-86h-687v86q102 9 132 33t30 110v1004q0 61 -61 61q-215 0 -371 -264l-74 33l134 416h88q15 -45 67 -45h807q55 0 70 45h86l129 -416l-74 -33q-156 264 -377 264q-27 0 -44 -16t-17 -45v-1004q0 -85 31 -110q30 -24 131 -33zM715 -526l-51 41q30 55 49 108
q-92 -4 -129.5 68.5t-0.5 145t126 67.5q66 0 105.5 -43.5t39.5 -112.5q0 -64 -40.5 -140t-98.5 -134z" />
    <glyph glyph-name="uni021B" unicode="&#x21b;" horiz-adv-x="716" 
d="M680 131v-125q-110 -35 -225 -35q-160 0 -238 65.5t-78 213.5v563h-112v80q246 90 311 360h117v-309h225v-131h-225v-563q0 -139 110 -139q65 0 115 20zM305 -526l-51 41q30 55 49 108q-92 -4 -129.5 68.5t-0.5 145t126 67.5q66 0 105.5 -43.5t39.5 -112.5
q0 -64 -40.5 -140t-98.5 -134z" />
    <glyph glyph-name="uni0237" unicode="&#x237;" horiz-adv-x="600" 
d="M-266 -223q0 54 44 95.5t101 41.5q39 0 68 -18t45.5 -43.5t29 -51t27 -43.5t31.5 -18q35 0 54.5 31.5t19.5 85.5v805q0 61 -52 61h-63v80l313 172h115v-897q0 -232 -139 -359t-342 -127q-118 0 -185 48t-67 137z" />
    <glyph glyph-name="uni02B0" unicode="&#x2b0;" horiz-adv-x="964" 
d="M952 567h-446v78q49 6 64.5 18t15.5 42v354q0 90 -92 90q-57 0 -115 -37v-407q0 -30 15.5 -42t64.5 -18v-78h-447v78q47 6 62.5 18t15.5 42v710q0 41 -35 41h-43v76l260 133h107v-432q121 74 233 74q262 0 262 -256v-346q0 -30 15.5 -42t62.5 -18v-78z" />
    <glyph glyph-name="circumflex" unicode="&#x2c6;" horiz-adv-x="706" 
d="M20 1028l211 320q35 47 78 47h90q49 0 76 -47l211 -320h-121l-211 184l-213 -184h-121z" />
    <glyph glyph-name="caron" unicode="&#x2c7;" horiz-adv-x="706" 
d="M231 1075l-211 320h121l213 -185l211 185h121l-211 -320q-30 -47 -76 -47h-90q-43 0 -78 47z" />
    <glyph glyph-name="breve" unicode="&#x2d8;" horiz-adv-x="671" 
d="M547 1366h104q-18 -110 -102 -180t-213 -70q-130 0 -214 70t-102 180h109q27 -88 207 -88q184 0 211 88z" />
    <glyph glyph-name="dotaccent" unicode="&#x2d9;" horiz-adv-x="339" 
d="M319 1255q0 -56 -41.5 -96.5t-107.5 -40.5t-108 40t-42 97q0 59 42 101.5t108 42.5t107.5 -42.5t41.5 -101.5z" />
    <glyph glyph-name="ring" unicode="&#x2da;" horiz-adv-x="452" 
d="M227 1464q85 0 145 -59.5t60 -144.5t-60 -144t-145 -59q-86 0 -146.5 59t-60.5 144t60.5 144.5t146.5 59.5zM162 1192q26 -26 65.5 -26t65.5 26q26 29 26 68t-26 65t-65.5 26t-65.5 -26t-26 -65t26 -68z" />
    <glyph glyph-name="ogonek" unicode="&#x2db;" horiz-adv-x="536" 
d="M190 0h148q-119 -79 -119 -197q0 -41 27.5 -69.5t66.5 -28.5q74 0 117 76l86 -45q-90 -158 -258 -158q-110 0 -174 51t-64 138q0 147 170 233z" />
    <glyph glyph-name="tilde" unicode="&#x2dc;" horiz-adv-x="671" 
d="M557 1364h94q-6 -126 -59 -187t-133 -61q-66 0 -152 53q-70 43 -108 43q-28 0 -50.5 -21.5t-29.5 -60.5h-99q6 127 58.5 188.5t132.5 61.5q62 0 156 -55q77 -41 108 -41q67 0 82 80z" />
    <glyph glyph-name="hungarumlaut" unicode="&#x2dd;" horiz-adv-x="710" 
d="M20 1032l78 305q12 56 70 56h139q21 0 35 -11.5t14 -29.5q0 -28 -43 -80l-184 -240h-109zM354 1032l86 307q7 30 23 42t49 12h129q21 0 35 -11.5t14 -29.5q0 -28 -43 -80l-184 -240h-109z" />
    <glyph glyph-name="gravecomb" unicode="&#x300;" horiz-adv-x="0" 
d="M-190 1350l170 -318h-121l-273 240q-59 53 -59 80q0 41 41 41h172q49 0 70 -43z" />
    <glyph glyph-name="acutecomb" unicode="&#x301;" horiz-adv-x="0" 
d="M-473 1032l170 318q21 43 70 43h172q41 0 41 -41q0 -26 -60 -80l-272 -240h-121z" />
    <glyph glyph-name="uni0302" unicode="&#x302;" horiz-adv-x="0" 
d="M-686 1028l211 320q35 47 78 47h90q49 0 76 -47l211 -320h-121l-211 184l-213 -184h-121z" />
    <glyph glyph-name="tildecomb" unicode="&#x303;" horiz-adv-x="0" 
d="M-115 1364h95q-6 -126 -59.5 -187t-133.5 -61q-66 0 -152 53q-70 43 -108 43q-28 0 -50.5 -21.5t-29.5 -60.5h-98q6 128 58 189t132 61q62 0 156 -55q77 -41 108 -41q67 0 82 80z" />
    <glyph glyph-name="uni0304" unicode="&#x304;" horiz-adv-x="0" 
d="M-610 1161v146h590v-146h-590z" />
    <glyph glyph-name="uni0306" unicode="&#x306;" horiz-adv-x="0" 
d="M-125 1366h105q-18 -110 -102 -180t-214 -70q-129 0 -213 70t-102 180h108q27 -88 207 -88q184 0 211 88z" />
    <glyph glyph-name="uni0307" unicode="&#x307;" horiz-adv-x="0" 
d="M-170 1399q66 0 108 -42.5t42 -101.5q0 -56 -42 -96.5t-108 -40.5t-107.5 40t-41.5 97q0 59 41 101.5t108 42.5z" />
    <glyph glyph-name="uni0308" unicode="&#x308;" horiz-adv-x="0" 
d="M-594 1399q66 0 108 -42.5t42 -101.5q0 -56 -42 -96.5t-108 -40.5t-107.5 40t-41.5 97q0 59 41 101.5t108 42.5zM-20 1255q0 -57 -42 -97t-108 -40t-106.5 40t-40.5 97q0 59 41 101.5t106 42.5q66 0 108 -42.5t42 -101.5z" />
    <glyph glyph-name="uni030A" unicode="&#x30a;" horiz-adv-x="0" 
d="M-225 1464q85 0 145 -59.5t60 -144.5t-60 -144t-145 -59q-86 0 -146.5 59t-60.5 144t60.5 144.5t146.5 59.5zM-291 1192q26 -26 65.5 -26t65.5 26q26 29 26 68t-26 65t-65.5 26t-65.5 -26t-26 -65t26 -68z" />
    <glyph glyph-name="uni030B" unicode="&#x30b;" horiz-adv-x="0" 
d="M-690 1032l78 305q12 56 69 56h140q21 0 35 -11.5t14 -29.5q0 -28 -43 -80l-185 -240h-108zM-356 1032l86 307q7 31 23 42.5t48 11.5h129q21 0 35.5 -11.5t14.5 -29.5q0 -28 -43 -80l-185 -240h-108z" />
    <glyph glyph-name="uni030C" unicode="&#x30c;" horiz-adv-x="0" 
d="M-475 1075l-211 320h121l213 -185l211 185h121l-211 -320q-30 -47 -76 -47h-90q-43 0 -78 47z" />
    <glyph glyph-name="uni0312" unicode="&#x312;" horiz-adv-x="0" 
d="M-168 1530l49 -41q-34 -65 -47 -109q89 4 127 -68.5t1 -144.5t-126 -67q-66 0 -105.5 43t-39.5 112q0 64 41.5 140.5t99.5 134.5z" />
    <glyph glyph-name="uni0326" unicode="&#x326;" horiz-adv-x="0" 
d="M-160 -526l-51 41q30 55 49 108q-92 -4 -129.5 68.5t-0.5 145t126 67.5q66 0 106 -43.5t40 -112.5q0 -64 -41 -140t-99 -134z" />
    <glyph glyph-name="uni0327" unicode="&#x327;" horiz-adv-x="0" 
d="M-20 -246q0 -88 -84 -150.5t-211 -62.5q-102 0 -171 42.5t-69 103.5q0 31 21 53t51 22q52 0 86 -63q35 -68 98 -68q48 0 77 25.5t29 67.5q0 26 -19 42.5t-48 16.5q-34 0 -64 -23l-63 29l92 211h129l-57 -127q27 10 49 10q68 0 111 -35t43 -94z" />
    <glyph glyph-name="uni0328" unicode="&#x328;" horiz-adv-x="0" 
d="M-346 0h147q-118 -78 -118 -197q0 -41 27.5 -69.5t66.5 -28.5q74 0 117 76l86 -45q-90 -158 -259 -158q-110 0 -173.5 51t-63.5 138q0 147 170 233z" />
    <glyph glyph-name="uni0394" unicode="&#x394;" horiz-adv-x="1462" 
d="M610 1434h248l553 -1434h-1354zM616 1059l-356 -920h713z" />
    <glyph glyph-name="uni03A9" unicode="&#x3a9;" horiz-adv-x="1624" 
d="M1505 -45h-96q0 45 -47 45h-483v326q154 110 221 238.5t67 318.5q0 223 -83 336.5t-273 113.5q-188 0 -271 -113.5t-83 -336.5q0 -190 67 -318.5t221 -238.5v-326h-483q-47 0 -47 -45h-96l-53 471h96q22 -98 43 -119q22 -22 86 -22h276q-200 101 -340 241
q-75 76 -117 174.5t-42 202.5q0 259 198 408q200 153 545 153q346 0 547 -151q198 -149 198 -410q0 -105 -42.5 -203t-118.5 -174q-137 -140 -338 -241h276q62 0 84 22q23 20 45 119h97z" />
    <glyph glyph-name="uni03BC" unicode="&#x3bc;" horiz-adv-x="1206" 
d="M317 51q12 -27 64 -102q50 -71 71 -109t21 -73q0 -79 -48 -127t-122 -48t-123 49t-49 128v1175h313v-663q0 -67 36 -102.5t98 -35.5q89 0 184 62v739h315v-749q0 -78 56 -78q34 0 59 14v-104q-82 -52 -205 -52q-163 0 -209 113q-101 -119 -254 -119q-131 0 -207 82z" />
    <glyph glyph-name="pi" unicode="&#x3c0;" horiz-adv-x="1206" 
d="M37 133q0 49 40 87t91 38q34 0 57.5 -14.5t35.5 -35t21.5 -41.5t21.5 -35.5t28 -14.5q74 0 74 116v435h-29q-60 0 -93.5 -34t-33.5 -91h-117q0 58 11 112t38.5 107.5t70 93t111.5 64t156 24.5h410q181 0 260 29v-88q-34 -79 -83 -126t-130 -69v-495q0 -78 55 -78
q35 0 60 14v-104q-58 -52 -166 -52q-102 0 -152.5 43.5t-50.5 141.5v508h-180v-355q0 -160 -71.5 -252t-219.5 -92q-96 0 -155.5 44t-59.5 120z" />
    <glyph glyph-name="Wgrave" unicode="&#x1e80;" horiz-adv-x="2009" 
d="M967 1522l-273 239q-59 53 -59 80q0 41 41 41h172q49 0 70 -43l169 -317h-120zM1589 1348v86h436v-86q-63 -8 -95 -37.5t-56 -106.5l-363 -1204h-233l-277 911l-274 -911h-233l-365 1204q-25 78 -54.5 107.5t-90.5 36.5v86h647v-86q-99 -8 -124.5 -36.5t-0.5 -107.5
l211 -688l205 664l-9 24q-25 80 -52.5 108.5t-90.5 35.5v86h645v-86q-97 -8 -123.5 -37.5t-1.5 -106.5l211 -688l211 688q25 79 -0.5 107.5t-122.5 36.5z" />
    <glyph glyph-name="wgrave" unicode="&#x1e81;" horiz-adv-x="1603" 
d="M713 1350l170 -318h-121l-273 240q-59 53 -59 80q0 41 41 41h172q49 0 70 -43zM995 0l-198 530l-191 -530h-223l-268 715q-28 80 -51.5 108.5t-75.5 34.5v86h540v-86q-74 -8 -89.5 -35.5t12.5 -107.5l135 -365l139 377q-26 65 -50 94.5t-61 36.5v86h533v-86
q-76 -8 -92.5 -34.5t8.5 -108.5l133 -361l135 361q23 80 3 107.5t-97 35.5v86h379v-86q-51 -7 -80 -38t-55 -105l-264 -715h-222z" />
    <glyph glyph-name="Wacute" unicode="&#x1e82;" horiz-adv-x="2009" 
d="M1307 1761l-273 -239h-121l170 317q21 43 70 43h172q41 0 41 -41q0 -27 -59 -80zM1589 1348v86h436v-86q-63 -8 -95 -37.5t-56 -106.5l-363 -1204h-233l-277 911l-274 -911h-233l-365 1204q-25 78 -54.5 107.5t-90.5 36.5v86h647v-86q-99 -8 -124.5 -36.5t-0.5 -107.5
l211 -688l205 664l-9 24q-25 80 -52.5 108.5t-90.5 35.5v86h645v-86q-97 -8 -123.5 -37.5t-1.5 -106.5l211 -688l211 688q25 79 -0.5 107.5t-122.5 36.5z" />
    <glyph glyph-name="wacute" unicode="&#x1e83;" horiz-adv-x="1603" 
d="M709 1032l170 318q21 43 69 43h172q41 0 41 -41q0 -27 -59 -80l-273 -240h-120zM995 0l-198 530l-191 -530h-223l-268 715q-28 80 -51.5 108.5t-75.5 34.5v86h540v-86q-74 -8 -89.5 -35.5t12.5 -107.5l135 -365l139 377q-26 65 -50 94.5t-61 36.5v86h533v-86
q-76 -8 -92.5 -34.5t8.5 -108.5l133 -361l135 361q23 80 3 107.5t-97 35.5v86h379v-86q-51 -7 -80 -38t-55 -105l-264 -715h-222z" />
    <glyph glyph-name="Wdieresis" unicode="&#x1e84;" horiz-adv-x="2009" 
d="M641 1745q0 59 41.5 101t108.5 42q66 0 107.5 -42t41.5 -101q0 -56 -41.5 -96.5t-107.5 -40.5t-108 40t-42 97zM1067 1745q0 59 41 101t106 42q66 0 108 -42t42 -101q0 -57 -42 -97t-108 -40t-106.5 40t-40.5 97zM1589 1348v86h436v-86q-63 -8 -95 -37.5t-56 -106.5
l-363 -1204h-233l-277 911l-274 -911h-233l-365 1204q-25 78 -54.5 107.5t-90.5 36.5v86h647v-86q-99 -8 -124.5 -36.5t-0.5 -107.5l211 -688l205 664l-9 24q-25 80 -52.5 108.5t-90.5 35.5v86h645v-86q-97 -8 -123.5 -37.5t-1.5 -106.5l211 -688l211 688q25 79 -0.5 107.5
t-122.5 36.5z" />
    <glyph glyph-name="wdieresis" unicode="&#x1e85;" horiz-adv-x="1603" 
d="M586 1399q66 0 107.5 -42.5t41.5 -101.5q0 -56 -41.5 -96.5t-107.5 -40.5t-108 40t-42 97q0 59 41.5 101.5t108.5 42.5zM1159 1255q0 -57 -41.5 -97t-107.5 -40t-107 40t-41 97q0 59 41.5 101.5t106.5 42.5q66 0 107.5 -42.5t41.5 -101.5zM995 0l-198 530l-191 -530h-223
l-268 715q-28 80 -51.5 108.5t-75.5 34.5v86h540v-86q-74 -8 -89.5 -35.5t12.5 -107.5l135 -365l139 377q-26 65 -50 94.5t-61 36.5v86h533v-86q-76 -8 -92.5 -34.5t8.5 -108.5l133 -361l135 361q23 80 3 107.5t-97 35.5v86h379v-86q-51 -7 -80 -38t-55 -105l-264 -715h-222
z" />
    <glyph glyph-name="uni1E9E" unicode="&#x1e9e;" horiz-adv-x="1576" 
d="M1440 1255l-310 -432q178 -9 295 -123q119 -113 119 -294q0 -192 -139 -316q-139 -121 -356 -121q-145 0 -261 72l46 106q55 -38 129 -38q192 0 192 297q0 128 -63.5 210t-161.5 82q-64 0 -125 -28l-57 80l352 489q-72 78 -217 78q-330 0 -330 -418v-670q0 -85 31 -110
q30 -24 131 -33v-86h-686v86q101 9 131 33t30 110v613q0 283 187 452q188 170 487 170q364 0 576 -209z" />
    <glyph glyph-name="Ygrave" unicode="&#x1ef2;" horiz-adv-x="1386" 
d="M612 1839l170 -317h-120l-273 239q-59 53 -59 80q0 41 41 41h172q48 0 69 -43zM514 229v346l-369 629q-52 87 -77 109q-26 26 -84 35v86h663v-86q-171 -15 -88 -162l246 -422l252 426q43 78 22 114t-112 44v86h434v-86q-58 -9 -84 -35q-23 -20 -76 -109l-364 -616v-359
q0 -86 30 -110t131 -33v-86h-686v86q101 9 131 33q31 25 31 110z" />
    <glyph glyph-name="ygrave" unicode="&#x1ef3;" horiz-adv-x="1021" 
d="M432 1350l170 -318h-121l-272 240q-59 53 -59 80q0 41 40 41h172q49 0 70 -43zM897 715l-360 -885q-99 -238 -318 -238q-93 0 -157 50t-64 127q0 60 38.5 98.5t98.5 38.5q55 0 105 -47q49 -49 82 -49q58 0 92 88l20 51l-313 766q-24 61 -33 76q-30 59 -100 67v86h565v-86
q-81 -8 -97.5 -34.5t11.5 -108.5l137 -348l144 348q24 80 4 107.5t-97 35.5v86h379v-86q-50 -7 -78 -37t-59 -106z" />
    <glyph glyph-name="endash" unicode="&#x2013;" horiz-adv-x="1161" 
d="M16 412v123h1129v-123h-1129z" />
    <glyph glyph-name="emdash" unicode="&#x2014;" horiz-adv-x="1724" 
d="M16 412v123h1692v-123h-1692z" />
    <glyph glyph-name="quoteleft" unicode="&#x2018;" horiz-adv-x="546" 
d="M274 784q-91 0 -144.5 59.5t-53.5 153.5q0 103 80 242q82 138 180 231l65 -55q-96 -121 -133 -250q91 0 146 -54.5t55 -135.5t-53.5 -136t-141.5 -55z" />
    <glyph glyph-name="quoteright" unicode="&#x2019;" horiz-adv-x="546" 
d="M272 1464q91 0 145 -59.5t54 -153.5q0 -104 -82 -241q-79 -138 -178 -232l-66 56q98 124 134 249q-91 0 -146 55t-55 136t53 135.5t141 54.5z" />
    <glyph glyph-name="quotesinglbase" unicode="&#x201a;" horiz-adv-x="546" 
d="M272 354q91 0 145 -59.5t54 -153.5q0 -104 -82 -241q-79 -138 -178 -232l-66 56q98 124 134 249q-91 0 -146 55t-55 136t53 135.5t141 54.5z" />
    <glyph glyph-name="quotedblleft" unicode="&#x201c;" horiz-adv-x="1017" 
d="M274 784q-91 0 -144.5 59.5t-53.5 153.5q0 103 80 242q82 138 180 231l65 -55q-96 -121 -133 -250q91 0 146 -54.5t55 -135.5t-53.5 -136t-141.5 -55zM745 784q-91 0 -144.5 59.5t-53.5 153.5q0 103 80 242q82 138 180 231l65 -55q-96 -121 -133 -250q91 0 146 -54.5
t55 -135.5t-53.5 -136t-141.5 -55z" />
    <glyph glyph-name="quotedblright" unicode="&#x201d;" horiz-adv-x="1017" 
d="M272 1464q91 0 145 -59.5t54 -153.5q0 -104 -82 -241q-79 -138 -178 -232l-66 56q98 124 134 249q-91 0 -146 55t-55 136t53 135.5t141 54.5zM743 1464q91 0 145 -59.5t54 -153.5q0 -104 -82 -241q-79 -138 -178 -232l-66 56q98 124 134 249q-91 0 -146 55t-55 136
t53 135.5t141 54.5z" />
    <glyph glyph-name="quotedblbase" unicode="&#x201e;" horiz-adv-x="1017" 
d="M272 354q91 0 145 -59.5t54 -153.5q0 -104 -82 -241q-79 -138 -178 -232l-66 56q98 124 134 249q-91 0 -146 55t-55 136t53 135.5t141 54.5zM743 354q91 0 145 -59.5t54 -153.5q0 -104 -82 -241q-79 -138 -178 -232l-66 56q98 124 134 249q-91 0 -146 55t-55 136
t53 135.5t141 54.5z" />
    <glyph glyph-name="dagger" unicode="&#x2020;" horiz-adv-x="823" 
d="M440 1120q58 12 135 39t111 27q44 0 71 -26t27 -68q0 -39 -27.5 -67t-70.5 -28q-32 0 -108 27q-81 29 -138 37q9 -43 37.5 -91.5t28.5 -66.5q0 -83 -31 -346q-30 -252 -63 -252q-36 0 -66 252q-29 271 -29 346q0 18 28 67t36 91q-58 -8 -137 -37q-74 -27 -107 -27
q-43 0 -70.5 28t-27.5 67q0 41 26.5 67.5t69.5 26.5q33 0 109 -27q78 -27 137 -39q-8 58 -37 137q-27 77 -27 109q0 44 26.5 71t68.5 27q39 0 66.5 -27t27.5 -69q0 -26 -29 -108t-37 -140z" />
    <glyph glyph-name="daggerdbl" unicode="&#x2021;" horiz-adv-x="823" 
d="M440 1120q58 12 135 39t111 27q44 0 71 -26t27 -68q0 -39 -27.5 -67t-70.5 -28q-32 0 -108 27q-81 29 -138 37q9 -43 37.5 -91.5t28.5 -66.5q0 -65 -31 -217q-30 -145 -63 -145q-36 0 -66 145q-29 155 -29 217q0 18 28 67t36 91q-58 -8 -137 -37q-74 -27 -107 -27
q-43 0 -70.5 28t-27.5 67q0 41 26.5 67.5t69.5 26.5q33 0 109 -27q78 -27 137 -39q-8 58 -37 137q-27 77 -27 109q0 44 26.5 71t68.5 27q39 0 66.5 -27t27.5 -69q0 -26 -29 -108t-37 -140zM381 -63q-59 -12 -135 -39q-77 -27 -109 -27q-61 -5 -86 44.5t0 99t86 44.5
q36 0 107 -26q82 -29 137 -37q-8 42 -36 92t-28 68q0 60 29 211q30 141 66 141q33 0 63 -143q31 -146 31 -209q0 -18 -28.5 -67.5t-37.5 -92.5q60 8 138 37q74 26 108 26q61 5 86 -44.5t0 -99t-84 -44.5q-34 0 -110 27t-138 39q12 -62 39 -140q27 -76 27 -106
q0 -43 -27.5 -71t-66.5 -28q-41 0 -68 27t-27 70q0 31 27 108q29 82 37 140z" />
    <glyph glyph-name="bullet" unicode="&#x2022;" horiz-adv-x="620" 
d="M117 670q80 80 192 80q113 0 193 -80t80 -193q0 -112 -80 -192q-81 -78 -193 -78q-111 0 -192 78q-78 81 -78 192q0 112 78 193z" />
    <glyph glyph-name="ellipsis" unicode="&#x2026;" horiz-adv-x="1642" 
d="M129 297q51 57 143 57q93 0 144 -57q56 -55 56 -133t-56 -135q-53 -56 -144 -56q-90 0 -143 56q-51 57 -51 135t51 133zM676 297q51 57 143 57q93 0 144 -57q55 -55 55 -133t-55 -135q-53 -56 -144 -56q-90 0 -143 56q-51 57 -51 135t51 133zM1225 297q51 57 143 57
t143 -57q55 -55 55 -133t-55 -135q-53 -56 -143 -56t-143 56q-51 57 -51 135t51 133z" />
    <glyph glyph-name="perthousand" unicode="&#x2030;" horiz-adv-x="2611" 
d="M133 1339q94 113 260 113q167 0 258 -113q94 -113 94 -335q0 -223 -94 -336q-91 -113 -258 -113q-166 0 -260 113q-92 115 -92 336q0 220 92 335zM379 0l938 1434h129l-938 -1434h-129zM498 1004q0 202 -23 282q-21 76 -82 76q-63 0 -84 -76q-22 -80 -22 -282
q0 -205 22 -285q21 -76 84 -76q61 0 82 76q23 84 23 285zM1171 766q94 113 261 113t258 -113q94 -113 94 -336t-94 -336q-90 -112 -258 -112t-261 112q-92 115 -92 336t92 336zM1958 766q94 113 260 113q167 0 258 -113q94 -113 94 -336t-94 -336q-90 -112 -258 -112
q-167 0 -260 112q-92 115 -92 336t92 336zM1536 430q0 202 -23 283q-21 75 -81 75q-63 0 -84 -75q-23 -84 -23 -283q0 -201 23 -285q21 -75 84 -75q60 0 81 75q23 84 23 285zM2322 430q0 206 -22 283q-21 75 -82 75q-63 0 -84 -75q-23 -84 -23 -283q0 -201 23 -285
q21 -75 84 -75q61 0 82 75q22 80 22 285z" />
    <glyph glyph-name="guilsinglleft" unicode="&#x2039;" horiz-adv-x="636" 
d="M557 63l-61 -45l-379 373q-37 40 -37 84q0 49 37 86l379 375l61 -47l-178 -414z" />
    <glyph glyph-name="guilsinglright" unicode="&#x203a;" horiz-adv-x="636" 
d="M520 391l-379 -373l-61 45l178 412l-178 414l61 47l379 -375q37 -37 37 -86q0 -44 -37 -84z" />
    <glyph glyph-name="fraction" unicode="&#x2044;" horiz-adv-x="251" 
d="M-408 0l938 1434h129l-938 -1434h-129z" />
    <glyph glyph-name="uni2070" unicode="&#x2070;" horiz-adv-x="786" 
d="M133 1339q94 113 260 113q167 0 258 -113q94 -113 94 -335q0 -223 -94 -336q-91 -113 -258 -113q-166 0 -260 113q-92 115 -92 336q0 220 92 335zM498 1004q0 202 -23 282q-21 76 -82 76q-63 0 -84 -76q-22 -80 -22 -282q0 -205 22 -285q21 -76 84 -76q61 0 82 76
q23 84 23 285z" />
    <glyph glyph-name="uni2074" unicode="&#x2074;" horiz-adv-x="786" 
d="M610 573h-243v193h-332v76l403 610h172v-584h142v-102h-142v-193zM367 1153l-189 -285h189v285z" />
    <glyph glyph-name="uni2075" unicode="&#x2075;" horiz-adv-x="786" 
d="M739 866q0 -137 -104.5 -224t-280.5 -87q-120 0 -211 39q-96 41 -96 117q0 44 28 73t70 29q39 0 65.5 -16t41.5 -39t30.5 -46t42.5 -39t66 -16q68 0 111 37t43 99q0 69 -63 113t-167 44q-114 0 -182 -35l-70 25l76 494h432q26 0 35 26h76l-29 -219h-438l-18 -121
q71 21 180 21q164 0 263 -75t99 -200z" />
    <glyph glyph-name="uni2076" unicode="&#x2076;" horiz-adv-x="786" 
d="M453 1130q138 0 215 -83t77 -193q0 -121 -98 -209q-101 -90 -254 -90q-164 0 -258 105.5t-94 289.5q0 124 55 223t148 156q179 110 397 123v-90q-245 -9 -324 -252q59 20 136 20zM393 643q105 0 105 211q0 80 -34.5 126t-96.5 46q-41 0 -72 -8q-8 -47 -8 -125
q0 -131 23.5 -190.5t82.5 -59.5z" />
    <glyph glyph-name="uni2077" unicode="&#x2077;" horiz-adv-x="786" 
d="M449 573h-248q28 190 117.5 359t218.5 291h-306q-42 0 -57 -12.5t-27 -59.5h-75l37 309h73q0 -26 35 -26h498v-127q-228 -273 -266 -734z" />
    <glyph glyph-name="uni2078" unicode="&#x2078;" horiz-adv-x="786" 
d="M586 1065q162 -82 162 -244q0 -120 -100 -193t-275 -73q-147 0 -239.5 66t-92.5 170q0 126 139 206q-100 75 -100 213q0 107 91 174.5t239 67.5q136 0 217.5 -59t81.5 -144q0 -116 -123 -184zM444 1362q-55 0 -85.5 -29t-30.5 -82q0 -45 31 -75t98 -56q108 62 108 144
q0 45 -32.5 71.5t-88.5 26.5zM358 643q65 0 103.5 30.5t38.5 86.5q0 62 -46 100.5t-159 77.5q-98 -58 -98 -158q0 -63 44.5 -100t116.5 -37z" />
    <glyph glyph-name="uni2079" unicode="&#x2079;" horiz-adv-x="786" 
d="M393 1452q164 0 258 -104.5t94 -288.5q0 -125 -55 -225t-149 -158q-181 -109 -398 -121v90q244 6 324 250q-71 -18 -133 -18q-139 0 -217 84q-76 85 -76 192q0 119 96 209q101 90 256 90zM420 981q24 0 69 10q9 53 9 125q0 131 -23.5 189.5t-81.5 58.5q-106 0 -106 -211
q0 -80 35 -126t98 -46z" />
    <glyph glyph-name="uni207B" unicode="&#x207b;" horiz-adv-x="786" 
d="M31 961v90h723v-90h-723z" />
    <glyph glyph-name="uni207D" unicode="&#x207d;" horiz-adv-x="468" 
d="M422 1591l35 -45q-98 -76 -157.5 -220t-59.5 -318q0 -173 59 -315.5t158 -223.5l-35 -45q-381 190 -381 584q0 392 381 583z" />
    <glyph glyph-name="uni207E" unicode="&#x207e;" horiz-adv-x="468" 
d="M47 424l-33 45q99 81 157 223t58 316q0 175 -58.5 318.5t-156.5 219.5l33 45q383 -190 383 -583q0 -394 -383 -584z" />
    <glyph glyph-name="uni207F" unicode="&#x207f;" horiz-adv-x="964" 
d="M952 567h-446v78q49 6 64.5 18t15.5 42v354q0 90 -92 90q-57 0 -115 -37v-407q0 -30 15.5 -42t64.5 -18v-78h-447v78q47 6 62.5 18t15.5 42v350q0 43 -35 43h-43v76l260 133h107v-74q121 74 233 74q262 0 262 -256v-346q0 -30 15.5 -42t62.5 -18v-78z" />
    <glyph glyph-name="uni2080" unicode="&#x2080;" horiz-adv-x="786" 
d="M133 389q94 113 260 113q167 0 258 -113q94 -113 94 -336t-94 -336q-90 -112 -258 -112q-167 0 -260 112q-92 115 -92 336t92 336zM498 53q0 203 -23 283q-21 76 -82 76q-63 0 -84 -76q-22 -80 -22 -283q0 -202 22 -282q21 -78 84 -78q61 0 82 78q23 84 23 282z" />
    <glyph glyph-name="uni2081" unicode="&#x2081;" horiz-adv-x="786" 
d="M666 -377h-545v66q99 3 125 16q26 12 26 55v525q0 34 -28 34h-123v62l305 121h90v-742q0 -41 26 -54t124 -17v-66z" />
    <glyph glyph-name="uni2082" unicode="&#x2082;" horiz-adv-x="786" 
d="M182 195h-104q0 143 86 225t239 82q130 0 211.5 -69.5t81.5 -180.5q0 -243 -370 -418h247q39 0 55 13t29 59h74l-37 -309h-73q0 26 -35 26h-498v129q185 120 273 237.5t88 262.5q0 67 -33 106t-92 39q-142 0 -142 -202z" />
    <glyph glyph-name="uni2083" unicode="&#x2083;" horiz-adv-x="786" 
d="M518 127q99 -17 160 -78.5t61 -148.5q0 -131 -104 -213t-281 -82q-117 0 -213 41q-94 40 -94 114q0 44 28.5 73.5t69.5 29.5q45 0 75.5 -24.5t44.5 -53.5t41.5 -53.5t66.5 -24.5q116 0 116 166q0 82 -49 128t-141 46h-23v103h21q135 0 135 133q0 55 -28 84.5t-78 29.5
q-57 0 -95 -40t-45 -113h-102q10 124 89 191t216 67q135 0 213 -52.5t78 -140.5q0 -133 -162 -182z" />
    <glyph glyph-name="uni2084" unicode="&#x2084;" horiz-adv-x="786" 
d="M610 -377h-243v193h-332v75l403 611h172v-584h142v-102h-142v-193zM367 203l-189 -285h189v285z" />
    <glyph glyph-name="uni2085" unicode="&#x2085;" horiz-adv-x="786" 
d="M739 -84q0 -137 -104.5 -224t-280.5 -87q-115 0 -211 41t-96 114q0 44 28.5 73.5t69.5 29.5q39 0 65.5 -16t41.5 -39t30.5 -46t42.5 -39t66 -16q69 0 111.5 36.5t42.5 98.5q0 69 -63 113.5t-167 44.5q-114 0 -182 -35l-70 25l76 493h432q26 0 35 27h76l-29 -219h-438
l-18 -121q67 20 180 20q164 0 263 -75t99 -199z" />
    <glyph glyph-name="uni2086" unicode="&#x2086;" horiz-adv-x="786" 
d="M453 180q137 0 215 -84q77 -83 77 -192q0 -121 -98 -209q-101 -90 -254 -90q-164 0 -258 105.5t-94 289.5q0 124 55 223t148 156q179 110 397 123v-90q-245 -9 -324 -252q59 20 136 20zM393 -307q105 0 105 211q0 80 -34.5 126t-96.5 46q-41 0 -72 -8q-8 -47 -8 -125
q0 -131 23.5 -190.5t82.5 -59.5z" />
    <glyph glyph-name="uni2087" unicode="&#x2087;" horiz-adv-x="786" 
d="M449 -377h-248q28 189 117.5 357.5t218.5 291.5h-306q-42 0 -57 -12.5t-27 -58.5h-75l37 309h73q0 -27 35 -27h498v-127q-228 -273 -266 -733z" />
    <glyph glyph-name="uni2088" unicode="&#x2088;" horiz-adv-x="786" 
d="M586 115q162 -82 162 -244q0 -120 -100 -193t-275 -73q-148 0 -240 65.5t-92 169.5q0 127 139 207q-100 75 -100 213q0 107 91 174.5t239 67.5q136 0 217.5 -59t81.5 -144q0 -117 -123 -184zM444 412q-55 0 -85.5 -29t-30.5 -82q0 -45 31 -75t98 -56q108 62 108 143
q0 45 -32.5 72t-88.5 27zM358 -307q65 0 103.5 30.5t38.5 86.5q0 62 -46 100.5t-159 77.5q-98 -58 -98 -158q0 -63 44.5 -100t116.5 -37z" />
    <glyph glyph-name="uni2089" unicode="&#x2089;" horiz-adv-x="786" 
d="M393 502q164 0 258 -104.5t94 -288.5q0 -125 -55 -224.5t-149 -156.5q-179 -111 -398 -123v90q244 6 324 250q-74 -19 -133 -19q-139 0 -217 84q-76 85 -76 193q0 119 96 209q101 90 256 90zM420 31q24 0 69 10q9 52 9 125q0 131 -23.5 189.5t-81.5 58.5
q-106 0 -106 -211q0 -80 35 -126t98 -46z" />
    <glyph glyph-name="uni208D" unicode="&#x208d;" horiz-adv-x="468" 
d="M422 641l35 -45q-98 -76 -157.5 -220.5t-59.5 -318.5q0 -173 59 -314.5t158 -223.5l-35 -45q-381 190 -381 583t381 584z" />
    <glyph glyph-name="uni208E" unicode="&#x208e;" horiz-adv-x="468" 
d="M47 -526l-33 45q99 81 157 222.5t58 315.5q0 176 -58.5 319.5t-156.5 219.5l33 45q383 -190 383 -584q0 -393 -383 -583z" />
    <glyph glyph-name="colonmonetary" unicode="&#x20a1;" horiz-adv-x="1296" 
d="M1126 494l129 -43q-144 -385 -544 -385h-6l-37 -127h-129l39 137q-75 15 -91 20l-45 -157h-129l60 206q-149 80 -229.5 227.5t-80.5 344.5q0 296 177 473q179 176 471 176h6l37 129h129l-41 -141q44 -11 88 -31l49 172h129l-43 -156h59l84 -362l-82 -23q-47 100 -122 172
l-265 -938h9q143 0 241 88q94 84 137 218zM809 1237l-270 -954q28 -37 77 -66l281 989q-48 23 -88 31zM440 717q0 -140 23 -252l217 772q-240 -53 -240 -520z" />
    <glyph glyph-name="uni20A2" unicode="&#x20a2;" horiz-adv-x="1421" 
d="M1245 449l135 -46q-156 -434 -604 -434q-320 0 -516 205q-197 206 -197 543t197 543q195 204 516 204q193 0 332 -92l29 62h98l100 -414l-84 -25q-75 156 -190.5 247t-247.5 91q-360 0 -360 -616q0 -479 215 -584v465q0 59 -52 59h-47v82l314 172h100v-118
q93 118 217 118q74 0 116 -44t42 -122q0 -71 -35 -116t-86 -45q-32 0 -58 17t-40.5 37t-31 37t-30.5 17q-53 0 -94 -53v-502q191 81 262 312z" />
    <glyph glyph-name="franc" unicode="&#x20a3;" horiz-adv-x="1335" 
d="M41 334v139h162v731q0 86 -31 111q-27 24 -131 33v86h1169l121 -371l-76 -33q-99 138 -226 201t-314 63h-88q-29 0 -45.5 -16t-16.5 -45v-416h242q98 0 133.5 41t40.5 135h94v-491h-94q-5 94 -40.5 135t-133.5 41h-242v-205h168v-139h-168v-105q0 -85 31 -110
q35 -24 141 -33v-86h-696v86q101 9 131 33q31 25 31 110v105h-162z" />
    <glyph glyph-name="peseta" unicode="&#x20a7;" horiz-adv-x="1548" 
d="M41 985v139h162v80q0 88 -29 111q-27 24 -133 33v86h707q317 0 478.5 -71.5t190.5 -238.5h131v-139h-131q-27 -185 -190 -252q-162 -67 -486 -67h-176v-437q0 -84 29 -110q30 -24 133 -33v-86h-686v86q101 9 131 33q31 25 31 110v756h-162zM565 1233v-109h461
q-17 93 -86 131.5t-192 38.5h-121q-29 0 -45.5 -16t-16.5 -45zM1026 985h-461v-180h176q251 0 285 180z" />
    <glyph glyph-name="Euro" unicode="&#x20ac;" 
d="M51 786v123h109q44 269 196 412q155 143 367 143q174 0 293 -90q117 -88 117 -209q0 -93 -54 -151t-137 -58q-66 0 -108.5 41.5t-42.5 98.5q0 107 100 131q31 6 31 22q0 37 -43.5 63.5t-108.5 26.5q-119 0 -171 -99.5t-64 -330.5h358v-123h-361v-151h361v-123h-352
q35 -403 247 -403q182 0 277 225l113 -64q-132 -301 -443 -301q-219 0 -373 141.5t-200 401.5h-111v123h94q-2 18 -2 82q0 55 2 69h-94z" />
    <glyph glyph-name="uni2113" unicode="&#x2113;" horiz-adv-x="849" 
d="M201 487v185q0 245 32 348q33 110 105 188q86 92 194 92q92 0 147.5 -66t55.5 -183q0 -122 -94 -260q-37 -53 -98 -113q-56 -59 -94 -92l-87 -72v-131q0 -279 166 -279q120 0 220 127l38 -36q-134 -220 -327 -220q-124 0 -189 80q-69 78 -69 277v76l-113 -84l-25 49z
M362 815v-219q248 217 248 455q0 80 -32 130t-86 50q-69 0 -99.5 -99t-30.5 -317z" />
    <glyph glyph-name="uni2117" unicode="&#x2117;" horiz-adv-x="1574" 
d="M260 1245q219 219 528 219q310 0 529 -219t219 -528q0 -310 -219 -529t-529 -219q-309 0 -528 219t-219 529q0 309 219 528zM788 57q272 0 465 193q195 195 195 467t-195 467q-192 192 -465 192q-277 0 -469 -192t-192 -467t192 -467q193 -193 469 -193zM840 291h-445v65
q51 5 67.5 19t16.5 55v584q0 41 -16 53.5t-68 17.5v66h422q236 0 337 -50t101 -181q0 -139 -101.5 -191.5t-342.5 -52.5h-55v-246q0 -42 16 -55.5t68 -18.5v-65zM834 1049h-41q-37 0 -37 -37v-234h55q89 0 130.5 32.5t41.5 109.5q0 74 -36 101.5t-113 27.5z" />
    <glyph glyph-name="trademark" unicode="&#x2122;" horiz-adv-x="1028" 
d="M147 1073v291q0 18 -18 18q-56 0 -96 -79l-31 12l37 133h33q3 -14 22 -14h254q15 0 21 12h34l33 -131l-30 -12q-40 79 -97 79q-18 0 -18 -18v-291q0 -18 8 -25t33 -12v-32h-226v32q26 5 33.5 11t7.5 26zM1001 1004h-223v32q24 1 31.5 8.5t7.5 28.5v238l-110 -307h-48
l-110 307v-238q0 -21 7.5 -28.5t31.5 -8.5v-32h-139v32q24 5 31 11t7 26v291q0 20 -7 26t-31 11v33h206l72 -197l72 197h202v-33q-24 -5 -31 -11t-7 -26v-291q0 -20 7 -26t31 -11v-32z" />
    <glyph glyph-name="uni2126" unicode="&#x2126;" horiz-adv-x="1624" 
d="M1505 -45h-96q0 45 -47 45h-483v326q154 110 221 238.5t67 318.5q0 223 -83 336.5t-273 113.5q-188 0 -271 -113.5t-83 -336.5q0 -190 67 -318.5t221 -238.5v-326h-483q-47 0 -47 -45h-96l-53 471h96q22 -98 43 -119q22 -22 86 -22h276q-200 101 -340 241
q-75 76 -117 174.5t-42 202.5q0 259 198 408q200 153 545 153q346 0 547 -151q198 -149 198 -410q0 -105 -42.5 -203t-118.5 -174q-137 -140 -338 -241h276q62 0 84 22q23 20 45 119h97z" />
    <glyph glyph-name="estimated" unicode="&#x212e;" horiz-adv-x="1724" 
d="M1661 664h-1294q-11 0 -11 -11v-389q0 -28 19 -47q199 -211 491 -211q310 0 512 236h117q-111 -130 -277.5 -204.5t-355.5 -74.5q-329 0 -565 211q-234 212 -234 508t234 508q236 211 565 211q330 0 563 -211q236 -211 236 -508v-18zM1368 715v391q0 29 -20 49
q-200 203 -482 203q-286 0 -489 -209q-21 -21 -21 -49v-385q0 -13 11 -13h993q8 0 8 13z" />
    <glyph glyph-name="partialdiff" unicode="&#x2202;" horiz-adv-x="1150" 
d="M575 -31q-242 0 -391 140q-145 142 -145 362q0 218 139 360q138 144 354 144q115 0 201 -57q-27 362 -151 362q-42 0 -103 -61q-63 -60 -117 -60q-57 0 -93 35.5t-36 89.5q0 82 60 131t170 49q115 0 226 -57.5t204 -163.5q96 -108 152.5 -280.5t56.5 -372.5
q0 -284 -144 -453q-140 -168 -383 -168zM741 788q-73 64 -168 64q-96 0 -138 -93.5t-42 -289.5q0 -193 43 -285t139 -92q92 0 132.5 100t40.5 308q0 144 -7 288z" />
    <glyph glyph-name="uni2206" unicode="&#x2206;" horiz-adv-x="1462" 
d="M610 1434h248l553 -1434h-1354zM616 1059l-356 -920h713z" />
    <glyph glyph-name="product" unicode="&#x220f;" horiz-adv-x="1662" 
d="M1622 0h-686v86q101 9 131 33q31 25 31 110v1004q0 29 -16.5 45t-45.5 16h-409q-29 0 -45.5 -16t-16.5 -45v-1004q0 -85 31 -110q30 -24 131 -33v-86h-686v86q101 9 131 33q31 25 31 110v975q0 86 -31 111q-27 24 -131 33v86h1581v-86q-103 -9 -133 -33q-29 -26 -29 -111
v-975q0 -85 31 -110q30 -24 131 -33v-86z" />
    <glyph glyph-name="summation" unicode="&#x2211;" horiz-adv-x="1320" 
d="M395 285h336q233 0 332 30q103 35 184 144l74 -43l-201 -416h-1079v86l420 580l-412 682v86h1065l121 -371l-76 -33q-99 141 -222.5 202.5t-311.5 61.5h-111l281 -460z" />
    <glyph glyph-name="minus" unicode="&#x2212;" horiz-adv-x="1161" 
d="M16 653v131h1129v-131h-1129z" />
    <glyph glyph-name="radical" unicode="&#x221a;" horiz-adv-x="1161" 
d="M16 449v131h312l168 -408l524 1262h141l-594 -1434h-141l-186 449h-224z" />
    <glyph glyph-name="infinity" unicode="&#x221e;" horiz-adv-x="1746" 
d="M1315 1120q166 0 282 -119q119 -119 119 -286q0 -166 -119 -285q-120 -117 -282 -117q-95 0 -174 36t-139.5 95.5t-129.5 157.5q-104 -147 -204.5 -218t-235.5 -71q-162 0 -282 117q-119 119 -119 285q0 167 116 286q119 119 285 119q95 0 174 -36t138.5 -95.5
t129.5 -157.5q104 147 205 218t236 71zM1315 444q112 0 190 78q80 80 80 193q0 114 -80 194q-76 82 -190 82q-105 0 -185.5 -64.5t-177.5 -207.5q97 -145 177.5 -210t185.5 -65zM797 715q-51 74 -89.5 120.5t-82.5 83.5t-91 53.5t-102 16.5q-112 0 -192 -80
q-78 -81 -78 -194q0 -112 78 -193q80 -80 192 -80q106 0 184.5 63t180.5 210z" />
    <glyph glyph-name="integral" unicode="&#x222b;" horiz-adv-x="575" 
d="M444 1573v-1495q0 -234 -137 -359q-139 -127 -344 -127q-118 0 -185 48t-67 137q0 54 45.5 95.5t102.5 41.5q38 0 66.5 -18t44.5 -43.5t29 -51t27 -43.5t31 -18q35 0 54.5 31.5t19.5 85.5v1503q0 223 137 348q138 129 344 129q107 0 174.5 -45t67.5 -119
q0 -64 -41 -105.5t-106 -41.5q-39 0 -66.5 17t-42 41t-25.5 48t-25 41t-32 17q-32 0 -52 -31.5t-20 -85.5z" />
    <glyph glyph-name="approxequal" unicode="&#x2248;" horiz-adv-x="1161" 
d="M16 791v159q121 115 291 115q142 0 289 -78q130 -74 256 -74q181 0 293 142v-160q-119 -113 -293 -113q-145 0 -289 78q-136 74 -254 74q-78 0 -158.5 -38t-134.5 -105zM16 385v160q120 114 291 114q144 0 289 -77q130 -74 256 -74q182 0 293 141v-160
q-118 -112 -293 -112q-145 0 -289 78q-134 73 -254 73q-78 0 -158.5 -38t-134.5 -105z" />
    <glyph glyph-name="notequal" unicode="&#x2260;" horiz-adv-x="1161" 
d="M16 856v131h572l84 295h135l-84 -295h422v-131h-459l-78 -274h537v-131h-574l-84 -295h-135l84 295h-420v131h457l78 274h-535z" />
    <glyph glyph-name="lessequal" unicode="&#x2264;" horiz-adv-x="1161" 
d="M1102 330v-142l-1041 430v144l1041 430v-143l-869 -361zM16 0v127h1129v-127h-1129z" />
    <glyph glyph-name="greaterequal" unicode="&#x2265;" horiz-adv-x="1161" 
d="M59 188v142l869 358l-869 361v143l1041 -430v-144zM1145 127v-127h-1129v127h1129z" />
    <glyph glyph-name="lozenge" unicode="&#x25ca;" horiz-adv-x="1161" 
d="M80 717l430 717h141l432 -717l-432 -717h-141zM221 717l359 -598l360 598l-360 598z" />
    <glyph glyph-name="hyphen.inferior" unicode="&#x8331;" horiz-adv-x="403" 
d="M16 -12v133h371v-133h-371z" />
    <glyph glyph-name="uniF6C3" unicode="&#xf6c3;" horiz-adv-x="0" 
d="M-160 -526l-51 41q30 55 49 108q-92 -4 -129.5 68.5t-0.5 145t126 67.5q66 0 106 -43.5t40 -112.5q0 -64 -41 -140t-99 -134z" />
    <glyph glyph-name="uniF6DD" unicode="&#xf6dd;" horiz-adv-x="2609" 
d="M1970 -377h-543v86q69 7 92 25t23 63v203h-444l-426 666h-107v-437q0 -85 31 -110q30 -24 131 -33v-86h-686v86q101 9 131 33q31 25 31 110v975q0 88 -29 111q-27 24 -133 33v86h707q349 0 511 -86.5t162 -292.5q0 -309 -374 -367l313 -477q38 -62 76.5 -88t105.5 -37
v576q0 61 -51 61h-66v80l316 172h117v-94q107 94 264 94q196 0 315 -137q121 -139 121 -365q0 -231 -129 -369q-126 -135 -348 -135q-135 0 -223 64v-236q0 -45 22.5 -63t89.5 -25v-86zM748 1294h-121q-29 0 -45.5 -16t-16.5 -45v-428h176q146 0 218.5 59t72.5 191
q0 131 -68.5 185t-215.5 54zM1858 743v-544q57 -84 161 -84q112 0 163.5 86.5t51.5 271.5q0 184 -51.5 269t-163.5 85q-108 0 -161 -84z" />
    <glyph glyph-name="uniF6E4" unicode="&#xf6e4;" horiz-adv-x="786" 
d="M745 821q0 -111 -84.5 -185t-224.5 -81v-119h-76v121q-106 6 -174 51l-16 -35h-70l-67 281l57 18q113 -224 270 -227v275l-28 12q-96 39 -168 94q-84 63 -84 186q0 99 80.5 166.5t212.5 73.5v55h76v-59q80 -9 124 -47l15 33h69l62 -250l-55 -17q-98 192 -215 195v-248
l32 -14q67 -27 100.5 -45t75.5 -51q88 -64 88 -183zM303 1253q0 -54 70 -100v197q-70 -27 -70 -97zM436 879v-222q78 28 78 103q0 65 -78 119z" />
    <glyph glyph-name="uniF6E6" unicode="&#xf6e6;" horiz-adv-x="403" 
d="M16 938v133h371v-133h-371z" />
    <glyph glyph-name="uniF6E8" unicode="&#xf6e8;" horiz-adv-x="446" 
d="M223 829q65 0 105.5 -40.5t40.5 -98.5q0 -56 -40.5 -95.5t-105.5 -39.5q-67 0 -106 39.5t-39 95.5q0 58 39.5 98.5t105.5 40.5z" />
    <glyph glyph-name="uniF6E9" unicode="&#xf6e9;" horiz-adv-x="907" 
d="M514 647q-132 -100 -262 -100q-93 0 -153 49t-60 123q0 65 42 117.5t118 85.5q72 33 139.5 52t171.5 40v78q0 66 -16 90t-60 24q-35 0 -55 -20t-41 -72q-34 -98 -152 -98q-46 0 -74 27t-28 77q0 88 111 137q112 50 280 50q148 0 236 -60t88 -178v-352q0 -45 41 -45
q26 0 39 8v-92q-68 -39 -181 -39q-163 0 -184 98zM510 748v167q-101 -20 -146 -48.5t-45 -80.5q0 -35 25 -56t62 -21q53 0 104 39z" />
    <glyph glyph-name="uniF6EA" unicode="&#xf6ea;" horiz-adv-x="958" 
d="M12 1456v76l260 133h107v-420q80 62 196 62q154 0 256 -105q105 -102 105 -276q0 -177 -108.5 -279t-292.5 -102q-135 0 -218 65l-118 -65h-109v870q0 41 -35 41h-43zM379 1114v-379q38 -59 110 -59q154 0 154 250q0 130 -38.5 189t-115.5 59q-72 0 -110 -60z" />
    <glyph glyph-name="uniF6EB" unicode="&#xf6eb;" horiz-adv-x="958" 
d="M500 1456v76l262 133h106v-960q0 -30 15.5 -42t64.5 -18v-78q-190 0 -368 -22v59q-83 -59 -199 -59q-154 0 -256 102q-102 105 -102 279t102 276q102 105 256 105q114 0 199 -60v168q0 41 -35 41h-45zM580 733v383q-42 60 -111 60q-154 0 -154 -250t154 -250q72 0 111 57
z" />
    <glyph glyph-name="uniF6EC" unicode="&#xf6ec;" horiz-adv-x="849" 
d="M829 948h-512q-2 -6 -2 -26q0 -254 181 -254q71 0 142.5 45t111.5 121l98 -60q-122 -229 -389 -229q-199 0 -318 104q-118 106 -118 277q0 165 116 272q121 109 295 109q192 0 293.5 -94.5t101.5 -264.5zM324 1071h204q0 125 -94 125q-50 0 -76.5 -29.5t-33.5 -95.5z" />
    <glyph glyph-name="uniF6ED" unicode="&#xf6ed;" horiz-adv-x="471" 
d="M403 1516q0 -59 -45 -101.5t-116 -42.5t-115.5 42.5t-44.5 101.5q0 62 44.5 105.5t115.5 43.5q72 0 116.5 -43.5t44.5 -105.5zM459 567h-447v78q47 6 62.5 18t15.5 42v350q0 43 -35 43h-43v76l260 133h107v-602q0 -30 15.5 -42t64.5 -18v-78z" />
    <glyph glyph-name="uniF6EE" unicode="&#xf6ee;" horiz-adv-x="471" 
d="M459 567h-447v78q47 6 62.5 18t15.5 42v710q0 41 -35 41h-43v76l260 133h107v-960q0 -30 15.5 -42t64.5 -18v-78z" />
    <glyph glyph-name="uniF6EF" unicode="&#xf6ef;" horiz-adv-x="1458" 
d="M952 567h-446v78q49 6 64.5 18t15.5 42v354q0 90 -92 90q-57 0 -115 -37v-407q0 -30 15.5 -42t64.5 -18v-78h-447v78q47 6 62.5 18t15.5 42v350q0 43 -35 43h-43v76l260 133h107v-74q121 74 233 74q164 0 226 -99q51 43 126.5 71t141.5 28q260 0 260 -256v-346
q0 -30 15.5 -42t64.5 -18v-78h-447v78q47 6 62.5 18t15.5 42v354q0 90 -92 90q-61 0 -117 -39q6 -27 6 -59v-346q0 -30 15.5 -42t62.5 -18v-78z" />
    <glyph glyph-name="uniF6F0" unicode="&#xf6f0;" horiz-adv-x="901" 
d="M137 1200q116 107 314 107t311 -107q117 -105 117 -274t-117 -277q-113 -104 -311 -104t-314 104q-114 108 -114 277t114 274zM315 926q0 -145 31 -210t105 -65q73 0 103 64.5t30 210.5q0 145 -29.5 207.5t-103.5 62.5t-105 -63.5t-31 -206.5z" />
    <glyph glyph-name="uniF6F1" unicode="&#xf6f1;" horiz-adv-x="724" 
d="M590 1026q-33 0 -58 13.5t-37 29.5t-26.5 29.5t-28.5 13.5q-33 0 -61 -31v-376q0 -30 15.5 -42t64.5 -18v-78h-447v78q47 6 62.5 18t15.5 42v350q0 43 -35 43h-43v76l260 133h107v-86q77 86 188 86q67 0 106.5 -36.5t39.5 -101.5q0 -64 -36 -103.5t-87 -39.5z" />
    <glyph glyph-name="uniF6F2" unicode="&#xf6f2;" horiz-adv-x="768" 
d="M465 1051q71 -21 106.5 -35t81.5 -41q99 -53 99 -164q0 -122 -96.5 -190t-252.5 -68t-241 55l-19 -41h-69l-58 262l64 17q52 -85 140 -136t171 -51q90 0 90 62q0 29 -33 48.5t-108 41.5q-115 39 -160 61q-65 36 -98 80t-39 113q0 104 93.5 168.5t232.5 64.5
q131 0 213 -55l20 41h68l43 -221l-68 -21q-46 73 -114.5 115.5t-131.5 42.5q-32 0 -51.5 -16t-19.5 -41q0 -52 137 -92z" />
    <glyph glyph-name="uniF6F3" unicode="&#xf6f3;" horiz-adv-x="567" 
d="M545 1159h-166v-391q0 -102 84 -102q50 0 82 14v-111q-76 -24 -185 -24q-139 0 -204.5 51.5t-65.5 171.5v391h-78v74q205 76 260 287h107v-236h166v-125z" />
    <glyph glyph-name="uniF8FF" unicode="&#xf8ff;" horiz-adv-x="2381" 
d="M406 -27q-166 0 -269 109q-100 109 -100 254q0 81 40.5 135.5t98.5 54.5q44 0 74.5 -30t30.5 -74q0 -73 -95 -111q-39 -14 -39 -51q0 -60 55 -107t148 -47q98 0 180 70q84 72 84 133q0 21 -20.5 66t-20.5 69q0 42 31 67.5t84 25.5q49 0 77 -34t28 -81q0 -49 -44 -111
t-108 -108l6 -13q121 59 266 183q117 97 152 200t35 258q0 148 98 148q32 0 80 -45q49 -43 78 -43q20 0 32.5 11.5t12.5 29.5q0 13 -13.5 30t-30.5 33.5t-30.5 49.5t-13.5 73q0 62 47 121q48 57 115 57q37 0 64.5 -27.5t37.5 -76.5q7 -44 20 -61t37 -17q35 0 35 62
q0 4 -7 40.5t-7 69.5q0 36 26 63.5t62 32.5q20 3 59 22t56 19q31 0 56 -29.5t25 -70.5q0 -27 -24.5 -71.5t-24.5 -57.5q0 -31 37 -31t58 76q20 75 51 133q35 74 174 74q70 3 102 -32t27 -82t-28.5 -91.5t-55.5 -60.5q-18 -14 -24 -24t0 -18.5t26 -17.5q35 -16 61.5 -54
t26.5 -95q0 -54 -43.5 -98t-89.5 -44q-32 0 -74 25q-41 27 -45 27q-29 0 -29 -35q0 -19 21 -37.5t47 -33.5t47 -43t21 -62q0 -54 -38.5 -86.5t-86.5 -32.5q-43 0 -97 57q-55 58 -100 58q-16 0 -26.5 -12t-10.5 -27q0 -31 39 -76t39 -92q0 -41 -31 -69t-73 -28
q-43 -2 -94 24.5t-87 59.5t-66.5 58.5t-39.5 23.5q-7 0 -14 -7t-7 -15q0 -20 43 -66q43 -43 43 -90q0 -33 -33 -59.5t-87 -26.5q-49 0 -130 35q-78 35 -167 35q-160 0 -381 -156l6 -12q115 59 190 59q104 0 158.5 -58t54.5 -140q0 -96 -65 -152h-23q-41 238 -201 238
q-74 0 -223 -70t-286 -70zM426 862q0 53 68 68q0 118 15 185t60 114q73 76 101 127q15 30 35 30q22 0 34 -30q15 -38 101 -127q45 -47 60 -114t15 -185q68 -15 68 -68q0 -102 -84 -168q-81 -63 -194 -63q-114 0 -195 63q-84 66 -84 168z" />
    <glyph glyph-name="s_t" unicode="&#xfb06;" horiz-adv-x="1695" 
d="M1659 813h-225v-563q0 -139 110 -139q65 0 115 20v-125q-110 -35 -225 -35q-160 0 -238 65.5t-78 213.5v563h-112v80q237 88 237 274q0 104 -68.5 172t-179.5 68q-129 0 -211 -76q-82 -73 -82 -180q0 -119 74 -240l142 -237l-87 -51q-62 110 -152.5 173.5t-178.5 63.5
q-59 0 -91 -25t-32 -69q0 -48 45 -77.5t147 -57.5q59 -17 78.5 -23t55 -19t73.5 -32q87 -37 130 -96t50 -154q0 -156 -116.5 -247t-307.5 -91q-85 0 -174.5 25.5t-142.5 62.5l-25 -57h-77l-74 336l70 18q76 -125 188 -194.5t225 -69.5q67 0 107.5 29t40.5 82q0 51 -47.5 80
t-173.5 67q-102 34 -158 57.5t-111 59.5q-108 70 -108 207q0 136 112 217q115 86 283 86q74 0 133 -19q-43 90 -43 195q0 155 127 270t311 115q187 0 312 -113q127 -112 127 -311v-168h225v-131z" />
    <glyph glyph-name="_1" horiz-adv-x="0" 
 />
    <glyph glyph-name="CR.001" horiz-adv-x="681" 
 />
    <glyph glyph-name="A.s1" horiz-adv-x="1964" 
d="M1358 1434l469 -1215q26 -68 59.5 -96.5t91.5 -36.5v-86h-651v86q49 4 76 10.5t41.5 21t13.5 36.5t-14 59l-72 184h-512l-72 -184q-24 -65 7 -92t131 -35v-86h-445v86q64 8 99 35.5t61 95.5l379 987q17 42 -1 66t-63 24h-348q-211 0 -336 -98q-122 -94 -122 -248
q0 -113 59 -185.5t137 -72.5q80 0 80 70q0 13 -19.5 64t-19.5 81q0 72 47 117t117 45q85 0 133.5 -60t48.5 -149q0 -140 -100 -227q-101 -88 -256 -88q-169 0 -273 108.5t-104 296.5q0 223 172 355q171 131 436 131h750zM1114 1059l-201 -522h404z" />
    <glyph glyph-name="A.s2" horiz-adv-x="1964" 
d="M1358 1434l469 -1215q26 -68 59.5 -96.5t91.5 -36.5v-86h-651v86q95 8 119.5 33.5t-0.5 93.5l-72 184h-514l-72 -184q-24 -65 7 -92t131 -35v-86h-443v86q64 8 99 36t59 95l377 981q13 43 -2 66t-64 41q-159 57 -344 57q-211 0 -336 -98q-122 -98 -122 -250
q0 -113 59 -185.5t137 -72.5q80 0 80 69q0 13 -19.5 65.5t-19.5 80.5q0 72 47 118t117 46q85 0 133.5 -60t48.5 -149q0 -141 -100 -228q-104 -90 -256 -90q-168 0 -272.5 109t-104.5 297q0 233 174 358q176 129 434 129q101 0 303 -33q197 -34 389 -34h58zM1116 1059
l-203 -522h406z" />
    <glyph glyph-name="A.s3" horiz-adv-x="1466" 
d="M860 1434l469 -1215q26 -68 60 -96.5t92 -36.5v-86h-652v86q95 8 119.5 33.5t-0.5 93.5l-90 229q-92 -102 -242 -102q-101 0 -247 70l-76 -197q-26 -65 4.5 -92t130.5 -35v-86h-444v86q64 8 99.5 36.5t59.5 94.5l95 246q-42 10 -66 10q-71 0 -141 -67l-72 67
q104 186 305 186q39 0 49 -2l299 777h248zM700 545q60 0 109 24l-191 490l-167 -438l55 -23q124 -53 194 -53z" />
    <glyph glyph-name="A.s4" horiz-adv-x="1777" 
d="M1174 1434l468 -1215q24 -68 57.5 -96.5t94.5 -36.5v-86h-651v86q49 4 76 10.5t41.5 21t13.5 36.5t-14 59l-3 2q-39 99 -186 209q-142 107 -323 162l-144 -373q-26 -65 5 -92t130 -35v-86h-442v86q64 8 99 36t59 95l153 399q-79 11 -121 11q-99 0 -157 -33t-58 -82
q0 -18 28 -73t28 -87q0 -63 -43 -102t-109 -39q-77 0 -126.5 61.5t-49.5 149.5q0 153 133 248q134 96 354 96q101 0 175 -14l262 682h250zM930 1059l-131 -340q184 -59 331 -174z" />
    <glyph glyph-name="A.s5" horiz-adv-x="1912" 
d="M1307 1434l469 -1215q26 -68 59.5 -96.5t91.5 -36.5v-86h-651v86q95 8 119.5 33.5t-0.5 93.5l-97 246q-146 -94 -284 -94q-115 0 -203 32l-72 -184q-26 -65 4.5 -92t130.5 -35v-86h-442v86q64 8 99 36t59 95l92 240q-53 29 -150 104q-142 103 -213 103q-47 0 -75.5 -24.5
t-28.5 -61.5q0 -24 15 -47.5t37 -43t43.5 -41t36.5 -49.5t15 -59q0 -59 -43 -98t-102 -39q-94 0 -155.5 78t-61.5 196q0 162 113 256q116 96 274 96q181 0 389 -129l283 736h248zM1124 565q73 0 125 19l-184 475l-166 -432q121 -62 225 -62z" />
    <glyph glyph-name="A.s6" horiz-adv-x="1466" 
d="M860 1434l469 -1215q26 -68 60 -96.5t92 -36.5v-86h-652v86q95 8 119.5 33.5t-0.5 93.5l-71 184h-515q-196 -482 -409 -686q-218 -209 -518 -209q-206 0 -312 70t-106 180q0 66 47.5 114t116.5 48q63 0 108 -35.5t66 -85.5q22 -51 61.5 -86t94.5 -35q204 0 391 199
q180 192 364 664l346 899h248zM618 1059l-200 -522h403z" />
    <glyph glyph-name="A.s7" horiz-adv-x="1777" 
d="M1174 1434l468 -1215q24 -68 57.5 -96.5t94.5 -36.5v-86h-651v86q49 4 76 10.5t41.5 21t13.5 36.5t-14 59l-3 2q-40 101 -184 209q-142 107 -323 162l-48 -121q-199 -515 -423 -739t-533 -224q-206 0 -312 70t-106 180q0 66 48 114t116 48q62 0 107.5 -35.5t68.5 -85.5
q21 -50 61 -85.5t93 -35.5q205 0 389 199q183 192 367 664l32 81q-82 11 -123 11q-99 0 -157 -33t-58 -82q0 -20 28 -75t28 -85q0 -63 -43 -102t-109 -39q-77 0 -126.5 61.5t-49.5 149.5q0 153 133 248q134 96 354 96q87 0 175 -14l264 682h248zM930 1059l-131 -340
q190 -62 331 -174z" />
    <glyph glyph-name="A.s8" horiz-adv-x="1964" 
d="M1358 1434l469 -1215q26 -68 59.5 -96.5t91.5 -36.5v-86h-651v86q49 4 76 10.5t41.5 21t13.5 36.5t-14 59l-72 184h-512q-195 -479 -411 -686q-218 -209 -517 -209q-207 0 -313 69.5t-106 180.5q0 67 47 114.5t118 47.5q47 0 82 -18t53.5 -45t38 -58t36.5 -58t48 -45
t72 -18q205 0 389 199q183 192 367 664l254 659q40 100 -62 100h-348q-211 0 -336 -98q-122 -94 -122 -248q0 -113 59 -185.5t137 -72.5q80 0 80 70q0 14 -19.5 65.5t-19.5 79.5q0 72 47 117t117 45q85 0 133.5 -60t48.5 -149q0 -140 -100 -227q-101 -88 -256 -88
q-169 0 -273 108.5t-104 296.5q0 223 172 355q171 131 436 131h750zM1116 1057l-201 -520h404z" />
    <glyph glyph-name="A.s9" horiz-adv-x="2314" 
d="M1708 1434l469 -1215q26 -68 60 -96.5t92 -36.5v-86h-652v86q95 8 119.5 33.5t-0.5 93.5l-72 184h-516q-111 -255 -268 -391q-156 -135 -422 -135q-242 0 -393 139q-152 140 -152 357q0 194 113 313q114 123 291 123q151 0 254 -92q104 -88 104 -234q0 -85 -53 -144
t-127 -59q-72 0 -122 44t-50 110q0 28 17.5 79t17.5 64q0 29 -25.5 46.5t-64.5 17.5q-87 0 -145 -75.5t-58 -192.5q0 -164 119 -258q121 -95 274 -95q214 0 352 129q140 131 254 426l336 865h248zM1466 1059l-202 -522h405z" />
    <glyph glyph-name="A.s10" horiz-adv-x="2760" 
d="M2154 1434l472 -1215q24 -68 57.5 -96.5t91.5 -36.5v-86h-651v86q49 4 76 10.5t41.5 21t13.5 36.5t-14 59l-72 184h-512q-190 -471 -412 -669q-218 -197 -538 -197q-308 0 -508 188q-199 187 -199 490q0 269 186 461q188 194 437 194q252 0 401 -137q152 -137 152 -315
q0 -128 -66 -205.5t-166 -77.5q-81 0 -135.5 49t-54.5 127q0 65 61 129q62 65 62 113q0 80 -69.5 128t-184.5 48q-187 0 -328 -150q-139 -148 -139 -366q0 -174 80 -301q155 -236 469 -236q272 0 473 195q197 191 383 670l344 899h249zM1911 1059l-199 -522h402z" />
    <glyph glyph-name="A.s11" horiz-adv-x="2942" 
d="M2337 1434l465 -1205q29 -77 61.5 -106t93.5 -37v-86h-651v86q94 8 118.5 33.5t-1.5 93.5l-72 184h-514q-97 -230 -228 -399t-282 -264q-284 -180 -618 -180q-299 0 -504 172q-205 169 -205 419q0 231 158 383q160 154 401 154q227 0 377 -102q149 -101 149 -248
q0 -79 -44 -128.5t-121 -49.5q-162 0 -199 186q-21 90 -51 135q-39 62 -148 62q-171 0 -272 -119q-103 -121 -103 -273q0 -195 158 -323q159 -129 406 -129q302 0 561 176q138 92 255 251.5t197 371.5l273 708q18 43 1 61.5t-91 38.5q-291 82 -500 82q-200 0 -310 -80.5
t-110 -216.5q0 -87 45.5 -138.5t120.5 -51.5q41 0 72 35.5t51 89.5q19 55 62 91t106 36q74 0 123 -48t49 -116q0 -115 -105 -192q-106 -74 -264 -74q-177 0 -293 104q-116 107 -116 264q0 196 153 316q154 121 416 121q167 0 393 -45q231 -43 352 -43h185zM2093 1059
l-201 -522h404z" />
    <glyph glyph-name="A.a1" horiz-adv-x="1515" 
d="M1313 1434v-1205q0 -87 28 -112q31 -22 134 -31v-86h-689v86q100 9 132 31t32 112v168h-467l-121 -170q-41 -60 -16.5 -96.5t109.5 -44.5v-86h-473v86q120 12 211 143l845 1205h275zM950 1061l-368 -522h368v522z" />
    <glyph glyph-name="A.s12" horiz-adv-x="1927" 
d="M1724 1434v-1205q0 -86 29 -112q31 -22 133 -31v-86h-686v86q99 9 131 31q31 25 31 112v168h-469l-119 -170q-41 -60 -17 -96.5t109 -44.5v-86h-473v86q120 12 211 143l678 967q28 47 10 72.5t-71 25.5h-613q-211 0 -336 -98q-122 -94 -122 -248q0 -113 59 -185.5
t137 -72.5q80 0 80 70q0 13 -19.5 65.5t-19.5 79.5q0 72 47 117t117 45q85 0 133.5 -60t48.5 -149q0 -140 -100 -227q-101 -88 -256 -88q-169 0 -273 108.5t-104 296.5q0 223 172 355q171 131 436 131h1116zM1362 1063l-369 -524h369v524z" />
    <glyph glyph-name="A.s13" horiz-adv-x="1753" 
d="M1548 1434v-1205q0 -87 31 -112q31 -22 133 -31v-86h-688v86q96 9 129 29q32 19 35 98q-23 84 -111 205q-83 118 -198 207l-281 -398q-41 -60 -17 -96.5t109 -44.5v-86h-471v86q118 15 209 143l332 473q-147 78 -283 78q-95 0 -150 -31.5t-55 -82.5q0 -28 27 -72
q29 -47 29 -88q0 -62 -42.5 -100.5t-109.5 -38.5q-77 0 -126.5 61.5t-49.5 149.5q0 151 131 245q135 97 346 97q190 0 367 -101l432 615h272zM1188 1063l-227 -322q126 -99 227 -256v578z" />
    <glyph glyph-name="A.s14" horiz-adv-x="1857" 
d="M1653 1434v-1205q0 -88 30 -112q31 -22 134 -31v-86h-687v86q100 9 132 31q30 24 30 112v226q-149 -90 -278 -90q-89 0 -195 28l-117 -166q-39 -60 -14 -97t109 -44v-86h-473v86q120 12 211 143l155 224q-37 20 -158 108q-142 103 -213 103q-47 0 -75.5 -24.5
t-28.5 -61.5q0 -27 15 -49t37 -39t43.5 -35.5t36.5 -48.5t15 -68q0 -59 -43 -98t-102 -39q-94 0 -155.5 78t-61.5 196q0 162 113 256q116 96 274 96q85 0 162 -24q70 -18 125 -47q59 -31 119 -70q3 -1 20 -12.5t25 -14.5l542 775h273zM1124 565q101 0 168 37v461l-329 -467
q85 -31 161 -31z" />
    <glyph glyph-name="A.s15" horiz-adv-x="3002" 
d="M2798 1434v-1205q0 -88 30 -112q31 -22 133 -31v-86h-686v86q97 9 129 31q33 23 33 112v168h-471l-133 -190q-241 -340 -505.5 -496.5t-577.5 -156.5q-343 0 -547 174q-203 173 -203 436q0 207 150 342t335 135q152 0 249 -71.5t97 -178.5q0 -77 -48 -128.5t-126 -51.5
q-53 0 -94.5 33.5t-62.5 79.5q-19 48 -55.5 81t-82.5 33q-79 0 -147 -80q-65 -77 -65 -194q0 -213 176 -342q178 -129 424 -129q551 0 974 600l801 1141h273zM2437 1067l-371 -528h371v528z" />
    <glyph glyph-name="A.s16" horiz-adv-x="3000" 
d="M2796 1434v-1205q0 -88 30 -112q31 -22 133 -31v-86h-686v86q99 9 131 31q31 25 31 112v168h-471l-133 -190q-252 -354 -504 -504q-250 -149 -553 -149q-349 0 -561 194q-213 195 -213 508q0 265 184 446q186 183 437 183q240 0 393 -129t153 -324q0 -122 -61.5 -196
t-163.5 -74q-80 0 -131 50.5t-51 121.5q0 69 57 129q60 63 60 121q0 72 -65.5 116.5t-190.5 44.5q-187 0 -330 -137q-141 -138 -141 -352q0 -172 92 -305q90 -130 227.5 -194t304.5 -64q267 0 494 139q224 136 454 461l801 1141h273zM2435 1067l-371 -528h371v528z" />
    <glyph glyph-name="A.s17" horiz-adv-x="3002" 
d="M2798 1434v-1205q0 -88 30 -112q31 -22 133 -31v-86h-686v86q97 9 129 31q33 23 33 112v168h-471l-133 -190q-241 -340 -505.5 -496.5t-577.5 -156.5q-343 0 -547 174q-203 173 -203 436q0 207 150 342t335 135q152 0 249 -71.5t97 -178.5q0 -77 -48 -128.5t-126 -51.5
q-53 0 -94.5 33.5t-62.5 79.5q-21 48 -56.5 81t-81.5 33q-79 0 -147 -80q-65 -77 -65 -194q0 -213 176 -342q178 -129 424 -129q551 0 974 600l631 899q28 51 11 76.5t-70 25.5h-613q-210 0 -335 -98q-123 -94 -123 -248q0 -113 58 -185.5t136 -72.5q82 0 82 70
q0 14 -19.5 66t-19.5 79q0 72 46.5 117t115.5 45q87 0 135.5 -60t48.5 -149q0 -140 -100 -227q-101 -88 -258 -88q-164 0 -270 106q-105 108 -105 299q0 223 170 355q171 131 438 131h1115zM2437 1067l-371 -528h371v528z" />
    <glyph glyph-name="A.s18" horiz-adv-x="3000" 
d="M2796 1434v-1205q0 -88 30 -112q31 -22 133 -31v-86h-686v86q99 9 131 31q31 25 31 112v168h-471l-133 -190q-252 -354 -504 -504q-250 -149 -553 -149q-349 0 -561 194q-213 195 -213 508q0 265 184 446q186 183 437 183q240 0 393 -129t153 -324q0 -119 -60.5 -190.5
t-164.5 -71.5q-83 0 -132.5 46.5t-49.5 117.5q0 69 57 129q60 63 60 121q0 72 -65.5 116.5t-190.5 44.5q-187 0 -330 -137q-141 -138 -141 -352q0 -172 92 -305q90 -130 227.5 -194t304.5 -64q267 0 494 139q224 136 454 461l631 899q28 51 11 76.5t-70 25.5h-537
q-212 0 -334 -98q-123 -94 -123 -248q0 -113 58.5 -185.5t136.5 -72.5q82 0 82 70q0 13 -20.5 65.5t-20.5 79.5q0 72 47.5 117t116.5 45q87 0 135.5 -60t48.5 -149q0 -140 -100 -227q-101 -88 -258 -88q-169 0 -273 108.5t-104 296.5q0 223 172 355q171 131 436 131h1039z
M2435 1067l-371 -528h371v528z" />
    <glyph glyph-name="A.s19" horiz-adv-x="3002" 
d="M2798 1434v-1205q0 -88 30 -112q31 -22 133 -31v-86h-686v86q96 9 127 31q32 19 35 104q-25 80 -115 201q-84 116 -196 203l-293 -418q-241 -340 -505.5 -496.5t-577.5 -156.5q-343 0 -547 174q-203 173 -203 436q0 207 150 342t335 135q152 0 249 -71.5t97 -178.5
q0 -77 -48 -128.5t-126 -51.5q-55 0 -95 33t-62 80q-21 48 -56.5 81t-81.5 33q-79 0 -147 -80q-65 -77 -65 -194q0 -213 176 -342q178 -129 424 -129q551 0 974 600l287 407q-145 80 -282 80q-96 0 -150.5 -31.5t-54.5 -82.5q0 -18 26.5 -74t26.5 -86q0 -62 -42.5 -100.5
t-109.5 -38.5q-76 0 -125 61.5t-49 149.5q0 151 131 245q135 97 347 97q189 0 366 -101l430 615h273zM2437 1067l-227 -326q130 -102 227 -256v582z" />
    <glyph glyph-name="A.s20" horiz-adv-x="3000" 
d="M2796 1434v-1205q0 -88 30 -112q31 -22 133 -31v-86h-686v86q97 9 129 31q30 21 33 106q-65 286 -264 467l-340 -483q-252 -354 -504 -504q-250 -149 -553 -149q-349 0 -561 194q-213 195 -213 508q0 265 184 446q186 183 437 183q240 0 393 -129t153 -324
q0 -119 -60.5 -190.5t-164.5 -71.5q-83 0 -132.5 46.5t-49.5 117.5q0 72 57 129q60 63 60 121q0 72 -65.5 116.5t-190.5 44.5q-187 0 -330 -137q-141 -138 -141 -352q0 -172 92 -305q90 -130 227.5 -194t304.5 -64q267 0 494 139q224 136 454 461l336 479q-142 86 -319 86
q-95 0 -150 -32t-55 -81q0 -18 26.5 -73.5t26.5 -87.5q0 -63 -41.5 -101.5t-107.5 -38.5q-78 0 -127 61.5t-49 149.5q0 152 131 246q134 96 346 96q224 0 401 -110l383 547h273zM2435 1067l-184 -262q112 -103 184 -250v512z" />
    <glyph glyph-name="A.s21" horiz-adv-x="2041" 
d="M1858 1434v-1205q0 -86 30 -110t131 -33v-86h-686v86q101 9 131 33q31 25 31 108v262h-518l-113 -235q-146 -315 -477 -315q-186 0 -286.5 69.5t-100.5 173.5q0 66 48 114t116 48q61 0 105 -34.5t65 -84.5q21 -49 59.5 -82.5t91.5 -33.5q150 0 252 208l129 265l109 219
q40 76 102 184q62 103 109 162q130 165 237 217q156 76 322 76q55 0 113 -6zM1044 631h451v602q-125 -55 -225 -197q-103 -150 -226 -405z" />
    <glyph glyph-name="A.s22" horiz-adv-x="2041" 
d="M1858 1434v-1205q0 -86 30 -110t131 -33v-86h-686v86q101 9 129 31q30 24 33 104q-46 165 -141 303q-101 147 -250 226l-111 -228l-129 -268q-146 -315 -477 -315q-186 0 -286.5 69.5t-100.5 173.5q0 66 48 114t116 48q61 0 105 -34.5t65 -84.5q21 -49 59.5 -82.5
t91.5 -33.5q150 0 252 208l129 265l111 219q-85 24 -189 24q-95 0 -149.5 -32.5t-54.5 -81.5q0 -18 26.5 -73t26.5 -87q0 -63 -43 -102t-109 -39q-76 0 -125 61.5t-49 149.5q0 153 131 247q135 97 346 97q138 0 254 -39q149 262 306 389q155 125 397 125q55 0 113 -6z
M1167 872q203 -111 328 -344v705q-90 -37 -167.5 -124.5t-160.5 -236.5z" />
    <glyph glyph-name="A.s23" horiz-adv-x="2861" 
d="M2679 1434v-1205q0 -85 31 -110q30 -24 131 -33v-86h-687v86q102 9 132 33t30 108v262h-518l-100 -208q-341 -725 -977 -725q-332 0 -520 170q-189 171 -189 434q0 211 150 346q149 137 336 137q152 0 249 -71.5t97 -178.5q0 -77 -48 -128.5t-126 -51.5q-53 0 -95 33.5
t-63 79.5q-21 49 -56 81.5t-81 32.5q-80 0 -148 -80q-65 -80 -65 -200q0 -213 155 -338q157 -127 406 -127q539 0 844 643l121 252q101 208 155 305q60 111 148 233q84 116 163 177q175 135 410 135q54 0 115 -6zM1866 631h450v602q-113 -46 -215 -184q-95 -128 -235 -418z
" />
    <glyph glyph-name="A.s24" horiz-adv-x="2861" 
d="M2679 1434v-1205q0 -85 31 -110q30 -24 131 -33v-86h-687v86q99 8 130 31t32 96q-36 122 -145 254q-112 135 -270 231l-80 -163l-123 -254q-341 -725 -977 -725q-332 0 -520 170q-189 171 -189 434q0 211 150 346q149 137 336 137q152 0 249 -71.5t97 -178.5
q0 -77 -48 -128.5t-126 -51.5q-53 0 -95 33.5t-63 79.5q-21 49 -56 81.5t-81 32.5q-80 0 -148 -80q-65 -80 -65 -200q0 -213 155 -338q157 -127 406 -127q539 0 844 643l121 252l86 174q-152 63 -314 63q-95 0 -150 -32.5t-55 -81.5q0 -18 27 -73t27 -87q0 -63 -42 -102
t-108 -39q-78 0 -127 61.5t-49 149.5q0 153 131 247q135 97 346 97q198 0 381 -76q157 286 320 418q162 131 403 131q54 0 115 -6zM1966 827q216 -130 350 -346v752q-90 -36 -172 -132.5t-178 -273.5z" />
    <glyph glyph-name="A.s25" horiz-adv-x="2926" 
d="M2744 1434v-1205q0 -85 31 -110q30 -24 131 -33v-86h-686v86q101 9 131 33q31 25 31 108v262h-514l-113 -225q-184 -383 -428 -547q-242 -163 -553 -163q-349 0 -561 194q-213 195 -213 508q0 265 184 446q186 183 437 183q240 0 393 -129t153 -324q0 -119 -60.5 -190.5
t-164.5 -71.5q-83 0 -132.5 46.5t-49.5 117.5q0 69 57 129q60 63 60 121q0 72 -65.5 116.5t-190.5 44.5q-187 0 -330 -137q-141 -138 -141 -352q0 -172 92 -305q90 -130 227.5 -194t304.5 -64q277 0 481 149q208 147 375 494l129 266q76 154 131 256q142 263 252 373
q204 217 488 209q52 0 114 -6zM1937 631h445v602q-125 -55 -213 -182q-101 -143 -232 -420z" />
    <glyph glyph-name="A.c1" horiz-adv-x="1456" 
d="M1337 129q37 0 84 18v-116q-121 -62 -272 -62q-243 0 -252 197q-250 -197 -475 -197q-168 0 -277 92q-104 91 -104 240q0 99 49 183.5t131 144.5q83 61 199 106q196 78 477 131v228q0 128 -42 179.5t-146 51.5q-168 0 -248 -213q-37 -92 -80.5 -131t-114.5 -39t-114 47
t-43 131q0 154 174 248q178 96 424 96q553 0 553 -409v-838q0 -88 77 -88zM420 381q0 -91 52.5 -144t139.5 -53q136 0 285 125v414q-246 -46 -361.5 -125t-115.5 -217z" />
    <glyph glyph-name="A.XA.sx" horiz-adv-x="1464" 
d="M612 1434h248l469 -1215q26 -68 60 -96.5t92 -36.5v-86h-652v86q95 8 119.5 33.5t-0.5 93.5l-323 827l-318 -827q-26 -67 0 -93t121 -34v-86h-444v86q64 8 99.5 36.5t59.5 94.5z" />
    <glyph glyph-name="Aacute.s1" horiz-adv-x="1964" 
d="M1133 1751l-273 -240h-121l170 318q21 43 70 43h172q41 0 41 -41q0 -27 -59 -80zM1358 1434l469 -1215q26 -68 59.5 -96.5t91.5 -36.5v-86h-651v86q49 4 76 10.5t41.5 21t13.5 36.5t-14 59l-72 184h-512l-72 -184q-24 -65 7 -92t131 -35v-86h-445v86q64 8 99 35.5
t61 95.5l379 987q17 42 -1 66t-63 24h-348q-211 0 -336 -98q-122 -94 -122 -248q0 -113 59 -185.5t137 -72.5q80 0 80 70q0 13 -19.5 64t-19.5 81q0 72 47 117t117 45q85 0 133.5 -60t48.5 -149q0 -140 -100 -227q-101 -88 -256 -88q-169 0 -273 108.5t-104 296.5
q0 223 172 355q171 131 436 131h750zM1114 1059l-201 -522h404z" />
    <glyph glyph-name="Aacute.s2" horiz-adv-x="1964" 
d="M1538 1761l-272 -239h-121l170 317q21 43 69 43h172q41 0 41 -41q0 -27 -59 -80zM1358 1434l469 -1215q26 -68 59.5 -96.5t91.5 -36.5v-86h-651v86q95 8 119.5 33.5t-0.5 93.5l-72 184h-514l-72 -184q-24 -65 7 -92t131 -35v-86h-443v86q64 8 99 36t59 95l377 981
q13 43 -2 66t-64 41q-159 57 -344 57q-211 0 -336 -98q-122 -98 -122 -250q0 -113 59 -185.5t137 -72.5q80 0 80 69q0 13 -19.5 65.5t-19.5 80.5q0 72 47 118t117 46q85 0 133.5 -60t48.5 -149q0 -141 -100 -228q-104 -90 -256 -90q-168 0 -272.5 109t-104.5 297
q0 233 174 358q176 129 434 129q101 0 303 -33q197 -34 389 -34h58zM1116 1059l-203 -522h406z" />
    <glyph glyph-name="Aacute.s3" horiz-adv-x="1466" 
d="M1042 1761l-272 -239h-121l170 317q21 43 70 43h172q41 0 41 -41q0 -26 -60 -80zM860 1434l469 -1215q26 -68 60 -96.5t92 -36.5v-86h-652v86q95 8 119.5 33.5t-0.5 93.5l-90 229q-92 -102 -242 -102q-101 0 -247 70l-76 -197q-26 -65 4.5 -92t130.5 -35v-86h-444v86
q64 8 99.5 36.5t59.5 94.5l95 246q-42 10 -66 10q-71 0 -141 -67l-72 67q104 186 305 186q39 0 49 -2l299 777h248zM700 545q60 0 109 24l-191 490l-167 -438l55 -23q124 -53 194 -53z" />
    <glyph glyph-name="Aacute.s4" horiz-adv-x="1777" 
d="M1352 1761l-273 -239h-121l170 317q21 43 70 43h172q41 0 41 -41q0 -27 -59 -80zM1174 1434l468 -1215q24 -68 57.5 -96.5t94.5 -36.5v-86h-651v86q49 4 76 10.5t41.5 21t13.5 36.5t-14 59l-3 2q-39 99 -186 209q-142 107 -323 162l-144 -373q-26 -65 5 -92t130 -35v-86
h-442v86q64 8 99 36t59 95l153 399q-79 11 -121 11q-99 0 -157 -33t-58 -82q0 -18 28 -73t28 -87q0 -63 -43 -102t-109 -39q-77 0 -126.5 61.5t-49.5 149.5q0 153 133 248q134 96 354 96q101 0 175 -14l262 682h250zM930 1059l-131 -340q184 -59 331 -174z" />
    <glyph glyph-name="Aacute.s5" horiz-adv-x="1912" 
d="M1491 1761l-272 -239h-121l170 317q21 43 69 43h172q41 0 41 -41q0 -27 -59 -80zM1307 1434l469 -1215q26 -68 59.5 -96.5t91.5 -36.5v-86h-651v86q95 8 119.5 33.5t-0.5 93.5l-97 246q-146 -94 -284 -94q-115 0 -203 32l-72 -184q-26 -65 4.5 -92t130.5 -35v-86h-442v86
q64 8 99 36t59 95l92 240q-53 29 -150 104q-142 103 -213 103q-47 0 -75.5 -24.5t-28.5 -61.5q0 -24 15 -47.5t37 -43t43.5 -41t36.5 -49.5t15 -59q0 -59 -43 -98t-102 -39q-94 0 -155.5 78t-61.5 196q0 162 113 256q116 96 274 96q181 0 389 -129l283 736h248zM1124 565
q73 0 125 19l-184 475l-166 -432q121 -62 225 -62z" />
    <glyph glyph-name="Aacute.s6" horiz-adv-x="1466" 
d="M1040 1761l-272 -239h-121l170 317q21 43 70 43h172q41 0 41 -41q0 -26 -60 -80zM860 1434l469 -1215q26 -68 60 -96.5t92 -36.5v-86h-652v86q95 8 119.5 33.5t-0.5 93.5l-71 184h-515q-196 -482 -409 -686q-218 -209 -518 -209q-206 0 -312 70t-106 180q0 66 47.5 114
t116.5 48q63 0 108 -35.5t66 -85.5q22 -51 61.5 -86t94.5 -35q204 0 391 199q180 192 364 664l346 899h248zM618 1059l-200 -522h403z" />
    <glyph glyph-name="Aacute.s7" horiz-adv-x="1777" 
d="M1350 1761l-273 -239h-121l170 317q21 43 70 43h172q41 0 41 -41q0 -27 -59 -80zM1174 1434l468 -1215q24 -68 57.5 -96.5t94.5 -36.5v-86h-651v86q49 4 76 10.5t41.5 21t13.5 36.5t-14 59l-3 2q-40 101 -184 209q-142 107 -323 162l-48 -121q-199 -515 -423 -739
t-533 -224q-206 0 -312 70t-106 180q0 66 48 114t116 48q62 0 107.5 -35.5t68.5 -85.5q21 -50 61 -85.5t93 -35.5q205 0 389 199q183 192 367 664l32 81q-82 11 -123 11q-99 0 -157 -33t-58 -82q0 -20 28 -75t28 -85q0 -63 -43 -102t-109 -39q-77 0 -126.5 61.5t-49.5 149.5
q0 153 133 248q134 96 354 96q87 0 175 -14l264 682h248zM930 1059l-131 -340q190 -62 331 -174z" />
    </font>
</defs>
</svg>
