<?xml version="1.0" standalone="no"?>
<!DOCTYPE svg PUBLIC "-//W3C//DTD SVG 1.1//EN" "http://www.w3.org/Graphics/SVG/1.1/DTD/svg11.dtd" >
<svg xmlns="http://www.w3.org/2000/svg" xmlns:xlink="http://www.w3.org/1999/xlink" version="1.1">
<metadata>
Created by FontForge 20170731 at Sun May 16 20:03:21 2021
 By Aleksey,,,
Copyright (c) 2011 by Mark Simonson. All rights reserved. |DCNT
</metadata>
<defs>
<font id="Bookmania-SemiBold" horiz-adv-x="1415" >
  <font-face 
    font-family="Bookmania SemiBold"
    font-weight="600"
    font-stretch="normal"
    units-per-em="2048"
    panose-1="0 0 7 0 0 0 0 0 0 0"
    ascent="1602"
    descent="-446"
    x-height="934"
    cap-height="1434"
    bbox="-952.316 -1260 3740 2109"
    underline-thickness="102"
    underline-position="-307"
    unicode-range="U+000D-FB06"
  />
<missing-glyph horiz-adv-x="1640" 
d="M227 0v1434h1186v-1434h-1186zM745 719l-370 600v-1202zM821 840l295 479h-592zM895 719l371 -602v1202zM821 596l-297 -479h592z" />
    <glyph glyph-name="longs_h" unicode="&#x17f;h" horiz-adv-x="1804" 
d="M1139 0h-500v70q75 8 101 27.5t26 68.5v1020h-10q-32 0 -57 17t-41 41t-31 48t-35 41t-45 17q-56 0 -91.5 -47.5t-35.5 -128.5v-1008q0 -49 29 -68.5t108 -27.5v-70h-510v70q75 7 100 26.5t25 69.5v661h-125v107h125v67q0 215 129 338q128 125 324 125q138 0 209 -65
l90 65h90v-600q154 101 311 101q307 0 307 -297v-502q0 -49 26 -68.5t101 -27.5v-70h-499v70q75 7 99.5 26.5t24.5 69.5v506q0 153 -145 153q-115 0 -225 -73v-586q0 -50 25 -69.5t100 -26.5v-70z" />
    <glyph glyph-name="longs_i" unicode="&#x17f;i" horiz-adv-x="1185" 
d="M47 827v107h125v67q0 156 76 263q143 200 424 200q135 0 221 -56.5t86 -133.5q0 -50 -32 -83.5t-81 -33.5q-42 0 -72 24t-67 81q-66 96 -139 96q-75 0 -121.5 -56t-46.5 -157v-979q0 -49 29 -68.5t108 -27.5v-70h-510v70q75 7 100 26.5t25 69.5v661h-125zM1139 0h-500v70
q75 8 101 27.5t26 68.5v508q0 35 -13 49t-44 14h-70v62l285 166h90v-799q0 -50 25 -69.5t100 -26.5v-70z" />
    <glyph glyph-name="longs_l" unicode="&#x17f;l" horiz-adv-x="1185" 
d="M1139 0h-500v70q75 8 101 27.5t26 68.5v1020h-10q-32 0 -57 17t-41 41t-31 48t-35 41t-45 17q-56 0 -91.5 -47.5t-35.5 -128.5v-1008q0 -49 29 -68.5t108 -27.5v-70h-510v70q75 7 100 26.5t25 69.5v661h-125v107h125v67q0 215 129 338q128 125 324 125q138 0 209 -65
l90 65h90v-1298q0 -50 25 -69.5t100 -26.5v-70z" />
    <glyph glyph-name="ff" unicode="ff" horiz-adv-x="1228" 
d="M1149 0h-510v70q75 8 101 27.5t26 68.5v661h-346v-661q0 -49 29 -68.5t108 -27.5v-70h-510v70q75 7 100 26.5t25 69.5v661h-125v107h125v82q0 206 121 327q124 121 309 121q89 0 145 -37t56 -98q0 -56 -34 -90.5t-89 -34.5q-27 0 -47.5 10t-32 24.5t-23 32t-20 32
t-22 24.5t-31.5 10q-38 0 -61 -36t-23 -99v-268h346v82q0 206 121 327q124 121 307 121q89 0 145 -37t56 -98q0 -54 -33.5 -89.5t-87.5 -35.5q-39 0 -66.5 21t-39 45.5t-29.5 45.5t-41 21q-84 0 -84 -135v-268h184v-107h-184v-661q0 -49 28 -68.5t107 -27.5v-70z" />
    <glyph glyph-name="fi" unicode="fi" horiz-adv-x="1185" 
d="M1139 0h-500v70q75 8 101 27.5t26 68.5v598q0 63 -53 63h-293v-661q0 -49 29 -68.5t108 -27.5v-70h-510v70q75 7 100 26.5t25 69.5v661h-125v107h125v67q0 156 76 263q143 200 424 200q135 0 221 -56.5t86 -133.5q0 -50 -32 -83.5t-81 -33.5q-44 0 -72.5 23t-66.5 82
q-66 96 -139 96q-75 0 -121.5 -56t-46.5 -157v-211h594v-768q0 -50 25 -69.5t100 -26.5v-70z" />
    <glyph glyph-name="fl" unicode="fl" horiz-adv-x="1185" 
d="M1139 0h-500v70q75 8 101 27.5t26 68.5v661h-346v-661q0 -49 29 -68.5t108 -27.5v-70h-510v70q75 7 100 26.5t25 69.5v661h-125v107h125v67q0 215 129 338q128 125 324 125q138 0 209 -65l90 65h90v-1298q0 -50 25 -69.5t100 -26.5v-70zM420 1174v-240h346v250
q-43 0 -74.5 26t-47.5 57t-41 57t-56 26q-56 0 -91.5 -47.5t-35.5 -128.5z" />
    <glyph glyph-name="ffi" unicode="ffi" horiz-adv-x="1777" 
d="M1733 0h-500v70q75 7 100 26.5t25 69.5v598q0 63 -51 63h-293v-661q0 -49 28 -68.5t107 -27.5v-70h-510v70q75 8 101 27.5t26 68.5v661h-346v-661q0 -49 29 -68.5t108 -27.5v-70h-510v70q75 7 100 26.5t25 69.5v661h-125v107h125v82q0 206 121 327q124 121 309 121
q89 0 145 -37t56 -98q0 -56 -34 -90.5t-89 -34.5q-27 0 -47.5 10t-32 24.5t-23 32t-20 32t-22 24.5t-31.5 10q-38 0 -61 -36t-23 -99v-268h346v67q0 229 149 345q147 118 351 118q135 0 221 -56.5t86 -133.5q0 -50 -33 -83.5t-82 -33.5q-41 0 -70.5 24t-66.5 81
q-69 96 -139 96q-76 0 -122 -55.5t-46 -157.5v-211h592v-768q0 -49 26 -68.5t101 -27.5v-70z" />
    <glyph glyph-name="ffl" unicode="ffl" horiz-adv-x="1777" 
d="M1733 0h-500v70q75 7 100 26.5t25 69.5v661h-344v-661q0 -49 28 -68.5t107 -27.5v-70h-510v70q75 8 101 27.5t26 68.5v661h-346v-661q0 -49 29 -68.5t108 -27.5v-70h-510v70q75 7 100 26.5t25 69.5v661h-125v107h125v82q0 206 121 327q124 121 309 121q89 0 145 -37
t56 -98q0 -56 -34 -90.5t-89 -34.5q-27 0 -47.5 10t-32 24.5t-23 32t-20 32t-22 24.5t-31.5 10q-38 0 -61 -36t-23 -99v-268h346v67q0 215 129 338q128 125 324 125q135 0 206 -65l93 65h88v-1298q0 -49 26 -68.5t101 -27.5v-70zM1014 1174v-240h344v250q-36 0 -62.5 17
t-42.5 41.5t-30.5 49t-35 41.5t-46.5 17q-57 0 -92 -47.5t-35 -128.5z" />
    <glyph glyph-name="uniFB05" unicode="&#x17f;t" horiz-adv-x="1296" 
d="M1249 115v-103q-85 -39 -205 -39q-145 0 -210.5 68.5t-65.5 232.5v553h-127v60q227 70 227 262q0 97 -61.5 153t-161.5 56q-225 0 -225 -307v-885q0 -49 29 -68.5t108 -27.5v-70h-510v70q75 7 100 26.5t25 69.5v661h-125v107h125v82q0 207 129 327q133 121 338 121
q153 0 266 -84q111 -82 111 -245v-201h233v-107h-233v-596q0 -141 112 -141q66 0 121 25z" />
    <glyph glyph-name="f_b" unicode="fb" horiz-adv-x="1773" 
d="M766 -31v858h-346v-661q0 -49 29 -68.5t108 -27.5v-70h-510v70q75 7 100 26.5t25 69.5v661h-125v107h125v67q0 215 129 338q128 125 324 125q138 0 209 -65l90 65h90v-600q104 101 268 101q194 0 313 -140q117 -138 117 -358q0 -223 -123 -361q-119 -137 -334 -137
q-173 0 -276 103l-119 -103h-94zM420 1174v-240h346v252q-35 0 -61 17t-42.5 41t-31.5 48t-36 41t-48 17q-56 0 -91.5 -47.5t-35.5 -128.5zM1014 750v-566q67 -98 194 -98q244 0 244 381t-244 381q-127 0 -194 -98z" />
    <glyph glyph-name="f_h" unicode="fh" horiz-adv-x="1804" 
d="M1139 0h-500v70q75 8 101 27.5t26 68.5v661h-346v-661q0 -49 29 -68.5t108 -27.5v-70h-510v70q75 7 100 26.5t25 69.5v661h-125v107h125v67q0 215 129 338q128 125 324 125q138 0 209 -65l90 65h90v-600q154 101 311 101q140 0 223 -74q84 -72 84 -268v-457
q0 -49 26 -68.5t101 -27.5v-70h-499v70q75 7 99.5 26.5t24.5 69.5v506q0 153 -145 153q-115 0 -225 -73v-586q0 -50 25 -69.5t100 -26.5v-70zM420 1174v-240h346v252q-35 0 -61 17t-42.5 41t-31.5 48t-36 41t-48 17q-56 0 -91.5 -47.5t-35.5 -128.5z" />
    <glyph glyph-name="f_j" unicode="fj" horiz-adv-x="1167" 
d="M379 -258q0 44 37 79.5t84 35.5q31 0 54.5 -14t36.5 -34.5t24.5 -41t26.5 -34.5t34 -14q90 0 90 136v909q0 63 -57 63h-289v-661q0 -49 29 -68.5t108 -27.5v-70h-510v70q75 7 100 26.5t25 69.5v661h-125v107h125v67q0 156 76 263q143 200 424 200q135 0 221 -56.5
t86 -133.5q0 -50 -32 -83.5t-81 -33.5q-42 0 -72 24t-67 81q-66 96 -139 96q-75 0 -121.5 -56t-46.5 -157v-211h594v-877q0 -224 -123 -344q-121 -121 -307 -121q-94 0 -149.5 39.5t-55.5 110.5z" />
    <glyph glyph-name="f_k" unicode="fk" horiz-adv-x="1753" 
d="M1139 0h-500v70q75 8 101 27.5t26 68.5v661h-346v-661q0 -49 29 -68.5t108 -27.5v-70h-510v70q75 7 100 26.5t25 69.5v661h-125v107h125v67q0 215 129 338q128 125 324 125q138 0 209 -65l90 65h90v-970l231 229q22 21 34 40.5t13 37t-10 31t-39 23t-72 11.5v68h506v-68
q-82 -9 -133 -35q-48 -22 -125 -96l-114 -114l317 -431q50 -66 83.5 -89t84.5 -31v-70h-553v70q56 5 85 24t27.5 45t-24.5 56l-199 256l-112 -111v-174q0 -50 25 -69.5t100 -26.5v-70zM420 1174v-240h346v250q-43 0 -74.5 26t-47.5 57t-41 57t-56 26q-56 0 -91.5 -47.5
t-35.5 -128.5z" />
    <glyph glyph-name="f_f_b" unicode="ffb" horiz-adv-x="2377" 
d="M1573 72l-119 -103h-96v858h-344v-661q0 -49 28 -68.5t107 -27.5v-70h-510v70q75 8 101 27.5t26 68.5v661h-346v-661q0 -49 29 -68.5t108 -27.5v-70h-510v70q75 7 100 26.5t25 69.5v661h-125v107h125v82q0 206 121 327q124 121 309 121q89 0 145 -37t56 -98
q0 -56 -34 -90.5t-89 -34.5q-27 0 -47.5 10t-32 24.5t-23 32t-20 32t-22 24.5t-31.5 10q-38 0 -61 -36t-23 -99v-268h346v67q0 215 129 338q128 125 324 125q135 0 206 -65l93 65h88v-600q104 101 270 101q192 0 311 -140q119 -137 119 -358q0 -223 -123 -361
q-119 -137 -336 -137q-174 0 -274 103zM1014 1174v-240h344v252q-34 0 -60 17t-42.5 41t-31.5 48t-36 41t-47 17q-57 0 -92 -47.5t-35 -128.5zM1606 750v-566q70 -98 196 -98q244 0 244 381t-244 381q-126 0 -196 -98z" />
    <glyph glyph-name="f_f_j" unicode="ffj" horiz-adv-x="1767" 
d="M973 -258q0 45 36 80t83 35q39 0 66.5 -21.5t39.5 -47.5t30.5 -47.5t41.5 -21.5q39 0 63.5 36t24.5 100v909q0 63 -58 63h-286v-661q0 -49 28 -68.5t107 -27.5v-70h-510v70q75 8 101 27.5t26 68.5v661h-346v-661q0 -49 29 -68.5t108 -27.5v-70h-510v70q75 7 100 26.5
t25 69.5v661h-125v107h125v82q0 206 121 327q124 121 309 121q89 0 145 -37t56 -98q0 -56 -34 -90.5t-89 -34.5q-27 0 -47.5 10t-32 24.5t-23 32t-20 32t-22 24.5t-31.5 10q-38 0 -61 -36t-23 -99v-268h346v67q0 229 149 345q147 118 351 118q135 0 221 -56.5t86 -133.5
q0 -50 -33 -83.5t-82 -33.5q-43 0 -73 24.5t-64 80.5q-69 96 -139 96q-76 0 -122 -55.5t-46 -157.5v-211h592v-877q0 -223 -121 -344t-307 -121q-94 0 -149.5 39.5t-55.5 110.5z" />
    <glyph glyph-name="f_f_k" unicode="ffk" horiz-adv-x="2347" 
d="M2382 0h-551v70q56 5 85 24t27.5 45t-24.5 56l-199 256l-114 -111v-174q0 -49 26 -68.5t101 -27.5v-70h-500v70q75 7 100 26.5t25 69.5v661h-344v-661q0 -49 28 -68.5t107 -27.5v-70h-510v70q75 8 101 27.5t26 68.5v661h-346v-661q0 -49 29 -68.5t108 -27.5v-70h-510v70
q75 7 100 26.5t25 69.5v661h-125v107h125v82q0 206 121 327q124 121 309 121q89 0 145 -37t56 -98q0 -56 -34 -90.5t-89 -34.5q-27 0 -47.5 10t-32 24.5t-23 32t-20 32t-22 24.5t-31.5 10q-38 0 -61 -36t-23 -99v-268h346v67q0 215 129 338q128 125 324 125q135 0 206 -65
l93 65h88v-970l233 229q39 34 46 64.5t-23.5 52.5t-98.5 26v68h508v-68q-85 -9 -135 -35q-48 -22 -125 -96l-115 -114l320 -431q49 -65 82.5 -88.5t83.5 -31.5v-70zM1014 1174v-240h344v250q-36 0 -62.5 17t-42.5 41.5t-30.5 49t-35 41.5t-46.5 17q-57 0 -92 -47.5
t-35 -128.5z" />
    <glyph glyph-name="longs_b" unicode="&#x17f;b" horiz-adv-x="1773" 
d="M766 -31v1217h-10q-32 0 -57 17t-41 41t-31 48t-35 41t-45 17q-56 0 -91.5 -47.5t-35.5 -128.5v-1008q0 -49 29 -68.5t108 -27.5v-70h-510v70q75 7 100 26.5t25 69.5v661h-125v107h125v67q0 215 129 338q128 125 324 125q138 0 209 -65l90 65h90v-600q104 101 268 101
q194 0 313 -140q117 -138 117 -358q0 -223 -123 -361q-119 -137 -334 -137q-173 0 -276 103l-119 -103h-94zM1014 750v-566q67 -98 194 -98q244 0 244 381t-244 381q-127 0 -194 -98z" />
    <glyph glyph-name="longs_k" unicode="&#x17f;k" horiz-adv-x="1753" 
d="M1139 0h-500v70q75 8 101 27.5t26 68.5v1020h-10q-32 0 -57 17t-41 41t-31 48t-35 41t-45 17q-56 0 -91.5 -47.5t-35.5 -128.5v-1008q0 -49 29 -68.5t108 -27.5v-70h-510v70q75 7 100 26.5t25 69.5v661h-125v107h125v67q0 215 129 338q128 125 324 125q138 0 209 -65
l90 65h90v-970l231 229q22 21 34 40.5t13 37t-10 31t-39 23t-72 11.5v68h506v-68q-82 -9 -133 -35q-48 -22 -125 -96l-114 -114l317 -431q50 -66 83.5 -89t84.5 -31v-70h-553v70q56 5 85 24t27.5 45t-24.5 56l-199 256l-112 -111v-174q0 -50 25 -69.5t100 -26.5v-70z" />
    <glyph glyph-name=".notdef" horiz-adv-x="1640" 
d="M227 0v1434h1186v-1434h-1186zM745 719l-370 600v-1202zM821 840l295 479h-592zM895 719l371 -602v1202zM821 596l-297 -479h592z" />
    <glyph glyph-name=".null" horiz-adv-x="0" 
 />
    <glyph glyph-name="nonmarkingreturn" horiz-adv-x="682" 
 />
    <glyph glyph-name="NULL" horiz-adv-x="0" 
 />
    <glyph glyph-name="NULL" horiz-adv-x="0" 
 />
    <glyph glyph-name="CR" unicode="&#xd;" horiz-adv-x="0" 
 />
    <glyph glyph-name="space" unicode=" " horiz-adv-x="499" 
 />
    <glyph glyph-name="exclam" unicode="!" horiz-adv-x="520" 
d="M307 430h-96q-6 250 -61 479q-54 238 -54 316q0 115 45 177t119 62q75 0 118.5 -60.5t43.5 -178.5q0 -87 -55 -316q-54 -239 -60 -479zM260 295q70 0 117 -46.5t47 -111.5q0 -69 -46 -115.5t-118 -46.5t-118 46.5t-46 115.5q0 65 46 111.5t118 46.5z" />
    <glyph glyph-name="quotedbl" unicode="&#x22;" horiz-adv-x="942" 
d="M295 848h-72q-15 131 -59 278q-43 142 -43 193q0 65 39 105t100 40t100 -40t39 -105q0 -54 -45 -193q-44 -147 -59 -278zM719 848h-72q-15 131 -59 278q-43 142 -43 193q0 65 39 105t100 40t100 -40t39 -105q0 -54 -45 -193q-44 -147 -59 -278z" />
    <glyph glyph-name="numbersign" unicode="#" horiz-adv-x="1144" 
d="M506 0l112 401h-272l-113 -401h-108l113 401h-220v103h248l121 426h-242v102h271l114 402h109l-115 -402h275l114 402h109l-115 -402h219v-102h-247l-121 -426h243v-103h-274l-113 -401h-108zM496 930l-121 -426h274l121 426h-274z" />
    <glyph glyph-name="dollar" unicode="$" horiz-adv-x="1196" 
d="M1120 385q0 -168 -121 -283q-122 -116 -329 -131v-198h-107v198q-161 15 -270 95l-29 -66h-80l-123 451l64 20q93 -186 207.5 -290t230.5 -105v555l-16 6l-121 51q-39 17 -107 60q-58 36 -96 81q-84 107 -84 254q0 141 113 254q116 116 317 125v94h105v-96
q125 -15 196 -80l25 54h80l112 -406l-61 -18q-79 174 -162 257.5t-190 90.5v-508l28 -10q110 -48 123 -54q44 -18 109 -59q63 -39 98 -84q38 -45 63 -113t25 -145zM389 1128q0 -145 180 -233v455q-180 -37 -180 -222zM670 584v-498q95 23 146.5 87t51.5 149q0 93 -48 152.5
t-150 109.5z" />
    <glyph glyph-name="percent" unicode="%" horiz-adv-x="1800" 
d="M139 1335q89 117 252 117q161 0 250 -117q90 -119 90 -331q0 -213 -90 -332q-89 -117 -250 -117q-163 0 -252 117q-88 116 -88 332q0 215 88 331zM377 0l938 1434h108l-938 -1434h-108zM526 1004q0 207 -29 289.5t-106 82.5t-105 -82t-28 -290q0 -207 28.5 -290
t104.5 -83q77 0 106 83.5t29 289.5zM1157 762q89 117 252 117q161 0 250 -117q90 -119 90 -332t-90 -332q-88 -116 -250 -116q-164 0 -252 116t-88 332t88 332zM1544 430q0 207 -29 290t-106 83t-105 -82.5t-28 -290.5q0 -207 28.5 -290t104.5 -83q77 0 106 83.5t29 289.5z
" />
    <glyph glyph-name="ampersand" unicode="&#x26;" horiz-adv-x="1556" 
d="M1505 954v-73q-97 -6 -138.5 -42.5t-53.5 -136.5q-35 -232 -164 -407q44 -114 87 -159.5t114 -45.5q66 0 155 25v-88q-82 -58 -237 -58q-212 0 -316 137q-198 -137 -446 -137q-205 0 -324 107q-121 109 -121 272q0 185 125 307q110 108 269 189q-89 76 -128.5 148.5
t-39.5 162.5q0 119 94 213q96 96 266 96q150 0 237 -78t87 -202q0 -95 -55 -165t-175 -147q232 -164 363 -466q90 149 90 315q0 88 -39 121t-139 39v73h489zM479 1174q0 -67 37 -120.5t121 -111.5q109 60 161 116.5t52 125.5q0 79 -48.5 126.5t-133.5 47.5q-82 0 -135.5 -50
t-53.5 -134zM647 119q131 0 252 74l-4 10q-105 232 -176 346q-70 120 -158 205q-190 -144 -190 -336q0 -135 73.5 -217t202.5 -82z" />
    <glyph glyph-name="quotesingle" unicode="'" horiz-adv-x="520" 
d="M295 848h-72q-15 131 -59 278q-43 142 -43 193q0 65 39 105t100 40t100 -40t39 -105q0 -54 -45 -193q-44 -147 -59 -278z" />
    <glyph glyph-name="parenleft" unicode="(" horiz-adv-x="655" 
d="M596 1505l47 -59q-162 -125 -268 -379q-105 -252 -105 -535t105 -532q105 -253 268 -381l-47 -59q-234 145 -391 399q-154 254 -154 573q0 323 154 574q157 254 391 399z" />
    <glyph glyph-name="parenright" unicode=")" horiz-adv-x="655" 
d="M61 -440l-47 59q164 133 269 381q104 247 104 532q0 288 -106 535q-106 255 -267 379l47 59q237 -147 390 -399q153 -249 153 -574q0 -323 -155 -573q-152 -251 -388 -399z" />
    <glyph glyph-name="asterisk" unicode="*" horiz-adv-x="770" 
d="M416 1145q50 40 96 92q48 54 74 70q37 20 71 11t52 -40q19 -31 8.5 -65t-45.5 -54q-29 -16 -99 -31q-73 -15 -127 -36q65 -23 129 -37q77 -16 97 -29q36 -20 46 -55.5t-9 -65.5q-18 -31 -52 -39.5t-71 11.5q-26 16 -74 67q-46 52 -96 92q5 -34 33 -127q22 -74 22 -98
q4 -56 -41 -80t-89.5 -1t-39.5 81q0 21 23 98q21 71 30 129q-54 -47 -96 -94q-48 -51 -74 -67q-48 -30 -91.5 -2t-42.5 73t50 78q21 13 95 29q67 14 127 37q-40 16 -125 34q-61 13 -97 33q-31 17 -43 43.5t-4.5 50.5t25.5 43.5t47 22.5t59 -12q23 -13 76 -72q51 -58 94 -92
q-9 59 -30 129q-23 77 -23 102q-5 56 39.5 79.5t89.5 0t41 -79.5q0 -29 -25 -102q-22 -73 -30 -127z" />
    <glyph glyph-name="plus" unicode="+" horiz-adv-x="1144" 
d="M18 662v116h496v494h117v-494h495v-116h-495v-498h-117v498h-496z" />
    <glyph glyph-name="comma" unicode="," horiz-adv-x="520" 
d="M424 115q0 -99 -72 -228q-71 -130 -155 -211l-54 45q102 135 129 254q-82 0 -129 46t-47 116q0 65 46 111.5t118 46.5q73 0 118.5 -50t45.5 -130z" />
    <glyph glyph-name="hyphen" unicode="-" horiz-adv-x="536" 
d="M18 391v152h500v-152h-500z" />
    <glyph glyph-name="period" unicode="." horiz-adv-x="520" 
d="M260 295q70 0 117 -46.5t47 -111.5q0 -69 -46 -115.5t-118 -46.5t-118 46.5t-46 115.5q0 65 46 111.5t118 46.5z" />
    <glyph glyph-name="slash" unicode="/" horiz-adv-x="655" 
d="M0 -438l547 1933h108l-546 -1933h-109z" />
    <glyph glyph-name="zero" unicode="0" horiz-adv-x="1196" 
d="M598 1464q250 0 385 -202q137 -198 137 -545q0 -346 -137 -547q-136 -201 -385 -201q-246 0 -385 201q-135 202 -135 547t135 545q138 202 385 202zM598 80q133 0 184.5 148.5t51.5 488.5q0 342 -51.5 489.5t-184.5 147.5q-72 0 -118 -40t-72 -126q-43 -150 -43 -471
q0 -319 43 -469q26 -86 72 -127t118 -41z" />
    <glyph glyph-name="one" unicode="1" horiz-adv-x="1196" 
d="M977 0h-756v70q152 9 195 34q47 27 47 125v912q0 63 -57 63h-183v62l400 198h112v-1235q0 -99 45 -125q43 -25 197 -34v-70z" />
    <glyph glyph-name="two" unicode="2" horiz-adv-x="1196" 
d="M246 997h-121q0 215 125 340q127 127 330 127q204 0 329 -116q129 -117 129 -299q0 -206 -157.5 -397t-470.5 -400h469q61 0 82 24q25 32 45 136h75l-55 -457h-76q0 45 -41 45h-768v141q151 133 262 244q107 107 185 211q87 114 125.5 222t38.5 231q0 297 -236 297
q-124 0 -197 -90.5t-73 -258.5z" />
    <glyph glyph-name="three" unicode="3" horiz-adv-x="1196" 
d="M768 829q148 -28 238 -131q94 -104 94 -245q0 -209 -152 -349q-150 -135 -418 -135q-165 0 -297 60q-127 62 -127 172q0 57 34.5 92t88.5 35q57 0 99 -35.5t61 -85.5q21 -50 62 -85.5t94 -35.5q268 0 268 320q0 145 -84.5 235t-234.5 90h-37v115h41q116 0 177.5 71
t61.5 193q0 105 -55.5 170.5t-153.5 65.5q-106 0 -175 -72.5t-79 -204.5h-120q17 187 130 291t304 104q206 0 319 -94q117 -92 117 -225q0 -113 -66.5 -195.5t-189.5 -120.5z" />
    <glyph glyph-name="four" unicode="4" horiz-adv-x="1196" 
d="M907 0h-272v354h-561v88l618 992h215v-963h215v-117h-215v-354zM635 1122l-406 -651h406v651z" />
    <glyph glyph-name="five" unicode="5" horiz-adv-x="1196" 
d="M1094 475q0 -216 -150 -360q-152 -146 -405 -146q-166 0 -301 60q-134 62 -134 172q0 55 32.5 91t82.5 36q57 0 101 -35.5t67 -85.5q27 -51 73 -86t107 -35q139 0 218 81t79 218q0 136 -100 223q-101 88 -264 88q-162 0 -279 -69l-69 28l114 779h608q51 0 60 45h76
l-35 -297h-631l-39 -277q89 45 242 45q247 0 397 -135t150 -340z" />
    <glyph glyph-name="six" unicode="6" horiz-adv-x="1196" 
d="M645 924q221 0 348 -142q127 -139 127 -329q0 -196 -147 -340t-375 -144q-244 0 -381 174q-139 177 -139 465q0 193 74.5 353.5t205.5 265.5q259 209 629 237v-106q-476 -47 -590 -498q122 64 248 64zM598 80q115 0 175.5 100.5t60.5 272.5q0 161 -67.5 257.5
t-188.5 96.5q-109 0 -203 -70q-10 -102 -10 -176q0 -244 53.5 -362.5t179.5 -118.5z" />
    <glyph glyph-name="seven" unicode="7" horiz-adv-x="1196" 
d="M621 0h-287q41 322 182 623q143 305 350 559h-544q-61 0 -82 -27q-25 -28 -45 -133h-76l49 457h76q0 -45 41 -45h784v-142q-383 -518 -448 -1292z" />
    <glyph glyph-name="eight" unicode="8" horiz-adv-x="1196" 
d="M819 799q158 -81 229.5 -175t71.5 -239q0 -184 -141 -301q-142 -115 -395 -115q-232 0 -369 113t-137 266q0 134 69 221.5t205 153.5q-213 130 -213 369q0 147 125 260q124 112 357 112q203 0 319 -98q119 -94 119 -231q0 -118 -61 -197.5t-179 -138.5zM649 1354
q-111 0 -175 -53.5t-64 -149.5q0 -97 60 -156.5t202 -126.5q108 54 161.5 116.5t53.5 150.5q0 100 -62.5 159.5t-175.5 59.5zM571 80q132 0 204.5 65.5t72.5 167.5q0 117 -82 187q-75 67 -279 151q-113 -59 -167 -127t-54 -172q0 -121 80.5 -196.5t224.5 -75.5z" />
    <glyph glyph-name="nine" unicode="9" horiz-adv-x="1196" 
d="M598 1464q244 0 381 -174q141 -176 141 -465q0 -193 -74 -353t-206 -265q-264 -211 -629 -238v107q474 47 590 499q-121 -65 -250 -65q-222 0 -348 141q-125 140 -125 332q0 191 145 336q148 145 375 145zM618 629q115 0 205 69q11 108 11 174q0 245 -54.5 363.5
t-181.5 118.5q-114 0 -173.5 -99.5t-59.5 -271.5q0 -162 66 -258t187 -96z" />
    <glyph glyph-name="colon" unicode=":" horiz-adv-x="520" 
d="M260 958q71 0 117.5 -46.5t46.5 -110.5q0 -69 -46 -115.5t-118 -46.5t-118 46.5t-46 115.5q0 65 46 111t118 46zM260 295q70 0 117 -46.5t47 -111.5q0 -69 -46 -115.5t-118 -46.5t-118 46.5t-46 115.5q0 65 46 111.5t118 46.5z" />
    <glyph glyph-name="semicolon" unicode=";" horiz-adv-x="520" 
d="M260 958q71 0 117.5 -46.5t46.5 -110.5q0 -69 -46 -115.5t-118 -46.5t-118 46.5t-46 115.5q0 65 46 111t118 46zM424 115q0 -99 -72 -228q-71 -130 -155 -211l-54 45q102 135 129 254q-82 0 -129 46t-47 116q0 65 46 111.5t118 46.5q73 0 118.5 -50t45.5 -130z" />
    <glyph glyph-name="less" unicode="&#x3c;" horiz-adv-x="1144" 
d="M1085 340v-127l-1024 422v127l1024 424v-127l-870 -361z" />
    <glyph glyph-name="equal" unicode="=" horiz-adv-x="1144" 
d="M18 864v117h1108v-117h-1108zM18 459v116h1108v-116h-1108z" />
    <glyph glyph-name="greater" unicode="&#x3e;" horiz-adv-x="1144" 
d="M61 213v127l869 358l-869 361v127l1022 -424v-127z" />
    <glyph glyph-name="question" unicode="?" horiz-adv-x="976" 
d="M473 596l-8 -166h-107v395q359 0 359 258q0 105 -72 183q-71 77 -188 77q-47 0 -79 -22t-50.5 -53.5t-36 -62.5t-48 -53t-75.5 -22q-50 0 -83.5 36t-33.5 91q0 100 92.5 153.5t243.5 53.5q250 0 393 -143q146 -143 146 -328q0 -188 -122.5 -291.5t-330.5 -105.5zM575 137
q0 -69 -45.5 -115.5t-117.5 -46.5t-117 46.5t-45 115.5q0 67 45 112.5t117 45.5t117.5 -46.5t45.5 -111.5z" />
    <glyph glyph-name="at" unicode="@" horiz-adv-x="1888" 
d="M1063 203q-122 -119 -295 -119q-180 0 -268 137q-89 139 -39 340q46 183 196 303q154 121 334 121q162 0 228 -100l178 100h80l-162 -647q-35 -127 59 -127q126 0 234 147t108 355q0 122 -36.5 223t-99.5 171t-149.5 118t-186.5 70.5t-210 21.5q-334 0 -596 -238
q-258 -237 -258 -561q0 -354 226 -563q229 -209 573 -209q305 0 627 219l53 -82q-175 -119 -335 -177t-347 -58q-254 0 -453 100q-200 99 -323 299q-123 199 -123 471q0 236 133 443q134 207 356 331q221 123 467 123q341 0 559 -188q219 -189 219 -514q0 -275 -161 -451
q-159 -178 -389 -178q-74 0 -127 32t-72 87zM1063 317l111 449q-24 102 -152 102q-221 0 -303 -333q-86 -332 135 -332q127 0 209 114z" />
    <glyph glyph-name="A" unicode="A" 
d="M805 1434l469 -1223q26 -72 61 -103t101 -38v-70h-592v70q105 8 133 33t2 92l-86 223h-535l-86 -223q-24 -61 12.5 -89t143.5 -36v-70h-448v70q69 8 107.5 38t64.5 97l469 1229h184zM623 1114l-222 -579h447z" />
    <glyph glyph-name="B" unicode="B" horiz-adv-x="1464" 
d="M758 0h-707v70q115 9 148 32q32 25 32 127v975q0 102 -32 127q-33 26 -148 35v68h670q317 0 471 -84t154 -277q0 -244 -304 -311q165 -32 254.5 -125t89.5 -229q0 -201 -163.5 -304.5t-464.5 -103.5zM733 1319h-158q-27 0 -44 -16.5t-17 -45.5v-436h217q153 0 230 60
t77 192t-74 189t-231 57zM772 705h-258v-527q0 -61 61 -61h183q321 0 321 291q0 140 -82 218.5t-225 78.5z" />
    <glyph glyph-name="C" unicode="C" horiz-adv-x="1427" 
d="M1231 1434l112 -406l-65 -20q-86 164 -209 255t-268 91q-210 0 -313 -166.5t-103 -470.5t103 -470.5t313 -166.5q163 0 291 96q124 93 172 248l112 -39q-151 -416 -600 -416q-309 0 -504 207q-194 209 -194 541t194 538q194 209 504 209q206 0 346 -96l29 66h80z" />
    <glyph glyph-name="D" unicode="D" horiz-adv-x="1572" 
d="M715 0h-664v70q115 9 148 32q32 25 32 127v975q0 102 -32 127q-33 26 -148 35v68h666q375 0 577.5 -185t202.5 -532q0 -344 -205 -530.5t-577 -186.5zM717 1319h-142q-27 0 -44 -16.5t-17 -45.5v-1079q0 -61 61 -61h140q227 0 350 135q125 137 125 465q0 330 -123 465
q-122 137 -350 137z" />
    <glyph glyph-name="E" unicode="E" 
d="M575 117h160q364 0 613 313l57 -35l-199 -395h-1155v70q115 9 148 32q32 25 32 127v975q0 102 -32 127q-33 26 -148 35v68h1153l127 -353l-57 -28q-101 141 -226.5 203.5t-314.5 62.5h-158q-27 0 -44 -16.5t-17 -45.5v-450h287q101 0 138.5 41.5t43.5 144.5h76v-489h-76
q-6 103 -43.5 144.5t-138.5 41.5h-287v-512q0 -61 61 -61z" />
    <glyph glyph-name="F" unicode="F" horiz-adv-x="1341" 
d="M514 1257v-450h287q101 0 138.5 41.5t43.5 144.5h76v-489h-76q-6 103 -43.5 144.5t-138.5 41.5h-287v-461q0 -101 33 -127q33 -23 151 -32v-70h-647v70q115 9 148 32q32 25 32 127v975q0 102 -32 127q-33 26 -148 35v68h1153l127 -353l-57 -28q-101 141 -226.5 203.5
t-314.5 62.5h-158q-27 0 -44 -16.5t-17 -45.5z" />
    <glyph glyph-name="G" unicode="G" horiz-adv-x="1544" 
d="M1268 0l-84 115q-155 -146 -406 -146q-311 0 -506 207q-194 209 -194 541t194 538q194 209 506 209q221 0 355 -96l28 66h80l113 -406l-66 -20q-175 346 -481 346q-214 0 -318 -166t-104 -471q0 -301 101 -469t300 -168q93 0 174.5 35.5t114.5 81.5v237q0 101 -33 127
q-29 26 -145 35v68h627v-68q-99 -9 -135 -37q-31 -28 -31 -125v-434h-90z" />
    <glyph glyph-name="H" unicode="H" horiz-adv-x="1640" 
d="M1589 0h-643v70q115 9 148 32q32 25 32 127v461h-612v-461q0 -101 33 -127q33 -23 147 -32v-70h-643v70q115 9 148 32q32 25 32 127v975q0 102 -32 127q-33 26 -148 35v68h643v-68q-114 -9 -147 -35t-33 -127v-397h612v397q0 102 -32 127q-33 26 -148 35v68h643v-68
q-114 -9 -147 -35t-33 -127v-975q0 -101 33 -127q33 -23 147 -32v-70z" />
    <glyph glyph-name="I" unicode="I" horiz-adv-x="745" 
d="M694 0h-643v70q115 9 148 32q32 25 32 127v975q0 102 -32 127q-33 26 -148 35v68h643v-68q-114 -9 -147 -35t-33 -127v-975q0 -101 33 -127q33 -23 147 -32v-70z" />
    <glyph glyph-name="J" unicode="J" horiz-adv-x="731" 
d="M514 1204v-1136q0 -251 -125.5 -380.5t-341.5 -129.5q-145 0 -224 56.5t-79 141.5q0 57 36.5 94t90.5 37q45 0 75.5 -20t45.5 -48t27 -56t30.5 -48t46.5 -20q70 0 102.5 73.5t32.5 241.5v1194q0 102 -32 127q-33 26 -148 35v68h643v-68q-114 -9 -147 -35t-33 -127z" />
    <glyph glyph-name="K" unicode="K" horiz-adv-x="1538" 
d="M694 0h-643v70q115 9 148 32q32 25 32 127v975q0 102 -32 127q-33 26 -148 35v68h643v-68q-114 -9 -147 -35t-33 -127v-459l500 457q21 21 34 41.5t14.5 41.5t-11.5 37.5t-48 28.5t-90 15v68h560v-68q-77 -9 -132 -37q-53 -29 -145 -112l-350 -322l526 -705
q86 -117 193 -120v-70h-647v70q104 8 125 41.5t-33 111.5l-369 484l-127 -117v-361q0 -101 33 -127q33 -23 147 -32v-70z" />
    <glyph glyph-name="L" unicode="L" horiz-adv-x="1306" 
d="M575 117h99q316 0 565 313l57 -35l-198 -395h-1047v70q115 9 148 32q32 25 32 127v975q0 102 -32 127q-33 26 -148 35v68h643v-68q-114 -9 -147 -35t-33 -127v-1026q0 -61 61 -61z" />
    <glyph glyph-name="M" unicode="M" horiz-adv-x="1851" 
d="M1800 0h-643v70q119 9 148 32q32 25 32 127v979l-440 -1208h-92l-440 1206v-977q0 -102 32 -127q33 -23 148 -32v-70h-494v70q118 9 150 34t32 125v975q0 100 -34 127q-33 26 -148 35v68h533l348 -957l348 957h520v-68q-114 -9 -147 -35t-33 -127v-975q0 -101 33 -127
q33 -23 147 -32v-70z" />
    <glyph glyph-name="N" unicode="N" horiz-adv-x="1519" 
d="M545 0h-494v70q118 9 150 34t32 125v975q0 100 -34 127q-33 26 -148 35v68h502l623 -963v733q0 101 -33 127q-29 26 -146 35v68h488v-68q-115 -9 -148 -35q-30 -27 -30 -127v-1204h-166l-776 1202v-973q0 -102 32 -127q33 -23 148 -32v-70z" />
    <glyph glyph-name="O" unicode="O" horiz-adv-x="1579" 
d="M791 1464q325 0 520 -207q192 -204 192 -540q0 -339 -192 -543q-193 -205 -520 -205q-330 0 -523 205q-190 205 -190 543q0 335 190 540q195 207 523 207zM385 717q0 -637 406 -637q405 0 405 637t-405 637q-406 0 -406 -637z" />
    <glyph glyph-name="P" unicode="P" horiz-adv-x="1433" 
d="M694 0h-643v70q115 9 148 32q32 25 32 127v975q0 100 -30 127q-29 26 -150 35v68h709q315 0 470.5 -87.5t155.5 -283.5q0 -200 -156.5 -289.5t-473.5 -89.5h-242v-455q0 -101 33 -127q33 -23 147 -32v-70zM760 1319h-185q-27 0 -44 -16.5t-17 -45.5v-456h242
q163 0 243 62.5t80 199.5q0 134 -79 195t-240 61z" />
    <glyph glyph-name="Q" unicode="Q" horiz-adv-x="1579" 
d="M791 1464q325 0 520 -207q192 -204 192 -540q0 -294 -149 -492q-148 -197 -410 -241q1 -120 48.5 -175t140.5 -55q97 0 152.5 61t55.5 165h119q0 -173 -109.5 -270t-287.5 -97q-195 0 -307.5 98.5t-118.5 272.5q-261 43 -410 239q-149 198 -149 494q0 335 190 540
q195 207 523 207zM385 717q0 -637 406 -637q405 0 405 637t-405 637q-406 0 -406 -637z" />
    <glyph glyph-name="R" unicode="R" horiz-adv-x="1507" 
d="M965 700l348 -507q42 -62 88 -89t127 -34v-70h-404l-460 684h-150v-455q0 -101 33 -127q33 -23 147 -32v-70h-643v70q115 9 148 32q32 25 32 127v975q0 100 -30 127q-29 26 -150 35v68h709q315 0 470.5 -87.5t155.5 -283.5q0 -323 -421 -363zM760 1319h-185
q-27 0 -44 -16.5t-17 -45.5v-456h242q163 0 243 62.5t80 199.5q0 134 -79 195t-240 61z" />
    <glyph glyph-name="S" unicode="S" horiz-adv-x="1388" 
d="M778 891q30 -8 60 -16.5t57.5 -17t38.5 -11.5q46 -13 139 -58q90 -44 127 -81q48 -45 80.5 -117.5t32.5 -157.5q0 -205 -166 -334q-167 -129 -416 -129q-248 0 -434 107l-33 -76h-80l-123 451l64 20q93 -184 249.5 -287.5t344.5 -103.5q134 0 231 72t94 180q0 97 -77 160
q-32 28 -95 55q-89 38 -245 80l-105 30q-113 36 -194 80q-105 69 -144 127q-55 87 -55 201q0 181 147 289q146 110 363 110q237 0 395 -96l29 66h80l112 -406l-61 -18q-79 166 -215 255t-317 89q-125 0 -200 -57t-75 -146q0 -80 72 -141q30 -23 88 -47l102 -37
q110 -30 129 -35z" />
    <glyph glyph-name="T" unicode="T" horiz-adv-x="1392" 
d="M1014 70v-70h-643v70q114 9 147 32q33 26 33 127v1028q0 62 -62 62q-134 0 -223 -58.5t-180 -205.5l-59 26l145 398h70q15 -45 63 -45h785q48 0 63 45h70l143 -398l-59 -26q-87 145 -181.5 204.5t-230.5 59.5q-61 0 -61 -62v-1028q0 -102 32 -127q33 -23 148 -32z" />
    <glyph glyph-name="U" unicode="U" horiz-adv-x="1570" 
d="M500 1204v-778q0 -163 100 -249.5t266 -86.5q164 0 260.5 91.5t96.5 260.5v762q0 101 -33 127t-148 35v68h492v-68q-115 -9 -148 -35q-32 -25 -32 -127v-764q0 -219 -142.5 -345t-398.5 -126q-286 0 -441 121.5t-155 351.5v762q0 101 -33 127t-147 35v68h643v-68
q-117 -9 -150 -35q-30 -27 -30 -127z" />
    <glyph glyph-name="V" unicode="V" 
d="M795 0h-185l-469 1225q-26 73 -60.5 103.5t-100.5 37.5v68h591v-68q-105 -8 -133 -34t-2 -93l357 -920l350 920q25 61 -12 90t-144 37v68h449v-68q-69 -8 -107.5 -38t-64.5 -97z" />
    <glyph glyph-name="W" unicode="W" horiz-adv-x="2002" 
d="M1591 1366v68h432v-68q-68 -8 -102.5 -41.5t-60.5 -120.5l-375 -1204h-174l-314 999l-309 -999h-174l-377 1204q-27 89 -59 121q-27 32 -98 41v68h591v-68q-110 -7 -137.5 -40.5t-1.5 -121.5l248 -786l252 792q-26 88 -56.5 118t-99.5 38v68h592v-68q-109 -7 -137 -40.5
t-2 -121.5l250 -786l247 786q29 87 0.5 120.5t-135.5 41.5z" />
    <glyph glyph-name="X" unicode="X" horiz-adv-x="1413" 
d="M508 0h-518v70q102 9 155 39q56 37 111 120l309 476l-323 520q-52 82 -90 106q-33 26 -115 35v68h643v-68q-105 -7 -123.5 -46t39.5 -124l178 -278l182 280q57 88 39.5 124.5t-121.5 43.5v68h496v-68q-105 -9 -153 -41q-45 -27 -107 -121l-262 -407l354 -568
q53 -84 101 -120q47 -30 120 -39v-70h-645v70q104 7 122 44.5t-38 123.5l-225 348l-225 -348q-54 -91 -32.5 -125.5t128.5 -42.5v-70z" />
    <glyph glyph-name="Y" unicode="Y" horiz-adv-x="1339" 
d="M530 229v359l-368 616q-63 102 -90 123q-30 30 -92 39v68h600v-68q-100 -7 -123 -47.5t24 -122.5l275 -459l268 461q46 85 22.5 122.5t-124.5 45.5v68h438v-68q-69 -9 -103 -39q-35 -30 -88 -123l-356 -608v-367q0 -101 33 -127q33 -23 147 -32v-70h-643v70q115 9 148 32
q32 25 32 127z" />
    <glyph glyph-name="Z" unicode="Z" horiz-adv-x="1343" 
d="M57 70l836 1249h-219q-186 0 -305 -64q-118 -62 -219 -202l-58 28l127 353h1036v-68l-835 -1249h239q143 0 256 43q115 47 183 106q62 54 151 164l58 -35l-199 -395h-1051v70z" />
    <glyph glyph-name="bracketleft" unicode="[" horiz-adv-x="677" 
d="M150 -410v1885h483v-95h-281v-1695h281v-95h-483z" />
    <glyph glyph-name="backslash" unicode="\" horiz-adv-x="655" 
d="M109 1495l546 -1933h-108l-547 1933h109z" />
    <glyph glyph-name="bracketright" unicode="]" horiz-adv-x="677" 
d="M528 1475v-1885h-483v95h281v1695h-281v95h483z" />
    <glyph glyph-name="asciicircum" unicode="^" horiz-adv-x="1144" 
d="M946 717l-375 432l-370 -432h-107l424 717h111l422 -717h-105z" />
    <glyph glyph-name="underscore" unicode="_" horiz-adv-x="1144" 
d="M0 -240v107h1147v-107h-1147z" />
    <glyph glyph-name="grave" unicode="`" horiz-adv-x="466" 
d="M268 1346l178 -310h-100l-274 242q-52 46 -52 70q0 34 37 34h148q43 0 63 -36z" />
    <glyph glyph-name="a" unicode="a" horiz-adv-x="1091" 
d="M672 104q-180 -131 -334 -131q-127 0 -202 62t-75 166q0 166 185 250q86 40 178.5 64.5t243.5 51.5v109q0 107 -27 147.5t-100 40.5q-145 0 -185 -143q-35 -111 -131 -111q-45 0 -71.5 29t-26.5 82q0 101 121 172q123 72 313 72q354 0 354 -299v-478q0 -94 62 -94
q26 0 67 21v-90q-74 -50 -184 -50q-161 0 -188 129zM668 203v264q-180 -30 -263 -80t-83 -141q0 -61 35 -93t94 -32q101 0 217 82z" />
    <glyph glyph-name="b" unicode="b" horiz-adv-x="1161" 
d="M27 1237v61l284 166h88v-600q104 101 271 101q192 0 311 -140q119 -137 119 -358q0 -223 -123 -361q-119 -137 -336 -137q-174 0 -274 103l-119 -103h-96v1200q0 37 -13.5 52.5t-44.5 15.5h-67zM399 750v-566q70 -98 197 -98q244 0 244 381t-244 381q-127 0 -197 -98z
" />
    <glyph glyph-name="c" unicode="c" horiz-adv-x="1007" 
d="M807 606q-100 0 -121 115q-27 141 -147 141q-217 0 -217 -395q0 -187 70 -286t208 -99q184 0 283 233l94 -53q-129 -293 -414 -293q-226 0 -366 140q-136 142 -136 358t134 356q136 142 346 142q164 0 274 -72q109 -71 109 -170q0 -54 -33 -85.5t-84 -31.5z" />
    <glyph glyph-name="d" unicode="d" horiz-adv-x="1181" 
d="M635 1237v61l285 166h90v-1298q0 -50 25 -69.5t100 -26.5v-70q-182 0 -373 -31v103q-100 -103 -270 -103q-195 0 -314 137q-117 138 -117 361q0 220 117 358q122 140 314 140q169 0 270 -101v310q0 35 -13.5 49t-46.5 14h-67zM762 186v564q-70 98 -197 98
q-243 0 -243 -381q0 -379 243 -379q127 0 197 98z" />
    <glyph glyph-name="e" unicode="e" horiz-adv-x="1064" 
d="M977 543h-651q-4 -66 -4 -76q0 -385 286 -385q97 0 176 60.5t129 170.5l95 -51q-135 -293 -424 -293q-243 0 -383 140t-140 358q0 216 134 356q133 142 352 142q201 0 315.5 -112t114.5 -310zM334 651h401q0 99 -49.5 155t-134.5 56q-96 0 -147 -51.5t-70 -159.5z" />
    <glyph glyph-name="f" unicode="f" horiz-adv-x="636" 
d="M47 827v107h125v82q0 206 121 327q124 121 309 121q89 0 145 -37t56 -98q0 -56 -34 -90.5t-89 -34.5q-27 0 -47.5 10t-32 24.5t-23 32t-20 32t-22 24.5t-31.5 10q-38 0 -61 -36t-23 -99v-268h184v-107h-184v-661q0 -49 29 -68.5t108 -27.5v-70h-510v70q75 7 100 26.5
t25 69.5v661h-125z" />
    <glyph glyph-name="g" unicode="g" horiz-adv-x="1083" 
d="M895 911q-40 0 -74 -57q101 -94 101 -244q0 -157 -113 -255.5t-301 -98.5q-47 0 -118.5 12.5t-80.5 12.5q-40 0 -63 -17t-23 -43q0 -40 78 -55q73 -14 317 -23q219 -7 314.5 -68t95.5 -190q0 -139 -132 -216t-357 -77q-476 0 -476 226q0 104 109 157q-106 52 -106 179
q0 73 41 123.5t110 68.5q-121 100 -121 264q0 157 112 256t300 99q133 0 225 -50q109 146 250 146q57 0 92 -28t35 -77q0 -39 -26 -67.5t-66 -28.5q-25 0 -66.5 25.5t-56.5 25.5zM508 356q176 0 176 254t-176 254q-174 0 -174 -254q0 -128 41 -191t133 -63zM831 -178
q0 52 -53 67q-64 18 -217 21q-149 6 -254 24q-82 -30 -82 -98q0 -67 82 -105t230 -38q136 0 215 36.5t79 92.5z" />
    <glyph glyph-name="h" unicode="h" horiz-adv-x="1212" 
d="M1165 0h-499v70q75 8 101 27.5t26 68.5v506q0 153 -148 153q-112 0 -225 -73v-586q0 -49 26 -68.5t101 -27.5v-70h-500v70q75 7 100 26.5t25 69.5v1008q0 35 -13 49t-44 14h-68v61l285 166h88v-600q154 101 313 101q45 0 85 -7t82 -26.5t72 -51.5t49 -86.5t19 -125.5
v-502q0 -50 25 -69.5t100 -26.5v-70z" />
    <glyph glyph-name="i" unicode="i" horiz-adv-x="591" 
d="M152 1278q0 61 41.5 103t107.5 42t109 -43t43 -102q0 -58 -43 -99.5t-109 -41.5t-107.5 41t-41.5 100zM547 0h-500v70q75 7 100 26.5t25 69.5v508q0 35 -13 49t-44 14h-68v62l285 166h88v-799q0 -49 26 -68.5t101 -27.5v-70z" />
    <glyph glyph-name="j" unicode="j" horiz-adv-x="571" 
d="M152 1278q0 61 41.5 103t107.5 42t109 -43t43 -102q0 -58 -43 -99.5t-109 -41.5t-107.5 41t-41.5 100zM-215 -258q0 44 37 79.5t84 35.5q39 0 66.5 -21.5t39.5 -47.5t30.5 -47.5t41.5 -21.5q39 0 63.5 36t24.5 100v819q0 35 -13 49t-44 14h-68v62l285 166h88v-908
q0 -223 -121 -344t-309 -121q-94 0 -149.5 39.5t-55.5 110.5z" />
    <glyph glyph-name="k" unicode="k" horiz-adv-x="1161" 
d="M547 0h-500v70q75 7 100 26.5t25 69.5v1008q0 35 -13 49t-44 14h-68v61l285 166h88v-970l233 229q39 34 46.5 64.5t-23 52.5t-98.5 26v68h507v-68q-85 -9 -135 -35q-48 -22 -125 -96l-114 -114l319 -431q49 -65 82.5 -88.5t83.5 -31.5v-70h-551v70q56 5 85 24t27.5 45
t-24.5 56l-198 256l-115 -111v-174q0 -49 26 -68.5t101 -27.5v-70z" />
    <glyph glyph-name="l" unicode="l" horiz-adv-x="591" 
d="M547 0h-500v70q75 7 100 26.5t25 69.5v1008q0 35 -13 49t-44 14h-68v61l285 166h88v-1298q0 -49 26 -68.5t101 -27.5v-70z" />
    <glyph glyph-name="m" unicode="m" horiz-adv-x="1830" 
d="M1165 0h-499v70q75 8 101 27.5t26 68.5v506q0 153 -148 153q-112 0 -225 -73v-586q0 -49 26 -68.5t101 -27.5v-70h-500v70q75 7 100 26.5t25 69.5v508q0 35 -13 49t-44 14h-68v62l285 166h88v-101q154 101 313 101q194 0 268 -127q70 55 168 91t183 36q45 0 85 -7
t82 -26.5t72 -51.5t49 -86.5t19 -125.5v-502q0 -50 25 -69.5t100 -26.5v-70h-500v70q75 8 101 27.5t26 68.5v506q0 153 -147 153q-117 0 -232 -77q8 -44 8 -80v-502q0 -50 25 -69.5t100 -26.5v-70z" />
    <glyph glyph-name="n" unicode="n" horiz-adv-x="1212" 
d="M1165 0h-499v70q75 8 101 27.5t26 68.5v506q0 153 -148 153q-112 0 -225 -73v-586q0 -49 26 -68.5t101 -27.5v-70h-500v70q75 7 100 26.5t25 69.5v508q0 35 -13 49t-44 14h-68v62l285 166h88v-101q154 101 313 101q45 0 85 -7t82 -26.5t72 -51.5t49 -86.5t19 -125.5v-502
q0 -50 25 -69.5t100 -26.5v-70z" />
    <glyph glyph-name="o" unicode="o" horiz-adv-x="1136" 
d="M201 823q142 142 368 142q228 0 367 -142q139 -139 139 -356q0 -216 -139 -358q-140 -140 -367 -140q-225 0 -368 140q-140 143 -140 358q0 216 140 356zM569 72q246 0 246 395t-246 395q-247 0 -247 -395t247 -395z" />
    <glyph glyph-name="p" unicode="p" horiz-adv-x="1171" 
d="M537 -377h-500v68q75 7 100 27t25 71v885q0 35 -13.5 49t-44.5 14h-73v62l291 166h88v-101q104 101 270 101q192 0 311 -140q119 -137 119 -358q0 -223 -123 -361q-119 -137 -336 -137q-149 0 -241 80v-260q0 -51 26 -70.5t101 -27.5v-68zM410 750v-566q70 -98 196 -98
q244 0 244 381t-244 381q-126 0 -196 -98z" />
    <glyph glyph-name="q" unicode="q" horiz-adv-x="1155" 
d="M1135 -377h-500v68q75 8 101 27.5t26 70.5v283q-100 -103 -270 -103q-195 0 -314 137q-117 138 -117 361q0 220 117 358q122 140 314 140q181 0 282 -113l146 113h90v-1176q0 -51 25 -71t100 -27v-68zM762 186v564q-70 98 -197 98q-243 0 -243 -381q0 -379 243 -379
q127 0 197 98z" />
    <glyph glyph-name="r" unicode="r" horiz-adv-x="866" 
d="M731 688q-56 0 -102 49q-45 51 -74 51q-78 0 -135 -81v-541q0 -49 26 -68.5t101 -27.5v-70h-500v70q75 7 100 26.5t25 69.5v508q0 35 -13 49t-44 14h-68v62l285 166h88v-129q114 129 262 129q81 0 125.5 -38.5t44.5 -105.5q0 -60 -34.5 -96.5t-86.5 -36.5z" />
    <glyph glyph-name="s" unicode="s" horiz-adv-x="972" 
d="M555 602q95 -29 139 -45q52 -18 113 -55q121 -68 121 -211q0 -148 -113 -236q-112 -86 -283 -86q-195 0 -323 94l-25 -63h-63l-74 324l55 16q172 -270 422 -270q81 0 133 37t52 102q0 57 -50 90q-20 16 -59 31q-49 22 -151 47q-97 27 -143 43.5t-103 48.5
q-123 71 -123 211q0 121 104 203t260 82q168 0 281 -82l23 51h63l59 -283l-59 -18q-134 235 -346 235q-72 0 -113 -31t-41 -81q0 -42 35 -72q35 -29 76.5 -44.5t132.5 -37.5z" />
    <glyph glyph-name="t" unicode="t" horiz-adv-x="686" 
d="M639 115v-103q-85 -39 -205 -39q-138 0 -207 61.5t-69 198.5v594h-127v60q121 44 187.5 128t96.5 226h91v-307h233v-107h-233v-596q0 -141 112 -141q66 0 121 25z" />
    <glyph glyph-name="u" unicode="u" horiz-adv-x="1196" 
d="M651 737v62l283 166h90v-799q0 -49 26 -68.5t101 -27.5v-70q-181 0 -375 -31v101q-154 -101 -311 -101q-45 0 -85 7t-82 27t-72 52t-49 87t-19 126v406q0 35 -13.5 49t-44.5 14h-69v62l284 166h91v-701q0 -155 145 -155q113 0 225 75v490q0 35 -13 49t-44 14h-68z" />
    <glyph glyph-name="v" unicode="v" horiz-adv-x="985" 
d="M565 0h-155l-277 705q-35 93 -61 122q-27 30 -88 39v68h510v-68q-90 -7 -110 -38.5t13 -104.5l164 -428l168 422q30 78 9.5 109.5t-103.5 39.5v68h366v-68q-56 -8 -87.5 -41.5t-63.5 -119.5z" />
    <glyph glyph-name="w" unicode="w" horiz-adv-x="1583" 
d="M1010 0l-222 582l-219 -582h-172l-268 705q-34 94 -60 124.5t-85 36.5v68h497v-68q-88 -7 -105.5 -40t17.5 -121l160 -418l176 452q-30 66 -57.5 93.5t-73.5 33.5v68h498v-68q-89 -7 -106.5 -40t16.5 -121l157 -418l160 418q29 88 7 120.5t-111 40.5v68h378v-68
q-55 -7 -86 -40.5t-63 -120.5l-266 -705h-172z" />
    <glyph glyph-name="x" unicode="x" horiz-adv-x="1073" 
d="M623 160l-152 202l-158 -202q-29 -38 -7.5 -61.5t89.5 -28.5v-70h-375v70q56 6 87.5 24.5t66.5 65.5l234 299l-222 317q-37 52 -62 69t-77 21v68h508v-68q-132 -12 -72 -90l117 -162l125 162q33 32 11.5 58t-91.5 32v68h381v-68q-56 -6 -90 -25.5t-70 -64.5l-200 -258
l252 -358q32 -47 60 -65.5t75 -24.5v-70h-502v70q72 1 89 24t-17 66z" />
    <glyph glyph-name="y" unicode="y" horiz-adv-x="985" 
d="M850 705l-356 -879q-95 -234 -304 -234q-89 0 -148.5 42.5t-59.5 109.5q0 50 33.5 83.5t84.5 33.5q53 0 99 -49q47 -50 80 -50q65 0 112 115l35 86l-293 742q-34 88 -61 122q-26 33 -88 39v68h510v-68q-91 -7 -109 -40t18 -121l158 -410l164 410q31 88 10.5 120.5
t-106.5 40.5v68h372v-68q-56 -8 -87.5 -41.5t-63.5 -119.5z" />
    <glyph glyph-name="z" unicode="z" horiz-adv-x="993" 
d="M45 70l539 764h-107q-129 0 -209 -44.5t-141 -152.5l-64 22l80 275h760v-68l-536 -764h147q133 0 221.5 57.5t173.5 182.5l60 -29l-133 -313h-791v70z" />
    <glyph glyph-name="braceleft" unicode="{" horiz-adv-x="655" 
d="M610 -367v-69q-172 0 -278.5 105t-106.5 292v338q0 101 -40.5 149t-137.5 48v77q97 0 137.5 48t40.5 151v336q0 187 106.5 292t278.5 105v-69q-83 0 -129.5 -55t-46.5 -158v-334q0 -296 -241 -354q241 -58 241 -353v-336q0 -103 46.5 -158t129.5 -55z" />
    <glyph glyph-name="bar" unicode="|" horiz-adv-x="655" 
d="M274 -438v1933h107v-1933h-107z" />
    <glyph glyph-name="braceright" unicode="}" horiz-adv-x="655" 
d="M47 -436v69q83 0 129.5 55t46.5 158v336q0 294 240 353q-240 59 -240 354v334q0 103 -46.5 158t-129.5 55v69q172 0 277.5 -104.5t105.5 -292.5v-336q0 -101 41.5 -150t138.5 -49v-77q-97 0 -138.5 -48t-41.5 -149v-338q0 -188 -105.5 -292.5t-277.5 -104.5z" />
    <glyph glyph-name="asciitilde" unicode="~" horiz-adv-x="1079" 
d="M895 864h92q0 -323 -276 -323q-51 0 -103 18q-19 7 -33.5 13.5t-30.5 16t-23 14t-30 20.5t-32 22q-106 74 -156 74q-57 0 -86 -35.5t-29 -114.5h-98q0 326 277 326q112 0 258 -104q103 -74 155 -74q58 0 86.5 34t28.5 113z" />
    <glyph glyph-name="uni00A0" unicode="&#xa0;" horiz-adv-x="499" 
 />
    <glyph glyph-name="exclamdown" unicode="&#xa1;" horiz-adv-x="520" 
d="M260 639q-70 0 -117 46.5t-47 111.5q0 69 46 115t118 46t118 -46t46 -115q0 -65 -46 -111.5t-118 -46.5zM213 504h96q6 -240 60 -479q55 -229 55 -316q0 -115 -45 -177t-119 -62q-75 0 -118.5 60.5t-43.5 178.5q0 78 54 316q55 229 61 479z" />
    <glyph glyph-name="cent" unicode="&#xa2;" horiz-adv-x="1196" 
d="M913 588l95 -51q-127 -284 -390 -293v-305h-104v309q-195 26 -308.5 160t-113.5 333q0 198 117 336q118 139 305 160v258h104v-258q147 -9 242 -80q94 -70 94 -160q0 -54 -32.5 -85t-83.5 -31q-90 0 -111 114q-21 111 -109 135v-776q193 3 295 234zM338 741
q0 -294 176 -368v757q-176 -47 -176 -389z" />
    <glyph glyph-name="sterling" unicode="&#xa3;" horiz-adv-x="1196" 
d="M1051 344h106q-41 -375 -330 -375q-152 0 -297 127q-100 -127 -245 -127q-97 0 -163.5 56t-66.5 147q0 89 67 144t169 55q77 0 153 -27q-16 124 -125 318h-272v102h215q-76 149 -76 301q0 182 131 289q131 110 351 110q193 0 303 -90q110 -88 110 -211q0 -87 -51 -144.5
t-125 -57.5q-60 0 -98.5 37t-38.5 89q0 53 31 85.5t80 37.5q30 6 30 25q0 50 -52 83.5t-136 33.5q-109 0 -168 -69t-59 -179q0 -134 57 -340h289v-102h-260q36 -141 36 -269q0 -67 -12 -123q144 -75 246 -75q180 0 201 149zM285 76q103 0 147 114q-77 74 -141 74
q-51 0 -83 -25.5t-32 -66.5q0 -42 30.5 -69t78.5 -27z" />
    <glyph glyph-name="currency" unicode="&#xa4;" horiz-adv-x="1196" 
d="M233 963l-188 188l121 119l186 -189q104 76 246 76q140 0 244 -76l190 191l121 -123l-190 -186q75 -103 75 -246t-75 -246l188 -186l-119 -121l-188 188q-104 -76 -246 -76q-145 0 -246 76l-186 -186l-121 119l186 186q-73 107 -73 246q0 143 75 246zM598 424
q121 0 207 86t86 207t-86 207t-207 86t-207 -86t-86 -207q0 -118 86 -207q89 -86 207 -86z" />
    <glyph glyph-name="yen" unicode="&#xa5;" horiz-adv-x="1196" 
d="M61 606v103h365l-231 479q-48 96 -80 137q-24 31 -88 41v68h524v-68q-36 -3 -56.5 -13t-29 -25t-4.5 -40.5t14 -52t29 -66.5l178 -387l170 381q25 59 33.5 86.5t7.5 55.5q0 28 -22.5 42t-71.5 19v68h370v-68q-67 -6 -96 -43q-33 -38 -78 -137l-221 -477h361v-103h-390
v-168h390v-102h-390v-107q0 -101 33 -127q33 -23 148 -32v-70h-643v70q114 9 147 32q33 26 33 127v107h-402v102h402v168h-402z" />
    <glyph glyph-name="brokenbar" unicode="&#xa6;" horiz-adv-x="655" 
d="M274 627v868h107v-868h-107zM274 -438v868h107v-868h-107z" />
    <glyph glyph-name="section" unicode="&#xa7;" horiz-adv-x="1034" 
d="M418 -408q-88 0 -144.5 37.5t-56.5 98.5q0 54 33.5 89.5t87.5 35.5q38 0 65 -21t39 -46t30.5 -46t41.5 -21q38 0 61 33.5t23 85.5q0 83 -43 150t-149 166l-93 88q-34 34 -86 98q-53 68 -80 127q-69 158 -69 336q0 95 20 187.5t63.5 178.5t105.5 151.5t152 104.5t197 39
q89 0 145 -37t56 -98q0 -54 -33.5 -89.5t-87.5 -35.5q-34 0 -62 21t-42.5 45.5t-33.5 45.5t-38 21q-38 0 -61 -33t-23 -85q0 -83 47 -152t162 -176q157 -151 234 -293q77 -139 77 -342q0 -95 -20 -188.5t-63.5 -179.5t-105.5 -151.5t-152 -105t-197 -39.5zM750 -106
q63 135 63 270q0 101 -43 194q-45 103 -88 154q-60 76 -131 154q-77 83 -133 149q-37 47 -90 154q-43 93 -43 194q-64 -134 -64 -266q0 -135 62 -244q57 -95 209 -268q82 -89 129 -147q43 -55 86 -154q43 -93 43 -190z" />
    <glyph glyph-name="dieresis" unicode="&#xa8;" horiz-adv-x="684" 
d="M150 1384q59 0 95 -36t36 -88q0 -51 -36.5 -87t-94.5 -36q-56 0 -93 36t-37 87t37 87.5t93 36.5zM664 1260q0 -51 -37 -87t-95 -36t-93.5 35.5t-35.5 87.5q0 53 35.5 88.5t93.5 35.5q59 0 95.5 -36t36.5 -88z" />
    <glyph glyph-name="copyright" unicode="&#xa9;" horiz-adv-x="1597" 
d="M270 1245q219 219 529 219q309 0 528 -219t219 -528q0 -310 -219 -529t-528 -219q-310 0 -529 219t-219 529q0 309 219 528zM799 47q279 0 473 197q196 196 196 473q0 280 -196 473q-193 196 -473 196q-277 0 -473 -196q-197 -194 -197 -473q0 -276 197 -473t473 -197z
M1087 1151l58 -248l-51 -14q-44 90 -113 145.5t-145 55.5q-213 0 -213 -369q0 -367 213 -367q94 0 162 59t94 150l82 -28q-95 -263 -361 -263q-193 0 -313 123q-117 123 -117 326t117 326q119 122 313 122q117 0 197 -53l16 35h61z" />
    <glyph glyph-name="ordfeminine" unicode="&#xaa;" horiz-adv-x="876" 
d="M522 647q-135 -100 -262 -100q-98 0 -155.5 47t-57.5 125q0 63 39 113t111 81q132 58 323 91v90q0 73 -19.5 101t-72.5 28q-49 0 -77.5 -23.5t-47.5 -79.5q-30 -88 -123 -88q-39 0 -62.5 24.5t-23.5 67.5q0 78 103 131q104 52 260 52q136 0 214.5 -56.5t78.5 -173.5v-364
q0 -60 43 -60q21 0 47 11v-76q-62 -39 -156 -39q-141 0 -162 98zM520 731v191q-128 -21 -187 -55.5t-59 -98.5q0 -42 27.5 -67t71.5 -25q65 0 147 55z" />
    <glyph glyph-name="guillemotleft" unicode="&#xab;" horiz-adv-x="1044" 
d="M547 63l-51 -38l-363 383q-31 31 -31 69q0 41 31 72l363 381l51 -37l-189 -416zM942 63l-51 -38l-363 383q-30 30 -30 69q0 42 30 72l363 381l51 -37l-188 -416z" />
    <glyph glyph-name="logicalnot" unicode="&#xac;" horiz-adv-x="1144" 
d="M18 864v117h1108v-516h-116v399h-992z" />
    <glyph glyph-name="uni00AD" unicode="&#xad;" horiz-adv-x="536" 
d="M18 401v152h500v-152h-500z" />
    <glyph glyph-name="registered" unicode="&#xae;" horiz-adv-x="899" 
d="M852 1063q0 -164 -119 -283q-116 -116 -282 -116t-285 116q-117 120 -117 283q0 166 117 283q118 118 285 118t282 -118q119 -116 119 -283zM217 829q94 -94 234 -94q139 0 233 94q96 96 96 234q0 137 -96 233q-95 99 -233 99q-139 0 -234 -99q-96 -96 -96 -233
q0 -138 96 -234zM561 1057l78 -117q21 -34 53 -37v-39h-147l-113 183h-24v-103q0 -24 7.5 -30t37.5 -11v-39h-222v39q30 5 37.5 11t7.5 30v252q0 23 -7.5 28.5t-37.5 10.5v39h254q170 0 170 -109q0 -87 -94 -108zM457 1219h-33q-16 0 -16 -17v-98h47q71 0 71 61q0 54 -69 54
z" />
    <glyph glyph-name="overscore" unicode="&#xaf;" horiz-adv-x="591" 
d="M20 1174v126h551v-126h-551z" />
    <glyph glyph-name="degree" unicode="&#xb0;" horiz-adv-x="577" 
d="M526 1227q0 -97 -69 -166q-70 -70 -168 -70t-168 70t-70 166q0 98 70 168q69 69 168 69t168 -69t69 -168zM182 1120q43 -43 106.5 -43t106.5 43q44 43 44 106.5t-44 106.5q-43 44 -106.5 44t-106.5 -44q-43 -43 -43 -106.5t43 -106.5z" />
    <glyph glyph-name="plusminus" unicode="&#xb1;" horiz-adv-x="1144" 
d="M18 662v116h496v494h117v-494h495v-116h-495v-457h-117v457h-496zM18 0v111h1108v-111h-1108z" />
    <glyph glyph-name="uni00B2" unicode="&#xb2;" horiz-adv-x="782" 
d="M174 1159h-88q0 135 83 214t224 79q127 0 207 -70t80 -180q0 -236 -385 -454h274q40 0 54.5 14t27.5 69h62l-35 -284h-60q0 26 -30 26h-492v101q198 146 288.5 266.5t90.5 261.5q0 76 -36.5 120t-104.5 44q-74 0 -117 -53.5t-43 -153.5z" />
    <glyph glyph-name="uni00B3" unicode="&#xb3;" horiz-adv-x="782" 
d="M506 1073q94 -14 154.5 -76.5t60.5 -148.5q0 -130 -99 -211.5t-268 -81.5q-115 0 -202 37q-89 38 -89 108q0 38 24.5 64.5t59.5 26.5t60 -15.5t39.5 -37.5t28.5 -44t37 -37.5t55 -15.5q147 0 147 180q0 86 -53 135.5t-150 49.5h-22v84h22q73 0 112.5 38t39.5 107
q0 61 -33 96t-92 35q-63 0 -105.5 -43t-48.5 -119h-88q11 119 87 183.5t206 64.5q129 0 204 -52.5t75 -139.5q0 -135 -162 -187z" />
    <glyph glyph-name="acute" unicode="&#xb4;" horiz-adv-x="466" 
d="M20 1036l181 310q17 36 63 36h146q36 0 36 -34q0 -28 -51 -70l-272 -242h-103z" />
    <glyph glyph-name="uni00B5" unicode="&#xb5;" horiz-adv-x="1157" 
d="M293 45q22 -49 61 -111q45 -74 64.5 -115t19.5 -73q0 -68 -41.5 -111t-105.5 -43q-62 0 -104 43t-42 111v1188h248v-670q0 -155 146 -155q113 0 225 75v750h248v-744q0 -96 61 -96q27 0 68 21v-90q-74 -50 -174 -50q-145 0 -189 109q-121 -115 -278 -115q-125 0 -207 76z
" />
    <glyph glyph-name="paragraph" unicode="&#xb6;" horiz-adv-x="860" 
d="M522 1434h301v-68q-114 -9 -147 -35q-33 -23 -33 -114v-1082q0 -260 -126.5 -408.5t-348.5 -148.5q-142 0 -236 60q-94 58 -94 141q0 55 37.5 92t91.5 37q40 0 70.5 -20.5t51 -49t41 -57.5t52.5 -49.5t74 -20.5q115 0 190.5 112t75.5 312v352q-196 0 -334 138
q-137 137 -137 336q0 196 137 333q140 140 334 140z" />
    <glyph glyph-name="middot" unicode="&#xb7;" horiz-adv-x="520" 
d="M260 635q70 0 117 -46.5t47 -111.5q0 -69 -46 -115.5t-118 -46.5t-118 46.5t-46 115.5q0 65 46 111.5t118 46.5z" />
    <glyph glyph-name="cedilla" unicode="&#xb8;" horiz-adv-x="548" 
d="M528 -252q0 -82 -79 -141.5t-199 -59.5q-97 0 -163.5 38.5t-66.5 92.5q0 26 20 47t46 21q33 0 49.5 -13.5t30.5 -43.5q31 -66 98 -66q53 0 84 26.5t31 69.5q0 29 -21.5 47.5t-54.5 18.5q-47 0 -74 -27l-57 27l92 215h109l-58 -129q19 8 56 8q72 0 114.5 -35t42.5 -96z
" />
    <glyph glyph-name="uni00B9" unicode="&#xb9;" horiz-adv-x="782" 
d="M655 573h-526v54q108 3 135 18q29 16 29 66v536q0 35 -31 35h-133v51l291 119h72v-741q0 -52 26 -66q27 -15 137 -18v-54z" />
    <glyph glyph-name="ordmasculine" unicode="&#xba;" horiz-adv-x="882" 
d="M440 1307q189 0 299 -107q113 -107 113 -274q0 -168 -113 -275q-109 -106 -299 -106q-185 0 -297 106q-110 107 -110 275q0 167 110 274q113 107 297 107zM440 633q92 0 132 71.5t40 221.5q0 147 -40.5 219t-131.5 72q-172 0 -172 -291q0 -293 172 -293z" />
    <glyph glyph-name="guillemotright" unicode="&#xbb;" horiz-adv-x="1050" 
d="M516 408l-362 -383l-52 38l189 414l-189 416l52 37l362 -381q31 -31 31 -72q0 -38 -31 -69zM911 408l-362 -383l-51 38l188 414l-188 416l51 37l362 -381q31 -31 31 -72q0 -38 -31 -69z" />
    <glyph glyph-name="onequarter" unicode="&#xbc;" horiz-adv-x="1800" 
d="M655 573h-526v54q108 3 135 18q29 16 29 66v536q0 35 -31 35h-133v51l291 119h72v-741q0 -52 26 -66q27 -15 137 -18v-54zM377 0l938 1434h108l-938 -1434h-108zM1608 0h-199v205h-342v63l401 611h140v-590h145v-84h-145v-205zM1409 627l-225 -338h225v338z" />
    <glyph glyph-name="onehalf" unicode="&#xbd;" horiz-adv-x="1800" 
d="M655 573h-526v54q108 3 135 18q29 16 29 66v536q0 35 -31 35h-133v51l291 119h72v-741q0 -52 26 -66q27 -15 137 -18v-54zM377 0l938 1434h108l-938 -1434h-108zM1192 586h-88q0 135 83 214t224 79q127 0 207 -70t80 -180q0 -237 -385 -455h274q39 0 54 14t28 70h62
l-35 -285h-60q0 27 -30 27h-492v100q198 146 288.5 267t90.5 262q0 76 -36.5 120t-104.5 44q-74 0 -117 -53.5t-43 -153.5z" />
    <glyph glyph-name="threequarters" unicode="&#xbe;" horiz-adv-x="1800" 
d="M506 1073q94 -14 154.5 -76.5t60.5 -148.5q0 -130 -99 -211.5t-268 -81.5q-115 0 -202 37q-89 38 -89 108q0 38 24.5 64.5t59.5 26.5t60 -15.5t39.5 -37.5t28.5 -44t37 -37.5t55 -15.5q147 0 147 180q0 86 -53 135.5t-150 49.5h-22v84h22q73 0 112.5 38t39.5 107
q0 61 -33 96t-92 35q-63 0 -105.5 -43t-48.5 -119h-88q11 119 87 183.5t206 64.5q129 0 204 -52.5t75 -139.5q0 -135 -162 -187zM377 0l938 1434h108l-938 -1434h-108zM1608 0h-199v205h-342v63l401 611h140v-590h145v-84h-145v-205zM1409 627l-225 -338h225v338z" />
    <glyph glyph-name="questiondown" unicode="&#xbf;" horiz-adv-x="976" 
d="M401 797q0 69 46 115t118 46t117 -46t45 -115q0 -67 -45 -112.5t-117 -45.5t-118 46.5t-46 111.5zM504 338l8 166h106v-395q-358 0 -358 -259q0 -106 70 -182q72 -78 190 -78q47 0 79 22t50.5 53t36 62.5t48 53.5t75.5 22q50 0 83.5 -36t33.5 -91q0 -100 -92 -153
t-244 -53q-250 0 -393 143q-146 143 -146 328q0 188 122.5 291.5t330.5 105.5z" />
    <glyph glyph-name="Agrave" unicode="&#xc0;" 
d="M678 1536l-275 242q-51 45 -51 69q0 35 37 35h148q42 0 63 -37l178 -309h-100zM805 1434l469 -1223q26 -72 61 -103t101 -38v-70h-592v70q105 8 133 33t2 92l-86 223h-535l-86 -223q-24 -61 12.5 -89t143.5 -36v-70h-448v70q69 8 107.5 38t64.5 97l469 1229h184z
M623 1114l-222 -579h447z" />
    <glyph glyph-name="Aacute" unicode="&#xc1;" 
d="M1008 1778l-273 -242h-102l180 309q18 37 64 37h145q37 0 37 -35q0 -27 -51 -69zM805 1434l469 -1223q26 -72 61 -103t101 -38v-70h-592v70q105 8 133 33t2 92l-86 223h-535l-86 -223q-24 -61 12.5 -89t143.5 -36v-70h-448v70q69 8 107.5 38t64.5 97l469 1229h184z
M623 1114l-222 -579h447z" />
    <glyph glyph-name="Acircumflex" unicode="&#xc2;" 
d="M928 1534l-221 201l-220 -201h-102l209 311q27 41 70 41h88q42 0 69 -41l209 -311h-102zM805 1434l469 -1223q26 -72 61 -103t101 -38v-70h-592v70q105 8 133 33t2 92l-86 223h-535l-86 -223q-24 -61 12.5 -89t143.5 -36v-70h-448v70q69 8 107.5 38t64.5 97l469 1229h184
zM623 1114l-222 -579h447z" />
    <glyph glyph-name="Atilde" unicode="&#xc3;" 
d="M571 1731q-64 0 -79 -84h-82q6 112 55 169.5t125 57.5q58 0 147 -57q65 -45 107 -45q65 0 80 83h77q-6 -112 -55.5 -169.5t-122.5 -57.5q-56 0 -147 58q-62 45 -105 45zM805 1434l469 -1223q26 -72 61 -103t101 -38v-70h-592v70q105 8 133 33t2 92l-86 223h-535l-86 -223
q-24 -61 12.5 -89t143.5 -36v-70h-448v70q69 8 107.5 38t64.5 97l469 1229h184zM623 1114l-222 -579h447z" />
    <glyph glyph-name="Adieresis" unicode="&#xc4;" 
d="M514 1636q-56 0 -92.5 36t-36.5 87t36.5 88t92.5 37q58 0 94.5 -36t36.5 -89q0 -51 -36.5 -87t-94.5 -36zM1028 1759q0 -51 -36.5 -87t-94.5 -36q-59 0 -94 35t-35 88t35.5 89t93.5 36q59 0 95 -36t36 -89zM805 1434l469 -1223q26 -72 61 -103t101 -38v-70h-592v70
q105 8 133 33t2 92l-86 223h-535l-86 -223q-24 -61 12.5 -89t143.5 -36v-70h-448v70q69 8 107.5 38t64.5 97l469 1229h184zM623 1114l-222 -579h447z" />
    <glyph glyph-name="Aring" unicode="&#xc5;" 
d="M707 1556q-85 0 -145 59t-60 144t60 145t145 60q86 0 146 -60t60 -145t-60 -144t-146 -59zM707 1870q-45 0 -76 -32t-31 -79t31 -78.5t76 -31.5q47 0 78.5 31.5t31.5 78.5t-31.5 79t-78.5 32zM805 1434l469 -1223q26 -72 61 -103t101 -38v-70h-592v70q105 8 133 33t2 92
l-86 223h-535l-86 -223q-24 -61 12.5 -89t143.5 -36v-70h-448v70q69 8 107.5 38t64.5 97l469 1229h184zM623 1114l-222 -579h447z" />
    <glyph glyph-name="AE" unicode="&#xc6;" horiz-adv-x="2205" 
d="M2138 430l57 -35l-198 -395h-1155v70q114 9 147 32q33 26 33 127v193h-549l-137 -197q-42 -68 -12.5 -107.5t122.5 -47.5v-70h-473v70q118 6 226 159l768 1100q-42 28 -176 37v68h1204l127 -353l-58 -28q-101 141 -226 203.5t-314 62.5h-158q-27 0 -44 -16.5t-17 -45.5
v-450h286q101 0 139 42t44 144h75v-489h-75q-6 102 -44 144t-139 42h-286v-512q0 -61 61 -61h160q363 0 612 313zM1022 1206l-469 -669h469v669z" />
    <glyph glyph-name="Ccedilla" unicode="&#xc7;" horiz-adv-x="1427" 
d="M1264 424l112 -39q-138 -387 -540 -414l-45 -100q19 8 55 8q73 0 115.5 -35t42.5 -96q0 -82 -79.5 -141.5t-199.5 -59.5q-97 0 -163 38t-66 93q0 27 19.5 47.5t45.5 20.5q33 0 49.5 -13.5t30.5 -43.5q31 -66 98 -66q53 0 84 26.5t31 69.5q0 29 -21.5 47.5t-54.5 18.5
q-46 0 -73 -27l-58 27l80 186q-288 15 -471 222q-178 205 -178 524q0 332 194 538q194 209 504 209q206 0 346 -96l29 66h80l112 -406l-65 -20q-86 164 -209 255t-268 91q-210 0 -313 -166.5t-103 -470.5t103 -470.5t313 -166.5q163 0 291 96q124 93 172 248z" />
    <glyph glyph-name="Egrave" unicode="&#xc8;" 
d="M627 1845l178 -309h-100l-275 242q-51 45 -51 69q0 35 37 35h147q43 0 64 -37zM575 117h160q364 0 613 313l57 -35l-199 -395h-1155v70q115 9 148 32q32 25 32 127v975q0 102 -32 127q-33 26 -148 35v68h1153l127 -353l-57 -28q-101 141 -226.5 203.5t-314.5 62.5h-158
q-27 0 -44 -16.5t-17 -45.5v-450h287q101 0 138.5 41.5t43.5 144.5h76v-489h-76q-6 103 -43.5 144.5t-138.5 41.5h-287v-512q0 -61 61 -61z" />
    <glyph glyph-name="Eacute" unicode="&#xc9;" 
d="M659 1536l181 309q18 37 63 37h146q36 0 36 -35q0 -27 -51 -69l-272 -242h-103zM575 117h160q364 0 613 313l57 -35l-199 -395h-1155v70q115 9 148 32q32 25 32 127v975q0 102 -32 127q-33 26 -148 35v68h1153l127 -353l-57 -28q-101 141 -226.5 203.5t-314.5 62.5h-158
q-27 0 -44 -16.5t-17 -45.5v-450h287q101 0 138.5 41.5t43.5 144.5h76v-489h-76q-6 103 -43.5 144.5t-138.5 41.5h-287v-512q0 -61 61 -61z" />
    <glyph glyph-name="Ecircumflex" unicode="&#xca;" 
d="M412 1534l209 311q27 41 69 41h88q43 0 70 -41l209 -311h-103l-221 201l-219 -201h-102zM575 117h160q364 0 613 313l57 -35l-199 -395h-1155v70q115 9 148 32q32 25 32 127v975q0 102 -32 127q-33 26 -148 35v68h1153l127 -353l-57 -28q-101 141 -226.5 203.5
t-314.5 62.5h-158q-27 0 -44 -16.5t-17 -45.5v-450h287q101 0 138.5 41.5t43.5 144.5h76v-489h-76q-6 103 -43.5 144.5t-138.5 41.5h-287v-512q0 -61 61 -61z" />
    <glyph glyph-name="Edieresis" unicode="&#xcb;" 
d="M541 1884q59 0 95 -36t36 -89q0 -51 -36.5 -87t-94.5 -36q-56 0 -92.5 36t-36.5 87t36.5 88t92.5 37zM1055 1759q0 -51 -36.5 -87t-94.5 -36t-93.5 35t-35.5 88t35.5 89t93.5 36t94.5 -36t36.5 -89zM575 117h160q364 0 613 313l57 -35l-199 -395h-1155v70q115 9 148 32
q32 25 32 127v975q0 102 -32 127q-33 26 -148 35v68h1153l127 -353l-57 -28q-101 141 -226.5 203.5t-314.5 62.5h-158q-27 0 -44 -16.5t-17 -45.5v-450h287q101 0 138.5 41.5t43.5 144.5h76v-489h-76q-6 103 -43.5 144.5t-138.5 41.5h-287v-512q0 -61 61 -61z" />
    <glyph glyph-name="Igrave" unicode="&#xcc;" horiz-adv-x="745" 
d="M266 1845l178 -309h-100l-274 242q-52 46 -52 69q0 35 37 35h148q42 0 63 -37zM694 0h-643v70q115 9 148 32q32 25 32 127v975q0 102 -32 127q-33 26 -148 35v68h643v-68q-114 -9 -147 -35t-33 -127v-975q0 -101 33 -127q33 -23 147 -32v-70z" />
    <glyph glyph-name="Iacute" unicode="&#xcd;" horiz-adv-x="745" 
d="M299 1536l180 309q18 37 64 37h145q37 0 37 -35q0 -27 -51 -69l-273 -242h-102zM694 0h-643v70q115 9 148 32q32 25 32 127v975q0 102 -32 127q-33 26 -148 35v68h643v-68q-114 -9 -147 -35t-33 -127v-975q0 -101 33 -127q33 -23 147 -32v-70z" />
    <glyph glyph-name="Icircumflex" unicode="&#xce;" horiz-adv-x="745" 
d="M51 1534l209 311q27 41 70 41h88q42 0 69 -41l209 -311h-102l-221 201l-219 -201h-103zM694 0h-643v70q115 9 148 32q32 25 32 127v975q0 102 -32 127q-33 26 -148 35v68h643v-68q-114 -9 -147 -35t-33 -127v-975q0 -101 33 -127q33 -23 147 -32v-70z" />
    <glyph glyph-name="Idieresis" unicode="&#xcf;" horiz-adv-x="745" 
d="M180 1884q58 0 94.5 -36t36.5 -89q0 -51 -36.5 -87t-94.5 -36q-56 0 -92.5 36t-36.5 87t36.5 88t92.5 37zM694 1759q0 -51 -36.5 -87t-94.5 -36q-59 0 -94 35t-35 88t35.5 89t93.5 36q59 0 95 -36t36 -89zM694 0h-643v70q115 9 148 32q32 25 32 127v975q0 102 -32 127
q-33 26 -148 35v68h643v-68q-114 -9 -147 -35t-33 -127v-975q0 -101 33 -127q33 -23 147 -32v-70z" />
    <glyph glyph-name="Eth" unicode="&#xd0;" horiz-adv-x="1572" 
d="M51 1434h666q375 0 577.5 -185t202.5 -532q0 -344 -205 -530.5t-577 -186.5h-664v70q115 9 148 32q32 25 32 127v461h-180v117h180v397q0 102 -32 127q-33 26 -148 35v68zM575 117h140q227 0 350 135q125 137 125 465q0 330 -123 465q-122 137 -350 137h-142
q-27 0 -44 -16.5t-17 -45.5v-450h186v-117h-186v-512q0 -61 61 -61z" />
    <glyph glyph-name="Ntilde" unicode="&#xd1;" horiz-adv-x="1519" 
d="M981 1855h78q-6 -112 -55.5 -169.5t-122.5 -57.5q-57 0 -148 58q-62 45 -104 45q-65 0 -80 -84h-82q6 112 55 169.5t125 57.5q59 0 148 -57q65 -45 106 -45q65 0 80 83zM545 0h-494v70q118 9 150 34t32 125v975q0 100 -34 127q-33 26 -148 35v68h502l623 -963v733
q0 101 -33 127q-29 26 -146 35v68h488v-68q-115 -9 -148 -35q-30 -27 -30 -127v-1204h-166l-776 1202v-973q0 -102 32 -127q33 -23 148 -32v-70z" />
    <glyph glyph-name="Ograve" unicode="&#xd2;" horiz-adv-x="1579" 
d="M684 1845l178 -309h-100l-275 242q-51 45 -51 69q0 35 37 35h148q42 0 63 -37zM791 1464q325 0 520 -207q192 -204 192 -540q0 -339 -192 -543q-193 -205 -520 -205q-330 0 -523 205q-190 205 -190 543q0 335 190 540q195 207 523 207zM385 717q0 -637 406 -637
q405 0 405 637t-405 637q-406 0 -406 -637z" />
    <glyph glyph-name="Oacute" unicode="&#xd3;" horiz-adv-x="1579" 
d="M717 1536l180 309q18 37 64 37h145q37 0 37 -35q0 -27 -51 -69l-273 -242h-102zM791 1464q325 0 520 -207q192 -204 192 -540q0 -339 -192 -543q-193 -205 -520 -205q-330 0 -523 205q-190 205 -190 543q0 335 190 540q195 207 523 207zM385 717q0 -637 406 -637
q405 0 405 637t-405 637q-406 0 -406 -637z" />
    <glyph glyph-name="Ocircumflex" unicode="&#xd4;" horiz-adv-x="1579" 
d="M469 1534l209 311q27 41 70 41h88q42 0 69 -41l209 -311h-102l-221 201l-220 -201h-102zM791 1464q325 0 520 -207q192 -204 192 -540q0 -339 -192 -543q-193 -205 -520 -205q-330 0 -523 205q-190 205 -190 543q0 335 190 540q195 207 523 207zM385 717q0 -637 406 -637
q405 0 405 637t-405 637q-406 0 -406 -637z" />
    <glyph glyph-name="Otilde" unicode="&#xd5;" horiz-adv-x="1579" 
d="M1008 1855h77q-6 -112 -55.5 -169.5t-122.5 -57.5q-56 0 -147 58q-62 45 -105 45q-65 0 -80 -84h-81q6 112 55 169.5t125 57.5q58 0 147 -57q65 -45 107 -45q65 0 80 83zM791 1464q325 0 520 -207q192 -204 192 -540q0 -339 -192 -543q-193 -205 -520 -205
q-330 0 -523 205q-190 205 -190 543q0 335 190 540q195 207 523 207zM385 717q0 -637 406 -637q405 0 405 637t-405 637q-406 0 -406 -637z" />
    <glyph glyph-name="Odieresis" unicode="&#xd6;" horiz-adv-x="1579" 
d="M598 1884q58 0 94.5 -36t36.5 -89q0 -51 -36.5 -87t-94.5 -36q-56 0 -92.5 36t-36.5 87t36.5 88t92.5 37zM1112 1759q0 -51 -36.5 -87t-94.5 -36q-59 0 -94 35t-35 88t35.5 89t93.5 36q59 0 95 -36t36 -89zM791 1464q325 0 520 -207q192 -204 192 -540q0 -339 -192 -543
q-193 -205 -520 -205q-330 0 -523 205q-190 205 -190 543q0 335 190 540q195 207 523 207zM385 717q0 -637 406 -637q405 0 405 637t-405 637q-406 0 -406 -637z" />
    <glyph glyph-name="multiply" unicode="&#xd7;" horiz-adv-x="1144" 
d="M217 281l-82 81l354 357l-354 354l82 82l354 -354l357 356l82 -82l-357 -356l357 -357l-82 -81l-357 356z" />
    <glyph glyph-name="Oslash" unicode="&#xd8;" horiz-adv-x="1579" 
d="M1470 1434l-153 -181q186 -201 186 -536q0 -339 -192 -543q-193 -205 -520 -205q-266 0 -449 142l-94 -111h-139l155 182q-186 201 -186 535q0 335 190 540q195 207 523 207q262 0 448 -139l92 109h139zM385 717q0 -201 41 -344l682 801q-101 180 -317 180
q-406 0 -406 -637zM791 80q405 0 405 637q0 203 -41 346l-684 -801q102 -182 320 -182z" />
    <glyph glyph-name="Ugrave" unicode="&#xd9;" horiz-adv-x="1570" 
d="M700 1845l179 -309h-101l-274 242q-51 45 -51 69q0 35 36 35h148q42 0 63 -37zM500 1204v-778q0 -163 100 -249.5t266 -86.5q164 0 260.5 91.5t96.5 260.5v762q0 101 -33 127t-148 35v68h492v-68q-115 -9 -148 -35q-32 -25 -32 -127v-764q0 -219 -142.5 -345t-398.5 -126
q-286 0 -441 121.5t-155 351.5v762q0 101 -33 127t-147 35v68h643v-68q-117 -9 -150 -35q-30 -27 -30 -127z" />
    <glyph glyph-name="Uacute" unicode="&#xda;" horiz-adv-x="1570" 
d="M733 1536l180 309q18 37 64 37h145q37 0 37 -35q0 -27 -51 -69l-272 -242h-103zM500 1204v-778q0 -163 100 -249.5t266 -86.5q164 0 260.5 91.5t96.5 260.5v762q0 101 -33 127t-148 35v68h492v-68q-115 -9 -148 -35q-32 -25 -32 -127v-764q0 -219 -142.5 -345
t-398.5 -126q-286 0 -441 121.5t-155 351.5v762q0 101 -33 127t-147 35v68h643v-68q-117 -9 -150 -35q-30 -27 -30 -127z" />
    <glyph glyph-name="Ucircumflex" unicode="&#xdb;" horiz-adv-x="1570" 
d="M485 1534l209 311q27 41 70 41h88q43 0 70 -41l208 -311h-102l-221 201l-219 -201h-103zM500 1204v-778q0 -163 100 -249.5t266 -86.5q164 0 260.5 91.5t96.5 260.5v762q0 101 -33 127t-148 35v68h492v-68q-115 -9 -148 -35q-32 -25 -32 -127v-764q0 -219 -142.5 -345
t-398.5 -126q-286 0 -441 121.5t-155 351.5v762q0 101 -33 127t-147 35v68h643v-68q-117 -9 -150 -35q-30 -27 -30 -127z" />
    <glyph glyph-name="Udieresis" unicode="&#xdc;" horiz-adv-x="1570" 
d="M614 1884q58 0 94.5 -36t36.5 -89q0 -51 -36.5 -87t-94.5 -36q-56 0 -92.5 36t-36.5 87t36.5 88t92.5 37zM1128 1759q0 -51 -36.5 -87t-94.5 -36q-59 0 -94 35t-35 88t35.5 89t93.5 36q59 0 95 -36t36 -89zM500 1204v-778q0 -163 100 -249.5t266 -86.5q164 0 260.5 91.5
t96.5 260.5v762q0 101 -33 127t-148 35v68h492v-68q-115 -9 -148 -35q-32 -25 -32 -127v-764q0 -219 -142.5 -345t-398.5 -126q-286 0 -441 121.5t-155 351.5v762q0 101 -33 127t-147 35v68h643v-68q-117 -9 -150 -35q-30 -27 -30 -127z" />
    <glyph glyph-name="Yacute" unicode="&#xdd;" horiz-adv-x="1339" 
d="M602 1536l180 309q18 37 64 37h145q37 0 37 -35q0 -27 -51 -69l-272 -242h-103zM530 229v359l-368 616q-63 102 -90 123q-30 30 -92 39v68h600v-68q-100 -7 -123 -47.5t24 -122.5l275 -459l268 461q46 85 22.5 122.5t-124.5 45.5v68h438v-68q-69 -9 -103 -39
q-35 -30 -88 -123l-356 -608v-367q0 -101 33 -127q33 -23 147 -32v-70h-643v70q115 9 148 32q32 25 32 127z" />
    <glyph glyph-name="Thorn" unicode="&#xde;" horiz-adv-x="1433" 
d="M51 1434h643v-68q-114 -9 -147 -35t-33 -127v-82h246q314 0 470 -88t156 -284q0 -199 -156.5 -288t-473.5 -89h-242v-144q0 -101 33 -127q33 -23 147 -32v-70h-643v70q115 9 148 32q32 25 32 127v975q0 102 -32 127q-33 26 -148 35v68zM760 1006h-246v-519h242
q323 0 323 263q0 134 -79 195t-240 61z" />
    <glyph glyph-name="germandbls" unicode="&#xdf;" horiz-adv-x="1312" 
d="M47 827v107h125v47q0 239 133 360q132 123 346 123q180 0 289 -81t109 -214q0 -87 -64.5 -157t-177.5 -99q209 -32 327.5 -152t118.5 -325t-116 -336q-113 -131 -306 -131q-147 0 -235 82q-90 84 -90 195q0 53 28.5 82.5t73.5 29.5q107 0 113 -131q11 -86 35.5 -121.5
t74.5 -35.5q86 0 124 90.5t38 273.5q0 211 -98.5 304t-300.5 93h-59v103q135 0 207.5 65.5t72.5 169.5q0 86 -48.5 140.5t-131.5 54.5q-215 0 -215 -244v-954q0 -46 21.5 -67t72.5 -29v-70h-467v70q75 7 100 26.5t25 69.5v661h-125z" />
    <glyph glyph-name="agrave" unicode="&#xe0;" horiz-adv-x="1091" 
d="M453 1346l178 -310h-101l-274 242q-51 45 -51 70q0 34 37 34h147q44 0 64 -36zM672 104q-180 -131 -334 -131q-127 0 -202 62t-75 166q0 166 185 250q86 40 178.5 64.5t243.5 51.5v109q0 107 -27 147.5t-100 40.5q-145 0 -185 -143q-35 -111 -131 -111q-45 0 -71.5 29
t-26.5 82q0 101 121 172q123 72 313 72q354 0 354 -299v-478q0 -94 62 -94q26 0 67 21v-90q-74 -50 -184 -50q-161 0 -188 129zM668 203v264q-180 -30 -263 -80t-83 -141q0 -61 35 -93t94 -32q101 0 217 82z" />
    <glyph glyph-name="aacute" unicode="&#xe1;" horiz-adv-x="1091" 
d="M485 1036l181 310q17 36 63 36h145q37 0 37 -34q0 -28 -51 -70l-272 -242h-103zM672 104q-180 -131 -334 -131q-127 0 -202 62t-75 166q0 166 185 250q86 40 178.5 64.5t243.5 51.5v109q0 107 -27 147.5t-100 40.5q-145 0 -185 -143q-35 -111 -131 -111q-45 0 -71.5 29
t-26.5 82q0 101 121 172q123 72 313 72q354 0 354 -299v-478q0 -94 62 -94q26 0 67 21v-90q-74 -50 -184 -50q-161 0 -188 129zM668 203v264q-180 -30 -263 -80t-83 -141q0 -61 35 -93t94 -32q101 0 217 82z" />
    <glyph glyph-name="acircumflex" unicode="&#xe2;" horiz-adv-x="1091" 
d="M238 1034l208 312q27 40 70 40h88q43 0 70 -40l209 -312h-103l-221 201l-219 -201h-102zM672 104q-180 -131 -334 -131q-127 0 -202 62t-75 166q0 166 185 250q86 40 178.5 64.5t243.5 51.5v109q0 107 -27 147.5t-100 40.5q-145 0 -185 -143q-35 -111 -131 -111
q-45 0 -71.5 29t-26.5 82q0 101 121 172q123 72 313 72q354 0 354 -299v-478q0 -94 62 -94q26 0 67 21v-90q-74 -50 -184 -50q-161 0 -188 129zM668 203v264q-180 -30 -263 -80t-83 -141q0 -61 35 -93t94 -32q101 0 217 82z" />
    <glyph glyph-name="atilde" unicode="&#xe3;" horiz-adv-x="1091" 
d="M776 1356h78q-6 -112 -55.5 -170t-122.5 -58q-57 0 -148 58q-62 45 -104 45q-65 0 -80 -84h-82q6 112 55 169.5t125 57.5q59 0 148 -57q65 -45 106 -45q65 0 80 84zM672 104q-180 -131 -334 -131q-127 0 -202 62t-75 166q0 166 185 250q86 40 178.5 64.5t243.5 51.5v109
q0 107 -27 147.5t-100 40.5q-145 0 -185 -143q-35 -111 -131 -111q-45 0 -71.5 29t-26.5 82q0 101 121 172q123 72 313 72q354 0 354 -299v-478q0 -94 62 -94q26 0 67 21v-90q-74 -50 -184 -50q-161 0 -188 129zM668 203v264q-180 -30 -263 -80t-83 -141q0 -61 35 -93
t94 -32q101 0 217 82z" />
    <glyph glyph-name="adieresis" unicode="&#xe4;" horiz-adv-x="1091" 
d="M367 1384q59 0 95 -36t36 -88q0 -51 -36.5 -87t-94.5 -36q-56 0 -92.5 36t-36.5 87t36.5 87.5t92.5 36.5zM881 1260q0 -51 -36.5 -87t-94.5 -36t-93.5 35.5t-35.5 87.5q0 53 35.5 88.5t93.5 35.5q59 0 95 -36t36 -88zM672 104q-180 -131 -334 -131q-127 0 -202 62
t-75 166q0 166 185 250q86 40 178.5 64.5t243.5 51.5v109q0 107 -27 147.5t-100 40.5q-145 0 -185 -143q-35 -111 -131 -111q-45 0 -71.5 29t-26.5 82q0 101 121 172q123 72 313 72q354 0 354 -299v-478q0 -94 62 -94q26 0 67 21v-90q-74 -50 -184 -50q-161 0 -188 129z
M668 203v264q-180 -30 -263 -80t-83 -141q0 -61 35 -93t94 -32q101 0 217 82z" />
    <glyph glyph-name="aring" unicode="&#xe5;" horiz-adv-x="1091" 
d="M559 1464q86 0 146.5 -59.5t60.5 -144.5t-60.5 -144t-146.5 -59q-85 0 -145 59t-60 144t60 144.5t145 59.5zM559 1149q47 0 79 32t32 79t-32 78.5t-79 31.5q-45 0 -75.5 -31.5t-30.5 -78.5t31 -79t75 -32zM672 104q-180 -131 -334 -131q-127 0 -202 62t-75 166
q0 166 185 250q86 40 178.5 64.5t243.5 51.5v109q0 107 -27 147.5t-100 40.5q-145 0 -185 -143q-35 -111 -131 -111q-45 0 -71.5 29t-26.5 82q0 101 121 172q123 72 313 72q354 0 354 -299v-478q0 -94 62 -94q26 0 67 21v-90q-74 -50 -184 -50q-161 0 -188 129zM668 203v264
q-180 -30 -263 -80t-83 -141q0 -61 35 -93t94 -32q101 0 217 82z" />
    <glyph glyph-name="ae" unicode="&#xe6;" horiz-adv-x="1667" 
d="M834 821q114 144 315 144q202 0 316 -112t114 -310h-651q-2 -16 -2 -76q0 -385 286 -385q94 0 174.5 60.5t131.5 170.5l94 -51q-135 -293 -426 -293q-284 0 -422 181q-213 -177 -426 -177q-127 0 -202 62t-75 166q0 166 185 250q86 40 178.5 64.5t243.5 51.5v109
q0 107 -27 147.5t-100 40.5q-145 0 -185 -143q-35 -111 -131 -111q-45 0 -71.5 29t-26.5 82q0 101 121 172q126 72 315 72q203 0 271 -144zM936 651h403q0 98 -50.5 154.5t-135.5 56.5q-96 0 -147 -51.5t-70 -159.5zM668 467q-180 -30 -263 -80t-83 -141q0 -61 35 -93
t94 -32q127 0 268 102q-51 102 -51 244z" />
    <glyph glyph-name="ccedilla" unicode="&#xe7;" horiz-adv-x="1007" 
d="M883 315l94 -53q-124 -276 -377 -291l-45 -100q19 8 55 8q73 0 115.5 -35t42.5 -96q0 -82 -79.5 -141.5t-199.5 -59.5q-97 0 -163 38t-66 93q0 26 20 47t46 21q33 0 49.5 -13.5t30.5 -43.5q31 -66 98 -66q53 0 83.5 26.5t30.5 69.5q0 29 -21.5 47.5t-53.5 18.5
q-47 0 -74 -27l-57 27l80 188q-197 21 -316 158q-115 139 -115 336q0 216 134 356q136 142 346 142q164 0 274 -72q109 -71 109 -170q0 -54 -33 -85.5t-84 -31.5q-100 0 -121 115q-27 141 -147 141q-217 0 -217 -395q0 -187 70 -286t208 -99q184 0 283 233z" />
    <glyph glyph-name="egrave" unicode="&#xe8;" horiz-adv-x="1064" 
d="M440 1346l178 -310h-100l-274 242q-51 45 -51 70q0 34 36 34h148q43 0 63 -36zM977 543h-651q-4 -66 -4 -76q0 -385 286 -385q97 0 176 60.5t129 170.5l95 -51q-135 -293 -424 -293q-243 0 -383 140t-140 358q0 216 134 356q133 142 352 142q201 0 315.5 -112t114.5 -310
zM334 651h401q0 99 -49.5 155t-134.5 56q-96 0 -147 -51.5t-70 -159.5z" />
    <glyph glyph-name="eacute" unicode="&#xe9;" horiz-adv-x="1064" 
d="M473 1036l180 310q17 36 64 36h145q37 0 37 -34q0 -28 -51 -70l-273 -242h-102zM977 543h-651q-4 -66 -4 -76q0 -385 286 -385q97 0 176 60.5t129 170.5l95 -51q-135 -293 -424 -293q-243 0 -383 140t-140 358q0 216 134 356q133 142 352 142q201 0 315.5 -112
t114.5 -310zM334 651h401q0 99 -49.5 155t-134.5 56q-96 0 -147 -51.5t-70 -159.5z" />
    <glyph glyph-name="ecircumflex" unicode="&#xea;" horiz-adv-x="1064" 
d="M225 1034l209 312q27 40 70 40h88q43 0 70 -40l208 -312h-102l-221 201l-219 -201h-103zM977 543h-651q-4 -66 -4 -76q0 -385 286 -385q97 0 176 60.5t129 170.5l95 -51q-135 -293 -424 -293q-243 0 -383 140t-140 358q0 216 134 356q133 142 352 142q201 0 315.5 -112
t114.5 -310zM334 651h401q0 99 -49.5 155t-134.5 56q-96 0 -147 -51.5t-70 -159.5z" />
    <glyph glyph-name="edieresis" unicode="&#xeb;" horiz-adv-x="1064" 
d="M354 1384q59 0 95 -36t36 -88q0 -51 -36.5 -87t-94.5 -36q-56 0 -92.5 36t-36.5 87t36.5 87.5t92.5 36.5zM868 1260q0 -51 -36.5 -87t-94.5 -36q-59 0 -94 35.5t-35 87.5q0 53 35.5 88.5t93.5 35.5q59 0 95 -36t36 -88zM977 543h-651q-4 -66 -4 -76q0 -385 286 -385
q97 0 176 60.5t129 170.5l95 -51q-135 -293 -424 -293q-243 0 -383 140t-140 358q0 216 134 356q133 142 352 142q201 0 315.5 -112t114.5 -310zM334 651h401q0 99 -49.5 155t-134.5 56q-96 0 -147 -51.5t-70 -159.5z" />
    <glyph glyph-name="igrave" unicode="&#xec;" horiz-adv-x="591" 
d="M190 1346l179 -310h-101l-274 242q-51 45 -51 70q0 34 37 34h147q43 0 63 -36zM547 0h-500v70q75 7 100 26.5t25 69.5v508q0 35 -13 49t-44 14h-68v62l285 166h88v-799q0 -49 26 -68.5t101 -27.5v-70z" />
    <glyph glyph-name="iacute" unicode="&#xed;" horiz-adv-x="591" 
d="M223 1036l180 310q17 36 64 36h145q37 0 37 -34q0 -28 -51 -70l-272 -242h-103zM547 0h-500v70q75 7 100 26.5t25 69.5v508q0 35 -13 49t-44 14h-68v62l285 166h88v-799q0 -49 26 -68.5t101 -27.5v-70z" />
    <glyph glyph-name="icircumflex" unicode="&#xee;" horiz-adv-x="591" 
d="M-25 1034l209 312q27 40 70 40h88q43 0 70 -40l209 -312h-103l-221 201l-219 -201h-103zM547 0h-500v70q75 7 100 26.5t25 69.5v508q0 35 -13 49t-44 14h-68v62l285 166h88v-799q0 -49 26 -68.5t101 -27.5v-70z" />
    <glyph glyph-name="idieresis" unicode="&#xef;" horiz-adv-x="591" 
d="M104 1384q59 0 95.5 -36t36.5 -88q0 -51 -37 -87t-95 -36q-56 0 -92.5 36t-36.5 87t36.5 87.5t92.5 36.5zM618 1260q0 -51 -36.5 -87t-94.5 -36q-59 0 -94 35.5t-35 87.5q0 53 35.5 88.5t93.5 35.5q59 0 95 -36t36 -88zM547 0h-500v70q75 7 100 26.5t25 69.5v508
q0 35 -13 49t-44 14h-68v62l285 166h88v-799q0 -49 26 -68.5t101 -27.5v-70z" />
    <glyph glyph-name="eth" unicode="&#xf0;" horiz-adv-x="1138" 
d="M1053 1327l-197 -74q219 -307 219 -669q0 -282 -135 -449q-135 -166 -365 -166q-229 0 -372 140q-142 142 -142 358q0 214 136 356q139 142 346 142q136 0 237 -76q-25 152 -84 305l-274 -102v108l233 86q-47 101 -110 178h112q81 -68 134 -129l262 99v-107zM575 72
q127 0 182.5 111t55.5 339q0 134 -14 240q-90 100 -228 100q-247 0 -247 -399q0 -391 251 -391z" />
    <glyph glyph-name="ntilde" unicode="&#xf1;" horiz-adv-x="1212" 
d="M823 1356h78q-6 -112 -55.5 -170t-122.5 -58q-57 0 -148 58q-62 45 -104 45q-65 0 -80 -84h-82q6 112 55 169.5t125 57.5q59 0 148 -57q65 -45 106 -45q65 0 80 84zM1165 0h-499v70q75 8 101 27.5t26 68.5v506q0 153 -148 153q-112 0 -225 -73v-586q0 -49 26 -68.5
t101 -27.5v-70h-500v70q75 7 100 26.5t25 69.5v508q0 35 -13 49t-44 14h-68v62l285 166h88v-101q154 101 313 101q45 0 85 -7t82 -26.5t72 -51.5t49 -86.5t19 -125.5v-502q0 -50 25 -69.5t100 -26.5v-70z" />
    <glyph glyph-name="ograve" unicode="&#xf2;" horiz-adv-x="1136" 
d="M463 1346l178 -310h-100l-275 242q-51 45 -51 70q0 34 37 34h147q44 0 64 -36zM201 823q142 142 368 142q228 0 367 -142q139 -139 139 -356q0 -216 -139 -358q-140 -140 -367 -140q-225 0 -368 140q-140 143 -140 358q0 216 140 356zM569 72q246 0 246 395t-246 395
q-247 0 -247 -395t247 -395z" />
    <glyph glyph-name="oacute" unicode="&#xf3;" horiz-adv-x="1136" 
d="M496 1036l180 310q17 36 63 36h146q37 0 37 -34q0 -27 -52 -70l-272 -242h-102zM201 823q142 142 368 142q228 0 367 -142q139 -139 139 -356q0 -216 -139 -358q-140 -140 -367 -140q-225 0 -368 140q-140 143 -140 358q0 216 140 356zM569 72q246 0 246 395t-246 395
q-247 0 -247 -395t247 -395z" />
    <glyph glyph-name="ocircumflex" unicode="&#xf4;" horiz-adv-x="1136" 
d="M248 1034l209 312q27 40 69 40h88q43 0 70 -40l209 -312h-102l-222 201l-219 -201h-102zM201 823q142 142 368 142q228 0 367 -142q139 -139 139 -356q0 -216 -139 -358q-140 -140 -367 -140q-225 0 -368 140q-140 143 -140 358q0 216 140 356zM569 72q246 0 246 395
t-246 395q-247 0 -247 -395t247 -395z" />
    <glyph glyph-name="otilde" unicode="&#xf5;" horiz-adv-x="1136" 
d="M786 1356h78q-6 -112 -55.5 -170t-122.5 -58q-56 0 -147 58q-62 45 -105 45q-65 0 -80 -84h-82q6 112 55.5 169.5t125.5 57.5q58 0 147 -57q65 -45 107 -45q64 0 79 84zM201 823q142 142 368 142q228 0 367 -142q139 -139 139 -356q0 -216 -139 -358q-140 -140 -367 -140
q-225 0 -368 140q-140 143 -140 358q0 216 140 356zM569 72q246 0 246 395t-246 395q-247 0 -247 -395t247 -395z" />
    <glyph glyph-name="odieresis" unicode="&#xf6;" horiz-adv-x="1136" 
d="M377 1384q59 0 95 -36t36 -88q0 -51 -36.5 -87t-94.5 -36q-56 0 -92.5 36t-36.5 87t36.5 87.5t92.5 36.5zM891 1260q0 -51 -36.5 -87t-94.5 -36t-93.5 35.5t-35.5 87.5q0 53 35.5 88.5t93.5 35.5q59 0 95 -36t36 -88zM201 823q142 142 368 142q228 0 367 -142
q139 -139 139 -356q0 -216 -139 -358q-140 -140 -367 -140q-225 0 -368 140q-140 143 -140 358q0 216 140 356zM569 72q246 0 246 395t-246 395q-247 0 -247 -395t247 -395z" />
    <glyph glyph-name="divide" unicode="&#xf7;" horiz-adv-x="1144" 
d="M573 1243q71 0 117.5 -46.5t46.5 -111.5q0 -69 -46 -115t-118 -46t-117.5 46t-45.5 115q0 65 45.5 111.5t117.5 46.5zM18 662v116h1108v-116h-1108zM573 516q71 0 117.5 -47t46.5 -111q0 -69 -46 -115t-118 -46t-117.5 46t-45.5 115q0 65 45.5 111.5t117.5 46.5z" />
    <glyph glyph-name="oslash" unicode="&#xf8;" horiz-adv-x="1136" 
d="M1059 934l-111 -123q127 -133 127 -344q0 -216 -139 -358q-140 -140 -367 -140q-172 0 -303 88l-51 -57h-135l110 123q-129 138 -129 344q0 216 140 356q142 142 368 142q174 0 301 -86l52 55h137zM322 467q0 -89 16 -180l422 469q-60 106 -191 106q-247 0 -247 -395z
M569 72q246 0 246 395q0 105 -16 180l-422 -467q61 -108 192 -108z" />
    <glyph glyph-name="ugrave" unicode="&#xf9;" horiz-adv-x="1196" 
d="M483 1346l179 -310h-101l-274 242q-51 45 -51 70q0 34 36 34h148q43 0 63 -36zM651 737v62l283 166h90v-799q0 -49 26 -68.5t101 -27.5v-70q-181 0 -375 -31v101q-154 -101 -311 -101q-45 0 -85 7t-82 27t-72 52t-49 87t-19 126v406q0 35 -13.5 49t-44.5 14h-69v62
l284 166h91v-701q0 -155 145 -155q113 0 225 75v490q0 35 -13 49t-44 14h-68z" />
    <glyph glyph-name="uacute" unicode="&#xfa;" horiz-adv-x="1196" 
d="M516 1036l180 310q17 36 64 36h145q37 0 37 -34q0 -28 -51 -70l-273 -242h-102zM651 737v62l283 166h90v-799q0 -49 26 -68.5t101 -27.5v-70q-181 0 -375 -31v101q-154 -101 -311 -101q-45 0 -85 7t-82 27t-72 52t-49 87t-19 126v406q0 35 -13.5 49t-44.5 14h-69v62
l284 166h91v-701q0 -155 145 -155q113 0 225 75v490q0 35 -13 49t-44 14h-68z" />
    <glyph glyph-name="ucircumflex" unicode="&#xfb;" horiz-adv-x="1196" 
d="M268 1034l209 312q27 40 70 40h88q43 0 70 -40l208 -312h-102l-221 201l-219 -201h-103zM651 737v62l283 166h90v-799q0 -49 26 -68.5t101 -27.5v-70q-181 0 -375 -31v101q-154 -101 -311 -101q-45 0 -85 7t-82 27t-72 52t-49 87t-19 126v406q0 35 -13.5 49t-44.5 14h-69
v62l284 166h91v-701q0 -155 145 -155q113 0 225 75v490q0 35 -13 49t-44 14h-68z" />
    <glyph glyph-name="udieresis" unicode="&#xfc;" horiz-adv-x="1196" 
d="M397 1384q59 0 95 -36t36 -88q0 -51 -36.5 -87t-94.5 -36q-56 0 -92.5 36t-36.5 87t36.5 87.5t92.5 36.5zM911 1260q0 -51 -36.5 -87t-94.5 -36t-93.5 35.5t-35.5 87.5q0 53 35.5 88.5t93.5 35.5q59 0 95 -36t36 -88zM651 737v62l283 166h90v-799q0 -49 26 -68.5
t101 -27.5v-70q-181 0 -375 -31v101q-154 -101 -311 -101q-45 0 -85 7t-82 27t-72 52t-49 87t-19 126v406q0 35 -13.5 49t-44.5 14h-69v62l284 166h91v-701q0 -155 145 -155q113 0 225 75v490q0 35 -13 49t-44 14h-68z" />
    <glyph glyph-name="yacute" unicode="&#xfd;" horiz-adv-x="985" 
d="M428 1036l180 310q17 36 64 36h145q37 0 37 -34q0 -28 -51 -70l-273 -242h-102zM850 705l-356 -879q-95 -234 -304 -234q-89 0 -148.5 42.5t-59.5 109.5q0 50 33.5 83.5t84.5 33.5q53 0 99 -49q47 -50 80 -50q65 0 112 115l35 86l-293 742q-34 88 -61 122q-26 33 -88 39
v68h510v-68q-91 -7 -109 -40t18 -121l158 -410l164 410q31 88 10.5 120.5t-106.5 40.5v68h372v-68q-56 -8 -87.5 -41.5t-63.5 -119.5z" />
    <glyph glyph-name="thorn" unicode="&#xfe;" horiz-adv-x="1171" 
d="M537 -377h-500v68q75 7 100 27t25 71v1385q0 35 -13.5 49t-44.5 14h-73v61l291 166h88v-600q104 101 270 101q192 0 311 -140q119 -137 119 -358q0 -223 -123 -361q-119 -137 -336 -137q-149 0 -241 80v-260q0 -51 26 -70.5t101 -27.5v-68zM410 750v-566q70 -98 196 -98
q244 0 244 381t-244 381q-126 0 -196 -98z" />
    <glyph glyph-name="ydieresis" unicode="&#xff;" horiz-adv-x="985" 
d="M309 1384q59 0 95 -36t36 -88q0 -51 -36.5 -87t-94.5 -36q-56 0 -92.5 36t-36.5 87t36.5 87.5t92.5 36.5zM823 1260q0 -51 -36.5 -87t-94.5 -36t-93.5 35.5t-35.5 87.5q0 53 35.5 88.5t93.5 35.5q59 0 95 -36t36 -88zM850 705l-356 -879q-95 -234 -304 -234
q-89 0 -148.5 42.5t-59.5 109.5q0 50 33.5 83.5t84.5 33.5q53 0 99 -49q47 -50 80 -50q65 0 112 115l35 86l-293 742q-34 88 -61 122q-26 33 -88 39v68h510v-68q-91 -7 -109 -40t18 -121l158 -410l164 410q31 88 10.5 120.5t-106.5 40.5v68h372v-68q-56 -8 -87.5 -41.5
t-63.5 -119.5z" />
    <glyph glyph-name="Amacron" unicode="&#x100;" 
d="M432 1800h551v-127h-551v127zM805 1434l469 -1223q26 -72 61 -103t101 -38v-70h-592v70q105 8 133 33t2 92l-86 223h-535l-86 -223q-24 -61 12.5 -89t143.5 -36v-70h-448v70q69 8 107.5 38t64.5 97l469 1229h184zM623 1114l-222 -579h447z" />
    <glyph glyph-name="amacron" unicode="&#x101;" horiz-adv-x="1091" 
d="M285 1174v126h551v-126h-551zM672 104q-180 -131 -334 -131q-127 0 -202 62t-75 166q0 166 185 250q86 40 178.5 64.5t243.5 51.5v109q0 107 -27 147.5t-100 40.5q-145 0 -185 -143q-35 -111 -131 -111q-45 0 -71.5 29t-26.5 82q0 101 121 172q123 72 313 72
q354 0 354 -299v-478q0 -94 62 -94q26 0 67 21v-90q-74 -50 -184 -50q-161 0 -188 129zM668 203v264q-180 -30 -263 -80t-83 -141q0 -61 35 -93t94 -32q101 0 217 82z" />
    <glyph glyph-name="Abreve" unicode="&#x102;" 
d="M410 1853h92q30 -92 205 -92q80 0 136.5 24.5t69.5 67.5h88q-18 -101 -95.5 -164t-198.5 -63t-200 63t-97 164zM805 1434l469 -1223q26 -72 61 -103t101 -38v-70h-592v70q105 8 133 33t2 92l-86 223h-535l-86 -223q-24 -61 12.5 -89t143.5 -36v-70h-448v70q69 8 107.5 38
t64.5 97l469 1229h184zM623 1114l-222 -579h447z" />
    <glyph glyph-name="abreve" unicode="&#x103;" horiz-adv-x="1091" 
d="M766 1354h88q-18 -101 -96 -164.5t-199 -63.5t-200 63.5t-97 164.5h92q30 -92 205 -92q80 0 137 24.5t70 67.5zM672 104q-180 -131 -334 -131q-127 0 -202 62t-75 166q0 166 185 250q86 40 178.5 64.5t243.5 51.5v109q0 107 -27 147.5t-100 40.5q-145 0 -185 -143
q-35 -111 -131 -111q-45 0 -71.5 29t-26.5 82q0 101 121 172q123 72 313 72q354 0 354 -299v-478q0 -94 62 -94q26 0 67 21v-90q-74 -50 -184 -50q-161 0 -188 129zM668 203v264q-180 -30 -263 -80t-83 -141q0 -61 35 -93t94 -32q101 0 217 82z" />
    <glyph glyph-name="Aogonek" unicode="&#x104;" 
d="M1436 0h-205q-129 -76 -129 -195q0 -47 32.5 -79.5t77.5 -32.5q80 0 129 82l74 -39q-83 -154 -250 -154q-103 0 -166 51t-63 136q0 146 174 231h-266v70q105 8 133 33t2 92l-86 223h-535l-86 -223q-24 -61 12.5 -89t143.5 -36v-70h-448v70q69 8 107.5 38t64.5 97
l469 1229h184l469 -1223q26 -72 61 -103t101 -38v-70zM623 1114l-222 -579h447z" />
    <glyph glyph-name="aogonek" unicode="&#x105;" horiz-adv-x="1091" 
d="M1004 -225l73 -39q-83 -154 -250 -154q-103 0 -166 51t-63 136q0 140 162 225q-70 27 -88 110q-180 -131 -334 -131q-127 0 -202 62t-75 166q0 166 185 250q86 40 178.5 64.5t243.5 51.5v109q0 107 -27 147.5t-100 40.5q-145 0 -185 -143q-35 -111 -131 -111
q-45 0 -71.5 29t-26.5 82q0 101 121 172q123 72 313 72q354 0 354 -299v-478q0 -94 62 -94q26 0 67 21v-90q-74 -50 -184 -50h-4q-92 -71 -92 -170q0 -47 32.5 -79.5t77.5 -32.5q81 0 130 82zM668 203v264q-180 -30 -263 -80t-83 -141q0 -61 35 -93t94 -32q101 0 217 82z
" />
    <glyph glyph-name="Cacute" unicode="&#x106;" horiz-adv-x="1427" 
d="M702 1536l181 309q18 37 63 37h146q36 0 36 -35q0 -27 -51 -69l-272 -242h-103zM1231 1434l112 -406l-65 -20q-86 164 -209 255t-268 91q-210 0 -313 -166.5t-103 -470.5t103 -470.5t313 -166.5q163 0 291 96q124 93 172 248l112 -39q-151 -416 -600 -416
q-309 0 -504 207q-194 209 -194 541t194 538q194 209 504 209q206 0 346 -96l29 66h80z" />
    <glyph glyph-name="cacute" unicode="&#x107;" horiz-adv-x="1007" 
d="M467 1036l180 310q17 36 64 36h145q37 0 37 -34q0 -28 -51 -70l-273 -242h-102zM807 606q-100 0 -121 115q-27 141 -147 141q-217 0 -217 -395q0 -187 70 -286t208 -99q184 0 283 233l94 -53q-129 -293 -414 -293q-226 0 -366 140q-136 142 -136 358t134 356
q136 142 346 142q164 0 274 -72q109 -71 109 -170q0 -54 -33 -85.5t-84 -31.5z" />
    <glyph glyph-name="Ccircumflex" unicode="&#x108;" horiz-adv-x="1427" 
d="M455 1534l209 311q27 41 69 41h88q43 0 70 -41l209 -311h-103l-221 201l-219 -201h-102zM1231 1434l112 -406l-65 -20q-86 164 -209 255t-268 91q-210 0 -313 -166.5t-103 -470.5t103 -470.5t313 -166.5q163 0 291 96q124 93 172 248l112 -39q-151 -416 -600 -416
q-309 0 -504 207q-194 209 -194 541t194 538q194 209 504 209q206 0 346 -96l29 66h80z" />
    <glyph glyph-name="ccircumflex" unicode="&#x109;" horiz-adv-x="1007" 
d="M219 1034l209 312q27 40 70 40h88q42 0 69 -40l209 -312h-102l-221 201l-219 -201h-103zM807 606q-100 0 -121 115q-27 141 -147 141q-217 0 -217 -395q0 -187 70 -286t208 -99q184 0 283 233l94 -53q-129 -293 -414 -293q-226 0 -366 140q-136 142 -136 358t134 356
q136 142 346 142q164 0 274 -72q109 -71 109 -170q0 -54 -33 -85.5t-84 -31.5z" />
    <glyph glyph-name="Cdotaccent" unicode="&#x10a;" horiz-adv-x="1427" 
d="M776 1884q58 0 94.5 -36t36.5 -89q0 -51 -36.5 -87t-94.5 -36q-56 0 -92.5 36t-36.5 87t36.5 88t92.5 37zM1231 1434l112 -406l-65 -20q-86 164 -209 255t-268 91q-210 0 -313 -166.5t-103 -470.5t103 -470.5t313 -166.5q163 0 291 96q124 93 172 248l112 -39
q-151 -416 -600 -416q-309 0 -504 207q-194 209 -194 541t194 538q194 209 504 209q206 0 346 -96l29 66h80z" />
    <glyph glyph-name="cdotaccent" unicode="&#x10b;" horiz-adv-x="1007" 
d="M541 1384q59 0 95 -36t36 -88q0 -51 -36.5 -87t-94.5 -36q-56 0 -92.5 36t-36.5 87t36.5 87.5t92.5 36.5zM807 606q-100 0 -121 115q-27 141 -147 141q-217 0 -217 -395q0 -187 70 -286t208 -99q184 0 283 233l94 -53q-129 -293 -414 -293q-226 0 -366 140
q-136 142 -136 358t134 356q136 142 346 142q164 0 274 -72q109 -71 109 -170q0 -54 -33 -85.5t-84 -31.5z" />
    <glyph glyph-name="Ccaron" unicode="&#x10c;" horiz-adv-x="1427" 
d="M664 1577l-209 309h102l219 -200l221 200h103l-209 -309q-27 -43 -70 -43h-88q-42 0 -69 43zM1231 1434l112 -406l-65 -20q-86 164 -209 255t-268 91q-210 0 -313 -166.5t-103 -470.5t103 -470.5t313 -166.5q163 0 291 96q124 93 172 248l112 -39q-151 -416 -600 -416
q-309 0 -504 207q-194 209 -194 541t194 538q194 209 504 209q206 0 346 -96l29 66h80z" />
    <glyph glyph-name="ccaron" unicode="&#x10d;" horiz-adv-x="1007" 
d="M428 1077l-209 309h103l219 -200l221 200h102l-209 -309q-27 -43 -69 -43h-88q-43 0 -70 43zM807 606q-100 0 -121 115q-27 141 -147 141q-217 0 -217 -395q0 -187 70 -286t208 -99q184 0 283 233l94 -53q-129 -293 -414 -293q-226 0 -366 140q-136 142 -136 358t134 356
q136 142 346 142q164 0 274 -72q109 -71 109 -170q0 -54 -33 -85.5t-84 -31.5z" />
    <glyph glyph-name="Dcaron" unicode="&#x10e;" horiz-adv-x="1572" 
d="M655 1577l-209 309h103l219 -200l221 200h103l-209 -309q-27 -43 -70 -43h-88q-43 0 -70 43zM715 0h-664v70q115 9 148 32q32 25 32 127v975q0 102 -32 127q-33 26 -148 35v68h666q375 0 577.5 -185t202.5 -532q0 -344 -205 -530.5t-577 -186.5zM717 1319h-142
q-27 0 -44 -16.5t-17 -45.5v-1079q0 -61 61 -61h140q227 0 350 135q125 137 125 465q0 330 -123 465q-122 137 -350 137z" />
    <glyph glyph-name="dcaron" unicode="&#x10f;" horiz-adv-x="1341" 
d="M1346 1339q0 -80 -58 -184q-62 -107 -127 -170l-43 37q84 110 105 205q-66 0 -105 37t-39 94q0 55 36.5 92t96.5 37q61 0 97.5 -41t36.5 -107zM635 1237v61l285 166h90v-1298q0 -50 25 -69.5t100 -26.5v-70q-182 0 -373 -31v103q-100 -103 -270 -103q-195 0 -314 137
q-117 138 -117 361q0 220 117 358q122 140 314 140q169 0 270 -101v310q0 35 -13.5 49t-46.5 14h-67zM762 186v564q-70 98 -197 98q-243 0 -243 -381q0 -379 243 -379q127 0 197 98z" />
    <glyph glyph-name="Dcroat" unicode="&#x110;" horiz-adv-x="1572" 
d="M51 1434h666q375 0 577.5 -185t202.5 -532q0 -344 -205 -530.5t-577 -186.5h-664v70q115 9 148 32q32 25 32 127v461h-180v117h180v397q0 102 -32 127q-33 26 -148 35v68zM575 117h140q227 0 350 135q125 137 125 465q0 330 -123 465q-122 137 -350 137h-142
q-27 0 -44 -16.5t-17 -45.5v-450h186v-117h-186v-512q0 -61 61 -61z" />
    <glyph glyph-name="dslash" unicode="&#x111;" horiz-adv-x="1181" 
d="M1135 1124v-80h-125v-878q0 -50 25 -69.5t100 -26.5v-70q-182 0 -373 -31v103q-100 -103 -270 -103q-195 0 -314 137q-117 138 -117 361q0 220 117 358q122 140 314 140q169 0 270 -101v180h-275v80h275v50q0 35 -13.5 49t-46.5 14h-67v61l285 166h90v-340h125zM762 186
v564q-70 98 -197 98q-243 0 -243 -381q0 -379 243 -379q127 0 197 98z" />
    <glyph glyph-name="Emacron" unicode="&#x112;" 
d="M459 1673v127h551v-127h-551zM575 117h160q364 0 613 313l57 -35l-199 -395h-1155v70q115 9 148 32q32 25 32 127v975q0 102 -32 127q-33 26 -148 35v68h1153l127 -353l-57 -28q-101 141 -226.5 203.5t-314.5 62.5h-158q-27 0 -44 -16.5t-17 -45.5v-450h287
q101 0 138.5 41.5t43.5 144.5h76v-489h-76q-6 103 -43.5 144.5t-138.5 41.5h-287v-512q0 -61 61 -61z" />
    <glyph glyph-name="emacron" unicode="&#x113;" horiz-adv-x="1064" 
d="M272 1174v126h551v-126h-551zM977 543h-651q-4 -66 -4 -76q0 -385 286 -385q97 0 176 60.5t129 170.5l95 -51q-135 -293 -424 -293q-243 0 -383 140t-140 358q0 216 134 356q133 142 352 142q201 0 315.5 -112t114.5 -310zM334 651h401q0 99 -49.5 155t-134.5 56
q-96 0 -147 -51.5t-70 -159.5z" />
    <glyph glyph-name="Ebreve" unicode="&#x114;" 
d="M940 1853h88q-18 -101 -96 -164t-199 -63t-200 63t-97 164h92q30 -92 205 -92q80 0 137 24.5t70 67.5zM575 117h160q364 0 613 313l57 -35l-199 -395h-1155v70q115 9 148 32q32 25 32 127v975q0 102 -32 127q-33 26 -148 35v68h1153l127 -353l-57 -28
q-101 141 -226.5 203.5t-314.5 62.5h-158q-27 0 -44 -16.5t-17 -45.5v-450h287q101 0 138.5 41.5t43.5 144.5h76v-489h-76q-6 103 -43.5 144.5t-138.5 41.5h-287v-512q0 -61 61 -61z" />
    <glyph glyph-name="ebreve" unicode="&#x115;" horiz-adv-x="1064" 
d="M754 1354h88q-18 -101 -96 -164.5t-199 -63.5t-200 63.5t-97 164.5h92q30 -92 205 -92q80 0 137 24.5t70 67.5zM977 543h-651q-4 -66 -4 -76q0 -385 286 -385q97 0 176 60.5t129 170.5l95 -51q-135 -293 -424 -293q-243 0 -383 140t-140 358q0 216 134 356
q133 142 352 142q201 0 315.5 -112t114.5 -310zM334 651h401q0 99 -49.5 155t-134.5 56q-96 0 -147 -51.5t-70 -159.5z" />
    <glyph glyph-name="Edotaccent" unicode="&#x116;" 
d="M733 1884q59 0 95 -36t36 -89q0 -51 -36.5 -87t-94.5 -36q-56 0 -92.5 36t-36.5 87t36.5 88t92.5 37zM575 117h160q364 0 613 313l57 -35l-199 -395h-1155v70q115 9 148 32q32 25 32 127v975q0 102 -32 127q-33 26 -148 35v68h1153l127 -353l-57 -28
q-101 141 -226.5 203.5t-314.5 62.5h-158q-27 0 -44 -16.5t-17 -45.5v-450h287q101 0 138.5 41.5t43.5 144.5h76v-489h-76q-6 103 -43.5 144.5t-138.5 41.5h-287v-512q0 -61 61 -61z" />
    <glyph glyph-name="edotaccent" unicode="&#x117;" horiz-adv-x="1064" 
d="M547 1384q59 0 95 -36t36 -88q0 -51 -36.5 -87t-94.5 -36q-56 0 -92.5 36t-36.5 87t36.5 87.5t92.5 36.5zM977 543h-651q-4 -66 -4 -76q0 -385 286 -385q97 0 176 60.5t129 170.5l95 -51q-135 -293 -424 -293q-243 0 -383 140t-140 358q0 216 134 356q133 142 352 142
q201 0 315.5 -112t114.5 -310zM334 651h401q0 99 -49.5 155t-134.5 56q-96 0 -147 -51.5t-70 -159.5z" />
    <glyph glyph-name="Eogonek" unicode="&#x118;" 
d="M1167 -307q80 0 129 82l74 -39q-83 -154 -250 -154q-103 0 -166 51t-63 136q0 146 174 231h-1014v70q115 9 148 32q32 25 32 127v975q0 102 -32 127q-33 26 -148 35v68h1153l127 -353l-57 -28q-101 141 -226.5 203.5t-314.5 62.5h-158q-27 0 -44 -16.5t-17 -45.5v-450
h287q101 0 138.5 41.5t43.5 144.5h76v-489h-76q-6 103 -43.5 144.5t-138.5 41.5h-287v-512q0 -61 61 -61h160q364 0 613 313l57 -35l-199 -395h-20q-129 -76 -129 -195q0 -47 32.5 -79.5t77.5 -32.5z" />
    <glyph glyph-name="eogonek" unicode="&#x119;" horiz-adv-x="1064" 
d="M735 -307q80 0 129 82l74 -39q-83 -154 -250 -154q-103 0 -166 51t-63 136q0 117 121 200q-244 3 -381 140q-138 138 -138 358q0 216 134 356q133 142 352 142q201 0 315.5 -112t114.5 -310h-651q-4 -66 -4 -76q0 -385 286 -385q97 0 176 60.5t129 170.5l95 -51
q-95 -200 -256 -264q-127 -77 -127 -193q0 -47 32.5 -79.5t77.5 -32.5zM551 862q-96 0 -147 -51.5t-70 -159.5h401q0 99 -49.5 155t-134.5 56z" />
    <glyph glyph-name="Ecaron" unicode="&#x11a;" 
d="M621 1577l-209 309h102l219 -200l221 200h103l-209 -309q-27 -43 -70 -43h-88q-42 0 -69 43zM575 117h160q364 0 613 313l57 -35l-199 -395h-1155v70q115 9 148 32q32 25 32 127v975q0 102 -32 127q-33 26 -148 35v68h1153l127 -353l-57 -28q-101 141 -226.5 203.5
t-314.5 62.5h-158q-27 0 -44 -16.5t-17 -45.5v-450h287q101 0 138.5 41.5t43.5 144.5h76v-489h-76q-6 103 -43.5 144.5t-138.5 41.5h-287v-512q0 -61 61 -61z" />
    <glyph glyph-name="ecaron" unicode="&#x11b;" horiz-adv-x="1064" 
d="M434 1077l-209 309h103l219 -200l221 200h102l-208 -309q-27 -43 -70 -43h-88q-43 0 -70 43zM977 543h-651q-4 -66 -4 -76q0 -385 286 -385q97 0 176 60.5t129 170.5l95 -51q-135 -293 -424 -293q-243 0 -383 140t-140 358q0 216 134 356q133 142 352 142
q201 0 315.5 -112t114.5 -310zM334 651h401q0 99 -49.5 155t-134.5 56q-96 0 -147 -51.5t-70 -159.5z" />
    <glyph glyph-name="Gcircumflex" unicode="&#x11c;" horiz-adv-x="1544" 
d="M457 1534l209 311q27 41 69 41h88q43 0 70 -41l209 -311h-103l-221 201l-219 -201h-102zM1268 0l-84 115q-155 -146 -406 -146q-311 0 -506 207q-194 209 -194 541t194 538q194 209 506 209q221 0 355 -96l28 66h80l113 -406l-66 -20q-175 346 -481 346q-214 0 -318 -166
t-104 -471q0 -301 101 -469t300 -168q93 0 174.5 35.5t114.5 81.5v237q0 101 -33 127q-29 26 -145 35v68h627v-68q-99 -9 -135 -37q-31 -28 -31 -125v-434h-90z" />
    <glyph glyph-name="gcircumflex" unicode="&#x11d;" horiz-adv-x="1083" 
d="M729 1034l-221 201l-219 -201h-103l209 312q27 40 70 40h88q43 0 70 -40l208 -312h-102zM895 911q-40 0 -74 -57q101 -94 101 -244q0 -157 -113 -255.5t-301 -98.5q-47 0 -118.5 12.5t-80.5 12.5q-40 0 -63 -17t-23 -43q0 -40 78 -55q73 -14 317 -23q219 -7 314.5 -68
t95.5 -190q0 -139 -132 -216t-357 -77q-476 0 -476 226q0 104 109 157q-106 52 -106 179q0 73 41 123.5t110 68.5q-121 100 -121 264q0 157 112 256t300 99q133 0 225 -50q109 146 250 146q57 0 92 -28t35 -77q0 -39 -26 -67.5t-66 -28.5q-25 0 -66.5 25.5t-56.5 25.5z
M508 356q176 0 176 254t-176 254q-174 0 -174 -254q0 -128 41 -191t133 -63zM831 -178q0 52 -53 67q-64 18 -217 21q-149 6 -254 24q-82 -30 -82 -98q0 -67 82 -105t230 -38q136 0 215 36.5t79 92.5z" />
    <glyph glyph-name="Gbreve" unicode="&#x11e;" horiz-adv-x="1544" 
d="M985 1853h88q-18 -101 -96 -164t-199 -63t-200 63t-97 164h92q30 -92 205 -92q80 0 137 24.5t70 67.5zM1268 0l-84 115q-155 -146 -406 -146q-311 0 -506 207q-194 209 -194 541t194 538q194 209 506 209q221 0 355 -96l28 66h80l113 -406l-66 -20q-175 346 -481 346
q-214 0 -318 -166t-104 -471q0 -301 101 -469t300 -168q93 0 174.5 35.5t114.5 81.5v237q0 101 -33 127q-29 26 -145 35v68h627v-68q-99 -9 -135 -37q-31 -28 -31 -125v-434h-90z" />
    <glyph glyph-name="gbreve" unicode="&#x11f;" horiz-adv-x="1083" 
d="M211 1354h92q30 -92 205 -92q80 0 137 24.5t70 67.5h88q-18 -101 -96 -164.5t-199 -63.5t-200 63.5t-97 164.5zM895 911q-40 0 -74 -57q101 -94 101 -244q0 -157 -113 -255.5t-301 -98.5q-47 0 -118.5 12.5t-80.5 12.5q-40 0 -63 -17t-23 -43q0 -40 78 -55
q73 -14 317 -23q219 -7 314.5 -68t95.5 -190q0 -139 -132 -216t-357 -77q-476 0 -476 226q0 104 109 157q-106 52 -106 179q0 73 41 123.5t110 68.5q-121 100 -121 264q0 157 112 256t300 99q133 0 225 -50q109 146 250 146q57 0 92 -28t35 -77q0 -39 -26 -67.5t-66 -28.5
q-25 0 -66.5 25.5t-56.5 25.5zM508 356q176 0 176 254t-176 254q-174 0 -174 -254q0 -128 41 -191t133 -63zM831 -178q0 52 -53 67q-64 18 -217 21q-149 6 -254 24q-82 -30 -82 -98q0 -67 82 -105t230 -38q136 0 215 36.5t79 92.5z" />
    <glyph glyph-name="Gdotaccent" unicode="&#x120;" horiz-adv-x="1544" 
d="M778 1884q58 0 94.5 -36t36.5 -89q0 -51 -36.5 -87t-94.5 -36q-56 0 -92.5 36t-36.5 87t36.5 88t92.5 37zM1268 0l-84 115q-155 -146 -406 -146q-311 0 -506 207q-194 209 -194 541t194 538q194 209 506 209q221 0 355 -96l28 66h80l113 -406l-66 -20q-175 346 -481 346
q-214 0 -318 -166t-104 -471q0 -301 101 -469t300 -168q93 0 174.5 35.5t114.5 81.5v237q0 101 -33 127q-29 26 -145 35v68h627v-68q-99 -9 -135 -37q-31 -28 -31 -125v-434h-90z" />
    <glyph glyph-name="gdotaccent" unicode="&#x121;" horiz-adv-x="1083" 
d="M508 1137q-56 0 -92.5 36t-36.5 87t36.5 87.5t92.5 36.5q59 0 95 -36t36 -88q0 -51 -36.5 -87t-94.5 -36zM895 911q-40 0 -74 -57q101 -94 101 -244q0 -157 -113 -255.5t-301 -98.5q-47 0 -118.5 12.5t-80.5 12.5q-40 0 -63 -17t-23 -43q0 -40 78 -55q73 -14 317 -23
q219 -7 314.5 -68t95.5 -190q0 -139 -132 -216t-357 -77q-476 0 -476 226q0 104 109 157q-106 52 -106 179q0 73 41 123.5t110 68.5q-121 100 -121 264q0 157 112 256t300 99q133 0 225 -50q109 146 250 146q57 0 92 -28t35 -77q0 -39 -26 -67.5t-66 -28.5q-25 0 -66.5 25.5
t-56.5 25.5zM508 356q176 0 176 254t-176 254q-174 0 -174 -254q0 -128 41 -191t133 -63zM831 -178q0 52 -53 67q-64 18 -217 21q-149 6 -254 24q-82 -30 -82 -98q0 -67 82 -105t230 -38q136 0 215 36.5t79 92.5z" />
    <glyph glyph-name="Gcommaaccent" unicode="&#x122;" horiz-adv-x="1544" 
d="M1268 0l-84 115q-155 -146 -406 -146q-311 0 -506 207q-194 209 -194 541t194 538q194 209 506 209q221 0 355 -96l28 66h80l113 -406l-66 -20q-175 346 -481 346q-214 0 -318 -166t-104 -471q0 -301 101 -469t300 -168q93 0 174.5 35.5t114.5 81.5v237q0 101 -33 127
q-29 26 -145 35v68h627v-68q-99 -9 -135 -37q-31 -28 -31 -125v-434h-90zM907 -254q0 -63 -38.5 -134.5t-94.5 -127.5l-41 33q34 64 51 123q-62 0 -98.5 35.5t-36.5 91.5q0 52 36.5 88t92.5 36q57 0 93 -39.5t36 -105.5z" />
    <glyph glyph-name="gcommaaccent" unicode="&#x123;" horiz-adv-x="1083" 
d="M383 1247q0 63 38.5 134.5t94.5 127.5l41 -32q-34 -64 -51 -123q62 0 98.5 -35.5t36.5 -91.5q0 -52 -36.5 -88.5t-92.5 -36.5q-57 0 -93 39.5t-36 105.5zM895 911q-40 0 -74 -57q101 -94 101 -244q0 -157 -113 -255.5t-301 -98.5q-47 0 -118.5 12.5t-80.5 12.5
q-40 0 -63 -17t-23 -43q0 -40 78 -55q73 -14 317 -23q219 -7 314.5 -68t95.5 -190q0 -139 -132 -216t-357 -77q-476 0 -476 226q0 104 109 157q-106 52 -106 179q0 73 41 123.5t110 68.5q-121 100 -121 264q0 157 112 256t300 99q133 0 225 -50q109 146 250 146q57 0 92 -28
t35 -77q0 -39 -26 -67.5t-66 -28.5q-25 0 -66.5 25.5t-56.5 25.5zM508 356q176 0 176 254t-176 254q-174 0 -174 -254q0 -128 41 -191t133 -63zM831 -178q0 52 -53 67q-64 18 -217 21q-149 6 -254 24q-82 -30 -82 -98q0 -67 82 -105t230 -38q136 0 215 36.5t79 92.5z" />
    <glyph glyph-name="Hcircumflex" unicode="&#x124;" horiz-adv-x="1640" 
d="M498 1534l209 311q27 41 69 41h88q43 0 70 -41l209 -311h-103l-221 201l-219 -201h-102zM1589 0h-643v70q115 9 148 32q32 25 32 127v461h-612v-461q0 -101 33 -127q33 -23 147 -32v-70h-643v70q115 9 148 32q32 25 32 127v975q0 102 -32 127q-33 26 -148 35v68h643v-68
q-114 -9 -147 -35t-33 -127v-397h612v397q0 102 -32 127q-33 26 -148 35v68h643v-68q-114 -9 -147 -35t-33 -127v-975q0 -101 33 -127q33 -23 147 -32v-70z" />
    <glyph glyph-name="hcircumflex" unicode="&#x125;" horiz-adv-x="1212" 
d="M285 1534l209 311q27 41 69 41h88q43 0 70 -41l209 -311h-103l-221 201l-219 -201h-102zM1165 0h-499v70q75 8 101 27.5t26 68.5v506q0 153 -148 153q-112 0 -225 -73v-586q0 -49 26 -68.5t101 -27.5v-70h-500v70q75 7 100 26.5t25 69.5v1008q0 35 -13 49t-44 14h-68v61
l285 166h88v-600q154 101 313 101q45 0 85 -7t82 -26.5t72 -51.5t49 -86.5t19 -125.5v-502q0 -50 25 -69.5t100 -26.5v-70z" />
    <glyph glyph-name="Hbar" unicode="&#x126;" horiz-adv-x="1632" 
d="M1585 1434v-68q-114 -9 -147 -35t-33 -127v-80h180v-114h-180v-781q0 -101 33 -127q33 -23 147 -32v-70h-643v70q115 9 148 32q32 25 32 127v461h-612v-461q0 -101 33 -127q33 -23 147 -32v-70h-643v70q115 9 148 32q32 25 32 127v781h-180v114h180v80q0 102 -32 127
q-33 26 -148 35v68h643v-68q-114 -9 -147 -35t-33 -127v-80h612v80q0 102 -32 127q-33 26 -148 35v68h643zM510 807h612v203h-612v-203z" />
    <glyph glyph-name="hbar" unicode="&#x127;" horiz-adv-x="1212" 
d="M1040 668v-502q0 -50 25 -69.5t100 -26.5v-70h-499v70q75 8 101 27.5t26 68.5v506q0 153 -148 153q-112 0 -225 -73v-586q0 -49 26 -68.5t101 -27.5v-70h-500v70q75 7 100 26.5t25 69.5v878h-125v80h125v50q0 35 -13 49t-44 14h-68v61l285 166h88v-340h274v-80h-274v-180
q154 101 313 101q45 0 85 -7t82 -26.5t72 -51.5t49 -86.5t19 -125.5z" />
    <glyph glyph-name="Itilde" unicode="&#x128;" horiz-adv-x="745" 
d="M590 1855h78q-6 -112 -56 -169.5t-123 -57.5q-56 0 -147 58q-62 45 -104 45q-65 0 -80 -84h-82q6 112 55 169.5t125 57.5q58 0 147 -57q65 -45 107 -45q65 0 80 83zM694 0h-643v70q115 9 148 32q32 25 32 127v975q0 102 -32 127q-33 26 -148 35v68h643v-68
q-114 -9 -147 -35t-33 -127v-975q0 -101 33 -127q33 -23 147 -32v-70z" />
    <glyph glyph-name="itilde" unicode="&#x129;" horiz-adv-x="591" 
d="M514 1356h78q-6 -112 -55.5 -170t-122.5 -58q-57 0 -148 58q-62 45 -104 45q-65 0 -80 -84h-82q6 112 55 169.5t125 57.5q59 0 148 -57q65 -45 106 -45q65 0 80 84zM547 0h-500v70q75 7 100 26.5t25 69.5v508q0 35 -13 49t-44 14h-68v62l285 166h88v-799q0 -49 26 -68.5
t101 -27.5v-70z" />
    <glyph glyph-name="Imacron" unicode="&#x12a;" horiz-adv-x="745" 
d="M98 1673v127h551v-127h-551zM694 0h-643v70q115 9 148 32q32 25 32 127v975q0 102 -32 127q-33 26 -148 35v68h643v-68q-114 -9 -147 -35t-33 -127v-975q0 -101 33 -127q33 -23 147 -32v-70z" />
    <glyph glyph-name="imacron" unicode="&#x12b;" horiz-adv-x="591" 
d="M23 1174v126h550v-126h-550zM547 0h-500v70q75 7 100 26.5t25 69.5v508q0 35 -13 49t-44 14h-68v62l285 166h88v-799q0 -49 26 -68.5t101 -27.5v-70z" />
    <glyph glyph-name="Ibreve" unicode="&#x12c;" horiz-adv-x="745" 
d="M580 1853h88q-18 -101 -96 -164t-199 -63t-200 63t-97 164h92q30 -92 205 -92q80 0 137 24.5t70 67.5zM694 0h-643v70q115 9 148 32q32 25 32 127v975q0 102 -32 127q-33 26 -148 35v68h643v-68q-114 -9 -147 -35t-33 -127v-975q0 -101 33 -127q33 -23 147 -32v-70z" />
    <glyph glyph-name="ibreve" unicode="&#x12d;" horiz-adv-x="591" 
d="M504 1354h88q-18 -101 -96 -164.5t-199 -63.5t-200 63.5t-97 164.5h92q30 -92 205 -92q80 0 137 24.5t70 67.5zM547 0h-500v70q75 7 100 26.5t25 69.5v508q0 35 -13 49t-44 14h-68v62l285 166h88v-799q0 -49 26 -68.5t101 -27.5v-70z" />
    <glyph glyph-name="Iogonek" unicode="&#x12e;" horiz-adv-x="745" 
d="M694 1434v-68q-114 -9 -147 -35t-33 -127v-975q0 -101 33 -127q33 -23 147 -32v-70h-225q-129 -76 -129 -195q0 -47 33 -79.5t78 -32.5q80 0 129 82l73 -39q-83 -154 -250 -154q-103 0 -166 51t-63 136q0 146 174 231h-297v70q115 9 148 32q32 25 32 127v975
q0 102 -32 127q-33 26 -148 35v68h643z" />
    <glyph glyph-name="iogonek" unicode="&#x12f;" horiz-adv-x="591" 
d="M152 1278q0 61 41.5 103t107.5 42t109 -43t43 -102q0 -58 -43 -99.5t-109 -41.5t-107.5 41t-41.5 100zM547 0h-185q-129 -76 -129 -195q0 -47 33 -79.5t78 -32.5q80 0 129 82l74 -39q-83 -154 -250 -154q-103 0 -166 51t-63 136q0 146 174 231h-195v70q75 7 100 26.5
t25 69.5v508q0 35 -13 49t-44 14h-68v62l285 166h88v-799q0 -49 26 -68.5t101 -27.5v-70z" />
    <glyph glyph-name="Idot" unicode="&#x130;" horiz-adv-x="745" 
d="M373 1884q59 0 95 -36t36 -89q0 -51 -36.5 -87t-94.5 -36q-56 0 -92.5 36t-36.5 87t36.5 88t92.5 37zM694 0h-643v70q115 9 148 32q32 25 32 127v975q0 102 -32 127q-33 26 -148 35v68h643v-68q-114 -9 -147 -35t-33 -127v-975q0 -101 33 -127q33 -23 147 -32v-70z" />
    <glyph glyph-name="dotlessi" unicode="&#x131;" horiz-adv-x="591" 
d="M547 0h-500v70q75 7 100 26.5t25 69.5v508q0 35 -13 49t-44 14h-68v62l285 166h88v-799q0 -49 26 -68.5t101 -27.5v-70z" />
    <glyph glyph-name="IJ" unicode="&#x132;" horiz-adv-x="1476" 
d="M694 0h-643v70q115 9 148 32q32 25 32 127v975q0 102 -32 127q-33 26 -148 35v68h643v-68q-114 -9 -147 -35t-33 -127v-975q0 -101 33 -127q33 -23 147 -32v-70zM1260 1204v-1136q0 -251 -125.5 -380.5t-341.5 -129.5q-145 0 -224.5 57t-79.5 141q0 57 36.5 94t90.5 37
q45 0 76 -20t46 -48t27 -56t30.5 -48t46.5 -20q70 0 102.5 73.5t32.5 241.5v1194q0 101 -33 127t-147 35v68h643v-68q-115 -9 -148 -35q-32 -25 -32 -127z" />
    <glyph glyph-name="ij" unicode="&#x133;" horiz-adv-x="1163" 
d="M152 1278q0 61 41.5 103t107.5 42t109 -43t43 -102q0 -58 -43 -99.5t-109 -41.5t-107.5 41t-41.5 100zM743 1278q0 61 42 103t108 42t108.5 -43t42.5 -102q0 -58 -42.5 -99.5t-108.5 -41.5t-108 41t-42 100zM547 0h-500v70q75 7 100 26.5t25 69.5v508q0 35 -13 49t-44 14
h-68v62l285 166h88v-799q0 -49 26 -68.5t101 -27.5v-70zM377 -258q0 44 37 79.5t84 35.5q39 0 66.5 -21.5t39.5 -47.5t30.5 -47.5t41.5 -21.5q39 0 63.5 36t24.5 100v819q0 35 -13 49t-44 14h-68v62l285 166h88v-908q0 -223 -121 -344t-309 -121q-94 0 -149.5 39.5
t-55.5 110.5z" />
    <glyph glyph-name="Jcircumflex" unicode="&#x134;" horiz-adv-x="731" 
d="M53 1534l209 311q27 41 70 41h88q42 0 69 -41l209 -311h-102l-221 201l-219 -201h-103zM514 1204v-1136q0 -251 -125.5 -380.5t-341.5 -129.5q-145 0 -224 56.5t-79 141.5q0 57 36.5 94t90.5 37q45 0 75.5 -20t45.5 -48t27 -56t30.5 -48t46.5 -20q70 0 102.5 73.5
t32.5 241.5v1194q0 102 -32 127q-33 26 -148 35v68h643v-68q-114 -9 -147 -35t-33 -127z" />
    <glyph glyph-name="jcircumflex" unicode="&#x135;" horiz-adv-x="571" 
d="M-23 1034l209 312q27 40 70 40h88q43 0 70 -40l209 -312h-103l-221 201l-219 -201h-103zM-215 -258q0 44 37 79.5t84 35.5q39 0 66.5 -21.5t39.5 -47.5t30.5 -47.5t41.5 -21.5q39 0 63.5 36t24.5 100v819q0 35 -13 49t-44 14h-68v62l285 166h88v-908q0 -223 -121 -344
t-309 -121q-94 0 -149.5 39.5t-55.5 110.5z" />
    <glyph glyph-name="Kcommaaccent" unicode="&#x136;" horiz-adv-x="1538" 
d="M694 0h-643v70q115 9 148 32q32 25 32 127v975q0 102 -32 127q-33 26 -148 35v68h643v-68q-114 -9 -147 -35t-33 -127v-459l500 457q21 21 34 41.5t14.5 41.5t-11.5 37.5t-48 28.5t-90 15v68h560v-68q-77 -9 -132 -37q-53 -29 -145 -112l-350 -322l526 -705
q86 -117 193 -120v-70h-647v70q104 8 125 41.5t-33 111.5l-369 484l-127 -117v-361q0 -101 33 -127q33 -23 147 -32v-70zM938 -254q0 -63 -38.5 -134.5t-94.5 -127.5l-41 33q34 64 51 123q-62 0 -98.5 35.5t-36.5 91.5q0 52 36.5 88t92.5 36q57 0 93 -39.5t36 -105.5z" />
    <glyph glyph-name="kcommaaccent" unicode="&#x137;" horiz-adv-x="1161" 
d="M547 0h-500v70q75 7 100 26.5t25 69.5v1008q0 35 -13 49t-44 14h-68v61l285 166h88v-970l233 229q39 34 46.5 64.5t-23 52.5t-98.5 26v68h507v-68q-85 -9 -135 -35q-48 -22 -125 -96l-114 -114l319 -431q49 -65 82.5 -88.5t83.5 -31.5v-70h-551v70q56 5 85 24t27.5 45
t-24.5 56l-198 256l-115 -111v-174q0 -49 26 -68.5t101 -27.5v-70zM725 -254q0 -63 -38.5 -134.5t-94.5 -127.5l-41 33q34 64 51 123q-62 0 -98.5 35.5t-36.5 91.5q0 52 36.5 88t92.5 36q57 0 93 -39.5t36 -105.5z" />
    <glyph glyph-name="kgreenlandic" unicode="&#x138;" horiz-adv-x="1161" 
d="M547 0h-500v70q75 7 100 26.5t25 69.5v508q0 35 -13 49t-44 14h-68v62l285 166h88v-471l233 229q39 34 46.5 64.5t-23 52.5t-98.5 26v68h507v-68q-85 -9 -135 -35q-48 -22 -125 -96l-114 -114l319 -431q49 -65 82.5 -88.5t83.5 -31.5v-70h-551v70q56 5 85 24t27.5 45
t-24.5 56l-198 256l-115 -111v-174q0 -49 26 -68.5t101 -27.5v-70z" />
    <glyph glyph-name="Lacute" unicode="&#x139;" horiz-adv-x="1306" 
d="M303 1536l180 309q18 37 64 37h145q37 0 37 -35q0 -27 -51 -69l-272 -242h-103zM575 117h99q316 0 565 313l57 -35l-198 -395h-1047v70q115 9 148 32q32 25 32 127v975q0 102 -32 127q-33 26 -148 35v68h643v-68q-114 -9 -147 -35t-33 -127v-1026q0 -61 61 -61z" />
    <glyph glyph-name="lacute" unicode="&#x13a;" horiz-adv-x="591" 
d="M223 1536l180 309q18 37 64 37h145q37 0 37 -35q0 -27 -51 -69l-272 -242h-103zM547 0h-500v70q75 7 100 26.5t25 69.5v1008q0 35 -13 49t-44 14h-68v61l285 166h88v-1298q0 -49 26 -68.5t101 -27.5v-70z" />
    <glyph glyph-name="Lcommaaccent" unicode="&#x13b;" horiz-adv-x="1306" 
d="M575 117h99q316 0 565 313l57 -35l-198 -395h-1047v70q115 9 148 32q32 25 32 127v975q0 102 -32 127q-33 26 -148 35v68h643v-68q-114 -9 -147 -35t-33 -127v-1026q0 -61 61 -61zM791 -254q0 -63 -39 -134.5t-95 -127.5l-41 33q36 68 52 123q-62 0 -99 35.5t-37 91.5
q0 52 37 88t93 36q57 0 93 -39.5t36 -105.5z" />
    <glyph glyph-name="lcommaaccent" unicode="&#x13c;" horiz-adv-x="591" 
d="M547 0h-500v70q75 7 100 26.5t25 69.5v1008q0 35 -13 49t-44 14h-68v61l285 166h88v-1298q0 -49 26 -68.5t101 -27.5v-70zM424 -254q0 -63 -38.5 -134.5t-94.5 -127.5l-41 33q34 64 51 123q-62 0 -98.5 35.5t-36.5 91.5q0 52 36.5 88t92.5 36q57 0 93 -39.5t36 -105.5z
" />
    <glyph glyph-name="Lcaron" unicode="&#x13d;" horiz-adv-x="1306" 
d="M1102 1274q0 -98 -72 -230q-70 -125 -156 -208l-53 45q102 135 129 254q-82 0 -129 45.5t-47 115.5q0 65 46 111.5t118 46.5q73 0 118.5 -50t45.5 -130zM575 117h99q316 0 565 313l57 -35l-198 -395h-1047v70q115 9 148 32q32 25 32 127v975q0 102 -32 127
q-33 26 -148 35v68h643v-68q-114 -9 -147 -35t-33 -127v-1026q0 -61 61 -61z" />
    <glyph glyph-name="lcaron" unicode="&#x13e;" horiz-adv-x="743" 
d="M745 1339q0 -82 -57 -184q-62 -107 -127 -170l-43 37q84 110 105 205q-66 0 -105 37t-39 94q0 55 36.5 92t96.5 37q61 0 97 -40.5t36 -107.5zM547 0h-500v70q75 7 100 26.5t25 69.5v1008q0 35 -13 49t-44 14h-68v61l285 166h88v-1298q0 -49 26 -68.5t101 -27.5v-70z" />
    <glyph glyph-name="Ldot" unicode="&#x13f;" horiz-adv-x="1306" 
d="M575 117h99q316 0 565 313l57 -35l-198 -395h-1047v70q115 9 148 32q32 25 32 127v975q0 102 -32 127q-33 26 -148 35v68h643v-68q-114 -9 -147 -35t-33 -127v-1026q0 -61 61 -61zM999 909q71 0 117.5 -46.5t46.5 -110.5q0 -69 -46 -115.5t-118 -46.5t-117.5 46.5
t-45.5 115.5q0 65 45.5 111t117.5 46z" />
    <glyph glyph-name="ldot" unicode="&#x140;" horiz-adv-x="808" 
d="M547 0h-500v70q75 7 100 26.5t25 69.5v1008q0 35 -13 49t-44 14h-68v61l285 166h88v-1298q0 -49 26 -68.5t101 -27.5v-70zM698 635q70 0 117 -46.5t47 -111.5q0 -69 -46 -115.5t-118 -46.5t-117.5 46.5t-45.5 115.5q0 65 45.5 111.5t117.5 46.5z" />
    <glyph glyph-name="Lslash" unicode="&#x141;" horiz-adv-x="1306" 
d="M1239 430l57 -35l-198 -395h-1047v70q115 9 148 32q32 25 32 127v351l-180 -105v117l180 104v508q0 102 -32 127q-33 26 -148 35v68h643v-68q-114 -9 -147 -35t-33 -127v-346l180 105v-117l-180 -105v-563q0 -61 61 -61h99q316 0 565 313z" />
    <glyph glyph-name="lslash" unicode="&#x142;" horiz-adv-x="591" 
d="M547 670v-119l-127 -74v-311q0 -49 26 -68.5t101 -27.5v-70h-500v70q75 7 100 26.5t25 69.5v170l-125 -72v119l125 72v719q0 35 -13 49t-44 14h-68v61l285 166h88v-868z" />
    <glyph glyph-name="Nacute" unicode="&#x143;" horiz-adv-x="1519" 
d="M690 1536l180 309q18 37 64 37h145q37 0 37 -35q0 -27 -51 -69l-272 -242h-103zM545 0h-494v70q118 9 150 34t32 125v975q0 100 -34 127q-33 26 -148 35v68h502l623 -963v733q0 101 -33 127q-29 26 -146 35v68h488v-68q-115 -9 -148 -35q-30 -27 -30 -127v-1204h-166
l-776 1202v-973q0 -102 32 -127q33 -23 148 -32v-70z" />
    <glyph glyph-name="nacute" unicode="&#x144;" horiz-adv-x="1212" 
d="M532 1036l181 310q17 36 63 36h146q36 0 36 -34q0 -28 -51 -70l-272 -242h-103zM1165 0h-499v70q75 8 101 27.5t26 68.5v506q0 153 -148 153q-112 0 -225 -73v-586q0 -49 26 -68.5t101 -27.5v-70h-500v70q75 7 100 26.5t25 69.5v508q0 35 -13 49t-44 14h-68v62l285 166
h88v-101q154 101 313 101q45 0 85 -7t82 -26.5t72 -51.5t49 -86.5t19 -125.5v-502q0 -50 25 -69.5t100 -26.5v-70z" />
    <glyph glyph-name="Ncommaaccent" unicode="&#x145;" horiz-adv-x="1519" 
d="M545 0h-494v70q118 9 150 34t32 125v975q0 100 -34 127q-33 26 -148 35v68h502l623 -963v733q0 101 -33 127q-29 26 -146 35v68h488v-68q-115 -9 -148 -35q-30 -27 -30 -127v-1204h-166l-776 1202v-973q0 -102 32 -127q33 -23 148 -32v-70zM893 -254q0 -63 -38.5 -134.5
t-94.5 -127.5l-41 33q34 64 51 123q-62 0 -98.5 35.5t-36.5 91.5q0 52 36.5 88t92.5 36q57 0 93 -39.5t36 -105.5z" />
    <glyph glyph-name="ncommaaccent" unicode="&#x146;" horiz-adv-x="1212" 
d="M1165 0h-499v70q75 8 101 27.5t26 68.5v506q0 153 -148 153q-112 0 -225 -73v-586q0 -49 26 -68.5t101 -27.5v-70h-500v70q75 7 100 26.5t25 69.5v508q0 35 -13 49t-44 14h-68v62l285 166h88v-101q154 101 313 101q45 0 85 -7t82 -26.5t72 -51.5t49 -86.5t19 -125.5v-502
q0 -50 25 -69.5t100 -26.5v-70zM735 -254q0 -63 -38.5 -134.5t-94.5 -127.5l-41 33q34 64 51 123q-62 0 -98.5 35.5t-36.5 91.5q0 52 36.5 88t92.5 36q57 0 93 -39.5t36 -105.5z" />
    <glyph glyph-name="Ncaron" unicode="&#x147;" horiz-adv-x="1519" 
d="M651 1577l-209 309h103l219 -200l221 200h102l-208 -309q-27 -43 -70 -43h-88q-43 0 -70 43zM545 0h-494v70q118 9 150 34t32 125v975q0 100 -34 127q-33 26 -148 35v68h502l623 -963v733q0 101 -33 127q-29 26 -146 35v68h488v-68q-115 -9 -148 -35q-30 -27 -30 -127
v-1204h-166l-776 1202v-973q0 -102 32 -127q33 -23 148 -32v-70z" />
    <glyph glyph-name="ncaron" unicode="&#x148;" horiz-adv-x="1212" 
d="M494 1077l-209 309h102l219 -200l221 200h103l-209 -309q-27 -43 -70 -43h-88q-42 0 -69 43zM1165 0h-499v70q75 8 101 27.5t26 68.5v506q0 153 -148 153q-112 0 -225 -73v-586q0 -49 26 -68.5t101 -27.5v-70h-500v70q75 7 100 26.5t25 69.5v508q0 35 -13 49t-44 14h-68
v62l285 166h88v-101q154 101 313 101q45 0 85 -7t82 -26.5t72 -51.5t49 -86.5t19 -125.5v-502q0 -50 25 -69.5t100 -26.5v-70z" />
    <glyph glyph-name="napostrophe" unicode="&#x149;" horiz-adv-x="1212" 
d="M1165 0h-499v70q75 8 101 27.5t26 68.5v506q0 153 -148 153q-112 0 -225 -73v-586q0 -49 26 -68.5t101 -27.5v-70h-500v70q75 7 100 26.5t25 69.5v508q0 35 -13 49t-44 14h-68v62l285 166h88v-101q154 101 313 101q45 0 85 -7t82 -26.5t72 -51.5t49 -86.5t19 -125.5v-502
q0 -50 25 -69.5t100 -26.5v-70zM735 -254q0 -63 -38.5 -134.5t-94.5 -127.5l-41 33q34 64 51 123q-62 0 -98.5 35.5t-36.5 91.5q0 52 36.5 88t92.5 36q57 0 93 -39.5t36 -105.5z" />
    <glyph glyph-name="Eng" unicode="&#x14a;" horiz-adv-x="1519" 
d="M997 1366v68h488v-68q-115 -9 -148 -35q-30 -27 -30 -127v-1200q0 -221 -77 -325.5t-259 -104.5q-134 0 -208.5 56.5t-74.5 140.5q0 59 36 96t91 37q46 0 75.5 -20t43.5 -48.5t25 -57.5t30.5 -49t50.5 -20q69 0 99.5 53.5t34.5 186.5l-809 1255v-975q0 -102 32 -127
q33 -23 148 -32v-70h-494v70q118 9 150 34t32 125v975q0 100 -34 127q-33 26 -148 35v68h502l623 -963v733q0 101 -33 127q-29 26 -146 35z" />
    <glyph glyph-name="eng" unicode="&#x14b;" horiz-adv-x="1191" 
d="M406 -258q0 44 36.5 79.5t83.5 35.5q31 0 54.5 -14t36.5 -34.5t24.5 -41t26.5 -34.5t34 -14q91 0 91 136v817q0 153 -148 153q-112 0 -225 -73v-586q0 -49 26 -68.5t101 -27.5v-70h-500v70q75 7 100 26.5t25 69.5v508q0 35 -13 49t-44 14h-68v62l285 166h88v-101
q154 101 313 101q45 0 85 -7t82 -26.5t72 -51.5t49 -86.5t19 -125.5v-611q0 -225 -122 -344q-121 -121 -308 -121q-94 0 -149 39.5t-55 110.5z" />
    <glyph glyph-name="Omacron" unicode="&#x14c;" horiz-adv-x="1579" 
d="M516 1673v127h551v-127h-551zM791 1464q325 0 520 -207q192 -204 192 -540q0 -339 -192 -543q-193 -205 -520 -205q-330 0 -523 205q-190 205 -190 543q0 335 190 540q195 207 523 207zM385 717q0 -637 406 -637q405 0 405 637t-405 637q-406 0 -406 -637z" />
    <glyph glyph-name="omacron" unicode="&#x14d;" horiz-adv-x="1136" 
d="M295 1174v126h551v-126h-551zM201 823q142 142 368 142q228 0 367 -142q139 -139 139 -356q0 -216 -139 -358q-140 -140 -367 -140q-225 0 -368 140q-140 143 -140 358q0 216 140 356zM569 72q246 0 246 395t-246 395q-247 0 -247 -395t247 -395z" />
    <glyph glyph-name="Obreve" unicode="&#x14e;" horiz-adv-x="1579" 
d="M997 1853h88q-18 -101 -95.5 -164t-198.5 -63t-200 63t-97 164h92q30 -92 205 -92q80 0 136.5 24.5t69.5 67.5zM791 1464q325 0 520 -207q192 -204 192 -540q0 -339 -192 -543q-193 -205 -520 -205q-330 0 -523 205q-190 205 -190 543q0 335 190 540q195 207 523 207z
M385 717q0 -637 406 -637q405 0 405 637t-405 637q-406 0 -406 -637z" />
    <glyph glyph-name="obreve" unicode="&#x14f;" horiz-adv-x="1136" 
d="M776 1354h88q-18 -101 -96 -164.5t-199 -63.5t-200 63.5t-97 164.5h93q30 -92 204 -92q80 0 137 24.5t70 67.5zM201 823q142 142 368 142q228 0 367 -142q139 -139 139 -356q0 -216 -139 -358q-140 -140 -367 -140q-225 0 -368 140q-140 143 -140 358q0 216 140 356z
M569 72q246 0 246 395t-246 395q-247 0 -247 -395t247 -395z" />
    <glyph glyph-name="Ohungarumlaut" unicode="&#x150;" horiz-adv-x="1579" 
d="M584 1536l80 299q7 28 19.5 37.5t39.5 9.5h123q41 0 41 -35q0 -22 -35 -69l-182 -242h-86zM891 1536l84 299q12 47 63 47h115q41 0 41 -35q0 -22 -35 -69l-182 -242h-86zM791 1464q325 0 520 -207q192 -204 192 -540q0 -339 -192 -543q-193 -205 -520 -205
q-330 0 -523 205q-190 205 -190 543q0 335 190 540q195 207 523 207zM385 717q0 -637 406 -637q405 0 405 637t-405 637q-406 0 -406 -637z" />
    <glyph glyph-name="ohungarumlaut" unicode="&#x151;" horiz-adv-x="1136" 
d="M362 1036l80 299q7 28 20 37.5t40 9.5h123q41 0 41 -34q0 -23 -35 -70l-182 -242h-87zM670 1036l84 299q12 47 63 47h115q41 0 41 -34q0 -23 -35 -70l-182 -242h-86zM201 823q142 142 368 142q228 0 367 -142q139 -139 139 -356q0 -216 -139 -358q-140 -140 -367 -140
q-225 0 -368 140q-140 143 -140 358q0 216 140 356zM569 72q246 0 246 395t-246 395q-247 0 -247 -395t247 -395z" />
    <glyph glyph-name="OE" unicode="&#x152;" horiz-adv-x="2344" 
d="M1505 117h160q363 0 612 313l58 -35l-201 -395h-1042q-143 -31 -277 -31q-347 0 -543 205q-194 206 -194 543t194 543q195 204 543 204q155 0 275 -30h1042l129 -353l-59 -28q-99 140 -225 203t-314 63h-158q-61 0 -61 -62v-450h287q101 0 138.5 41.5t43.5 144.5h74v-489
h-74q-6 103 -43.5 144.5t-138.5 41.5h-287v-512q0 -61 61 -61zM815 80q192 0 279.5 104.5t87.5 307.5v469q0 199 -86.5 296t-280.5 97q-226 0 -328 -161.5t-102 -475.5q0 -312 102 -474.5t328 -162.5z" />
    <glyph glyph-name="oe" unicode="&#x153;" horiz-adv-x="1787" 
d="M1731 543h-652q-4 -54 -4 -66q0 -197 68.5 -296t218.5 -99q97 0 176 60.5t129 170.5l94 -51q-135 -293 -424 -293q-267 0 -393 185q-129 -185 -375 -185q-223 0 -366 140q-142 139 -142 358q0 216 140 356q142 142 368 142q243 0 373 -183q121 183 358 183
q200 0 315.5 -111.5t115.5 -310.5zM569 72q246 0 246 395t-246 395q-247 0 -247 -395t247 -395zM1087 651h402q0 99 -49.5 155t-134.5 56q-96 0 -147.5 -51.5t-70.5 -159.5z" />
    <glyph glyph-name="Racute" unicode="&#x154;" horiz-adv-x="1507" 
d="M715 1536l180 309q18 37 63 37h146q37 0 37 -35q0 -27 -51 -69l-273 -242h-102zM965 700l348 -507q42 -62 88 -89t127 -34v-70h-404l-460 684h-150v-455q0 -101 33 -127q33 -23 147 -32v-70h-643v70q115 9 148 32q32 25 32 127v975q0 100 -30 127q-29 26 -150 35v68h709
q315 0 470.5 -87.5t155.5 -283.5q0 -323 -421 -363zM760 1319h-185q-27 0 -44 -16.5t-17 -45.5v-456h242q163 0 243 62.5t80 199.5q0 134 -79 195t-240 61z" />
    <glyph glyph-name="racute" unicode="&#x155;" horiz-adv-x="866" 
d="M375 1036l180 310q17 36 63 36h146q37 0 37 -34q0 -28 -51 -70l-273 -242h-102zM731 688q-56 0 -102 49q-45 51 -74 51q-78 0 -135 -81v-541q0 -49 26 -68.5t101 -27.5v-70h-500v70q75 7 100 26.5t25 69.5v508q0 35 -13 49t-44 14h-68v62l285 166h88v-129
q114 129 262 129q81 0 125.5 -38.5t44.5 -105.5q0 -60 -34.5 -96.5t-86.5 -36.5z" />
    <glyph glyph-name="Rcommaaccent" unicode="&#x156;" horiz-adv-x="1507" 
d="M965 700l348 -507q42 -62 88 -89t127 -34v-70h-404l-460 684h-150v-455q0 -101 33 -127q33 -23 147 -32v-70h-643v70q115 9 148 32q32 25 32 127v975q0 100 -30 127q-29 26 -150 35v68h709q315 0 470.5 -87.5t155.5 -283.5q0 -323 -421 -363zM760 1319h-185
q-27 0 -44 -16.5t-17 -45.5v-456h242q163 0 243 62.5t80 199.5q0 134 -79 195t-240 61zM918 -254q0 -63 -39 -134.5t-95 -127.5l-41 33q36 68 52 123q-62 0 -99 35.5t-37 91.5q0 52 36.5 88t92.5 36q58 0 94 -40t36 -105z" />
    <glyph glyph-name="rcommaaccent" unicode="&#x157;" horiz-adv-x="866" 
d="M731 688q-56 0 -102 49q-45 51 -74 51q-78 0 -135 -81v-541q0 -49 26 -68.5t101 -27.5v-70h-500v70q75 7 100 26.5t25 69.5v508q0 35 -13 49t-44 14h-68v62l285 166h88v-129q114 129 262 129q81 0 125.5 -38.5t44.5 -105.5q0 -60 -34.5 -96.5t-86.5 -36.5zM426 -254
q0 -63 -38.5 -134.5t-94.5 -127.5l-41 33q34 64 51 123q-62 0 -98.5 35.5t-36.5 91.5q0 52 36.5 88t92.5 36q57 0 93 -39.5t36 -105.5z" />
    <glyph glyph-name="Rcaron" unicode="&#x158;" horiz-adv-x="1507" 
d="M676 1577l-209 309h102l219 -200l222 200h102l-209 -309q-27 -43 -69 -43h-89q-42 0 -69 43zM965 700l348 -507q42 -62 88 -89t127 -34v-70h-404l-460 684h-150v-455q0 -101 33 -127q33 -23 147 -32v-70h-643v70q115 9 148 32q32 25 32 127v975q0 100 -30 127
q-29 26 -150 35v68h709q315 0 470.5 -87.5t155.5 -283.5q0 -323 -421 -363zM760 1319h-185q-27 0 -44 -16.5t-17 -45.5v-456h242q163 0 243 62.5t80 199.5q0 134 -79 195t-240 61z" />
    <glyph glyph-name="rcaron" unicode="&#x159;" horiz-adv-x="866" 
d="M336 1077l-209 309h102l220 -200l221 200h102l-209 -309q-27 -43 -69 -43h-88q-43 0 -70 43zM731 688q-56 0 -102 49q-45 51 -74 51q-78 0 -135 -81v-541q0 -49 26 -68.5t101 -27.5v-70h-500v70q75 7 100 26.5t25 69.5v508q0 35 -13 49t-44 14h-68v62l285 166h88v-129
q114 129 262 129q81 0 125.5 -38.5t44.5 -105.5q0 -60 -34.5 -96.5t-86.5 -36.5z" />
    <glyph glyph-name="Sacute" unicode="&#x15a;" horiz-adv-x="1388" 
d="M631 1536l180 309q18 37 63 37h146q37 0 37 -35q0 -27 -51 -69l-273 -242h-102zM778 891q30 -8 60 -16.5t57.5 -17t38.5 -11.5q46 -13 139 -58q90 -44 127 -81q48 -45 80.5 -117.5t32.5 -157.5q0 -205 -166 -334q-167 -129 -416 -129q-248 0 -434 107l-33 -76h-80
l-123 451l64 20q93 -184 249.5 -287.5t344.5 -103.5q134 0 231 72t94 180q0 97 -77 160q-32 28 -95 55q-89 38 -245 80l-105 30q-113 36 -194 80q-105 69 -144 127q-55 87 -55 201q0 181 147 289q146 110 363 110q237 0 395 -96l29 66h80l112 -406l-61 -18q-79 166 -215 255
t-317 89q-125 0 -200 -57t-75 -146q0 -80 72 -141q30 -23 88 -47l102 -37q110 -30 129 -35z" />
    <glyph glyph-name="sacute" unicode="&#x15b;" horiz-adv-x="972" 
d="M414 1036l180 310q17 36 63 36h146q37 0 37 -34q0 -27 -52 -70l-272 -242h-102zM555 602q95 -29 139 -45q52 -18 113 -55q121 -68 121 -211q0 -148 -113 -236q-112 -86 -283 -86q-195 0 -323 94l-25 -63h-63l-74 324l55 16q172 -270 422 -270q81 0 133 37t52 102
q0 57 -50 90q-20 16 -59 31q-49 22 -151 47q-97 27 -143 43.5t-103 48.5q-123 71 -123 211q0 121 104 203t260 82q168 0 281 -82l23 51h63l59 -283l-59 -18q-134 235 -346 235q-72 0 -113 -31t-41 -81q0 -42 35 -72q35 -29 76.5 -44.5t132.5 -37.5z" />
    <glyph glyph-name="Scircumflex" unicode="&#x15c;" horiz-adv-x="1388" 
d="M383 1534l209 311q27 41 70 41h88q42 0 69 -41l209 -311h-102l-221 201l-220 -201h-102zM778 891q30 -8 60 -16.5t57.5 -17t38.5 -11.5q46 -13 139 -58q90 -44 127 -81q48 -45 80.5 -117.5t32.5 -157.5q0 -205 -166 -334q-167 -129 -416 -129q-248 0 -434 107l-33 -76
h-80l-123 451l64 20q93 -184 249.5 -287.5t344.5 -103.5q134 0 231 72t94 180q0 97 -77 160q-32 28 -95 55q-89 38 -245 80l-105 30q-113 36 -194 80q-105 69 -144 127q-55 87 -55 201q0 181 147 289q146 110 363 110q237 0 395 -96l29 66h80l112 -406l-61 -18
q-79 166 -215 255t-317 89q-125 0 -200 -57t-75 -146q0 -80 72 -141q30 -23 88 -47l102 -37q110 -30 129 -35z" />
    <glyph glyph-name="scircumflex" unicode="&#x15d;" horiz-adv-x="972" 
d="M166 1034l209 312q27 40 69 40h88q43 0 70 -40l209 -312h-102l-222 201l-219 -201h-102zM555 602q95 -29 139 -45q52 -18 113 -55q121 -68 121 -211q0 -148 -113 -236q-112 -86 -283 -86q-195 0 -323 94l-25 -63h-63l-74 324l55 16q172 -270 422 -270q81 0 133 37t52 102
q0 57 -50 90q-20 16 -59 31q-49 22 -151 47q-97 27 -143 43.5t-103 48.5q-123 71 -123 211q0 121 104 203t260 82q168 0 281 -82l23 51h63l59 -283l-59 -18q-134 235 -346 235q-72 0 -113 -31t-41 -81q0 -42 35 -72q35 -29 76.5 -44.5t132.5 -37.5z" />
    <glyph glyph-name="Scedilla" unicode="&#x15e;" horiz-adv-x="1388" 
d="M1313 432q0 -200 -156 -326q-159 -128 -395 -137l-43 -98q19 8 55 8q73 0 115.5 -35t42.5 -96q0 -82 -79.5 -141.5t-199.5 -59.5q-97 0 -163 38t-66 93q0 27 19.5 47.5t45.5 20.5q33 0 49.5 -13.5t30.5 -43.5q31 -66 99 -66q53 0 83.5 26.5t30.5 69.5q0 29 -21.5 47.5
t-53.5 18.5q-47 0 -74 -27l-58 27l80 186q-196 15 -358 105l-33 -76h-80l-123 451l64 20q93 -184 249.5 -287.5t344.5 -103.5q134 0 231 72t94 180q0 97 -77 160q-32 28 -95 55q-89 38 -245 80l-105 30q-113 36 -194 80q-105 69 -144 127q-55 87 -55 201q0 181 147 289
q146 110 363 110q237 0 395 -96l29 66h80l112 -406l-61 -18q-79 166 -215 255t-317 89q-125 0 -200 -57t-75 -146q0 -80 72 -141q30 -23 88 -47l102 -37q110 -30 129 -35q30 -8 60 -16.5t57.5 -17t38.5 -11.5q46 -13 139 -58q90 -44 127 -81q48 -45 80.5 -117.5t32.5 -157.5
z" />
    <glyph glyph-name="scedilla" unicode="&#x15f;" horiz-adv-x="972" 
d="M928 291q0 -143 -109 -232q-110 -87 -274 -90l-43 -98q19 8 55 8q73 0 115.5 -35t42.5 -96q0 -82 -79.5 -141.5t-199.5 -59.5q-97 0 -163 38t-66 93q0 27 19.5 47.5t45.5 20.5q33 0 49.5 -13.5t30.5 -43.5q31 -66 99 -66q53 0 83.5 26.5t30.5 69.5q0 29 -21.5 47.5
t-54.5 18.5q-46 0 -73 -27l-58 27l82 190q-141 21 -231 88l-25 -63h-63l-74 324l55 16q172 -270 422 -270q81 0 133 37t52 102q0 57 -50 90q-20 16 -59 31q-49 22 -151 47q-97 27 -143 43.5t-103 48.5q-123 71 -123 211q0 121 104 203t260 82q168 0 281 -82l23 51h63
l59 -283l-59 -18q-134 235 -346 235q-72 0 -113 -31t-41 -81q0 -42 35 -72q35 -29 76.5 -44.5t132.5 -37.5q95 -29 139 -45q52 -18 113 -55q121 -68 121 -211z" />
    <glyph glyph-name="Scaron" unicode="&#x160;" horiz-adv-x="1388" 
d="M592 1577l-209 309h102l220 -200l221 200h102l-209 -309q-27 -43 -69 -43h-88q-43 0 -70 43zM778 891q30 -8 60 -16.5t57.5 -17t38.5 -11.5q46 -13 139 -58q90 -44 127 -81q48 -45 80.5 -117.5t32.5 -157.5q0 -205 -166 -334q-167 -129 -416 -129q-248 0 -434 107
l-33 -76h-80l-123 451l64 20q93 -184 249.5 -287.5t344.5 -103.5q134 0 231 72t94 180q0 97 -77 160q-32 28 -95 55q-89 38 -245 80l-105 30q-113 36 -194 80q-105 69 -144 127q-55 87 -55 201q0 181 147 289q146 110 363 110q237 0 395 -96l29 66h80l112 -406l-61 -18
q-79 166 -215 255t-317 89q-125 0 -200 -57t-75 -146q0 -80 72 -141q30 -23 88 -47l102 -37q110 -30 129 -35z" />
    <glyph glyph-name="scaron" unicode="&#x161;" horiz-adv-x="972" 
d="M375 1077l-209 309h102l219 -200l222 200h102l-209 -309q-27 -43 -70 -43h-88q-42 0 -69 43zM555 602q95 -29 139 -45q52 -18 113 -55q121 -68 121 -211q0 -148 -113 -236q-112 -86 -283 -86q-195 0 -323 94l-25 -63h-63l-74 324l55 16q172 -270 422 -270q81 0 133 37
t52 102q0 57 -50 90q-20 16 -59 31q-49 22 -151 47q-97 27 -143 43.5t-103 48.5q-123 71 -123 211q0 121 104 203t260 82q168 0 281 -82l23 51h63l59 -283l-59 -18q-134 235 -346 235q-72 0 -113 -31t-41 -81q0 -42 35 -72q35 -29 76.5 -44.5t132.5 -37.5z" />
    <glyph glyph-name="uni0162" unicode="&#x162;" horiz-adv-x="1392" 
d="M1014 70v-70h-643v70q114 9 147 32q33 26 33 127v1028q0 62 -62 62q-134 0 -223 -58.5t-180 -205.5l-59 26l145 398h70q15 -45 63 -45h785q48 0 63 45h70l143 -398l-59 -26q-87 145 -181.5 204.5t-230.5 59.5q-61 0 -61 -62v-1028q0 -102 32 -127q33 -23 148 -32z
M825 -254q0 -63 -38.5 -134.5t-94.5 -127.5l-41 33q34 64 51 123q-62 0 -98.5 35.5t-36.5 91.5q0 52 36.5 88t92.5 36q57 0 93 -39.5t36 -105.5z" />
    <glyph glyph-name="uni0163" unicode="&#x163;" horiz-adv-x="686" 
d="M639 115v-103q-85 -39 -205 -39q-138 0 -207 61.5t-69 198.5v594h-127v60q121 44 187.5 128t96.5 226h91v-307h233v-107h-233v-596q0 -141 112 -141q66 0 121 25zM412 -254q0 -63 -38.5 -134.5t-94.5 -127.5l-41 33q34 64 51 123q-62 0 -98.5 35.5t-36.5 91.5
q0 52 36.5 88t92.5 36q57 0 93 -39.5t36 -105.5z" />
    <glyph glyph-name="Tcaron" unicode="&#x164;" horiz-adv-x="1392" 
d="M584 1577l-209 309h102l219 -200l222 200h102l-209 -309q-27 -43 -70 -43h-88q-42 0 -69 43zM1014 70v-70h-643v70q114 9 147 32q33 26 33 127v1028q0 62 -62 62q-134 0 -223 -58.5t-180 -205.5l-59 26l145 398h70q15 -45 63 -45h785q48 0 63 45h70l143 -398l-59 -26
q-87 145 -181.5 204.5t-230.5 59.5q-61 0 -61 -62v-1028q0 -102 32 -127q33 -23 148 -32z" />
    <glyph glyph-name="tcaron" unicode="&#x165;" horiz-adv-x="724" 
d="M729 1339q0 -82 -57 -184q-62 -107 -127 -170l-43 37q82 108 104 205q-66 0 -104.5 37t-38.5 94q0 55 36.5 92t96.5 37q61 0 97 -40.5t36 -107.5zM639 115v-103q-85 -39 -205 -39q-138 0 -207 61.5t-69 198.5v594h-127v60q121 44 187.5 128t96.5 226h91v-307h233v-107
h-233v-596q0 -141 112 -141q66 0 121 25z" />
    <glyph glyph-name="Tbar" unicode="&#x166;" horiz-adv-x="1392" 
d="M1153 1479h70l143 -398l-59 -26q-87 145 -181.5 204.5t-230.5 59.5q-61 0 -61 -62v-450h186v-117h-186v-461q0 -102 32 -127q33 -23 148 -32v-70h-643v70q114 9 147 32q33 26 33 127v461h-178v117h178v450q0 62 -62 62q-134 0 -223 -58.5t-180 -205.5l-59 26l145 398h70
q15 -45 63 -45h785q48 0 63 45z" />
    <glyph glyph-name="tbar" unicode="&#x167;" horiz-adv-x="686" 
d="M639 934v-107h-233v-305h135v-108h-135v-183q0 -141 112 -141q66 0 121 25v-103q-85 -39 -205 -39q-138 0 -207 61.5t-69 198.5v181h-117v108h117v305h-127v60q121 44 187.5 128t96.5 226h91v-307h233z" />
    <glyph glyph-name="Utilde" unicode="&#x168;" horiz-adv-x="1570" 
d="M1024 1855h78q-6 -112 -55.5 -169.5t-122.5 -57.5q-57 0 -148 58q-62 45 -104 45q-65 0 -80 -84h-82q6 112 55 169.5t125 57.5q59 0 148 -57q65 -45 106 -45q65 0 80 83zM500 1204v-778q0 -163 100 -249.5t266 -86.5q164 0 260.5 91.5t96.5 260.5v762q0 101 -33 127
t-148 35v68h492v-68q-115 -9 -148 -35q-32 -25 -32 -127v-764q0 -219 -142.5 -345t-398.5 -126q-286 0 -441 121.5t-155 351.5v762q0 101 -33 127t-147 35v68h643v-68q-117 -9 -150 -35q-30 -27 -30 -127z" />
    <glyph glyph-name="utilde" unicode="&#x169;" horiz-adv-x="1196" 
d="M807 1356h78q-6 -112 -55.5 -170t-122.5 -58q-57 0 -148 58q-62 45 -104 45q-65 0 -80 -84h-82q6 112 55 169.5t125 57.5q59 0 148 -57q65 -45 106 -45q65 0 80 84zM651 737v62l283 166h90v-799q0 -49 26 -68.5t101 -27.5v-70q-181 0 -375 -31v101q-154 -101 -311 -101
q-45 0 -85 7t-82 27t-72 52t-49 87t-19 126v406q0 35 -13.5 49t-44.5 14h-69v62l284 166h91v-701q0 -155 145 -155q113 0 225 75v490q0 35 -13 49t-44 14h-68z" />
    <glyph glyph-name="Umacron" unicode="&#x16a;" horiz-adv-x="1570" 
d="M532 1673v127h551v-127h-551zM500 1204v-778q0 -163 100 -249.5t266 -86.5q164 0 260.5 91.5t96.5 260.5v762q0 101 -33 127t-148 35v68h492v-68q-115 -9 -148 -35q-32 -25 -32 -127v-764q0 -219 -142.5 -345t-398.5 -126q-286 0 -441 121.5t-155 351.5v762
q0 101 -33 127t-147 35v68h643v-68q-117 -9 -150 -35q-30 -27 -30 -127z" />
    <glyph glyph-name="umacron" unicode="&#x16b;" horiz-adv-x="1196" 
d="M315 1174v126h551v-126h-551zM651 737v62l283 166h90v-799q0 -49 26 -68.5t101 -27.5v-70q-181 0 -375 -31v101q-154 -101 -311 -101q-45 0 -85 7t-82 27t-72 52t-49 87t-19 126v406q0 35 -13.5 49t-44.5 14h-69v62l284 166h91v-701q0 -155 145 -155q113 0 225 75v490
q0 35 -13 49t-44 14h-68z" />
    <glyph glyph-name="Ubreve" unicode="&#x16c;" horiz-adv-x="1570" 
d="M1014 1853h88q-18 -101 -96 -164t-199 -63t-200 63t-97 164h92q30 -92 205 -92q80 0 137 24.5t70 67.5zM500 1204v-778q0 -163 100 -249.5t266 -86.5q164 0 260.5 91.5t96.5 260.5v762q0 101 -33 127t-148 35v68h492v-68q-115 -9 -148 -35q-32 -25 -32 -127v-764
q0 -219 -142.5 -345t-398.5 -126q-286 0 -441 121.5t-155 351.5v762q0 101 -33 127t-147 35v68h643v-68q-117 -9 -150 -35q-30 -27 -30 -127z" />
    <glyph glyph-name="ubreve" unicode="&#x16d;" horiz-adv-x="1196" 
d="M797 1354h88q-18 -101 -96 -164.5t-199 -63.5t-200 63.5t-97 164.5h92q30 -92 205 -92q80 0 137 24.5t70 67.5zM651 737v62l283 166h90v-799q0 -49 26 -68.5t101 -27.5v-70q-181 0 -375 -31v101q-154 -101 -311 -101q-45 0 -85 7t-82 27t-72 52t-49 87t-19 126v406
q0 35 -13.5 49t-44.5 14h-69v62l284 166h91v-701q0 -155 145 -155q113 0 225 75v490q0 35 -13 49t-44 14h-68z" />
    <glyph glyph-name="Uring" unicode="&#x16e;" horiz-adv-x="1570" 
d="M807 1964q86 0 146.5 -60t60.5 -145t-60.5 -144t-146.5 -59q-85 0 -145 59t-60 144t60 145t145 60zM731 1679q31 -31 76.5 -31t77.5 31q32 32 32 79.5t-32 78.5q-32 32 -77.5 32t-76.5 -32q-31 -31 -31 -78.5t31 -79.5zM500 1204v-778q0 -163 100 -249.5t266 -86.5
q164 0 260.5 91.5t96.5 260.5v762q0 101 -33 127t-148 35v68h492v-68q-115 -9 -148 -35q-32 -25 -32 -127v-764q0 -219 -142.5 -345t-398.5 -126q-286 0 -441 121.5t-155 351.5v762q0 101 -33 127t-147 35v68h643v-68q-117 -9 -150 -35q-30 -27 -30 -127z" />
    <glyph glyph-name="uring" unicode="&#x16f;" horiz-adv-x="1196" 
d="M590 1464q86 0 146.5 -59.5t60.5 -144.5t-60.5 -144t-146.5 -59q-85 0 -145 59t-60 144t60 144.5t145 59.5zM514 1180q31 -31 76.5 -31t77.5 31q32 32 32 79t-32 78q-32 32 -77.5 32t-76.5 -32q-31 -31 -31 -78t31 -79zM651 737v62l283 166h90v-799q0 -49 26 -68.5
t101 -27.5v-70q-181 0 -375 -31v101q-154 -101 -311 -101q-45 0 -85 7t-82 27t-72 52t-49 87t-19 126v406q0 35 -13.5 49t-44.5 14h-69v62l284 166h91v-701q0 -155 145 -155q113 0 225 75v490q0 35 -13 49t-44 14h-68z" />
    <glyph glyph-name="Uhungarumlaut" unicode="&#x170;" horiz-adv-x="1570" 
d="M600 1536l80 299q7 28 19.5 37.5t39.5 9.5h123q41 0 41 -35q0 -22 -35 -69l-182 -242h-86zM907 1536l84 299q12 47 64 47h114q41 0 41 -35q0 -23 -34 -69l-183 -242h-86zM500 1204v-778q0 -163 100 -249.5t266 -86.5q164 0 260.5 91.5t96.5 260.5v762q0 101 -33 127
t-148 35v68h492v-68q-115 -9 -148 -35q-32 -25 -32 -127v-764q0 -219 -142.5 -345t-398.5 -126q-286 0 -441 121.5t-155 351.5v762q0 101 -33 127t-147 35v68h643v-68q-117 -9 -150 -35q-30 -27 -30 -127z" />
    <glyph glyph-name="uhungarumlaut" unicode="&#x171;" horiz-adv-x="1196" 
d="M383 1036l80 299q7 28 19.5 37.5t39.5 9.5h123q41 0 41 -34q0 -23 -35 -70l-182 -242h-86zM690 1036l84 299q12 47 64 47h114q41 0 41 -34q0 -23 -35 -70l-182 -242h-86zM651 737v62l283 166h90v-799q0 -49 26 -68.5t101 -27.5v-70q-181 0 -375 -31v101
q-154 -101 -311 -101q-45 0 -85 7t-82 27t-72 52t-49 87t-19 126v406q0 35 -13.5 49t-44.5 14h-69v62l284 166h91v-701q0 -155 145 -155q113 0 225 75v490q0 35 -13 49t-44 14h-68z" />
    <glyph glyph-name="Uogonek" unicode="&#x172;" horiz-adv-x="1570" 
d="M1042 1366v68h492v-68q-115 -9 -148 -35q-32 -25 -32 -127v-764q0 -165 -82.5 -279t-235.5 -161h2q-129 -76 -129 -195q0 -47 33 -79.5t78 -32.5q80 0 129 82l74 -39q-83 -154 -250 -154q-103 0 -166.5 51.5t-63.5 135.5q0 119 123 202q-10 -2 -53 -2q-286 0 -441 121.5
t-155 351.5v762q0 101 -33 127t-147 35v68h643v-68q-117 -9 -150 -35q-30 -27 -30 -127v-778q0 -163 100 -249.5t266 -86.5q164 0 260.5 91.5t96.5 260.5v762q0 101 -33 127t-148 35z" />
    <glyph glyph-name="uogonek" unicode="&#x173;" horiz-adv-x="1196" 
d="M1087 -225l74 -39q-83 -154 -250 -154q-103 0 -166 51t-63 136q0 123 129 206l-35 -6v101q-154 -101 -311 -101q-45 0 -85 7t-82 27t-72 52t-49 87t-19 126v406q0 35 -13.5 49t-44.5 14h-69v62l284 166h91v-701q0 -155 145 -155q113 0 225 75v490q0 35 -13 49t-44 14h-68
v62l283 166h90v-799q0 -49 26 -68.5t101 -27.5v-70q-113 0 -186 -8q-117 -77 -117 -187q0 -47 32.5 -79.5t77.5 -32.5q80 0 129 82z" />
    <glyph glyph-name="Wcircumflex" unicode="&#x174;" horiz-adv-x="2002" 
d="M1221 1534l-222 201l-219 -201h-102l209 311q27 41 69 41h88q43 0 70 -41l209 -311h-102zM1591 1366v68h432v-68q-68 -8 -102.5 -41.5t-60.5 -120.5l-375 -1204h-174l-314 999l-309 -999h-174l-377 1204q-27 89 -59 121q-27 32 -98 41v68h591v-68q-110 -7 -137.5 -40.5
t-1.5 -121.5l248 -786l252 792q-26 88 -56.5 118t-99.5 38v68h592v-68q-109 -7 -137 -40.5t-2 -121.5l250 -786l247 786q29 87 0.5 120.5t-135.5 41.5z" />
    <glyph glyph-name="wcircumflex" unicode="&#x175;" horiz-adv-x="1583" 
d="M467 1034l209 312q27 40 69 40h89q42 0 69 -40l209 -312h-102l-222 201l-219 -201h-102zM1010 0l-222 582l-219 -582h-172l-268 705q-34 94 -60 124.5t-85 36.5v68h497v-68q-88 -7 -105.5 -40t17.5 -121l160 -418l176 452q-30 66 -57.5 93.5t-73.5 33.5v68h498v-68
q-89 -7 -106.5 -40t16.5 -121l157 -418l160 418q29 88 7 120.5t-111 40.5v68h378v-68q-55 -7 -86 -40.5t-63 -120.5l-266 -705h-172z" />
    <glyph glyph-name="Ycircumflex" unicode="&#x176;" horiz-adv-x="1339" 
d="M354 1534l209 311q27 41 70 41h88q43 0 70 -41l208 -311h-102l-221 201l-219 -201h-103zM530 229v359l-368 616q-63 102 -90 123q-30 30 -92 39v68h600v-68q-100 -7 -123 -47.5t24 -122.5l275 -459l268 461q46 85 22.5 122.5t-124.5 45.5v68h438v-68q-69 -9 -103 -39
q-35 -30 -88 -123l-356 -608v-367q0 -101 33 -127q33 -23 147 -32v-70h-643v70q115 9 148 32q32 25 32 127z" />
    <glyph glyph-name="ycircumflex" unicode="&#x177;" horiz-adv-x="985" 
d="M180 1034l209 312q27 40 70 40h88q42 0 69 -40l209 -312h-102l-221 201l-219 -201h-103zM850 705l-356 -879q-95 -234 -304 -234q-89 0 -148.5 42.5t-59.5 109.5q0 50 33.5 83.5t84.5 33.5q53 0 99 -49q47 -50 80 -50q65 0 112 115l35 86l-293 742q-34 88 -61 122
q-26 33 -88 39v68h510v-68q-91 -7 -109 -40t18 -121l158 -410l164 410q31 88 10.5 120.5t-106.5 40.5v68h372v-68q-56 -8 -87.5 -41.5t-63.5 -119.5z" />
    <glyph glyph-name="Ydieresis" unicode="&#x178;" horiz-adv-x="1339" 
d="M483 1884q59 0 95 -36t36 -89q0 -51 -36.5 -87t-94.5 -36q-56 0 -92.5 36t-36.5 87t36.5 88t92.5 37zM997 1759q0 -51 -36.5 -87t-94.5 -36t-93.5 35t-35.5 88t35.5 89t93.5 36t94.5 -36t36.5 -89zM530 229v359l-368 616q-63 102 -90 123q-30 30 -92 39v68h600v-68
q-100 -7 -123 -47.5t24 -122.5l275 -459l268 461q46 85 22.5 122.5t-124.5 45.5v68h438v-68q-69 -9 -103 -39q-35 -30 -88 -123l-356 -608v-367q0 -101 33 -127q33 -23 147 -32v-70h-643v70q115 9 148 32q32 25 32 127z" />
    <glyph glyph-name="Zacute" unicode="&#x179;" horiz-adv-x="1343" 
d="M625 1536l180 309q18 37 63 37h146q37 0 37 -35q0 -26 -52 -69l-272 -242h-102zM57 70l836 1249h-219q-186 0 -305 -64q-118 -62 -219 -202l-58 28l127 353h1036v-68l-835 -1249h239q143 0 256 43q115 47 183 106q62 54 151 164l58 -35l-199 -395h-1051v70z" />
    <glyph glyph-name="zacute" unicode="&#x17a;" horiz-adv-x="993" 
d="M430 1036l180 310q17 36 64 36h145q37 0 37 -34q0 -28 -51 -70l-273 -242h-102zM45 70l539 764h-107q-129 0 -209 -44.5t-141 -152.5l-64 22l80 275h760v-68l-536 -764h147q133 0 221.5 57.5t173.5 182.5l60 -29l-133 -313h-791v70z" />
    <glyph glyph-name="Zdotaccent" unicode="&#x17b;" horiz-adv-x="1343" 
d="M698 1884q58 0 94.5 -36t36.5 -89q0 -51 -36.5 -87t-94.5 -36q-56 0 -92.5 36t-36.5 87t36.5 88t92.5 37zM57 70l836 1249h-219q-186 0 -305 -64q-118 -62 -219 -202l-58 28l127 353h1036v-68l-835 -1249h239q143 0 256 43q115 47 183 106q62 54 151 164l58 -35
l-199 -395h-1051v70z" />
    <glyph glyph-name="zdotaccent" unicode="&#x17c;" horiz-adv-x="993" 
d="M504 1384q59 0 95 -36t36 -88q0 -51 -36.5 -87t-94.5 -36q-56 0 -92.5 36t-36.5 87t36.5 87.5t92.5 36.5zM45 70l539 764h-107q-129 0 -209 -44.5t-141 -152.5l-64 22l80 275h760v-68l-536 -764h147q133 0 221.5 57.5t173.5 182.5l60 -29l-133 -313h-791v70z" />
    <glyph glyph-name="Zcaron" unicode="&#x17d;" horiz-adv-x="1343" 
d="M586 1577l-209 309h102l219 -200l222 200h102l-209 -309q-27 -43 -70 -43h-88q-42 0 -69 43zM57 70l836 1249h-219q-186 0 -305 -64q-118 -62 -219 -202l-58 28l127 353h1036v-68l-835 -1249h239q143 0 256 43q115 47 183 106q62 54 151 164l58 -35l-199 -395h-1051v70z
" />
    <glyph glyph-name="zcaron" unicode="&#x17e;" horiz-adv-x="993" 
d="M391 1077l-209 309h103l219 -200l221 200h102l-209 -309q-27 -43 -69 -43h-88q-43 0 -70 43zM45 70l539 764h-107q-129 0 -209 -44.5t-141 -152.5l-64 22l80 275h760v-68l-536 -764h147q133 0 221.5 57.5t173.5 182.5l60 -29l-133 -313h-791v70z" />
    <glyph glyph-name="longs" unicode="&#x17f;" horiz-adv-x="636" 
d="M557 0h-510v70q75 7 100 26.5t25 69.5v661h-125v107h125v82q0 206 121 327q124 121 309 121q89 0 145 -37t56 -98q0 -56 -34 -90.5t-89 -34.5q-27 0 -47.5 10t-32 24.5t-23 32t-20 32t-22 24.5t-31.5 10q-38 0 -61 -36t-23 -99v-1036q0 -49 29 -68.5t108 -27.5v-70z" />
    <glyph glyph-name="florin" unicode="&#x192;" horiz-adv-x="1196" 
d="M90 698v103h324l55 215q54 210 189.5 329t318.5 119q89 0 145 -37t56 -98q0 -56 -34 -90.5t-89 -34.5q-39 0 -65.5 21t-37.5 45.5t-29 45.5t-42 21q-83 0 -117 -135l-102 -401h342v-103h-367l-160 -641q-56 -224 -190.5 -344.5t-317.5 -120.5q-94 0 -149.5 39.5
t-55.5 110.5q0 47 35 81t82 34q39 0 66.5 -21.5t39.5 -47.5t30.5 -47.5t41.5 -21.5q39 0 71.5 35.5t49.5 100.5l209 843h-299z" />
    <glyph glyph-name="AEacute" unicode="&#x1fc;" horiz-adv-x="2205" 
d="M1466 1778l-272 -242h-102l180 309q18 37 63 37h146q37 0 37 -35q0 -26 -52 -69zM2138 430l57 -35l-198 -395h-1155v70q114 9 147 32q33 26 33 127v193h-549l-137 -197q-42 -68 -12.5 -107.5t122.5 -47.5v-70h-473v70q118 6 226 159l768 1100q-42 28 -176 37v68h1204
l127 -353l-58 -28q-101 141 -226 203.5t-314 62.5h-158q-27 0 -44 -16.5t-17 -45.5v-450h286q101 0 139 42t44 144h75v-489h-75q-6 102 -44 144t-139 42h-286v-512q0 -61 61 -61h160q363 0 612 313zM1022 1206l-469 -669h469v669z" />
    <glyph glyph-name="aeacute" unicode="&#x1fd;" horiz-adv-x="1667" 
d="M729 1036l180 310q17 36 64 36h145q37 0 37 -34q0 -28 -51 -70l-273 -242h-102zM834 821q114 144 315 144q202 0 316 -112t114 -310h-651q-2 -16 -2 -76q0 -385 286 -385q94 0 174.5 60.5t131.5 170.5l94 -51q-135 -293 -426 -293q-284 0 -422 181q-213 -177 -426 -177
q-127 0 -202 62t-75 166q0 166 185 250q86 40 178.5 64.5t243.5 51.5v109q0 107 -27 147.5t-100 40.5q-145 0 -185 -143q-35 -111 -131 -111q-45 0 -71.5 29t-26.5 82q0 101 121 172q126 72 315 72q203 0 271 -144zM936 651h403q0 98 -50.5 154.5t-135.5 56.5
q-96 0 -147 -51.5t-70 -159.5zM668 467q-180 -30 -263 -80t-83 -141q0 -61 35 -93t94 -32q127 0 268 102q-51 102 -51 244z" />
    <glyph glyph-name="Oslashacute" unicode="&#x1fe;" horiz-adv-x="1579" 
d="M1092 1778l-273 -242h-102l180 309q18 37 64 37h145q37 0 37 -35q0 -27 -51 -69zM1470 1434l-153 -181q186 -201 186 -536q0 -339 -192 -543q-193 -205 -520 -205q-266 0 -449 142l-94 -111h-139l155 182q-186 201 -186 535q0 335 190 540q195 207 523 207
q262 0 448 -139l92 109h139zM385 717q0 -201 41 -344l682 801q-101 180 -317 180q-406 0 -406 -637zM791 80q405 0 405 637q0 203 -41 346l-684 -801q102 -182 320 -182z" />
    <glyph glyph-name="oslashacute" unicode="&#x1ff;" horiz-adv-x="1136" 
d="M870 1278l-272 -242h-102l180 310q17 36 63 36h146q37 0 37 -34q0 -27 -52 -70zM1059 934l-111 -123q127 -133 127 -344q0 -216 -139 -358q-140 -140 -367 -140q-172 0 -303 88l-51 -57h-135l110 123q-129 138 -129 344q0 216 140 356q142 142 368 142q174 0 301 -86
l52 55h137zM322 467q0 -89 16 -180l422 469q-60 106 -191 106q-247 0 -247 -395zM569 72q246 0 246 395q0 105 -16 180l-422 -467q61 -108 192 -108z" />
    <glyph glyph-name="Scommaaccent" unicode="&#x218;" horiz-adv-x="1388" 
d="M778 891q30 -8 60 -16.5t57.5 -17t38.5 -11.5q46 -13 139 -58q90 -44 127 -81q48 -45 80.5 -117.5t32.5 -157.5q0 -205 -166 -334q-167 -129 -416 -129q-248 0 -434 107l-33 -76h-80l-123 451l64 20q93 -184 249.5 -287.5t344.5 -103.5q134 0 231 72t94 180q0 97 -77 160
q-32 28 -95 55q-89 38 -245 80l-105 30q-113 36 -194 80q-105 69 -144 127q-55 87 -55 201q0 181 147 289q146 110 363 110q237 0 395 -96l29 66h80l112 -406l-61 -18q-79 166 -215 255t-317 89q-125 0 -200 -57t-75 -146q0 -80 72 -141q30 -23 88 -47l102 -37
q110 -30 129 -35zM834 -254q0 -63 -39 -134.5t-95 -127.5l-41 33q36 68 52 123q-62 0 -99 35.5t-37 91.5q0 52 37 88t93 36q57 0 93 -39.5t36 -105.5z" />
    <glyph glyph-name="scommaaccent" unicode="&#x219;" horiz-adv-x="972" 
d="M555 602q95 -29 139 -45q52 -18 113 -55q121 -68 121 -211q0 -148 -113 -236q-112 -86 -283 -86q-195 0 -323 94l-25 -63h-63l-74 324l55 16q172 -270 422 -270q81 0 133 37t52 102q0 57 -50 90q-20 16 -59 31q-49 22 -151 47q-97 27 -143 43.5t-103 48.5
q-123 71 -123 211q0 121 104 203t260 82q168 0 281 -82l23 51h63l59 -283l-59 -18q-134 235 -346 235q-72 0 -113 -31t-41 -81q0 -42 35 -72q35 -29 76.5 -44.5t132.5 -37.5zM616 -254q0 -63 -38.5 -134.5t-94.5 -127.5l-41 33q36 68 52 123q-62 0 -99 35.5t-37 91.5
q0 52 36.5 88t92.5 36q57 0 93 -39.5t36 -105.5z" />
    <glyph glyph-name="uni021A" unicode="&#x21a;" horiz-adv-x="1392" 
d="M1014 70v-70h-643v70q114 9 147 32q33 26 33 127v1028q0 62 -62 62q-134 0 -223 -58.5t-180 -205.5l-59 26l145 398h70q15 -45 63 -45h785q48 0 63 45h70l143 -398l-59 -26q-87 145 -181.5 204.5t-230.5 59.5q-61 0 -61 -62v-1028q0 -102 32 -127q33 -23 148 -32z
M825 -254q0 -63 -38.5 -134.5t-94.5 -127.5l-41 33q34 64 51 123q-62 0 -98.5 35.5t-36.5 91.5q0 52 36.5 88t92.5 36q57 0 93 -39.5t36 -105.5z" />
    <glyph glyph-name="uni021B" unicode="&#x21b;" horiz-adv-x="686" 
d="M639 115v-103q-85 -39 -205 -39q-138 0 -207 61.5t-69 198.5v594h-127v60q121 44 187.5 128t96.5 226h91v-307h233v-107h-233v-596q0 -141 112 -141q66 0 121 25zM412 -254q0 -63 -38.5 -134.5t-94.5 -127.5l-41 33q34 64 51 123q-62 0 -98.5 35.5t-36.5 91.5
q0 52 36.5 88t92.5 36q57 0 93 -39.5t36 -105.5z" />
    <glyph glyph-name="uni0237" unicode="&#x237;" horiz-adv-x="571" 
d="M-215 -258q0 44 37 79.5t84 35.5q39 0 66.5 -21.5t39.5 -47.5t30.5 -47.5t41.5 -21.5q39 0 63.5 36t24.5 100v819q0 35 -13 49t-44 14h-68v62l285 166h88v-908q0 -223 -121 -344t-309 -121q-94 0 -149.5 39.5t-55.5 110.5z" />
    <glyph glyph-name="uni02B0" unicode="&#x2b0;" horiz-adv-x="919" 
d="M907 567h-409v64q55 6 72.5 19t17.5 48v377q0 105 -105 105q-74 0 -151 -50v-432q0 -35 18 -48t74 -19v-64h-410v64q54 6 71 19t17 48v736q0 45 -39 45h-49v59l236 127h82v-434q119 76 237 76q248 0 248 -238v-371q0 -35 17.5 -48t72.5 -19v-64z" />
    <glyph glyph-name="circumflex" unicode="&#x2c6;" horiz-adv-x="686" 
d="M20 1034l209 312q27 40 70 40h88q43 0 70 -40l209 -312h-103l-221 201l-219 -201h-103z" />
    <glyph glyph-name="caron" unicode="&#x2c7;" horiz-adv-x="686" 
d="M229 1077l-209 309h103l219 -200l221 200h103l-209 -309q-27 -43 -70 -43h-88q-43 0 -70 43z" />
    <glyph glyph-name="breve" unicode="&#x2d8;" horiz-adv-x="632" 
d="M524 1354h88q-18 -101 -96 -164.5t-199 -63.5t-200 63.5t-97 164.5h93q30 -92 204 -92q80 0 137 24.5t70 67.5z" />
    <glyph glyph-name="dotaccent" unicode="&#x2d9;" horiz-adv-x="301" 
d="M150 1384q59 0 95 -36t36 -88q0 -51 -36.5 -87t-94.5 -36q-56 0 -93 36t-37 87t37 87.5t93 36.5z" />
    <glyph glyph-name="ring" unicode="&#x2da;" horiz-adv-x="452" 
d="M225 1464q86 0 146.5 -59.5t60.5 -144.5t-60.5 -144t-146.5 -59q-85 0 -145 59t-60 144t60 144.5t145 59.5zM150 1180q31 -31 76 -31t77 31q32 32 32 79t-32 78q-32 32 -77 32t-76 -32q-31 -31 -31 -78t31 -79z" />
    <glyph glyph-name="ogonek" unicode="&#x2db;" horiz-adv-x="520" 
d="M195 0h120q-129 -76 -129 -195q0 -47 33 -79.5t78 -32.5q80 0 129 82l74 -39q-83 -154 -250 -154q-103 0 -166.5 51.5t-63.5 135.5q0 146 175 231z" />
    <glyph glyph-name="tilde" unicode="&#x2dc;" horiz-adv-x="632" 
d="M535 1356h77q-6 -112 -55.5 -170t-122.5 -58q-56 0 -147 58q-62 45 -105 45q-65 0 -80 -84h-82q6 112 55.5 169.5t125.5 57.5q58 0 147 -57q65 -45 107 -45q65 0 80 84z" />
    <glyph glyph-name="hungarumlaut" unicode="&#x2dd;" horiz-adv-x="651" 
d="M20 1036l80 299q7 28 20 37.5t40 9.5h123q41 0 41 -34q0 -23 -35 -70l-183 -242h-86zM328 1036l84 299q12 47 63 47h115q41 0 41 -34q0 -23 -35 -70l-182 -242h-86z" />
    <glyph glyph-name="gravecomb" unicode="&#x300;" horiz-adv-x="0" 
d="M-199 1346l179 -310h-101l-274 242q-51 45 -51 70q0 34 36 34h148q43 0 63 -36z" />
    <glyph glyph-name="acutecomb" unicode="&#x301;" horiz-adv-x="0" 
d="M-446 1036l180 310q17 36 63 36h146q37 0 37 -34q0 -27 -52 -70l-272 -242h-102z" />
    <glyph glyph-name="uni0302" unicode="&#x302;" horiz-adv-x="0" 
d="M-666 1034l209 312q27 40 70 40h88q43 0 70 -40l209 -312h-103l-221 201l-219 -201h-103z" />
    <glyph glyph-name="tildecomb" unicode="&#x303;" horiz-adv-x="0" 
d="M-98 1356h78q-6 -112 -56 -170t-123 -58q-56 0 -147 58q-62 45 -105 45q-64 0 -79 -84h-82q6 112 55 169.5t125 57.5q58 0 147 -57q65 -45 107 -45q65 0 80 84z" />
    <glyph glyph-name="uni0304" unicode="&#x304;" horiz-adv-x="0" 
d="M-571 1174v126h551v-126h-551z" />
    <glyph glyph-name="uni0306" unicode="&#x306;" horiz-adv-x="0" 
d="M-109 1354h89q-18 -101 -96 -164.5t-199 -63.5t-200 63.5t-97 164.5h92q30 -92 205 -92q80 0 136.5 24.5t69.5 67.5z" />
    <glyph glyph-name="uni0307" unicode="&#x307;" horiz-adv-x="0" 
d="M-152 1384q59 0 95.5 -36t36.5 -88q0 -51 -37 -87t-95 -36q-56 0 -92.5 36t-36.5 87t36.5 87.5t92.5 36.5z" />
    <glyph glyph-name="uni0308" unicode="&#x308;" horiz-adv-x="0" 
d="M-535 1384q59 0 95.5 -36t36.5 -88q0 -51 -37 -87t-95 -36q-56 0 -92.5 36t-36.5 87t36.5 87.5t92.5 36.5zM-20 1260q0 -51 -37 -87t-95 -36t-93.5 35.5t-35.5 87.5q0 53 35.5 88.5t93.5 35.5q59 0 95.5 -36t36.5 -88z" />
    <glyph glyph-name="uni030A" unicode="&#x30a;" horiz-adv-x="0" 
d="M-227 1464q86 0 146.5 -59.5t60.5 -144.5t-60.5 -144t-146.5 -59q-85 0 -145 59t-60 144t60 144.5t145 59.5zM-227 1149q47 0 78.5 32t31.5 79t-31.5 78.5t-78.5 31.5q-45 0 -76 -31.5t-31 -78.5t31 -79t76 -32z" />
    <glyph glyph-name="uni030B" unicode="&#x30b;" horiz-adv-x="0" 
d="M-631 1036l80 299q7 28 19.5 37.5t39.5 9.5h123q41 0 41 -34q0 -24 -34 -70l-183 -242h-86zM-324 1036l84 299q12 47 64 47h115q41 0 41 -34q0 -23 -35 -70l-183 -242h-86z" />
    <glyph glyph-name="uni030C" unicode="&#x30c;" horiz-adv-x="0" 
d="M-457 1077l-209 309h103l219 -200l221 200h103l-209 -309q-27 -43 -70 -43h-88q-43 0 -70 43z" />
    <glyph glyph-name="uni0312" unicode="&#x312;" horiz-adv-x="0" 
d="M-279 1247q0 63 39 134.5t95 127.5l41 -32q-36 -68 -52 -123q62 0 99 -35.5t37 -91.5q0 -52 -37 -88.5t-93 -36.5q-57 0 -93 39.5t-36 105.5z" />
    <glyph glyph-name="uni0326" unicode="&#x326;" horiz-adv-x="0" 
d="M-20 -254q0 -63 -39 -134.5t-95 -127.5l-41 33q36 68 52 123q-62 0 -99 35.5t-37 91.5q0 52 36.5 88t92.5 36q58 0 94 -40t36 -105z" />
    <glyph glyph-name="uni0327" unicode="&#x327;" horiz-adv-x="0" 
d="M-20 -252q0 -82 -79.5 -141.5t-199.5 -59.5q-97 0 -163 38t-66 93q0 27 19.5 47.5t45.5 20.5q33 0 49.5 -13.5t30.5 -43.5q31 -66 98 -66q53 0 84 26.5t31 69.5q0 29 -21.5 47.5t-54.5 18.5q-46 0 -73 -27l-58 27l92 215h109l-57 -129q19 8 55 8q73 0 115.5 -35t42.5 -96
z" />
    <glyph glyph-name="uni0328" unicode="&#x328;" horiz-adv-x="0" 
d="M-326 0h121q-129 -76 -129 -195q0 -47 33 -79.5t78 -32.5q80 0 129 82l74 -39q-83 -154 -250 -154q-103 0 -166.5 51.5t-63.5 135.5q0 146 174 231z" />
    <glyph glyph-name="uni0394" unicode="&#x394;" horiz-adv-x="1406" 
d="M616 1434h185l549 -1434h-1280zM618 1116l-380 -999h768z" />
    <glyph glyph-name="uni03A9" unicode="&#x3a9;" horiz-adv-x="1583" 
d="M1456 -45h-76q0 45 -41 45h-471v229q176 147 252 297q78 153 78 353q0 477 -405 477q-406 0 -406 -477q0 -206 76 -355q76 -146 254 -295v-229h-471q-41 0 -41 -45h-76l-51 432h76q19 -100 45 -133q21 -27 82 -27h268q-469 301 -469 668q0 256 190 412q195 157 523 157
q325 0 520 -157q192 -155 192 -412q0 -367 -469 -668h267q59 0 81 25q26 34 46 135h75z" />
    <glyph glyph-name="uni03BC" unicode="&#x3bc;" horiz-adv-x="1157" 
d="M293 45q22 -49 61 -111q45 -74 64.5 -115t19.5 -73q0 -68 -41.5 -111t-105.5 -43q-62 0 -104 43t-42 111v1188h248v-670q0 -155 146 -155q113 0 225 75v750h248v-744q0 -96 61 -96q27 0 68 21v-90q-74 -50 -174 -50q-145 0 -189 109q-121 -115 -278 -115q-125 0 -207 76z
" />
    <glyph glyph-name="pi" unicode="&#x3c0;" horiz-adv-x="1157" 
d="M33 106q0 41 32.5 73t75.5 32q29 0 49 -11.5t31 -28.5t20.5 -33.5t23 -28t32.5 -11.5q39 0 63.5 35.5t24.5 99.5v480h-33q-66 0 -103.5 -37t-37.5 -98h-94q0 50 8.5 96.5t32.5 95t61 84t99 58t141 22.5h409q198 0 271 33v-74q-37 -73 -88 -111t-144 -55v-539
q0 -94 62 -94q26 0 67 21v-90q-59 -50 -153 -50q-183 0 -183 183v555h-202v-410q0 -154 -71 -244t-214 -90q-81 0 -130.5 36t-49.5 101z" />
    <glyph glyph-name="Wgrave" unicode="&#x1e80;" horiz-adv-x="2002" 
d="M971 1536l-275 242q-51 45 -51 69q0 35 37 35h147q43 0 64 -37l178 -309h-100zM1591 1366v68h432v-68q-68 -8 -102.5 -41.5t-60.5 -120.5l-375 -1204h-174l-314 999l-309 -999h-174l-377 1204q-27 89 -59 121q-27 32 -98 41v68h591v-68q-110 -7 -137.5 -40.5t-1.5 -121.5
l248 -786l252 792q-26 88 -56.5 118t-99.5 38v68h592v-68q-109 -7 -137 -40.5t-2 -121.5l250 -786l247 786q29 87 0.5 120.5t-135.5 41.5z" />
    <glyph glyph-name="wgrave" unicode="&#x1e81;" horiz-adv-x="1583" 
d="M682 1346l178 -310h-100l-275 242q-51 45 -51 70q0 34 37 34h147q44 0 64 -36zM1010 0l-222 582l-219 -582h-172l-268 705q-34 94 -60 124.5t-85 36.5v68h497v-68q-88 -7 -105.5 -40t17.5 -121l160 -418l176 452q-30 66 -57.5 93.5t-73.5 33.5v68h498v-68
q-89 -7 -106.5 -40t16.5 -121l157 -418l160 418q29 88 7 120.5t-111 40.5v68h378v-68q-55 -7 -86 -40.5t-63 -120.5l-266 -705h-172z" />
    <glyph glyph-name="Wacute" unicode="&#x1e82;" horiz-adv-x="2002" 
d="M1300 1778l-272 -242h-102l180 309q18 37 63 37h146q37 0 37 -35q0 -26 -52 -69zM1591 1366v68h432v-68q-68 -8 -102.5 -41.5t-60.5 -120.5l-375 -1204h-174l-314 999l-309 -999h-174l-377 1204q-27 89 -59 121q-27 32 -98 41v68h591v-68q-110 -7 -137.5 -40.5
t-1.5 -121.5l248 -786l252 792q-26 88 -56.5 118t-99.5 38v68h592v-68q-109 -7 -137 -40.5t-2 -121.5l250 -786l247 786q29 87 0.5 120.5t-135.5 41.5z" />
    <glyph glyph-name="wacute" unicode="&#x1e83;" horiz-adv-x="1583" 
d="M715 1036l180 310q17 36 63 36h146q37 0 37 -34q0 -28 -51 -70l-273 -242h-102zM1010 0l-222 582l-219 -582h-172l-268 705q-34 94 -60 124.5t-85 36.5v68h497v-68q-88 -7 -105.5 -40t17.5 -121l160 -418l176 452q-30 66 -57.5 93.5t-73.5 33.5v68h498v-68
q-89 -7 -106.5 -40t16.5 -121l157 -418l160 418q29 88 7 120.5t-111 40.5v68h378v-68q-55 -7 -86 -40.5t-63 -120.5l-266 -705h-172z" />
    <glyph glyph-name="Wdieresis" unicode="&#x1e84;" horiz-adv-x="2002" 
d="M807 1636q-56 0 -92.5 36t-36.5 87t36.5 88t92.5 37q59 0 95 -36t36 -89q0 -51 -36.5 -87t-94.5 -36zM1321 1759q0 -51 -36.5 -87t-94.5 -36t-93.5 35t-35.5 88t35.5 89t93.5 36t94.5 -36t36.5 -89zM1591 1366v68h432v-68q-68 -8 -102.5 -41.5t-60.5 -120.5l-375 -1204
h-174l-314 999l-309 -999h-174l-377 1204q-27 89 -59 121q-27 32 -98 41v68h591v-68q-110 -7 -137.5 -40.5t-1.5 -121.5l248 -786l252 792q-26 88 -56.5 118t-99.5 38v68h592v-68q-109 -7 -137 -40.5t-2 -121.5l250 -786l247 786q29 87 0.5 120.5t-135.5 41.5z" />
    <glyph glyph-name="wdieresis" unicode="&#x1e85;" horiz-adv-x="1583" 
d="M596 1384q59 0 95 -36t36 -88q0 -51 -36.5 -87t-94.5 -36q-56 0 -92.5 36t-36.5 87t36.5 87.5t92.5 36.5zM1110 1260q0 -51 -36.5 -87t-94.5 -36q-59 0 -94 35.5t-35 87.5q0 53 35.5 88.5t93.5 35.5q59 0 95 -36t36 -88zM1010 0l-222 582l-219 -582h-172l-268 705
q-34 94 -60 124.5t-85 36.5v68h497v-68q-88 -7 -105.5 -40t17.5 -121l160 -418l176 452q-30 66 -57.5 93.5t-73.5 33.5v68h498v-68q-89 -7 -106.5 -40t16.5 -121l157 -418l160 418q29 88 7 120.5t-111 40.5v68h378v-68q-55 -7 -86 -40.5t-63 -120.5l-266 -705h-172z" />
    <glyph glyph-name="uni1E9E" unicode="&#x1e9e;" horiz-adv-x="1562" 
d="M1055 825h6q192 0 323 -116q132 -117 132 -301q0 -187 -136 -314q-134 -125 -352 -125q-158 0 -280 82l45 90q83 -59 180 -59q115 0 175 87.5t60 238.5q0 137 -80 223q-76 88 -194 88q-88 0 -156 -39l-47 68l373 518q-83 77 -246 77q-169 0 -263.5 -107.5t-94.5 -324.5
v-682q0 -100 30 -127q33 -23 150 -32v-70h-643v70q114 9 147 32q33 26 33 127v643q0 280 174 435q177 157 455 157q336 0 532 -190z" />
    <glyph glyph-name="Ygrave" unicode="&#x1ef2;" horiz-adv-x="1339" 
d="M569 1845l179 -309h-101l-274 242q-51 45 -51 69q0 35 36 35h148q42 0 63 -37zM530 229v359l-368 616q-63 102 -90 123q-30 30 -92 39v68h600v-68q-100 -7 -123 -47.5t24 -122.5l275 -459l268 461q46 85 22.5 122.5t-124.5 45.5v68h438v-68q-69 -9 -103 -39
q-35 -30 -88 -123l-356 -608v-367q0 -101 33 -127q33 -23 147 -32v-70h-643v70q115 9 148 32q32 25 32 127z" />
    <glyph glyph-name="ygrave" unicode="&#x1ef3;" horiz-adv-x="985" 
d="M395 1346l178 -310h-100l-274 242q-52 46 -52 70q0 34 37 34h148q43 0 63 -36zM850 705l-356 -879q-95 -234 -304 -234q-89 0 -148.5 42.5t-59.5 109.5q0 50 33.5 83.5t84.5 33.5q53 0 99 -49q47 -50 80 -50q65 0 112 115l35 86l-293 742q-34 88 -61 122q-26 33 -88 39
v68h510v-68q-91 -7 -109 -40t18 -121l158 -410l164 410q31 88 10.5 120.5t-106.5 40.5v68h372v-68q-56 -8 -87.5 -41.5t-63.5 -119.5z" />
    <glyph glyph-name="endash" unicode="&#x2013;" horiz-adv-x="1144" 
d="M18 416v102h1108v-102h-1108z" />
    <glyph glyph-name="emdash" unicode="&#x2014;" horiz-adv-x="1699" 
d="M18 416v102h1663v-102h-1663z" />
    <glyph glyph-name="quoteleft" unicode="&#x2018;" horiz-adv-x="520" 
d="M96 1038q0 103 70 228q68 124 158 211l53 -45q-102 -135 -129 -254q82 0 129 -46t47 -116q0 -65 -46 -111.5t-118 -46.5q-73 0 -118.5 50t-45.5 130z" />
    <glyph glyph-name="quoteright" unicode="&#x2019;" horiz-adv-x="520" 
d="M424 1284q0 -97 -72 -229q-72 -129 -155 -209l-54 45q102 135 129 254q-82 0 -129 46t-47 116q0 65 46 111t118 46q73 0 118.5 -50t45.5 -130z" />
    <glyph glyph-name="quotesinglbase" unicode="&#x201a;" horiz-adv-x="520" 
d="M424 115q0 -99 -72 -228q-71 -130 -155 -211l-54 45q102 135 129 254q-82 0 -129 46t-47 116q0 65 46 111.5t118 46.5q73 0 118.5 -50t45.5 -130z" />
    <glyph glyph-name="quotedblleft" unicode="&#x201c;" horiz-adv-x="942" 
d="M96 1038q0 103 70 228q68 124 158 211l53 -45q-102 -135 -129 -254q82 0 129 -46t47 -116q0 -65 -46 -111.5t-118 -46.5q-73 0 -118.5 50t-45.5 130zM518 1038q0 103 70 228q69 126 157 211l54 -45q-102 -135 -129 -254q82 0 129 -46t47 -116q0 -65 -46 -111.5
t-118 -46.5q-73 0 -118.5 50t-45.5 130z" />
    <glyph glyph-name="quotedblright" unicode="&#x201d;" horiz-adv-x="942" 
d="M424 1284q0 -97 -72 -229q-72 -129 -155 -209l-54 45q102 135 129 254q-82 0 -129 46t-47 116q0 65 46 111t118 46q73 0 118.5 -50t45.5 -130zM848 1284q0 -97 -72 -229q-72 -129 -155 -209l-54 45q102 135 129 254q-82 0 -129 46t-47 116q0 65 46 111t118 46
q73 0 118.5 -50t45.5 -130z" />
    <glyph glyph-name="quotedblbase" unicode="&#x201e;" horiz-adv-x="942" 
d="M424 115q0 -99 -72 -228q-71 -130 -155 -211l-54 45q102 135 129 254q-82 0 -129 46t-47 116q0 65 46 111.5t118 46.5q73 0 118.5 -50t45.5 -130zM848 115q0 -99 -72 -228q-71 -130 -155 -211l-54 45q102 135 129 254q-82 0 -129 46t-47 116q0 65 46 111.5t118 46.5
q73 0 118.5 -50t45.5 -130z" />
    <glyph glyph-name="dagger" unicode="&#x2020;" horiz-adv-x="841" 
d="M444 1116q65 8 150 35q76 27 108 27q56 4 80 -41t1 -89.5t-81 -39.5q-32 0 -108 24q-85 27 -150 35q8 -66 35 -104q27 -35 27 -62q0 -90 -27 -342q-27 -250 -57 -250q-33 0 -60 252q-26 243 -26 340q0 27 24 62q27 38 35 104q-60 -8 -147 -35q-77 -24 -109 -24
q-56 -5 -79.5 39.5t0 89.5t79.5 41q33 0 109 -27q87 -27 147 -35q-8 61 -35 148q-24 76 -24 110q-4 56 41 79.5t89.5 0t39.5 -79.5q0 -34 -27 -110q-27 -87 -35 -148z" />
    <glyph glyph-name="daggerdbl" unicode="&#x2021;" horiz-adv-x="841" 
d="M444 1116q65 8 150 35q76 27 108 27q56 4 80 -41t1 -89.5t-81 -39.5q-32 0 -108 24q-85 27 -150 35q8 -66 35 -104q27 -35 27 -62q0 -69 -27 -213q-27 -143 -57 -143q-33 0 -60 145q-26 139 -26 211q0 27 24 62q27 38 35 104q-60 -8 -147 -35q-77 -24 -109 -24
q-56 -5 -79.5 39.5t0 89.5t79.5 41q33 0 109 -27q87 -27 147 -35q-8 61 -35 148q-24 76 -24 110q-4 56 41 79.5t89.5 0t39.5 -79.5q0 -34 -27 -110q-27 -87 -35 -148zM395 -59q-63 -8 -149 -35q-77 -27 -107 -27q-56 0 -79 43t0 86t79 43q35 0 109 -26q87 -27 147 -35
q-8 49 -33.5 99t-25.5 67q0 70 26 209q27 143 60 143q30 0 57 -143q27 -141 27 -209q0 -16 -27 -66.5t-35 -99.5q65 8 150 35q74 26 108 26q57 4 80.5 -41t0.5 -90t-78 -41q-35 0 -111 27q-85 27 -150 35q8 -61 35 -148q27 -77 27 -110q5 -56 -39.5 -79.5t-89.5 0t-41 79.5
q0 33 24 110q27 87 35 148z" />
    <glyph glyph-name="bullet" unicode="&#x2022;" horiz-adv-x="595" 
d="M299 727q102 0 176 -74q74 -71 74 -176q0 -102 -74 -176t-176 -74q-104 0 -178 74q-72 75 -72 176q0 104 72 176q74 74 178 74z" />
    <glyph glyph-name="ellipsis" unicode="&#x2026;" horiz-adv-x="1558" 
d="M260 295q70 0 117 -46.5t47 -111.5q0 -69 -46 -115.5t-118 -46.5t-118 46.5t-46 115.5q0 65 46 111.5t118 46.5zM780 295q70 0 117 -46.5t47 -111.5q0 -69 -46 -115.5t-118 -46.5t-118 46.5t-46 115.5q0 65 46 111.5t118 46.5zM1298 295q70 0 117 -46.5t47 -111.5
q0 -69 -46 -115.5t-118 -46.5t-117.5 46.5t-45.5 115.5q0 65 45.5 111.5t117.5 46.5z" />
    <glyph glyph-name="perthousand" unicode="&#x2030;" horiz-adv-x="2582" 
d="M139 1335q89 117 252 117q161 0 250 -117q90 -119 90 -331q0 -213 -90 -332q-89 -117 -250 -117q-163 0 -252 117q-88 116 -88 332q0 215 88 331zM377 0l938 1434h108l-938 -1434h-108zM526 1004q0 207 -29 289.5t-106 82.5t-105 -82t-28 -290q0 -207 28.5 -290
t104.5 -83q77 0 106 83.5t29 289.5zM1157 762q89 117 252 117q161 0 250 -117q90 -119 90 -332t-90 -332q-88 -116 -250 -116q-164 0 -252 116t-88 332t88 332zM1939 762q89 117 252 117q161 0 250 -117q90 -119 90 -332t-90 -332q-88 -116 -250 -116q-164 0 -252 116
t-88 332t88 332zM1544 430q0 207 -29 290t-106 83t-105 -82.5t-28 -290.5q0 -207 28.5 -290t104.5 -83q77 0 106 83.5t29 289.5zM2327 430q0 207 -29.5 290t-106.5 83t-105 -82.5t-28 -290.5q0 -207 28.5 -290t104.5 -83q77 0 106.5 83.5t29.5 289.5z" />
    <glyph glyph-name="guilsinglleft" unicode="&#x2039;" horiz-adv-x="649" 
d="M547 63l-51 -38l-363 383q-31 31 -31 69q0 41 31 72l363 381l51 -37l-189 -416z" />
    <glyph glyph-name="guilsinglright" unicode="&#x203a;" horiz-adv-x="649" 
d="M516 408l-362 -383l-52 38l189 414l-189 416l52 37l362 -381q31 -31 31 -72q0 -38 -31 -69z" />
    <glyph glyph-name="fraction" unicode="&#x2044;" horiz-adv-x="235" 
d="M-406 0l938 1434h109l-938 -1434h-109z" />
    <glyph glyph-name="uni2070" unicode="&#x2070;" horiz-adv-x="782" 
d="M139 1335q89 117 252 117q161 0 250 -117q90 -119 90 -331q0 -213 -90 -332q-89 -117 -250 -117q-163 0 -252 117q-88 116 -88 332q0 215 88 331zM526 1004q0 207 -29 289.5t-106 82.5t-105 -82t-28 -290q0 -207 28.5 -290t104.5 -83q77 0 106 83.5t29 289.5z" />
    <glyph glyph-name="uni2074" unicode="&#x2074;" horiz-adv-x="782" 
d="M590 573h-199v205h-342v64l402 610h139v-590h145v-84h-145v-205zM391 1200l-225 -338h225v338z" />
    <glyph glyph-name="uni2075" unicode="&#x2075;" horiz-adv-x="782" 
d="M721 862q0 -133 -100.5 -220t-264.5 -87q-115 0 -202 37q-91 42 -91 108q0 38 25.5 64.5t61.5 26.5t61 -15.5t40 -37.5l30 -44t41 -37.5t63 -15.5q78 0 126 44.5t48 117.5q0 79 -64.5 128.5t-172.5 49.5q-111 0 -179 -35l-55 21l72 467h407q31 0 37 26h62l-25 -188h-418
l-22 -150q84 23 168 23q159 0 255.5 -79t96.5 -204z" />
    <glyph glyph-name="uni2076" unicode="&#x2076;" horiz-adv-x="782" 
d="M436 1130q138 0 215 -86q80 -83 80 -194q0 -117 -96 -207q-94 -88 -244 -88q-158 0 -249 105t-91 284q0 98 34.5 181t92 140.5t134 98.5t158 62t167.5 26v-76q-276 -15 -352 -278q74 32 151 32zM391 631q135 0 135 219q0 89 -40.5 141.5t-112.5 52.5q-55 0 -107 -24
q-8 -44 -8 -119q0 -139 30.5 -204.5t102.5 -65.5z" />
    <glyph glyph-name="uni2077" unicode="&#x2077;" horiz-adv-x="782" 
d="M426 573h-205q26 190 113 369t215 318h-322q-39 0 -54.5 -15t-27.5 -69h-59l33 284h61q0 -26 29 -26h493v-101q-238 -296 -276 -760z" />
    <glyph glyph-name="uni2078" unicode="&#x2078;" horiz-adv-x="782" 
d="M555 1059q178 -76 178 -246q0 -117 -95 -187.5t-259 -70.5q-146 0 -236 65.5t-90 165.5q0 136 156 215q-117 73 -117 220q0 99 86.5 165t229.5 66q131 0 208.5 -58t77.5 -143q0 -124 -139 -192zM434 1376q-64 0 -102.5 -32t-38.5 -91q0 -54 36.5 -87.5t116.5 -61.5
q132 62 132 158q0 52 -38.5 83t-105.5 31zM369 631q77 0 120 36t43 97q0 66 -49.5 107t-175.5 83q-125 -64 -125 -174q0 -67 51 -108t136 -41z" />
    <glyph glyph-name="uni2079" unicode="&#x2079;" horiz-adv-x="782" 
d="M391 1452q158 0 249 -105t91 -284q0 -98 -34.5 -181t-91.5 -140.5t-133.5 -99.5t-158.5 -62.5t-168 -24.5v76q137 7 227.5 79.5t127.5 198.5q-83 -30 -152 -30q-138 0 -219 84q-78 87 -78 196q0 117 94 205t246 88zM412 965q48 0 106 24q8 44 8 117q0 139 -31 205.5
t-104 66.5q-133 0 -133 -219q0 -89 40.5 -141.5t113.5 -52.5z" />
    <glyph glyph-name="uni207B" unicode="&#x207b;" horiz-adv-x="782" 
d="M37 969v73h708v-73h-708z" />
    <glyph glyph-name="uni207D" unicode="&#x207d;" horiz-adv-x="458" 
d="M412 1591l32 -41q-95 -71 -161 -221q-64 -146 -64 -321q0 -170 62 -317t163 -226l-32 -41q-164 91 -262.5 240.5t-98.5 343.5t98.5 343t262.5 240z" />
    <glyph glyph-name="uni207E" unicode="&#x207e;" horiz-adv-x="458" 
d="M45 424l-31 41q101 79 163.5 226.5t62.5 316.5q0 175 -64 321q-66 149 -162 221l31 41q167 -91 265 -240t98 -343t-98.5 -343.5t-264.5 -240.5z" />
    <glyph glyph-name="uni207F" unicode="&#x207f;" horiz-adv-x="919" 
d="M907 567h-409v64q55 6 72.5 19t17.5 48v377q0 105 -105 105q-74 0 -151 -50v-432q0 -35 18 -48t74 -19v-64h-410v64q54 6 71 19t17 48v377q0 45 -39 45h-49v58l236 129h82v-76q119 76 237 76q248 0 248 -238v-371q0 -35 17.5 -48t72.5 -19v-64z" />
    <glyph glyph-name="uni2080" unicode="&#x2080;" horiz-adv-x="782" 
d="M139 385q89 117 252 117q161 0 250 -117q90 -119 90 -332t-90 -332q-88 -116 -250 -116q-164 0 -252 116t-88 332t88 332zM526 53q0 207 -29 290t-106 83t-105 -82.5t-28 -290.5q0 -207 28 -289.5t105 -82.5t106 83t29 289z" />
    <glyph glyph-name="uni2081" unicode="&#x2081;" horiz-adv-x="782" 
d="M655 -377h-526v53q106 3 135 19t29 65v537q0 35 -31 35h-133v51l291 119h72v-742q0 -51 26 -65q29 -16 137 -19v-53z" />
    <glyph glyph-name="uni2082" unicode="&#x2082;" horiz-adv-x="782" 
d="M174 209h-88q0 135 83 214t224 79q127 0 207 -70t80 -180q0 -237 -385 -455h274q39 0 54 14t28 70h62l-35 -284h-60q0 26 -30 26h-492v101q198 146 288.5 266.5t90.5 261.5q0 76 -36.5 120t-104.5 44q-74 0 -117 -53.5t-43 -153.5z" />
    <glyph glyph-name="uni2083" unicode="&#x2083;" horiz-adv-x="782" 
d="M506 123q94 -14 154.5 -76.5t60.5 -148.5q0 -130 -99 -211.5t-268 -81.5q-115 0 -202 37q-89 38 -89 108q0 38 24.5 64t59.5 26t60 -15.5t39.5 -37t28.5 -43.5t37 -37.5t55 -15.5q147 0 147 180q0 86 -53 135t-150 49h-22v84h22q73 0 112.5 38.5t39.5 107.5q0 61 -33 96
t-92 35q-63 0 -105.5 -43t-48.5 -119h-88q11 119 87 183.5t206 64.5q129 0 204 -53t75 -140q0 -134 -162 -186z" />
    <glyph glyph-name="uni2084" unicode="&#x2084;" horiz-adv-x="782" 
d="M590 -377h-199v205h-342v63l402 611h139v-590h145v-84h-145v-205zM391 250l-225 -338h225v338z" />
    <glyph glyph-name="uni2085" unicode="&#x2085;" horiz-adv-x="782" 
d="M721 -88q0 -133 -100.5 -220t-264.5 -87q-117 0 -202 39q-91 39 -91 106q0 38 25.5 64t61.5 26q44 0 73 -23.5t43 -51t44 -51t75 -23.5q78 0 126 44.5t48 117.5q0 79 -64.5 128.5t-172.5 49.5q-111 0 -179 -35l-55 20l72 467h407q31 0 37 27h62l-25 -188h-418l-22 -150
q84 23 168 23q159 0 255.5 -79t96.5 -204z" />
    <glyph glyph-name="uni2086" unicode="&#x2086;" horiz-adv-x="782" 
d="M436 180q138 0 215 -86q80 -83 80 -194q0 -115 -96 -205t-244 -90q-158 0 -249 105t-91 284q0 98 34.5 181t92 140.5t134 98.5t158 62t167.5 26v-76q-275 -15 -352 -279q76 33 151 33zM391 -319q135 0 135 219q0 89 -40.5 141.5t-112.5 52.5q-55 0 -107 -24
q-8 -44 -8 -119q0 -139 30.5 -204.5t102.5 -65.5z" />
    <glyph glyph-name="uni2087" unicode="&#x2087;" horiz-adv-x="782" 
d="M426 -377h-205q26 190 113 368.5t215 317.5h-322q-39 0 -54.5 -15t-27.5 -69h-59l33 285h61q0 -27 29 -27h493v-100q-238 -296 -276 -760z" />
    <glyph glyph-name="uni2088" unicode="&#x2088;" horiz-adv-x="782" 
d="M555 109q178 -76 178 -246q0 -117 -95 -187.5t-259 -70.5q-146 0 -236 65.5t-90 165.5q0 136 156 215q-117 74 -117 219q0 99 86.5 165.5t229.5 66.5q131 0 208.5 -58t77.5 -143q0 -124 -139 -192zM434 426q-64 0 -102.5 -32t-38.5 -91q0 -54 36.5 -87.5t116.5 -61.5
q132 62 132 157q0 52 -38.5 83.5t-105.5 31.5zM369 -319q77 0 120 36t43 97q0 66 -49.5 107t-175.5 83q-125 -64 -125 -174q0 -67 51 -108t136 -41z" />
    <glyph glyph-name="uni2089" unicode="&#x2089;" horiz-adv-x="782" 
d="M391 502q158 0 249 -105t91 -284q0 -98 -34.5 -181t-91.5 -140.5t-133.5 -99.5t-158.5 -62.5t-168 -24.5v76q137 7 227.5 79.5t127.5 198.5q-85 -31 -152 -31q-138 0 -219 84q-78 87 -78 197q0 117 94 205t246 88zM412 14q45 0 106 25q8 44 8 117q0 139 -31 205.5
t-104 66.5q-133 0 -133 -219q0 -89 41 -142t113 -53z" />
    <glyph glyph-name="uni208D" unicode="&#x208d;" horiz-adv-x="458" 
d="M412 641l32 -41q-95 -71 -161 -221q-64 -146 -64 -322q0 -170 62 -316.5t163 -225.5l-32 -41q-164 91 -262.5 240t-98.5 343t98.5 343.5t262.5 240.5z" />
    <glyph glyph-name="uni208E" unicode="&#x208e;" horiz-adv-x="458" 
d="M45 -526l-31 41q101 79 163.5 226t62.5 316q0 176 -64 322q-66 149 -162 221l31 41q166 -91 264.5 -240.5t98.5 -343.5t-98 -343t-265 -240z" />
    <glyph glyph-name="colonmonetary" unicode="&#x20a1;" horiz-adv-x="1302" 
d="M1143 469l108 -35q-135 -368 -540 -368h-33l-37 -127h-109l39 139q-61 13 -106 31l-47 -170h-109l62 215q-140 80 -216.5 226.5t-76.5 336.5q0 292 174 469q174 180 459 180h2l37 129h108l-39 -137q58 -9 107 -29l47 166h108l-43 -156h82l99 -356l-64 -18
q-68 128 -166 204l-282 -999h28q145 0 255.5 83.5t152.5 215.5zM377 717q0 -213 55 -344l252 887q-307 -40 -307 -543zM791 1260l-283 -1002q33 -36 96 -65l293 1034q-57 26 -106 33z" />
    <glyph glyph-name="uni20A2" unicode="&#x20a2;" horiz-adv-x="1427" 
d="M1264 424l112 -39q-151 -416 -600 -416q-309 0 -504 207q-194 209 -194 541t194 538q194 209 504 209q206 0 346 -96l29 66h80l112 -406l-65 -20q-86 164 -209 255t-268 91q-210 0 -313 -166.5t-103 -470.5q0 -535 299 -621v506q0 35 -13 49.5t-44 14.5h-60v61l285 166
h80v-125q104 125 239 125q73 0 112.5 -38t39.5 -105q0 -60 -30.5 -97t-75.5 -37q-49 0 -93 50q-39 51 -67 51q-67 0 -125 -76v-543q118 32 207.5 119.5t124.5 206.5z" />
    <glyph glyph-name="franc" unicode="&#x20a3;" horiz-adv-x="1341" 
d="M51 346v115h180v743q0 102 -32 127q-33 26 -148 35v68h1153l127 -353l-57 -28q-101 141 -226.5 203.5t-314.5 62.5h-158q-27 0 -44 -16.5t-17 -45.5v-450h287q101 0 138.5 41.5t43.5 144.5h76v-489h-76q-6 103 -43.5 144.5t-138.5 41.5h-287v-229h186v-115h-186v-117
q0 -101 33 -127q33 -23 151 -32v-70h-647v70q115 9 148 32q32 25 32 127v117h-180z" />
    <glyph glyph-name="peseta" unicode="&#x20a7;" horiz-adv-x="1523" 
d="M51 1004v116h180v84q0 103 -30 127q-29 26 -150 35v68h709q581 0 622 -314h142v-116h-142q-24 -178 -172.5 -249t-453.5 -71h-242v-455q0 -101 33 -127q33 -23 147 -32v-70h-643v70q115 9 148 32q32 25 32 127v775h-180zM514 1257v-137h561q-27 199 -315 199h-185
q-27 0 -44 -16.5t-17 -45.5zM1075 1004h-561v-203h242q284 0 319 203z" />
    <glyph glyph-name="Euro" unicode="&#x20ac;" horiz-adv-x="1196" 
d="M68 797v102h116q38 270 182 417.5t355 147.5q169 0 278 -92q109 -89 109 -209q0 -90 -50 -146t-126 -56q-60 0 -98.5 37t-38.5 89q0 53 30.5 85.5t79.5 37.5q31 6 31 25q0 52 -52 87.5t-132 35.5q-133 0 -195.5 -110t-73.5 -349h383v-102h-387v-172h387v-103h-379
q34 -436 283 -436q187 0 285 229l98 -53q-129 -293 -418 -293q-218 0 -363 143t-186 410h-118v103h108q-4 78 -4 92q0 64 2 80h-106z" />
    <glyph glyph-name="uni2113" unicode="&#x2113;" horiz-adv-x="849" 
d="M201 487v185q0 245 32 348q33 110 105 188q86 92 194 92q92 0 147.5 -66t55.5 -183q0 -122 -94 -260q-37 -53 -98 -113q-56 -59 -94 -92l-87 -72v-131q0 -279 166 -279q120 0 220 127l38 -36q-134 -220 -327 -220q-124 0 -189 80q-69 78 -69 277v76l-113 -84l-25 49z
M362 815v-219q248 217 248 455q0 80 -32 130t-86 50q-69 0 -99.5 -99t-30.5 -317z" />
    <glyph glyph-name="uni2117" unicode="&#x2117;" horiz-adv-x="1597" 
d="M270 1245q219 219 529 219q309 0 528 -219t219 -528q0 -310 -219 -529t-528 -219q-310 0 -529 219t-219 529q0 309 219 528zM799 49q278 0 473 195q196 196 196 473q0 280 -196 473q-193 196 -473 196q-277 0 -473 -196q-195 -195 -195 -473q0 -275 195 -473
q198 -195 473 -195zM831 291h-415v55q61 5 78.5 20t17.5 64v582q0 51 -17 65t-79 19v55h424q213 0 310 -51.5t97 -175.5q0 -130 -97 -183t-314 -53h-99v-258q0 -49 17 -64t77 -20v-55zM850 1063h-76q-37 0 -37 -37v-250h99q94 0 140 35t46 113q0 76 -43 107.5t-129 31.5z
" />
    <glyph glyph-name="trademark" unicode="&#x2122;" horiz-adv-x="1009" 
d="M156 1073v299q0 19 -19 19q-58 0 -108 -80l-25 10l41 127h27q6 -14 20 -14h246q17 0 20 14h29l37 -127l-25 -10q-47 80 -106 80q-19 0 -19 -19v-299q0 -24 7.5 -30t37.5 -11v-28h-210v28q31 5 39 11t8 30zM981 1004h-211v28q32 5 39.5 11t7.5 30v262l-121 -331h-39
l-120 331v-262q0 -24 7.5 -30t37.5 -11v-28h-142v28q30 5 37.5 11t7.5 30v291q0 24 -7.5 31t-37.5 12v27h187l86 -236l84 236h184v-27q-31 -3 -39 -9.5t-8 -33.5v-291q0 -24 8 -30t39 -11v-28z" />
    <glyph glyph-name="uni2126" unicode="&#x2126;" horiz-adv-x="1583" 
d="M1456 -45h-76q0 45 -41 45h-471v229q176 147 252 297q78 153 78 353q0 477 -405 477q-406 0 -406 -477q0 -206 76 -355q76 -146 254 -295v-229h-471q-41 0 -41 -45h-76l-51 432h76q19 -100 45 -133q21 -27 82 -27h268q-469 301 -469 668q0 256 190 412q195 157 523 157
q325 0 520 -157q192 -155 192 -412q0 -367 -469 -668h267q59 0 81 25q26 34 46 135h75z" />
    <glyph glyph-name="estimated" unicode="&#x212e;" horiz-adv-x="1724" 
d="M1661 664h-1294q-11 0 -11 -11v-389q0 -28 19 -47q199 -211 491 -211q310 0 512 236h117q-111 -130 -277.5 -204.5t-355.5 -74.5q-329 0 -565 211q-234 212 -234 508t234 508q236 211 565 211q330 0 563 -211q236 -211 236 -508v-18zM1368 715v391q0 29 -20 49
q-200 203 -482 203q-286 0 -489 -209q-21 -21 -21 -49v-385q0 -13 11 -13h993q8 0 8 13z" />
    <glyph glyph-name="partialdiff" unicode="&#x2202;" horiz-adv-x="1124" 
d="M563 -31q-232 0 -375 140q-139 142 -139 358q0 215 135 356q136 142 346 142q131 0 238 -82q-13 224 -62.5 328t-138.5 104q-39 0 -94 -58q-54 -57 -102 -57q-51 0 -82 30.5t-31 78.5q0 71 52.5 113t150.5 42q251 0 426 -239q176 -238 176 -641q0 -282 -135 -449
q-135 -166 -365 -166zM776 764q-94 98 -219 98q-225 0 -225 -399q0 -391 231 -391q116 0 166.5 111t50.5 339q0 58 -4 242z" />
    <glyph glyph-name="uni2206" unicode="&#x2206;" horiz-adv-x="1406" 
d="M616 1434h185l549 -1434h-1280zM618 1116l-380 -999h768z" />
    <glyph glyph-name="product" unicode="&#x220f;" horiz-adv-x="1640" 
d="M1589 0h-643v70q115 9 148 32q32 25 32 127v1028q0 29 -16 45.5t-45 16.5h-490q-27 0 -44 -16.5t-17 -45.5v-1028q0 -101 33 -127q33 -23 147 -32v-70h-643v70q115 9 148 32q32 25 32 127v975q0 102 -32 127q-33 26 -148 35v68h1538v-68q-114 -9 -147 -35t-33 -127v-975
q0 -101 33 -127q33 -23 147 -32v-70z" />
    <glyph glyph-name="summation" unicode="&#x2211;" horiz-adv-x="1298" 
d="M332 227h368q237 0 338 39q103 40 203 164l57 -35l-198 -395h-1049v70l432 618l-426 678v68h1041l127 -353l-58 -28q-105 142 -226.5 204t-307.5 62h-209l319 -502z" />
    <glyph glyph-name="minus" unicode="&#x2212;" horiz-adv-x="1144" 
d="M18 662v116h1108v-116h-1108z" />
    <glyph glyph-name="radical" unicode="&#x221a;" horiz-adv-x="1144" 
d="M18 451v116h301l170 -413l531 1280h127l-594 -1434h-127l-186 451h-222z" />
    <glyph glyph-name="infinity" unicode="&#x221e;" horiz-adv-x="1751" 
d="M1317 1124q164 0 282 -118q119 -119 119 -289t-119 -289t-282 -119q-109 0 -195 45q-82 44 -133 98t-117 156q-66 -102 -125 -163.5t-137.5 -98.5t-175.5 -37q-163 0 -282 119t-119 289q0 168 119 287q120 120 282 120q144 0 244.5 -73t200.5 -226q100 153 198.5 226
t239.5 73zM1317 430q119 0 201 82q84 84 84 205q0 120 -84 207q-83 86 -201 86q-87 0 -158 -45q-71 -44 -115 -97q-32 -39 -100 -145q83 -129 152 -203q90 -90 221 -90zM434 426q79 0 143.5 34.5t115 91.5t116.5 159q-46 75 -77.5 116.5t-76.5 83.5q-93 93 -221 93
q-119 0 -203 -84q-81 -81 -81 -203q0 -123 81 -207q84 -84 203 -84z" />
    <glyph glyph-name="integral" unicode="&#x222b;" horiz-adv-x="536" 
d="M393 1575v-1518q0 -224 -123 -344q-121 -121 -307 -121q-94 0 -149.5 39.5t-55.5 110.5q0 45 36 80t83 35q39 0 66.5 -21.5t39.5 -47.5t30.5 -47.5t41.5 -21.5q90 0 90 136v1534q0 206 121 327q124 121 307 121q89 0 145 -37t56 -98q0 -54 -33.5 -89.5t-87.5 -35.5
q-39 0 -66.5 21t-39 45.5t-29.5 45.5t-41 21q-84 0 -84 -135z" />
    <glyph glyph-name="approxequal" unicode="&#x2248;" horiz-adv-x="1144" 
d="M18 801v143q117 111 287 111q146 0 279 -74q136 -74 256 -74q78 0 156 35.5t130 101.5v-141q-112 -112 -286 -112q-139 0 -279 73q-136 74 -254 74q-78 0 -157.5 -35.5t-131.5 -101.5zM18 395v144q116 110 287 110q146 0 279 -74q134 -73 256 -73q78 0 156 35.5
t130 101.5v-141q-113 -113 -286 -113q-137 0 -279 74q-134 73 -254 73q-78 0 -157.5 -35.5t-131.5 -101.5z" />
    <glyph glyph-name="notequal" unicode="&#x2260;" horiz-adv-x="1144" 
d="M18 864v117h566l84 291h120l-83 -291h421v-117h-454l-82 -289h536v-116h-569l-82 -295h-121l82 295h-418v116h451l82 289h-533z" />
    <glyph glyph-name="lessequal" unicode="&#x2264;" horiz-adv-x="1144" 
d="M1085 340v-127l-1024 422v127l1024 424v-127l-870 -361zM18 0v111h1108v-111h-1108z" />
    <glyph glyph-name="greaterequal" unicode="&#x2265;" horiz-adv-x="1144" 
d="M61 213v127l869 358l-869 361v127l1022 -424v-127zM1126 111v-111h-1108v111h1108z" />
    <glyph glyph-name="lozenge" unicode="&#x25ca;" horiz-adv-x="1144" 
d="M86 717l424 717h127l422 -717l-422 -717h-127zM213 717l358 -611l361 611l-361 610z" />
    <glyph glyph-name="hyphen.inferior" unicode="&#x8331;" horiz-adv-x="378" 
d="M18 0v113h342v-113h-342z" />
    <glyph glyph-name="uniF6C3" unicode="&#xf6c3;" horiz-adv-x="0" 
d="M-20 -254q0 -63 -39 -134.5t-95 -127.5l-41 33q36 68 52 123q-62 0 -99 35.5t-37 91.5q0 52 36.5 88t92.5 36q58 0 94 -40t36 -105z" />
    <glyph glyph-name="uniF6DD" unicode="&#xf6dd;" horiz-adv-x="2527" 
d="M1892 -377h-499v68q75 7 100 27t25 71v211h-394l-460 684h-150v-455q0 -101 33 -127q33 -23 147 -32v-70h-643v70q115 9 148 32q32 25 32 127v975q0 100 -30 127q-29 26 -150 35v68h709q315 0 470.5 -87.5t155.5 -283.5q0 -323 -421 -363l348 -507q39 -61 83.5 -88.5
t121.5 -34.5v604q0 35 -13.5 49t-44.5 14h-74v62l291 166h88v-101q104 101 271 101q192 0 311 -140q119 -137 119 -358q0 -223 -123 -361q-119 -137 -336 -137q-150 0 -242 80v-260q0 -51 26 -70.5t101 -27.5v-68zM760 1319h-185q-27 0 -44 -16.5t-17 -45.5v-456h242
q163 0 243 62.5t80 199.5q0 134 -79 195t-240 61zM1765 750v-566q70 -98 197 -98q244 0 244 381t-244 381q-127 0 -197 -98z" />
    <glyph glyph-name="uniF6E4" unicode="&#xf6e4;" horiz-adv-x="782" 
d="M731 813q0 -109 -81.5 -180t-217.5 -78v-119h-67v121q-102 6 -172 55l-17 -39h-59l-74 275l47 14q121 -228 275 -231v305q-13 6 -19 8q-66 26 -98 42.5t-74 47.5q-84 63 -84 185q0 93 77.5 159.5t205.5 73.5v55h67v-57q87 -9 127 -49l17 33h57l68 -246l-45 -14
q-99 196 -224 202v-278q4 -1 8 -2.5t9.5 -4.5t9.5 -4q66 -27 100 -44t76 -48q88 -61 88 -182zM274 1251q0 -71 99 -123v242q-99 -27 -99 -119zM432 905v-266q50 12 79.5 46t29.5 79q0 88 -109 141z" />
    <glyph glyph-name="uniF6E6" unicode="&#xf6e6;" horiz-adv-x="378" 
d="M18 950v113h342v-113h-342z" />
    <glyph glyph-name="uniF6E8" unicode="&#xf6e8;" horiz-adv-x="440" 
d="M129 756q32 35 90 35t90 -35q35 -35 35 -82t-35 -82q-32 -35 -90 -35t-90 35t-32 82t32 82z" />
    <glyph glyph-name="uniF6E9" unicode="&#xf6e9;" horiz-adv-x="876" 
d="M522 647q-135 -100 -262 -100q-98 0 -155.5 47t-57.5 125q0 63 39 113t111 81q132 58 323 91v90q0 73 -19.5 101t-72.5 28q-49 0 -77.5 -23.5t-47.5 -79.5q-30 -88 -123 -88q-39 0 -62.5 24.5t-23.5 67.5q0 78 103 131q104 52 260 52q136 0 214.5 -56.5t78.5 -173.5v-364
q0 -60 43 -60q21 0 47 11v-76q-62 -39 -156 -39q-141 0 -162 98zM520 731v191q-128 -21 -187 -55.5t-59 -98.5q0 -42 27.5 -67t71.5 -25q65 0 147 55z" />
    <glyph glyph-name="uniF6EA" unicode="&#xf6ea;" horiz-adv-x="915" 
d="M14 1479v59l236 127h82v-428q82 70 203 70q155 0 249 -107q99 -105 99 -274q0 -172 -103 -276.5t-276 -104.5q-130 0 -213 71l-101 -71h-88v887q0 47 -39 47h-49zM332 1128v-405q47 -74 137 -74q176 0 176 277q0 274 -176 274q-90 0 -137 -72z" />
    <glyph glyph-name="uniF6EB" unicode="&#xf6eb;" horiz-adv-x="915" 
d="M492 1479v59l235 127h84v-967q0 -35 17.5 -48t72.5 -19v-64q-165 0 -319 -22v67q-76 -67 -201 -67q-154 0 -252 104q-96 110 -96 277t96 274q98 107 252 107q124 0 201 -68v195q0 45 -41 45h-49zM582 721v407q-47 74 -138 74q-176 0 -176 -276q0 -275 176 -275
q92 0 138 70z" />
    <glyph glyph-name="uniF6EC" unicode="&#xf6ec;" horiz-adv-x="823" 
d="M795 969h-525q-2 -10 -2 -45q0 -279 211 -279q74 0 143.5 46t106.5 124l84 -47q-113 -223 -360 -223q-190 0 -305 106t-115 275q0 165 110 272q115 109 285 109q172 0 269.5 -91t97.5 -247zM279 1069h274q0 148 -127 148q-123 0 -147 -148z" />
    <glyph glyph-name="uniF6ED" unicode="&#xf6ed;" horiz-adv-x="436" 
d="M223 1657q58 0 95.5 -37t37.5 -88t-37 -87t-96 -36q-82 -3 -116 60t0 126.5t116 61.5zM424 567h-410v64q54 6 71 19t17 48v377q0 45 -39 45h-49v58l236 129h82v-609q0 -35 18 -48t74 -19v-64z" />
    <glyph glyph-name="uniF6EE" unicode="&#xf6ee;" horiz-adv-x="436" 
d="M424 567h-410v64q54 6 71 19t17 48v736q0 45 -39 45h-49v59l236 127h82v-967q0 -35 18 -48t74 -19v-64z" />
    <glyph glyph-name="uniF6EF" unicode="&#xf6ef;" horiz-adv-x="1402" 
d="M907 567h-409v64q55 6 72.5 19t17.5 48v377q0 105 -105 105q-74 0 -151 -50v-432q0 -35 18 -48t74 -19v-64h-410v64q54 6 71 19t17 48v377q0 45 -39 45h-49v58l236 129h82v-76q119 76 237 76q155 0 215 -97q51 42 127.5 69.5t141.5 27.5q245 0 245 -238v-371
q0 -35 18 -48t73 -19v-64h-408v64q54 6 71 19t17 48v377q0 105 -104 105q-81 0 -154 -52q6 -56 6 -59v-371q0 -35 17.5 -48t72.5 -19v-64z" />
    <glyph glyph-name="uniF6F0" unicode="&#xf6f0;" horiz-adv-x="882" 
d="M440 1307q189 0 299 -107q113 -107 113 -274q0 -168 -113 -275q-109 -106 -299 -106q-185 0 -297 106q-110 107 -110 275q0 167 110 274q113 107 297 107zM440 633q92 0 132 71.5t40 221.5q0 147 -40.5 219t-131.5 72q-172 0 -172 -291q0 -293 172 -293z" />
    <glyph glyph-name="uniF6F1" unicode="&#xf6f1;" horiz-adv-x="675" 
d="M561 1069q-53 0 -86 39q-35 41 -55 41q-48 0 -88 -49v-402q0 -35 18 -48t74 -19v-64h-410v64q54 6 71 19t17 48v377q0 45 -39 45h-49v58l236 129h82v-95q83 95 196 95q63 0 100.5 -33t37.5 -88q0 -53 -30.5 -85t-74.5 -32z" />
    <glyph glyph-name="uniF6F2" unicode="&#xf6f2;" horiz-adv-x="751" 
d="M432 1038q19 -6 45.5 -14t39.5 -12t32.5 -12t40.5 -19q65 -28 97 -70t38 -112q0 -115 -90 -182.5t-232 -67.5q-153 0 -245 63l-19 -45h-57l-55 250l49 14q61 -92 146.5 -143t174.5 -51q54 0 87.5 24.5t33.5 65.5q0 30 -29 53q-9 8 -18 14t-15.5 9.5t-21 9t-22 7.5t-31 9
t-35.5 11q-68 19 -106.5 34.5t-87.5 43.5q-101 58 -101 163q0 96 86 158q85 64 213 64q127 0 215 -58l19 39h55l45 -211l-55 -16q-98 162 -256 162q-46 0 -73.5 -20.5t-27.5 -53.5q0 -36 37 -59t123 -48z" />
    <glyph glyph-name="uniF6F3" unicode="&#xf6f3;" horiz-adv-x="530" 
d="M508 1184h-176v-432q0 -105 86 -105q44 0 90 17v-91q-77 -26 -168 -26q-120 0 -179 48.5t-59 158.5v430h-88v57q186 67 236 275h82v-232h176v-100z" />
    <glyph glyph-name="uniF8FF" unicode="&#xf8ff;" horiz-adv-x="2381" 
d="M406 -27q-166 0 -269 109q-100 109 -100 254q0 81 40.5 135.5t98.5 54.5q44 0 74.5 -30t30.5 -74q0 -73 -95 -111q-39 -14 -39 -51q0 -60 55 -107t148 -47q98 0 180 70q84 72 84 133q0 21 -20.5 66t-20.5 69q0 42 31 67.5t84 25.5q49 0 77 -34t28 -81q0 -49 -44 -111
t-108 -108l6 -13q121 59 266 183q117 97 152 200t35 258q0 148 98 148q32 0 80 -45q49 -43 78 -43q20 0 32.5 11.5t12.5 29.5q0 13 -13.5 30t-30.5 33.5t-30.5 49.5t-13.5 73q0 62 47 121q48 57 115 57q37 0 64.5 -27.5t37.5 -76.5q7 -44 20 -61t37 -17q35 0 35 62
q0 4 -7 40.5t-7 69.5q0 36 26 63.5t62 32.5q20 3 59 22t56 19q31 0 56 -29.5t25 -70.5q0 -27 -24.5 -71.5t-24.5 -57.5q0 -31 37 -31t58 76q20 75 51 133q35 74 174 74q70 3 102 -32t27 -82t-28.5 -91.5t-55.5 -60.5q-18 -14 -24 -24t0 -18.5t26 -17.5q35 -16 61.5 -54
t26.5 -95q0 -54 -43.5 -98t-89.5 -44q-32 0 -74 25q-41 27 -45 27q-29 0 -29 -35q0 -19 21 -37.5t47 -33.5t47 -43t21 -62q0 -54 -38.5 -86.5t-86.5 -32.5q-43 0 -97 57q-55 58 -100 58q-16 0 -26.5 -12t-10.5 -27q0 -31 39 -76t39 -92q0 -41 -31 -69t-73 -28
q-43 -2 -94 24.5t-87 59.5t-66.5 58.5t-39.5 23.5q-7 0 -14 -7t-7 -15q0 -20 43 -66q43 -43 43 -90q0 -33 -33 -59.5t-87 -26.5q-49 0 -130 35q-78 35 -167 35q-160 0 -381 -156l6 -12q115 59 190 59q104 0 158.5 -58t54.5 -140q0 -96 -65 -152h-23q-41 238 -201 238
q-74 0 -223 -70t-286 -70zM426 862q0 53 68 68q0 118 15 185t60 114q73 76 101 127q15 30 35 30q22 0 34 -30q15 -38 101 -127q45 -47 60 -114t15 -185q68 -15 68 -68q0 -102 -84 -168q-81 -63 -194 -63q-114 0 -195 63q-84 66 -84 168z" />
    <glyph glyph-name="s_t" unicode="&#xfb06;" horiz-adv-x="1640" 
d="M1593 827h-233v-596q0 -141 113 -141q65 0 120 25v-103q-85 -39 -204 -39q-138 0 -207.5 61.5t-69.5 198.5v594h-127v60q227 82 227 278q0 105 -70.5 174.5t-180.5 69.5q-124 0 -204.5 -72.5t-80.5 -181.5q0 -112 72 -244l131 -239l-68 -39q-134 235 -346 235
q-72 0 -113 -31t-41 -81q0 -57 50.5 -87.5t173.5 -62.5q12 -3 36 -9.5t33 -9t27.5 -8t28.5 -9t26 -9t30.5 -11.5t31.5 -13q88 -37 130.5 -94t49.5 -152q0 -147 -111 -236q-112 -86 -285 -86q-195 0 -323 94l-25 -63h-63l-74 324l55 16q172 -270 422 -270q81 0 133 37t52 102
q0 71 -80 106q-64 30 -180 60q-16 5 -44 14t-40 12.5t-33 10.5t-34 12.5t-31 12.5t-36 16q-76 37 -110.5 88.5t-40.5 138.5q0 123 102 203q101 82 262 82q94 0 166 -29q-53 112 -53 219q0 143 115 252q118 109 289 109q165 0 282 -105q117 -102 117 -285v-192h233v-107z" />
    <glyph glyph-name="_1" horiz-adv-x="0" 
 />
    <glyph glyph-name="CR.001" horiz-adv-x="681" 
 />
    <glyph glyph-name="A.s1" horiz-adv-x="1900" 
d="M1290 1434l469 -1223q26 -71 62 -102t100 -39v-70h-592v70q105 8 134 33.5t3 91.5l-86 223h-536l-86 -223q-25 -61 11 -89t146 -36v-70h-448v70q68 6 106.5 37t63.5 98l391 1022q35 92 -61 92h-373q-214 0 -340.5 -100t-126.5 -265q0 -118 66 -196q64 -76 153 -76
q98 0 98 72q0 11 -20.5 61.5t-20.5 77.5q0 65 40.5 104t101.5 39q73 0 115 -51t42 -127q0 -133 -94 -215t-239 -82q-163 0 -266 107.5t-103 285.5q0 214 164 346q166 134 430 134h696zM1110 1116l-223 -581h448z" />
    <glyph glyph-name="A.s2" horiz-adv-x="1902" 
d="M1292 1434l469 -1223q26 -72 61 -103t101 -38v-70h-592v70q105 8 133 33t2 92l-86 223h-536l-84 -223q-24 -61 12 -89t143 -36v-70h-448v70q69 6 107.5 36.5t64.5 98.5l385 1009q16 51 2 75t-63 38q-168 53 -369 53q-214 0 -340.5 -99.5t-126.5 -264.5q0 -119 66 -197
q64 -76 153 -76q98 0 98 72q0 11 -20.5 61.5t-20.5 77.5q0 65 40.5 104.5t101.5 39.5q73 0 115 -51t42 -127q0 -133 -94 -215t-239 -82q-163 0 -266 107.5t-103 285.5q0 226 170 352q171 127 424 127q112 0 309 -31q181 -30 334 -30h55zM1110 1116l-221 -581h446z" />
    <glyph glyph-name="A.s3" 
d="M805 1434l469 -1223q26 -72 61 -103t101 -38v-70h-592v70q105 8 133 33t2 92l-102 264q-94 -97 -236 -97q-90 0 -252 72l-22 10l-95 -249q-24 -61 12.5 -89t143.5 -36v-70h-448v70q69 8 107.5 38t64.5 97l106 280q-41 13 -74 13q-83 0 -170 -78l-59 57q113 174 313 174
q5 0 51 -4l302 787h184zM717 530q69 0 121 27l-215 557l-191 -498q33 -11 68 -26q135 -60 217 -60z" />
    <glyph glyph-name="A.s4" horiz-adv-x="1708" 
d="M1098 1434l469 -1223q26 -71 62 -102t100 -39v-70h-592v70q105 8 134 33.5t3 91.5q-48 126 -203 247q-147 117 -344 174l-160 -421q-25 -61 11 -89t145 -36v-70h-449v70q68 8 106.5 38t63.5 97l168 436q-78 10 -131 10q-117 0 -181 -33t-64 -83q0 -18 23.5 -69.5
t23.5 -78.5q0 -54 -37 -89.5t-94 -35.5q-66 0 -109 52.5t-43 127.5q0 143 131 234q133 92 350 92q79 0 174 -14l260 680h183zM918 1114l-148 -387q211 -64 379 -207z" />
    <glyph glyph-name="A.s5" horiz-adv-x="1853" 
d="M1243 1434l469 -1223q26 -72 61 -103t101 -38v-70h-592v70q105 8 133 33t2 92l-108 278q-146 -88 -287 -88q-124 0 -225 39l-86 -229q-24 -61 12 -89t143 -36v-70h-448v70q69 8 107.5 38t64.5 97l102 266q-62 33 -139 86q-163 105 -252 105q-58 0 -93.5 -32t-35.5 -77
q0 -28 16 -50.5t39 -38.5t46 -32.5t39 -43.5t16 -62q0 -50 -38.5 -85.5t-90.5 -35.5q-85 0 -142 72t-57 184q0 157 109 246q109 92 264 92q69 0 153 -23q64 -18 121 -45q54 -26 119 -63l293 766h184zM1122 551q90 0 148 24l-209 539l-191 -500q129 -63 252 -63z" />
    <glyph glyph-name="A.s6" 
d="M805 1434l469 -1223q26 -72 61 -103t101 -38v-70h-592v70q105 8 133 33t2 92l-86 223h-537q-194 -491 -403 -697q-211 -208 -508 -208q-183 0 -290 67.5t-107 167.5q-3 43 22.5 78t63 50t80.5 9.5t73 -35.5q40 -37 60 -79q21 -50 61.5 -84.5t95.5 -34.5q215 0 404 201
q188 200 375 694l340 887h182zM623 1114l-222 -579h447z" />
    <glyph glyph-name="A.s7" horiz-adv-x="1708" 
d="M1098 1434l469 -1223q26 -71 62 -102t100 -39v-70h-592v70q105 8 134 33.5t3 91.5q-48 126 -203 247q-147 117 -344 174l-49 -129q-202 -528 -418 -751q-213 -223 -520 -223q-183 0 -290 67.5t-107 167.5q-3 43 22.5 78t63 50t80.5 9.5t73 -35.5q41 -38 58 -79
q21 -50 62 -84.5t97 -34.5q215 0 404 201q183 194 372 694l37 94q-78 10 -131 10q-117 0 -181 -33t-64 -83q0 -18 23.5 -69.5t23.5 -78.5q0 -54 -37 -89.5t-94 -35.5q-66 0 -109 52.5t-43 127.5q0 143 131 234q133 92 350 92q79 0 174 -14l260 680h183zM918 1114l-148 -387
q211 -64 379 -207z" />
    <glyph glyph-name="A.s8" horiz-adv-x="1900" 
d="M1290 1434l469 -1223q26 -71 62 -102t100 -39v-70h-592v70q105 8 134 33.5t3 91.5l-86 223h-536q-194 -491 -406 -697q-208 -208 -506 -208q-183 0 -290 67.5t-107 167.5q-3 43 22.5 78t63.5 50t81 9.5t73 -35.5q39 -36 57 -79q21 -50 62.5 -84.5t97.5 -34.5
q214 0 403 201q184 196 373 694l256 665q40 107 -57 107h-373q-214 0 -340.5 -100t-126.5 -265q0 -118 66 -196q64 -76 153 -76q98 0 98 72q0 11 -20.5 62t-20.5 77q0 65 40.5 104t101.5 39q73 0 115 -51t42 -127q0 -133 -94 -215t-239 -82q-163 0 -266 107.5t-103 285.5
q0 214 164 346q166 134 430 134h696zM1110 1114l-221 -579h446z" />
    <glyph glyph-name="A.s9" horiz-adv-x="2273" 
d="M1663 1434l469 -1223q26 -72 61 -103t101 -38v-70h-592v70q105 8 133 33t2 92l-86 223h-537q-114 -267 -274 -412q-159 -141 -422 -141q-235 0 -391 135t-156 354q0 191 111 305q114 117 276 117q152 0 246 -88q94 -85 94 -215q0 -78 -45.5 -130t-111.5 -52
q-61 0 -103.5 38.5t-42.5 94.5q0 28 21.5 79.5t21.5 65.5q0 32 -31.5 53t-82.5 21q-90 0 -158 -80t-68 -209q0 -169 125 -270q124 -100 295 -100q222 0 367 139q143 137 264 450l330 861h184zM1481 1114l-219 -579h444z" />
    <glyph glyph-name="A.s10" horiz-adv-x="2668" 
d="M2058 1434l471 -1227q26 -69 61.5 -99t98.5 -38v-70h-592v70q105 8 134 33.5t3 91.5l-86 223h-534q-194 -484 -412 -684q-218 -203 -528 -203q-296 0 -484 182t-188 469q0 266 182 451q184 184 424 184q228 0 369 -129q143 -125 143 -297q0 -126 -61.5 -201t-155.5 -75
q-69 0 -115.5 42t-46.5 107q0 34 15 60t37 43.5t44 34t37 41t15 55.5q0 88 -80 146t-201 58q-188 0 -334 -149q-147 -150 -147 -373q0 -250 158 -393q156 -141 389 -141q271 0 471 200q201 201 391 701l340 887h182zM1878 1114l-221 -579h446z" />
    <glyph glyph-name="A.s11" horiz-adv-x="2856" 
d="M2247 1434l463 -1205q32 -86 66.5 -118.5t100.5 -40.5v-70h-591v70q104 7 133 35t4 90l-86 223h-539q-185 -447 -471 -647q-286 -203 -639 -203q-284 0 -485 162q-203 159 -203 401q0 218 152 367t383 149q213 0 356 -98q145 -95 145 -234q0 -68 -38.5 -110.5
t-104.5 -42.5q-136 0 -176 178q-11 48 -20 72.5t-29 54.5q-39 59 -158 59q-167 0 -279 -118q-110 -116 -110 -277q0 -195 164 -321q165 -125 405 -125q325 0 588 196q263 194 428 619l279 725q17 44 2.5 63.5t-80.5 38.5q-306 83 -520.5 79.5t-328 -83.5t-108.5 -221
q0 -89 50.5 -147t134.5 -58q47 0 80 36.5t47 86.5q13 52 52 88.5t97 36.5q66 0 108 -42.5t42 -103.5q0 -108 -101 -178q-97 -69 -248 -69q-174 0 -280 100q-109 103 -109 250q0 181 146 303q146 119 417 119q171 0 400 -45t334 -45h127zM2066 1116l-221 -581h447z" />
    <glyph glyph-name="A.a1" horiz-adv-x="1474" 
d="M1241 1434v-1205q0 -101 33 -127q33 -23 149 -32v-70h-645v70q115 9 148 32q32 25 32 127v193h-485l-137 -197q-42 -68 -12.5 -107.5t122.5 -47.5v-70h-473v70q118 6 226 159l841 1205h201zM958 1114l-405 -577h405v577z" />
    <glyph glyph-name="A.s12" horiz-adv-x="1873" 
d="M1640 1434v-1205q0 -101 33 -127q33 -23 150 -32v-70h-645v70q114 9 147 32q35 27 35 127v193h-488l-137 -197q-42 -68 -12 -107.5t123 -47.5v-70h-471v70q115 6 223 159l690 990q27 49 9 74.5t-70 25.5h-633q-214 0 -340.5 -100t-126.5 -265q0 -118 66 -196
q64 -76 153 -76q98 0 98 72q0 11 -20.5 63t-20.5 76q0 65 40.5 104t101.5 39q73 0 115 -51t42 -127q0 -133 -94 -215t-239 -82q-163 0 -266 107.5t-103 285.5q0 214 164 346q166 134 430 134h1046zM1360 1116l-406 -579h406v579z" />
    <glyph glyph-name="A.s13" horiz-adv-x="1703" 
d="M1473 1434v-1205q0 -100 30 -127q33 -23 150 -32v-70h-643v70q109 9 143 30t37 105q-23 107 -113 235q-86 126 -209 215l-301 -430q-43 -68 -13.5 -107.5t122.5 -47.5v-70h-471v70q115 6 223 159l342 490q-146 82 -305 82q-106 0 -167.5 -34t-61.5 -83q0 -18 23.5 -69
t23.5 -78q0 -54 -37 -89.5t-94 -35.5q-66 0 -109 52.5t-43 127.5q0 142 129 233q134 93 336 93q195 0 375 -101l430 617h203zM1190 1116l-254 -362q152 -119 254 -295v657z" />
    <glyph glyph-name="A.s14" horiz-adv-x="1820" 
d="M1589 1434v-1205q0 -99 31 -127q33 -23 149 -32v-70h-643v70q115 9 148 32q33 26 33 127v242q-151 -86 -285 -86q-100 0 -205 31l-133 -191q-43 -68 -13.5 -107.5t122.5 -47.5v-70h-471v70q115 6 223 159l164 234q-57 30 -156 94q-163 105 -252 105q-58 0 -93.5 -32
t-35.5 -77q0 -27 16 -48t39 -36t46 -31.5t39 -45t16 -66.5q0 -50 -38.5 -85.5t-90.5 -35.5q-85 0 -142 72t-57 184q0 157 109 246q109 92 264 92q69 0 153 -23q74 -20 121 -43q54 -26 119 -63q54 -32 61 -35l559 799h203zM1122 551q106 0 185 43v522l-371 -530
q96 -35 186 -35z" />
    <glyph glyph-name="A.s15" horiz-adv-x="2904" 
d="M2671 1434v-1205q0 -102 32 -127q33 -23 150 -32v-70h-645v70q114 9 147 32q35 27 35 127v193h-485l-160 -229q-226 -325 -478 -475t-556 -150q-327 0 -521 164q-190 163 -190 413q0 203 145 330q148 127 324 127q128 0 210.5 -58t82.5 -151q0 -64 -42.5 -107.5
t-109.5 -43.5q-36 0 -63.5 13.5t-43.5 33.5t-32.5 44t-30.5 44t-38.5 33.5t-55.5 13.5q-80 0 -151 -80q-68 -77 -68 -199q0 -205 166 -331q169 -129 418 -129q541 0 942 573l817 1176h201zM2390 1118l-405 -581h405v581z" />
    <glyph glyph-name="A.s16" horiz-adv-x="2899" 
d="M2669 1434v-1205q0 -100 30 -127q33 -23 150 -32v-70h-643v70q114 9 147 32q33 26 33 127v193h-483l-160 -229q-240 -338 -479 -480q-245 -145 -539 -145q-326 0 -526 188q-199 187 -199 484q0 264 180 438q182 176 424 176q221 0 363 -121q143 -119 143 -301
q0 -123 -58.5 -196.5t-156.5 -73.5q-68 0 -113 43t-45 104q0 38 15 64.5t36.5 42.5t43 31.5t36.5 41t15 62.5q0 82 -74.5 135t-204.5 53q-189 0 -334 -139q-143 -137 -143 -360q0 -250 174 -402q175 -153 424 -153q267 0 490.5 136t433.5 437l817 1176h203zM2386 1118
l-404 -581h404v581z" />
    <glyph glyph-name="A.s17" horiz-adv-x="2904" 
d="M2671 1434v-1205q0 -102 32 -127q33 -23 150 -32v-70h-645v70q114 9 147 32q35 27 35 127v193h-485l-160 -229q-226 -325 -478 -475t-556 -150q-327 0 -521 164q-190 163 -190 413q0 203 145 330q148 127 324 127q128 0 210.5 -58t82.5 -151q0 -64 -42.5 -107.5
t-109.5 -43.5q-35 0 -62.5 13.5t-43 33.5t-32.5 44t-31.5 44t-39 33.5t-55.5 13.5q-80 0 -151 -80q-68 -77 -68 -199q0 -205 166 -331q169 -129 418 -129q541 0 942 573l659 952q30 56 14 82.5t-69 26.5h-633q-214 0 -340.5 -100t-126.5 -265q0 -118 66 -196q64 -76 153 -76
q99 0 99 72q0 14 -20.5 65t-20.5 74q0 65 40 104t101 39q73 0 115.5 -51t42.5 -127q0 -132 -95 -215q-94 -82 -239 -82q-163 0 -266 107.5t-103 285.5q0 214 164 346q166 134 430 134h1047zM2390 1118l-405 -581h405v581z" />
    <glyph glyph-name="A.s18" horiz-adv-x="2899" 
d="M2669 1434v-1205q0 -100 30 -127q33 -23 150 -32v-70h-643v70q114 9 147 32q33 26 33 127v193h-483l-160 -229q-240 -338 -479 -480q-245 -145 -539 -145q-326 0 -526 188q-199 187 -199 484q0 264 180 438q182 176 424 176q221 0 363 -121q143 -119 143 -301
q0 -122 -58 -193t-157 -71q-69 0 -113.5 40.5t-44.5 100.5q0 37 15 63.5t36.5 43t43 32t36.5 41.5t15 62q0 82 -74.5 135t-204.5 53q-189 0 -334 -139q-143 -137 -143 -360q0 -250 174 -402q175 -153 424 -153q267 0 490.5 136t433.5 437l661 952q30 56 14.5 82.5
t-71.5 26.5h-549q-218 0 -342 -100q-127 -103 -127 -265q0 -119 65 -196q67 -76 156 -76q96 0 96 72q0 12 -19.5 64t-19.5 75q0 65 40.5 104t101.5 39q71 0 113 -51t42 -127q0 -133 -94 -215q-91 -82 -237 -82q-163 0 -266 107.5t-103 285.5q0 215 162 346q166 134 432 134
h965zM2386 1118l-404 -581h404v581z" />
    <glyph glyph-name="A.s19" horiz-adv-x="2904" 
d="M2671 1434v-1205q0 -102 32 -127q33 -23 150 -32v-70h-645v70q110 9 145 30q34 21 37 105q-23 107 -113 235q-86 126 -209 215l-323 -462q-226 -325 -478 -475t-556 -150q-327 0 -521 164q-190 163 -190 413q0 203 145 330q148 127 324 127q128 0 210.5 -58t82.5 -151
q0 -64 -42.5 -107.5t-109.5 -43.5q-42 0 -72 18.5t-48.5 45.5t-35.5 54t-44 45.5t-64 18.5q-80 0 -151 -80q-68 -77 -68 -199q0 -205 166 -331q169 -129 418 -129q541 0 942 573l319 461q-152 82 -307 82q-106 0 -167.5 -34t-61.5 -83q0 -18 23.5 -69t23.5 -78
q0 -54 -37 -89.5t-94 -35.5q-66 0 -109 52.5t-43 127.5q0 142 129 233q134 93 336 93q197 0 377 -101l428 617h201zM2390 1118l-254 -364q152 -119 254 -295v659z" />
    <glyph glyph-name="A.s20" horiz-adv-x="2899" 
d="M2669 1434v-1205q0 -100 30 -127q33 -23 150 -32v-70h-643v70q109 9 143 30t37 107q-26 143 -100 276.5t-187 223.5l-356 -514q-240 -338 -479 -480q-245 -145 -539 -145q-326 0 -526 188q-199 187 -199 484q0 264 180 438q182 176 424 176q221 0 363 -121
q143 -119 143 -301q0 -122 -58 -193t-157 -71q-69 0 -113.5 40.5t-44.5 100.5q0 39 15 66.5t36.5 43.5t43 31t36.5 40.5t15 60.5q0 82 -74.5 135t-204.5 53q-189 0 -334 -139q-143 -137 -143 -360q0 -250 174 -402q175 -153 424 -153q267 0 490.5 136t433.5 437l356 514
q-145 80 -322 80q-105 0 -166 -34t-61 -83q0 -18 23.5 -69t23.5 -78q0 -54 -38 -89.5t-95 -35.5q-65 0 -107 52.5t-42 127.5q0 143 129 234q130 92 333 92q219 0 390 -101l393 566h203zM2386 1118l-219 -315q143 -116 219 -287v602z" />
    <glyph glyph-name="A.s21" horiz-adv-x="1990" 
d="M1780 1434v-1205q0 -102 32 -127q33 -23 148 -32v-70h-643v70q114 9 147 32q33 26 33 125v277h-553l-104 -230q-147 -335 -471 -335q-172 0 -270.5 64t-98.5 159q0 60 39 99.5t100 39.5q53 0 92 -32.5t58 -80.5q21 -48 59.5 -80t91.5 -32q182 0 293 246l117 260l68 145
q42 91 63 133q33 64 68 125q106 171 141 211q2 3 28 30t36 36.5t31 30t38 33.5t33 22q155 92 330 92q44 0 94 -6zM995 618h502v660q-152 -47 -260 -203q-110 -160 -242 -457z" />
    <glyph glyph-name="A.s22" horiz-adv-x="1990" 
d="M1780 1434v-1205q0 -102 32 -127q33 -23 148 -32v-70h-643v70q110 9 141 28q36 22 39 101q-38 185 -147 338q-113 159 -285 237l-109 -242l-116 -258q-147 -335 -471 -335q-172 0 -270.5 64t-98.5 159q0 60 39 99.5t100 39.5q53 0 92 -32.5t58 -80.5q21 -48 59.5 -80
t91.5 -32q182 0 293 246l117 260q87 188 108 229q-92 25 -190 25q-106 0 -167.5 -34t-61.5 -83q0 -18 23.5 -69.5t23.5 -78.5q0 -54 -37 -89.5t-94 -35.5q-66 0 -109 53t-43 128q0 141 129 233q133 92 336 92q132 0 244 -34q136 257 291 391q152 131 383 131q44 0 94 -6z
M1116 877q245 -114 381 -388v789q-109 -31 -200 -130t-181 -271z" />
    <glyph glyph-name="A.s23" horiz-adv-x="2756" 
d="M2546 1434v-1205q0 -102 32 -127q33 -23 148 -32v-70h-643v70q114 9 147 32q33 26 33 125v277h-549l-90 -203q-326 -729 -936 -729q-320 0 -500 162q-180 158 -180 411q0 204 146 332q144 129 323 129q128 0 210.5 -58t82.5 -151q0 -64 -42.5 -107.5t-109.5 -43.5
q-36 0 -63.5 13.5t-43.5 33.5t-32.5 44t-30.5 44t-38.5 33.5t-55.5 13.5q-80 0 -151 -80q-68 -80 -68 -203q0 -203 152 -331q149 -125 403 -125q532 0 821 663l107 234q50 109 115 241q53 107 110 203q69 119 121 176q215 247 487 234q45 0 95 -6zM1765 618h498v660
q-140 -41 -250 -199q-108 -151 -248 -461z" />
    <glyph glyph-name="A.s24" horiz-adv-x="2756" 
d="M2546 1434v-1205q0 -102 32 -127q33 -23 148 -32v-70h-643v70q108 9 143 30q34 21 37 105q-35 146 -154 289q-124 151 -288 243l-88 -192l-109 -244q-326 -729 -936 -729q-320 0 -500 162q-180 158 -180 411q0 204 146 332q144 129 323 129q128 0 210.5 -58t82.5 -151
q0 -64 -42.5 -107.5t-109.5 -43.5q-36 0 -63.5 13.5t-43.5 33.5t-32.5 44t-30.5 44t-38.5 33.5t-55.5 13.5q-80 0 -151 -80q-68 -80 -68 -203q0 -203 152 -331q149 -125 403 -125q532 0 821 663l107 234l94 200q-155 64 -323 64q-105 0 -166.5 -34t-61.5 -83q0 -18 23.5 -69
t23.5 -78q0 -54 -38 -89.5t-95 -35.5q-65 0 -107 52.5t-42 127.5q0 141 129 233q131 93 334 93q191 0 376 -72q147 278 299 410q156 135 387 135q45 0 95 -6zM1872 844q257 -142 391 -389v823q-107 -31 -198.5 -136t-192.5 -298z" />
    <glyph glyph-name="A.s25" horiz-adv-x="2803" 
d="M2593 1434v-1205q0 -101 33 -127q33 -23 147 -32v-70h-643v70q114 9 147 32q33 26 33 125v277h-547l-98 -211q-169 -374 -401.5 -549.5t-538.5 -175.5q-326 0 -526 188q-199 187 -199 484q0 264 180 438q182 176 424 176q221 0 363 -121q143 -119 143 -301
q0 -122 -58 -193t-157 -71q-69 0 -113.5 40.5t-44.5 100.5q0 39 15 66.5t36.5 43.5t43 31t36.5 40.5t15 60.5q0 82 -74.5 135t-204.5 53q-189 0 -334 -139q-143 -137 -143 -360q0 -250 174 -402q175 -153 424 -153q273 0 475 160.5t356 504.5l113 244q62 137 115 242
q54 106 110 200q66 113 121 174q217 243 484 230q45 0 94 -6zM1815 618h495v660q-144 -43 -250 -195q-100 -143 -245 -465z" />
    <glyph glyph-name="A.c1" horiz-adv-x="1435" 
d="M1292 100q48 0 94 21v-96q-103 -56 -241 -56q-218 0 -221 199q-254 -199 -484 -199q-172 0 -282 90q-107 91 -107 244q0 244 271 375q129 62 270 103.5t332 74.5v225q0 147 -50 208t-174 61q-102 0 -175.5 -63t-108.5 -179q-30 -86 -65.5 -121t-94.5 -35q-62 0 -97.5 40
t-35.5 114q0 143 168 250q170 108 409 108q506 0 506 -407v-852q0 -105 86 -105zM352 354q0 -101 61.5 -160t161.5 -59q153 0 349 152v450q-293 -46 -432.5 -135t-139.5 -248z" />
    <glyph glyph-name="A.XA.sx" horiz-adv-x="1411" 
d="M621 1434h184l469 -1223q26 -72 61 -103t101 -38v-70h-592v70q105 8 133 33t2 92l-350 907l-344 -907q-25 -63 6.5 -90t136.5 -35v-70h-448v70q69 8 107.5 38t64.5 97z" />
    <glyph glyph-name="Aacute.s1" horiz-adv-x="1900" 
d="M1075 1757l-272 -241h-103l181 309q18 37 63 37h146q36 0 36 -35q0 -28 -51 -70zM1290 1434l469 -1223q26 -71 62 -102t100 -39v-70h-592v70q105 8 134 33.5t3 91.5l-86 223h-536l-86 -223q-25 -61 11 -89t146 -36v-70h-448v70q68 6 106.5 37t63.5 98l391 1022
q35 92 -61 92h-373q-214 0 -340.5 -100t-126.5 -265q0 -118 66 -196q64 -76 153 -76q98 0 98 72q0 11 -20.5 61.5t-20.5 77.5q0 65 40.5 104t101.5 39q73 0 115 -51t42 -127q0 -133 -94 -215t-239 -82q-163 0 -266 107.5t-103 285.5q0 214 164 346q166 134 430 134h696z
M1110 1116l-223 -581h448z" />
    <glyph glyph-name="Aacute.s2" horiz-adv-x="1902" 
d="M1501 1778l-272 -242h-103l181 309q18 37 63 37h146q36 0 36 -35q0 -27 -51 -69zM1292 1434l469 -1223q26 -72 61 -103t101 -38v-70h-592v70q105 8 133 33t2 92l-86 223h-536l-84 -223q-24 -61 12 -89t143 -36v-70h-448v70q69 6 107.5 36.5t64.5 98.5l385 1009
q16 51 2 75t-63 38q-168 53 -369 53q-214 0 -340.5 -99.5t-126.5 -264.5q0 -119 66 -197q64 -76 153 -76q98 0 98 72q0 11 -20.5 61.5t-20.5 77.5q0 65 40.5 104.5t101.5 39.5q73 0 115 -51t42 -127q0 -133 -94 -215t-239 -82q-163 0 -266 107.5t-103 285.5q0 226 170 352
q171 127 424 127q112 0 309 -31q181 -30 334 -30h55zM1110 1116l-221 -581h446z" />
    <glyph glyph-name="Aacute.s3" 
d="M1014 1778l-273 -242h-102l180 309q18 37 64 37h145q37 0 37 -35q0 -27 -51 -69zM805 1434l469 -1223q26 -72 61 -103t101 -38v-70h-592v70q105 8 133 33t2 92l-102 264q-94 -97 -236 -97q-90 0 -252 72l-22 10l-95 -249q-24 -61 12.5 -89t143.5 -36v-70h-448v70
q69 8 107.5 38t64.5 97l106 280q-41 13 -74 13q-83 0 -170 -78l-59 57q113 174 313 174q5 0 51 -4l302 787h184zM717 530q69 0 121 27l-215 557l-191 -498q33 -11 68 -26q135 -60 217 -60z" />
    <glyph glyph-name="Aacute.s4" horiz-adv-x="1708" 
d="M1307 1778l-273 -242h-102l180 309q18 37 64 37h145q37 0 37 -35q0 -27 -51 -69zM1098 1434l469 -1223q26 -71 62 -102t100 -39v-70h-592v70q105 8 134 33.5t3 91.5q-48 126 -203 247q-147 117 -344 174l-160 -421q-25 -61 11 -89t145 -36v-70h-449v70q68 8 106.5 38
t63.5 97l168 436q-78 10 -131 10q-117 0 -181 -33t-64 -83q0 -18 23.5 -69.5t23.5 -78.5q0 -54 -37 -89.5t-94 -35.5q-66 0 -109 52.5t-43 127.5q0 143 131 234q133 92 350 92q79 0 174 -14l260 680h183zM918 1114l-148 -387q211 -64 379 -207z" />
    <glyph glyph-name="Aacute.s5" horiz-adv-x="1853" 
d="M1456 1778l-272 -242h-103l181 309q18 37 63 37h145q37 0 37 -35q0 -27 -51 -69zM1243 1434l469 -1223q26 -72 61 -103t101 -38v-70h-592v70q105 8 133 33t2 92l-108 278q-146 -88 -287 -88q-124 0 -225 39l-86 -229q-24 -61 12 -89t143 -36v-70h-448v70q69 8 107.5 38
t64.5 97l102 266q-62 33 -139 86q-163 105 -252 105q-58 0 -93.5 -32t-35.5 -77q0 -28 16 -50.5t39 -38.5t46 -32.5t39 -43.5t16 -62q0 -50 -38.5 -85.5t-90.5 -35.5q-85 0 -142 72t-57 184q0 157 109 246q109 92 264 92q69 0 153 -23q64 -18 121 -45q54 -26 119 -63
l293 766h184zM1122 551q90 0 148 24l-209 539l-191 -500q129 -63 252 -63z" />
    <glyph glyph-name="Aacute.s6" 
d="M1014 1778l-273 -242h-102l180 309q18 37 64 37h145q37 0 37 -35q0 -27 -51 -69zM805 1434l469 -1223q26 -72 61 -103t101 -38v-70h-592v70q105 8 133 33t2 92l-86 223h-537q-194 -491 -403 -697q-211 -208 -508 -208q-183 0 -290 67.5t-107 167.5q-3 43 22.5 78t63 50
t80.5 9.5t73 -35.5q40 -37 60 -79q21 -50 61.5 -84.5t95.5 -34.5q215 0 404 201q188 200 375 694l340 887h182zM623 1114l-222 -579h447z" />
    <glyph glyph-name="Aacute.s7" horiz-adv-x="1708" 
d="M1307 1778l-273 -242h-102l180 309q18 37 64 37h145q37 0 37 -35q0 -27 -51 -69zM1098 1434l469 -1223q26 -71 62 -102t100 -39v-70h-592v70q105 8 134 33.5t3 91.5q-48 126 -203 247q-147 117 -344 174l-49 -129q-202 -528 -418 -751q-213 -223 -520 -223
q-183 0 -290 67.5t-107 167.5q-3 43 22.5 78t63 50t80.5 9.5t73 -35.5q41 -38 58 -79q21 -50 62 -84.5t97 -34.5q215 0 404 201q183 194 372 694l37 94q-78 10 -131 10q-117 0 -181 -33t-64 -83q0 -18 23.5 -69.5t23.5 -78.5q0 -54 -37 -89.5t-94 -35.5q-66 0 -109 52.5
t-43 127.5q0 143 131 234q133 92 350 92q79 0 174 -14l260 680h183zM918 1114l-148 -387q211 -64 379 -207z" />
    <glyph glyph-name="Aacute.s8" horiz-adv-x="1900" 
d="M1497 1778l-272 -242h-103l181 309q18 37 63 37h145q37 0 37 -35q0 -27 -51 -69zM1290 1434l469 -1223q26 -71 62 -102t100 -39v-70h-592v70q105 8 134 33.5t3 91.5l-86 223h-536q-194 -491 -406 -697q-208 -208 -506 -208q-183 0 -290 67.5t-107 167.5q-3 43 22.5 78
t63.5 50t81 9.5t73 -35.5q39 -36 57 -79q21 -50 62.5 -84.5t97.5 -34.5q214 0 403 201q184 196 373 694l256 665q40 107 -57 107h-373q-214 0 -340.5 -100t-126.5 -265q0 -118 66 -196q64 -76 153 -76q98 0 98 72q0 11 -20.5 62t-20.5 77q0 65 40.5 104t101.5 39
q73 0 115 -51t42 -127q0 -133 -94 -215t-239 -82q-163 0 -266 107.5t-103 285.5q0 214 164 346q166 134 430 134h696zM1110 1114l-221 -579h446z" />
    <glyph glyph-name="Aacute.s9" horiz-adv-x="2273" 
d="M1872 1778l-273 -242h-102l180 309q18 37 64 37h145q37 0 37 -35q0 -27 -51 -69zM1663 1434l469 -1223q26 -72 61 -103t101 -38v-70h-592v70q105 8 133 33t2 92l-86 223h-537q-114 -267 -274 -412q-159 -141 -422 -141q-235 0 -391 135t-156 354q0 191 111 305
q114 117 276 117q152 0 246 -88q94 -85 94 -215q0 -78 -45.5 -130t-111.5 -52q-61 0 -103.5 38.5t-42.5 94.5q0 28 21.5 79.5t21.5 65.5q0 32 -31.5 53t-82.5 21q-90 0 -158 -80t-68 -209q0 -169 125 -270q124 -100 295 -100q222 0 367 139q143 137 264 450l330 861h184z
M1481 1114l-219 -579h444z" />
    <glyph glyph-name="Aacute.s10" horiz-adv-x="2668" 
d="M2267 1778l-272 -242h-103l181 309q18 37 63 37h145q37 0 37 -35q0 -27 -51 -69zM2058 1434l471 -1227q26 -69 61.5 -99t98.5 -38v-70h-592v70q105 8 134 33.5t3 91.5l-86 223h-534q-194 -484 -412 -684q-218 -203 -528 -203q-296 0 -484 182t-188 469q0 266 182 451
q184 184 424 184q228 0 369 -129q143 -125 143 -297q0 -126 -61.5 -201t-155.5 -75q-69 0 -115.5 42t-46.5 107q0 34 15 60t37 43.5t44 34t37 41t15 55.5q0 88 -80 146t-201 58q-188 0 -334 -149q-147 -150 -147 -373q0 -250 158 -393q156 -141 389 -141q271 0 471 200
q201 201 391 701l340 887h182zM1878 1114l-221 -579h446z" />
    </font>
</defs>
</svg>
