<?xml version="1.0" standalone="no"?>
<!DOCTYPE svg PUBLIC "-//W3C//DTD SVG 1.1//EN" "http://www.w3.org/Graphics/SVG/1.1/DTD/svg11.dtd" >
<svg xmlns="http://www.w3.org/2000/svg" xmlns:xlink="http://www.w3.org/1999/xlink" version="1.1">
<metadata>
Created by FontForge 20170731 at Sun May 16 20:06:53 2021
 By Aleksey,,,
Copyright (c) 2011 by Mark Simonson. All rights reserved. |DCNT
</metadata>
<defs>
<font id="Bookmania-Regular" horiz-adv-x="2224" >
  <font-face 
    font-family="Bookmania"
    font-weight="400"
    font-stretch="normal"
    units-per-em="2048"
    panose-1="0 0 5 0 0 0 0 0 0 0"
    ascent="1602"
    descent="-446"
    x-height="924"
    cap-height="1434"
    bbox="-920 -1233 3656 2111"
    underline-thickness="102"
    underline-position="-307"
    unicode-range="U+000D-FB06"
  />
<missing-glyph horiz-adv-x="1615" 
d="M256 0v1434h1104v-1434h-1104zM750 717l-381 626v-1253zM809 815l319 528h-641zM868 717l379 -627v1253zM809 618l-322 -528h641z" />
    <glyph glyph-name="longs_h" unicode="&#x17f;h" horiz-adv-x="1738" 
d="M1077 0h-456v51q83 7 110 29t27 78v1071h-13q-44 0 -100 71q-56 74 -110 74q-74 0 -118 -56.5t-44 -158.5v-1001q0 -55 31 -77t116 -30v-51h-467v51q84 7 112 29t28 78v682h-140v84h140v100q0 203 116 322q115 118 295 118q116 0 191 -57l82 57h63v-612q164 102 317 102
q40 0 77 -6.5t77.5 -25t69.5 -48t48 -80t19 -116.5v-520q0 -56 27 -78t111 -29v-51h-457v51q81 7 109 29t28 78v520q0 172 -160 172q-141 0 -266 -88v-604q0 -56 28 -78t109 -29v-51z" />
    <glyph glyph-name="longs_i" unicode="&#x17f;i" horiz-adv-x="1130" 
d="M53 840v84h140v100q0 211 122 324q125 116 308 116q116 0 193 -50.5t77 -119.5q0 -41 -25.5 -67.5t-64.5 -26.5q-35 0 -61.5 22t-59.5 72q-59 86 -131 86q-82 0 -130 -61.5t-48 -179.5v-981q0 -55 31 -77t116 -30v-51h-467v51q84 7 112 29t28 78v682h-140zM1077 0h-456
v51q83 7 110 29t27 78v528q0 68 -64 68h-73v41l256 159h63v-796q0 -56 28 -78t109 -29v-51z" />
    <glyph glyph-name="longs_l" unicode="&#x17f;l" horiz-adv-x="1130" 
d="M1077 0h-456v51q83 7 110 29t27 78v1071h-13q-44 0 -100 71q-56 74 -110 74q-74 0 -118 -56.5t-44 -158.5v-1001q0 -55 31 -77t116 -30v-51h-467v51q84 7 112 29t28 78v682h-140v84h140v100q0 203 116 322q115 118 295 118q116 0 191 -57l82 57h63v-1306q0 -56 28 -78
t109 -29v-51z" />
    <glyph glyph-name="ff" unicode="ff" horiz-adv-x="1181" 
d="M1087 0h-466v51q83 7 110 29t27 78v682h-385v-682q0 -55 31 -77t116 -30v-51h-467v51q84 7 112 29t28 78v682h-140v84h140v120q0 193 104 306q105 114 270 114q72 0 117 -30.5t45 -77.5q0 -43 -27.5 -71t-68.5 -28q-47 0 -88 50q-37 49 -74 49q-45 0 -71.5 -40.5
t-26.5 -113.5v-278h385v120q0 193 104 306q108 114 273 114q72 0 116.5 -30.5t44.5 -77.5q0 -43 -27.5 -71t-70.5 -28q-45 0 -86 50q-37 49 -76 49q-45 0 -70.5 -40.5t-25.5 -113.5v-278h199v-84h-199v-682q0 -55 31 -77t116 -30v-51z" />
    <glyph glyph-name="fi" unicode="fi" horiz-adv-x="1130" 
d="M1077 0h-456v51q83 7 110 29t27 78v616q0 66 -56 66h-329v-682q0 -55 31 -77t116 -30v-51h-467v51q84 7 112 29t28 78v682h-140v84h140v100q0 211 122 324q125 116 308 116q116 0 193 -50.5t77 -119.5q0 -41 -25.5 -67.5t-64.5 -26.5q-60 0 -121 94q-59 86 -131 86
q-82 0 -130 -61.5t-48 -179.5v-215h567v-766q0 -56 28 -78t109 -29v-51z" />
    <glyph glyph-name="fl" unicode="fl" horiz-adv-x="1130" 
d="M1077 0h-456v51q83 7 110 29t27 78v682h-385v-682q0 -55 31 -77t116 -30v-51h-467v51q84 7 112 29t28 78v682h-140v84h140v100q0 203 116 322q115 118 295 118q116 0 191 -57l82 57h63v-1306q0 -56 28 -78t109 -29v-51zM373 1159v-235h385v303q-31 0 -54.5 15t-39.5 36.5
t-32 43.5t-40.5 37t-56.5 15q-74 0 -118 -56.5t-44 -158.5z" />
    <glyph glyph-name="ffi" unicode="ffi" horiz-adv-x="1697" 
d="M1645 0h-457v51q81 7 109 29t28 78v616q0 66 -55 66h-330v-682q0 -55 31 -77t116 -30v-51h-466v51q83 7 110 29t27 78v682h-385v-682q0 -55 31 -77t116 -30v-51h-467v51q84 7 112 29t28 78v682h-140v84h140v120q0 193 104 306q105 114 270 114q72 0 117 -30.5t45 -77.5
q0 -43 -27.5 -71t-68.5 -28q-47 0 -88 50q-37 49 -74 49q-45 0 -71.5 -40.5t-26.5 -113.5v-278h385v100q0 211 125 324q125 116 305 116q116 0 194 -50.5t78 -119.5q0 -41 -25.5 -67.5t-64.5 -26.5q-59 0 -123 94q-56 86 -131 86q-81 0 -128.5 -61.5t-47.5 -179.5v-215h567
v-766q0 -56 27 -78t111 -29v-51z" />
    <glyph glyph-name="ffl" unicode="ffl" horiz-adv-x="1697" 
d="M1645 0h-457v51q81 7 109 29t28 78v682h-385v-682q0 -55 31 -77t116 -30v-51h-466v51q83 7 110 29t27 78v682h-385v-682q0 -55 31 -77t116 -30v-51h-467v51q84 7 112 29t28 78v682h-140v84h140v120q0 193 104 306q105 114 270 114q72 0 117 -30.5t45 -77.5
q0 -43 -27.5 -71t-68.5 -28q-47 0 -88 50q-37 49 -74 49q-45 0 -71.5 -40.5t-26.5 -113.5v-278h385v100q0 203 116 322q115 118 295 118q118 0 193 -57l82 57h63v-1306q0 -56 27 -78t111 -29v-51zM940 1159v-235h385v303q-56 0 -111 73q-56 74 -112 74q-74 0 -118 -56.5
t-44 -158.5z" />
    <glyph glyph-name="uniFB05" unicode="&#x17f;t" horiz-adv-x="1230" 
d="M1178 96v-80q-79 -39 -187 -39q-131 0 -185 66.5t-54 235.5v561h-138v43q108 34 161.5 108.5t53.5 171.5q0 101 -64.5 160t-164.5 59q-117 0 -172 -79t-55 -244v-901q0 -55 31 -77t116 -30v-51h-467v51q84 7 112 29t28 78v682h-140v84h140v120q0 194 112 306
q114 114 293 114q130 0 233 -80q101 -76 101 -231v-229h246v-84h-246v-625q0 -76 26 -109q28 -34 93 -35t127 25z" />
    <glyph glyph-name="f_b" unicode="fb" horiz-adv-x="1710" 
d="M758 -31v871h-385v-682q0 -55 31 -77t116 -30v-51h-467v51q84 7 112 29t28 78v682h-140v84h140v100q0 203 116 322q115 118 295 118q116 0 191 -57l82 57h63v-614q101 104 272 104q197 0 312 -139q114 -138 114 -352q0 -220 -116 -357t-324 -137q-182 0 -276 107
l-91 -107h-73zM373 1159v-235h385v305q-29 -2 -58 21t-49 51.5t-51.5 51.5t-64.5 21q-74 0 -118 -56.5t-44 -158.5zM940 754v-584q82 -113 227 -113q275 0 275 406q0 403 -275 403q-146 0 -227 -112z" />
    <glyph glyph-name="f_h" unicode="fh" horiz-adv-x="1738" 
d="M1077 0h-456v51q83 7 110 29t27 78v682h-385v-682q0 -55 31 -77t116 -30v-51h-467v51q84 7 112 29t28 78v682h-140v84h140v100q0 203 116 322q115 118 295 118q116 0 191 -57l82 57h63v-612q164 102 317 102q137 0 213 -73q78 -72 78 -271v-452q0 -56 27 -78t111 -29v-51
h-457v51q81 7 109 29t28 78v520q0 172 -160 172q-141 0 -266 -88v-604q0 -56 28 -78t109 -29v-51zM373 1159v-235h385v305q-29 -2 -58 21t-49 51.5t-51.5 51.5t-64.5 21q-74 0 -118 -56.5t-44 -158.5z" />
    <glyph glyph-name="f_j" unicode="fj" horiz-adv-x="1112" 
d="M406 -293q0 37 27 64.5t65 27.5q47 0 84 -49q40 -49 71 -49q105 0 105 154v919q0 37 -14.5 51.5t-49.5 14.5h-321v-682q0 -55 31 -77t116 -30v-51h-467v51q84 7 112 29t28 78v682h-140v84h140v100q0 211 122 324q125 116 308 116q116 0 193 -50.5t77 -119.5
q0 -41 -25.5 -67.5t-64.5 -26.5q-57 0 -121 94q-59 86 -131 86q-82 0 -130 -61.5t-48 -179.5v-215h567v-887q0 -214 -102.5 -329.5t-274.5 -115.5q-71 0 -114 30.5t-43 84.5z" />
    <glyph glyph-name="f_k" unicode="fk" horiz-adv-x="1667" 
d="M1077 0h-456v51q83 7 110 29t27 78v682h-385v-682q0 -55 31 -77t116 -30v-51h-467v51q84 7 112 29t28 78v682h-140v84h140v100q0 203 116 322q115 118 295 118q116 0 191 -57l82 57h63v-989l277 279q16 16 24.5 30.5t9 30t-11.5 27t-41.5 20t-75.5 10.5v52h482v-52
q-87 -9 -146 -36q-58 -28 -127 -97l-143 -143l340 -424q54 -66 89 -89.5t89 -31.5v-51h-508v51q68 4 98.5 24t27.5 45.5t-26 55.5l-239 293l-119 -119v-192q0 -56 28 -78t109 -29v-51zM373 1159v-235h385v303q-31 0 -54.5 15t-39.5 36.5t-32 43.5t-40.5 37t-56.5 15
q-74 0 -118 -56.5t-44 -158.5z" />
    <glyph glyph-name="f_f_b" unicode="ffb" horiz-adv-x="2281" 
d="M1487 76l-90 -107h-72v871h-385v-682q0 -55 31 -77t116 -30v-51h-466v51q83 7 110 29t27 78v682h-385v-682q0 -55 31 -77t116 -30v-51h-467v51q84 7 112 29t28 78v682h-140v84h140v120q0 193 104 306q105 114 270 114q72 0 117 -30.5t45 -77.5q0 -43 -27.5 -71t-68.5 -28
q-47 0 -88 50q-37 49 -74 49q-45 0 -71.5 -40.5t-26.5 -113.5v-278h385v100q0 203 116 322q115 118 295 118q118 0 193 -57l82 57h63v-614q101 104 273 104q194 0 309 -139t115 -352q0 -219 -117 -357q-113 -137 -322 -137q-177 0 -278 107zM940 1159v-235h385v305
q-49 0 -108 71q-59 74 -115 74q-74 0 -118 -56.5t-44 -158.5zM1507 754v-584q79 -113 228 -113q272 0 272 406q0 403 -272 403q-150 0 -228 -112z" />
    <glyph glyph-name="f_f_j" unicode="ffj" horiz-adv-x="1683" 
d="M971 -293q0 37 28 64.5t66 27.5q47 0 84 -49q40 -49 72 -49q104 0 104 154v919q0 37 -14 51.5t-49 14.5h-322v-682q0 -55 31 -77t116 -30v-51h-466v51q83 7 110 29t27 78v682h-385v-682q0 -55 31 -77t116 -30v-51h-467v51q84 7 112 29t28 78v682h-140v84h140v120
q0 193 104 306q105 114 270 114q72 0 117 -30.5t45 -77.5q0 -43 -27.5 -71t-68.5 -28q-47 0 -88 50q-37 49 -74 49q-45 0 -71.5 -40.5t-26.5 -113.5v-278h385v100q0 211 125 324q125 116 305 116q116 0 194 -50.5t78 -119.5q0 -41 -25.5 -67.5t-64.5 -26.5q-23 3 -39 9
t-31.5 21t-23.5 25t-29 39q-56 86 -131 86q-81 0 -128.5 -61.5t-47.5 -179.5v-215h567v-887q0 -212 -103 -328.5t-274 -116.5q-73 0 -116 30t-43 85z" />
    <glyph glyph-name="f_f_k" unicode="ffk" horiz-adv-x="2234" 
d="M2273 0h-510v51q67 4 98 24.5t29.5 46t-24.5 54.5l-240 293l-119 -119v-192q0 -56 27 -78t111 -29v-51h-457v51q81 7 109 29t28 78v682h-385v-682q0 -55 31 -77t116 -30v-51h-466v51q83 7 110 29t27 78v682h-385v-682q0 -55 31 -77t116 -30v-51h-467v51q84 7 112 29
t28 78v682h-140v84h140v120q0 193 104 306q105 114 270 114q72 0 117 -30.5t45 -77.5q0 -43 -27.5 -71t-68.5 -28q-47 0 -88 50q-37 49 -74 49q-45 0 -71.5 -40.5t-26.5 -113.5v-278h385v100q0 203 116 322q115 118 295 118q118 0 193 -57l82 57h63v-989l275 279
q16 16 25 30.5t9 29.5t-11.5 27t-40.5 20.5t-74 10.5v52h481v-52q-87 -9 -146 -36q-58 -28 -127 -97l-143 -143l338 -424q56 -66 91 -90t89 -31v-51zM940 1159v-235h385v303q-56 0 -111 73q-56 74 -112 74q-74 0 -118 -56.5t-44 -158.5z" />
    <glyph glyph-name="longs_b" unicode="&#x17f;b" horiz-adv-x="1710" 
d="M758 -31v1260h-13q-44 0 -100 71q-56 74 -110 74q-74 0 -118 -56.5t-44 -158.5v-1001q0 -55 31 -77t116 -30v-51h-467v51q84 7 112 29t28 78v682h-140v84h140v100q0 203 116 322q115 118 295 118q116 0 191 -57l82 57h63v-614q101 104 272 104q197 0 312 -139
q114 -138 114 -352q0 -220 -116 -357t-324 -137q-182 0 -276 107l-91 -107h-73zM940 754v-584q82 -113 227 -113q275 0 275 406q0 403 -275 403q-146 0 -227 -112z" />
    <glyph glyph-name="longs_k" unicode="&#x17f;k" horiz-adv-x="1667" 
d="M1077 0h-456v51q83 7 110 29t27 78v1071h-13q-44 0 -100 71q-56 74 -110 74q-74 0 -118 -56.5t-44 -158.5v-1001q0 -55 31 -77t116 -30v-51h-467v51q84 7 112 29t28 78v682h-140v84h140v100q0 203 116 322q115 118 295 118q116 0 191 -57l82 57h63v-989l277 279
q16 16 24.5 30.5t9 30t-11.5 27t-41.5 20t-75.5 10.5v52h482v-52q-87 -9 -146 -36q-58 -28 -127 -97l-141 -143l338 -424q54 -66 89 -89.5t89 -31.5v-51h-508v51q68 4 98.5 24t27.5 45.5t-26 55.5l-239 293l-119 -119v-192q0 -56 28 -78t109 -29v-51z" />
    <glyph glyph-name=".notdef" horiz-adv-x="1615" 
d="M256 0v1434h1104v-1434h-1104zM750 717l-381 626v-1253zM809 815l319 528h-641zM868 717l379 -627v1253zM809 618l-322 -528h641z" />
    <glyph glyph-name=".null" horiz-adv-x="0" 
 />
    <glyph glyph-name="nonmarkingreturn" horiz-adv-x="682" 
 />
    <glyph glyph-name="NULL" horiz-adv-x="0" 
 />
    <glyph glyph-name="NULL" horiz-adv-x="0" 
 />
    <glyph glyph-name="CR" unicode="&#xd;" horiz-adv-x="0" 
 />
    <glyph glyph-name="space" unicode=" " horiz-adv-x="514" 
 />
    <glyph glyph-name="exclam" unicode="!" horiz-adv-x="491" 
d="M283 381h-74q-3 221 -25 393q-12 82 -30 184t-27.5 165.5t-9.5 117.5q0 223 129 223t129 -223q0 -79 -23 -197q-67 -299 -69 -663zM246 -20q-57 0 -93 36.5t-36 92.5t36 91.5t93 35.5t93 -35.5t36 -91.5q0 -55 -36.5 -92t-92.5 -37z" />
    <glyph glyph-name="quotedbl" unicode="&#x22;" horiz-adv-x="866" 
d="M274 893h-57q-12 130 -47 272q-35 140 -35 178q0 53 31.5 87t79.5 34t79 -32.5t31 -85.5q0 -45 -34 -181q-37 -148 -48 -272zM649 893h-57q-12 130 -47 272q-35 140 -35 178q0 53 31.5 87t79.5 34t79 -32.5t31 -85.5q0 -41 -35 -181q-35 -142 -47 -272z" />
    <glyph glyph-name="numbersign" unicode="#" horiz-adv-x="1130" 
d="M514 0l117 418h-303l-117 -418h-88l117 418h-220v80h244l123 438h-256v82h279l118 416h88l-118 -416h301l119 416h88l-119 -416h223v-82h-246l-123 -438h256v-80h-278l-117 -418h-88zM475 936l-123 -438h301l123 438h-301z" />
    <glyph glyph-name="dollar" unicode="$" horiz-adv-x="1183" 
d="M1094 373q0 -163 -117 -277q-116 -110 -324 -125v-198h-86v198q-150 6 -272 99l-29 -70h-61l-133 440l47 15q101 -191 218 -293t230 -107v600l-102 39q-146 69 -184 103q-139 128 -129 295q0 134 104 247q110 116 313 125v92h86v-94q133 -15 203 -82l25 54h59l127 -400
l-45 -16q-81 177 -170 262t-199 96v-551q1 -1 6.5 -2t6.5 -2q54 -20 125 -49q42 -16 110 -59q71 -43 103 -80q88 -103 88 -260zM334 1126q0 -97 57 -157t178 -111v516q-113 -12 -174 -76t-61 -172zM653 623v-564q127 19 193.5 93t66.5 172q0 111 -63 177.5t-197 121.5z" />
    <glyph glyph-name="percent" unicode="%" horiz-adv-x="1779" 
d="M389 1452q157 0 242.5 -119.5t85.5 -328.5t-85.5 -329t-242.5 -120q-154 0 -240 120t-86 329t86 328.5t240 119.5zM379 0l934 1434h88l-934 -1434h-88zM389 616q93 0 128.5 91t35.5 297q0 209 -35 298t-129 89q-91 0 -126.5 -90t-35.5 -297q0 -205 35.5 -296.5
t126.5 -91.5zM1389 879q156 0 241.5 -119.5t85.5 -329.5q0 -209 -85 -328.5t-242 -119.5q-154 0 -240 119.5t-86 328.5t86 329t240 120zM1389 43q93 0 128 90t35 297q0 209 -34.5 298t-128.5 89q-91 0 -126.5 -90t-35.5 -297q0 -205 35.5 -296t126.5 -91z" />
    <glyph glyph-name="ampersand" unicode="&#x26;" horiz-adv-x="1531" 
d="M1470 954v-53q-105 -8 -146.5 -45t-53.5 -139q-27 -254 -178 -449q47 -116 91.5 -159t116.5 -43q90 0 170 30v-73q-82 -52 -235 -52q-196 0 -291 148q-194 -150 -438 -150q-203 0 -322 107q-116 107 -116 266q0 186 129 315q65 62 123 103.5t151 93.5q-94 81 -135 153.5
t-41 161.5q0 106 86 201q85 94 250 94q138 0 221.5 -77t83.5 -195q0 -95 -59 -165.5t-191 -154.5q112 -81 199 -200q85 -114 172 -316q114 176 114 375q0 92 -41.5 127t-148.5 43v53h489zM438 1180q0 -72 38 -127.5t130 -122.5q119 67 175.5 127t56.5 135q0 83 -52.5 134.5
t-144.5 51.5t-147.5 -53.5t-55.5 -144.5zM590 86q169 0 315 107l-4 8q-111 262 -182 379q-71 121 -168 206q-131 -87 -194.5 -177t-63.5 -214q0 -133 80 -221t217 -88z" />
    <glyph glyph-name="quotesingle" unicode="'" horiz-adv-x="491" 
d="M274 893h-57q-12 130 -47 272q-35 140 -35 178q0 53 31.5 87t79.5 34t79 -32.5t31 -85.5q0 -45 -34 -181q-37 -148 -48 -272z" />
    <glyph glyph-name="parenleft" unicode="(" horiz-adv-x="632" 
d="M575 1505l46 -53q-167 -124 -279 -385q-109 -257 -109 -535q0 -275 109 -532q112 -260 279 -387l-46 -53q-224 152 -366 407q-146 262 -146 565q0 304 146 566q142 255 366 407z" />
    <glyph glyph-name="parenright" unicode=")" horiz-adv-x="632" 
d="M57 -440l-45 53q169 128 277 387q110 253 110 532q0 282 -110 535q-109 260 -277 385l45 53q225 -153 367 -407q147 -258 147 -566q0 -307 -147 -565q-142 -254 -367 -407z" />
    <glyph glyph-name="asterisk" unicode="*" horiz-adv-x="786" 
d="M416 1130q58 43 110 101q48 53 78 72q32 19 64 11.5t49 -36.5q17 -26 6.5 -58t-41.5 -51q-30 -17 -104 -34q-70 -14 -140 -43q80 -33 142 -48q76 -15 100 -30q32 -20 43 -51.5t-6 -57.5q-17 -29 -47.5 -36t-65.5 12q-31 17 -80 69q-49 55 -108 101q9 -71 30 -144
q23 -81 23 -104q0 -36 -22 -60t-54 -24q-31 0 -53.5 24t-22.5 60q0 21 23 102q24 87 29 148q-62 -49 -109 -101q-55 -58 -78 -71q-35 -19 -65 -12t-47 36q-17 26 -6.5 57.5t42.5 51.5q23 15 99 30q56 13 139 48q-66 29 -137 43q-71 17 -101 34q-32 19 -42.5 51t6.5 58
q17 29 48.5 36.5t63.5 -11.5q30 -19 78 -72q52 -55 111 -101q-8 64 -31 144q-23 84 -23 106q0 36 22.5 60t53.5 24q32 0 54 -24t22 -60q0 -22 -23 -106q-21 -74 -30 -144z" />
    <glyph glyph-name="plus" unicode="+" horiz-adv-x="1130" 
d="M20 668v102h492v492h102v-492h496v-102h-496v-494h-102v494h-492z" />
    <glyph glyph-name="comma" unicode="," horiz-adv-x="491" 
d="M375 86q0 -91 -60 -211q-59 -118 -135 -188l-41 30q104 135 125 263q-50 -4 -86.5 20t-50.5 59.5t-8 74.5t33 65q28 29 68.5 35t76 -8.5t59 -52t19.5 -87.5z" />
    <glyph glyph-name="hyphen" unicode="-" horiz-adv-x="497" 
d="M20 401v121h457v-121h-457z" />
    <glyph glyph-name="period" unicode="." horiz-adv-x="491" 
d="M246 -20q-57 0 -93 36.5t-36 92.5t36 91.5t93 35.5t93 -35.5t36 -91.5q0 -55 -36.5 -92t-92.5 -37z" />
    <glyph glyph-name="slash" unicode="/" horiz-adv-x="632" 
d="M0 -438l545 1933h88l-545 -1933h-88z" />
    <glyph glyph-name="zero" unicode="0" horiz-adv-x="1183" 
d="M219 1257q133 207 373 207q241 0 371 -207q131 -204 131 -540q0 -337 -131 -541q-130 -207 -371 -207q-240 0 -373 207q-129 206 -129 541t129 540zM879 717q0 309 -54 471q-62 188 -233 188q-172 0 -234 -188q-30 -89 -41.5 -198t-11.5 -273q0 -309 53 -471
q62 -187 234 -187q171 0 233 187q54 165 54 471z" />
    <glyph glyph-name="one" unicode="1" horiz-adv-x="1183" 
d="M950 0h-717v51q165 9 213 37t48 141v928q0 37 -14.5 51.5t-49.5 14.5h-194v43l378 198h76v-1235q0 -114 47 -141q52 -28 213 -37v-51z" />
    <glyph glyph-name="two" unicode="2" horiz-adv-x="1183" 
d="M236 1018h-101q0 205 123 325q127 121 309 121q197 0 322 -116q127 -118 127 -299q0 -237 -199 -457q-105 -118 -201 -201q-128 -111 -249 -203h507q55 0 78 29q24 31 45 150h56l-49 -412h-56q0 45 -35 45h-761v90q156 151 288 283q96 96 195 225q91 120 128.5 224.5
t37.5 226.5q0 323 -264 323q-137 0 -219 -92.5t-82 -261.5z" />
    <glyph glyph-name="three" unicode="3" horiz-adv-x="1183" 
d="M754 823q138 -24 225 -131q92 -109 92 -241q0 -211 -145 -347q-144 -135 -398 -135q-161 0 -282 56t-121 155q0 44 29.5 75.5t70.5 31.5q52 0 91.5 -32.5t60.5 -80.5t62.5 -80.5t97.5 -32.5q319 0 319 340q0 142 -92 242q-90 100 -258 100h-37v91h49q126 0 198 79t72 201
q0 113 -62 185.5t-175 72.5q-119 0 -196.5 -76.5t-84.5 -212.5h-100q17 179 126 280t292 101q192 0 305 -96q111 -94 111 -223q0 -116 -66 -200.5t-184 -121.5z" />
    <glyph glyph-name="four" unicode="4" horiz-adv-x="1183" 
d="M862 0h-196v369h-578v69l619 996h155v-973h234v-92h-234v-369zM666 1192l-457 -731h457v731z" />
    <glyph glyph-name="five" unicode="5" horiz-adv-x="1183" 
d="M541 -31q-164 0 -291 56t-127 155q0 44 28.5 75.5t67.5 31.5q51 0 92.5 -32.5t67.5 -80.5t71.5 -80.5t104.5 -32.5q159 0 247.5 92t88.5 248q0 152 -109 252q-108 99 -278 99q-156 0 -275 -64l-51 21l107 725h581q52 0 58 45h55l-27 -232h-604l-47 -336q91 39 227 39
q243 0 387 -141q146 -143 146 -348q0 -206 -141 -350q-139 -142 -379 -142z" />
    <glyph glyph-name="six" unicode="6" horiz-adv-x="1183" 
d="M616 924q225 0 351 -144q127 -142 127 -336q0 -192 -144 -333q-142 -142 -358 -142q-235 0 -369 174q-133 177 -133 457q0 370 250 602q248 227 637 262v-86q-537 -62 -645 -544q140 90 284 90zM592 59q138 0 212.5 104.5t74.5 280.5q0 174 -78.5 280.5t-218.5 106.5
q-70 0 -144.5 -29.5t-124.5 -78.5q-8 -57 -8 -148q0 -258 66.5 -387t220.5 -129z" />
    <glyph glyph-name="seven" unicode="7" horiz-adv-x="1183" 
d="M571 0h-215q34 316 174 643q138 320 351 604h-576q-57 0 -78 -30q-25 -32 -45 -148h-55l47 410h55q0 -45 35 -45h778v-88q-400 -560 -471 -1346z" />
    <glyph glyph-name="eight" unicode="8" horiz-adv-x="1183" 
d="M764 786q171 -76 250.5 -169t79.5 -244q0 -176 -136 -291q-131 -113 -374 -113q-232 0 -363 113t-131 260q0 138 75.5 227t227.5 160q-120 62 -180.5 152t-60.5 225q0 131 116 244q117 114 346 114q190 0 306 -96q114 -94 114 -229q0 -127 -67 -208t-203 -145zM627 1376
q-134 0 -208.5 -60t-74.5 -169q0 -123 92 -195q48 -35 90.5 -57.5t120.5 -54.5q134 61 197 126t63 164q0 111 -74 178.5t-206 67.5zM578 57q159 0 242 75.5t83 189.5q0 124 -90 196q-92 76 -307 158q-143 -64 -210 -137t-67 -189q0 -128 91.5 -210.5t257.5 -82.5z" />
    <glyph glyph-name="nine" unicode="9" horiz-adv-x="1183" 
d="M592 1464q235 0 366 -174q136 -177 136 -456q0 -372 -252 -603q-245 -227 -635 -262v88q537 59 645 543q-137 -90 -285 -90q-221 0 -350 141q-127 145 -127 338t141 334q144 141 361 141zM602 602q69 0 143 30t125 79q9 65 9 147q0 261 -66 389.5t-221 128.5
q-138 0 -212.5 -105.5t-74.5 -281.5q0 -174 78.5 -280.5t218.5 -106.5z" />
    <glyph glyph-name="colon" unicode=":" horiz-adv-x="491" 
d="M246 688q-57 0 -93 36.5t-36 92.5t36 91.5t93 35.5t93 -35.5t36 -91.5q0 -55 -36.5 -92t-92.5 -37zM246 -20q-57 0 -93 36.5t-36 92.5t36 91.5t93 35.5t93 -35.5t36 -91.5q0 -55 -36.5 -92t-92.5 -37z" />
    <glyph glyph-name="semicolon" unicode=";" horiz-adv-x="491" 
d="M246 688q-57 0 -93 36.5t-36 92.5t36 91.5t93 35.5t93 -35.5t36 -91.5q0 -55 -36.5 -92t-92.5 -37zM375 86q0 -91 -60 -211q-59 -118 -135 -188l-41 30q104 135 125 263q-50 -4 -86.5 20t-50.5 59.5t-8 74.5t33 65q28 29 68.5 35t76 -8.5t59 -52t19.5 -87.5z" />
    <glyph glyph-name="less" unicode="&#x3c;" horiz-adv-x="1130" 
d="M1067 348v-112l-1004 415v113l1004 414v-111l-868 -360z" />
    <glyph glyph-name="equal" unicode="=" horiz-adv-x="1130" 
d="M20 870v103h1090v-103h-1090zM20 465v102h1090v-102h-1090z" />
    <glyph glyph-name="greater" unicode="&#x3e;" horiz-adv-x="1130" 
d="M61 236v112l871 359l-871 360v111l1006 -414v-113z" />
    <glyph glyph-name="question" unicode="?" horiz-adv-x="960" 
d="M446 584l-10 -203h-86v387q192 0 289.5 69t97.5 228q0 119 -84 209t-217 90q-52 0 -89 -27.5t-56 -68.5q-15 -39 -49 -66.5t-82 -27.5q-42 0 -69.5 29.5t-27.5 76.5q0 88 82 136t215 48q253 0 394 -141q143 -140 143 -328q0 -196 -120.5 -301t-330.5 -110zM395 236
q56 0 92.5 -36t36.5 -91t-37 -92t-92 -37q-57 0 -94 36.5t-37 92.5q0 55 37 91t94 36z" />
    <glyph glyph-name="at" unicode="@" horiz-adv-x="1914" 
d="M1102 207q-123 -123 -293 -123q-179 0 -262 141q-83 145 -31 342q43 175 189 297q148 121 327 121q159 0 223 -104l146 104h57l-166 -663q-4 -23 -5.5 -35.5t-2.5 -32t3 -30.5t12 -22.5t24 -16.5t39 -5q142 0 262 156q123 156 123 377q0 126 -37 230.5t-101.5 176.5
t-153.5 121.5t-191 72.5t-215 23q-225 0 -428 -108q-200 -108 -324 -297q-121 -189 -121 -406q0 -366 230 -583t585 -217q326 0 637 223l43 -66q-171 -119 -330.5 -177t-351.5 -58q-148 0 -282.5 36.5t-247 110.5t-195.5 177.5t-129 245.5t-45 308q0 230 133 437
q135 205 357 329q220 123 467 123q341 0 559 -188q219 -189 219 -514q0 -269 -162 -449q-158 -180 -387 -180q-72 0 -117.5 33t-56.5 90zM1104 309l119 473q-35 115 -176 115q-244 0 -332 -362q-89 -361 149 -361q148 0 240 135z" />
    <glyph glyph-name="A" unicode="A" horiz-adv-x="1361" 
d="M748 1434l469 -1233q27 -74 65.5 -108.5t106.5 -41.5v-51h-533v51q115 7 148 34t8 93l-101 262h-559l-98 -262q-23 -60 17 -90t157 -37v-51h-455v51q75 7 118.5 40t66.5 99l473 1244h117zM629 1171l-242 -641h490z" />
    <glyph glyph-name="B" unicode="B" horiz-adv-x="1441" 
d="M768 0h-707v51q128 9 164 37q35 27 35 141v975q0 115 -35 142q-34 27 -164 36v52h672q578 0 578 -355q0 -247 -318 -309q169 -32 264 -129.5t95 -232.5q0 -193 -160 -302q-156 -106 -424 -106zM739 1341h-215q-61 0 -61 -61v-465h289q333 0 333 264q0 136 -84 199
t-262 63zM793 725h-330v-571q0 -62 61 -62h244q176 0 267 83t91 233q0 144 -89.5 230.5t-243.5 86.5z" />
    <glyph glyph-name="C" unicode="C" horiz-adv-x="1433" 
d="M1227 1434l127 -400l-47 -16q-195 358 -521 358q-235 0 -354 -180q-117 -178 -117 -479q0 -308 120.5 -483t350.5 -175q168 0 310 91q136 88 184 247l92 -30q-148 -398 -598 -398q-298 0 -491 211t-193 537q0 325 193 536t491 211q222 0 363 -102l30 72h60z" />
    <glyph glyph-name="D" unicode="D" horiz-adv-x="1564" 
d="M707 0h-646v51q128 9 164 37q35 27 35 141v975q0 115 -35 142q-34 27 -164 36v52h646q365 0 566.5 -184.5t201.5 -532.5t-201.5 -532.5t-566.5 -184.5zM707 1341h-183q-61 0 -61 -61v-1126q0 -62 61 -62h183q81 0 147 11.5t129.5 37.5t110 73t82.5 115t54.5 166t18.5 222
q0 107 -14 194.5t-39.5 151.5t-63.5 112.5t-82.5 80t-101 50.5t-114.5 27t-127 8z" />
    <glyph glyph-name="E" unicode="E" horiz-adv-x="1409" 
d="M524 92h213q212 0 350 78q139 77 265 233l43 -26l-201 -377h-1133v51q128 9 164 37q35 27 35 141v975q0 115 -35 142q-34 27 -164 36v52h1135l137 -334l-43 -23q-102 139 -225.5 201.5t-310.5 62.5h-230q-61 0 -61 -61v-485h332q103 0 142 43t50 155h53v-489h-53
q-11 112 -50 155t-142 43h-332v-548q0 -62 61 -62z" />
    <glyph glyph-name="F" unicode="F" horiz-adv-x="1347" 
d="M463 1280v-485h332q103 0 142 43t50 155h53v-489h-53q-11 112 -50 155t-142 43h-332v-473q0 -114 35 -141q36 -28 164 -37v-51h-601v51q128 9 164 37q35 27 35 141v975q0 115 -35 142q-34 27 -164 36v52h1135l137 -334l-43 -23q-102 139 -225.5 201.5t-310.5 62.5h-230
q-61 0 -61 -61z" />
    <glyph glyph-name="G" unicode="G" horiz-adv-x="1554" 
d="M1280 0l-78 117q-157 -148 -430 -148q-298 0 -491 211q-191 212 -191 537t193 536t491 211q218 0 359 -102l28 72h62l125 -400l-48 -16q-195 358 -512 358q-235 0 -354 -180q-119 -177 -119 -479q0 -307 120 -482.5t347 -175.5q117 0 216.5 44t140.5 102v221
q0 114 -35 141q-36 28 -162 37v51h592v-51q-122 -9 -158 -37q-35 -27 -35 -141v-426h-61z" />
    <glyph glyph-name="H" unicode="H" horiz-adv-x="1615" 
d="M1554 0h-600v51q128 9 164 37q35 27 35 141v473h-690v-473q0 -114 35 -141q36 -28 164 -37v-51h-601v51q128 9 164 37q35 27 35 141v975q0 115 -35 142q-34 27 -164 36v52h601v-52q-130 -9 -164 -36q-35 -27 -35 -142v-409h690v409q0 115 -35 142q-34 27 -164 36v52h600
v-52q-128 -9 -163 -36t-35 -142v-975q0 -114 35 -141q36 -28 163 -37v-51z" />
    <glyph glyph-name="I" unicode="I" horiz-adv-x="722" 
d="M662 0h-601v51q128 9 164 37q35 27 35 141v975q0 115 -35 142q-34 27 -164 36v52h601v-52q-130 -9 -164 -36q-35 -27 -35 -142v-975q0 -114 35 -141q36 -28 164 -37v-51z" />
    <glyph glyph-name="J" unicode="J" horiz-adv-x="704" 
d="M463 1204v-1147q0 -237 -108 -357t-304 -120q-129 0 -202.5 53.5t-73.5 124.5q0 49 29.5 80t74.5 31q38 0 63.5 -19t39 -46.5t25.5 -55t32.5 -46.5t52.5 -19q88 0 128 79t40 267v1175q0 115 -35 142q-34 27 -164 36v52h601v-52q-130 -9 -164 -36q-35 -27 -35 -142z" />
    <glyph glyph-name="K" unicode="K" horiz-adv-x="1509" 
d="M662 0h-601v51q128 9 164 37q35 27 35 141v975q0 115 -35 142q-34 27 -164 36v52h601v-52q-130 -9 -164 -36q-35 -27 -35 -142v-499l581 528q19 15 29.5 32.5t9.5 36.5t-16.5 35t-54.5 28.5t-99 16.5v52h553v-52q-86 -9 -141 -39q-50 -27 -156 -122l-391 -353l555 -696
q47 -58 105.5 -89.5t103.5 -31.5v-51h-606v51q117 8 143 48t-35 122l-413 510l-168 -149v-353q0 -114 35 -141q36 -28 164 -37v-51z" />
    <glyph glyph-name="L" unicode="L" horiz-adv-x="1308" 
d="M524 92h133q199 0 334 78t260 233l41 -26l-200 -377h-1031v51q128 9 164 37q35 27 35 141v975q0 115 -35 142q-34 27 -164 36v52h601v-52q-130 -9 -164 -36q-35 -27 -35 -142v-1050q0 -62 61 -62z" />
    <glyph glyph-name="M" unicode="M" horiz-adv-x="1830" 
d="M1769 0h-600v51q128 9 164 37q35 27 35 141v1051l-467 -1280h-67l-467 1278v-1049q0 -114 34 -141q36 -28 164 -37v-51h-504v51q128 9 164 37q37 27 37 141v975q0 115 -37 142q-34 27 -164 36v52h465l394 -1080l395 1080h454v-52q-128 -9 -163 -36t-35 -142v-975
q0 -114 35 -141q36 -28 163 -37v-51z" />
    <glyph glyph-name="N" unicode="N" horiz-adv-x="1552" 
d="M567 0h-506v51q128 9 164 37q37 27 37 141v975q0 115 -37 142q-34 27 -164 36v52h447l700 -1072v842q0 117 -32 142q-35 27 -162 36v52h495v-52q-128 -9 -163 -36q-33 -26 -33 -142v-1204h-111l-835 1278v-1049q0 -114 34 -141q39 -28 166 -37v-51z" />
    <glyph glyph-name="O" unicode="O" horiz-adv-x="1542" 
d="M770 1464q311 0 496 -209q186 -207 186 -538q0 -332 -186 -539q-185 -209 -496 -209q-308 0 -496 209q-184 208 -184 539q0 330 184 538q188 209 496 209zM770 59q457 0 457 658q0 659 -457 659q-455 0 -455 -659q0 -658 455 -658z" />
    <glyph glyph-name="P" unicode="P" horiz-adv-x="1411" 
d="M662 0h-601v51q128 9 164 37q35 27 35 141v975q0 116 -33 142q-35 27 -166 36v52h711q580 0 580 -365q0 -364 -582 -364h-307v-476q0 -114 35 -141q36 -28 164 -37v-51zM772 1341h-248q-61 0 -61 -61v-485h307q356 0 356 274q0 272 -354 272z" />
    <glyph glyph-name="Q" unicode="Q" horiz-adv-x="1542" 
d="M770 1464q311 0 496 -209q186 -207 186 -538q0 -295 -154 -502q-151 -200 -413 -235q1 -132 54 -194t155 -62q105 0 170 67.5t65 179.5h98q0 -170 -106 -260q-109 -92 -264 -92q-180 0 -286 96t-112 262q-261 35 -415 238q-154 204 -154 502q0 330 184 538
q188 209 496 209zM770 59q457 0 457 658q0 659 -457 659q-455 0 -455 -659q0 -658 455 -658z" />
    <glyph glyph-name="R" unicode="R" horiz-adv-x="1478" 
d="M883 711l383 -537q44 -60 95.5 -88.5t141.5 -34.5v-51h-350l-498 705h-192v-476q0 -114 35 -141q36 -28 164 -37v-51h-601v51q128 9 164 37q35 27 35 141v975q0 116 -33 142q-35 27 -166 36v52h711q580 0 580 -365q0 -164 -124 -255t-345 -103zM772 1341h-248
q-61 0 -61 -61v-485h307q356 0 356 274q0 272 -354 272z" />
    <glyph glyph-name="S" unicode="S" horiz-adv-x="1404" 
d="M621 905l135 -35l114 -30q154 -42 217 -80q121 -68 164 -131q64 -93 64 -213q0 -194 -158 -322q-155 -125 -399 -125q-250 0 -457 115l-35 -84h-61l-133 440l47 15q103 -195 268 -296.5t365 -101.5q157 0 270 84q111 83 108 211q0 103 -88 176q-45 36 -104 58
q-75 29 -125 43l-154 43l-151 41q-55 17 -135 53q-79 39 -119 76q-45 41 -73.5 105.5t-28.5 139.5q0 161 141 269t348 108q245 0 408 -102l28 72h62l125 -400l-45 -16q-175 358 -566 358q-145 0 -233 -64t-88 -163q0 -86 80 -154q39 -27 96 -51q51 -19 113 -39z" />
    <glyph glyph-name="T" unicode="T" horiz-adv-x="1366" 
d="M977 51v-51h-600v51q128 9 164 37q34 27 34 141v1051q0 61 -61 61q-166 0 -252 -53q-79 -50 -184 -211l-45 23l157 379h52q15 -45 61 -45h760q46 0 61 45h52l157 -379l-43 -23q-100 157 -190 209q-91 55 -260 55q-62 0 -62 -61v-1051q0 -114 35 -141q36 -28 164 -37z" />
    <glyph glyph-name="U" unicode="U" horiz-adv-x="1568" 
d="M444 1204v-782q0 -176 108 -267.5t298 -91.5q166 0 269.5 94t103.5 261v786q0 115 -35 142q-34 27 -164 36v52h502v-52q-130 -9 -164 -36q-35 -27 -35 -142v-786q0 -192 -133 -322q-133 -127 -379 -127q-274 0 -423.5 115.5t-149.5 333.5v786q0 115 -35 142
q-34 27 -164 36v52h600v-52q-130 -9 -164 -36q-35 -27 -35 -142z" />
    <glyph glyph-name="V" unicode="V" horiz-adv-x="1361" 
d="M733 0h-117l-469 1233q-30 75 -68 108.5t-106 40.5v52h535v-52q-116 -8 -148.5 -33.5t-7.5 -91.5l383 -993l375 993q24 58 -17.5 88t-158.5 37v52h455v-52q-74 -7 -117 -39.5t-68 -99.5z" />
    <glyph glyph-name="W" unicode="W" horiz-adv-x="1996" 
d="M1591 1382v52h432v-52q-73 -7 -110.5 -44t-69.5 -134l-387 -1204h-115l-346 1083l-348 -1083h-115l-385 1204q-36 106 -65 135q-29 34 -109 43v52h541v-52q-121 -7 -153 -45.5t-1 -132.5l285 -887l299 922q-27 79 -58 107.5t-102 35.5v52h539v-52q-122 -7 -154.5 -45.5
t0.5 -132.5l285 -887l287 887q33 94 1.5 132.5t-151.5 45.5z" />
    <glyph glyph-name="X" unicode="X" horiz-adv-x="1398" 
d="M508 0h-524v51q120 9 176 45q59 38 121 133l319 490l-336 514q-59 89 -98 115q-42 28 -129 34v52h579v-52q-120 -7 -138.5 -44.5t46.5 -131.5l215 -323l211 321q65 94 46.5 132.5t-138.5 45.5v52h500v-52q-118 -9 -174 -45q-59 -38 -121 -133l-266 -413l366 -562
q60 -92 113 -135q48 -34 139 -43v-51h-586v51q120 7 139 45.5t-46 132.5l-265 400l-262 -402q-60 -92 -35.5 -130.5t148.5 -45.5v-51z" />
    <glyph glyph-name="Y" unicode="Y" horiz-adv-x="1290" 
d="M549 229v369l-373 606q-62 101 -98 137q-32 32 -105 41v52h539v-52q-109 -8 -133 -46.5t27 -129.5l299 -493l284 491q50 91 24 130.5t-136 47.5v52h440v-52q-81 -9 -121 -43q-36 -31 -96 -135l-348 -602v-373q0 -114 34 -141q36 -28 164 -37v-51h-600v51q128 9 164 37
q35 27 35 141z" />
    <glyph glyph-name="Z" unicode="Z" horiz-adv-x="1335" 
d="M63 51l908 1290h-289q-192 0 -309 -63q-120 -65 -221 -201l-43 23l137 334h995v-52l-905 -1290h301q218 0 346 76q130 77 258 235l41 -26l-201 -377h-1018v51z" />
    <glyph glyph-name="bracketleft" unicode="[" horiz-adv-x="665" 
d="M174 -410v1885h449v-82h-285v-1721h285v-82h-449z" />
    <glyph glyph-name="backslash" unicode="\" horiz-adv-x="632" 
d="M88 1495l545 -1933h-88l-545 1933h88z" />
    <glyph glyph-name="bracketright" unicode="]" horiz-adv-x="665" 
d="M492 1475v-1885h-449v82h285v1721h-285v82h449z" />
    <glyph glyph-name="asciicircum" unicode="^" horiz-adv-x="1130" 
d="M944 717l-381 477l-379 -477h-78l414 717h88l416 -717h-80z" />
    <glyph glyph-name="underscore" unicode="_" horiz-adv-x="1130" 
d="M0 -227v86h1133v-86h-1133z" />
    <glyph glyph-name="grave" unicode="`" horiz-adv-x="440" 
d="M231 1339l189 -297h-82l-275 240q-43 40 -43 59q0 31 33 31h121q37 0 57 -33z" />
    <glyph glyph-name="a" unicode="a" horiz-adv-x="1060" 
d="M688 104q-186 -131 -340 -131q-130 0 -203 57.5t-73 162.5q0 156 176 239q86 39 182.5 63.5t253.5 51.5v123q0 117 -31.5 162t-115.5 45q-175 0 -213 -150q-27 -98 -103 -98q-80 0 -80 92t113 162q115 71 293 71q319 0 319 -288v-482q0 -110 66 -110q30 0 76 22v-73
q-67 -46 -160 -46q-136 0 -160 127zM684 184v285q-216 -32 -316 -89t-100 -163q0 -68 39 -103.5t107 -35.5q120 0 270 106z" />
    <glyph glyph-name="b" unicode="b" horiz-adv-x="1122" 
d="M33 1264v41l256 159h63v-614q101 104 273 104q196 0 311 -139t115 -352q0 -219 -117 -357q-113 -137 -322 -137q-177 0 -278 107l-90 -107h-72v1219q0 43 -14 59.5t-49 16.5h-76zM352 754v-584q82 -113 228 -113q274 0 274 406q0 403 -274 403q-147 0 -228 -112z" />
    <glyph glyph-name="c" unicode="c" horiz-adv-x="987" 
d="M795 629q-78 0 -99 98q-24 147 -170 147q-258 0 -258 -411q0 -190 78 -299t223 -109q195 0 297 240l74 -39q-118 -287 -389 -287q-224 0 -352 137q-127 139 -127 357q0 212 129 350q129 141 325 141q155 0 258 -71q105 -70 105 -160q0 -44 -26 -69t-68 -25z" />
    <glyph glyph-name="d" unicode="d" horiz-adv-x="1142" 
d="M633 1264v41l254 159h63v-1306q0 -56 28 -78t112 -29v-51q-159 0 -320 -31v107q-94 -107 -272 -107q-198 0 -314 140q-112 136 -112 354q0 216 112 352q115 139 314 139q179 0 272 -106v348q0 37 -15 52.5t-50 15.5h-72zM770 170v584q-81 112 -227 112q-275 0 -275 -403
q0 -406 275 -406q145 0 227 113z" />
    <glyph glyph-name="e" unicode="e" horiz-adv-x="1042" 
d="M938 561h-666q-4 -86 -4 -98q0 -408 320 -408q98 0 180 62.5t129 173.5l76 -35q-121 -287 -398 -287q-239 0 -370 137q-133 139 -133 357q0 215 125 352q127 139 338 139q185 0 294 -104.5t109 -288.5zM283 643h473q0 107 -60.5 169t-158.5 62q-211 0 -254 -231z" />
    <glyph glyph-name="f" unicode="f" horiz-adv-x="614" 
d="M53 840v84h140v120q0 193 104 306q105 114 270 114q72 0 117 -30.5t45 -77.5q0 -43 -27.5 -71t-68.5 -28q-47 0 -88 50q-37 49 -74 49q-45 0 -71.5 -40.5t-26.5 -113.5v-278h200v-84h-200v-682q0 -55 31 -77t116 -30v-51h-467v51q84 7 112 29t28 78v682h-140z" />
    <glyph glyph-name="g" unicode="g" horiz-adv-x="1075" 
d="M973 1024q51 0 82.5 -25.5t31.5 -68.5q0 -34 -21 -57t-56 -23q-23 0 -63.5 25.5t-55.5 25.5q-44 0 -82 -72q84 -96 84 -237q0 -159 -107 -260q-104 -101 -284 -101q-45 0 -119 14.5t-88 14.5q-52 0 -80.5 -20t-28.5 -52q0 -50 78 -65q86 -16 324 -25q226 -7 319.5 -61.5
t93.5 -171.5q0 -128 -122 -200.5t-334 -72.5q-471 0 -471 220q0 108 112 165q-110 46 -110 166q0 74 43 122.5t110 56.5q-120 99 -120 270q0 162 106 262t287 100q147 0 250 -71q43 64 102.5 102.5t118.5 38.5zM502 311q205 0 205 281q0 282 -205 282q-207 0 -207 -282
q0 -281 207 -281zM870 -180q0 62 -61 80q-67 17 -248 20q-150 6 -266 25q-94 -34 -94 -115q0 -158 344 -158q149 0 237 41.5t88 106.5z" />
    <glyph glyph-name="h" unicode="h" horiz-adv-x="1171" 
d="M1118 0h-456v51q83 7 110 29t27 78v520q0 172 -160 172q-141 0 -266 -88v-604q0 -56 28 -78t109 -29v-51h-457v51q84 7 112 29t28 78v1038q0 68 -64 68h-76v41l256 159h64v-612q166 102 317 102q40 0 77 -6.5t77.5 -25t69.5 -48t48 -80t19 -116.5v-520q0 -56 28 -78
t109 -29v-51z" />
    <glyph glyph-name="i" unicode="i" horiz-adv-x="565" 
d="M408 1284q0 -48 -34 -81.5t-87 -33.5t-87 33.5t-34 81.5q0 50 34 83.5t87 33.5t87 -33.5t34 -83.5zM510 0h-457v51q84 7 112 29t28 78v528q0 68 -64 68h-76v41l256 159h64v-796q0 -56 28 -78t109 -29v-51z" />
    <glyph glyph-name="j" unicode="j" horiz-adv-x="544" 
d="M408 1284q0 -48 -34 -81.5t-87 -33.5t-87 33.5t-34 81.5q0 50 34 83.5t87 33.5t87 -33.5t34 -83.5zM-162 -293q0 37 27 64.5t65 27.5q47 0 84 -49q40 -49 72 -49q49 0 78 39t29 115v831q0 68 -64 68h-76v41l256 159h64v-917q0 -214 -102.5 -329.5t-274.5 -115.5
q-71 0 -114.5 30.5t-43.5 84.5z" />
    <glyph glyph-name="k" unicode="k" horiz-adv-x="1099" 
d="M510 0h-457v51q84 7 112 29t28 78v1038q0 68 -64 68h-76v41l256 159h64v-989l276 279q21 20 29.5 38.5t3 35.5t-37.5 29t-89 15v52h481v-52q-86 -9 -145 -36q-58 -28 -127 -97l-143 -143l340 -424q55 -65 90.5 -89t87.5 -32v-51h-508v51q68 4 98.5 24t27.5 45.5t-26 55.5
l-239 293l-119 -119v-192q0 -56 28 -78t109 -29v-51z" />
    <glyph glyph-name="l" unicode="l" horiz-adv-x="565" 
d="M510 0h-457v51q84 7 112 29t28 78v1038q0 68 -64 68h-76v41l256 159h64v-1306q0 -56 28 -78t109 -29v-51z" />
    <glyph glyph-name="m" unicode="m" horiz-adv-x="1779" 
d="M1118 0h-456v51q83 7 110 29t27 78v520q0 172 -160 172q-141 0 -266 -88v-604q0 -56 28 -78t109 -29v-51h-457v51q84 7 112 29t28 78v528q0 68 -64 68h-76v41l256 159h64v-102q166 102 317 102q186 0 256 -123q74 52 172 87.5t178 35.5q118 0 203 -61q88 -61 88 -215
v-520q0 -56 27.5 -78t111.5 -29v-51h-456v51q81 7 109 29t28 78v520q0 172 -160 172q-140 0 -276 -92q10 -45 10 -80v-520q0 -56 28 -78t109 -29v-51z" />
    <glyph glyph-name="n" unicode="n" horiz-adv-x="1171" 
d="M1118 0h-456v51q83 7 110 29t27 78v520q0 172 -160 172q-141 0 -266 -88v-604q0 -56 28 -78t109 -29v-51h-457v51q84 7 112 29t28 78v528q0 68 -64 68h-76v41l256 159h64v-102q166 102 317 102q40 0 77 -6.5t77.5 -25t69.5 -48t48 -80t19 -116.5v-520q0 -56 28 -78
t109 -29v-51z" />
    <glyph glyph-name="o" unicode="o" horiz-adv-x="1107" 
d="M1036 463q0 -213 -135 -354q-134 -140 -348 -140q-211 0 -348 140q-133 142 -133 354q0 211 133 350q135 141 348 141t348 -141q135 -138 135 -350zM553 874q-285 0 -285 -411q0 -188 68 -303q70 -111 217 -111t217 111q70 113 70 303q0 196 -71.5 303.5t-215.5 107.5z
" />
    <glyph glyph-name="p" unicode="p" horiz-adv-x="1132" 
d="M500 -377h-457v51q84 7 111.5 28t27.5 77v907q0 68 -63 68h-82v41l262 159h63v-104q101 104 273 104q196 0 311 -139t115 -352q0 -219 -117 -357q-113 -137 -321 -137q-163 0 -261 94v-284q0 -54 28.5 -76t109.5 -29v-51zM362 754v-584q82 -113 228 -113q274 0 274 406
q0 403 -274 403q-147 0 -228 -112z" />
    <glyph glyph-name="q" unicode="q" horiz-adv-x="1114" 
d="M1090 -377h-457v51q81 7 109 29t28 76v297q-94 -107 -272 -107q-198 0 -314 140q-112 136 -112 354q0 216 112 352q115 139 314 139q178 0 280 -114l109 114h63v-1175q0 -56 27.5 -77t112.5 -28v-51zM770 170v584q-81 112 -227 112q-275 0 -275 -403q0 -406 275 -406
q145 0 227 113z" />
    <glyph glyph-name="r" unicode="r" horiz-adv-x="821" 
d="M702 725q-45 0 -92 47t-75 47q-92 0 -162 -104v-557q0 -56 28 -78t109 -29v-51h-457v51q84 7 112 29t28 78v528q0 68 -64 68h-76v41l256 159h64v-135q54 63 127 99t145 36q77 0 117.5 -34.5t40.5 -90.5q0 -49 -28 -76.5t-73 -27.5z" />
    <glyph glyph-name="s" unicode="s" horiz-adv-x="950" 
d="M528 575q6 -2 25 -6.5t24 -6t20.5 -5.5t20.5 -5.5t18 -5.5t19 -6t17.5 -6t20 -7.5t19 -8.5t21.5 -10q81 -34 119.5 -89t44.5 -147q0 -139 -104 -221q-101 -82 -263 -82q-199 0 -325 99l-25 -68h-53l-74 309l45 15q93 -143 195 -209t235 -66q95 0 156 43.5t61 122.5
q0 88 -90 125q-41 20 -76 30.5t-109 26.5q-12 3 -19 4q-137 35 -203 62q-78 33 -117 85t-45 138q0 115 94 191q95 77 240 77q175 0 282 -82l21 52h51l60 -265l-46 -16q-132 234 -356 234q-89 0 -137.5 -36.5t-48.5 -97.5q0 -66 63 -100.5t219 -67.5z" />
    <glyph glyph-name="t" unicode="t" horiz-adv-x="653" 
d="M600 96v-80q-79 -39 -186 -39q-240 0 -240 240v623h-137v43q113 40 171 120.5t83 223.5h63v-303h246v-84h-246v-625q0 -75 27 -109q28 -34 92.5 -35t126.5 25z" />
    <glyph glyph-name="u" unicode="u" horiz-adv-x="1155" 
d="M643 754v41l256 159h64v-796q0 -56 28 -78t109 -29v-51q-157 0 -318 -31v101q-162 -101 -317 -101q-40 0 -77 6.5t-77.5 25.5t-69.5 48.5t-48 80t-19 116.5v440q0 68 -63 68h-74v41l256 159h61v-708q0 -172 162 -172q129 0 266 88v524q0 37 -15 52.5t-50 15.5h-74z" />
    <glyph glyph-name="v" unicode="v" horiz-adv-x="948" 
d="M524 0h-116l-265 694q-40 100 -67 135q-27 34 -94 43v52h450v-52q-97 -7 -118.5 -41.5t16.5 -109.5l186 -500l195 490q30 82 6.5 117.5t-111.5 43.5v52h361v-52q-57 -8 -93 -46.5t-73 -131.5z" />
    <glyph glyph-name="w" unicode="w" horiz-adv-x="1560" 
d="M1022 0l-242 631l-245 -631h-121l-271 694q-41 104 -67 137q-27 35 -94 41v52h452v-52q-102 -7 -121 -45.5t25 -132.5l180 -469l213 525q-30 64 -62.5 91t-88.5 31v52h464v-52q-102 -7 -120 -45.5t26 -132.5l180 -473l185 473q36 94 10.5 132t-125.5 46v52h379v-52
q-57 -7 -92.5 -45.5t-73.5 -132.5l-268 -694h-123z" />
    <glyph glyph-name="x" unicode="x" horiz-adv-x="1048" 
d="M668 147l-185 244l-188 -244q-66 -84 94 -96v-51h-369v51q56 6 91 26.5t73 69.5l246 320l-227 309q-38 54 -67 73t-83 23v52h451v-52q-154 -12 -82 -96l141 -188l146 188q34 41 10.5 65.5t-103.5 30.5v52h379v-52q-62 -6 -100 -26.5t-74 -69.5l-205 -264l271 -365
q38 -49 68 -69.5t73 -26.5v-51h-440v51q85 4 103 28t-23 68z" />
    <glyph glyph-name="y" unicode="y" horiz-adv-x="948" 
d="M801 694l-350 -874q-89 -228 -287 -228q-86 0 -142.5 36t-56.5 93q0 39 29.5 68t71.5 29q46 0 92 -49q46 -52 80 -52q78 0 131 140l47 120l-273 717q-40 100 -67 135q-27 34 -94 43v52h450v-52q-100 -7 -117.5 -45.5t23.5 -132.5l178 -471l189 471q35 94 12.5 132
t-113.5 46v52h363v-52q-57 -7 -92.5 -45.5t-73.5 -132.5z" />
    <glyph glyph-name="z" unicode="z" horiz-adv-x="966" 
d="M53 51l572 793h-127q-148 0 -232 -41q-82 -40 -153 -152l-47 21l86 252h712v-52l-571 -792h174q149 0 238 59q90 59 178 185l41 -23l-131 -301h-740v51z" />
    <glyph glyph-name="braceleft" unicode="{" horiz-adv-x="632" 
d="M588 -379v-55q-173 0 -264 105t-91 302v336q0 102 -41.5 148.5t-146.5 46.5v65q105 0 146.5 45.5t41.5 147.5v336q0 197 91 302t264 105v-55q-88 0 -136.5 -59.5t-48.5 -171.5v-338q0 -295 -229 -344q229 -52 229 -347v-337q0 -112 48.5 -172t136.5 -60z" />
    <glyph glyph-name="bar" unicode="|" horiz-adv-x="632" 
d="M272 -438v1933h86v-1933h-86z" />
    <glyph glyph-name="braceright" unicode="}" horiz-adv-x="632" 
d="M45 -434v55q88 0 136 60t48 172v337q0 295 230 347q-230 49 -230 344v338q0 112 -48 171.5t-136 59.5v55q176 0 266 -104.5t90 -302.5v-336q0 -102 41 -147.5t146 -45.5v-65q-103 0 -145 -46t-42 -149v-336q0 -198 -90 -302.5t-266 -104.5z" />
    <glyph glyph-name="asciitilde" unicode="~" horiz-adv-x="1056" 
d="M877 848h71q0 -295 -248 -295q-109 0 -245 115q-95 80 -152 80q-119 0 -119 -160h-78q0 293 248 293q52 0 101 -21q10 -4 19 -7.5t15.5 -6.5t15 -8t13 -7t13.5 -8t12 -8.5t13.5 -10l14 -10t16 -12.5l17.5 -14q95 -80 152 -80q121 0 121 160z" />
    <glyph glyph-name="uni00A0" unicode="&#xa0;" horiz-adv-x="514" 
 />
    <glyph glyph-name="exclamdown" unicode="&#xa1;" horiz-adv-x="491" 
d="M117 815q0 55 36.5 92t92.5 37q42 3 74 -21t45.5 -58.5t7 -74.5t-34.5 -67q-26 -28 -66.5 -33.5t-76 8t-59 45.5t-19.5 72zM209 543h74q3 -229 24 -396q12 -82 30.5 -182.5t28 -164.5t9.5 -117q0 -224 -129 -224t-129 224q0 83 22 196q68 303 70 664z" />
    <glyph glyph-name="cent" unicode="&#xa2;" horiz-adv-x="1183" 
d="M903 567l74 -39q-116 -277 -373 -286v-303h-88v307q-192 21 -301 157q-106 133 -106 332q0 198 112 334q117 141 295 156v270h88v-270q140 -9 230 -78t90 -152q0 -43 -26.5 -68.5t-66.5 -25.5q-73 0 -94 98q-21 123 -133 144v-815q197 3 299 239zM297 735q0 -157 57 -262
t162 -135v805q-219 -35 -219 -408z" />
    <glyph glyph-name="sterling" unicode="&#xa3;" horiz-adv-x="1183" 
d="M1053 297h86q-17 -156 -99.5 -242t-220.5 -86q-160 0 -319 135q-88 -135 -236 -135q-85 0 -145 49.5t-60 131.5q0 78 63 127t157 49q79 0 155 -27q0 73 -20 143q-19 70 -37 111q-42 97 -53 119h-275v82h236q-70 162 -70 315q0 167 123 281t336 114q175 0 278 -92
q103 -89 103 -209q0 -87 -46 -141.5t-116 -54.5q-54 0 -86.5 33t-32.5 79q0 50 33.5 81t85.5 36q31 0 31 23q0 68 -62.5 111.5t-161.5 43.5q-127 0 -193.5 -80.5t-66.5 -206.5q0 -147 58 -333h305v-82h-281q51 -173 51 -299q0 -65 -14 -131l19 -11q170 -92 272 -92
q176 0 203 158zM264 55q105 0 152 123q-80 62 -137 62q-54 0 -86.5 -24.5t-32.5 -65.5q0 -43 27.5 -69t76.5 -26z" />
    <glyph glyph-name="currency" unicode="&#xa4;" horiz-adv-x="1183" 
d="M244 969l-199 200l94 95l199 -199q110 82 254 82q145 0 252 -82l200 201l97 -97l-201 -198q82 -110 82 -254t-82 -254l201 -199l-97 -94l-200 199q-104 -82 -252 -82q-147 0 -254 82l-199 -199l-94 96l199 197q-82 107 -82 254q0 148 82 252zM375 500q90 -90 217 -90
t217 90q92 89 92 217t-92 217q-89 92 -217 92t-217 -92q-90 -90 -90 -217t90 -217z" />
    <glyph glyph-name="yen" unicode="&#xa5;" horiz-adv-x="1183" 
d="M74 612v80h393l-244 494q-62 120 -90 151q-33 39 -96 45v52h463v-52q-91 -6 -102 -59t46 -147l205 -426l189 421q37 65 45.5 109t-17.5 71t-90 31v52h373v-52q-45 -5 -72 -17t-51 -42q-24 -28 -37.5 -52.5t-40.5 -86.5l-227 -492h389v-80h-412v-190h412v-82h-412v-111
q0 -114 35 -141q36 -28 164 -37v-51h-600v51q128 9 164 37q35 27 35 141v111h-422v82h422v190h-422z" />
    <glyph glyph-name="brokenbar" unicode="&#xa6;" horiz-adv-x="632" 
d="M272 627v868h86v-868h-86zM272 -438v868h86v-868h-86z" />
    <glyph glyph-name="section" unicode="&#xa7;" horiz-adv-x="972" 
d="M381 -408q-69 0 -114.5 31t-45.5 78q0 43 26.5 70.5t69.5 27.5q46 0 86 -49t76 -49q44 0 71.5 35.5t27.5 91.5q0 65 -31 135q-31 66 -64 105q-43 51 -96 106q-47 47 -108 117q-39 48 -89 127q-100 160 -100 399q0 267 135 457t367 190q72 0 117 -29.5t45 -76.5
q0 -44 -28 -72.5t-71 -28.5q-45 0 -86 50q-40 49 -75 49q-43 0 -70 -35.5t-27 -91.5q0 -67 31 -137q37 -73 68 -109q50 -59 102 -113q151 -160 219 -299t68 -331q0 -268 -137 -457q-135 -191 -367 -191zM709 -111q65 154 65 301q0 160 -88 289q-63 95 -78 113
q-44 55 -98 117q-88 97 -123 143q-45 59 -82 139q-41 90 -41 176q-63 -144 -63 -295q0 -138 59 -247q58 -108 209 -281q61 -68 119 -143q47 -58 84 -145t37 -167z" />
    <glyph glyph-name="dieresis" unicode="&#xa8;" horiz-adv-x="602" 
d="M131 1368q47 0 78 -30.5t31 -75.5q0 -43 -31 -74t-78 -31q-49 0 -80 30.5t-31 74.5q0 45 31 75.5t80 30.5zM582 1262q0 -43 -32 -74t-79 -31q-48 0 -78.5 30.5t-30.5 74.5q0 45 30 75.5t79 30.5t80 -30.5t31 -75.5z" />
    <glyph glyph-name="copyright" unicode="&#xa9;" horiz-adv-x="1619" 
d="M283 1245q219 219 528 219t528 -219q220 -220 220 -528q0 -309 -220 -529q-219 -219 -528 -219t-528 219q-220 220 -220 529q0 308 220 528zM330 238q199 -199 481 -199q280 0 479 199t199 479t-199 479q-201 201 -479 201q-280 0 -481 -201q-199 -199 -199 -479
t199 -479zM1090 1151l67 -244l-39 -12q-109 207 -287 207q-124 0 -185.5 -99.5t-61.5 -281.5t61.5 -281.5t185.5 -99.5q97 0 173.5 58t103.5 147l70 -23q-95 -250 -361 -250q-189 0 -305 125q-117 126 -117 324q0 197 117 323q116 125 305 125q127 0 207 -57l16 39h50z" />
    <glyph glyph-name="ordfeminine" unicode="&#xaa;" horiz-adv-x="843" 
d="M530 647q-138 -100 -264 -100q-97 0 -155 46t-58 124q0 123 142 186q125 56 333 90v101q0 82 -23.5 113.5t-84.5 31.5q-116 0 -150 -111q-24 -79 -96 -79q-70 0 -70 77q0 74 95 127q97 54 237 54q262 0 262 -224v-376q0 -74 50 -74q24 0 53 16v-63q-53 -35 -133 -35
q-120 0 -138 96zM528 717v211q-157 -24 -229 -64.5t-72 -115.5q0 -49 30.5 -77t80.5 -28q81 0 190 74z" />
    <glyph glyph-name="guillemotleft" unicode="&#xab;" horiz-adv-x="1042" 
d="M539 61l-41 -28l-351 389q-22 28 -22 55q0 30 22 58l351 389l41 -29l-199 -418zM920 61l-41 -28l-351 389q-22 28 -22 55q0 30 22 58l351 389l41 -29l-199 -418z" />
    <glyph glyph-name="logicalnot" unicode="&#xac;" horiz-adv-x="1130" 
d="M20 870v103h1090v-498h-102v395h-988z" />
    <glyph glyph-name="uni00AD" unicode="&#xad;" horiz-adv-x="497" 
d="M20 418v119h457v-119h-457z" />
    <glyph glyph-name="registered" unicode="&#xae;" horiz-adv-x="919" 
d="M860 1063q0 -164 -119 -283q-116 -116 -282 -116t-285 116q-117 120 -117 283q0 166 117 283q118 118 285 118t282 -118q119 -116 119 -283zM795 1063q0 143 -99 237q-99 99 -237 99q-139 0 -238 -99q-98 -94 -98 -237q0 -140 98 -238q101 -96 238 -96q136 0 237 96
q99 99 99 238zM555 1059l86 -127q24 -34 61 -37v-35h-135l-125 193h-34v-111q0 -29 9.5 -36.5t43.5 -10.5v-35h-213v35q35 3 43 10t8 37v260q0 26 -7.5 32t-43.5 11v35h244q170 0 170 -111q0 -92 -107 -110zM471 1231h-45q-18 0 -18 -19v-108h63q80 0 80 65q0 62 -80 62z
" />
    <glyph glyph-name="overscore" unicode="&#xaf;" horiz-adv-x="555" 
d="M20 1186v106h515v-106h-515z" />
    <glyph glyph-name="degree" unicode="&#xb0;" horiz-adv-x="600" 
d="M539 1227q0 -96 -70 -166t-168 -70t-168 70t-70 166q0 98 70 168q69 69 168 69t168 -69q70 -70 70 -168zM182 1110q50 -44 119.5 -44t116.5 44q47 47 47 116.5t-47 116.5t-116.5 47t-119.5 -47q-47 -47 -47 -116.5t47 -116.5z" />
    <glyph glyph-name="plusminus" unicode="&#xb1;" horiz-adv-x="1130" 
d="M20 668v102h492v492h102v-492h496v-102h-496v-473h-102v473h-492zM20 0v92h1090v-92h-1090z" />
    <glyph glyph-name="uni00B2" unicode="&#xb2;" horiz-adv-x="780" 
d="M164 1171h-72q0 128 80.5 204.5t210.5 76.5q124 0 202.5 -70t78.5 -180q0 -125 -100.5 -243.5t-299.5 -247.5h303q38 0 52.5 16t27.5 80h45l-30 -260h-48q0 26 -24 26h-488v74q214 173 307 297t93 258q0 180 -156 180q-82 0 -132 -55t-50 -156z" />
    <glyph glyph-name="uni00B3" unicode="&#xb3;" horiz-adv-x="780" 
d="M494 1071q91 -14 151 -77.5t60 -147.5q0 -126 -96 -208.5t-257 -82.5q-106 0 -190 35q-82 34 -82 98q0 32 21.5 55t50.5 23q32 0 54.5 -14.5t36 -36t27 -42.5t36 -35.5t54.5 -14.5q179 0 179 194q0 87 -57.5 142t-159.5 55h-23v67h29q78 0 121 42.5t43 115.5
q0 63 -37 103t-103 40q-70 0 -117.5 -44t-54.5 -124h-69q11 113 82.5 175.5t193.5 62.5q124 0 196 -54t72 -136q0 -68 -43 -119.5t-118 -71.5z" />
    <glyph glyph-name="acute" unicode="&#xb4;" horiz-adv-x="440" 
d="M20 1042l189 297q20 33 57 33h121q33 0 33 -31q0 -19 -43 -59l-275 -240h-82z" />
    <glyph glyph-name="uni00B5" unicode="&#xb5;" horiz-adv-x="1105" 
d="M270 41q17 -51 74 -164q57 -108 57 -153q0 -59 -34 -95.5t-86 -36.5t-87.5 37.5t-35.5 96.5v1198h182v-678q0 -172 160 -172q135 0 266 88v762h182v-738q0 -112 66 -112q30 0 76 22v-73q-67 -46 -142 -46q-134 0 -168 105q-140 -113 -307 -113q-128 0 -203 72z" />
    <glyph glyph-name="paragraph" unicode="&#xb6;" horiz-adv-x="815" 
d="M473 1434h299v-52q-127 -9 -162 -34q-37 -24 -37 -125v-1076q0 -258 -128.5 -405.5t-346.5 -147.5q-135 0 -227 56q-92 53 -92 129q-1 43 30.5 73.5t71.5 31t76 -28.5q15 -13 47.5 -58.5t68.5 -70.5t91 -25q134 0 221.5 118t87.5 328v461q-172 0 -291 119t-119 293
t119 293q121 121 291 121z" />
    <glyph glyph-name="middot" unicode="&#xb7;" horiz-adv-x="491" 
d="M246 348q-57 0 -93 36.5t-36 92.5t36 91.5t93 35.5t93 -35.5t36 -91.5q0 -55 -36.5 -92t-92.5 -37z" />
    <glyph glyph-name="cedilla" unicode="&#xb8;" horiz-adv-x="522" 
d="M502 -258q0 -76 -74.5 -133.5t-189.5 -57.5q-92 0 -155 34.5t-63 82.5q0 26 18 45t44 19q47 0 70 -51q27 -64 98 -64q56 0 89.5 27.5t33.5 70.5q0 31 -23.5 51.5t-60.5 20.5q-52 0 -84 -29l-49 21l94 221h88l-57 -133q27 10 57 10q75 0 119.5 -35t44.5 -100z" />
    <glyph glyph-name="uni00B9" unicode="&#xb9;" horiz-adv-x="780" 
d="M643 573h-506v43q119 3 148 19q28 16 28 76v546q0 39 -34 39h-142v37l275 119h55v-741q0 -60 29 -76t147 -19v-43z" />
    <glyph glyph-name="ordmasculine" unicode="&#xba;" horiz-adv-x="864" 
d="M147 1198q109 109 285 109q174 0 283 -109q108 -108 108 -272q0 -165 -108 -273t-283 -108q-177 0 -285 108q-106 106 -106 273q0 166 106 272zM432 614q209 0 209 312q0 309 -209 309q-211 0 -211 -309q0 -312 211 -312z" />
    <glyph glyph-name="guillemotright" unicode="&#xbb;" horiz-adv-x="1054" 
d="M516 422l-350 -389l-41 28l199 416l-199 418l41 29l350 -389q23 -30 23 -58q0 -25 -23 -55zM895 422l-350 -389l-41 28l198 416l-198 418l41 29l350 -389q23 -30 23 -58q0 -25 -23 -55z" />
    <glyph glyph-name="onequarter" unicode="&#xbc;" horiz-adv-x="1779" 
d="M643 573h-506v43q119 3 148 19q28 16 28 76v546q0 39 -34 39h-142v37l275 119h55v-741q0 -60 29 -76t147 -19v-43zM379 0l934 1434h88l-934 -1434h-88zM1567 0h-152v215h-354v51l403 613h103v-596h153v-68h-153v-215zM1415 676l-260 -393h260v393z" />
    <glyph glyph-name="onehalf" unicode="&#xbd;" horiz-adv-x="1779" 
d="M643 573h-506v43q119 3 148 19q28 16 28 76v546q0 39 -34 39h-142v37l275 119h55v-741q0 -60 29 -76t147 -19v-43zM379 0l934 1434h88l-934 -1434h-88zM1163 598h-71q0 128 80 204.5t210 76.5q124 0 202.5 -70t78.5 -180q0 -126 -100.5 -244.5t-298.5 -247.5h303
q38 0 52.5 16t27.5 80h45l-31 -260h-47q0 27 -25 27h-487v74q213 173 306 297t93 258q0 180 -155 180q-82 0 -132.5 -55t-50.5 -156z" />
    <glyph glyph-name="threequarters" unicode="&#xbe;" horiz-adv-x="1779" 
d="M494 1071q91 -14 151 -77.5t60 -147.5q0 -126 -96 -208.5t-257 -82.5q-106 0 -190 35q-82 34 -82 98q0 32 21.5 55t50.5 23q32 0 54.5 -14.5t36 -36t27 -42.5t36 -35.5t54.5 -14.5q179 0 179 194q0 87 -57.5 142t-159.5 55h-23v67h29q78 0 121 42.5t43 115.5
q0 63 -37 103t-103 40q-70 0 -117.5 -44t-54.5 -124h-69q11 113 82.5 175.5t193.5 62.5q124 0 196 -54t72 -136q0 -68 -43 -119.5t-118 -71.5zM379 0l934 1434h88l-934 -1434h-88zM1567 0h-152v215h-354v51l403 613h103v-596h153v-68h-153v-215zM1415 676l-260 -393h260v393
z" />
    <glyph glyph-name="questiondown" unicode="&#xbf;" horiz-adv-x="960" 
d="M436 815q0 55 37 92t92 37q42 3 75 -21t46.5 -58.5t7.5 -74.5t-35 -67q-27 -28 -68 -33.5t-76.5 8t-59 45.5t-19.5 72zM514 340l10 203h86v-387q-192 0 -289.5 -69t-97.5 -228q0 -119 84 -209t217 -90q52 0 90.5 28t53.5 68q46 94 133 94q42 0 69 -29.5t27 -76.5
q0 -88 -82 -136.5t-215 -48.5q-250 0 -395 142q-142 142 -142 327q0 196 121 301.5t330 110.5z" />
    <glyph glyph-name="Agrave" unicode="&#xc0;" horiz-adv-x="1361" 
d="M662 1552l-275 240q-43 40 -43 59q0 31 33 31h121q37 0 57 -33l188 -297h-81zM748 1434l469 -1233q27 -74 65.5 -108.5t106.5 -41.5v-51h-533v51q115 7 148 34t8 93l-101 262h-559l-98 -262q-23 -60 17 -90t157 -37v-51h-455v51q75 7 118.5 40t66.5 99l473 1244h117z
M629 1171l-242 -641h490z" />
    <glyph glyph-name="Aacute" unicode="&#xc1;" horiz-adv-x="1361" 
d="M979 1792l-274 -240h-82l188 297q20 33 57 33h121q33 0 33 -31q0 -19 -43 -59zM748 1434l469 -1233q27 -74 65.5 -108.5t106.5 -41.5v-51h-533v51q115 7 148 34t8 93l-101 262h-559l-98 -262q-23 -60 17 -90t157 -37v-51h-455v51q75 7 118.5 40t66.5 99l473 1244h117z
M629 1171l-242 -641h490z" />
    <glyph glyph-name="Acircumflex" unicode="&#xc2;" horiz-adv-x="1361" 
d="M911 1550l-227 217l-227 -217h-84l205 301q21 37 61 37h90q41 0 62 -37l204 -301h-84zM748 1434l469 -1233q27 -74 65.5 -108.5t106.5 -41.5v-51h-533v51q115 7 148 34t8 93l-101 262h-559l-98 -262q-23 -60 17 -90t157 -37v-51h-455v51q75 7 118.5 40t66.5 99l473 1244
h117zM629 1171l-242 -641h490z" />
    <glyph glyph-name="Atilde" unicode="&#xc3;" horiz-adv-x="1361" 
d="M551 1761q-65 0 -80 -90h-63q7 100 51.5 152.5t115.5 52.5q57 0 140 -59q77 -50 106 -50q65 0 80 91h62q-7 -100 -52 -152.5t-116 -52.5q-57 0 -140 59q-73 49 -104 49zM748 1434l469 -1233q27 -74 65.5 -108.5t106.5 -41.5v-51h-533v51q115 7 148 34t8 93l-101 262h-559
l-98 -262q-23 -60 17 -90t157 -37v-51h-455v51q75 7 118.5 40t66.5 99l473 1244h117zM629 1171l-242 -641h490z" />
    <glyph glyph-name="Adieresis" unicode="&#xc4;" horiz-adv-x="1361" 
d="M514 1667q-49 0 -80 30.5t-31 74.5q0 45 31 75.5t80 30.5q47 0 78 -30.5t31 -75.5q0 -43 -31 -74t-78 -31zM854 1667q-48 0 -78.5 30.5t-30.5 74.5q0 45 30 75.5t79 30.5q47 0 79 -31.5t32 -74.5t-32 -74t-79 -31zM748 1434l469 -1233q27 -74 65.5 -108.5t106.5 -41.5
v-51h-533v51q115 7 148 34t8 93l-101 262h-559l-98 -262q-23 -60 17 -90t157 -37v-51h-455v51q75 7 118.5 40t66.5 99l473 1244h117zM629 1171l-242 -641h490z" />
    <glyph glyph-name="Aring" unicode="&#xc5;" horiz-adv-x="1361" 
d="M684 1567q-86 0 -145.5 59.5t-59.5 142.5q0 85 59.5 145t145.5 60q85 0 145 -60t60 -145q0 -81 -62 -143q-59 -59 -143 -59zM774 1860q-37 37 -90 37t-90 -37q-35 -37 -35 -90.5t35 -90.5q37 -37 90 -37t90 37t37 90.5t-37 90.5zM748 1434l469 -1233q27 -74 65.5 -108.5
t106.5 -41.5v-51h-533v51q115 7 148 34t8 93l-101 262h-559l-98 -262q-23 -60 17 -90t157 -37v-51h-455v51q75 7 118.5 40t66.5 99l473 1244h117zM629 1171l-242 -641h490z" />
    <glyph glyph-name="AE" unicode="&#xc6;" horiz-adv-x="2181" 
d="M2124 403l41 -26l-201 -377h-1130v51q127 9 163 37q35 27 35 141v215h-565l-156 -223q-48 -75 -14 -118.5t139 -51.5v-51h-469v51q113 3 236 178l774 1114q-47 33 -195 39v52h1184l137 -334l-43 -23q-102 139 -225.5 201.5t-310.5 62.5h-228q-61 0 -61 -61v-485h332
q103 0 142.5 44.5t47.5 153.5h53v-489h-53q-8 109 -47.5 153.5t-142.5 44.5h-332v-548q0 -62 61 -62h211q215 0 353 78q137 76 264 233zM1032 1262l-502 -725h502v725z" />
    <glyph glyph-name="Ccedilla" unicode="&#xc7;" horiz-adv-x="1433" 
d="M1280 397l92 -30q-138 -375 -549 -396l-45 -104q27 10 58 10q75 0 119 -35t44 -100q0 -76 -74.5 -133.5t-189.5 -57.5q-92 0 -154.5 34.5t-62.5 82.5q0 26 18 45t44 19q46 0 69 -51q27 -64 99 -64q56 0 89 27.5t33 70.5q0 31 -23.5 51.5t-60.5 20.5q-52 0 -84 -29l-49 21
l82 190q-283 15 -465 224q-180 210 -180 524q0 325 193 536t491 211q222 0 363 -102l30 72h60l127 -400l-47 -16q-195 358 -521 358q-235 0 -354 -180q-117 -178 -117 -479q0 -308 120.5 -483t350.5 -175q168 0 310 91q136 88 184 247z" />
    <glyph glyph-name="Egrave" unicode="&#xc8;" horiz-adv-x="1409" 
d="M600 1849l188 -297h-81l-275 240q-43 40 -43 59q0 31 33 31h121q37 0 57 -33zM524 92h213q212 0 350 78q139 77 265 233l43 -26l-201 -377h-1133v51q128 9 164 37q35 27 35 141v975q0 115 -35 142q-34 27 -164 36v52h1135l137 -334l-43 -23q-102 139 -225.5 201.5
t-310.5 62.5h-230q-61 0 -61 -61v-485h332q103 0 142 43t50 155h53v-489h-53q-11 112 -50 155t-142 43h-332v-548q0 -62 61 -62z" />
    <glyph glyph-name="Eacute" unicode="&#xc9;" horiz-adv-x="1409" 
d="M668 1552l188 297q20 33 57 33h121q33 0 33 -31q0 -19 -43 -59l-274 -240h-82zM524 92h213q212 0 350 78q139 77 265 233l43 -26l-201 -377h-1133v51q128 9 164 37q35 27 35 141v975q0 115 -35 142q-34 27 -164 36v52h1135l137 -334l-43 -23q-102 139 -225.5 201.5
t-310.5 62.5h-230q-61 0 -61 -61v-485h332q103 0 142 43t50 155h53v-489h-53q-11 112 -50 155t-142 43h-332v-548q0 -62 61 -62z" />
    <glyph glyph-name="Ecircumflex" unicode="&#xca;" horiz-adv-x="1409" 
d="M418 1550l205 301q21 37 61 37h90q41 0 62 -37l204 -301h-84l-227 217l-227 -217h-84zM524 92h213q212 0 350 78q139 77 265 233l43 -26l-201 -377h-1133v51q128 9 164 37q35 27 35 141v975q0 115 -35 142q-34 27 -164 36v52h1135l137 -334l-43 -23
q-102 139 -225.5 201.5t-310.5 62.5h-230q-61 0 -61 -61v-485h332q103 0 142 43t50 155h53v-489h-53q-11 112 -50 155t-142 43h-332v-548q0 -62 61 -62z" />
    <glyph glyph-name="Edieresis" unicode="&#xcb;" horiz-adv-x="1409" 
d="M559 1878q47 0 78 -30.5t31 -75.5q0 -43 -31 -74t-78 -31q-48 0 -79 30.5t-31 74.5q0 45 30.5 75.5t79.5 30.5zM899 1878q47 0 79 -31.5t32 -74.5t-32 -74t-79 -31q-48 0 -78 30.5t-30 74.5q0 45 30 75.5t78 30.5zM524 92h213q212 0 350 78q139 77 265 233l43 -26
l-201 -377h-1133v51q128 9 164 37q35 27 35 141v975q0 115 -35 142q-34 27 -164 36v52h1135l137 -334l-43 -23q-102 139 -225.5 201.5t-310.5 62.5h-230q-61 0 -61 -61v-485h332q103 0 142 43t50 155h53v-489h-53q-11 112 -50 155t-142 43h-332v-548q0 -62 61 -62z" />
    <glyph glyph-name="Igrave" unicode="&#xcc;" horiz-adv-x="722" 
d="M233 1849l189 -297h-82l-274 240q-43 40 -43 59q0 31 32 31h121q37 0 57 -33zM662 0h-601v51q128 9 164 37q35 27 35 141v975q0 115 -35 142q-34 27 -164 36v52h601v-52q-130 -9 -164 -36q-35 -27 -35 -142v-975q0 -114 35 -141q36 -28 164 -37v-51z" />
    <glyph glyph-name="Iacute" unicode="&#xcd;" horiz-adv-x="722" 
d="M301 1552l188 297q20 33 58 33h121q32 0 32 -31q0 -19 -43 -59l-274 -240h-82zM662 0h-601v51q128 9 164 37q35 27 35 141v975q0 115 -35 142q-34 27 -164 36v52h601v-52q-130 -9 -164 -36q-35 -27 -35 -142v-975q0 -114 35 -141q36 -28 164 -37v-51z" />
    <glyph glyph-name="Icircumflex" unicode="&#xce;" horiz-adv-x="722" 
d="M51 1550l205 301q21 37 61 37h91q40 0 61 -37l205 -301h-84l-228 217l-227 -217h-84zM662 0h-601v51q128 9 164 37q35 27 35 141v975q0 115 -35 142q-34 27 -164 36v52h601v-52q-130 -9 -164 -36q-35 -27 -35 -142v-975q0 -114 35 -141q36 -28 164 -37v-51z" />
    <glyph glyph-name="Idieresis" unicode="&#xcf;" horiz-adv-x="722" 
d="M193 1878q47 0 77.5 -30.5t30.5 -75.5q0 -44 -30.5 -74.5t-77.5 -30.5q-49 0 -80 30.5t-31 74.5q0 45 31 75.5t80 30.5zM532 1667q-48 0 -78 30.5t-30 74.5q-4 33 16.5 59.5t50 38t64 6t57.5 -30.5q23 -23 28 -54.5t-6.5 -58.5t-38.5 -46t-63 -19zM662 0h-601v51
q128 9 164 37q35 27 35 141v975q0 115 -35 142q-34 27 -164 36v52h601v-52q-130 -9 -164 -36q-35 -27 -35 -142v-975q0 -114 35 -141q36 -28 164 -37v-51z" />
    <glyph glyph-name="Eth" unicode="&#xd0;" horiz-adv-x="1564" 
d="M61 1434h646q365 0 566.5 -184.5t201.5 -532.5t-201.5 -532.5t-566.5 -184.5h-646v51q128 9 164 37q35 27 35 141v473h-199v93h199v409q0 115 -35 142q-34 27 -164 36v52zM524 92h183q81 0 147 11.5t129.5 37.5t110 73t82.5 115t54.5 166t18.5 222q0 107 -14 194.5
t-39.5 151.5t-63.5 112.5t-82.5 80t-101 50.5t-114.5 27t-127 8h-183q-61 0 -61 -61v-485h203v-93h-203v-548q0 -62 61 -62z" />
    <glyph glyph-name="Ntilde" unicode="&#xd1;" horiz-adv-x="1552" 
d="M1001 1858h62q-7 -100 -52 -152.5t-116 -52.5q-56 0 -139 59q-73 49 -105 49q-65 0 -80 -90h-63q7 100 52 152.5t116 52.5q56 0 139 -59q77 -50 107 -50q64 0 79 91zM567 0h-506v51q128 9 164 37q37 27 37 141v975q0 115 -37 142q-34 27 -164 36v52h447l700 -1072v842
q0 117 -32 142q-35 27 -162 36v52h495v-52q-128 -9 -163 -36q-33 -26 -33 -142v-1204h-111l-835 1278v-1049q0 -114 34 -141q39 -28 166 -37v-51z" />
    <glyph glyph-name="Ograve" unicode="&#xd2;" horiz-adv-x="1542" 
d="M641 1849l188 -297h-81l-275 240q-43 40 -43 59q0 31 33 31h121q37 0 57 -33zM770 1464q311 0 496 -209q186 -207 186 -538q0 -332 -186 -539q-185 -209 -496 -209q-308 0 -496 209q-184 208 -184 539q0 330 184 538q188 209 496 209zM770 59q457 0 457 658
q0 659 -457 659q-455 0 -455 -659q0 -658 455 -658z" />
    <glyph glyph-name="Oacute" unicode="&#xd3;" horiz-adv-x="1542" 
d="M709 1552l188 297q20 33 57 33h121q33 0 33 -31q0 -19 -43 -59l-274 -240h-82zM770 1464q311 0 496 -209q186 -207 186 -538q0 -332 -186 -539q-185 -209 -496 -209q-308 0 -496 209q-184 208 -184 539q0 330 184 538q188 209 496 209zM770 59q457 0 457 658
q0 659 -457 659q-455 0 -455 -659q0 -658 455 -658z" />
    <glyph glyph-name="Ocircumflex" unicode="&#xd4;" horiz-adv-x="1542" 
d="M459 1550l205 301q21 37 61 37h90q41 0 62 -37l204 -301h-84l-227 217l-227 -217h-84zM770 1464q311 0 496 -209q186 -207 186 -538q0 -332 -186 -539q-185 -209 -496 -209q-308 0 -496 209q-184 208 -184 539q0 330 184 538q188 209 496 209zM770 59q457 0 457 658
q0 659 -457 659q-455 0 -455 -659q0 -658 455 -658z" />
    <glyph glyph-name="Otilde" unicode="&#xd5;" horiz-adv-x="1542" 
d="M987 1858h62q-7 -100 -52 -152.5t-116 -52.5q-57 0 -140 59q-73 49 -104 49q-65 0 -80 -90h-63q7 100 52 152.5t116 52.5q56 0 139 -59q77 -50 106 -50q65 0 80 91zM770 1464q311 0 496 -209q186 -207 186 -538q0 -332 -186 -539q-185 -209 -496 -209q-308 0 -496 209
q-184 208 -184 539q0 330 184 538q188 209 496 209zM770 59q457 0 457 658q0 659 -457 659q-455 0 -455 -659q0 -658 455 -658z" />
    <glyph glyph-name="Odieresis" unicode="&#xd6;" horiz-adv-x="1542" 
d="M600 1878q47 0 78 -30.5t31 -75.5q0 -43 -31 -74t-78 -31q-49 0 -80 30.5t-31 74.5q0 45 31 75.5t80 30.5zM940 1878q47 0 79 -31.5t32 -74.5t-32 -74t-79 -31q-48 0 -78.5 30.5t-30.5 74.5q0 45 30 75.5t79 30.5zM770 1464q311 0 496 -209q186 -207 186 -538
q0 -332 -186 -539q-185 -209 -496 -209q-308 0 -496 209q-184 208 -184 539q0 330 184 538q188 209 496 209zM770 59q457 0 457 658q0 659 -457 659q-455 0 -455 -659q0 -658 455 -658z" />
    <glyph glyph-name="multiply" unicode="&#xd7;" horiz-adv-x="1130" 
d="M207 291l-72 71l357 355l-357 356l72 72l356 -357l359 359l71 -72l-358 -358l358 -357l-71 -71l-359 356z" />
    <glyph glyph-name="Oslash" unicode="&#xd8;" horiz-adv-x="1542" 
d="M1419 1434l-149 -183q182 -206 182 -534q0 -332 -186 -539q-185 -209 -496 -209q-255 0 -436 152l-98 -121h-113l149 180q-182 206 -182 537q0 330 184 538q188 209 496 209q258 0 438 -151l99 121h112zM315 717q0 -244 66 -404l735 889q-113 174 -346 174
q-455 0 -455 -659zM770 59q457 0 457 658q0 243 -66 403l-735 -889q114 -172 344 -172z" />
    <glyph glyph-name="Ugrave" unicode="&#xd9;" horiz-adv-x="1568" 
d="M676 1849l188 -297h-82l-274 240q-43 40 -43 59q0 31 33 31h120q38 0 58 -33zM444 1204v-782q0 -176 108 -267.5t298 -91.5q166 0 269.5 94t103.5 261v786q0 115 -35 142q-34 27 -164 36v52h502v-52q-130 -9 -164 -36q-35 -27 -35 -142v-786q0 -192 -133 -322
q-133 -127 -379 -127q-274 0 -423.5 115.5t-149.5 333.5v786q0 115 -35 142q-34 27 -164 36v52h600v-52q-130 -9 -164 -36q-35 -27 -35 -142z" />
    <glyph glyph-name="Uacute" unicode="&#xda;" horiz-adv-x="1568" 
d="M743 1552l189 297q20 33 57 33h121q33 0 33 -31q0 -19 -43 -59l-275 -240h-82zM444 1204v-782q0 -176 108 -267.5t298 -91.5q166 0 269.5 94t103.5 261v786q0 115 -35 142q-34 27 -164 36v52h502v-52q-130 -9 -164 -36q-35 -27 -35 -142v-786q0 -192 -133 -322
q-133 -127 -379 -127q-274 0 -423.5 115.5t-149.5 333.5v786q0 115 -35 142q-34 27 -164 36v52h600v-52q-130 -9 -164 -36q-35 -27 -35 -142z" />
    <glyph glyph-name="Ucircumflex" unicode="&#xdb;" horiz-adv-x="1568" 
d="M494 1550l204 301q21 37 62 37h90q40 0 61 -37l205 -301h-84l-227 217l-227 -217h-84zM444 1204v-782q0 -176 108 -267.5t298 -91.5q166 0 269.5 94t103.5 261v786q0 115 -35 142q-34 27 -164 36v52h502v-52q-130 -9 -164 -36q-35 -27 -35 -142v-786q0 -192 -133 -322
q-133 -127 -379 -127q-274 0 -423.5 115.5t-149.5 333.5v786q0 115 -35 142q-34 27 -164 36v52h600v-52q-130 -9 -164 -36q-35 -27 -35 -142z" />
    <glyph glyph-name="Udieresis" unicode="&#xdc;" horiz-adv-x="1568" 
d="M635 1878q47 0 77.5 -30.5t30.5 -75.5q0 -44 -30.5 -74.5t-77.5 -30.5q-49 0 -80 30.5t-31 74.5q0 45 31 75.5t80 30.5zM975 1667q-48 0 -78.5 30.5t-30.5 74.5q-4 33 16.5 59.5t50.5 38t64.5 6t57.5 -30.5q23 -23 28 -54.5t-6.5 -58.5t-38.5 -46t-63 -19zM444 1204v-782
q0 -176 108 -267.5t298 -91.5q166 0 269.5 94t103.5 261v786q0 115 -35 142q-34 27 -164 36v52h502v-52q-130 -9 -164 -36q-35 -27 -35 -142v-786q0 -192 -133 -322q-133 -127 -379 -127q-274 0 -423.5 115.5t-149.5 333.5v786q0 115 -35 142q-34 27 -164 36v52h600v-52
q-130 -9 -164 -36q-35 -27 -35 -142z" />
    <glyph glyph-name="Yacute" unicode="&#xdd;" horiz-adv-x="1290" 
d="M592 1552l188 297q20 33 58 33h120q33 0 33 -31q0 -19 -43 -59l-274 -240h-82zM549 229v369l-373 606q-62 101 -98 137q-32 32 -105 41v52h539v-52q-109 -8 -133 -46.5t27 -129.5l299 -493l284 491q50 91 24 130.5t-136 47.5v52h440v-52q-81 -9 -121 -43
q-36 -31 -96 -135l-348 -602v-373q0 -114 34 -141q36 -28 164 -37v-51h-600v51q128 9 164 37q35 27 35 141z" />
    <glyph glyph-name="Thorn" unicode="&#xde;" horiz-adv-x="1411" 
d="M61 1434h601v-52q-130 -9 -164 -36q-35 -27 -35 -142v-90h309q580 0 580 -364q0 -365 -582 -365h-307v-156q0 -114 35 -141q36 -28 164 -37v-51h-601v51q128 9 164 37q35 27 35 141v975q0 115 -35 142q-34 27 -164 36v52zM772 1024h-309v-547h307q356 0 356 273
q0 274 -354 274z" />
    <glyph glyph-name="germandbls" unicode="&#xdf;" horiz-adv-x="1255" 
d="M53 840v84h140v67q0 232 116.5 352.5t313.5 120.5q167 0 268.5 -79.5t101.5 -213.5q0 -85 -71.5 -161.5t-190.5 -104.5q215 -32 336 -152t121 -327t-105.5 -332t-289.5 -125q-150 0 -238 82q-86 83 -86 187q0 43 24.5 68.5t63.5 25.5q83 0 92 -109q12 -91 46.5 -132.5
t97.5 -41.5q107 0 152.5 92.5t45.5 282.5q0 220 -107 320t-327 100h-59v80q153 0 237 70.5t84 176.5q0 97 -55.5 155t-149.5 58q-113 0 -177 -69t-64 -207v-950q0 -53 22.5 -76t77.5 -31v-51h-420v51q84 7 112 29t28 78v682h-140z" />
    <glyph glyph-name="agrave" unicode="&#xe0;" horiz-adv-x="1060" 
d="M414 1339l188 -297h-82l-274 240q-43 40 -43 59q0 31 33 31h120q38 0 58 -33zM688 104q-186 -131 -340 -131q-130 0 -203 57.5t-73 162.5q0 156 176 239q86 39 182.5 63.5t253.5 51.5v123q0 117 -31.5 162t-115.5 45q-175 0 -213 -150q-27 -98 -103 -98q-80 0 -80 92
t113 162q115 71 293 71q319 0 319 -288v-482q0 -110 66 -110q30 0 76 22v-73q-67 -46 -160 -46q-136 0 -160 127zM684 184v285q-216 -32 -316 -89t-100 -163q0 -68 39 -103.5t107 -35.5q120 0 270 106z" />
    <glyph glyph-name="aacute" unicode="&#xe1;" horiz-adv-x="1060" 
d="M481 1042l189 297q20 33 57 33h121q33 0 33 -31q0 -19 -43 -59l-275 -240h-82zM688 104q-186 -131 -340 -131q-130 0 -203 57.5t-73 162.5q0 156 176 239q86 39 182.5 63.5t253.5 51.5v123q0 117 -31.5 162t-115.5 45q-175 0 -213 -150q-27 -98 -103 -98q-80 0 -80 92
t113 162q115 71 293 71q319 0 319 -288v-482q0 -110 66 -110q30 0 76 22v-73q-67 -46 -160 -46q-136 0 -160 127zM684 184v285q-216 -32 -316 -89t-100 -163q0 -68 39 -103.5t107 -35.5q120 0 270 106z" />
    <glyph glyph-name="acircumflex" unicode="&#xe2;" horiz-adv-x="1060" 
d="M231 1040l205 301q21 37 62 37h90q40 0 61 -37l205 -301h-84l-227 217l-228 -217h-84zM688 104q-186 -131 -340 -131q-130 0 -203 57.5t-73 162.5q0 156 176 239q86 39 182.5 63.5t253.5 51.5v123q0 117 -31.5 162t-115.5 45q-175 0 -213 -150q-27 -98 -103 -98
q-80 0 -80 92t113 162q115 71 293 71q319 0 319 -288v-482q0 -110 66 -110q30 0 76 22v-73q-67 -46 -160 -46q-136 0 -160 127zM684 184v285q-216 -32 -316 -89t-100 -163q0 -68 39 -103.5t107 -35.5q120 0 270 106z" />
    <glyph glyph-name="atilde" unicode="&#xe3;" horiz-adv-x="1060" 
d="M760 1348h61q-7 -100 -52 -152.5t-116 -52.5q-56 0 -139 59q-73 49 -104 49q-65 0 -80 -90h-64q7 100 52 152.5t116 52.5q56 0 139 -59q77 -50 107 -50q65 0 80 91zM688 104q-186 -131 -340 -131q-130 0 -203 57.5t-73 162.5q0 156 176 239q86 39 182.5 63.5t253.5 51.5
v123q0 117 -31.5 162t-115.5 45q-175 0 -213 -150q-27 -98 -103 -98q-80 0 -80 92t113 162q115 71 293 71q319 0 319 -288v-482q0 -110 66 -110q30 0 76 22v-73q-67 -46 -160 -46q-136 0 -160 127zM684 184v285q-216 -32 -316 -89t-100 -163q0 -68 39 -103.5t107 -35.5
q120 0 270 106z" />
    <glyph glyph-name="adieresis" unicode="&#xe4;" horiz-adv-x="1060" 
d="M373 1368q47 0 77.5 -30.5t30.5 -75.5q0 -44 -30.5 -74.5t-77.5 -30.5q-49 0 -80 30.5t-31 74.5q0 45 31 75.5t80 30.5zM823 1262q0 -43 -31.5 -74t-78.5 -31q-48 0 -78.5 30.5t-30.5 74.5q0 45 30 75.5t79 30.5t79.5 -30.5t30.5 -75.5zM688 104q-186 -131 -340 -131
q-130 0 -203 57.5t-73 162.5q0 156 176 239q86 39 182.5 63.5t253.5 51.5v123q0 117 -31.5 162t-115.5 45q-175 0 -213 -150q-27 -98 -103 -98q-80 0 -80 92t113 162q115 71 293 71q319 0 319 -288v-482q0 -110 66 -110q30 0 76 22v-73q-67 -46 -160 -46q-136 0 -160 127z
M684 184v285q-216 -32 -316 -89t-100 -163q0 -68 39 -103.5t107 -35.5q120 0 270 106z" />
    <glyph glyph-name="aring" unicode="&#xe5;" horiz-adv-x="1060" 
d="M543 1464q85 0 145 -59.5t60 -144.5q0 -82 -62 -144q-59 -59 -143 -59q-85 0 -145 60t-60 143q0 85 59.5 144.5t145.5 59.5zM453 1169q37 -37 90 -37t90 37t37 90.5t-37 90.5t-90 37t-90 -37q-35 -37 -35 -90.5t35 -90.5zM688 104q-186 -131 -340 -131q-130 0 -203 57.5
t-73 162.5q0 156 176 239q86 39 182.5 63.5t253.5 51.5v123q0 117 -31.5 162t-115.5 45q-175 0 -213 -150q-27 -98 -103 -98q-80 0 -80 92t113 162q115 71 293 71q319 0 319 -288v-482q0 -110 66 -110q30 0 76 22v-73q-67 -46 -160 -46q-136 0 -160 127zM684 184v285
q-216 -32 -316 -89t-100 -163q0 -68 39 -103.5t107 -35.5q120 0 270 106z" />
    <glyph glyph-name="ae" unicode="&#xe6;" horiz-adv-x="1652" 
d="M815 793q112 161 332 161q185 0 293 -104.5t108 -288.5h-663q-6 -49 -6 -98q0 -408 319 -408q99 0 180 62.5t129 173.5l76 -35q-121 -287 -397 -287q-272 0 -410 181q-216 -177 -428 -177q-130 0 -203 57.5t-73 162.5q0 156 176 239q86 39 182.5 63.5t253.5 51.5v123
q0 117 -31.5 162t-115.5 45q-175 0 -213 -150q-27 -98 -103 -98q-80 0 -80 92t113 162q115 71 293 71q210 0 268 -161zM893 643h473q0 107 -59.5 169t-157.5 62q-213 0 -256 -231zM684 469q-216 -32 -316 -89t-100 -163q0 -68 39 -103.5t107 -35.5q153 0 327 131
q-57 105 -57 260z" />
    <glyph glyph-name="ccedilla" unicode="&#xe7;" horiz-adv-x="987" 
d="M866 295l74 -39q-114 -272 -362 -287l-46 -102q27 10 58 10q75 0 119.5 -35t44.5 -100q0 -76 -75 -133.5t-190 -57.5q-92 0 -154.5 34.5t-62.5 82.5q0 26 18 45t44 19q46 0 69 -51q27 -64 99 -64q56 0 89.5 27.5t33.5 70.5q0 31 -23.5 51.5t-60.5 20.5q-52 0 -84 -29
l-49 21l81 192q-196 21 -307 156q-110 134 -110 336q0 212 129 350q129 141 325 141q155 0 258 -71q105 -70 105 -160q0 -44 -26 -69t-68 -25q-78 0 -99 98q-24 147 -170 147q-258 0 -258 -411q0 -190 78 -299t223 -109q195 0 297 240z" />
    <glyph glyph-name="egrave" unicode="&#xe8;" horiz-adv-x="1042" 
d="M406 1339l188 -297h-82l-274 240q-43 40 -43 59q0 31 32 31h121q38 0 58 -33zM938 561h-666q-4 -86 -4 -98q0 -408 320 -408q98 0 180 62.5t129 173.5l76 -35q-121 -287 -398 -287q-239 0 -370 137q-133 139 -133 357q0 215 125 352q127 139 338 139q185 0 294 -104.5
t109 -288.5zM283 643h473q0 107 -60.5 169t-158.5 62q-211 0 -254 -231z" />
    <glyph glyph-name="eacute" unicode="&#xe9;" horiz-adv-x="1042" 
d="M473 1042l189 297q20 33 57 33h121q32 0 32 -31q0 -19 -43 -59l-274 -240h-82zM938 561h-666q-4 -86 -4 -98q0 -408 320 -408q98 0 180 62.5t129 173.5l76 -35q-121 -287 -398 -287q-239 0 -370 137q-133 139 -133 357q0 215 125 352q127 139 338 139q185 0 294 -104.5
t109 -288.5zM283 643h473q0 107 -60.5 169t-158.5 62q-211 0 -254 -231z" />
    <glyph glyph-name="ecircumflex" unicode="&#xea;" horiz-adv-x="1042" 
d="M223 1040l205 301q21 37 61 37h91q40 0 61 -37l205 -301h-84l-227 217l-228 -217h-84zM938 561h-666q-4 -86 -4 -98q0 -408 320 -408q98 0 180 62.5t129 173.5l76 -35q-121 -287 -398 -287q-239 0 -370 137q-133 139 -133 357q0 215 125 352q127 139 338 139
q185 0 294 -104.5t109 -288.5zM283 643h473q0 107 -60.5 169t-158.5 62q-211 0 -254 -231z" />
    <glyph glyph-name="edieresis" unicode="&#xeb;" horiz-adv-x="1042" 
d="M365 1368q47 0 77.5 -30.5t30.5 -75.5q0 -44 -30.5 -74.5t-77.5 -30.5q-49 0 -80 30.5t-31 74.5q0 45 31 75.5t80 30.5zM815 1262q0 -43 -31.5 -74t-78.5 -31q-48 0 -78.5 30.5t-30.5 74.5q0 45 30 75.5t79 30.5t79.5 -30.5t30.5 -75.5zM938 561h-666q-4 -86 -4 -98
q0 -408 320 -408q98 0 180 62.5t129 173.5l76 -35q-121 -287 -398 -287q-239 0 -370 137q-133 139 -133 357q0 215 125 352q127 139 338 139q185 0 294 -104.5t109 -288.5zM283 643h473q0 107 -60.5 169t-158.5 62q-211 0 -254 -231z" />
    <glyph glyph-name="igrave" unicode="&#xec;" horiz-adv-x="565" 
d="M154 1339l188 -297h-82l-274 240q-43 40 -43 59q0 31 32 31h121q38 0 58 -33zM510 0h-457v51q84 7 112 29t28 78v528q0 68 -64 68h-76v41l256 159h64v-796q0 -56 28 -78t109 -29v-51z" />
    <glyph glyph-name="iacute" unicode="&#xed;" horiz-adv-x="565" 
d="M221 1042l189 297q20 33 57 33h121q33 0 33 -31q0 -19 -43 -59l-275 -240h-82zM510 0h-457v51q84 7 112 29t28 78v528q0 68 -64 68h-76v41l256 159h64v-796q0 -56 28 -78t109 -29v-51z" />
    <glyph glyph-name="icircumflex" unicode="&#xee;" horiz-adv-x="565" 
d="M-29 1040l205 301q21 37 62 37h90q40 0 61 -37l205 -301h-84l-227 217l-228 -217h-84zM510 0h-457v51q84 7 112 29t28 78v528q0 68 -64 68h-76v41l256 159h64v-796q0 -56 28 -78t109 -29v-51z" />
    <glyph glyph-name="idieresis" unicode="&#xef;" horiz-adv-x="565" 
d="M113 1368q47 0 77.5 -30.5t30.5 -75.5q0 -44 -30.5 -74.5t-77.5 -30.5q-49 0 -80 30.5t-31 74.5q0 45 31 75.5t80 30.5zM453 1368q47 0 78.5 -30.5t31.5 -75.5q0 -43 -31.5 -74t-78.5 -31q-48 0 -78.5 30.5t-30.5 74.5q0 45 30 75.5t79 30.5zM510 0h-457v51q84 7 112 29
t28 78v528q0 68 -64 68h-76v41l256 159h64v-796q0 -56 28 -78t109 -29v-51z" />
    <glyph glyph-name="eth" unicode="&#xf0;" horiz-adv-x="1112" 
d="M1024 1350l-215 -84q227 -306 227 -688q0 -284 -129 -447q-125 -162 -344 -162t-356 140q-135 138 -135 352q0 215 131 352q132 141 338 141q151 0 264 -94q-40 195 -117 359l-280 -109v84l243 94q-55 95 -129 176h101q70 -60 137 -133l264 103v-84zM563 49
q144 0 208.5 125.5t64.5 372.5q0 91 -13 198q-111 129 -268 129q-283 0 -283 -419q0 -406 291 -406z" />
    <glyph glyph-name="ntilde" unicode="&#xf1;" horiz-adv-x="1171" 
d="M803 1348h61q-7 -100 -52 -152.5t-116 -52.5q-56 0 -139 59q-73 49 -104 49q-65 0 -80 -90h-64q7 100 52 152.5t116 52.5q56 0 139 -59q77 -50 107 -50q65 0 80 91zM1118 0h-456v51q83 7 110 29t27 78v520q0 172 -160 172q-141 0 -266 -88v-604q0 -56 28 -78t109 -29v-51
h-457v51q84 7 112 29t28 78v528q0 68 -64 68h-76v41l256 159h64v-102q166 102 317 102q40 0 77 -6.5t77.5 -25t69.5 -48t48 -80t19 -116.5v-520q0 -56 28 -78t109 -29v-51z" />
    <glyph glyph-name="ograve" unicode="&#xf2;" horiz-adv-x="1107" 
d="M424 1339l188 -297h-82l-274 240q-43 40 -43 59q0 31 33 31h121q37 0 57 -33zM1036 463q0 -213 -135 -354q-134 -140 -348 -140q-211 0 -348 140q-133 142 -133 354q0 211 133 350q135 141 348 141t348 -141q135 -138 135 -350zM553 874q-285 0 -285 -411q0 -188 68 -303
q70 -111 217 -111t217 111q70 113 70 303q0 196 -71.5 303.5t-215.5 107.5z" />
    <glyph glyph-name="oacute" unicode="&#xf3;" horiz-adv-x="1107" 
d="M492 1042l188 297q20 33 57 33h121q33 0 33 -31q0 -19 -43 -59l-275 -240h-81zM1036 463q0 -213 -135 -354q-134 -140 -348 -140q-211 0 -348 140q-133 142 -133 354q0 211 133 350q135 141 348 141t348 -141q135 -138 135 -350zM553 874q-285 0 -285 -411
q0 -188 68 -303q70 -111 217 -111t217 111q70 113 70 303q0 196 -71.5 303.5t-215.5 107.5z" />
    <glyph glyph-name="ocircumflex" unicode="&#xf4;" horiz-adv-x="1107" 
d="M242 1040l204 301q21 37 62 37h90q40 0 61 -37l205 -301h-84l-227 217l-227 -217h-84zM1036 463q0 -213 -135 -354q-134 -140 -348 -140q-211 0 -348 140q-133 142 -133 354q0 211 133 350q135 141 348 141t348 -141q135 -138 135 -350zM553 874q-285 0 -285 -411
q0 -188 68 -303q70 -111 217 -111t217 111q70 113 70 303q0 196 -71.5 303.5t-215.5 107.5z" />
    <glyph glyph-name="otilde" unicode="&#xf5;" horiz-adv-x="1107" 
d="M770 1348h61q-7 -100 -51.5 -152.5t-115.5 -52.5q-57 0 -140 59q-73 49 -104 49q-65 0 -80 -90h-64q7 100 52 152.5t116 52.5q57 0 140 -59q77 -50 106 -50q65 0 80 91zM1036 463q0 -213 -135 -354q-134 -140 -348 -140q-211 0 -348 140q-133 142 -133 354q0 211 133 350
q135 141 348 141t348 -141q135 -138 135 -350zM553 874q-285 0 -285 -411q0 -188 68 -303q70 -111 217 -111t217 111q70 113 70 303q0 196 -71.5 303.5t-215.5 107.5z" />
    <glyph glyph-name="odieresis" unicode="&#xf6;" horiz-adv-x="1107" 
d="M383 1368q47 0 78 -30.5t31 -75.5q0 -43 -31 -74t-78 -31q-49 0 -80 30.5t-31 74.5q0 45 31 75.5t80 30.5zM723 1368q47 0 79 -31t32 -75q0 -43 -32 -74t-79 -31q-48 0 -78.5 30.5t-30.5 74.5q0 45 30 75.5t79 30.5zM1036 463q0 -213 -135 -354q-134 -140 -348 -140
q-211 0 -348 140q-133 142 -133 354q0 211 133 350q135 141 348 141t348 -141q135 -138 135 -350zM553 874q-285 0 -285 -411q0 -188 68 -303q70 -111 217 -111t217 111q70 113 70 303q0 196 -71.5 303.5t-215.5 107.5z" />
    <glyph glyph-name="divide" unicode="&#xf7;" horiz-adv-x="1130" 
d="M563 1204q55 0 92 -36.5t37 -90.5q0 -55 -37 -92t-92 -37q-57 0 -93 36.5t-36 92.5t36 91.5t93 35.5zM20 668v102h1090v-102h-1090zM563 489q56 0 92.5 -36t36.5 -91q0 -56 -37 -92.5t-92 -36.5q-57 0 -93 36.5t-36 92.5t36 91.5t93 35.5z" />
    <glyph glyph-name="oslash" unicode="&#xf8;" horiz-adv-x="1107" 
d="M1016 924l-105 -119q125 -137 125 -342q0 -213 -135 -354q-134 -140 -348 -140q-171 0 -297 97l-57 -66h-107l105 119q-125 137 -125 344q0 211 133 350q135 141 348 141q171 0 299 -96l57 66h107zM268 463q0 -137 33 -227l469 530q-76 108 -217 108q-285 0 -285 -411z
M553 49q144 0 215.5 109t71.5 305q0 137 -33 225l-469 -530q77 -109 215 -109z" />
    <glyph glyph-name="ugrave" unicode="&#xf9;" horiz-adv-x="1155" 
d="M438 1339l189 -297h-82l-275 240q-43 40 -43 59q0 31 33 31h121q37 0 57 -33zM643 754v41l256 159h64v-796q0 -56 28 -78t109 -29v-51q-157 0 -318 -31v101q-162 -101 -317 -101q-40 0 -77 6.5t-77.5 25.5t-69.5 48.5t-48 80t-19 116.5v440q0 68 -63 68h-74v41l256 159
h61v-708q0 -172 162 -172q129 0 266 88v524q0 37 -15 52.5t-50 15.5h-74z" />
    <glyph glyph-name="uacute" unicode="&#xfa;" horiz-adv-x="1155" 
d="M506 1042l188 297q20 33 58 33h120q33 0 33 -31q0 -19 -43 -59l-274 -240h-82zM643 754v41l256 159h64v-796q0 -56 28 -78t109 -29v-51q-157 0 -318 -31v101q-162 -101 -317 -101q-40 0 -77 6.5t-77.5 25.5t-69.5 48.5t-48 80t-19 116.5v440q0 68 -63 68h-74v41l256 159
h61v-708q0 -172 162 -172q129 0 266 88v524q0 37 -15 52.5t-50 15.5h-74z" />
    <glyph glyph-name="ucircumflex" unicode="&#xfb;" horiz-adv-x="1155" 
d="M256 1040l205 301q21 37 61 37h90q41 0 62 -37l205 -301h-84l-228 217l-227 -217h-84zM643 754v41l256 159h64v-796q0 -56 28 -78t109 -29v-51q-157 0 -318 -31v101q-162 -101 -317 -101q-40 0 -77 6.5t-77.5 25.5t-69.5 48.5t-48 80t-19 116.5v440q0 68 -63 68h-74v41
l256 159h61v-708q0 -172 162 -172q129 0 266 88v524q0 37 -15 52.5t-50 15.5h-74z" />
    <glyph glyph-name="udieresis" unicode="&#xfc;" horiz-adv-x="1155" 
d="M397 1368q47 0 78 -30.5t31 -75.5q0 -43 -31 -74t-78 -31q-48 0 -79 30.5t-31 74.5q0 45 30.5 75.5t79.5 30.5zM848 1262q0 -43 -32 -74t-79 -31q-48 0 -78 30.5t-30 74.5q0 45 30 75.5t78 30.5q49 0 80 -30.5t31 -75.5zM643 754v41l256 159h64v-796q0 -56 28 -78
t109 -29v-51q-157 0 -318 -31v101q-162 -101 -317 -101q-40 0 -77 6.5t-77.5 25.5t-69.5 48.5t-48 80t-19 116.5v440q0 68 -63 68h-74v41l256 159h61v-708q0 -172 162 -172q129 0 266 88v524q0 37 -15 52.5t-50 15.5h-74z" />
    <glyph glyph-name="yacute" unicode="&#xfd;" horiz-adv-x="948" 
d="M424 1042l188 297q20 33 58 33h121q32 0 32 -31q0 -19 -43 -59l-274 -240h-82zM801 694l-350 -874q-89 -228 -287 -228q-86 0 -142.5 36t-56.5 93q0 39 29.5 68t71.5 29q46 0 92 -49q46 -52 80 -52q78 0 131 140l47 120l-273 717q-40 100 -67 135q-27 34 -94 43v52h450
v-52q-100 -7 -117.5 -45.5t23.5 -132.5l178 -471l189 471q35 94 12.5 132t-113.5 46v52h363v-52q-57 -7 -92.5 -45.5t-73.5 -132.5z" />
    <glyph glyph-name="thorn" unicode="&#xfe;" horiz-adv-x="1132" 
d="M500 -377h-457v51q84 7 111.5 28t27.5 77v1417q0 68 -63 68h-82v41l262 159h63v-614q101 104 273 104q196 0 311 -139t115 -352q0 -219 -117 -357q-113 -137 -321 -137q-163 0 -261 94v-284q0 -54 28.5 -76t109.5 -29v-51zM362 754v-584q82 -113 228 -113q274 0 274 406
q0 403 -274 403q-147 0 -228 -112z" />
    <glyph glyph-name="ydieresis" unicode="&#xff;" horiz-adv-x="948" 
d="M315 1368q47 0 78 -30.5t31 -75.5q0 -43 -31 -74t-78 -31q-48 0 -79 30.5t-31 74.5q0 45 30.5 75.5t79.5 30.5zM766 1262q0 -43 -32 -74t-79 -31q-48 0 -78 30.5t-30 74.5q0 45 30 75.5t78 30.5q49 0 80 -30.5t31 -75.5zM801 694l-350 -874q-89 -228 -287 -228
q-86 0 -142.5 36t-56.5 93q0 39 29.5 68t71.5 29q46 0 92 -49q46 -52 80 -52q78 0 131 140l47 120l-273 717q-40 100 -67 135q-27 34 -94 43v52h450v-52q-100 -7 -117.5 -45.5t23.5 -132.5l178 -471l189 471q35 94 12.5 132t-113.5 46v52h363v-52q-57 -7 -92.5 -45.5
t-73.5 -132.5z" />
    <glyph glyph-name="Amacron" unicode="&#x100;" horiz-adv-x="1361" 
d="M428 1802h514v-106h-514v106zM748 1434l469 -1233q27 -74 65.5 -108.5t106.5 -41.5v-51h-533v51q115 7 148 34t8 93l-101 262h-559l-98 -262q-23 -60 17 -90t157 -37v-51h-455v51q75 7 118.5 40t66.5 99l473 1244h117zM629 1171l-242 -641h490z" />
    <glyph glyph-name="amacron" unicode="&#x101;" horiz-adv-x="1060" 
d="M287 1186v106h514v-106h-514zM688 104q-186 -131 -340 -131q-130 0 -203 57.5t-73 162.5q0 156 176 239q86 39 182.5 63.5t253.5 51.5v123q0 117 -31.5 162t-115.5 45q-175 0 -213 -150q-27 -98 -103 -98q-80 0 -80 92t113 162q115 71 293 71q319 0 319 -288v-482
q0 -110 66 -110q30 0 76 22v-73q-67 -46 -160 -46q-136 0 -160 127zM684 184v285q-216 -32 -316 -89t-100 -163q0 -68 39 -103.5t107 -35.5q120 0 270 106z" />
    <glyph glyph-name="Abreve" unicode="&#x102;" horiz-adv-x="1361" 
d="M684 1645q-113 0 -185.5 56.5t-90.5 147.5h73q35 -92 203 -92q80 0 137 25t70 67h72q-18 -91 -91 -147.5t-188 -56.5zM748 1434l469 -1233q27 -74 65.5 -108.5t106.5 -41.5v-51h-533v51q115 7 148 34t8 93l-101 262h-559l-98 -262q-23 -60 17 -90t157 -37v-51h-455v51
q75 7 118.5 40t66.5 99l473 1244h117zM629 1171l-242 -641h490z" />
    <glyph glyph-name="abreve" unicode="&#x103;" horiz-adv-x="1060" 
d="M750 1339h71q-18 -91 -90.5 -147.5t-187.5 -56.5q-113 0 -186 56.5t-91 147.5h74q35 -92 203 -92q80 0 137 25t70 67zM688 104q-186 -131 -340 -131q-130 0 -203 57.5t-73 162.5q0 156 176 239q86 39 182.5 63.5t253.5 51.5v123q0 117 -31.5 162t-115.5 45
q-175 0 -213 -150q-27 -98 -103 -98q-80 0 -80 92t113 162q115 71 293 71q319 0 319 -288v-482q0 -110 66 -110q30 0 76 22v-73q-67 -46 -160 -46q-136 0 -160 127zM684 184v285q-216 -32 -316 -89t-100 -163q0 -68 39 -103.5t107 -35.5q120 0 270 106z" />
    <glyph glyph-name="Aogonek" unicode="&#x104;" horiz-adv-x="1361" 
d="M1389 0h-205q-135 -70 -135 -195q0 -53 37.5 -90t89.5 -37q90 0 137 93l61 -33q-76 -150 -241 -150q-95 0 -157.5 51t-62.5 134q0 138 177 227h-234v51q115 7 148 34t8 93l-101 262h-559l-98 -262q-23 -60 17 -90t157 -37v-51h-455v51q75 7 118.5 40t66.5 99l473 1244
h117l469 -1233q27 -74 65.5 -108.5t106.5 -41.5v-51zM629 1171l-242 -641h490z" />
    <glyph glyph-name="aogonek" unicode="&#x105;" horiz-adv-x="1060" 
d="M989 -229l62 -33q-77 -150 -242 -150q-95 0 -157 51t-62 134q0 136 170 225q-56 26 -72 106q-186 -131 -340 -131q-130 0 -203 57.5t-73 162.5q0 156 176 239q86 39 182.5 63.5t253.5 51.5v123q0 117 -31.5 162t-115.5 45q-175 0 -213 -150q-27 -98 -103 -98
q-80 0 -80 92t113 162q115 71 293 71q319 0 319 -288v-482q0 -110 66 -110q30 0 76 22v-73q-67 -46 -160 -46q-17 0 -23 3q-100 -69 -100 -175q0 -53 37.5 -90t89.5 -37q90 0 137 93zM684 184v285q-216 -32 -316 -89t-100 -163q0 -68 39 -103.5t107 -35.5q120 0 270 106z
" />
    <glyph glyph-name="Cacute" unicode="&#x106;" horiz-adv-x="1433" 
d="M713 1552l188 297q20 33 57 33h121q33 0 33 -31q0 -19 -43 -59l-274 -240h-82zM1227 1434l127 -400l-47 -16q-195 358 -521 358q-235 0 -354 -180q-117 -178 -117 -479q0 -308 120.5 -483t350.5 -175q168 0 310 91q136 88 184 247l92 -30q-148 -398 -598 -398
q-298 0 -491 211t-193 537q0 325 193 536t491 211q222 0 363 -102l30 72h60z" />
    <glyph glyph-name="cacute" unicode="&#x107;" horiz-adv-x="987" 
d="M467 1042l188 297q20 33 58 33h121q32 0 32 -31q0 -19 -43 -59l-274 -240h-82zM795 629q-78 0 -99 98q-24 147 -170 147q-258 0 -258 -411q0 -190 78 -299t223 -109q195 0 297 240l74 -39q-118 -287 -389 -287q-224 0 -352 137q-127 139 -127 357q0 212 129 350
q129 141 325 141q155 0 258 -71q105 -70 105 -160q0 -44 -26 -69t-68 -25z" />
    <glyph glyph-name="Ccircumflex" unicode="&#x108;" horiz-adv-x="1433" 
d="M463 1550l205 301q21 37 61 37h90q41 0 62 -37l204 -301h-84l-227 217l-227 -217h-84zM1227 1434l127 -400l-47 -16q-195 358 -521 358q-235 0 -354 -180q-117 -178 -117 -479q0 -308 120.5 -483t350.5 -175q168 0 310 91q136 88 184 247l92 -30q-148 -398 -598 -398
q-298 0 -491 211t-193 537q0 325 193 536t491 211q222 0 363 -102l30 72h60z" />
    <glyph glyph-name="ccircumflex" unicode="&#x109;" horiz-adv-x="987" 
d="M217 1040l205 301q21 37 61 37h90q41 0 62 -37l205 -301h-84l-228 217l-227 -217h-84zM795 629q-78 0 -99 98q-24 147 -170 147q-258 0 -258 -411q0 -190 78 -299t223 -109q195 0 297 240l74 -39q-118 -287 -389 -287q-224 0 -352 137q-127 139 -127 357q0 212 129 350
q129 141 325 141q155 0 258 -71q105 -70 105 -160q0 -44 -26 -69t-68 -25z" />
    <glyph glyph-name="Cdotaccent" unicode="&#x10a;" horiz-adv-x="1433" 
d="M774 1878q47 0 78 -30.5t31 -75.5q0 -43 -31 -74t-78 -31q-48 0 -79 30.5t-31 74.5q0 45 30.5 75.5t79.5 30.5zM1227 1434l127 -400l-47 -16q-195 358 -521 358q-235 0 -354 -180q-117 -178 -117 -479q0 -308 120.5 -483t350.5 -175q168 0 310 91q136 88 184 247l92 -30
q-148 -398 -598 -398q-298 0 -491 211t-193 537q0 325 193 536t491 211q222 0 363 -102l30 72h60z" />
    <glyph glyph-name="cdotaccent" unicode="&#x10b;" horiz-adv-x="987" 
d="M528 1368q47 0 78 -30.5t31 -75.5q0 -43 -31 -74t-78 -31q-48 0 -79 30.5t-31 74.5q0 45 30.5 75.5t79.5 30.5zM795 629q-78 0 -99 98q-24 147 -170 147q-258 0 -258 -411q0 -190 78 -299t223 -109q195 0 297 240l74 -39q-118 -287 -389 -287q-224 0 -352 137
q-127 139 -127 357q0 212 129 350q129 141 325 141q155 0 258 -71q105 -70 105 -160q0 -44 -26 -69t-68 -25z" />
    <glyph glyph-name="Ccaron" unicode="&#x10c;" horiz-adv-x="1433" 
d="M668 1587l-205 301h84l227 -217l227 217h84l-204 -301q-21 -37 -62 -37h-90q-40 0 -61 37zM1227 1434l127 -400l-47 -16q-195 358 -521 358q-235 0 -354 -180q-117 -178 -117 -479q0 -308 120.5 -483t350.5 -175q168 0 310 91q136 88 184 247l92 -30q-148 -398 -598 -398
q-298 0 -491 211t-193 537q0 325 193 536t491 211q222 0 363 -102l30 72h60z" />
    <glyph glyph-name="ccaron" unicode="&#x10d;" horiz-adv-x="987" 
d="M422 1077l-205 301h84l227 -217l228 217h84l-205 -301q-21 -37 -62 -37h-90q-40 0 -61 37zM795 629q-78 0 -99 98q-24 147 -170 147q-258 0 -258 -411q0 -190 78 -299t223 -109q195 0 297 240l74 -39q-118 -287 -389 -287q-224 0 -352 137q-127 139 -127 357
q0 212 129 350q129 141 325 141q155 0 258 -71q105 -70 105 -160q0 -44 -26 -69t-68 -25z" />
    <glyph glyph-name="Dcaron" unicode="&#x10e;" horiz-adv-x="1564" 
d="M657 1587l-204 301h84l227 -217l227 217h84l-205 -301q-21 -37 -61 -37h-90q-41 0 -62 37zM707 0h-646v51q128 9 164 37q35 27 35 141v975q0 115 -35 142q-34 27 -164 36v52h646q365 0 566.5 -184.5t201.5 -532.5t-201.5 -532.5t-566.5 -184.5zM707 1341h-183
q-61 0 -61 -61v-1126q0 -62 61 -62h183q81 0 147 11.5t129.5 37.5t110 73t82.5 115t54.5 166t18.5 222q0 107 -14 194.5t-39.5 151.5t-63.5 112.5t-82.5 80t-101 50.5t-114.5 27t-127 8z" />
    <glyph glyph-name="dcaron" unicode="&#x10f;" horiz-adv-x="1255" 
d="M1143 1481q52 0 84.5 -36.5t32.5 -98.5q0 -84 -56 -193q-52 -104 -121 -170l-36 29q94 125 112 237q-62 0 -97.5 32.5t-35.5 84.5q0 50 32 82.5t85 32.5zM633 1264v41l254 159h63v-1306q0 -56 28 -78t112 -29v-51q-159 0 -320 -31v107q-94 -107 -272 -107
q-198 0 -314 140q-112 136 -112 354q0 216 112 352q115 139 314 139q179 0 272 -106v348q0 37 -15 52.5t-50 15.5h-72zM770 170v584q-81 112 -227 112q-275 0 -275 -403q0 -406 275 -406q145 0 227 113z" />
    <glyph glyph-name="Dcroat" unicode="&#x110;" horiz-adv-x="1564" 
d="M61 1434h646q365 0 566.5 -184.5t201.5 -532.5t-201.5 -532.5t-566.5 -184.5h-646v51q128 9 164 37q35 27 35 141v473h-199v93h199v409q0 115 -35 142q-34 27 -164 36v52zM524 92h183q81 0 147 11.5t129.5 37.5t110 73t82.5 115t54.5 166t18.5 222q0 107 -14 194.5
t-39.5 151.5t-63.5 112.5t-82.5 80t-101 50.5t-114.5 27t-127 8h-183q-61 0 -61 -61v-485h203v-93h-203v-548q0 -62 61 -62z" />
    <glyph glyph-name="dslash" unicode="&#x111;" horiz-adv-x="1142" 
d="M1090 1124v-69h-140v-897q0 -56 28 -78t112 -29v-51q-159 0 -320 -31v107q-94 -107 -272 -107q-198 0 -314 140q-112 136 -112 354q0 216 112 352q115 139 314 139q179 0 272 -106v207h-285v69h285v72q0 37 -15 52.5t-50 15.5h-72v41l254 159h63v-340h140zM770 170v584
q-81 112 -227 112q-275 0 -275 -403q0 -406 275 -406q145 0 227 113z" />
    <glyph glyph-name="Emacron" unicode="&#x112;" horiz-adv-x="1409" 
d="M473 1696v106h514v-106h-514zM524 92h213q212 0 350 78q139 77 265 233l43 -26l-201 -377h-1133v51q128 9 164 37q35 27 35 141v975q0 115 -35 142q-34 27 -164 36v52h1135l137 -334l-43 -23q-102 139 -225.5 201.5t-310.5 62.5h-230q-61 0 -61 -61v-485h332
q103 0 142 43t50 155h53v-489h-53q-11 112 -50 155t-142 43h-332v-548q0 -62 61 -62z" />
    <glyph glyph-name="emacron" unicode="&#x113;" horiz-adv-x="1042" 
d="M279 1186v106h514v-106h-514zM938 561h-666q-4 -86 -4 -98q0 -408 320 -408q98 0 180 62.5t129 173.5l76 -35q-121 -287 -398 -287q-239 0 -370 137q-133 139 -133 357q0 215 125 352q127 139 338 139q185 0 294 -104.5t109 -288.5zM283 643h473q0 107 -60.5 169
t-158.5 62q-211 0 -254 -231z" />
    <glyph glyph-name="Ebreve" unicode="&#x114;" horiz-adv-x="1409" 
d="M936 1849h72q-18 -91 -91 -147.5t-188 -56.5q-113 0 -185.5 56.5t-90.5 147.5h73q35 -92 203 -92q80 0 137 25t70 67zM524 92h213q212 0 350 78q139 77 265 233l43 -26l-201 -377h-1133v51q128 9 164 37q35 27 35 141v975q0 115 -35 142q-34 27 -164 36v52h1135l137 -334
l-43 -23q-102 139 -225.5 201.5t-310.5 62.5h-230q-61 0 -61 -61v-485h332q103 0 142 43t50 155h53v-489h-53q-11 112 -50 155t-142 43h-332v-548q0 -62 61 -62z" />
    <glyph glyph-name="ebreve" unicode="&#x115;" horiz-adv-x="1042" 
d="M741 1339h72q-18 -91 -90.5 -147.5t-187.5 -56.5q-113 0 -186 56.5t-91 147.5h74q35 -92 203 -92q80 0 136.5 25t69.5 67zM938 561h-666q-4 -86 -4 -98q0 -408 320 -408q98 0 180 62.5t129 173.5l76 -35q-121 -287 -398 -287q-239 0 -370 137q-133 139 -133 357
q0 215 125 352q127 139 338 139q185 0 294 -104.5t109 -288.5zM283 643h473q0 107 -60.5 169t-158.5 62q-211 0 -254 -231z" />
    <glyph glyph-name="Edotaccent" unicode="&#x116;" horiz-adv-x="1409" 
d="M729 1878q47 0 78 -30.5t31 -75.5q0 -43 -31 -74t-78 -31q-49 0 -80 30.5t-31 74.5q0 45 31 75.5t80 30.5zM524 92h213q212 0 350 78q139 77 265 233l43 -26l-201 -377h-1133v51q128 9 164 37q35 27 35 141v975q0 115 -35 142q-34 27 -164 36v52h1135l137 -334l-43 -23
q-102 139 -225.5 201.5t-310.5 62.5h-230q-61 0 -61 -61v-485h332q103 0 142 43t50 155h53v-489h-53q-11 112 -50 155t-142 43h-332v-548q0 -62 61 -62z" />
    <glyph glyph-name="edotaccent" unicode="&#x117;" horiz-adv-x="1042" 
d="M535 1368q47 0 77.5 -30.5t30.5 -75.5q0 -44 -30.5 -74.5t-77.5 -30.5q-49 0 -80 30.5t-31 74.5q0 45 31 75.5t80 30.5zM938 561h-666q-4 -86 -4 -98q0 -408 320 -408q98 0 180 62.5t129 173.5l76 -35q-121 -287 -398 -287q-239 0 -370 137q-133 139 -133 357
q0 215 125 352q127 139 338 139q185 0 294 -104.5t109 -288.5zM283 643h473q0 107 -60.5 169t-158.5 62q-211 0 -254 -231z" />
    <glyph glyph-name="Eogonek" unicode="&#x118;" horiz-adv-x="1409" 
d="M1165 -322q91 0 138 93l61 -33q-76 -150 -242 -150q-95 0 -157 51t-62 134q0 138 176 227h-1018v51q128 9 164 37q35 27 35 141v975q0 115 -35 142q-34 27 -164 36v52h1135l137 -334l-43 -23q-102 139 -225.5 201.5t-310.5 62.5h-230q-61 0 -61 -61v-485h332
q103 0 142 43t50 155h53v-489h-53q-11 112 -50 155t-142 43h-332v-548q0 -62 61 -62h213q212 0 350 78q139 77 265 233l43 -26l-201 -377h-20q-136 -71 -136 -195q0 -53 37.5 -90t89.5 -37z" />
    <glyph glyph-name="eogonek" unicode="&#x119;" horiz-adv-x="1042" 
d="M727 -322q90 0 137 93l62 -33q-76 -150 -242 -150q-95 0 -157 51t-62 134q0 114 125 196h-15q-239 0 -370 137q-133 139 -133 357q0 215 125 352q127 139 338 139q185 0 294 -104.5t109 -288.5h-666q-4 -86 -4 -98q0 -408 320 -408q98 0 180 62.5t129 173.5l76 -35
q-82 -193 -240 -258q-133 -71 -133 -193q0 -53 37.5 -90t89.5 -37zM537 874q-211 0 -254 -231h473q0 107 -60.5 169t-158.5 62z" />
    <glyph glyph-name="Ecaron" unicode="&#x11a;" horiz-adv-x="1409" 
d="M623 1587l-205 301h84l227 -217l227 217h84l-204 -301q-21 -37 -62 -37h-90q-40 0 -61 37zM524 92h213q212 0 350 78q139 77 265 233l43 -26l-201 -377h-1133v51q128 9 164 37q35 27 35 141v975q0 115 -35 142q-34 27 -164 36v52h1135l137 -334l-43 -23
q-102 139 -225.5 201.5t-310.5 62.5h-230q-61 0 -61 -61v-485h332q103 0 142 43t50 155h53v-489h-53q-11 112 -50 155t-142 43h-332v-548q0 -62 61 -62z" />
    <glyph glyph-name="ecaron" unicode="&#x11b;" horiz-adv-x="1042" 
d="M428 1077l-205 301h84l228 -217l227 217h84l-205 -301q-21 -37 -61 -37h-91q-40 0 -61 37zM938 561h-666q-4 -86 -4 -98q0 -408 320 -408q98 0 180 62.5t129 173.5l76 -35q-121 -287 -398 -287q-239 0 -370 137q-133 139 -133 357q0 215 125 352q127 139 338 139
q185 0 294 -104.5t109 -288.5zM283 643h473q0 107 -60.5 169t-158.5 62q-211 0 -254 -231z" />
    <glyph glyph-name="Gcircumflex" unicode="&#x11c;" horiz-adv-x="1554" 
d="M463 1550l205 301q21 37 61 37h90q41 0 62 -37l204 -301h-84l-227 217l-227 -217h-84zM1280 0l-78 117q-157 -148 -430 -148q-298 0 -491 211q-191 212 -191 537t193 536t491 211q218 0 359 -102l28 72h62l125 -400l-48 -16q-195 358 -512 358q-235 0 -354 -180
q-119 -177 -119 -479q0 -307 120 -482.5t347 -175.5q117 0 216.5 44t140.5 102v221q0 114 -35 141q-36 28 -162 37v51h592v-51q-122 -9 -158 -37q-35 -27 -35 -141v-426h-61z" />
    <glyph glyph-name="gcircumflex" unicode="&#x11d;" horiz-adv-x="1075" 
d="M729 1040l-227 217l-228 -217h-84l205 301q21 37 62 37h90q40 0 61 -37l205 -301h-84zM973 1024q51 0 82.5 -25.5t31.5 -68.5q0 -34 -21 -57t-56 -23q-23 0 -63.5 25.5t-55.5 25.5q-44 0 -82 -72q84 -96 84 -237q0 -159 -107 -260q-104 -101 -284 -101q-45 0 -119 14.5
t-88 14.5q-52 0 -80.5 -20t-28.5 -52q0 -50 78 -65q86 -16 324 -25q226 -7 319.5 -61.5t93.5 -171.5q0 -128 -122 -200.5t-334 -72.5q-471 0 -471 220q0 108 112 165q-110 46 -110 166q0 74 43 122.5t110 56.5q-120 99 -120 270q0 162 106 262t287 100q147 0 250 -71
q43 64 102.5 102.5t118.5 38.5zM502 311q205 0 205 281q0 282 -205 282q-207 0 -207 -282q0 -281 207 -281zM870 -180q0 62 -61 80q-67 17 -248 20q-150 6 -266 25q-94 -34 -94 -115q0 -158 344 -158q149 0 237 41.5t88 106.5z" />
    <glyph glyph-name="Gbreve" unicode="&#x11e;" horiz-adv-x="1554" 
d="M981 1849h72q-18 -91 -91 -147.5t-188 -56.5q-113 0 -185.5 56.5t-90.5 147.5h73q35 -92 203 -92q80 0 137 25t70 67zM1280 0l-78 117q-157 -148 -430 -148q-298 0 -491 211q-191 212 -191 537t193 536t491 211q218 0 359 -102l28 72h62l125 -400l-48 -16
q-195 358 -512 358q-235 0 -354 -180q-119 -177 -119 -479q0 -307 120 -482.5t347 -175.5q117 0 216.5 44t140.5 102v221q0 114 -35 141q-36 28 -162 37v51h592v-51q-122 -9 -158 -37q-35 -27 -35 -141v-426h-61z" />
    <glyph glyph-name="gbreve" unicode="&#x11f;" horiz-adv-x="1075" 
d="M502 1135q-113 0 -186 56.5t-91 147.5h74q35 -92 203 -92q80 0 137 25t70 67h71q-18 -91 -90.5 -147.5t-187.5 -56.5zM973 1024q51 0 82.5 -25.5t31.5 -68.5q0 -34 -21 -57t-56 -23q-23 0 -63.5 25.5t-55.5 25.5q-44 0 -82 -72q84 -96 84 -237q0 -159 -107 -260
q-104 -101 -284 -101q-45 0 -119 14.5t-88 14.5q-52 0 -80.5 -20t-28.5 -52q0 -50 78 -65q86 -16 324 -25q226 -7 319.5 -61.5t93.5 -171.5q0 -128 -122 -200.5t-334 -72.5q-471 0 -471 220q0 108 112 165q-110 46 -110 166q0 74 43 122.5t110 56.5q-120 99 -120 270
q0 162 106 262t287 100q147 0 250 -71q43 64 102.5 102.5t118.5 38.5zM502 311q205 0 205 281q0 282 -205 282q-207 0 -207 -282q0 -281 207 -281zM870 -180q0 62 -61 80q-67 17 -248 20q-150 6 -266 25q-94 -34 -94 -115q0 -158 344 -158q149 0 237 41.5t88 106.5z" />
    <glyph glyph-name="Gdotaccent" unicode="&#x120;" horiz-adv-x="1554" 
d="M774 1878q47 0 78 -30.5t31 -75.5q0 -43 -31 -74t-78 -31q-48 0 -79 30.5t-31 74.5q0 45 30.5 75.5t79.5 30.5zM1280 0l-78 117q-157 -148 -430 -148q-298 0 -491 211q-191 212 -191 537t193 536t491 211q218 0 359 -102l28 72h62l125 -400l-48 -16q-195 358 -512 358
q-235 0 -354 -180q-119 -177 -119 -479q0 -307 120 -482.5t347 -175.5q117 0 216.5 44t140.5 102v221q0 114 -35 141q-36 28 -162 37v51h592v-51q-122 -9 -158 -37q-35 -27 -35 -141v-426h-61z" />
    <glyph glyph-name="gdotaccent" unicode="&#x121;" horiz-adv-x="1075" 
d="M502 1157q-49 0 -80 30.5t-31 74.5q0 45 31 75.5t80 30.5q47 0 77.5 -30.5t30.5 -75.5q0 -44 -31 -74.5t-77 -30.5zM973 1024q51 0 82.5 -25.5t31.5 -68.5q0 -34 -21 -57t-56 -23q-23 0 -63.5 25.5t-55.5 25.5q-44 0 -82 -72q84 -96 84 -237q0 -159 -107 -260
q-104 -101 -284 -101q-45 0 -119 14.5t-88 14.5q-52 0 -80.5 -20t-28.5 -52q0 -50 78 -65q86 -16 324 -25q226 -7 319.5 -61.5t93.5 -171.5q0 -128 -122 -200.5t-334 -72.5q-471 0 -471 220q0 108 112 165q-110 46 -110 166q0 74 43 122.5t110 56.5q-120 99 -120 270
q0 162 106 262t287 100q147 0 250 -71q43 64 102.5 102.5t118.5 38.5zM502 311q205 0 205 281q0 282 -205 282q-207 0 -207 -282q0 -281 207 -281zM870 -180q0 62 -61 80q-67 17 -248 20q-150 6 -266 25q-94 -34 -94 -115q0 -158 344 -158q149 0 237 41.5t88 106.5z" />
    <glyph glyph-name="Gcommaaccent" unicode="&#x122;" horiz-adv-x="1554" 
d="M1280 0l-78 117q-157 -148 -430 -148q-298 0 -491 211q-191 212 -191 537t193 536t491 211q218 0 359 -102l28 72h62l125 -400l-48 -16q-195 358 -512 358q-235 0 -354 -180q-119 -177 -119 -479q0 -307 120 -482.5t347 -175.5q117 0 216.5 44t140.5 102v221
q0 114 -35 141q-36 28 -162 37v51h592v-51q-122 -9 -158 -37q-35 -27 -35 -141v-426h-61zM770 -123q51 0 82 -35t31 -96q0 -128 -123 -254l-35 29q38 66 53 135q-55 0 -88 31.5t-33 81.5q0 47 32 77.5t81 30.5z" />
    <glyph glyph-name="gcommaaccent" unicode="&#x123;" horiz-adv-x="1075" 
d="M508 1106q-51 0 -82 35t-31 96q0 128 123 254l35 -29q-38 -66 -53 -135q55 0 88 -31.5t33 -81.5q0 -47 -32 -77.5t-81 -30.5zM973 1024q51 0 82.5 -25.5t31.5 -68.5q0 -34 -21 -57t-56 -23q-23 0 -63.5 25.5t-55.5 25.5q-44 0 -82 -72q84 -96 84 -237q0 -159 -107 -260
q-104 -101 -284 -101q-45 0 -119 14.5t-88 14.5q-52 0 -80.5 -20t-28.5 -52q0 -50 78 -65q86 -16 324 -25q226 -7 319.5 -61.5t93.5 -171.5q0 -128 -122 -200.5t-334 -72.5q-471 0 -471 220q0 108 112 165q-110 46 -110 166q0 74 43 122.5t110 56.5q-120 99 -120 270
q0 162 106 262t287 100q147 0 250 -71q43 64 102.5 102.5t118.5 38.5zM502 311q205 0 205 281q0 282 -205 282q-207 0 -207 -282q0 -281 207 -281zM870 -180q0 62 -61 80q-67 17 -248 20q-150 6 -266 25q-94 -34 -94 -115q0 -158 344 -158q149 0 237 41.5t88 106.5z" />
    <glyph glyph-name="Hcircumflex" unicode="&#x124;" horiz-adv-x="1615" 
d="M498 1550l204 301q21 37 62 37h90q40 0 61 -37l205 -301h-84l-227 217l-227 -217h-84zM1554 0h-600v51q128 9 164 37q35 27 35 141v473h-690v-473q0 -114 35 -141q36 -28 164 -37v-51h-601v51q128 9 164 37q35 27 35 141v975q0 115 -35 142q-34 27 -164 36v52h601v-52
q-130 -9 -164 -36q-35 -27 -35 -142v-409h690v409q0 115 -35 142q-34 27 -164 36v52h600v-52q-128 -9 -163 -36t-35 -142v-975q0 -114 35 -141q36 -28 163 -37v-51z" />
    <glyph glyph-name="hcircumflex" unicode="&#x125;" horiz-adv-x="1171" 
d="M274 1550l205 301q21 37 62 37h90q40 0 61 -37l205 -301h-84l-227 217l-228 -217h-84zM1118 0h-456v51q83 7 110 29t27 78v520q0 172 -160 172q-141 0 -266 -88v-604q0 -56 28 -78t109 -29v-51h-457v51q84 7 112 29t28 78v1038q0 68 -64 68h-76v41l256 159h64v-612
q166 102 317 102q40 0 77 -6.5t77.5 -25t69.5 -48t48 -80t19 -116.5v-520q0 -56 28 -78t109 -29v-51z" />
    <glyph glyph-name="Hbar" unicode="&#x126;" horiz-adv-x="1611" 
d="M1554 1118v-92h-200v-797q0 -114 35 -141q36 -28 163 -37v-51h-600v51q128 9 164 37q35 27 35 141v473h-690v-473q0 -114 35 -141q36 -28 163 -37v-51h-600v51q128 9 164 37q35 27 35 141v797h-199v92h199v86q0 115 -35 142q-34 27 -164 36v52h600v-52q-128 -9 -163 -36
t-35 -142v-86h690v86q0 115 -35 142q-34 27 -164 36v52h600v-52q-128 -9 -163 -36t-35 -142v-86h200zM461 795h690v231h-690v-231z" />
    <glyph glyph-name="hbar" unicode="&#x127;" horiz-adv-x="1171" 
d="M981 678v-520q0 -56 28 -78t109 -29v-51h-456v51q83 7 110 29t27 78v520q0 172 -160 172q-141 0 -266 -88v-604q0 -56 28 -78t109 -29v-51h-457v51q84 7 112 29t28 78v897h-140v69h140v72q0 68 -64 68h-76v41l256 159h64v-340h284v-69h-284v-203q166 102 317 102
q40 0 77 -6.5t77.5 -25t69.5 -48t48 -80t19 -116.5z" />
    <glyph glyph-name="Itilde" unicode="&#x128;" horiz-adv-x="722" 
d="M580 1858h61q-7 -100 -52 -152.5t-116 -52.5q-56 0 -139 59q-73 49 -105 49q-64 0 -79 -90h-64q7 100 52 152.5t116 52.5q56 0 139 -59q77 -50 107 -50q65 0 80 91zM662 0h-601v51q128 9 164 37q35 27 35 141v975q0 115 -35 142q-34 27 -164 36v52h601v-52
q-130 -9 -164 -36q-35 -27 -35 -142v-975q0 -114 35 -141q36 -28 164 -37v-51z" />
    <glyph glyph-name="itilde" unicode="&#x129;" horiz-adv-x="565" 
d="M500 1348h61q-7 -100 -52 -152.5t-116 -52.5q-56 0 -139 59q-73 49 -104 49q-65 0 -80 -90h-64q7 100 52 152.5t116 52.5q56 0 139 -59q77 -50 107 -50q65 0 80 91zM510 0h-457v51q84 7 112 29t28 78v528q0 68 -64 68h-76v41l256 159h64v-796q0 -56 28 -78t109 -29v-51z
" />
    <glyph glyph-name="Imacron" unicode="&#x12a;" horiz-adv-x="722" 
d="M106 1696v106h515v-106h-515zM662 0h-601v51q128 9 164 37q35 27 35 141v975q0 115 -35 142q-34 27 -164 36v52h601v-52q-130 -9 -164 -36q-35 -27 -35 -142v-975q0 -114 35 -141q36 -28 164 -37v-51z" />
    <glyph glyph-name="imacron" unicode="&#x12b;" horiz-adv-x="565" 
d="M27 1186v106h514v-106h-514zM510 0h-457v51q84 7 112 29t28 78v528q0 68 -64 68h-76v41l256 159h64v-796q0 -56 28 -78t109 -29v-51z" />
    <glyph glyph-name="Ibreve" unicode="&#x12c;" horiz-adv-x="722" 
d="M569 1849h72q-18 -91 -91 -147.5t-188 -56.5q-113 0 -185.5 56.5t-90.5 147.5h74q35 -92 202 -92q80 0 137 25t70 67zM662 0h-601v51q128 9 164 37q35 27 35 141v975q0 115 -35 142q-34 27 -164 36v52h601v-52q-130 -9 -164 -36q-35 -27 -35 -142v-975q0 -114 35 -141
q36 -28 164 -37v-51z" />
    <glyph glyph-name="ibreve" unicode="&#x12d;" horiz-adv-x="565" 
d="M489 1339h72q-18 -91 -90.5 -147.5t-187.5 -56.5q-113 0 -186 56.5t-91 147.5h74q35 -92 203 -92q80 0 136.5 25t69.5 67zM510 0h-457v51q84 7 112 29t28 78v528q0 68 -64 68h-76v41l256 159h64v-796q0 -56 28 -78t109 -29v-51z" />
    <glyph glyph-name="Iogonek" unicode="&#x12e;" horiz-adv-x="722" 
d="M662 1434v-52q-130 -9 -164 -36q-35 -27 -35 -142v-975q0 -114 35 -141q36 -28 164 -37v-51h-226q-135 -70 -135 -195q0 -53 37.5 -90t89.5 -37q90 0 137 93l62 -33q-77 -150 -242 -150q-95 0 -157 51t-62 134q0 138 176 227h-281v51q128 9 164 37q35 27 35 141v975
q0 115 -35 142q-34 27 -164 36v52h601z" />
    <glyph glyph-name="iogonek" unicode="&#x12f;" horiz-adv-x="565" 
d="M166 1284q0 50 34 83.5t87 33.5t87 -33.5t34 -83.5q0 -48 -34 -81.5t-87 -33.5t-87 33.5t-34 81.5zM455 -229l61 -33q-76 -150 -242 -150q-95 0 -157 51t-62 134q0 138 176 227h-178v51q84 7 112 29t28 78v528q0 68 -64 68h-76v41l256 159h64v-796q0 -56 28 -78t109 -29
v-51h-184q-136 -71 -136 -195q0 -53 37.5 -90t89.5 -37q91 0 138 93z" />
    <glyph glyph-name="Idot" unicode="&#x130;" horiz-adv-x="722" 
d="M362 1878q47 0 78 -30.5t31 -75.5q0 -43 -31 -74t-78 -31q-48 0 -79 30.5t-31 74.5q0 45 30.5 75.5t79.5 30.5zM662 0h-601v51q128 9 164 37q35 27 35 141v975q0 115 -35 142q-34 27 -164 36v52h601v-52q-130 -9 -164 -36q-35 -27 -35 -142v-975q0 -114 35 -141
q36 -28 164 -37v-51z" />
    <glyph glyph-name="dotlessi" unicode="&#x131;" horiz-adv-x="565" 
d="M510 0h-457v51q84 7 112 29t28 78v528q0 68 -64 68h-76v41l256 159h64v-796q0 -56 28 -78t109 -29v-51z" />
    <glyph glyph-name="IJ" unicode="&#x132;" horiz-adv-x="1427" 
d="M662 0h-601v51q128 9 164 37q35 27 35 141v975q0 115 -35 142q-34 27 -164 36v52h601v-52q-130 -9 -164 -36q-35 -27 -35 -142v-975q0 -114 35 -141q36 -28 164 -37v-51zM1186 1204v-1147q0 -237 -108 -357t-304 -120q-129 0 -202.5 53.5t-73.5 124.5q0 49 29.5 80
t74.5 31q38 0 63.5 -19t39 -46.5t25.5 -55t32.5 -46.5t52.5 -19q88 0 128 79t40 267v1175q0 115 -35 142q-34 27 -164 36v52h600v-52q-128 -9 -163 -36t-35 -142z" />
    <glyph glyph-name="ij" unicode="&#x133;" horiz-adv-x="1110" 
d="M408 1284q0 -48 -34 -81.5t-87 -33.5t-87 33.5t-34 81.5q0 50 34 83.5t87 33.5t87 -33.5t34 -83.5zM973 1284q0 -48 -34 -81.5t-87 -33.5t-87 33.5t-34 81.5q0 50 34 83.5t87 33.5t87 -33.5t34 -83.5zM510 0h-457v51q84 7 112 29t28 78v528q0 68 -64 68h-76v41l256 159
h64v-796q0 -56 28 -78t109 -29v-51zM403 -293q0 37 27.5 64.5t65.5 27.5q47 0 84 -49q40 -49 71 -49q49 0 78 39t29 115v831q0 68 -64 68h-76v41l256 159h64v-917q0 -214 -102.5 -329.5t-274.5 -115.5q-71 0 -114.5 30.5t-43.5 84.5z" />
    <glyph glyph-name="Jcircumflex" unicode="&#x134;" horiz-adv-x="704" 
d="M51 1550l205 301q21 37 61 37h91q40 0 61 -37l205 -301h-84l-228 217l-227 -217h-84zM463 1204v-1147q0 -237 -108 -357t-304 -120q-129 0 -202.5 53.5t-73.5 124.5q0 49 29.5 80t74.5 31q38 0 63.5 -19t39 -46.5t25.5 -55t32.5 -46.5t52.5 -19q88 0 128 79t40 267v1175
q0 115 -35 142q-34 27 -164 36v52h601v-52q-130 -9 -164 -36q-35 -27 -35 -142z" />
    <glyph glyph-name="jcircumflex" unicode="&#x135;" horiz-adv-x="544" 
d="M-27 1040l205 301q21 37 62 37h90q40 0 61 -37l205 -301h-84l-227 217l-228 -217h-84zM-162 -293q0 37 27 64.5t65 27.5q47 0 84 -49q40 -49 72 -49q49 0 78 39t29 115v831q0 68 -64 68h-76v41l256 159h64v-917q0 -214 -102.5 -329.5t-274.5 -115.5q-71 0 -114.5 30.5
t-43.5 84.5z" />
    <glyph glyph-name="Kcommaaccent" unicode="&#x136;" horiz-adv-x="1509" 
d="M662 0h-601v51q128 9 164 37q35 27 35 141v975q0 115 -35 142q-34 27 -164 36v52h601v-52q-130 -9 -164 -36q-35 -27 -35 -142v-499l581 528q19 15 29.5 32.5t9.5 36.5t-16.5 35t-54.5 28.5t-99 16.5v52h553v-52q-86 -9 -141 -39q-50 -27 -156 -122l-391 -353l555 -696
q47 -58 105.5 -89.5t103.5 -31.5v-51h-606v51q117 8 143 48t-35 122l-413 510l-168 -149v-353q0 -114 35 -141q36 -28 164 -37v-51zM801 -123q51 0 81.5 -35t30.5 -96q0 -129 -122 -254l-35 29q38 66 53 135q-55 0 -88 31.5t-33 81.5q0 47 32 77.5t81 30.5z" />
    <glyph glyph-name="kcommaaccent" unicode="&#x137;" horiz-adv-x="1099" 
d="M510 0h-457v51q84 7 112 29t28 78v1038q0 68 -64 68h-76v41l256 159h64v-989l276 279q21 20 29.5 38.5t3 35.5t-37.5 29t-89 15v52h481v-52q-86 -9 -145 -36q-58 -28 -127 -97l-143 -143l340 -424q55 -65 90.5 -89t87.5 -32v-51h-508v51q68 4 98.5 24t27.5 45.5t-26 55.5
l-239 293l-119 -119v-192q0 -56 28 -78t109 -29v-51zM569 -123q51 0 82 -35t31 -96q0 -128 -123 -254l-35 29q40 69 54 135q-55 0 -88 31.5t-33 81.5q0 47 31.5 77.5t80.5 30.5z" />
    <glyph glyph-name="kgreenlandic" unicode="&#x138;" horiz-adv-x="1099" 
d="M510 0h-457v51q84 7 112 29t28 78v528q0 68 -64 68h-76v41l256 159h64v-479l276 279q21 20 29.5 38.5t3 35.5t-37.5 29t-89 15v52h481v-52q-86 -9 -145 -36q-58 -28 -127 -97l-143 -143l340 -424q55 -65 90.5 -89t87.5 -32v-51h-508v51q68 4 98.5 24t27.5 45.5t-26 55.5
l-239 293l-119 -119v-192q0 -56 28 -78t109 -29v-51z" />
    <glyph glyph-name="Lacute" unicode="&#x139;" horiz-adv-x="1308" 
d="M303 1552l189 297q20 33 57 33h121q32 0 32 -31q0 -19 -43 -59l-274 -240h-82zM524 92h133q199 0 334 78t260 233l41 -26l-200 -377h-1031v51q128 9 164 37q35 27 35 141v975q0 115 -35 142q-34 27 -164 36v52h601v-52q-130 -9 -164 -36q-35 -27 -35 -142v-1050
q0 -62 61 -62z" />
    <glyph glyph-name="lacute" unicode="&#x13a;" horiz-adv-x="565" 
d="M221 1552l189 297q20 33 57 33h121q33 0 33 -31q0 -19 -43 -59l-275 -240h-82zM510 0h-457v51q84 7 112 29t28 78v1038q0 68 -64 68h-76v41l256 159h64v-1306q0 -56 28 -78t109 -29v-51z" />
    <glyph glyph-name="Lcommaaccent" unicode="&#x13b;" horiz-adv-x="1308" 
d="M524 92h133q199 0 334 78t260 233l41 -26l-200 -377h-1031v51q128 9 164 37q35 27 35 141v975q0 115 -35 142q-34 27 -164 36v52h601v-52q-130 -9 -164 -36q-35 -27 -35 -142v-1050q0 -62 61 -62zM668 -123q51 0 81.5 -35t30.5 -96q0 -128 -123 -254l-34 29q38 66 53 135
q-55 0 -88 31.5t-33 81.5q0 47 32 77.5t81 30.5z" />
    <glyph glyph-name="lcommaaccent" unicode="&#x13c;" horiz-adv-x="565" 
d="M510 0h-457v51q84 7 112 29t28 78v1038q0 68 -64 68h-76v41l256 159h64v-1306q0 -56 28 -78t109 -29v-51zM281 -123q51 0 81.5 -35t30.5 -96q0 -128 -123 -254l-34 29q38 66 53 135q-55 0 -88 31.5t-33 81.5q0 47 32 77.5t81 30.5z" />
    <glyph glyph-name="Lcaron" unicode="&#x13d;" horiz-adv-x="1308" 
d="M1018 1305q0 -91 -60 -211t-135 -189l-41 31q104 135 125 262q-50 -4 -86.5 20t-50.5 59.5t-8 74.5t33 65q28 29 68.5 35t76 -8t59 -51.5t19.5 -87.5zM524 92h133q199 0 334 78t260 233l41 -26l-200 -377h-1031v51q128 9 164 37q35 27 35 141v975q0 115 -35 142
q-34 27 -164 36v52h601v-52q-130 -9 -164 -36q-35 -27 -35 -142v-1050q0 -62 61 -62z" />
    <glyph glyph-name="lcaron" unicode="&#x13e;" horiz-adv-x="671" 
d="M561 1481q52 0 84.5 -36.5t32.5 -98.5q0 -86 -55 -193q-52 -104 -121 -170l-37 29q95 127 113 237q-62 0 -98 32.5t-36 84.5q0 50 32 82.5t85 32.5zM510 0h-457v51q84 7 112 29t28 78v1038q0 68 -64 68h-76v41l256 159h64v-1306q0 -56 28 -78t109 -29v-51z" />
    <glyph glyph-name="Ldot" unicode="&#x13f;" horiz-adv-x="1308" 
d="M524 92h133q199 0 334 78t260 233l41 -26l-200 -377h-1031v51q128 9 164 37q35 27 35 141v975q0 115 -35 142q-34 27 -164 36v52h601v-52q-130 -9 -164 -36q-35 -27 -35 -142v-1050q0 -62 61 -62zM985 879q56 0 92.5 -36t36.5 -91q0 -56 -37 -92.5t-92 -36.5
q-57 0 -93 36.5t-36 92.5t36 91.5t93 35.5z" />
    <glyph glyph-name="ldot" unicode="&#x140;" horiz-adv-x="710" 
d="M510 0h-457v51q84 7 112 29t28 78v1038q0 68 -64 68h-76v41l256 159h64v-1306q0 -56 28 -78t109 -29v-51zM633 604q56 0 92.5 -36t36.5 -91t-37 -92t-92 -37q-57 0 -93 36.5t-36 92.5t36 91.5t93 35.5z" />
    <glyph glyph-name="Lslash" unicode="&#x141;" horiz-adv-x="1308" 
d="M1251 403l41 -26l-200 -377h-1031v51q128 9 164 37q35 27 35 141v385l-199 -114v94l199 115v495q0 115 -35 142q-34 27 -164 36v52h601v-52q-130 -9 -164 -36q-35 -27 -35 -142v-379l199 115v-94l-199 -115v-577q0 -62 61 -62h133q199 0 334 78t260 233z" />
    <glyph glyph-name="lslash" unicode="&#x142;" horiz-adv-x="565" 
d="M510 639v-92l-137 -78v-311q0 -56 28 -78t109 -29v-51h-457v51q84 7 112 29t28 78v207l-140 -80v92l140 80v739q0 68 -64 68h-76v41l256 159h64v-903z" />
    <glyph glyph-name="Nacute" unicode="&#x143;" horiz-adv-x="1552" 
d="M723 1552l188 297q20 33 58 33h121q32 0 32 -31q0 -19 -43 -59l-274 -240h-82zM567 0h-506v51q128 9 164 37q37 27 37 141v975q0 115 -37 142q-34 27 -164 36v52h447l700 -1072v842q0 117 -32 142q-35 27 -162 36v52h495v-52q-128 -9 -163 -36q-33 -26 -33 -142v-1204
h-111l-835 1278v-1049q0 -114 34 -141q39 -28 166 -37v-51z" />
    <glyph glyph-name="nacute" unicode="&#x144;" horiz-adv-x="1171" 
d="M524 1042l189 297q20 33 57 33h121q33 0 33 -31q0 -19 -43 -59l-275 -240h-82zM1118 0h-456v51q83 7 110 29t27 78v520q0 172 -160 172q-141 0 -266 -88v-604q0 -56 28 -78t109 -29v-51h-457v51q84 7 112 29t28 78v528q0 68 -64 68h-76v41l256 159h64v-102
q166 102 317 102q40 0 77 -6.5t77.5 -25t69.5 -48t48 -80t19 -116.5v-520q0 -56 28 -78t109 -29v-51z" />
    <glyph glyph-name="Ncommaaccent" unicode="&#x145;" horiz-adv-x="1552" 
d="M567 0h-506v51q128 9 164 37q37 27 37 141v975q0 115 -37 142q-34 27 -164 36v52h447l700 -1072v842q0 117 -32 142q-35 27 -162 36v52h495v-52q-128 -9 -163 -36q-33 -26 -33 -142v-1204h-111l-835 1278v-1049q0 -114 34 -141q39 -28 166 -37v-51zM782 -123q51 0 82 -35
t31 -96q0 -128 -123 -254l-35 29q40 69 54 135q-55 0 -88 31.5t-33 81.5q0 47 31.5 77.5t80.5 30.5z" />
    <glyph glyph-name="ncommaaccent" unicode="&#x146;" horiz-adv-x="1171" 
d="M1118 0h-456v51q83 7 110 29t27 78v520q0 172 -160 172q-141 0 -266 -88v-604q0 -56 28 -78t109 -29v-51h-457v51q84 7 112 29t28 78v528q0 68 -64 68h-76v41l256 159h64v-102q166 102 317 102q40 0 77 -6.5t77.5 -25t69.5 -48t48 -80t19 -116.5v-520q0 -56 28 -78
t109 -29v-51zM584 -123q51 0 81.5 -35t30.5 -96q0 -128 -123 -254l-34 29q38 66 53 135q-55 0 -88 31.5t-33 81.5q0 47 32 77.5t81 30.5z" />
    <glyph glyph-name="Ncaron" unicode="&#x147;" horiz-adv-x="1552" 
d="M678 1587l-205 301h84l227 -217l228 217h84l-205 -301q-21 -37 -62 -37h-90q-40 0 -61 37zM567 0h-506v51q128 9 164 37q37 27 37 141v975q0 115 -37 142q-34 27 -164 36v52h447l700 -1072v842q0 117 -32 142q-35 27 -162 36v52h495v-52q-128 -9 -163 -36
q-33 -26 -33 -142v-1204h-111l-835 1278v-1049q0 -114 34 -141q39 -28 166 -37v-51z" />
    <glyph glyph-name="ncaron" unicode="&#x148;" horiz-adv-x="1171" 
d="M479 1077l-205 301h84l228 -217l227 217h84l-205 -301q-21 -37 -61 -37h-90q-41 0 -62 37zM1118 0h-456v51q83 7 110 29t27 78v520q0 172 -160 172q-141 0 -266 -88v-604q0 -56 28 -78t109 -29v-51h-457v51q84 7 112 29t28 78v528q0 68 -64 68h-76v41l256 159h64v-102
q166 102 317 102q40 0 77 -6.5t77.5 -25t69.5 -48t48 -80t19 -116.5v-520q0 -56 28 -78t109 -29v-51z" />
    <glyph glyph-name="napostrophe" unicode="&#x149;" horiz-adv-x="1171" 
d="M1118 0h-456v51q83 7 110 29t27 78v520q0 172 -160 172q-141 0 -266 -88v-604q0 -56 28 -78t109 -29v-51h-457v51q84 7 112 29t28 78v528q0 68 -64 68h-76v41l256 159h64v-102q166 102 317 102q40 0 77 -6.5t77.5 -25t69.5 -48t48 -80t19 -116.5v-520q0 -56 28 -78
t109 -29v-51zM584 -123q51 0 81.5 -35t30.5 -96q0 -128 -123 -254l-34 29q38 66 53 135q-55 0 -88 31.5t-33 81.5q0 47 32 77.5t81 30.5z" />
    <glyph glyph-name="Eng" unicode="&#x14a;" horiz-adv-x="1552" 
d="M1014 1382v52h495v-52q-128 -9 -163 -36q-33 -26 -33 -142v-1200q0 -214 -74.5 -315t-247.5 -101q-123 0 -194.5 54t-71.5 125q0 49 29.5 79.5t72.5 30.5q38 0 62.5 -19t37 -46.5t24 -55t33.5 -46.5t56 -19q92 0 129.5 64.5t38.5 234.5l-841 1288v-1049q0 -114 34 -141
q39 -28 166 -37v-51h-506v51q128 9 164 37q37 27 37 141v975q0 115 -37 142q-34 27 -164 36v52h447l700 -1072v842q0 117 -32 142q-35 27 -162 36z" />
    <glyph glyph-name="eng" unicode="&#x14b;" horiz-adv-x="1150" 
d="M446 -293q0 37 27.5 64.5t65.5 27.5q47 0 84 -49q40 -49 71 -49q105 0 105 154v823q0 172 -160 172q-141 0 -266 -88v-604q0 -56 28 -78t109 -29v-51h-457v51q84 7 112 29t28 78v528q0 68 -64 68h-76v41l256 159h64v-102q166 102 317 102q40 0 77 -6.5t77.5 -25t69.5 -48
t48 -80t19 -116.5v-641q0 -214 -102.5 -329.5t-274.5 -115.5q-71 0 -114.5 30.5t-43.5 84.5z" />
    <glyph glyph-name="Omacron" unicode="&#x14c;" horiz-adv-x="1542" 
d="M514 1696v106h514v-106h-514zM770 1464q311 0 496 -209q186 -207 186 -538q0 -332 -186 -539q-185 -209 -496 -209q-308 0 -496 209q-184 208 -184 539q0 330 184 538q188 209 496 209zM770 59q457 0 457 658q0 659 -457 659q-455 0 -455 -659q0 -658 455 -658z" />
    <glyph glyph-name="omacron" unicode="&#x14d;" horiz-adv-x="1107" 
d="M297 1186v106h514v-106h-514zM1036 463q0 -213 -135 -354q-134 -140 -348 -140q-211 0 -348 140q-133 142 -133 354q0 211 133 350q135 141 348 141t348 -141q135 -138 135 -350zM553 874q-285 0 -285 -411q0 -188 68 -303q70 -111 217 -111t217 111q70 113 70 303
q0 196 -71.5 303.5t-215.5 107.5z" />
    <glyph glyph-name="Obreve" unicode="&#x14e;" horiz-adv-x="1542" 
d="M977 1849h72q-18 -91 -91 -147.5t-188 -56.5q-113 0 -185.5 56.5t-90.5 147.5h73q35 -92 203 -92q80 0 137 25t70 67zM770 1464q311 0 496 -209q186 -207 186 -538q0 -332 -186 -539q-185 -209 -496 -209q-308 0 -496 209q-184 208 -184 539q0 330 184 538
q188 209 496 209zM770 59q457 0 457 658q0 659 -457 659q-455 0 -455 -659q0 -658 455 -658z" />
    <glyph glyph-name="obreve" unicode="&#x14f;" horiz-adv-x="1107" 
d="M760 1339h71q-18 -91 -90.5 -147.5t-187.5 -56.5q-113 0 -186 56.5t-91 147.5h74q35 -92 203 -92q80 0 137 25t70 67zM1036 463q0 -213 -135 -354q-134 -140 -348 -140q-211 0 -348 140q-133 142 -133 354q0 211 133 350q135 141 348 141t348 -141q135 -138 135 -350z
M553 874q-285 0 -285 -411q0 -188 68 -303q70 -111 217 -111t217 111q70 113 70 303q0 196 -71.5 303.5t-215.5 107.5z" />
    <glyph glyph-name="Ohungarumlaut" unicode="&#x150;" horiz-adv-x="1542" 
d="M573 1552l80 289q7 25 18 33t36 8h102q37 0 37 -31q0 -14 -31 -59l-176 -240h-66zM854 1552l84 289q9 41 51 41h101q36 0 36 -31q0 -16 -30 -59l-176 -240h-66zM770 1464q311 0 496 -209q186 -207 186 -538q0 -332 -186 -539q-185 -209 -496 -209q-308 0 -496 209
q-184 208 -184 539q0 330 184 538q188 209 496 209zM770 59q457 0 457 658q0 659 -457 659q-455 0 -455 -659q0 -658 455 -658z" />
    <glyph glyph-name="ohungarumlaut" unicode="&#x151;" horiz-adv-x="1107" 
d="M356 1042l80 289q8 25 18 33t35 8h103q37 0 37 -31q0 -14 -31 -59l-176 -240h-66zM637 1042l84 289q9 41 51 41h100q37 0 37 -31q0 -15 -30 -59l-177 -240h-65zM1036 463q0 -213 -135 -354q-134 -140 -348 -140q-211 0 -348 140q-133 142 -133 354q0 211 133 350
q135 141 348 141t348 -141q135 -138 135 -350zM553 874q-285 0 -285 -411q0 -188 68 -303q70 -111 217 -111t217 111q70 113 70 303q0 196 -71.5 303.5t-215.5 107.5z" />
    <glyph glyph-name="OE" unicode="&#x152;" horiz-adv-x="2357" 
d="M1473 92h210q215 0 353 78q137 76 264 233l41 -26l-199 -377h-1050q-140 -31 -285 -31q-334 0 -526 207q-191 209 -191 541t191 538q191 209 526 209q159 0 285 -30h1052l135 -334l-41 -23q-105 140 -228 202t-310 62h-227q-62 0 -62 -61v-485h332q103 0 142.5 44.5
t47.5 153.5h56v-489h-56q-8 109 -47.5 153.5t-142.5 44.5h-332v-548q0 -62 62 -62zM807 59q412 0 412 414v498q0 211 -97 308t-315 97q-492 0 -492 -659q0 -658 492 -658z" />
    <glyph glyph-name="oe" unicode="&#x153;" horiz-adv-x="1773" 
d="M1704 561h-664q-4 -36 -4 -84q0 -422 320 -422q97 0 178 62.5t131 173.5l76 -35q-57 -136 -159.5 -211.5t-240.5 -75.5q-281 0 -407 203q-60 -97 -159.5 -150t-221.5 -53q-209 0 -346 140q-135 141 -135 354q0 211 133 350q135 141 348 141q249 0 381 -200q55 96 152 148
t217 52q185 0 293 -103t108 -290zM553 874q-285 0 -285 -411q0 -188 68 -303q70 -111 217 -111t217 111q70 113 70 303q0 196 -71.5 303.5t-215.5 107.5zM1049 643h473q0 107 -59.5 169t-157.5 62q-213 0 -256 -231z" />
    <glyph glyph-name="Racute" unicode="&#x154;" horiz-adv-x="1478" 
d="M721 1552l188 297q20 33 58 33h120q33 0 33 -31q0 -19 -43 -59l-274 -240h-82zM883 711l383 -537q44 -60 95.5 -88.5t141.5 -34.5v-51h-350l-498 705h-192v-476q0 -114 35 -141q36 -28 164 -37v-51h-601v51q128 9 164 37q35 27 35 141v975q0 116 -33 142q-35 27 -166 36
v52h711q580 0 580 -365q0 -164 -124 -255t-345 -103zM772 1341h-248q-61 0 -61 -61v-485h307q356 0 356 274q0 272 -354 272z" />
    <glyph glyph-name="racute" unicode="&#x155;" horiz-adv-x="821" 
d="M367 1042l188 297q20 33 57 33h121q33 0 33 -31q0 -19 -43 -59l-274 -240h-82zM702 725q-45 0 -92 47t-75 47q-92 0 -162 -104v-557q0 -56 28 -78t109 -29v-51h-457v51q84 7 112 29t28 78v528q0 68 -64 68h-76v41l256 159h64v-135q54 63 127 99t145 36q77 0 117.5 -34.5
t40.5 -90.5q0 -49 -28 -76.5t-73 -27.5z" />
    <glyph glyph-name="Rcommaaccent" unicode="&#x156;" horiz-adv-x="1478" 
d="M883 711l383 -537q44 -60 95.5 -88.5t141.5 -34.5v-51h-350l-498 705h-192v-476q0 -114 35 -141q36 -28 164 -37v-51h-601v51q128 9 164 37q35 27 35 141v975q0 116 -33 142q-35 27 -166 36v52h711q580 0 580 -365q0 -164 -124 -255t-345 -103zM772 1341h-248
q-61 0 -61 -61v-485h307q356 0 356 274q0 272 -354 272zM780 -123q51 0 82 -35t31 -96q0 -128 -123 -254l-35 29q38 66 53 135q-55 0 -87.5 31.5t-32.5 81.5q0 47 31.5 77.5t80.5 30.5z" />
    <glyph glyph-name="rcommaaccent" unicode="&#x157;" horiz-adv-x="821" 
d="M702 725q-45 0 -92 47t-75 47q-92 0 -162 -104v-557q0 -56 28 -78t109 -29v-51h-457v51q84 7 112 29t28 78v528q0 68 -64 68h-76v41l256 159h64v-135q54 63 127 99t145 36q77 0 117.5 -34.5t40.5 -90.5q0 -49 -28 -76.5t-73 -27.5zM281 -123q51 0 81.5 -35t30.5 -96
q0 -128 -123 -254l-34 29q38 66 53 135q-55 0 -88 31.5t-33 81.5q0 47 32 77.5t81 30.5z" />
    <glyph glyph-name="Rcaron" unicode="&#x158;" horiz-adv-x="1478" 
d="M676 1587l-205 301h84l227 -217l228 217h84l-205 -301q-21 -37 -62 -37h-90q-40 0 -61 37zM883 711l383 -537q44 -60 95.5 -88.5t141.5 -34.5v-51h-350l-498 705h-192v-476q0 -114 35 -141q36 -28 164 -37v-51h-601v51q128 9 164 37q35 27 35 141v975q0 116 -33 142
q-35 27 -166 36v52h711q580 0 580 -365q0 -164 -124 -255t-345 -103zM772 1341h-248q-61 0 -61 -61v-485h307q356 0 356 274q0 272 -354 272z" />
    <glyph glyph-name="rcaron" unicode="&#x159;" horiz-adv-x="821" 
d="M322 1077l-205 301h84l227 -217l227 217h84l-204 -301q-21 -37 -62 -37h-90q-40 0 -61 37zM702 725q-45 0 -92 47t-75 47q-92 0 -162 -104v-557q0 -56 28 -78t109 -29v-51h-457v51q84 7 112 29t28 78v528q0 68 -64 68h-76v41l256 159h64v-135q54 63 127 99t145 36
q77 0 117.5 -34.5t40.5 -90.5q0 -49 -28 -76.5t-73 -27.5z" />
    <glyph glyph-name="Sacute" unicode="&#x15a;" horiz-adv-x="1404" 
d="M655 1552l189 297q20 33 57 33h121q33 0 33 -31q0 -19 -43 -59l-275 -240h-82zM621 905l135 -35l114 -30q154 -42 217 -80q121 -68 164 -131q64 -93 64 -213q0 -194 -158 -322q-155 -125 -399 -125q-250 0 -457 115l-35 -84h-61l-133 440l47 15q103 -195 268 -296.5
t365 -101.5q157 0 270 84q111 83 108 211q0 103 -88 176q-45 36 -104 58q-75 29 -125 43l-154 43l-151 41q-55 17 -135 53q-79 39 -119 76q-45 41 -73.5 105.5t-28.5 139.5q0 161 141 269t348 108q245 0 408 -102l28 72h62l125 -400l-45 -16q-175 358 -566 358
q-145 0 -233 -64t-88 -163q0 -86 80 -154q39 -27 96 -51q51 -19 113 -39z" />
    <glyph glyph-name="sacute" unicode="&#x15b;" horiz-adv-x="950" 
d="M414 1042l188 297q20 33 57 33h121q33 0 33 -31q0 -19 -43 -59l-274 -240h-82zM528 575q6 -2 25 -6.5t24 -6t20.5 -5.5t20.5 -5.5t18 -5.5t19 -6t17.5 -6t20 -7.5t19 -8.5t21.5 -10q81 -34 119.5 -89t44.5 -147q0 -139 -104 -221q-101 -82 -263 -82q-199 0 -325 99
l-25 -68h-53l-74 309l45 15q93 -143 195 -209t235 -66q95 0 156 43.5t61 122.5q0 88 -90 125q-41 20 -76 30.5t-109 26.5q-12 3 -19 4q-137 35 -203 62q-78 33 -117 85t-45 138q0 115 94 191q95 77 240 77q175 0 282 -82l21 52h51l60 -265l-46 -16q-132 234 -356 234
q-89 0 -137.5 -36.5t-48.5 -97.5q0 -66 63 -100.5t219 -67.5z" />
    <glyph glyph-name="Scircumflex" unicode="&#x15c;" horiz-adv-x="1404" 
d="M406 1550l204 301q21 37 62 37h90q40 0 61 -37l205 -301h-84l-227 217l-228 -217h-83zM621 905l135 -35l114 -30q154 -42 217 -80q121 -68 164 -131q64 -93 64 -213q0 -194 -158 -322q-155 -125 -399 -125q-250 0 -457 115l-35 -84h-61l-133 440l47 15
q103 -195 268 -296.5t365 -101.5q157 0 270 84q111 83 108 211q0 103 -88 176q-45 36 -104 58q-75 29 -125 43l-154 43l-151 41q-55 17 -135 53q-79 39 -119 76q-45 41 -73.5 105.5t-28.5 139.5q0 161 141 269t348 108q245 0 408 -102l28 72h62l125 -400l-45 -16
q-175 358 -566 358q-145 0 -233 -64t-88 -163q0 -86 80 -154q39 -27 96 -51q51 -19 113 -39z" />
    <glyph glyph-name="scircumflex" unicode="&#x15d;" horiz-adv-x="950" 
d="M164 1040l205 301q21 37 61 37h90q41 0 62 -37l204 -301h-84l-227 217l-227 -217h-84zM528 575q6 -2 25 -6.5t24 -6t20.5 -5.5t20.5 -5.5t18 -5.5t19 -6t17.5 -6t20 -7.5t19 -8.5t21.5 -10q81 -34 119.5 -89t44.5 -147q0 -139 -104 -221q-101 -82 -263 -82
q-199 0 -325 99l-25 -68h-53l-74 309l45 15q93 -143 195 -209t235 -66q95 0 156 43.5t61 122.5q0 88 -90 125q-41 20 -76 30.5t-109 26.5q-12 3 -19 4q-137 35 -203 62q-78 33 -117 85t-45 138q0 115 94 191q95 77 240 77q175 0 282 -82l21 52h51l60 -265l-46 -16
q-132 234 -356 234q-89 0 -137.5 -36.5t-48.5 -97.5q0 -66 63 -100.5t219 -67.5z" />
    <glyph glyph-name="Scedilla" unicode="&#x15e;" horiz-adv-x="1404" 
d="M1315 416q0 -194 -156 -320q-151 -124 -393 -127l-45 -102q27 10 57 10q75 0 119.5 -35t44.5 -100q0 -76 -74.5 -133.5t-189.5 -57.5q-92 0 -154.5 34.5t-62.5 82.5q0 27 17.5 45.5t43.5 18.5q47 0 70 -51q27 -64 98 -64q56 0 89.5 27.5t33.5 70.5q0 31 -23.5 51.5
t-60.5 20.5q-52 0 -84 -29l-49 21l82 194q-201 15 -377 111l-35 -84h-61l-133 440l47 15q103 -195 268 -296.5t365 -101.5q157 0 270 84q111 83 108 211q0 103 -88 176q-45 36 -104 58q-75 29 -125 43l-154 43l-151 41q-55 17 -135 53q-79 39 -119 76q-45 41 -73.5 105.5
t-28.5 139.5q0 161 141 269t348 108q245 0 408 -102l28 72h62l125 -400l-45 -16q-175 358 -566 358q-145 0 -233 -64t-88 -163q0 -86 80 -154q39 -27 96 -51q51 -19 113 -39l135 -35l114 -30q154 -42 217 -80q121 -68 164 -131q64 -93 64 -213z" />
    <glyph glyph-name="scedilla" unicode="&#x15f;" horiz-adv-x="950" 
d="M530 -31h-6l-45 -102q27 10 58 10q75 0 119 -35t44 -100q0 -76 -74.5 -133.5t-189.5 -57.5q-92 0 -154.5 34.5t-62.5 82.5q0 26 18 45t44 19q46 0 69 -51q27 -64 99 -64q56 0 89 27.5t33 70.5q0 31 -23.5 51.5t-60.5 20.5q-52 0 -84 -29l-49 21l84 196q-142 21 -233 93
l-25 -68h-53l-74 309l45 15q93 -143 195 -209t235 -66q95 0 156 43.5t61 122.5q0 88 -90 125q-41 20 -76 30.5t-109 26.5q-12 3 -19 4q-137 35 -203 62q-78 33 -117 85t-45 138q0 115 94 191q95 77 240 77q175 0 282 -82l21 52h51l60 -265l-46 -16q-132 234 -356 234
q-89 0 -137.5 -36.5t-48.5 -97.5q0 -66 63 -100.5t219 -67.5q6 -2 25 -6.5t24 -6t20.5 -5.5t20.5 -5.5t18 -5.5t19 -6t17.5 -6t20 -7.5t19 -8.5t21.5 -10q81 -34 119.5 -89t44.5 -147q0 -139 -104 -221q-101 -82 -263 -82z" />
    <glyph glyph-name="Scaron" unicode="&#x160;" horiz-adv-x="1404" 
d="M610 1587l-204 301h83l228 -217l227 217h84l-205 -301q-21 -37 -61 -37h-90q-41 0 -62 37zM621 905l135 -35l114 -30q154 -42 217 -80q121 -68 164 -131q64 -93 64 -213q0 -194 -158 -322q-155 -125 -399 -125q-250 0 -457 115l-35 -84h-61l-133 440l47 15
q103 -195 268 -296.5t365 -101.5q157 0 270 84q111 83 108 211q0 103 -88 176q-45 36 -104 58q-75 29 -125 43l-154 43l-151 41q-55 17 -135 53q-79 39 -119 76q-45 41 -73.5 105.5t-28.5 139.5q0 161 141 269t348 108q245 0 408 -102l28 72h62l125 -400l-45 -16
q-175 358 -566 358q-145 0 -233 -64t-88 -163q0 -86 80 -154q39 -27 96 -51q51 -19 113 -39z" />
    <glyph glyph-name="scaron" unicode="&#x161;" horiz-adv-x="950" 
d="M369 1077l-205 301h84l227 -217l227 217h84l-204 -301q-21 -37 -62 -37h-90q-40 0 -61 37zM528 575q6 -2 25 -6.5t24 -6t20.5 -5.5t20.5 -5.5t18 -5.5t19 -6t17.5 -6t20 -7.5t19 -8.5t21.5 -10q81 -34 119.5 -89t44.5 -147q0 -139 -104 -221q-101 -82 -263 -82
q-199 0 -325 99l-25 -68h-53l-74 309l45 15q93 -143 195 -209t235 -66q95 0 156 43.5t61 122.5q0 88 -90 125q-41 20 -76 30.5t-109 26.5q-12 3 -19 4q-137 35 -203 62q-78 33 -117 85t-45 138q0 115 94 191q95 77 240 77q175 0 282 -82l21 52h51l60 -265l-46 -16
q-132 234 -356 234q-89 0 -137.5 -36.5t-48.5 -97.5q0 -66 63 -100.5t219 -67.5z" />
    <glyph glyph-name="uni0162" unicode="&#x162;" horiz-adv-x="1366" 
d="M977 51v-51h-600v51q128 9 164 37q34 27 34 141v1051q0 61 -61 61q-166 0 -252 -53q-79 -50 -184 -211l-45 23l157 379h52q15 -45 61 -45h760q46 0 61 45h52l157 -379l-43 -23q-100 157 -190 209q-91 55 -260 55q-62 0 -62 -61v-1051q0 -114 35 -141q36 -28 164 -37z
M678 -123q51 0 82 -35t31 -96q0 -128 -123 -254l-35 29q38 66 53 135q-55 0 -88 31.5t-33 81.5q0 47 32 77.5t81 30.5z" />
    <glyph glyph-name="uni0163" unicode="&#x163;" horiz-adv-x="653" 
d="M600 96v-80q-79 -39 -186 -39q-240 0 -240 240v623h-137v43q113 40 171 120.5t83 223.5h63v-303h246v-84h-246v-625q0 -75 27 -109q28 -34 92.5 -35t126.5 25zM264 -123q51 0 82 -35t31 -96q0 -128 -123 -254l-35 29q38 66 53 135q-55 0 -87.5 31.5t-32.5 81.5
q0 47 31.5 77.5t80.5 30.5z" />
    <glyph glyph-name="Tcaron" unicode="&#x164;" horiz-adv-x="1366" 
d="M573 1587l-204 301h84l227 -217l227 217h84l-205 -301q-21 -37 -61 -37h-90q-41 0 -62 37zM977 51v-51h-600v51q128 9 164 37q34 27 34 141v1051q0 61 -61 61q-166 0 -252 -53q-79 -50 -184 -211l-45 23l157 379h52q15 -45 61 -45h760q46 0 61 45h52l157 -379l-43 -23
q-100 157 -190 209q-91 55 -260 55q-62 0 -62 -61v-1051q0 -114 35 -141q36 -28 164 -37z" />
    <glyph glyph-name="tcaron" unicode="&#x165;" horiz-adv-x="673" 
d="M545 1481q52 0 84.5 -36.5t32.5 -98.5q0 -84 -56 -193q-52 -104 -121 -170l-36 29q94 125 112 237q-62 0 -97.5 32.5t-35.5 84.5q0 50 32 82.5t85 32.5zM600 96v-80q-79 -39 -186 -39q-240 0 -240 240v623h-137v43q113 40 171 120.5t83 223.5h63v-303h246v-84h-246v-625
q0 -75 27 -109q28 -34 92.5 -35t126.5 25z" />
    <glyph glyph-name="Tbar" unicode="&#x166;" horiz-adv-x="1366" 
d="M1124 1479h52l157 -379l-43 -23q-100 157 -190 209q-91 55 -260 55q-62 0 -62 -61v-485h207v-93h-207v-473q0 -114 35 -141q36 -28 164 -37v-51h-600v51q128 9 164 37q34 27 34 141v473h-194v93h194v485q0 61 -61 61q-166 0 -252 -53q-79 -50 -184 -211l-45 23l157 379
h52q15 -45 61 -45h760q46 0 61 45z" />
    <glyph glyph-name="tbar" unicode="&#x167;" horiz-adv-x="653" 
d="M600 924v-84h-246v-336h144v-82h-144v-207q0 -75 27 -109q28 -34 92.5 -35t126.5 25v-80q-79 -39 -186 -39q-240 0 -240 240v205h-133v82h133v336h-137v43q113 40 171 120.5t83 223.5h63v-303h246z" />
    <glyph glyph-name="Utilde" unicode="&#x168;" horiz-adv-x="1568" 
d="M1022 1858h61q-7 -100 -52 -152.5t-116 -52.5q-56 0 -139 59q-73 49 -104 49q-65 0 -80 -90h-64q7 100 52 152.5t116 52.5q57 0 140 -59q77 -50 106 -50q65 0 80 91zM444 1204v-782q0 -176 108 -267.5t298 -91.5q166 0 269.5 94t103.5 261v786q0 115 -35 142
q-34 27 -164 36v52h502v-52q-130 -9 -164 -36q-35 -27 -35 -142v-786q0 -192 -133 -322q-133 -127 -379 -127q-274 0 -423.5 115.5t-149.5 333.5v786q0 115 -35 142q-34 27 -164 36v52h600v-52q-130 -9 -164 -36q-35 -27 -35 -142z" />
    <glyph glyph-name="utilde" unicode="&#x169;" horiz-adv-x="1155" 
d="M784 1348h62q-7 -100 -52 -152.5t-116 -52.5q-56 0 -139 59q-73 49 -105 49q-65 0 -80 -90h-63q7 100 52 152.5t116 52.5q56 0 139 -59q77 -50 107 -50q64 0 79 91zM643 754v41l256 159h64v-796q0 -56 28 -78t109 -29v-51q-157 0 -318 -31v101q-162 -101 -317 -101
q-40 0 -77 6.5t-77.5 25.5t-69.5 48.5t-48 80t-19 116.5v440q0 68 -63 68h-74v41l256 159h61v-708q0 -172 162 -172q129 0 266 88v524q0 37 -15 52.5t-50 15.5h-74z" />
    <glyph glyph-name="Umacron" unicode="&#x16a;" horiz-adv-x="1568" 
d="M549 1696v106h514v-106h-514zM444 1204v-782q0 -176 108 -267.5t298 -91.5q166 0 269.5 94t103.5 261v786q0 115 -35 142q-34 27 -164 36v52h502v-52q-130 -9 -164 -36q-35 -27 -35 -142v-786q0 -192 -133 -322q-133 -127 -379 -127q-274 0 -423.5 115.5t-149.5 333.5
v786q0 115 -35 142q-34 27 -164 36v52h600v-52q-130 -9 -164 -36q-35 -27 -35 -142z" />
    <glyph glyph-name="umacron" unicode="&#x16b;" horiz-adv-x="1155" 
d="M311 1186v106h514v-106h-514zM643 754v41l256 159h64v-796q0 -56 28 -78t109 -29v-51q-157 0 -318 -31v101q-162 -101 -317 -101q-40 0 -77 6.5t-77.5 25.5t-69.5 48.5t-48 80t-19 116.5v440q0 68 -63 68h-74v41l256 159h61v-708q0 -172 162 -172q129 0 266 88v524
q0 37 -15 52.5t-50 15.5h-74z" />
    <glyph glyph-name="Ubreve" unicode="&#x16c;" horiz-adv-x="1568" 
d="M1012 1849h71q-18 -91 -90.5 -147.5t-187.5 -56.5q-113 0 -186 56.5t-91 147.5h74q35 -92 203 -92q80 0 137 25t70 67zM444 1204v-782q0 -176 108 -267.5t298 -91.5q166 0 269.5 94t103.5 261v786q0 115 -35 142q-34 27 -164 36v52h502v-52q-130 -9 -164 -36
q-35 -27 -35 -142v-786q0 -192 -133 -322q-133 -127 -379 -127q-274 0 -423.5 115.5t-149.5 333.5v786q0 115 -35 142q-34 27 -164 36v52h600v-52q-130 -9 -164 -36q-35 -27 -35 -142z" />
    <glyph glyph-name="ubreve" unicode="&#x16d;" horiz-adv-x="1155" 
d="M774 1339h72q-18 -91 -91 -147.5t-188 -56.5q-113 0 -185.5 56.5t-90.5 147.5h74q35 -92 202 -92q80 0 137 25t70 67zM643 754v41l256 159h64v-796q0 -56 28 -78t109 -29v-51q-157 0 -318 -31v101q-162 -101 -317 -101q-40 0 -77 6.5t-77.5 25.5t-69.5 48.5t-48 80
t-19 116.5v440q0 68 -63 68h-74v41l256 159h61v-708q0 -172 162 -172q129 0 266 88v524q0 37 -15 52.5t-50 15.5h-74z" />
    <glyph glyph-name="Uring" unicode="&#x16e;" horiz-adv-x="1568" 
d="M805 1974q85 0 145 -60t60 -145q0 -81 -62 -143q-59 -59 -143 -59q-85 0 -145 59.5t-60 142.5q0 85 59.5 145t145.5 60zM715 1679q37 -37 90 -37t90 37t37 90.5t-37 90.5t-90 37t-90 -37q-35 -37 -35 -90.5t35 -90.5zM444 1204v-782q0 -176 108 -267.5t298 -91.5
q166 0 269.5 94t103.5 261v786q0 115 -35 142q-34 27 -164 36v52h502v-52q-130 -9 -164 -36q-35 -27 -35 -142v-786q0 -192 -133 -322q-133 -127 -379 -127q-274 0 -423.5 115.5t-149.5 333.5v786q0 115 -35 142q-34 27 -164 36v52h600v-52q-130 -9 -164 -36
q-35 -27 -35 -142z" />
    <glyph glyph-name="uring" unicode="&#x16f;" horiz-adv-x="1155" 
d="M567 1464q85 0 145 -59.5t60 -144.5q0 -83 -61 -144q-59 -59 -144 -59t-145 60t-60 143q0 85 59.5 144.5t145.5 59.5zM477 1169q37 -37 90 -37t90 37t37 90.5t-37 90.5t-90 37t-90 -37q-35 -37 -35 -90.5t35 -90.5zM643 754v41l256 159h64v-796q0 -56 28 -78t109 -29v-51
q-157 0 -318 -31v101q-162 -101 -317 -101q-40 0 -77 6.5t-77.5 25.5t-69.5 48.5t-48 80t-19 116.5v440q0 68 -63 68h-74v41l256 159h61v-708q0 -172 162 -172q129 0 266 88v524q0 37 -15 52.5t-50 15.5h-74z" />
    <glyph glyph-name="Uhungarumlaut" unicode="&#x170;" horiz-adv-x="1568" 
d="M608 1552l80 289q8 25 18 33t35 8h103q37 0 37 -31q0 -14 -31 -59l-176 -240h-66zM889 1552l84 289q9 41 51 41h100q37 0 37 -31q0 -14 -31 -59l-176 -240h-65zM444 1204v-782q0 -176 108 -267.5t298 -91.5q166 0 269.5 94t103.5 261v786q0 115 -35 142q-34 27 -164 36
v52h502v-52q-130 -9 -164 -36q-35 -27 -35 -142v-786q0 -192 -133 -322q-133 -127 -379 -127q-274 0 -423.5 115.5t-149.5 333.5v786q0 115 -35 142q-34 27 -164 36v52h600v-52q-130 -9 -164 -36q-35 -27 -35 -142z" />
    <glyph glyph-name="uhungarumlaut" unicode="&#x171;" horiz-adv-x="1155" 
d="M371 1042l80 289q8 25 18 33t35 8h102q37 0 37 -31q0 -14 -31 -59l-176 -240h-65zM651 1042l84 289q9 41 51 41h101q37 0 37 -31q0 -14 -31 -59l-176 -240h-66zM643 754v41l256 159h64v-796q0 -56 28 -78t109 -29v-51q-157 0 -318 -31v101q-162 -101 -317 -101
q-40 0 -77 6.5t-77.5 25.5t-69.5 48.5t-48 80t-19 116.5v440q0 68 -63 68h-74v41l256 159h61v-708q0 -172 162 -172q129 0 266 88v524q0 37 -15 52.5t-50 15.5h-74z" />
    <glyph glyph-name="Uogonek" unicode="&#x172;" horiz-adv-x="1568" 
d="M1024 1382v52h502v-52q-130 -9 -164 -36q-35 -27 -35 -142v-786q0 -149 -78 -260.5t-223 -157.5q-135 -70 -135 -195q0 -53 37.5 -90t89.5 -37q90 0 137 93l62 -33q-77 -150 -242 -150q-95 0 -157 51t-62 134q0 115 129 198q-14 -2 -70 -2q-274 0 -423.5 115.5
t-149.5 333.5v786q0 115 -35 142q-34 27 -164 36v52h600v-52q-130 -9 -164 -36q-35 -27 -35 -142v-782q0 -176 108 -267.5t298 -91.5q166 0 269.5 94t103.5 261v786q0 115 -35 142q-34 27 -164 36z" />
    <glyph glyph-name="uogonek" unicode="&#x173;" horiz-adv-x="1155" 
d="M1051 -229l61 -33q-76 -150 -242 -150q-95 0 -157 51t-62 134q0 118 131 200v97q-162 -101 -317 -101q-40 0 -77 6.5t-77.5 25.5t-69.5 48.5t-48 80t-19 116.5v440q0 68 -63 68h-74v41l256 159h61v-708q0 -172 162 -172q129 0 266 88v524q0 37 -15 52.5t-50 15.5h-74v41
l256 159h64v-796q0 -56 28 -78t109 -29v-51q-99 0 -201 -12q-113 -70 -113 -183q0 -53 37.5 -90t89.5 -37q91 0 138 93z" />
    <glyph glyph-name="Wcircumflex" unicode="&#x174;" horiz-adv-x="1996" 
d="M1225 1550l-228 217l-227 -217h-84l205 301q21 37 61 37h90q41 0 62 -37l205 -301h-84zM1591 1382v52h432v-52q-73 -7 -110.5 -44t-69.5 -134l-387 -1204h-115l-346 1083l-348 -1083h-115l-385 1204q-36 106 -65 135q-29 34 -109 43v52h541v-52q-121 -7 -153 -45.5
t-1 -132.5l285 -887l299 922q-27 79 -58 107.5t-102 35.5v52h539v-52q-122 -7 -154.5 -45.5t0.5 -132.5l285 -887l287 887q33 94 1.5 132.5t-151.5 45.5z" />
    <glyph glyph-name="wcircumflex" unicode="&#x175;" horiz-adv-x="1560" 
d="M467 1040l205 301q21 37 61 37h90q41 0 62 -37l205 -301h-84l-228 217l-227 -217h-84zM1022 0l-242 631l-245 -631h-121l-271 694q-41 104 -67 137q-27 35 -94 41v52h452v-52q-102 -7 -121 -45.5t25 -132.5l180 -469l213 525q-30 64 -62.5 91t-88.5 31v52h464v-52
q-102 -7 -120 -45.5t26 -132.5l180 -473l185 473q36 94 10.5 132t-125.5 46v52h379v-52q-57 -7 -92.5 -45.5t-73.5 -132.5l-268 -694h-123z" />
    <glyph glyph-name="Ycircumflex" unicode="&#x176;" horiz-adv-x="1290" 
d="M342 1550l205 301q21 37 61 37h90q41 0 62 -37l205 -301h-84l-228 217l-227 -217h-84zM549 229v369l-373 606q-62 101 -98 137q-32 32 -105 41v52h539v-52q-109 -8 -133 -46.5t27 -129.5l299 -493l284 491q50 91 24 130.5t-136 47.5v52h440v-52q-81 -9 -121 -43
q-36 -31 -96 -135l-348 -602v-373q0 -114 34 -141q36 -28 164 -37v-51h-600v51q128 9 164 37q35 27 35 141z" />
    <glyph glyph-name="ycircumflex" unicode="&#x177;" horiz-adv-x="948" 
d="M174 1040l205 301q21 37 61 37h90q41 0 62 -37l205 -301h-84l-228 217l-227 -217h-84zM801 694l-350 -874q-89 -228 -287 -228q-86 0 -142.5 36t-56.5 93q0 39 29.5 68t71.5 29q46 0 92 -49q46 -52 80 -52q78 0 131 140l47 120l-273 717q-40 100 -67 135q-27 34 -94 43
v52h450v-52q-100 -7 -117.5 -45.5t23.5 -132.5l178 -471l189 471q35 94 12.5 132t-113.5 46v52h363v-52q-57 -7 -92.5 -45.5t-73.5 -132.5z" />
    <glyph glyph-name="Ydieresis" unicode="&#x178;" horiz-adv-x="1290" 
d="M483 1878q47 0 78 -30.5t31 -75.5q0 -43 -31 -74t-78 -31q-48 0 -79 30.5t-31 74.5q0 45 30.5 75.5t79.5 30.5zM823 1667q-48 0 -78 30.5t-30 74.5q-4 33 16.5 59.5t50 38t64 6t57.5 -30.5q23 -23 28 -54.5t-6.5 -58.5t-38.5 -46t-63 -19zM549 229v369l-373 606
q-62 101 -98 137q-32 32 -105 41v52h539v-52q-109 -8 -133 -46.5t27 -129.5l299 -493l284 491q50 91 24 130.5t-136 47.5v52h440v-52q-81 -9 -121 -43q-36 -31 -96 -135l-348 -602v-373q0 -114 34 -141q36 -28 164 -37v-51h-600v51q128 9 164 37q35 27 35 141z" />
    <glyph glyph-name="Zacute" unicode="&#x179;" horiz-adv-x="1335" 
d="M645 1552l189 297q20 33 57 33h121q32 0 32 -31q0 -19 -43 -59l-274 -240h-82zM63 51l908 1290h-289q-192 0 -309 -63q-120 -65 -221 -201l-43 23l137 334h995v-52l-905 -1290h301q218 0 346 76q130 77 258 235l41 -26l-201 -377h-1018v51z" />
    <glyph glyph-name="zacute" unicode="&#x17a;" horiz-adv-x="966" 
d="M424 1042l188 297q20 33 58 33h121q32 0 32 -31q0 -19 -43 -59l-274 -240h-82zM53 51l572 793h-127q-148 0 -232 -41q-82 -40 -153 -152l-47 21l86 252h712v-52l-571 -792h174q149 0 238 59q90 59 178 185l41 -23l-131 -301h-740v51z" />
    <glyph glyph-name="Zdotaccent" unicode="&#x17b;" horiz-adv-x="1335" 
d="M707 1878q47 0 77.5 -30.5t30.5 -75.5q0 -44 -30.5 -74.5t-77.5 -30.5q-49 0 -80 30.5t-31 74.5q0 45 31 75.5t80 30.5zM63 51l908 1290h-289q-192 0 -309 -63q-120 -65 -221 -201l-43 23l137 334h995v-52l-905 -1290h301q218 0 346 76q130 77 258 235l41 -26l-201 -377
h-1018v51z" />
    <glyph glyph-name="zdotaccent" unicode="&#x17c;" horiz-adv-x="966" 
d="M485 1368q47 0 78 -30.5t31 -75.5q0 -43 -31 -74t-78 -31q-48 0 -79 30.5t-31 74.5q0 45 30.5 75.5t79.5 30.5zM53 51l572 793h-127q-148 0 -232 -41q-82 -40 -153 -152l-47 21l86 252h712v-52l-571 -792h174q149 0 238 59q90 59 178 185l41 -23l-131 -301h-740v51z" />
    <glyph glyph-name="Zcaron" unicode="&#x17d;" horiz-adv-x="1335" 
d="M600 1587l-205 301h84l228 -217l227 217h84l-205 -301q-21 -37 -61 -37h-90q-41 0 -62 37zM63 51l908 1290h-289q-192 0 -309 -63q-120 -65 -221 -201l-43 23l137 334h995v-52l-905 -1290h301q218 0 346 76q130 77 258 235l41 -26l-201 -377h-1018v51z" />
    <glyph glyph-name="zcaron" unicode="&#x17e;" horiz-adv-x="966" 
d="M379 1077l-205 301h84l227 -217l228 217h84l-205 -301q-21 -37 -62 -37h-90q-40 0 -61 37zM53 51l572 793h-127q-148 0 -232 -41q-82 -40 -153 -152l-47 21l86 252h712v-52l-571 -792h174q149 0 238 59q90 59 178 185l41 -23l-131 -301h-740v51z" />
    <glyph glyph-name="longs" unicode="&#x17f;" horiz-adv-x="614" 
d="M520 0h-467v51q84 7 112 29t28 78v682h-140v84h140v120q0 193 104 306q105 114 270 114q72 0 117 -30.5t45 -77.5q0 -43 -27.5 -71t-68.5 -28q-47 0 -88 50q-37 49 -74 49q-45 0 -71.5 -40.5t-26.5 -113.5v-1044q0 -55 31 -77t116 -30v-51z" />
    <glyph glyph-name="florin" unicode="&#x192;" horiz-adv-x="1183" 
d="M119 711v80h332l63 253q49 195 171.5 307.5t283.5 112.5q72 0 116.5 -30.5t44.5 -77.5q0 -43 -27.5 -71t-68.5 -28q-44 0 -88 50q-40 49 -76 49q-45 0 -80.5 -40.5t-54.5 -113.5l-102 -411h354v-80h-375l-168 -674q-53 -218 -172.5 -331.5t-283.5 -113.5q-73 0 -116.5 30
t-43.5 85q0 37 27 64.5t65 27.5q46 0 86 -49t72 -49q100 0 141 154l211 856h-311z" />
    <glyph glyph-name="AEacute" unicode="&#x1fc;" horiz-adv-x="2181" 
d="M1430 1792l-275 -240h-82l189 297q20 33 57 33h121q33 0 33 -31q0 -19 -43 -59zM2124 403l41 -26l-201 -377h-1130v51q127 9 163 37q35 27 35 141v215h-565l-156 -223q-48 -75 -14 -118.5t139 -51.5v-51h-469v51q113 3 236 178l774 1114q-47 33 -195 39v52h1184l137 -334
l-43 -23q-102 139 -225.5 201.5t-310.5 62.5h-228q-61 0 -61 -61v-485h332q103 0 142.5 44.5t47.5 153.5h53v-489h-53q-8 109 -47.5 153.5t-142.5 44.5h-332v-548q0 -62 61 -62h211q215 0 353 78q137 76 264 233zM1032 1262l-502 -725h502v725z" />
    <glyph glyph-name="aeacute" unicode="&#x1fd;" horiz-adv-x="1652" 
d="M727 1042l188 297q20 33 58 33h121q32 0 32 -31q0 -19 -43 -59l-274 -240h-82zM815 793q112 161 332 161q185 0 293 -104.5t108 -288.5h-663q-6 -49 -6 -98q0 -408 319 -408q99 0 180 62.5t129 173.5l76 -35q-121 -287 -397 -287q-272 0 -410 181q-216 -177 -428 -177
q-130 0 -203 57.5t-73 162.5q0 156 176 239q86 39 182.5 63.5t253.5 51.5v123q0 117 -31.5 162t-115.5 45q-175 0 -213 -150q-27 -98 -103 -98q-80 0 -80 92t113 162q115 71 293 71q210 0 268 -161zM893 643h473q0 107 -59.5 169t-157.5 62q-213 0 -256 -231zM684 469
q-216 -32 -316 -89t-100 -163q0 -68 39 -103.5t107 -35.5q153 0 327 131q-57 105 -57 260z" />
    <glyph glyph-name="Oslashacute" unicode="&#x1fe;" horiz-adv-x="1542" 
d="M1065 1792l-274 -240h-82l188 297q20 33 57 33h121q33 0 33 -31q0 -19 -43 -59zM1419 1434l-149 -183q182 -206 182 -534q0 -332 -186 -539q-185 -209 -496 -209q-255 0 -436 152l-98 -121h-113l149 180q-182 206 -182 537q0 330 184 538q188 209 496 209q258 0 438 -151
l99 121h112zM315 717q0 -244 66 -404l735 889q-113 174 -346 174q-455 0 -455 -659zM770 59q457 0 457 658q0 243 -66 403l-735 -889q114 -172 344 -172z" />
    <glyph glyph-name="oslashacute" unicode="&#x1ff;" horiz-adv-x="1107" 
d="M848 1282l-275 -240h-81l188 297q20 33 57 33h121q33 0 33 -31q0 -19 -43 -59zM1016 924l-105 -119q125 -137 125 -342q0 -213 -135 -354q-134 -140 -348 -140q-171 0 -297 97l-57 -66h-107l105 119q-125 137 -125 344q0 211 133 350q135 141 348 141q171 0 299 -96
l57 66h107zM268 463q0 -137 33 -227l469 530q-76 108 -217 108q-285 0 -285 -411zM553 49q144 0 215.5 109t71.5 305q0 137 -33 225l-469 -530q77 -109 215 -109z" />
    <glyph glyph-name="Scommaaccent" unicode="&#x218;" horiz-adv-x="1404" 
d="M621 905l135 -35l114 -30q154 -42 217 -80q121 -68 164 -131q64 -93 64 -213q0 -194 -158 -322q-155 -125 -399 -125q-250 0 -457 115l-35 -84h-61l-133 440l47 15q103 -195 268 -296.5t365 -101.5q157 0 270 84q111 83 108 211q0 103 -88 176q-45 36 -104 58
q-75 29 -125 43l-154 43l-151 41q-55 17 -135 53q-79 39 -119 76q-45 41 -73.5 105.5t-28.5 139.5q0 161 141 269t348 108q245 0 408 -102l28 72h62l125 -400l-45 -16q-175 358 -566 358q-145 0 -233 -64t-88 -163q0 -86 80 -154q39 -27 96 -51q51 -19 113 -39zM715 -123
q51 0 81.5 -35t30.5 -96q0 -129 -122 -254l-35 29q38 66 53 135q-55 0 -88 31.5t-33 81.5q0 47 32 77.5t81 30.5z" />
    <glyph glyph-name="scommaaccent" unicode="&#x219;" horiz-adv-x="950" 
d="M528 575q6 -2 25 -6.5t24 -6t20.5 -5.5t20.5 -5.5t18 -5.5t19 -6t17.5 -6t20 -7.5t19 -8.5t21.5 -10q81 -34 119.5 -89t44.5 -147q0 -139 -104 -221q-101 -82 -263 -82q-199 0 -325 99l-25 -68h-53l-74 309l45 15q93 -143 195 -209t235 -66q95 0 156 43.5t61 122.5
q0 88 -90 125q-41 20 -76 30.5t-109 26.5q-12 3 -19 4q-137 35 -203 62q-78 33 -117 85t-45 138q0 115 94 191q95 77 240 77q175 0 282 -82l21 52h51l60 -265l-46 -16q-132 234 -356 234q-89 0 -137.5 -36.5t-48.5 -97.5q0 -66 63 -100.5t219 -67.5zM473 -123q51 0 82 -35
t31 -96q0 -128 -123 -254l-35 29q38 66 53 135q-55 0 -88 31.5t-33 81.5q0 47 32 77.5t81 30.5z" />
    <glyph glyph-name="uni021A" unicode="&#x21a;" horiz-adv-x="1366" 
d="M977 51v-51h-600v51q128 9 164 37q34 27 34 141v1051q0 61 -61 61q-166 0 -252 -53q-79 -50 -184 -211l-45 23l157 379h52q15 -45 61 -45h760q46 0 61 45h52l157 -379l-43 -23q-100 157 -190 209q-91 55 -260 55q-62 0 -62 -61v-1051q0 -114 35 -141q36 -28 164 -37z
M678 -123q51 0 82 -35t31 -96q0 -128 -123 -254l-35 29q38 66 53 135q-55 0 -88 31.5t-33 81.5q0 47 32 77.5t81 30.5z" />
    <glyph glyph-name="uni021B" unicode="&#x21b;" horiz-adv-x="653" 
d="M600 96v-80q-79 -39 -186 -39q-240 0 -240 240v623h-137v43q113 40 171 120.5t83 223.5h63v-303h246v-84h-246v-625q0 -75 27 -109q28 -34 92.5 -35t126.5 25zM264 -123q51 0 82 -35t31 -96q0 -128 -123 -254l-35 29q38 66 53 135q-55 0 -87.5 31.5t-32.5 81.5
q0 47 31.5 77.5t80.5 30.5z" />
    <glyph glyph-name="uni0237" unicode="&#x237;" horiz-adv-x="544" 
d="M-162 -293q0 37 27 64.5t65 27.5q47 0 84 -49q40 -49 72 -49q49 0 78 39t29 115v831q0 68 -64 68h-76v41l256 159h64v-917q0 -214 -102.5 -329.5t-274.5 -115.5q-71 0 -114.5 30.5t-43.5 84.5z" />
    <glyph glyph-name="uni02B0" unicode="&#x2b0;" horiz-adv-x="874" 
d="M860 567h-373v47q61 6 81 21.5t20 54.5v400q0 120 -117 120q-86 0 -186 -59v-461q0 -39 20.5 -54.5t81.5 -21.5v-47h-373v47q61 6 81 21.5t20 54.5v764q0 47 -45 47h-56v41l211 123h60v-434q125 76 241 76q232 0 232 -220v-397q0 -39 20.5 -54.5t81.5 -21.5v-47z" />
    <glyph glyph-name="circumflex" unicode="&#x2c6;" horiz-adv-x="663" 
d="M20 1040l205 301q21 37 62 37h90q40 0 61 -37l205 -301h-84l-227 217l-228 -217h-84z" />
    <glyph glyph-name="caron" unicode="&#x2c7;" horiz-adv-x="663" 
d="M225 1077l-205 301h84l228 -217l227 217h84l-205 -301q-21 -37 -61 -37h-90q-41 0 -62 37z" />
    <glyph glyph-name="breve" unicode="&#x2d8;" horiz-adv-x="595" 
d="M504 1339h71q-18 -91 -90.5 -147.5t-187.5 -56.5q-113 0 -186 56.5t-91 147.5h74q35 -92 203 -92q80 0 137 25t70 67z" />
    <glyph glyph-name="dotaccent" unicode="&#x2d9;" horiz-adv-x="260" 
d="M131 1368q47 0 78 -30.5t31 -75.5q0 -43 -31 -74t-78 -31q-49 0 -80 30.5t-31 74.5q0 45 31 75.5t80 30.5z" />
    <glyph glyph-name="ring" unicode="&#x2da;" horiz-adv-x="450" 
d="M225 1464q85 0 145 -59.5t60 -144.5q0 -83 -61 -144q-59 -59 -144 -59t-145 60t-60 143q0 85 59.5 144.5t145.5 59.5zM135 1169q37 -37 90 -37t90 37t37 90.5t-37 90.5t-90 37t-90 -37q-35 -37 -35 -90.5t35 -90.5z" />
    <glyph glyph-name="ogonek" unicode="&#x2db;" horiz-adv-x="501" 
d="M197 0h94q-135 -70 -135 -195q0 -53 37.5 -90t89.5 -37q90 0 137 93l61 -33q-77 -150 -241 -150q-95 0 -157.5 51t-62.5 134q0 138 177 227z" />
    <glyph glyph-name="tilde" unicode="&#x2dc;" horiz-adv-x="595" 
d="M514 1348h61q-7 -100 -51.5 -152.5t-115.5 -52.5q-57 0 -140 59q-73 49 -104 49q-65 0 -80 -90h-64q7 100 52 152.5t116 52.5q57 0 140 -59q77 -50 106 -50q65 0 80 91z" />
    <glyph glyph-name="hungarumlaut" unicode="&#x2dd;" horiz-adv-x="593" 
d="M20 1042l80 289q7 25 18 33t36 8h102q37 0 37 -31q0 -14 -31 -59l-176 -240h-66zM301 1042l84 289q9 41 51 41h101q36 0 36 -31q0 -15 -30 -59l-176 -240h-66z" />
    <glyph glyph-name="gravecomb" unicode="&#x300;" horiz-adv-x="0" 
d="M-209 1339l189 -297h-82l-275 240q-43 40 -43 59q0 31 33 31h121q37 0 57 -33z" />
    <glyph glyph-name="acutecomb" unicode="&#x301;" horiz-adv-x="0" 
d="M-420 1042l189 297q20 33 57 33h121q33 0 33 -31q0 -19 -43 -59l-275 -240h-82z" />
    <glyph glyph-name="uni0302" unicode="&#x302;" horiz-adv-x="0" 
d="M-643 1040l205 301q21 37 61 37h90q41 0 62 -37l205 -301h-84l-228 217l-227 -217h-84z" />
    <glyph glyph-name="tildecomb" unicode="&#x303;" horiz-adv-x="0" 
d="M-82 1348h62q-7 -100 -52 -152.5t-116 -52.5q-57 0 -140 59q-73 49 -104 49q-65 0 -80 -90h-63q7 100 51.5 152.5t115.5 52.5q57 0 140 -59q77 -50 106 -50q65 0 80 91z" />
    <glyph glyph-name="uni0304" unicode="&#x304;" horiz-adv-x="0" 
d="M-535 1186v106h515v-106h-515z" />
    <glyph glyph-name="uni0306" unicode="&#x306;" horiz-adv-x="0" 
d="M-92 1339h72q-18 -91 -91 -147.5t-188 -56.5q-113 0 -185.5 56.5t-90.5 147.5h73q35 -92 203 -92q80 0 137 25t70 67z" />
    <glyph glyph-name="uni0307" unicode="&#x307;" horiz-adv-x="0" 
d="M-129 1368q47 0 78 -30.5t31 -75.5q0 -43 -31 -74t-78 -31q-49 0 -80 30.5t-31 74.5q0 45 31 75.5t80 30.5z" />
    <glyph glyph-name="uni0308" unicode="&#x308;" horiz-adv-x="0" 
d="M-471 1368q47 0 78 -30.5t31 -75.5q0 -43 -31 -74t-78 -31q-49 0 -80 30.5t-31 74.5q0 45 31 75.5t80 30.5zM-20 1262q0 -43 -32 -74t-79 -31q-48 0 -78.5 30.5t-30.5 74.5q0 45 30 75.5t79 30.5t80 -30.5t31 -75.5z" />
    <glyph glyph-name="uni030A" unicode="&#x30a;" horiz-adv-x="0" 
d="M-225 1464q85 0 145 -59.5t60 -144.5q0 -81 -60 -144q-62 -59 -145 -59q-85 0 -145 60t-60 143q0 85 59.5 144.5t145.5 59.5zM-313 1169q35 -37 88 -37t90 37t37 90.5t-37 90.5t-90 37t-88 -37q-37 -37 -37 -90.5t37 -90.5z" />
    <glyph glyph-name="uni030B" unicode="&#x30b;" horiz-adv-x="0" 
d="M-573 1042l79 289q7 25 18 33t36 8h102q37 0 37 -31q0 -14 -31 -59l-176 -240h-65zM-293 1042l84 289q9 41 51 41h101q37 0 37 -31q0 -14 -31 -59l-176 -240h-66z" />
    <glyph glyph-name="uni030C" unicode="&#x30c;" horiz-adv-x="0" 
d="M-438 1077l-205 301h84l227 -217l228 217h84l-205 -301q-21 -37 -62 -37h-90q-40 0 -61 37z" />
    <glyph glyph-name="uni0312" unicode="&#x312;" horiz-adv-x="0" 
d="M-133 1106q-51 0 -82 35t-31 96q0 128 123 254l35 -29q-38 -66 -53 -135q55 0 88 -31.5t33 -81.5q0 -47 -32 -77.5t-81 -30.5z" />
    <glyph glyph-name="uni0326" unicode="&#x326;" horiz-adv-x="0" 
d="M-133 -123q51 0 82 -35t31 -96q0 -128 -123 -254l-35 29q38 66 53 135q-55 0 -88 31.5t-33 81.5q0 47 32 77.5t81 30.5z" />
    <glyph glyph-name="uni0327" unicode="&#x327;" horiz-adv-x="0" 
d="M-20 -258q0 -76 -75 -133.5t-190 -57.5q-92 0 -154.5 34.5t-62.5 82.5q0 26 18 45t44 19q46 0 69 -51q27 -64 99 -64q56 0 89 27.5t33 70.5q0 31 -23.5 51.5t-59.5 20.5q-52 0 -84 -29l-50 21l95 221h88l-58 -133q27 10 58 10q75 0 119.5 -35t44.5 -100z" />
    <glyph glyph-name="uni0328" unicode="&#x328;" horiz-adv-x="0" 
d="M-305 0h94q-135 -70 -135 -195q0 -53 37.5 -90t89.5 -37q90 0 137 93l62 -33q-76 -150 -242 -150q-95 0 -157 51t-62 134q0 138 176 227z" />
    <glyph glyph-name="uni0394" unicode="&#x394;" horiz-adv-x="1349" 
d="M625 1434h116l545 -1434h-1206zM623 1174l-410 -1082h823z" />
    <glyph glyph-name="uni03A9" unicode="&#x3a9;" horiz-adv-x="1544" 
d="M1405 -45h-55q0 45 -35 45h-459v133q207 192 287 356q84 173 84 388q0 239 -112 369t-343 130q-232 0 -344.5 -130t-112.5 -369q0 -215 84 -388q83 -164 287 -356v-133h-459q-34 0 -34 -45h-56l-45 395h55q20 -116 46 -149q23 -29 77 -29h258q-438 333 -438 713
q0 255 184 418q185 161 498 161q314 0 496 -161q184 -163 184 -418q0 -380 -438 -713h260q55 0 78 29q24 31 45 149h55z" />
    <glyph glyph-name="uni03BC" unicode="&#x3bc;" horiz-adv-x="1105" 
d="M270 41q17 -51 74 -164q57 -108 57 -153q0 -59 -34 -95.5t-86 -36.5t-87.5 37.5t-35.5 96.5v1198h182v-678q0 -172 160 -172q135 0 266 88v762h182v-738q0 -112 66 -112q30 0 76 22v-73q-67 -46 -142 -46q-134 0 -168 105q-140 -113 -307 -113q-128 0 -203 72z" />
    <glyph glyph-name="pi" unicode="&#x3c0;" horiz-adv-x="1105" 
d="M27 78q0 35 26.5 61.5t63.5 26.5q43 0 76 -45q34 -43 67 -43q105 0 105 153v525h-39q-68 0 -111 -41t-43 -105h-74q0 42 7 81t27 83t52 76t87 53t126 21h410q203 0 278 34v-59q-41 -65 -92.5 -96t-152.5 -41v-578q0 -110 65 -110q30 0 76 22v-73q-61 -46 -143 -46
q-160 0 -160 179v600h-227v-463q0 -152 -70 -238t-207 -86q-64 0 -105.5 29.5t-41.5 79.5z" />
    <glyph glyph-name="Wgrave" unicode="&#x1e80;" horiz-adv-x="1996" 
d="M975 1552l-275 240q-43 40 -43 59q0 31 33 31h121q37 0 57 -33l189 -297h-82zM1591 1382v52h432v-52q-73 -7 -110.5 -44t-69.5 -134l-387 -1204h-115l-346 1083l-348 -1083h-115l-385 1204q-36 106 -65 135q-29 34 -109 43v52h541v-52q-121 -7 -153 -45.5t-1 -132.5
l285 -887l299 922q-27 79 -58 107.5t-102 35.5v52h539v-52q-122 -7 -154.5 -45.5t0.5 -132.5l285 -887l287 887q33 94 1.5 132.5t-151.5 45.5z" />
    <glyph glyph-name="wgrave" unicode="&#x1e81;" horiz-adv-x="1560" 
d="M649 1339l189 -297h-82l-275 240q-43 40 -43 59q0 31 33 31h121q37 0 57 -33zM1022 0l-242 631l-245 -631h-121l-271 694q-41 104 -67 137q-27 35 -94 41v52h452v-52q-102 -7 -121 -45.5t25 -132.5l180 -469l213 525q-30 64 -62.5 91t-88.5 31v52h464v-52
q-102 -7 -120 -45.5t26 -132.5l180 -473l185 473q36 94 10.5 132t-125.5 46v52h379v-52q-57 -7 -92.5 -45.5t-73.5 -132.5l-268 -694h-123z" />
    <glyph glyph-name="Wacute" unicode="&#x1e82;" horiz-adv-x="1996" 
d="M1292 1792l-274 -240h-82l188 297q20 33 58 33h121q32 0 32 -31q0 -19 -43 -59zM1591 1382v52h432v-52q-73 -7 -110.5 -44t-69.5 -134l-387 -1204h-115l-346 1083l-348 -1083h-115l-385 1204q-36 106 -65 135q-29 34 -109 43v52h541v-52q-121 -7 -153 -45.5t-1 -132.5
l285 -887l299 922q-27 79 -58 107.5t-102 35.5v52h539v-52q-122 -7 -154.5 -45.5t0.5 -132.5l285 -887l287 887q33 94 1.5 132.5t-151.5 45.5z" />
    <glyph glyph-name="wacute" unicode="&#x1e83;" horiz-adv-x="1560" 
d="M717 1042l188 297q20 33 58 33h120q33 0 33 -31q0 -19 -43 -59l-274 -240h-82zM1022 0l-242 631l-245 -631h-121l-271 694q-41 104 -67 137q-27 35 -94 41v52h452v-52q-102 -7 -121 -45.5t25 -132.5l180 -469l213 525q-30 64 -62.5 91t-88.5 31v52h464v-52
q-102 -7 -120 -45.5t26 -132.5l180 -473l185 473q36 94 10.5 132t-125.5 46v52h379v-52q-57 -7 -92.5 -45.5t-73.5 -132.5l-268 -694h-123z" />
    <glyph glyph-name="Wdieresis" unicode="&#x1e84;" horiz-adv-x="1996" 
d="M827 1667q-48 0 -79 30.5t-31 74.5q0 45 30.5 75.5t79.5 30.5q47 0 78 -30.5t31 -75.5q0 -43 -31 -74t-78 -31zM1167 1667q-48 0 -78 30.5t-30 74.5q-4 33 16.5 59.5t50 38t64 6t57.5 -30.5q23 -23 28 -54.5t-6.5 -58.5t-38.5 -46t-63 -19zM1591 1382v52h432v-52
q-73 -7 -110.5 -44t-69.5 -134l-387 -1204h-115l-346 1083l-348 -1083h-115l-385 1204q-36 106 -65 135q-29 34 -109 43v52h541v-52q-121 -7 -153 -45.5t-1 -132.5l285 -887l299 922q-27 79 -58 107.5t-102 35.5v52h539v-52q-122 -7 -154.5 -45.5t0.5 -132.5l285 -887
l287 887q33 94 1.5 132.5t-151.5 45.5z" />
    <glyph glyph-name="wdieresis" unicode="&#x1e85;" horiz-adv-x="1560" 
d="M608 1368q47 0 78 -30.5t31 -75.5q0 -43 -31 -74t-78 -31q-48 0 -79 30.5t-31 74.5q0 45 30.5 75.5t79.5 30.5zM948 1368q47 0 79 -31t32 -75q0 -43 -32 -74t-79 -31q-48 0 -78 30.5t-30 74.5q0 45 30 75.5t78 30.5zM1022 0l-242 631l-245 -631h-121l-271 694
q-41 104 -67 137q-27 35 -94 41v52h452v-52q-102 -7 -121 -45.5t25 -132.5l180 -469l213 525q-30 64 -62.5 91t-88.5 31v52h464v-52q-102 -7 -120 -45.5t26 -132.5l180 -473l185 473q36 94 10.5 132t-125.5 46v52h379v-52q-57 -7 -92.5 -45.5t-73.5 -132.5l-268 -694h-123z
" />
    <glyph glyph-name="uni1E9E" unicode="&#x1e9e;" horiz-adv-x="1546" 
d="M1018 825q201 0 334 -118q135 -120 135 -299q0 -187 -131 -312q-133 -127 -346 -127q-179 0 -303 92l43 74q106 -80 231 -80q136 0 208.5 97.5t72.5 255.5q0 147 -95 239q-94 94 -229 94q-101 0 -186 -49l-39 53l393 545q-100 80 -272 80q-181 0 -285.5 -114t-104.5 -332
v-695q0 -114 35 -141q36 -28 164 -37v-51h-600v51q128 9 164 37q35 27 35 141v674q0 272 161 414q163 147 424 147q313 0 488 -172l-336 -469q8 2 39 2z" />
    <glyph glyph-name="Ygrave" unicode="&#x1ef2;" horiz-adv-x="1290" 
d="M524 1849l189 -297h-82l-275 240q-43 40 -43 59q0 31 33 31h121q37 0 57 -33zM549 229v369l-373 606q-62 101 -98 137q-32 32 -105 41v52h539v-52q-109 -8 -133 -46.5t27 -129.5l299 -493l284 491q50 91 24 130.5t-136 47.5v52h440v-52q-81 -9 -121 -43q-36 -31 -96 -135
l-348 -602v-373q0 -114 34 -141q36 -28 164 -37v-51h-600v51q128 9 164 37q35 27 35 141z" />
    <glyph glyph-name="ygrave" unicode="&#x1ef3;" horiz-adv-x="948" 
d="M356 1339l189 -297h-82l-275 240q-43 40 -43 59q0 31 33 31h121q37 0 57 -33zM801 694l-350 -874q-89 -228 -287 -228q-86 0 -142.5 36t-56.5 93q0 39 29.5 68t71.5 29q46 0 92 -49q46 -52 80 -52q78 0 131 140l47 120l-273 717q-40 100 -67 135q-27 34 -94 43v52h450
v-52q-100 -7 -117.5 -45.5t23.5 -132.5l178 -471l189 471q35 94 12.5 132t-113.5 46v52h363v-52q-57 -7 -92.5 -45.5t-73.5 -132.5z" />
    <glyph glyph-name="endash" unicode="&#x2013;" horiz-adv-x="1130" 
d="M20 422v80h1090v-80h-1090z" />
    <glyph glyph-name="emdash" unicode="&#x2014;" horiz-adv-x="1673" 
d="M20 422v80h1633v-80h-1633z" />
    <glyph glyph-name="quoteleft" unicode="&#x2018;" horiz-adv-x="491" 
d="M117 1079q0 93 59 211q60 120 135 189l41 -31q-104 -135 -125 -262q50 3 87 -21t50.5 -59t7.5 -74.5t-34 -66.5q-26 -27 -66 -33t-76 8t-59.5 51t-19.5 88z" />
    <glyph glyph-name="quoteright" unicode="&#x2019;" horiz-adv-x="491" 
d="M375 1315q0 -91 -60 -211t-135 -189l-41 31q104 135 125 262q-50 -4 -86.5 20t-50.5 59.5t-8 74.5t33 65q28 29 68.5 35t76 -8t59 -51.5t19.5 -87.5z" />
    <glyph glyph-name="quotesinglbase" unicode="&#x201a;" horiz-adv-x="491" 
d="M375 86q0 -91 -60 -211q-59 -118 -135 -188l-41 30q104 135 125 263q-50 -4 -86.5 20t-50.5 59.5t-8 74.5t33 65q28 29 68.5 35t76 -8.5t59 -52t19.5 -87.5z" />
    <glyph glyph-name="quotedblleft" unicode="&#x201c;" horiz-adv-x="866" 
d="M117 1079q0 93 59 211q60 120 135 189l41 -31q-104 -135 -125 -262q50 3 87 -21t50.5 -59t7.5 -74.5t-34 -66.5q-26 -27 -66 -33t-76 8t-59.5 51t-19.5 88zM492 1079q0 93 59 211q60 120 135 189l41 -31q-104 -135 -125 -262q50 3 87 -21t50.5 -59t7.5 -74.5t-34 -66.5
q-26 -27 -66 -33t-76 8t-59.5 51t-19.5 88z" />
    <glyph glyph-name="quotedblright" unicode="&#x201d;" horiz-adv-x="866" 
d="M375 1315q0 -91 -60 -211t-135 -189l-41 31q104 135 125 262q-50 -4 -86.5 20t-50.5 59.5t-8 74.5t33 65q28 29 68.5 35t76 -8t59 -51.5t19.5 -87.5zM750 1315q0 -91 -60 -211t-135 -189l-41 31q104 135 125 262q-50 -4 -87 20t-51 59.5t-8 74.5t33 65q28 29 68.5 35
t76.5 -8t59.5 -51.5t19.5 -87.5z" />
    <glyph glyph-name="quotedblbase" unicode="&#x201e;" horiz-adv-x="866" 
d="M375 86q0 -91 -60 -211q-59 -118 -135 -188l-41 30q104 135 125 263q-50 -4 -86.5 20t-50.5 59.5t-8 74.5t33 65q28 29 68.5 35t76 -8.5t59 -52t19.5 -87.5zM750 86q0 -91 -60 -211q-59 -118 -135 -188l-41 30q104 135 125 263q-50 -4 -87 20t-51 59.5t-8 74.5t33 65
q28 29 68.5 35t76.5 -8.5t59.5 -52t19.5 -87.5z" />
    <glyph glyph-name="dagger" unicode="&#x2020;" horiz-adv-x="862" 
d="M451 1110q78 9 157 33t111 24q37 0 60.5 -21.5t23.5 -53.5q0 -31 -24 -53.5t-60 -22.5q-28 0 -111 22q-79 24 -157 33q9 -77 32 -110q25 -36 25 -60q0 -86 -27 -338q-24 -250 -51 -250t-51 250q-25 262 -25 338q0 12 25 62.5t31 107.5q-80 -9 -158 -33q-80 -22 -109 -22
q-36 0 -61 22.5t-25 53.5q0 32 23.5 53.5t60.5 21.5q35 0 111 -24q78 -24 158 -33q-9 81 -33 160q-23 87 -23 110q0 36 22.5 60t53.5 24q33 0 55.5 -24t22.5 -60q0 -27 -25 -110q-22 -74 -32 -160z" />
    <glyph glyph-name="daggerdbl" unicode="&#x2021;" horiz-adv-x="862" 
d="M451 1110q78 9 157 33t111 24q37 0 60.5 -21.5t23.5 -53.5q0 -31 -24 -53.5t-60 -22.5q-28 0 -111 22q-79 24 -157 33q9 -77 32 -110q25 -36 25 -60q0 -61 -25 -211q-24 -143 -53 -143q-27 0 -51 145q-25 150 -25 209q0 12 25 62.5t31 107.5q-80 -9 -158 -33
q-80 -22 -109 -22q-36 0 -61 22.5t-25 53.5q0 32 23.5 53.5t60.5 21.5q35 0 111 -24q78 -24 158 -33q-9 81 -33 160q-23 87 -23 110q0 36 22.5 60t53.5 24q33 0 55.5 -24t22.5 -60q0 -27 -25 -110q-22 -74 -32 -160zM410 -53q-80 -9 -158 -33q-80 -25 -109 -25q-53 0 -75 38
t0 76t75 38q29 0 109 -25q78 -21 158 -30q-6 56 -31 107t-25 65q0 54 25 204q24 146 51 146q29 0 53 -143q25 -150 25 -207q0 -12 -25.5 -63.5t-31.5 -108.5q78 9 157 30q83 25 111 25q39 0 61 -23.5t22 -52.5t-22 -52.5t-61 -23.5q-30 0 -113 25q-75 24 -155 33
q10 -86 32 -160q25 -83 25 -111q0 -36 -22.5 -60t-55.5 -24q-31 0 -53.5 24t-22.5 60q0 24 23 111q24 79 33 160z" />
    <glyph glyph-name="bullet" unicode="&#x2022;" horiz-adv-x="573" 
d="M287 250q-96 0 -164 65q-66 69 -66 162q-4 72 38.5 129.5t103.5 82.5t131 14t116 -64q68 -65 68 -162t-68 -162q-65 -65 -159 -65z" />
    <glyph glyph-name="ellipsis" unicode="&#x2026;" horiz-adv-x="1472" 
d="M246 -20q-57 0 -93 36.5t-36 92.5t36 91.5t93 35.5t93 -35.5t36 -91.5q0 -55 -36.5 -92t-92.5 -37zM737 -20q-57 0 -93 36.5t-36 92.5t36 91.5t93 35.5t93 -35.5t36 -91.5q0 -55 -37 -92t-92 -37zM1229 -20q-57 0 -93 36.5t-36 92.5t36 91.5t93 35.5t93 -35.5t36 -91.5
q0 -55 -37 -92t-92 -37z" />
    <glyph glyph-name="perthousand" unicode="&#x2030;" horiz-adv-x="2560" 
d="M389 1452q157 0 242.5 -119.5t85.5 -328.5t-85.5 -329t-242.5 -120q-154 0 -240 120t-86 329t86 328.5t240 119.5zM379 0l934 1434h88l-934 -1434h-88zM389 616q93 0 128.5 91t35.5 297q0 209 -35 298t-129 89q-91 0 -126.5 -90t-35.5 -297q0 -205 35.5 -296.5
t126.5 -91.5zM1389 879q156 0 241.5 -119.5t85.5 -329.5q0 -209 -85 -328.5t-242 -119.5q-154 0 -240 119.5t-86 328.5t86 329t240 120zM2169 879q157 0 242.5 -120t85.5 -329t-85.5 -328.5t-242.5 -119.5q-154 0 -240 119.5t-86 328.5t86 329t240 120zM1389 43q93 0 128 90
t35 297q0 209 -34.5 298t-128.5 89q-91 0 -126.5 -90t-35.5 -297q0 -205 35.5 -296t126.5 -91zM2169 43q94 0 129 90.5t35 296.5q0 209 -35 298t-129 89q-91 0 -126.5 -90t-35.5 -297q0 -205 35.5 -296t126.5 -91z" />
    <glyph glyph-name="guilsinglleft" unicode="&#x2039;" horiz-adv-x="663" 
d="M539 61l-41 -28l-351 389q-22 28 -22 55q0 30 22 58l351 389l41 -29l-199 -418z" />
    <glyph glyph-name="guilsinglright" unicode="&#x203a;" horiz-adv-x="663" 
d="M516 422l-350 -389l-41 28l199 416l-199 418l41 29l350 -389q23 -30 23 -58q0 -25 -23 -55z" />
    <glyph glyph-name="fraction" unicode="&#x2044;" horiz-adv-x="219" 
d="M-401 0l933 1434h89l-934 -1434h-88z" />
    <glyph glyph-name="uni2070" unicode="&#x2070;" horiz-adv-x="780" 
d="M389 1452q157 0 242.5 -119.5t85.5 -328.5t-85.5 -329t-242.5 -120q-154 0 -240 120t-86 329t86 328.5t240 119.5zM389 616q93 0 128.5 91t35.5 297q0 209 -35 298t-129 89q-91 0 -126.5 -90t-35.5 -297q0 -205 35.5 -296.5t126.5 -91.5z" />
    <glyph glyph-name="uni2074" unicode="&#x2074;" horiz-adv-x="780" 
d="M567 573h-151v215h-355v52l404 612h102v-596h154v-68h-154v-215zM416 1249l-260 -393h260v393z" />
    <glyph glyph-name="uni2075" unicode="&#x2075;" horiz-adv-x="780" 
d="M700 856q0 -126 -92 -215q-92 -86 -250 -86q-105 0 -192 35q-86 35 -86 98q0 32 21.5 55t50.5 23q27 0 48.5 -10.5t34 -26.5t26.5 -34.5t27 -34.5t36 -26.5t53 -10.5q91 0 142.5 51t51.5 137q0 87 -67 143t-176 56q-104 0 -176 -35l-41 16l67 443h387q32 0 35 26h47
l-20 -157h-398l-26 -177q64 21 155 21q153 0 247.5 -82.5t94.5 -208.5z" />
    <glyph glyph-name="uni2076" unicode="&#x2076;" horiz-adv-x="780" 
d="M418 1128q142 0 219 -86q80 -83 80 -198q0 -117 -92 -203t-236 -86q-151 0 -238.5 105t-87.5 280q0 231 164 363q169 134 406 149v-61q-312 -27 -385 -306q82 43 170 43zM389 616q80 0 122 61.5t42 166.5q0 99 -46.5 158t-129.5 59q-79 0 -144 -45q-6 -50 -6 -105
q0 -149 37 -222t125 -73z" />
    <glyph glyph-name="uni2077" unicode="&#x2077;" horiz-adv-x="780" 
d="M401 573h-161q50 400 323 723h-338q-39 0 -53.5 -16.5t-26.5 -79.5h-47l31 260h47q0 -26 25 -26h487v-72q-243 -311 -287 -789z" />
    <glyph glyph-name="uni2078" unicode="&#x2078;" horiz-adv-x="780" 
d="M524 1053q99 -39 148 -96t49 -152q0 -112 -90.5 -181t-247.5 -69q-142 0 -229.5 66t-87.5 161q0 142 174 224q-136 74 -136 223q0 93 82 158t222 65q123 0 198.5 -58t75.5 -141q0 -126 -158 -200zM422 1391q-75 0 -119.5 -37.5t-44.5 -100.5t41 -98t139 -70q78 38 114 76
t36 96q0 59 -44.5 96.5t-121.5 37.5zM377 616q90 0 140 42.5t50 107.5q0 73 -55 116t-195 87q-149 -70 -149 -187q0 -72 56 -119t153 -47z" />
    <glyph glyph-name="uni2079" unicode="&#x2079;" horiz-adv-x="780" 
d="M389 1452q151 0 239.5 -104.5t88.5 -278.5q0 -229 -166 -364q-171 -135 -406 -150v61q310 24 387 308q-83 -45 -172 -45q-139 0 -219 86q-78 87 -78 198q0 115 91 203q92 86 235 86zM401 946q75 0 146 47q6 49 6 105q0 147 -37.5 220t-126.5 73q-80 0 -121 -61t-41 -167
q0 -96 47 -156.5t127 -60.5z" />
    <glyph glyph-name="uni207B" unicode="&#x207b;" horiz-adv-x="780" 
d="M41 975v61h696v-61h-696z" />
    <glyph glyph-name="uni207D" unicode="&#x207d;" horiz-adv-x="446" 
d="M403 1591l31 -37q-102 -77 -170 -227q-67 -149 -67 -319q0 -169 65 -320q68 -151 172 -227l-31 -37q-154 92 -247 244t-93 340t93 339.5t247 243.5z" />
    <glyph glyph-name="uni207E" unicode="&#x207e;" horiz-adv-x="446" 
d="M41 424l-29 37q105 79 168 225q68 151 68 322q0 168 -68 319q-64 149 -168 227l29 37q154 -91 248 -244.5t94 -338.5q0 -186 -94 -339.5t-248 -244.5z" />
    <glyph glyph-name="uni207F" unicode="&#x207f;" horiz-adv-x="874" 
d="M860 567h-373v47q61 6 81 21.5t20 54.5v400q0 120 -117 120q-86 0 -186 -59v-461q0 -39 20.5 -54.5t81.5 -21.5v-47h-373v47q61 6 81 21.5t20 54.5v404q0 49 -45 49h-56v41l211 123h60v-76q125 76 241 76q232 0 232 -220v-397q0 -39 20.5 -54.5t81.5 -21.5v-47z" />
    <glyph glyph-name="uni2080" unicode="&#x2080;" horiz-adv-x="780" 
d="M389 502q157 0 242.5 -120t85.5 -329t-85.5 -328.5t-242.5 -119.5q-154 0 -240 119.5t-86 328.5t86 329t240 120zM389 -334q94 0 129 90.5t35 296.5q0 209 -35 298t-129 89q-91 0 -126.5 -90t-35.5 -297q0 -205 35.5 -296t126.5 -91z" />
    <glyph glyph-name="uni2081" unicode="&#x2081;" horiz-adv-x="780" 
d="M643 -377h-506v43q119 3 148 19q28 16 28 75v547q0 39 -34 39h-142v37l275 119h55v-742q0 -57 29 -73q33 -18 147 -21v-43z" />
    <glyph glyph-name="uni2082" unicode="&#x2082;" horiz-adv-x="780" 
d="M164 221h-72q0 128 80.5 204.5t210.5 76.5q124 0 202.5 -70t78.5 -180q0 -125 -100.5 -244t-299.5 -248h303q38 0 52.5 16.5t27.5 80.5h45l-30 -260h-48q0 26 -24 26h-488v74q214 173 307 297t93 258q0 180 -156 180q-82 0 -132 -55t-50 -156z" />
    <glyph glyph-name="uni2083" unicode="&#x2083;" horiz-adv-x="780" 
d="M494 121q91 -14 151 -77.5t60 -147.5q0 -126 -96 -208.5t-257 -82.5q-106 0 -190 35q-82 34 -82 98q0 32 21.5 55t50.5 23q32 0 54.5 -15t36 -36l27 -42t36 -36t54.5 -15q179 0 179 195q0 87 -57.5 141.5t-159.5 54.5h-23v68h29q78 0 121 42.5t43 115.5q0 63 -37 103
t-103 40q-70 0 -117.5 -44t-54.5 -124h-69q11 113 82.5 175.5t193.5 62.5q124 0 196 -54.5t72 -136.5q0 -68 -43 -119t-118 -71z" />
    <glyph glyph-name="uni2084" unicode="&#x2084;" horiz-adv-x="780" 
d="M567 -377h-151v215h-355v51l404 613h102v-596h154v-68h-154v-215zM416 299l-260 -393h260v393z" />
    <glyph glyph-name="uni2085" unicode="&#x2085;" horiz-adv-x="780" 
d="M700 -94q0 -127 -92 -213q-91 -88 -250 -88q-105 0 -192 35q-86 35 -86 98q0 32 21.5 55t50.5 23q32 0 55.5 -15t38.5 -36l30 -42t40.5 -36t60.5 -15q91 0 142.5 51.5t51.5 137.5q0 87 -67 142.5t-176 55.5q-107 0 -176 -34l-41 16l67 442h387q32 0 35 27h47l-20 -158
h-398l-26 -176q65 21 155 21q153 0 247.5 -82.5t94.5 -208.5z" />
    <glyph glyph-name="uni2086" unicode="&#x2086;" horiz-adv-x="780" 
d="M418 178q142 0 219 -86q80 -83 80 -198q0 -117 -92 -203t-236 -86q-151 0 -238.5 105t-87.5 280q0 230 164 362q171 135 406 150v-62q-312 -27 -385 -305q82 43 170 43zM389 -334q80 0 122 61.5t42 166.5q0 99 -46.5 158t-129.5 59q-79 0 -144 -45q-6 -50 -6 -105
q0 -149 37 -222t125 -73z" />
    <glyph glyph-name="uni2087" unicode="&#x2087;" horiz-adv-x="780" 
d="M401 -377h-161q50 400 323 723h-338q-39 0 -53.5 -16.5t-26.5 -79.5h-47l31 260h47q0 -27 25 -27h487v-71q-243 -311 -287 -789z" />
    <glyph glyph-name="uni2088" unicode="&#x2088;" horiz-adv-x="780" 
d="M524 102q99 -39 148 -95.5t49 -151.5q0 -112 -90.5 -181t-247.5 -69q-142 0 -229.5 66t-87.5 161q0 141 174 223q-136 74 -136 224q0 93 82 158t222 65q123 0 198.5 -58t75.5 -141q0 -127 -158 -201zM422 440q-75 0 -119.5 -37t-44.5 -100t41 -98t139 -70q78 38 114 76
t36 96q0 59 -44 96t-122 37zM377 -334q90 0 140 42.5t50 107.5q0 73 -54.5 115.5t-195.5 86.5q-149 -70 -149 -186q0 -72 56 -119t153 -47z" />
    <glyph glyph-name="uni2089" unicode="&#x2089;" horiz-adv-x="780" 
d="M389 502q151 0 239.5 -104.5t88.5 -278.5q0 -231 -166 -363q-168 -136 -406 -151v61q310 24 387 307q-83 -45 -172 -45q-139 0 -219 86q-78 87 -78 199q0 115 91 203q92 86 235 86zM401 -4q75 0 146 47q6 50 6 104q0 147 -37.5 220t-126.5 73q-80 0 -121 -60.5
t-41 -166.5q0 -96 47 -156.5t127 -60.5z" />
    <glyph glyph-name="uni208D" unicode="&#x208d;" horiz-adv-x="446" 
d="M403 641l31 -37q-102 -77 -170 -227q-67 -149 -67 -320q0 -166 65 -317q69 -154 172 -229l-31 -37q-154 92 -247 243.5t-93 339.5t93 340t247 244z" />
    <glyph glyph-name="uni208E" unicode="&#x208e;" horiz-adv-x="446" 
d="M41 -526l-29 37q104 78 168 227q68 151 68 319q0 169 -68 320q-64 149 -168 227l29 37q154 -91 248 -244.5t94 -339.5q0 -185 -94 -338.5t-248 -244.5z" />
    <glyph glyph-name="colonmonetary" unicode="&#x20a1;" horiz-adv-x="1310" 
d="M1161 444l88 -28q-135 -350 -540 -350q-46 0 -58 2l-37 -129h-88l39 141q-66 16 -121 41l-51 -182h-88l64 223q-132 86 -205.5 230t-73.5 325q0 286 172 467q173 182 445 182l36 129h88l-36 -133q72 -10 125 -29l45 162h88l-56 -197l31 -18l25 59h65l109 -350l-45 -14
q-89 156 -209 233l-299 -1056q10 -2 49 -2q153 0 272 79q119 82 166 215zM311 717q0 -266 99 -410l272 973q-182 -13 -276.5 -162t-94.5 -401zM770 1280l-295 -1047q56 -47 117 -65l303 1081q-61 25 -125 31z" />
    <glyph glyph-name="uni20A2" unicode="&#x20a2;" horiz-adv-x="1433" 
d="M1280 397l92 -30q-148 -398 -598 -398q-298 0 -491 211t-193 537q0 325 193 536t491 211q222 0 363 -102l30 72h60l127 -400l-47 -16q-195 358 -521 358q-235 0 -354 -180q-117 -178 -117 -479q0 -276 97.5 -446.5t285.5 -202.5v540q0 66 -63 66h-70v43l256 160h58v-140
q50 65 121 102.5t141 37.5q73 0 111 -34.5t38 -90.5q0 -49 -25 -77t-67 -28q-43 0 -88 45q-44 47 -72 47q-89 0 -159 -104v-569q145 25 252 111.5t149 219.5z" />
    <glyph glyph-name="franc" unicode="&#x20a3;" horiz-adv-x="1347" 
d="M61 356v93h199v755q0 115 -35 142q-34 27 -164 36v52h1135l137 -334l-43 -23q-102 139 -225.5 201.5t-310.5 62.5h-230q-61 0 -61 -61v-485h332q103 0 142 43t50 155h53v-489h-53q-11 112 -50 155t-142 43h-332v-253h203v-93h-203v-127q0 -114 35 -141q36 -28 164 -37
v-51h-601v51q128 9 164 37q35 27 35 141v127h-199z" />
    <glyph glyph-name="peseta" unicode="&#x20a7;" horiz-adv-x="1499" 
d="M61 1022v92h199v90q0 116 -33 142q-35 27 -166 36v52h711q170 0 293.5 -34t198 -106t86.5 -180h149v-92h-149q-23 -177 -160.5 -247t-419.5 -70h-307v-476q0 -116 35 -143q33 -26 164 -35v-51h-601v51q128 9 164 37q35 27 35 141v793h-199zM463 1280v-166h659
q-24 227 -350 227h-248q-61 0 -61 -61zM1122 1022h-659v-227h307q325 0 352 227z" />
    <glyph glyph-name="Euro" unicode="&#x20ac;" horiz-adv-x="1183" 
d="M84 809v80h127q32 277 166.5 426t341.5 149q159 0 262 -92q100 -90 100 -209q0 -87 -45.5 -141.5t-115.5 -54.5q-56 0 -88.5 31.5t-32.5 80.5q0 50 33.5 81t85.5 36q30 0 30 23q0 68 -60 113.5t-153 45.5q-151 0 -222 -118.5t-83 -370.5h412v-80h-416v-197h416v-82h-410
q40 -469 320 -469q193 0 295 234l79 -39q-121 -287 -393 -287q-213 0 -349 144.5t-171 416.5h-129v82h121q-4 86 -4 105q0 72 2 92h-119z" />
    <glyph glyph-name="uni2113" unicode="&#x2113;" horiz-adv-x="849" 
d="M201 487v185q0 245 32 348q33 110 105 188q86 92 194 92q92 0 147.5 -66t55.5 -183q0 -122 -94 -260q-37 -53 -98 -113q-56 -59 -94 -92l-87 -72v-131q0 -279 166 -279q120 0 220 127l38 -36q-134 -220 -327 -220q-124 0 -189 80q-69 78 -69 277v76l-113 -84l-25 49z
M362 815v-219q248 217 248 455q0 80 -32 130t-86 50q-69 0 -99.5 -99t-30.5 -317z" />
    <glyph glyph-name="uni2117" unicode="&#x2117;" horiz-adv-x="1619" 
d="M283 1245q219 219 528 219t528 -219q220 -220 220 -528q0 -309 -220 -529q-219 -219 -528 -219t-528 219q-220 220 -220 529q0 308 220 528zM332 238q199 -199 479 -199q281 0 477 199q199 199 199 479t-199 479q-196 199 -477 199q-280 0 -479 -199t-199 -479t199 -479z
M825 291h-389v45q69 5 88 21t19 75v580q0 59 -18.5 74t-88.5 20v45h424q191 0 285 -52t94 -171q0 -122 -94 -176t-287 -54h-141v-266q0 -59 19 -75t89 -21v-45zM866 1077h-112q-37 0 -37 -37v-268h141q203 0 203 156q0 149 -195 149z" />
    <glyph glyph-name="trademark" unicode="&#x2122;" horiz-adv-x="989" 
d="M162 1073v305q0 19 -19 19q-69 0 -116 -80l-21 8l43 123h23q6 -14 20 -14h238q15 0 18 14h25l41 -123l-21 -8q-47 80 -119 80q-18 0 -18 -19v-305q0 -29 9 -36.5t42 -10.5v-22h-196v22q35 3 43 10t8 37zM958 1004h-196v22q34 3 43.5 10.5t9.5 36.5v285l-131 -354h-31
l-127 354v-285q0 -30 8.5 -37t43.5 -10v-22h-148v22q34 3 43.5 10.5t9.5 36.5v291q0 29 -9.5 36.5t-43.5 10.5v23h166l100 -277l101 277h161v-23q-35 -3 -43 -10t-8 -37v-291q0 -30 8 -37t43 -10v-22z" />
    <glyph glyph-name="uni2126" unicode="&#x2126;" horiz-adv-x="1544" 
d="M1405 -45h-55q0 45 -35 45h-459v133q207 192 287 356q84 173 84 388q0 239 -112 369t-343 130q-232 0 -344.5 -130t-112.5 -369q0 -215 84 -388q83 -164 287 -356v-133h-459q-34 0 -34 -45h-56l-45 395h55q20 -116 46 -149q23 -29 77 -29h258q-438 333 -438 713
q0 255 184 418q185 161 498 161q314 0 496 -161q184 -163 184 -418q0 -380 -438 -713h260q55 0 78 29q24 31 45 149h55z" />
    <glyph glyph-name="estimated" unicode="&#x212e;" horiz-adv-x="1724" 
d="M1661 664h-1294q-11 0 -11 -11v-389q0 -28 19 -47q199 -211 491 -211q310 0 512 236h117q-111 -130 -277.5 -204.5t-355.5 -74.5q-329 0 -565 211q-234 212 -234 508t234 508q236 211 565 211q330 0 563 -211q236 -211 236 -508v-18zM1368 715v391q0 29 -20 49
q-200 203 -482 203q-286 0 -489 -209q-21 -21 -21 -49v-385q0 -13 11 -13h993q8 0 8 13z" />
    <glyph glyph-name="partialdiff" unicode="&#x2202;" horiz-adv-x="1099" 
d="M549 -31q-216 0 -356 140q-136 139 -136 352q0 212 131 352q132 141 338 141q155 0 275 -108q-17 266 -77 385t-171 119q-35 0 -86 -54q-47 -53 -90 -53t-68.5 24.5t-25.5 67.5q0 58 44.5 93.5t129.5 35.5q259 0 411 -241q154 -242 154 -645q0 -284 -129 -447
q-125 -162 -344 -162zM809 647v90q-110 137 -266 137q-275 0 -275 -419q0 -406 281 -406q138 0 200 125t62 373q0 57 -2 100z" />
    <glyph glyph-name="uni2206" unicode="&#x2206;" horiz-adv-x="1349" 
d="M625 1434h116l545 -1434h-1206zM623 1174l-410 -1082h823z" />
    <glyph glyph-name="product" unicode="&#x220f;" horiz-adv-x="1615" 
d="M1554 0h-600v51q128 9 164 37q35 27 35 141v1051q0 61 -61 61h-568q-61 0 -61 -61v-1051q0 -114 35 -141q36 -28 164 -37v-51h-601v51q128 9 164 37q35 27 35 141v975q0 115 -35 142q-34 27 -164 36v52h1493v-52q-128 -9 -163 -36t-35 -142v-975q0 -114 35 -141
q36 -28 163 -37v-51z" />
    <glyph glyph-name="summation" unicode="&#x2211;" horiz-adv-x="1277" 
d="M266 172h406q152 0 260 23q101 24 164 69q57 41 139 139l43 -26l-201 -377h-1016v51l443 662l-438 669v52h1013l138 -334l-43 -23q-102 139 -225.5 201.5t-309.5 62.5h-303l354 -538z" />
    <glyph glyph-name="minus" unicode="&#x2212;" horiz-adv-x="1130" 
d="M20 668v102h1090v-102h-1090z" />
    <glyph glyph-name="radical" unicode="&#x221a;" horiz-adv-x="1130" 
d="M20 455v102h289l172 -422l541 1299h111l-594 -1434h-111l-188 455h-220z" />
    <glyph glyph-name="infinity" unicode="&#x221e;" horiz-adv-x="1755" 
d="M1319 1128q160 0 280 -120q121 -121 121 -291t-121 -291q-119 -119 -280 -119q-151 0 -252 75t-195 234q-61 -105 -118.5 -169t-137 -102t-180.5 -38q-163 0 -282 119t-119 291t119 291q120 120 282 120q78 0 142.5 -20t118 -62.5t96.5 -96.5t90 -132q93 160 191 235.5
t245 75.5zM1319 416q127 0 213 86q86 89 86 215q0 130 -86 219q-87 90 -213 90t-208.5 -70t-174.5 -229q47 -82 75.5 -124.5t73.5 -90.5q92 -96 234 -96zM436 408q66 0 118.5 18.5t98.5 59.5t83.5 92t84.5 131q-52 86 -76 118q-21 34 -75 95q-91 98 -234 98q-128 0 -213 -88
q-86 -86 -86 -215q0 -130 86 -219q87 -90 213 -90z" />
    <glyph glyph-name="integral" unicode="&#x222b;" horiz-adv-x="497" 
d="M340 1575v-1538q0 -214 -102.5 -329.5t-274.5 -115.5q-73 0 -116.5 30t-43.5 85q0 37 28.5 64.5t66.5 27.5q46 0 86 -49q37 -49 69 -49q105 0 105 154v1562q0 192 104 305q109 115 273 115q72 0 116.5 -30.5t44.5 -77.5q0 -43 -27.5 -71t-70.5 -28q-46 0 -86 49
q-38 50 -76 50q-45 0 -70.5 -40.5t-25.5 -113.5z" />
    <glyph glyph-name="approxequal" unicode="&#x2248;" horiz-adv-x="1130" 
d="M20 809v127q114 111 283 111q135 0 266 -70q136 -74 258 -74q79 0 157 33.5t126 97.5v-125q-111 -108 -283 -108q-140 0 -266 69q-148 74 -258 74q-77 0 -156 -35t-127 -100zM20 403v127q114 111 283 111q135 0 266 -70q134 -73 258 -73q79 0 157 33.5t126 97.5v-125
q-112 -109 -283 -109q-138 0 -266 70q-148 74 -258 74q-77 0 -156 -35t-127 -101z" />
    <glyph glyph-name="notequal" unicode="&#x2260;" horiz-adv-x="1130" 
d="M20 870v103h562l82 289h106l-82 -289h422v-103h-451l-86 -303h537v-102h-565l-82 -291h-107l82 291h-418v102h447l86 303h-533z" />
    <glyph glyph-name="lessequal" unicode="&#x2264;" horiz-adv-x="1130" 
d="M1067 348v-112l-1004 415v113l1004 414v-111l-868 -360zM20 0v92h1090v-92h-1090z" />
    <glyph glyph-name="greaterequal" unicode="&#x2265;" horiz-adv-x="1130" 
d="M61 236v112l871 359l-871 360v111l1006 -414v-113zM1110 92v-92h-1090v92h1090z" />
    <glyph glyph-name="lozenge" unicode="&#x25ca;" horiz-adv-x="1130" 
d="M94 717l414 717h113l415 -717l-415 -717h-113zM205 717l358 -621l361 621l-361 620z" />
    <glyph glyph-name="hyphen.inferior" unicode="&#x8331;" horiz-adv-x="354" 
d="M20 10v92h314v-92h-314z" />
    <glyph glyph-name="uniF6C3" unicode="&#xf6c3;" horiz-adv-x="0" 
d="M-133 -123q51 0 82 -35t31 -96q0 -128 -123 -254l-35 29q38 66 53 135q-55 0 -88 31.5t-33 81.5q0 47 32 77.5t81 30.5z" />
    <glyph glyph-name="uniF6DD" unicode="&#xf6dd;" horiz-adv-x="2443" 
d="M1812 -377h-456v51q81 7 109 29t28 76v221h-340l-498 705h-192v-476q0 -114 35 -141q36 -28 164 -37v-51h-601v51q128 9 164 37q35 27 35 141v975q0 116 -33 142q-35 27 -166 36v52h711q580 0 580 -365q0 -164 -124 -255t-345 -103l383 -537q40 -59 90 -87.5t137 -35.5
v635q0 68 -63 68h-82v41l264 159h63v-104q101 104 273 104q194 0 309 -139t115 -352q0 -219 -117 -357q-113 -137 -322 -137q-164 0 -258 94v-284q0 -56 26.5 -77t110.5 -28v-51zM772 1341h-248q-61 0 -61 -61v-485h307q356 0 356 274q0 272 -354 272zM1675 754v-584
q79 -113 228 -113q272 0 272 406q0 403 -272 403q-150 0 -228 -112z" />
    <glyph glyph-name="uniF6E4" unicode="&#xf6e4;" horiz-adv-x="780" 
d="M717 803q0 -102 -78 -171.5t-209 -76.5v-119h-59v119q-101 6 -172 59l-19 -41h-45l-80 269l37 12q122 -230 279 -236v336l-11 4q-51 19 -71 27.5t-47 22.5t-56 34q-84 60 -84 181q0 90 73.5 156.5t199.5 72.5v55h59v-57q80 -6 129 -49l15 33h45l75 -244l-36 -10
q-99 200 -228 209v-308l17 -6q69 -26 103 -42t75 -46q88 -61 88 -184zM246 1251q0 -89 129 -147v280q-129 -21 -129 -133zM430 930v-307q66 12 102.5 51t36.5 92q0 99 -139 164z" />
    <glyph glyph-name="uniF6E6" unicode="&#xf6e6;" horiz-adv-x="354" 
d="M20 961v92h314v-92h-314z" />
    <glyph glyph-name="uniF6E8" unicode="&#xf6e8;" horiz-adv-x="432" 
d="M217 752q46 0 72.5 -30t26.5 -66.5t-26.5 -66.5t-72.5 -30q-47 0 -74 30t-27 66.5t27 66.5t74 30z" />
    <glyph glyph-name="uniF6E9" unicode="&#xf6e9;" horiz-adv-x="843" 
d="M530 647q-138 -100 -264 -100q-97 0 -155 46t-58 124q0 123 142 186q125 56 333 90v101q0 82 -23.5 113.5t-84.5 31.5q-116 0 -150 -111q-24 -79 -96 -79q-70 0 -70 77q0 74 95 127q97 54 237 54q262 0 262 -224v-376q0 -74 50 -74q24 0 53 16v-63q-53 -35 -133 -35
q-120 0 -138 96zM528 717v211q-157 -24 -229 -64.5t-72 -115.5q0 -49 30.5 -77t80.5 -28q81 0 190 74z" />
    <glyph glyph-name="uniF6EA" unicode="&#xf6ea;" horiz-adv-x="870" 
d="M14 1501v41l211 123h60v-436q78 78 207 78q151 0 243 -109q94 -107 94 -272t-96 -275q-93 -106 -258 -106q-135 0 -213 78l-80 -78h-67v905q0 29 -10 40t-35 11h-56zM285 1141v-430q59 -86 164 -86q200 0 200 301t-200 301q-105 0 -164 -86z" />
    <glyph glyph-name="uniF6EB" unicode="&#xf6eb;" horiz-adv-x="870" 
d="M483 1501v41l211 123h62v-975q0 -39 20 -54.5t80 -21.5v-47q-125 0 -270 -22v76q-79 -76 -207 -76q-156 0 -246 106q-92 109 -92 275q0 163 92 272t246 109q129 0 207 -78v225q0 47 -47 47h-56zM586 709v432q-62 86 -164 86q-201 0 -201 -301t201 -301q101 0 164 84z" />
    <glyph glyph-name="uniF6EC" unicode="&#xf6ec;" horiz-adv-x="796" 
d="M758 987h-533q-4 -28 -4 -63q0 -143 60.5 -223t179.5 -80q76 0 145 47.5t105 128.5l65 -35q-48 -102 -133.5 -159.5t-198.5 -57.5q-186 0 -294 108q-109 109 -109 273t106 270q108 111 273 111q154 0 246 -86.5t92 -233.5zM231 1065h347q0 83 -42 126.5t-116 43.5
q-151 0 -189 -170z" />
    <glyph glyph-name="uniF6ED" unicode="&#xf6ed;" horiz-adv-x="401" 
d="M203 1647q66 3 94 -48.5t0 -103t-94 -47.5q-46 0 -75.5 29t-29.5 69q0 42 30.5 71.5t74.5 29.5zM387 567h-373v47q61 6 81 21.5t20 54.5v404q0 49 -45 49h-56v41l211 123h60v-617q0 -39 20.5 -54.5t81.5 -21.5v-47z" />
    <glyph glyph-name="uniF6EE" unicode="&#xf6ee;" horiz-adv-x="401" 
d="M387 567h-373v47q61 6 81 21.5t20 54.5v764q0 47 -45 47h-56v41l211 123h60v-975q0 -39 20.5 -54.5t81.5 -21.5v-47z" />
    <glyph glyph-name="uniF6EF" unicode="&#xf6ef;" horiz-adv-x="1345" 
d="M860 567h-373v47q61 6 81 21.5t20 54.5v400q0 120 -117 120q-86 0 -186 -59v-461q0 -39 20.5 -54.5t81.5 -21.5v-47h-373v47q61 6 81 21.5t20 54.5v404q0 49 -45 49h-56v41l211 123h60v-76q125 76 241 76q146 0 203 -97q55 42 130 69.5t140 27.5q103 0 167.5 -52.5
t64.5 -167.5v-397q0 -39 20.5 -54.5t79.5 -21.5v-47h-370v47q60 6 80 21.5t20 54.5v400q0 120 -117 120q-100 0 -192 -63q6 -27 6 -60v-397q0 -39 20.5 -54.5t81.5 -21.5v-47z" />
    <glyph glyph-name="uniF6F0" unicode="&#xf6f0;" horiz-adv-x="864" 
d="M147 1198q109 109 285 109q174 0 283 -109q108 -108 108 -272q0 -165 -108 -273t-283 -108q-177 0 -285 108q-106 106 -106 273q0 166 106 272zM432 614q209 0 209 312q0 309 -209 309q-211 0 -211 -309q0 -312 211 -312z" />
    <glyph glyph-name="uniF6F1" unicode="&#xf6f1;" horiz-adv-x="626" 
d="M530 1110q-41 0 -75 37t-58 37q-62 0 -112 -68v-426q0 -39 20.5 -54.5t81.5 -21.5v-47h-373v47q61 6 81 21.5t20 54.5v404q0 49 -45 49h-56v41l211 123h60v-101q85 101 207 101q60 0 92 -28.5t32 -74.5q0 -42 -24.5 -68t-61.5 -26z" />
    <glyph glyph-name="uniF6F2" unicode="&#xf6f2;" horiz-adv-x="733" 
d="M399 1024q46 -11 63.5 -16t43.5 -14.5t57 -24.5q66 -28 98.5 -71.5t38.5 -113.5q0 -105 -82 -171t-212 -66q-152 0 -250 67l-19 -47h-47l-55 238l39 12q127 -201 327 -201q64 0 108 32.5t44 84.5q0 38 -33 64q-6 6 -12.5 11t-11.5 9t-13.5 8t-13 6.5t-15.5 6t-15 5.5
t-18.5 5.5t-19 5t-22.5 6t-25 6.5q-91 23 -164 54q-63 29 -95 69.5t-38 106.5q0 91 77 150t196 59q135 0 217 -60l16 39h47l43 -203l-43 -12q-102 170 -266 170q-60 0 -94.5 -26t-34.5 -68q0 -45 41 -69.5t143 -51.5z" />
    <glyph glyph-name="uniF6F3" unicode="&#xf6f3;" horiz-adv-x="491" 
d="M469 1206h-184v-469q0 -106 90 -106q47 0 94 18v-71q-69 -29 -152 -29q-202 0 -202 188v469h-101v41q90 32 138.5 94.5t72.5 171.5h60v-229h184v-78z" />
    <glyph glyph-name="uniF8FF" unicode="&#xf8ff;" horiz-adv-x="2381" 
d="M406 -27q-166 0 -269 109q-100 109 -100 254q0 81 40.5 135.5t98.5 54.5q44 0 74.5 -30t30.5 -74q0 -73 -95 -111q-39 -14 -39 -51q0 -60 55 -107t148 -47q98 0 180 70q84 72 84 133q0 21 -20.5 66t-20.5 69q0 42 31 67.5t84 25.5q49 0 77 -34t28 -81q0 -49 -44 -111
t-108 -108l6 -13q121 59 266 183q117 97 152 200t35 258q0 148 98 148q32 0 80 -45q49 -43 78 -43q20 0 32.5 11.5t12.5 29.5q0 13 -13.5 30t-30.5 33.5t-30.5 49.5t-13.5 73q0 62 47 121q48 57 115 57q37 0 64.5 -27.5t37.5 -76.5q7 -44 20 -61t37 -17q35 0 35 62
q0 4 -7 40.5t-7 69.5q0 36 26 63.5t62 32.5q20 3 59 22t56 19q31 0 56 -29.5t25 -70.5q0 -27 -24.5 -71.5t-24.5 -57.5q0 -31 37 -31t58 76q20 75 51 133q35 74 174 74q70 3 102 -32t27 -82t-28.5 -91.5t-55.5 -60.5q-18 -14 -24 -24t0 -18.5t26 -17.5q35 -16 61.5 -54
t26.5 -95q0 -54 -43.5 -98t-89.5 -44q-32 0 -74 25q-41 27 -45 27q-29 0 -29 -35q0 -19 21 -37.5t47 -33.5t47 -43t21 -62q0 -54 -38.5 -86.5t-86.5 -32.5q-43 0 -97 57q-55 58 -100 58q-16 0 -26.5 -12t-10.5 -27q0 -31 39 -76t39 -92q0 -41 -31 -69t-73 -28
q-43 -2 -94 24.5t-87 59.5t-66.5 58.5t-39.5 23.5q-7 0 -14 -7t-7 -15q0 -20 43 -66q43 -43 43 -90q0 -33 -33 -59.5t-87 -26.5q-49 0 -130 35q-78 35 -167 35q-160 0 -381 -156l6 -12q115 59 190 59q104 0 158.5 -58t54.5 -140q0 -96 -65 -152h-23q-41 238 -201 238
q-74 0 -223 -70t-286 -70zM426 862q0 53 68 68q0 118 15 185t60 114q73 76 101 127q15 30 35 30q22 0 34 -30q15 -38 101 -127q45 -47 60 -114t15 -185q68 -15 68 -68q0 -102 -84 -168q-81 -63 -194 -63q-114 0 -195 63q-84 66 -84 168z" />
    <glyph glyph-name="s_t" unicode="&#xfb06;" horiz-adv-x="1583" 
d="M1530 840h-246v-625q0 -75 27 -109q28 -34 92.5 -35t126.5 25v-80q-79 -39 -187 -39q-239 0 -239 240v623h-137v43q215 77 215 278q0 108 -74.5 180t-183.5 72q-121 0 -199 -71.5t-78 -180.5q0 -105 70 -248l121 -245l-50 -25q-132 234 -356 234q-89 0 -137.5 -36.5
t-48.5 -97.5q0 -63 58 -97t194 -66q54 -11 116 -29q38 -8 103 -37q88 -32 130.5 -89t49.5 -153q0 -136 -102.5 -219.5t-264.5 -83.5q-199 0 -325 99l-25 -68h-53l-74 309l45 15q93 -143 195 -209t235 -66q95 0 156 43.5t61 122.5q0 87 -92 125q-46 22 -80.5 31.5
t-123.5 29.5q-146 40 -209 66q-76 35 -112 84.5t-42 134.5q0 114 92 191q95 77 242 77q122 0 201 -39q-62 127 -62 246q0 129 103 232q105 102 262 102q145 0 252 -94q108 -95 108 -258v-219h246v-84z" />
    <glyph glyph-name="_1" horiz-adv-x="0" 
 />
    <glyph glyph-name="CR.001" horiz-adv-x="681" 
 />
    <glyph glyph-name="A.s1" horiz-adv-x="1839" 
d="M1223 1434l469 -1233q27 -74 65.5 -108.5t106.5 -41.5v-51h-533v51q115 7 148 34t8 93l-101 262h-561l-98 -262q-23 -60 18 -90t158 -37v-51h-452v51q135 9 184 139l399 1057q35 96 -59 96h-395q-222 0 -350 -101.5t-128 -278.5q0 -123 72 -207q75 -84 174 -84
q113 0 113 78q0 16 -21 57q-20 41 -20 76q0 57 33 90t88 33q58 0 93.5 -43.5t35.5 -106.5q0 -122 -87 -200t-221 -78q-162 0 -262 106t-100 279q0 200 156 335q157 136 424 136h643zM1104 1174l-244 -644h492z" />
    <glyph glyph-name="A.s2" horiz-adv-x="1839" 
d="M1225 1434l469 -1233q27 -74 65.5 -108.5t106.5 -41.5v-51h-533v51q115 7 148 34t8 93l-100 262h-562l-98 -262q-23 -60 18 -90t158 -37v-51h-452v51q136 9 182 139l393 1039q17 63 6.5 84t-61.5 35q-183 53 -393 53q-221 0 -349.5 -103t-128.5 -280q0 -123 72 -207
q73 -82 174 -82q113 0 113 76q0 10 -20.5 59.5t-20.5 73.5q0 56 34.5 90.5t86.5 34.5q58 0 93.5 -43.5t35.5 -108.5q0 -122 -87 -199t-221 -77q-162 0 -262 106t-100 277q0 220 166 346q168 127 414 127q134 0 313 -33q150 -24 278 -24h54zM1106 1174l-244 -644h492z" />
    <glyph glyph-name="A.s3" horiz-adv-x="1361" 
d="M748 1434l469 -1233q27 -74 65.5 -108.5t106.5 -41.5v-51h-533v51q115 7 148 34t8 93l-117 301q-81 -96 -231 -96q-71 0 -236 70l-61 26l-113 -301q-23 -60 17 -90t157 -37v-51h-455v51q75 7 118.5 40t66.5 99l121 318q-41 12 -82 12q-97 0 -201 -84l-43 43
q119 162 317 162q31 0 58 -6l303 799h117zM731 514q79 0 139 31l-241 626l-211 -561l74 -30q150 -66 239 -66z" />
    <glyph glyph-name="A.s4" horiz-adv-x="1638" 
d="M1024 1434l469 -1233q27 -74 65.5 -108.5t106.5 -41.5v-51h-532v51q115 7 146.5 34t6.5 93l-2 6q-61 156 -219 283q-157 130 -358 182l-179 -471q-23 -60 18.5 -89.5t158.5 -37.5v-51h-455v51q74 7 116.5 39.5t67.5 99.5l180 478q-85 10 -137 10q-131 0 -204.5 -35.5
t-73.5 -87.5q0 -14 20.5 -61t20.5 -70q0 -45 -32.5 -78t-82.5 -33q-53 0 -89 44t-36 106q0 132 131 217q131 88 346 88q99 0 170 -14l258 680h119zM903 1171l-166 -438q247 -67 428 -239z" />
    <glyph glyph-name="A.s5" horiz-adv-x="1792" 
d="M1178 1434l469 -1233q27 -74 65.5 -108.5t106.5 -41.5v-51h-533v51q115 7 148 34t8 93l-119 309q-162 -84 -291 -84q-124 0 -246 43l-102 -268q-23 -60 17 -90t157 -37v-51h-452v51q73 7 116 40t66 99l112 295q-59 28 -127 70q-181 102 -288 102q-67 0 -110.5 -38
t-43.5 -89q0 -30 16.5 -53t40 -37.5t47 -29.5t40 -39t16.5 -56q0 -44 -33 -76t-80 -32q-74 0 -126 66.5t-52 172.5q0 148 102 234q101 88 254 88q76 0 146 -20q71 -17 119 -39q63 -29 118 -60l19 -10l303 795h117zM1120 535q101 0 172 32l-233 604l-215 -571
q145 -65 276 -65z" />
    <glyph glyph-name="A.s6" horiz-adv-x="1361" 
d="M748 1434l469 -1233q27 -74 65.5 -108.5t106.5 -41.5v-51h-533v51q115 7 148 34t8 93l-101 262h-561q-197 -505 -399 -710q-203 -209 -494 -209q-161 0 -268 67q-109 68 -109 158q0 48 33 80.5t82 32.5q43 0 73.5 -23.5t50 -57.5t40.5 -68t56 -57.5t85 -23.5
q115 0 210.5 44.5t191.5 146.5q200 212 395 737l334 877h117zM629 1171l-244 -641h492z" />
    <glyph glyph-name="A.s7" horiz-adv-x="1638" 
d="M1024 1434l469 -1233q27 -74 65.5 -108.5t106.5 -41.5v-51h-532v51q115 7 146.5 34t6.5 93l-2 6q-61 156 -219 283q-153 127 -356 180l-54 -139q-205 -542 -415 -764q-204 -223 -508 -223q-160 0 -267 67q-108 68 -108 158q0 47 33 80t80 33q50 0 87 -33t58 -82
q19 -48 61 -81.5t99 -33.5q228 0 415 205q185 200 383 723l41 111q-85 10 -137 10q-131 0 -204.5 -35.5t-73.5 -87.5q0 -15 20.5 -61.5t20.5 -69.5q0 -45 -32.5 -78t-82.5 -33q-53 0 -89 44t-36 106q0 132 131 217q131 88 346 88q101 0 172 -14l258 680h117zM903 1171
l-164 -438q245 -64 426 -239z" />
    <glyph glyph-name="A.s8" horiz-adv-x="1839" 
d="M1223 1434l469 -1233q27 -74 65.5 -108.5t106.5 -41.5v-51h-533v51q115 7 148 34t8 93l-101 262h-559q-201 -507 -401 -710q-200 -209 -494 -209q-161 0 -268 67q-108 68 -108 158q0 48 32.5 80.5t81.5 32.5q50 0 86 -33t58 -82q19 -48 61.5 -81.5t99.5 -33.5
q113 0 209 43.5t194.5 147.5t196 286t199.5 451l254 672q44 114 -53 114h-395q-222 0 -350 -101.5t-128 -278.5q0 -123 72 -207q75 -84 174 -84q113 0 113 78q0 10 -20.5 59.5t-20.5 73.5q0 57 33 90t88 33q58 0 93.5 -43.5t35.5 -106.5q0 -122 -87 -200t-221 -78
q-162 0 -262 106t-100 279q0 200 156 335q157 136 424 136h643zM1106 1169l-244 -639h490z" />
    <glyph glyph-name="A.s9" horiz-adv-x="2230" 
d="M1616 1434l469 -1233q27 -74 65.5 -108.5t106.5 -41.5v-51h-533v51q115 7 148 34t8 93l-100 262h-559q-122 -286 -281 -432q-164 -147 -424 -147q-228 0 -387 129q-158 131 -158 354q0 186 109 295t258 109q151 0 235 -84q86 -83 86 -195q0 -72 -37 -116t-98 -44
q-48 0 -83 31.5t-35 77.5q0 41 26 80q29 44 29 67q0 37 -39 60.5t-100 23.5q-97 0 -175 -84q-73 -82 -73 -221q0 -179 129 -287q131 -104 313 -104q229 0 379 147t276 475l328 859h117zM1497 1171l-242 -641h490z" />
    <glyph glyph-name="A.s10" horiz-adv-x="2578" 
d="M1962 1434l473 -1237q25 -73 62.5 -106t105.5 -40v-51h-532v51q115 7 147.5 34t7.5 93l-100 262h-559q-193 -493 -412 -700q-218 -209 -512 -209q-286 0 -465 176q-176 176 -176 447q0 268 180 442q182 176 410 176q205 0 338 -121t133 -280q0 -125 -57 -199t-144 -74
q-57 0 -94 35.5t-37 89.5q0 34 17.5 58.5t42 39t49 29.5t42 39t17.5 57q0 93 -92 164q-88 70 -215 70q-189 0 -342 -150q-152 -152 -152 -378q0 -239 152 -385q153 -144 391 -144q133 0 242 44.5t217 150t209.5 288t203.5 451.5l332 877h117zM1843 1171l-241 -641h489z" />
    <glyph glyph-name="A.s11" horiz-adv-x="2772" 
d="M2157 1434l458 -1205q36 -95 74 -133t109 -45v-51h-533v51q114 7 147 36t9 91l-101 262h-559q-346 -859 -1093 -856q-269 0 -469 150q-199 150 -199 381q0 210 145 352q146 143 363 143q199 0 336 -94q141 -91 141 -219q0 -53 -33 -89t-88 -36q-114 0 -149 170
q-8 43 -17 66t-32 53q-43 57 -170 57q-164 0 -283 -119q-119 -116 -119 -284q0 -198 170 -318q170 -123 404 -123q702 0 1018 832l284 745q19 41 5 64.5t-70 36.5q-291 80 -541 80q-225 0 -339 -83.5t-114 -228.5q0 -92 56 -156.5t149 -64.5q47 0 75.5 25t42.5 60.5l28 71
t42.5 60.5t75.5 25q54 0 88.5 -37t34.5 -88q0 -97 -92 -162q-94 -66 -231 -66q-169 0 -271 97q-98 94 -98 235q0 174 137 287q138 117 416 117q176 0 405 -45q232 -45 318 -45h70zM2038 1171l-242 -641h490z" />
    <glyph glyph-name="A.a1" horiz-adv-x="1431" 
d="M1171 1434v-1205q0 -114 35 -141q36 -28 164 -37v-51h-602v51q128 9 164 37q37 27 37 141v215h-502l-156 -223q-48 -75 -14 -118.5t139 -51.5v-51h-469v51q113 3 236 178l837 1205h131zM969 1167l-439 -630h439v630z" />
    <glyph glyph-name="A.s12" horiz-adv-x="1818" 
d="M1559 1434v-1205q0 -114 34 -141q36 -28 164 -37v-51h-602v51q128 9 164 37q37 27 37 141v215h-502l-156 -223q-48 -75 -14 -118.5t139 -51.5v-51h-469v51q113 3 236 178l702 1010q28 51 9.5 76.5t-70.5 25.5h-651q-222 0 -350 -100.5t-128 -277.5q0 -123 72 -207
q75 -84 174 -84q113 0 113 78q0 16 -21 59q-20 41 -20 74q0 57 33 90t88 33q58 0 93.5 -43.5t35.5 -106.5q0 -122 -87 -200t-221 -78q-162 0 -262 106t-100 279q0 200 156 335q157 136 424 136h979zM1356 1167l-438 -630h438v630z" />
    <glyph glyph-name="A.s13" horiz-adv-x="1656" 
d="M1395 1434v-1205q0 -114 35 -141q39 -28 165 -37v-51h-602v51q119 9 158 31q40 24 43 113q-25 133 -115 267.5t-219 225.5l-325 -467q-46 -75 -11.5 -118.5t138.5 -51.5v-51h-469v51q112 3 235 178l352 506q-160 86 -329 86q-116 0 -184 -35.5t-68 -85.5
q0 -15 20.5 -61.5t20.5 -71.5q0 -45 -32.5 -76.5t-82.5 -31.5q-53 0 -89 43.5t-36 105.5q0 126 127 215q131 90 324 90q211 0 383 -100l432 621h129zM1194 1167l-281 -403q180 -133 281 -334v737z" />
    <glyph glyph-name="A.s14" horiz-adv-x="1783" 
d="M1524 1434v-1205q0 -114 35 -141q36 -28 163 -37v-51h-602v51q128 9 164 37q37 27 37 141v258q-150 -84 -289 -84q-106 0 -219 35l-149 -217q-46 -75 -11.5 -118.5t138.5 -51.5v-51h-472v51q115 3 238 178l168 244q-56 28 -152 82q-181 102 -288 102q-67 0 -110.5 -38
t-43.5 -89q0 -28 16.5 -48t40 -33t47 -27.5t40 -41.5t16.5 -65q0 -44 -33 -76t-80 -32q-74 0 -126 66.5t-52 172.5q0 148 102 234q101 88 254 88q78 0 148 -20q69 -19 114 -39q19 -7 119 -58q45 -25 84 -43l572 826h131zM1120 535q113 0 201 49v583l-414 -596
q101 -36 213 -36z" />
    <glyph glyph-name="A.s15" horiz-adv-x="2803" 
d="M2544 1434v-1205q0 -114 34 -141q36 -28 164 -37v-51h-600v51q128 9 164 37q35 27 35 141v215h-498l-184 -268q-212 -308 -452.5 -450t-532.5 -142q-313 0 -496 154q-178 153 -178 387q0 199 141 319q145 121 314 121q101 0 168 -45.5t67 -122.5q0 -54 -36.5 -90.5
t-90.5 -36.5q-35 0 -61 14t-42.5 34.5t-32.5 41t-41 34.5t-58 14q-84 0 -156 -78q-70 -76 -70 -205q0 -196 158 -324q160 -127 414 -127q527 0 905 551l834 1209h131zM2341 1171l-434 -634h434v634z" />
    <glyph glyph-name="A.s16" horiz-adv-x="2799" 
d="M2540 1434v-1205q0 -114 34 -141q36 -28 164 -37v-51h-602v51q128 9 164 37q37 27 37 141v215h-500l-184 -268q-218 -312 -451.5 -452t-523.5 -140q-303 0 -492 183q-186 180 -186 454q0 265 178 434q180 168 410 168q200 0 332 -114q131 -113 131 -279
q0 -126 -55.5 -197t-147.5 -71q-57 0 -95 35t-38 86q0 39 17.5 64.5t43 38.5t51 26.5t43 39t17.5 64.5q0 95 -82 155t-217 60q-188 0 -338 -141q-148 -142 -148 -369q0 -235 166 -391q167 -156 410 -156q516 0 897 551l833 1209h132zM2337 1171l-436 -634h436v634z" />
    <glyph glyph-name="A.s17" horiz-adv-x="2803" 
d="M2544 1434v-1205q0 -114 34 -141q36 -28 164 -37v-51h-600v51q128 9 164 37q35 27 35 141v215h-498l-184 -268q-212 -308 -452.5 -450t-532.5 -142q-313 0 -496 154q-178 153 -178 387q0 199 141 319q145 121 314 121q101 0 168 -45.5t67 -122.5q0 -54 -36.5 -90.5
t-90.5 -36.5q-35 0 -61 14t-43 34.5t-33 41t-40.5 34.5t-57.5 14q-84 0 -156 -78q-70 -76 -70 -205q0 -196 158 -324q160 -127 414 -127q527 0 905 551l692 1002q65 114 -55 114h-649q-222 0 -351 -101t-129 -277q0 -123 72 -207q75 -84 174 -84q113 0 113 78q0 10 -19.5 60
t-19.5 73q0 56 33.5 89.5t85.5 33.5q58 0 93.5 -43.5t35.5 -106.5q0 -123 -86.5 -200.5t-220.5 -77.5q-161 0 -261 106t-100 279q0 200 156 335q157 136 424 136h977zM2341 1171l-434 -634h434v634z" />
    <glyph glyph-name="A.s18" horiz-adv-x="2799" 
d="M2540 1434v-1205q0 -114 34 -141q36 -28 164 -37v-51h-602v51q128 9 164 37q37 27 37 141v215h-500l-184 -268q-218 -312 -451.5 -452t-523.5 -140q-303 0 -492 183q-186 180 -186 454q0 265 178 434q180 168 410 168q200 0 332 -114q131 -113 131 -279
q0 -125 -55.5 -195.5t-147.5 -70.5q-57 0 -95 34t-38 85q0 40 17.5 65.5t43 39t51 26.5t43 38t17.5 64q0 95 -82 155t-217 60q-188 0 -338 -141q-148 -142 -148 -369q0 -235 166 -391q167 -156 410 -156q516 0 897 551l690 1002q65 114 -53 114h-563q-222 0 -350 -100.5
t-128 -277.5q0 -123 72 -207t172 -84q115 0 115 78q0 16 -21 59q-20 41 -20 74q0 56 33.5 89.5t85.5 33.5q60 0 95.5 -43t35.5 -107q0 -123 -87 -200.5t-222 -77.5q-161 0 -261 106t-100 279q0 200 156 335q157 136 424 136h891zM2337 1171l-436 -634h436v634z" />
    <glyph glyph-name="A.s19" horiz-adv-x="2803" 
d="M2544 1434v-1205q0 -114 34 -141q36 -28 164 -37v-51h-600v51q125 9 160 33q36 26 39 127q-31 131 -119 258.5t-213 216.5l-350 -510q-212 -308 -452.5 -450t-532.5 -142q-313 0 -496 154q-178 153 -178 387q0 199 141 319q145 121 314 121q101 0 168 -45.5t67 -122.5
q0 -54 -36.5 -90.5t-90.5 -36.5q-35 0 -61 14t-42.5 34.5t-32.5 41t-41 34.5t-58 14q-84 0 -156 -78q-70 -76 -70 -205q0 -196 158 -324q160 -127 414 -127q527 0 905 551l352 510q-160 86 -332 86q-116 0 -182.5 -35.5t-66.5 -85.5q0 -15 19.5 -61.5t19.5 -71.5
q0 -45 -31.5 -76.5t-81.5 -31.5q-53 0 -89 43.5t-36 105.5q0 128 127 217q125 88 321 88q214 0 386 -100l428 621h131zM2341 1171l-279 -407q178 -128 279 -328v735z" />
    <glyph glyph-name="A.s20" horiz-adv-x="2799" 
d="M2540 1434v-1205q0 -114 34 -141q36 -28 164 -37v-51h-602v51q124 9 162 33q36 23 39 121q-30 158 -109 294t-200 224l-375 -547q-218 -312 -451.5 -452t-523.5 -140q-303 0 -492 183q-186 180 -186 454q0 265 178 434q180 168 410 168q200 0 332 -114q131 -113 131 -279
q0 -125 -55.5 -195.5t-147.5 -70.5q-57 0 -95 34t-38 85q0 40 17.5 65.5t43 39t51 26.5t43 38t17.5 64q0 95 -82 155t-217 60q-188 0 -338 -141q-148 -142 -148 -369q0 -235 166 -391q167 -156 410 -156q516 0 897 551l375 545q-143 76 -322 76q-117 0 -184.5 -34.5
t-67.5 -84.5q0 -16 20.5 -63t20.5 -72q0 -46 -31 -77.5t-81 -31.5q-55 0 -91 44t-36 106q0 126 127 215q131 90 323 90q209 0 375 -90l405 586h132zM2337 1171l-256 -372q167 -121 256 -328v700z" />
    <glyph glyph-name="A.s21" horiz-adv-x="1937" 
d="M1700 1434v-1205q0 -114 35 -141q36 -28 163 -37v-51h-600v51q128 9 164 37q35 27 35 141v287h-592l-92 -223q-79 -188 -189.5 -271t-275.5 -83q-156 0 -252 58.5t-96 145.5q0 50 32 82.5t81 32.5q41 0 69.5 -22t45.5 -53t35 -62.5t50.5 -53.5t79.5 -22q214 0 334 279
l107 256l81 190q36 85 82 174q53 107 93 164q124 178 225 240q145 90 309 90q6 0 76 -4zM944 608h553v713q-188 -38 -321 -248q-65 -104 -119 -209q-48 -100 -113 -256z" />
    <glyph glyph-name="A.s22" horiz-adv-x="1937" 
d="M1700 1434v-1205q0 -114 35 -141q36 -28 163 -37v-51h-600v51q119 9 158 31q38 24 41 113q-38 202 -160 364q-121 165 -311 238l-108 -252l-105 -252q-79 -188 -189.5 -271t-275.5 -83q-156 0 -252 58.5t-96 145.5q0 50 32 82.5t81 32.5q41 0 69.5 -22t45.5 -53t35 -62.5
t50.5 -53.5t79.5 -22q214 0 334 279l107 256q74 177 106 245q-103 23 -195 23q-117 0 -183 -35.5t-66 -87.5q0 -14 19.5 -61t19.5 -70q0 -46 -31.5 -78.5t-81.5 -32.5q-53 0 -89 44t-36 106q0 129 125 217t323 88q122 0 234 -31q66 134 131.5 228.5t143.5 164.5t169.5 104
t200.5 34q6 0 76 -4zM1065 879q294 -118 432 -428v870q-128 -24 -231 -133t-201 -309z" />
    <glyph glyph-name="A.s23" horiz-adv-x="2652" 
d="M2415 1434v-1205q0 -114 34 -141q36 -28 164 -37v-51h-600v51q128 9 164 37q35 27 35 141v287h-584l-80 -192q-302 -734 -895 -734q-302 0 -477 152q-172 150 -172 387q0 202 141 322q144 120 314 120q101 0 168 -45.5t67 -122.5q0 -54 -36.5 -90.5t-90.5 -36.5
q-30 0 -54 10t-38 25.5t-29.5 33.5t-28.5 33.5t-35 25.5t-50 10q-85 0 -156 -80q-70 -76 -70 -205q0 -196 150 -322t399 -126q525 0 803 684l88 215q75 175 84 194q4 8 33.5 71t50.5 103q57 115 94 164q122 176 224 238q147 88 307 88q6 0 76 -4zM1665 608h547v713
q-138 -26 -256 -168q-49 -55 -107 -158q-45 -81 -94 -180q-45 -99 -90 -207z" />
    <glyph glyph-name="A.s24" horiz-adv-x="2652" 
d="M2415 1434v-1205q0 -114 34 -141q36 -28 164 -37v-51h-600v51q113 6 154 29q40 24 43 106q-29 165 -158 332q-123 159 -315 256l-95 -221l-94 -229q-302 -734 -895 -734q-302 0 -477 152q-172 150 -172 387q0 202 141 322q144 120 314 120q101 0 168 -45.5t67 -122.5
q0 -54 -36.5 -90.5t-90.5 -36.5q-30 0 -54 10t-38 25.5t-29.5 33.5t-28.5 33.5t-35 25.5t-50 10q-85 0 -156 -80q-70 -76 -70 -205q0 -196 150 -322t399 -126q525 0 803 684l88 215q97 222 103 233q-162 61 -332 61q-116 0 -184 -36t-68 -86q0 -14 20.5 -61t20.5 -70
q0 -46 -31.5 -78.5t-81.5 -32.5q-55 0 -91 43.5t-36 105.5q0 129 127 218q125 88 324 88q194 0 371 -68q135 276 286.5 408.5t364.5 132.5q6 0 76 -4zM1778 858q293 -144 434 -436v899q-126 -24 -229.5 -138.5t-204.5 -324.5z" />
    <glyph glyph-name="A.s25" horiz-adv-x="2678" 
d="M2439 1434v-1205q0 -114 35 -141q36 -28 164 -37v-51h-600v51q128 9 164 37q34 27 34 141v287h-581l-82 -192q-304 -740 -895 -740q-303 0 -492 183q-186 180 -186 454q0 265 178 434q180 168 410 168q200 0 332 -114q131 -113 131 -279q0 -125 -55.5 -195.5
t-147.5 -70.5q-57 0 -95 34t-38 85q0 40 17.5 65.5t43 39t51 26.5t43 38t17.5 64q0 95 -82 155t-217 60q-188 0 -338 -141q-148 -142 -148 -369q0 -235 166 -391q167 -156 410 -156q268 0 463.5 169.5t339.5 518.5l96 226l82 192q7 15 22.5 47.5t30.5 63.5t31 61
q53 102 94 162q120 173 223 236q141 88 305 88q8 0 74 -4zM1694 608h542v713q-134 -25 -258 -170q-51 -60 -104 -158q-55 -103 -90 -178q-32 -68 -90 -207z" />
    <glyph glyph-name="A.c1" horiz-adv-x="1413" 
d="M1247 70q49 0 107 24v-74q-89 -51 -215 -51q-187 0 -187 197v4q-278 -201 -495 -201q-178 0 -286 90t-108 244q0 238 259 363q127 62 275.5 103.5t354.5 74.5v227q0 163 -58.5 232t-199.5 69q-118 0 -204.5 -72.5t-118.5 -197.5q-41 -141 -127 -141q-51 0 -80 35t-29 98
q0 133 162 252q161 118 395 118q226 0 344.5 -96t118.5 -311v-867q0 -120 92 -120zM537 86q179 0 415 178v490q-339 -49 -503 -148t-164 -276q0 -114 69 -179t183 -65z" />
    <glyph glyph-name="A.XA.sx" horiz-adv-x="1355" 
d="M631 1434h117l469 -1233q27 -74 65.5 -108.5t106.5 -41.5v-51h-533v51q115 7 148 34t8 93l-381 983l-371 -983q-23 -60 15 -90t153 -37v-51h-455v51q75 7 118.5 40t66.5 99z" />
    <glyph glyph-name="Aacute.s1" horiz-adv-x="1839" 
d="M1020 1761l-275 -239h-81l188 297q19 32 57 32h121q33 0 33 -30q0 -20 -43 -60zM1223 1434l469 -1233q27 -74 65.5 -108.5t106.5 -41.5v-51h-533v51q115 7 148 34t8 93l-101 262h-561l-98 -262q-23 -60 18 -90t158 -37v-51h-452v51q135 9 184 139l399 1057q35 96 -59 96
h-395q-222 0 -350 -101.5t-128 -278.5q0 -123 72 -207q75 -84 174 -84q113 0 113 78q0 16 -21 57q-20 41 -20 76q0 57 33 90t88 33q58 0 93.5 -43.5t35.5 -106.5q0 -122 -87 -200t-221 -78q-162 0 -262 106t-100 279q0 200 156 335q157 136 424 136h643zM1104 1174
l-244 -644h492z" />
    <glyph glyph-name="Aacute.s2" horiz-adv-x="1839" 
d="M1460 1792l-274 -240h-82l188 297q20 33 58 33h120q33 0 33 -31q0 -19 -43 -59zM1225 1434l469 -1233q27 -74 65.5 -108.5t106.5 -41.5v-51h-533v51q115 7 148 34t8 93l-100 262h-562l-98 -262q-23 -60 18 -90t158 -37v-51h-452v51q136 9 182 139l393 1039q17 63 6.5 84
t-61.5 35q-183 53 -393 53q-221 0 -349.5 -103t-128.5 -280q0 -123 72 -207q73 -82 174 -82q113 0 113 76q0 10 -20.5 59.5t-20.5 73.5q0 56 34.5 90.5t86.5 34.5q58 0 93.5 -43.5t35.5 -108.5q0 -122 -87 -199t-221 -77q-162 0 -262 106t-100 277q0 220 166 346
q168 127 414 127q134 0 313 -33q150 -24 278 -24h54zM1106 1174l-244 -644h492z" />
    <glyph glyph-name="Aacute.s3" horiz-adv-x="1361" 
d="M983 1792l-274 -240h-82l188 297q20 33 57 33h121q33 0 33 -31q0 -19 -43 -59zM748 1434l469 -1233q27 -74 65.5 -108.5t106.5 -41.5v-51h-533v51q115 7 148 34t8 93l-117 301q-81 -96 -231 -96q-71 0 -236 70l-61 26l-113 -301q-23 -60 17 -90t157 -37v-51h-455v51
q75 7 118.5 40t66.5 99l121 318q-41 12 -82 12q-97 0 -201 -84l-43 43q119 162 317 162q31 0 58 -6l303 799h117zM731 514q79 0 139 31l-241 626l-211 -561l74 -30q150 -66 239 -66z" />
    <glyph glyph-name="Aacute.s4" horiz-adv-x="1638" 
d="M1260 1792l-275 -240h-82l189 297q20 33 57 33h121q33 0 33 -31q0 -19 -43 -59zM1024 1434l469 -1233q27 -74 65.5 -108.5t106.5 -41.5v-51h-532v51q115 7 146.5 34t6.5 93l-2 6q-61 156 -219 283q-157 130 -358 182l-179 -471q-23 -60 18.5 -89.5t158.5 -37.5v-51h-455
v51q74 7 116.5 39.5t67.5 99.5l180 478q-85 10 -137 10q-131 0 -204.5 -35.5t-73.5 -87.5q0 -14 20.5 -61t20.5 -70q0 -45 -32.5 -78t-82.5 -33q-53 0 -89 44t-36 106q0 132 131 217q131 88 346 88q99 0 170 -14l258 680h119zM903 1171l-166 -438q247 -67 428 -239z" />
    <glyph glyph-name="Aacute.s5" horiz-adv-x="1792" 
d="M1417 1792l-274 -240h-82l188 297q20 33 58 33h120q33 0 33 -31q0 -19 -43 -59zM1178 1434l469 -1233q27 -74 65.5 -108.5t106.5 -41.5v-51h-533v51q115 7 148 34t8 93l-119 309q-162 -84 -291 -84q-124 0 -246 43l-102 -268q-23 -60 17 -90t157 -37v-51h-452v51
q73 7 116 40t66 99l112 295q-59 28 -127 70q-181 102 -288 102q-67 0 -110.5 -38t-43.5 -89q0 -30 16.5 -53t40 -37.5t47 -29.5t40 -39t16.5 -56q0 -44 -33 -76t-80 -32q-74 0 -126 66.5t-52 172.5q0 148 102 234q101 88 254 88q76 0 146 -20q71 -17 119 -39q63 -29 118 -60
l19 -10l303 795h117zM1120 535q101 0 172 32l-233 604l-215 -571q145 -65 276 -65z" />
    <glyph glyph-name="Aacute.s6" horiz-adv-x="1361" 
d="M985 1792l-274 -240h-82l188 297q20 33 57 33h121q33 0 33 -31q0 -19 -43 -59zM748 1434l469 -1233q27 -74 65.5 -108.5t106.5 -41.5v-51h-533v51q115 7 148 34t8 93l-101 262h-561q-197 -505 -399 -710q-203 -209 -494 -209q-161 0 -268 67q-109 68 -109 158
q0 48 33 80.5t82 32.5q43 0 73.5 -23.5t50 -57.5t40.5 -68t56 -57.5t85 -23.5q115 0 210.5 44.5t191.5 146.5q200 212 395 737l334 877h117zM629 1171l-244 -641h492z" />
    <glyph glyph-name="Aacute.s7" horiz-adv-x="1638" 
d="M1260 1792l-275 -240h-82l189 297q20 33 57 33h121q33 0 33 -31q0 -19 -43 -59zM1024 1434l469 -1233q27 -74 65.5 -108.5t106.5 -41.5v-51h-532v51q115 7 146.5 34t6.5 93l-2 6q-61 156 -219 283q-153 127 -356 180l-54 -139q-205 -542 -415 -764q-204 -223 -508 -223
q-160 0 -267 67q-108 68 -108 158q0 47 33 80t80 33q50 0 87 -33t58 -82q19 -48 61 -81.5t99 -33.5q228 0 415 205q185 200 383 723l41 111q-85 10 -137 10q-131 0 -204.5 -35.5t-73.5 -87.5q0 -15 20.5 -61.5t20.5 -69.5q0 -45 -32.5 -78t-82.5 -33q-53 0 -89 44t-36 106
q0 132 131 217q131 88 346 88q101 0 172 -14l258 680h117zM903 1171l-164 -438q245 -64 426 -239z" />
    <glyph glyph-name="Aacute.s8" horiz-adv-x="1839" 
d="M1458 1792l-274 -240h-82l188 297q20 33 58 33h120q33 0 33 -31q0 -19 -43 -59zM1223 1434l469 -1233q27 -74 65.5 -108.5t106.5 -41.5v-51h-533v51q115 7 148 34t8 93l-101 262h-559q-201 -507 -401 -710q-200 -209 -494 -209q-161 0 -268 67q-108 68 -108 158
q0 48 32.5 80.5t81.5 32.5q50 0 86 -33t58 -82q19 -48 61.5 -81.5t99.5 -33.5q113 0 209 43.5t194.5 147.5t196 286t199.5 451l254 672q44 114 -53 114h-395q-222 0 -350 -101.5t-128 -278.5q0 -123 72 -207q75 -84 174 -84q113 0 113 78q0 10 -20.5 59.5t-20.5 73.5
q0 57 33 90t88 33q58 0 93.5 -43.5t35.5 -106.5q0 -122 -87 -200t-221 -78q-162 0 -262 106t-100 279q0 200 156 335q157 136 424 136h643zM1106 1169l-244 -639h490z" />
    <glyph glyph-name="Aacute.s9" horiz-adv-x="2230" 
d="M1851 1792l-274 -240h-82l188 297q20 33 58 33h121q32 0 32 -31q0 -19 -43 -59zM1616 1434l469 -1233q27 -74 65.5 -108.5t106.5 -41.5v-51h-533v51q115 7 148 34t8 93l-100 262h-559q-122 -286 -281 -432q-164 -147 -424 -147q-228 0 -387 129q-158 131 -158 354
q0 186 109 295t258 109q151 0 235 -84q86 -83 86 -195q0 -72 -37 -116t-98 -44q-48 0 -83 31.5t-35 77.5q0 41 26 80q29 44 29 67q0 37 -39 60.5t-100 23.5q-97 0 -175 -84q-73 -82 -73 -221q0 -179 129 -287q131 -104 313 -104q229 0 379 147t276 475l328 859h117z
M1497 1171l-242 -641h490z" />
    <glyph glyph-name="Aacute.s10" horiz-adv-x="2578" 
d="M2198 1792l-275 -240h-82l189 297q20 33 57 33h121q33 0 33 -31q0 -19 -43 -59zM1962 1434l473 -1237q25 -73 62.5 -106t105.5 -40v-51h-532v51q115 7 147.5 34t7.5 93l-100 262h-559q-193 -493 -412 -700q-218 -209 -512 -209q-286 0 -465 176q-176 176 -176 447
q0 268 180 442q182 176 410 176q205 0 338 -121t133 -280q0 -125 -57 -199t-144 -74q-57 0 -94 35.5t-37 89.5q0 34 17.5 58.5t42 39t49 29.5t42 39t17.5 57q0 93 -92 164q-88 70 -215 70q-189 0 -342 -150q-152 -152 -152 -378q0 -239 152 -385q153 -144 391 -144
q133 0 242 44.5t217 150t209.5 288t203.5 451.5l332 877h117zM1843 1171l-241 -641h489z" />
    </font>
</defs>
</svg>
